<?xml version="1.0" encoding="utf-8"?>
<!-- Generator: Adobe Illustrator 17.0.0, SVG Export Plug-In . SVG Version: 6.00 Build 0)  -->
<!DOCTYPE svg PUBLIC "-//W3C//DTD SVG 1.1//EN" "http://www.w3.org/Graphics/SVG/1.1/DTD/svg11.dtd">
<svg version="1.1" id="Layer_1" xmlns="http://www.w3.org/2000/svg" xmlns:xlink="http://www.w3.org/1999/xlink" x="0px" y="0px"
	 width="50px" height="50px" viewBox="0 0 50 50" enable-background="new 0 0 50 50" xml:space="preserve">
<g>
	<g>
		<path fill="#77D0EE" d="M44.97,24.76c0,10.992-8.91,19.902-19.902,19.902c-10.994,0-19.904-8.91-19.904-19.902
			c0-10.992,8.91-19.903,19.904-19.903C36.06,4.856,44.97,13.768,44.97,24.76"/>
		<path fill="#35C4EA" d="M25.3,4.857c-2.01,0-3.948,0.302-5.777,0.855c3.895,11.238,1.201,25.967-5.074,35.727
			c3.121,2.037,6.846,3.224,10.851,3.224c10.992,0,19.902-8.91,19.902-19.904C45.202,13.767,36.292,4.857,25.3,4.857"/>
		<g>
			<defs>
				<path id="SVGID_1_" d="M5.166,24.76c0,10.992,8.91,19.904,19.902,19.904S44.97,35.752,44.97,24.76S36.06,4.856,25.068,4.856
					S5.166,13.768,5.166,24.76"/>
			</defs>
			<clipPath id="SVGID_2_">
				<use xlink:href="#SVGID_1_"  overflow="visible"/>
			</clipPath>
			<path clip-path="url(#SVGID_2_)" fill="none" stroke="#EDCAAA" stroke-width="2.361" stroke-miterlimit="10" d="M12.979,10.575
				c0,0-1.818-3.714-3.042,0.791c-1.225,4.505,3.003,8.494,3.951,9.522c0.948,1.028,2.41,2.57,2.41,2.57s1.56,7.188,4.821,11.023
				c3.357,3.951,8.219,6.799,8.219,6.799s1.643,2.645,8.171,2.645c3.604,0,8.977-4.819,8.977-4.819s4.215-3.092,6.639-7.744
				c2.488-4.782,2.726-9.327,2.726-9.327V-0.212H11.794c0,0-0.277,2.41,0.039,4.78C12.149,6.94,12.979,10.575,12.979,10.575z"/>
			<path clip-path="url(#SVGID_2_)" fill="#FFECD3" d="M12.979,10.575c0,0-1.818-3.714-3.042,0.791
				c-1.225,4.505,3.003,8.494,3.951,9.522c0.948,1.028,2.41,2.57,2.41,2.57s1.56,7.188,4.821,11.023
				c3.357,3.951,8.219,6.799,8.219,6.799s1.643,2.645,8.171,2.645c3.604,0,8.977-4.819,8.977-4.819s4.215-3.092,6.639-7.744
				c2.488-4.782,2.726-9.327,2.726-9.327V-0.212H11.794c0,0-0.277,2.41,0.039,4.78C12.149,6.94,12.979,10.575,12.979,10.575"/>
			<path clip-path="url(#SVGID_2_)" fill="#FFEEDB" d="M33.694,27.394c-0.593-0.025-1.209,0.636-1.56,1.016
				c-0.176,0.189-0.408,0.398-0.546,0.615c-0.177,0.279-0.237,0.613-0.418,0.902c-0.568,0.903-0.188,1.879,0.025,2.934
				c0.182,0.904-0.111,2.08,0.814,2.531c0.732,0.355,1.478,0.72,2.23,1.053c0.573,0.252,1.391,0.183,2.022,0.183
				c0.865,0,1.83,0.042,2.525-0.525c0.447-0.367,0.893-0.812,1.281-1.239c0.684-0.751,0.61-0.112,0.66-1.087
				c0.04-0.777-0.117-2.861-0.392-3.602c-0.313-0.846-0.654-1.595-1.38-2.1c-0.786-0.544-1.517-0.67-2.477-0.709
				c-0.96-0.039-1.899-0.042-2.85,0.121"/>
			<path clip-path="url(#SVGID_2_)" fill="#FDD2B4" d="M31.725,22.714c0,0-0.177,2.732,1.408,3.612
				c1.585,0.881,3.69,1.586,5.214-0.176c1.524-1.761,0.906-3.437,0.906-3.437l-3.807,0.983L31.725,22.714z"/>
			<path clip-path="url(#SVGID_2_)" fill="#FDD2B4" d="M21.176,18.847c0,0,1.998,0.855,3.624,0.789
				c1.626-0.064,3.383-2.091,3.727-4.152c0.345-2.061-0.136-1.781-0.136-1.781l-2.459,2.532L21.176,18.847z"/>
			<path clip-path="url(#SVGID_2_)" fill="#FFFFFF" d="M27.313,14.603c0,0,1.323-1.809-0.141-2.518
				c-1.465-0.709-4.285,0.048-5.245,1.904c-1.881,3.633,4.268,2.529,4.268,2.529l-0.129,0.282L27.313,14.603z"/>
			<path clip-path="url(#SVGID_2_)" fill="#6D3500" d="M32.034,19.941c0,0-0.173,0.24-0.413,0.669
				c-0.117,0.213-0.244,0.482-0.346,0.779c-0.099,0.297-0.144,0.643-0.072,0.906c0.059,0.132,0.105,0.225,0.227,0.347
				c0.072,0.088,0.147,0.176,0.222,0.267c0.055,0.025,0.105,0.073,0.139,0.091c0.014-0.004,0.021-0.006,0.027,0
				c0.004,0.002-0.035-0.034-0.057-0.025c-0.024,0.002-0.044-0.02-0.062-0.003c0.009-0.017,0.012-0.021,0.044-0.043
				c0.201-0.167,0.592-0.399,1.072-0.425c1.045-0.031,1.63,0.792,1.928,1.115c0.133,0.156,0.099,0.076,0.129,0.105
				c0.043,0.021,0.097,0.039,0.157,0.057c0.126,0.031,0.306,0.033,0.501-0.003c0.192-0.031,0.405-0.093,0.579-0.177
				c0.255-0.148-0.014,0.084,0.418-0.365c0.263-0.248,0.545-0.457,0.912-0.618c0.084-0.042,0.186-0.077,0.293-0.105
				c0.099-0.033,0.207-0.057,0.334-0.064l0.18-0.014l0.022-0.002h0.01l0.105,0.006l0.025,0.006l0.048,0.009
				c0,0,0.162,0.035,0.246,0.069c0.115,0.042,0.16,0.074,0.211,0.105c0.207,0.127,0.328,0.252,0.424,0.345l0.201,0.204
				c0.044,0.036-0.066-0.022-0.205,0.027c-0.12,0.057-0.086,0.087-0.045,0.035l0.035-0.035l0.008-0.009l0.004-0.004
				c-0.047,0.088-0.01,0.023-0.021,0.042l0.003-0.006l0.024-0.037l0.092-0.154c0.028-0.047,0.07-0.109,0.082-0.143
				c0.01-0.033,0.024-0.061,0.041-0.093c0.037-0.054,0.063-0.131,0.081-0.213c0.03-0.079,0.041-0.162,0.047-0.244
				c0.063-0.667-0.249-1.332-0.486-1.744c-0.243-0.424-0.429-0.656-0.429-0.656s0.274,0.11,0.682,0.435
				c0.203,0.164,0.449,0.375,0.67,0.686c0.225,0.305,0.456,0.707,0.533,1.23c0.022,0.129,0.036,0.266,0.029,0.405
				c0,0.138-0.006,0.283-0.048,0.447c-0.016,0.08-0.035,0.16-0.057,0.238c-0.023,0.08-0.043,0.117-0.066,0.179l-0.064,0.166
				l-0.016,0.042l-0.002,0.006l-0.027,0.049l-0.008,0.016L40.38,23.87l-0.069,0.115c-0.098,0.144-0.244,0.363-0.604,0.494
				c-0.171,0.064-0.396,0.059-0.545,0.021c-0.168-0.039-0.273-0.096-0.375-0.151c-0.19-0.109-0.297-0.203-0.402-0.282
				c-0.099-0.079-0.18-0.127-0.202-0.13c0.189,0.057,0.045,0.03-0.069,0.112c-0.127,0.074-0.293,0.205-0.426,0.348l-0.074,0.084
				l-0.063,0.084l-0.03,0.039c-0.036,0.044-0.074,0.086-0.113,0.125c-0.246,0.227-0.393,0.288-0.568,0.383
				c-0.334,0.164-0.668,0.271-1.033,0.334c-0.365,0.057-0.764,0.069-1.185-0.039c-0.213-0.057-0.423-0.143-0.619-0.268
				c-0.094-0.053-0.216-0.16-0.313-0.248c-0.126-0.112-0.129-0.137-0.183-0.198l-0.16-0.199l-0.095-0.126
				c-0.06-0.099-0.123-0.138-0.18-0.205c-0.118-0.105-0.189-0.153-0.225-0.16c-0.036-0.003,0.366-0.201,0.285-0.18l0.123-0.081
				c0.345-0.217-0.408,0.125-0.411,0.123c0.014-0.02,0.174-0.19,0.123-0.165c-0.078,0.039-0.183-0.12-0.286-0.083
				c-0.144,0.035-0.717,0.096-0.864,0.083c-0.143-0.017-0.637,0.015-0.739-0.042s-0.115,0.191-0.205,0.125
				c-0.155-0.135-0.089-0.05-0.201-0.189c-0.064-0.109-0.117-0.209-0.17-0.313c-0.15-0.249-0.243-0.588-0.256-0.873
				c-0.005-0.591,0.244-1.008,0.462-1.317c0.222-0.312,0.463-0.525,0.66-0.693C31.768,20.066,32.034,19.941,32.034,19.941"/>
			<path clip-path="url(#SVGID_2_)" fill="#DB986C" d="M38.583,13.064c0,0-0.053,0.102-0.129,0.27
				c-0.076,0.172-0.172,0.418-0.271,0.709c-0.04,0.145-0.085,0.306-0.132,0.474c-0.033,0.168-0.068,0.345-0.102,0.529
				c-0.018,0.183-0.038,0.373-0.057,0.565c0.002,0.193,0.003,0.39,0.005,0.587c0.003,0.178,0.028,0.417,0.042,0.618
				c0.02,0.209,0.018,0.417,0.027,0.617c0.017,0.397,0.053,0.75,0.051,1.071c0.033,0.633,0.03,1.08,0.03,1.08
				s-0.062-0.092-0.15-0.264c-0.081-0.174-0.207-0.422-0.308-0.734c-0.051-0.157-0.105-0.328-0.151-0.513
				c-0.048-0.18-0.115-0.38-0.137-0.576c-0.03-0.198-0.072-0.4-0.092-0.611c-0.024-0.217-0.055-0.402-0.07-0.651
				c0.008-0.23,0.016-0.461,0.024-0.686c0.027-0.225,0.092-0.443,0.135-0.651c0.056-0.207,0.15-0.396,0.222-0.578
				c0.081-0.177,0.189-0.33,0.276-0.474c0.193-0.279,0.392-0.479,0.539-0.606C38.489,13.117,38.583,13.064,38.583,13.064"/>
			<path clip-path="url(#SVGID_2_)" fill="#C1697C" d="M40.356,32.762c-0.288,2.693-1.817,4.911-4.365,4.911
				c-2.549,0-4.56-2.943-4.56-5.656c0-2.712,2.02-4.408,4.569-4.408S40.647,30.034,40.356,32.762"/>
			<path clip-path="url(#SVGID_2_)" fill="#FFE1B7" d="M32.298,20.47c0,0-0.704,1.365-0.132,1.586s1.451,0.344,1.451,0.344
				s0.576,1.021,1.83,1.021c1.255,0,2.122-1.408,2.122-1.408c0.965,0.822,1.421-0.557,1.377,0.282
				c-0.043,0.855-0.351-1.824-0.351-1.824s1.012,0.576,1.276,1.476c0.266,0.898,0.221,2.217-0.926,1.647
				c-1.145-0.568-1.039-0.633-2.236,0.5c-1.197,1.134-2.51,0.191-2.782-0.144c-0.271-0.334-0.704-1.011-1.805-0.439
				c-1.101,0.572-1.683-1.254-1.111-2.05C31.584,20.66,32.298,20.47,32.298,20.47"/>
			<path clip-path="url(#SVGID_2_)" fill="#B5CBE9" d="M31.376,31.822c0,0,1.072-2.197,1.921-2.656
				c0.849-0.459,1.098-0.715,1.322-0.563c0.223,0.154,0.271,0.461,1.038,0.41c0.768-0.051,0.812-0.072,1.08-0.547
				c0.269-0.474,0.941,0.028,0.941,0.028l2.5,2.358c0,0-0.894-2.605-1.878-3.372c-0.982-0.765-1.133-1.174-2.286-0.51
				c-1.153,0.663-0.891-0.846-1.912-0.336C30.999,28.186,31.376,31.822,31.376,31.822"/>
			<path clip-path="url(#SVGID_2_)" fill="#8F4A5A" d="M32.894,31.84c0,0-1.194,3.329,2.055,3.38c3.25,0.049,4.842-0.354,4.245-2.27
				c-0.34-1.095-1.818-2.81-3.322-2.927C34.743,29.937,33.605,31.191,32.894,31.84"/>
			<path clip-path="url(#SVGID_2_)" fill="#B58FAC" d="M32.856,36.417c0,0-0.152-1.399,0.244-1.852
				c0.395-0.453,1.837-0.813,2.723-0.293c1.18-0.607,2.536-0.201,3.006,0.117c0.469,0.32,0.366,1.74,0.366,1.74
				s-0.444,2.232-2.934,2.232S32.856,36.417,32.856,36.417"/>
			<path clip-path="url(#SVGID_2_)" fill="#765674" d="M38.596,34.098c-0.029-0.012-0.06-0.025-0.09-0.039
				c0.071,0.33,0.035,0.67,0.035,0.67s-0.49,1.58-3.243,1.58c-1.751,0-2.795-0.557-3.324-0.962c0.009,0.111,0.021,0.185,0.021,0.185
				s1.011,1.374,3.762,1.374c2.752,0,3.243-1.578,3.243-1.578S39.115,34.324,38.596,34.098"/>
			<path clip-path="url(#SVGID_2_)" fill="#FEDAB9" d="M33.565,40.96c0,0,0.178,0.014,0.49,0.039c0.312,0.03,0.759,0.048,1.29,0.075
				c0.533,0.027,1.154,0.022,1.811-0.012c0.328-0.014,0.666-0.051,1.004-0.102c0.338-0.046,0.672-0.127,0.993-0.234
				c0.152-0.051,0.321-0.128,0.449-0.185c0.152-0.09,0.305-0.182,0.456-0.271c0.318-0.17,0.557-0.383,0.821-0.57
				c0.258-0.192,0.49-0.418,0.723-0.609c0.225-0.206,0.423-0.413,0.615-0.597c0.36-0.39,0.67-0.709,0.87-0.951
				c0.203-0.238,0.318-0.377,0.318-0.377s-0.081,0.16-0.242,0.431c-0.17,0.266-0.408,0.648-0.746,1.074
				c-0.175,0.204-0.358,0.435-0.57,0.666c-0.222,0.219-0.432,0.471-0.705,0.69c-0.271,0.211-0.542,0.475-0.848,0.639
				c-0.15,0.092-0.3,0.184-0.453,0.279c-0.193,0.096-0.351,0.166-0.534,0.232c-0.36,0.114-0.725,0.195-1.083,0.238
				c-0.36,0.051-0.714,0.063-1.056,0.066c-0.682,0.004-1.311-0.072-1.846-0.143C34.251,41.182,33.565,40.96,33.565,40.96"/>
			<path clip-path="url(#SVGID_2_)" fill="#FEDBB8" d="M32.344,34.957c0,0,0.837,3.386,3.946,3.282
				c3.528-0.119,3.186-3.663,3.186-3.663s-1.723,1.919-3.305,1.919C34.593,36.495,32.344,34.957,32.344,34.957"/>
			<path clip-path="url(#SVGID_2_)" fill="#6D3500" d="M30.071,7.205c0,0-2.648,1.898-3.951,2.133
				c-1.304,0.238-3.873,0.949-4.229,0.949s-2.331,0.711,0.277,0.711c2.607,0,6.678-0.949,7.508-1.265
				c0.829-0.316,0.907-2.016,0.907-2.016l-0.355,0.159l0.159-0.909L30.071,7.205z"/>
			<path clip-path="url(#SVGID_2_)" fill="#FED5B2" d="M10.804,16.917c0,0,1.462-0.06,1.462-0.889c0-0.828-1.699-3.042-0.73-3.16
				s2.273,2.885,2.785,3.457c0.515,0.573,0.672,0.217,0.672,0.217v-0.868c0,0,1.501,6.519,4.86,12.09
				c3.358,5.571,8.416,12.762,13.317,14.778c4.899,2.015,14.163-4.119,14.163-4.119s-2.543,2.112-3.459,2.73
				c-0.918,0.619-4.95,4.363-10.31,2.379c-3.646-1.352-4.496-2.414-4.496-2.414s-8.667-4.554-11.344-12.61
				c-1.453-4.369-1.581-5.213-1.581-5.213s-2.688-2.785-3.432-3.675C11.97,18.733,10.804,16.917,10.804,16.917"/>
		</g>
		<g>
			<defs>
				<path id="SVGID_3_" d="M10.92,10.762c-0.041,0.039-0.078,0.078-0.115,0.117v8.823h3.889v-8.94H10.92z"/>
			</defs>
			<clipPath id="SVGID_4_">
				<use xlink:href="#SVGID_3_"  overflow="visible"/>
			</clipPath>
			<path clip-path="url(#SVGID_4_)" fill="#DB986C" d="M13.571,16.067c0,0,0.592-2.173-0.356-3.438
				c-0.948-1.264-1.818-3.042-2.292-0.79c-0.474,2.253,0.592,4.347,0.87,5.098c0.276,0.75,2.015,2.568,2.37,2.647
				c0.355,0.078,0.988,0.513,0-0.988C13.177,17.094,13.571,16.067,13.571,16.067"/>
		</g>
		<g>
			<defs>
				<path id="SVGID_5_" d="M5.166,24.76c0,10.992,8.91,19.904,19.902,19.904S44.97,35.752,44.97,24.76S36.06,4.856,25.068,4.856
					S5.166,13.768,5.166,24.76"/>
			</defs>
			<clipPath id="SVGID_6_">
				<use xlink:href="#SVGID_5_"  overflow="visible"/>
			</clipPath>
			<path clip-path="url(#SVGID_6_)" fill="#B5CBE9" d="M31.376,31.569c0,0-0.671,6.743,5.092,6.743c5.764,0,3.888-7.392,3.888-7.392
				s-0.413-0.942-0.447,0.24c-0.102,3.429-1.347,5.084-3.574,5.211C32.603,36.583,31.376,31.569,31.376,31.569"/>
			<path clip-path="url(#SVGID_6_)" fill="#DB986C" d="M36.495,38.119c-4.175,0-4.667-3.346-4.689-4.758
				c-0.03,1.188,0.219,5.023,4.689,5.023c3.342,0,3.88-2.356,3.826-4.089C40.311,35.995,39.671,38.119,36.495,38.119"/>
		</g>
		<path fill="#6D3500" d="M30.335,22.012c-0.218,0.57-0.249,1.236-0.165,1.851c0.207,1.503,1.547,0.277,2.209,0.042
			c0.587-0.207,0.701,0.447,1.566,0.649c0.068-0.624-0.522-1.441-1.527-1.33c-0.231,0.025-0.765,0.094-0.951,0.27
			c-0.661,0.629-0.505-0.6-0.844-0.742L30.335,22.012z"/>
		<path fill="#6D3500" d="M24.889,13.089c0.828-0.892,2.988,0.138,1.887,1.416c-0.89,1.031-2.824,0.476-2.183-1.12L24.889,13.089z"
			/>
		<path fill="#FFFFFF" d="M26.077,13.292c0.153-0.192,0.555,0.003,0.351,0.278c-0.165,0.222-0.525,0.129-0.406-0.213L26.077,13.292z
			"/>
		<path fill="#6D3500" d="M27.704,13.47c0,0,0.397,2.519-2.651,2.651c0,0,3.512,1.061,3.314-3.246L27.704,13.47z"/>
		<path fill="#DB986C" d="M21.295,13.121c0,0,4.887-2.037,6.843-0.814l0.326-0.489C28.464,11.818,25.042,10.025,21.295,13.121"/>
	</g>
	<g>
		<g>
			<g>
				<g>
					<g>
						<path fill="#FFFFFF" d="M25.041,5.281c10.872,0,19.685,8.813,19.685,19.685c0,10.872-8.813,19.685-19.685,19.685
							S5.355,35.838,5.355,24.966C5.355,14.094,14.168,5.281,25.041,5.281 M25.041,3.281c-11.957,0-21.685,9.728-21.685,21.685
							c0,11.957,9.728,21.685,21.685,21.685s21.685-9.728,21.685-21.685C46.726,13.009,36.998,3.281,25.041,3.281L25.041,3.281z"/>
					</g>
					<g>
						<path fill="#B7B0AD" d="M25,3.357c11.934,0,21.643,9.709,21.643,21.643c0,11.934-9.709,21.643-21.643,21.643
							C13.066,46.643,3.357,36.934,3.357,25C3.357,13.066,13.066,3.357,25,3.357 M25,1.357C11.942,1.357,1.357,11.943,1.357,25
							c0,13.058,10.585,23.643,23.643,23.643S48.643,38.057,48.643,25C48.643,11.943,38.057,1.357,25,1.357L25,1.357z"/>
					</g>
				</g>
			</g>
		</g>
	</g>
</g>
</svg>
