<?xml version="1.0" encoding="utf-8"?>
<!-- Generator: Adobe Illustrator 17.0.0, SVG Export Plug-In . SVG Version: 6.00 Build 0)  -->
<!DOCTYPE svg PUBLIC "-//W3C//DTD SVG 1.1//EN" "http://www.w3.org/Graphics/SVG/1.1/DTD/svg11.dtd">
<svg version="1.1" id="Layer_1" xmlns="http://www.w3.org/2000/svg" xmlns:xlink="http://www.w3.org/1999/xlink" x="0px" y="0px"
	 width="48px" height="48px" viewBox="-6.5 -6.5 48 48" enable-background="new -6.5 -6.5 48 48" xml:space="preserve">
<g>
	<g>
		<path fill="none" stroke="#000000" stroke-linecap="round" stroke-linejoin="round" stroke-miterlimit="10" d="M32.292,23.543
			c-0.393-7.891-6.617-14.307-14.781-14.307S2.731,15.642,2.731,23.543c0,0-0.006,2.489,0.445,3.068c0,0,6.127,0.712,11.281-7.061
			c0,0,2.046,2.454,0.849,5.486c0,0,4.788-2.652,4.444-9.167c0,0,2.886,9.382,12.183,10.802
			C31.932,26.674,32.359,24.894,32.292,23.543z"/>
		<path fill="none" stroke="#000000" stroke-miterlimit="10" d="M30.831,26.31c0,7.426-5.964,13.445-13.32,13.445
			s-13.32-6.02-13.32-13.445"/>
		<path fill="none" stroke="#000000" stroke-miterlimit="10" d="M17.511,32.269c1.866,0,3.455,1.149,4.05,2.756"/>
		<path fill="none" stroke="#000000" stroke-miterlimit="10" d="M17.513,32.254c-1.866,0-3.455,1.149-4.05,2.756"/>
		<path fill="none" stroke="#000000" stroke-miterlimit="10" d="M31.83,26.565c0,0,2.661,2.026,1.248,5.139
			c-1.413,3.113-4.369,2.644-4.369,2.644"/>
		<path fill="none" stroke="#000000" stroke-miterlimit="10" d="M3.17,26.551c0,0-2.661,2.026-1.248,5.139s4.369,2.644,4.369,2.644"
			/>
		<circle cx="11.941" cy="28.484" r="1.115"/>
		<circle cx="22.924" cy="28.484" r="1.115"/>
	</g>
	<path fill="none" stroke="#000000" stroke-miterlimit="10" d="M17.995-4.859c0,0-2.644,2.047-0.419,5.015
		c3.449,4.598-0.419,6.897-0.419,6.897"/>
	<path fill="none" stroke="#000000" stroke-miterlimit="10" d="M23.92-2.079c0,0-2.162,1.673-0.341,4.101
		c2.82,3.759-0.341,5.638-0.341,5.638"/>
	<path fill="none" stroke="#000000" stroke-miterlimit="10" d="M12.017-2.079c0,0-2.162,1.673-0.341,4.101
		c2.82,3.759-0.341,5.638-0.341,5.638"/>
</g>
</svg>
