<?xml version="1.0" encoding="utf-8"?>
<!-- Generator: Adobe Illustrator 17.0.0, SVG Export Plug-In . SVG Version: 6.00 Build 0)  -->
<!DOCTYPE svg PUBLIC "-//W3C//DTD SVG 1.1//EN" "http://www.w3.org/Graphics/SVG/1.1/DTD/svg11.dtd">
<svg version="1.1" id="Layer_1" xmlns="http://www.w3.org/2000/svg" xmlns:xlink="http://www.w3.org/1999/xlink" x="0px" y="0px"
	 width="50px" height="50px" viewBox="0 0 50 50" enable-background="new 0 0 50 50" xml:space="preserve">
<g>
	<g>
		<path fill="#00BCE7" d="M44.903,25c0,10.992-8.91,19.902-19.902,19.902c-10.993,0-19.903-8.91-19.903-19.902
			c0-10.992,8.91-19.902,19.903-19.902C35.993,5.098,44.903,14.008,44.903,25"/>
		<path fill="#EDCAAA" d="M11.449,26.61c-2.672-1.086-2.976,1.667-2.795,3.615c0.195,2.097,1.935,4.437,3.499,4.88
			c2.733,0.774,3.732-0.941,2.303-3.479c-0.568-1.01-2.067-4.919-3.24-5.131"/>
		<path fill="#CD8F65" d="M12.137,29.753c0,0,0.273,0.251,0.369,0.605c0.071,0.171,0.033,0.372-0.082,0.615
			c-0.134,0.248-0.047,0.489,0.138,0.682c0.228,0.174,0.306,0.383,0.45,0.529c0.112,0.168,0.183,0.321,0.232,0.486
			c0.034,0.174,0.093,0.309,0.117,0.437c0.025,0.127,0.037,0.219,0.037,0.219l-0.054,0.076c0,0-0.082,0.009-0.219-0.008
			c-0.123-0.031-0.35-0.055-0.521-0.193c-0.087-0.067-0.185-0.144-0.269-0.242c-0.096-0.088-0.138-0.214-0.186-0.34
			c-0.096-0.255-0.14-0.534-0.081-0.828c0.08-0.291,0.035-0.529-0.143-0.748c-0.072-0.111-0.175-0.219-0.201-0.332
			c-0.029-0.111-0.015-0.219-0.011-0.318c0.053-0.391,0.328-0.637,0.328-0.637L12.137,29.753z"/>
		<path fill="#EDCAAA" d="M37.689,19.797c0.663-0.703,3.124-1.468,4.011-0.811c0.641,0.474,0.952,2.281,1.072,3.042
			c0.268,1.705,0.282,4.672-0.863,6.126c-0.387,0.492-0.99,0.904-1.626,1.074c-1.467,0.391-1.449-0.428-1.794-1.672
			c-0.45-1.637-0.627-3.269-0.981-4.914c-0.162-0.758-0.596-1.775-0.319-2.465"/>
		<path fill="#CD8F65" d="M40.709,21.383c0,0,0.337,0.2,0.519,0.585c0.041,0.098,0.09,0.201,0.101,0.323
			c0.015,0.118-0.038,0.269-0.063,0.411c-0.09,0.297-0.009,0.563,0.191,0.812c0.199,0.254,0.262,0.541,0.348,0.805
			c0.035,0.135,0.07,0.264,0.049,0.395c-0.009,0.128-0.037,0.249-0.063,0.36c-0.127,0.449-0.358,0.714-0.358,0.714l-0.092-0.004
			c0,0-0.24-0.293-0.381-0.683c-0.114-0.391-0.189-0.9-0.003-1.489c0.076-0.294,0.03-0.573-0.177-0.788
			c-0.084-0.113-0.189-0.21-0.24-0.322c-0.053-0.109-0.062-0.225-0.076-0.33c-0.036-0.425,0.156-0.763,0.156-0.763L40.709,21.383z"
			/>
		<path fill="#F3DBC0" d="M38.037,16.401c-0.621-2.26-6.626-10.927-17.463-9.586C8.943,8.254,7.326,18.149,8.241,22.961
			c0.918,4.812,2.466,7.222,2.466,7.222S18.783,46.6,32.343,42.877C44.75,39.47,38.658,18.662,38.037,16.401"/>
		<path fill="#B23E2F" d="M28.882,33.609c-5.651,1.956-6.464,9.561,0.747,6c7.451-3.681,7.452-4.563,6.39-5.605
			c-1.063-1.041-2.782-1.287-6.579-0.618"/>
		<path fill="#E77744" d="M29.92,35.129c-3.288,0.906-4.089,4.143-4.089,4.143s1.203,0.241,4.2-1.554
			c2.997-1.797,5.659-2.331,5.659-2.331S33.208,34.223,29.92,35.129"/>
		<path fill="#80583C" d="M16.742,31.464c0,0,0.021-0.117,0.078-0.309c0.089-0.183,0.083-0.48,0.313-0.771
			c0.19-0.314,0.461-0.674,0.806-0.945c0.321-0.326,0.747-0.527,1.149-0.774c0.428-0.177,0.851-0.376,1.269-0.473
			c0.413-0.123,0.806-0.19,1.146-0.231c0.68-0.078,1.146-0.051,1.146-0.051s-0.395,0.253-0.991,0.562
			c-0.602,0.299-1.392,0.662-2.157,1.026c-0.363,0.204-0.757,0.374-1.071,0.597c-0.155,0.111-0.342,0.192-0.474,0.299
			c-0.127,0.108-0.261,0.205-0.389,0.299c-0.271,0.162-0.445,0.428-0.591,0.553C16.834,31.389,16.742,31.464,16.742,31.464"/>
		<path fill="#80583C" d="M29.039,25.674c0,0,0.046-0.117,0.145-0.304c0.12-0.174,0.339-0.449,0.647-0.671
			c0.622-0.454,1.587-0.79,2.556-0.933c0.974-0.133,1.954-0.094,2.676,0.045c0.726,0.141,1.175,0.37,1.175,0.37
			s-1.858,0.254-3.719,0.507c-0.906,0.126-1.796,0.284-2.443,0.483c-0.319,0.115-0.574,0.199-0.755,0.315
			C29.147,25.611,29.039,25.674,29.039,25.674"/>
		<path fill="#DB986C" d="M14.008,27.431c-0.581-1,0.442-2.553,1.03-3.147c1.173-1.188,3.043-1.703,4.548-2.117l0.147-0.04
			l0.093,0.34l-0.146,0.042c-1.541,0.423-3.285,0.903-4.391,2.023c-0.649,0.657-1.407,1.975-0.975,2.721L14.008,27.431z"/>
		<path fill="#DB986C" d="M35.36,18.768c-1.817-0.783-5.708-0.33-7.437,0.864l-0.201-0.291c1.842-1.27,5.84-1.734,7.779-0.898
			L35.36,18.768z"/>
		<path fill="#DB986C" d="M27.43,30.586c-0.027,0.008-0.056,0.015-0.084,0.023c-0.745,0.183-1.333,0.068-1.614-0.32l0.378-0.273
			c0.157,0.219,0.589,0.273,1.123,0.141c0.8-0.198,1.479-0.701,1.539-1.125l0.462,0.064C29.136,29.783,28.267,30.356,27.43,30.586"
			/>
		<path fill="#91684F" d="M10.294,12.234c-1.622,0.754-1.551,6.119-1.189,7.721c1.23-0.509,2.139-2.139,3.346-2.897
			c2.96-1.864,6.865-2.807,10.272-3.444c5.26-0.983,12.425-0.404,17.827,0.169c-0.428-0.046-0.874-3.11-3.057-4.475
			c-0.929-0.581-2.602-1.968-3.601-2.401c-3.136-1.359-4.84-1.948-8.467-1.809c-6.044,0.232-12.31,1.287-13.543,4.137
			c0.986-2.276-7.626,9.574-5.998,9.23c-0.126,1.982-1.079,3.371-1.588,5.292c0.333-0.204,0.172,0.929,0.505,0.723
			c0.079,1.294-0.303,1.221,0.218,2.292c0.414-0.523,2.262,2.254,2.512,1.57c0.188,0.047,0.926-0.769,1.155-0.698
			c2.463-2.137,0.613-7.541,3.347-9.858c3.641-3.088,8.317-3.249,12.954-3.404c4.658-0.158,9.365,0.205,14.009-0.033
			c0.381-2.785-3.252-5.341-4.924-6.367c-3.328-2.041-6.671-0.943-10.102-2.936c-1.843-1.073-1.978,0.016-2.54,0.515
			c1.567-1.392-7.083,0.742-6.026,2.137c-1.401,0.926-0.924,0.899-2.524,1.949c-1.155,0.758-1.328,0.635-2,1.823"/>
		<path fill="#91684F" d="M10.287,16.073c-0.447,3.328-0.272,7.505,0.066,10.062C10.401,12.638,22.7,19.503,29.08,12.456
			c-5.669,1.174-11.368,2.205-17.055,3.287"/>
	</g>
	<g>
		<g>
			<path fill="#FFFFFF" d="M25.041,5.281c10.872,0,19.685,8.813,19.685,19.685c0,10.872-8.813,19.685-19.685,19.685
				S5.355,35.838,5.355,24.966C5.355,14.094,14.168,5.281,25.041,5.281 M25.041,3.281c-11.957,0-21.685,9.728-21.685,21.685
				c0,11.957,9.728,21.685,21.685,21.685s21.685-9.728,21.685-21.685C46.726,13.009,36.998,3.281,25.041,3.281L25.041,3.281z"/>
		</g>
		<g>
			<path fill="#B7B0AD" d="M25,3.357c11.934,0,21.643,9.709,21.643,21.643c0,11.934-9.709,21.643-21.643,21.643
				C13.066,46.643,3.357,36.934,3.357,25C3.357,13.066,13.066,3.357,25,3.357 M25,1.357C11.942,1.357,1.357,11.943,1.357,25
				c0,13.058,10.585,23.643,23.643,23.643S48.643,38.057,48.643,25C48.643,11.943,38.057,1.357,25,1.357L25,1.357z"/>
		</g>
	</g>
</g>
</svg>
