<?xml version="1.0" encoding="utf-8"?>
<!-- Generator: Adobe Illustrator 17.0.0, SVG Export Plug-In . SVG Version: 6.00 Build 0)  -->
<!DOCTYPE svg PUBLIC "-//W3C//DTD SVG 1.1//EN" "http://www.w3.org/Graphics/SVG/1.1/DTD/svg11.dtd">
<svg version="1.1" id="Layer_1" xmlns="http://www.w3.org/2000/svg" xmlns:xlink="http://www.w3.org/1999/xlink" x="0px" y="0px"
	 width="50px" height="50px" viewBox="0 0 50 50" enable-background="new 0 0 50 50" xml:space="preserve">
<g>
	<g>
		<path fill="#63C6C1" d="M44.903,25c0,10.992-8.91,19.902-19.902,19.902c-10.993,0-19.903-8.91-19.903-19.902
			c0-10.992,8.91-19.902,19.903-19.902C35.993,5.098,44.903,14.008,44.903,25"/>
		<path fill="#80CECA" d="M24.927,23.51c-5.825,6.297-10.944,7.229-18.857,7.704c2.612,7.949,10.088,13.689,18.909,13.689
			c10.991,0,19.902-8.91,19.902-19.904c0-3.982-1.174-7.689-3.19-10.801C38.425,15.831,34.005,13.695,24.927,23.51"/>
		<g>
			<defs>
				<path id="SVGID_1_" d="M5.349,25c0,10.992,8.91,19.904,19.902,19.904S45.153,35.992,45.153,25c0-10.99-8.91-19.9-19.902-19.9
					S5.349,14.009,5.349,25"/>
			</defs>
			<clipPath id="SVGID_2_">
				<use xlink:href="#SVGID_1_"  overflow="visible"/>
			</clipPath>
			<path clip-path="url(#SVGID_2_)" fill="#00B8B0" d="M25.861,27.878L25.87,4.556h-0.645h0.645c0-1.71-1.392-3.102-3.102-3.102
				s-3.102,1.392-3.102,3.102v23.328c-1.567,1.036-2.527,2.803-2.527,4.698c0,3.104,2.526,5.629,5.629,5.629s5.63-2.526,5.63-5.629
				C28.397,30.685,27.434,28.915,25.861,27.878"/>
			<path clip-path="url(#SVGID_2_)" fill="#006664" d="M28.277,28.47l0.009-23.491h-0.632h0.632c0-1.674-1.362-3.035-3.035-3.035
				c-1.674,0-3.034,1.361-3.034,3.035v23.498c-1.534,1.014-2.474,2.742-2.474,4.596c0,3.036,2.471,5.506,5.508,5.506
				c3.036,0,5.507-2.471,5.507-5.506C30.758,31.215,29.816,29.484,28.277,28.47"/>
			<path clip-path="url(#SVGID_2_)" fill="#FFFFFF" d="M25.251,37.316c-2.34,0-4.245-1.905-4.245-4.245
				c0-1.525,0.823-2.941,2.152-3.695l0.319-0.207V16.306c0.205,0.048,0.438,0.078,0.717,0.078c0.131,0,0.258-0.006,0.38-0.018
				c0.231-0.025,0.399-0.231,0.375-0.462c-0.025-0.231-0.231-0.397-0.464-0.375c-0.093,0.011-0.19,0.015-0.292,0.015
				c-0.306,0-0.552-0.048-0.716-0.114v-2.045c0.205,0.047,0.439,0.078,0.717,0.078c0.132,0,0.258-0.006,0.38-0.02
				c0.231-0.024,0.399-0.231,0.375-0.461c-0.024-0.231-0.227-0.405-0.462-0.375c-0.095,0.009-0.193,0.014-0.294,0.015
				c-0.306,0-0.552-0.048-0.716-0.114v-2.046c0.205,0.047,0.438,0.079,0.717,0.079c0.131,0,0.258-0.007,0.38-0.02
				c0.231-0.025,0.399-0.232,0.375-0.462c-0.025-0.231-0.231-0.399-0.464-0.375c-0.093,0.009-0.19,0.015-0.292,0.015
				c-0.306,0-0.552-0.048-0.716-0.114V7.541c0.205,0.048,0.438,0.079,0.717,0.079c0.131,0,0.258-0.006,0.38-0.02
				c0.231-0.024,0.399-0.231,0.375-0.462c-0.025-0.231-0.231-0.396-0.464-0.375c-0.093,0.01-0.19,0.015-0.292,0.016
				c-0.306,0-0.552-0.048-0.716-0.114V4.979c0-0.977,0.795-1.773,1.773-1.773c0.978,0,1.773,0.797,1.773,1.773l-0.009,24.213
				l0.321,0.182c1.333,0.753,2.16,2.17,2.16,3.699C29.496,35.411,27.591,37.316,25.251,37.316"/>
			<path clip-path="url(#SVGID_2_)" fill="#DA1A32" d="M26.388,29.681V18.545c-0.27,0.159-0.657,0.248-1.137,0.248
				c-0.115,0-0.21-0.094-0.21-0.21c0-0.116,0.095-0.21,0.21-0.21c0.477,0,0.953-0.114,1.092-0.358
				c-0.132-0.399-0.568-0.507-1.092-0.507c-0.628,0-1.137,0.148-1.137,0.777v11.397c-1.417,0.475-2.44,1.812-2.44,3.39
				c0,1.975,1.602,3.577,3.577,3.577c1.976,0,3.578-1.602,3.578-3.577C28.828,31.494,27.805,30.156,26.388,29.681 M27.378,33.596
				c-0.233,0-0.422-0.188-0.422-0.421c0-0.629-0.341-1.212-0.888-1.521c-0.203-0.114-0.275-0.372-0.161-0.573
				c0.114-0.203,0.372-0.275,0.573-0.161c0.813,0.459,1.318,1.323,1.318,2.255C27.799,33.408,27.61,33.596,27.378,33.596"/>
		</g>
		<path fill="#E26055" d="M26.383,17.97c0,0.281-0.5,0.509-1.115,0.509c-0.616,0-1.116-0.228-1.116-0.509
			c0-0.28,0.5-0.508,1.116-0.508C25.883,17.461,26.383,17.689,26.383,17.97"/>
		<rect x="24.934" y="19.133" fill="#E26055" width="0.541" height="10.485"/>
	</g>
	<g>
		<g>
			<path fill="#FFFFFF" d="M25.041,5.281c10.872,0,19.685,8.813,19.685,19.685c0,10.872-8.813,19.685-19.685,19.685
				S5.355,35.838,5.355,24.966C5.355,14.094,14.168,5.281,25.041,5.281 M25.041,3.281c-11.957,0-21.685,9.728-21.685,21.685
				c0,11.957,9.728,21.685,21.685,21.685s21.685-9.728,21.685-21.685C46.726,13.009,36.998,3.281,25.041,3.281L25.041,3.281z"/>
		</g>
		<g>
			<path fill="#B7B0AD" d="M25,3.357c11.934,0,21.643,9.709,21.643,21.643c0,11.934-9.709,21.643-21.643,21.643
				C13.066,46.643,3.357,36.934,3.357,25C3.357,13.066,13.066,3.357,25,3.357 M25,1.357C11.942,1.357,1.357,11.943,1.357,25
				c0,13.058,10.585,23.643,23.643,23.643S48.643,38.057,48.643,25C48.643,11.943,38.057,1.357,25,1.357L25,1.357z"/>
		</g>
	</g>
</g>
</svg>
