<?xml version="1.0" encoding="utf-8"?>
<!-- Generator: Adobe Illustrator 17.0.0, SVG Export Plug-In . SVG Version: 6.00 Build 0)  -->
<!DOCTYPE svg PUBLIC "-//W3C//DTD SVG 1.1//EN" "http://www.w3.org/Graphics/SVG/1.1/DTD/svg11.dtd">
<svg version="1.1" id="Layer_1" xmlns="http://www.w3.org/2000/svg" xmlns:xlink="http://www.w3.org/1999/xlink" x="0px" y="0px"
	 width="50px" height="50px" viewBox="0 0 50 50" enable-background="new 0 0 50 50" xml:space="preserve">
<g>
	<g>
		<path fill="#AF7AB5" d="M45.021,25.082c0,10.992-8.91,19.902-19.902,19.902c-10.993,0-19.903-8.91-19.903-19.902
			c0-10.992,8.91-19.902,19.903-19.902C36.111,5.18,45.021,14.09,45.021,25.082"/>
		<path fill="#9B51A0" d="M45.021,24.887L7.624,34.581c0,0,2.721,5.919,10.237,8.928C26.799,47.087,43.755,44.577,45.021,24.887"/>
		<g>
			<g>
				<defs>
					<rect id="SVGID_1_" x="10.223" y="10.82" width="27.504" height="26.035"/>
				</defs>
				<clipPath id="SVGID_2_">
					<use xlink:href="#SVGID_1_"  overflow="visible"/>
				</clipPath>
				
					<path clip-path="url(#SVGID_2_)" fill="none" stroke="#9C55A1" stroke-width="2.179" stroke-linecap="round" stroke-linejoin="round" stroke-miterlimit="10" d="
					M17.947,32.812c0,0,1.386,2.408,8.932,2.408c7.547,0,8.892-2.687,8.892-2.687l0.321-17.223c0,0-0.687-2.856-9.074-2.856
					c-8.385,0-9.072,2.856-9.072,2.856V32.812z"/>
				
					<path clip-path="url(#SVGID_2_)" fill="none" stroke="#9C55A1" stroke-width="2.179" stroke-linecap="round" stroke-linejoin="round" stroke-miterlimit="10" d="
					M18.235,14.594h-1.506c0,0,0.113,1.977-2.071,4.05c-2.184,2.071-2.801,3.694-2.801,3.694v11.202c0,0,2.688-0.393,4.088-0.336
					c1.401,0.055,2.291,0.336,2.291,0.336l-0.288-0.729v-17.5L18.235,14.594z"/>
			</g>
		</g>
		<g>
			<path fill="#EBE8E7" d="M17.901,32.812c0,0,1.386,2.408,8.932,2.408c7.547,0,8.892-2.687,8.892-2.687l0.321-17.223
				c0,0-0.687-2.856-9.074-2.856c-8.385,0-9.072,2.856-9.072,2.856V32.812z"/>
			<path fill="#F0EDEC" d="M36.046,15.311c0,1.578-4.062,2.856-9.072,2.856c-5.012,0-9.073-1.278-9.073-2.856
				c0-1.578,4.062-2.856,9.073-2.856C31.984,12.455,36.046,13.733,36.046,15.311"/>
			<path fill="#CD8F65" d="M29.557,15.115c0,0.51-1.22,0.923-2.724,0.923c-1.504,0-2.724-0.412-2.724-0.923
				c0-0.508,1.22-0.922,2.724-0.922C28.338,14.193,29.557,14.607,29.557,15.115"/>
			<path fill="#DB986C" d="M26.833,16.488c-1.581,0-3.174-0.425-3.174-1.373c0-0.948,1.593-1.372,3.174-1.372
				c1.58,0,3.174,0.425,3.174,1.372C30.007,16.064,28.413,16.488,26.833,16.488 M24.592,15.116c0.195,0.17,0.958,0.471,2.241,0.471
				c1.283,0,2.045-0.302,2.241-0.471c-0.196-0.169-0.958-0.471-2.241-0.471C25.551,14.645,24.787,14.946,24.592,15.116"/>
			<path fill="#ECEAE9" d="M18.189,14.594h-1.506c0,0,0.113,1.977-2.071,4.05c-2.184,2.071-2.801,3.694-2.801,3.694v11.202
				c0,0,2.688-0.393,4.088-0.336c1.401,0.055,2.291,0.336,2.291,0.336l-0.288-0.729v-17.5L18.189,14.594z"/>
			<path fill="#DFDCDA" d="M12.105,23.896c0,0,2.85,2.579,3.189,3.587s1.097-4.524,1.769-5.588c0.671-1.065,0.839-6.921,0.839-6.921
				l-1.218,1.766c0,0-3.124,2.084-4.647,5.148C11.811,22.339,12.105,23.896,12.105,23.896"/>
			<path fill="#F0EDEC" d="M11.811,22.339c0,0,2.85,0.225,3.189,1.233s0.507-3.641,1.179-4.705c0.672-1.063,1.722-4.272,1.722-4.272
				h-1.218c0,0,0.201,2.046-2.587,4.56C11.307,21.667,11.811,22.339,11.811,22.339"/>
			<rect x="31.514" y="17.754" fill="#ACA4A0" width="0.318" height="0.294"/>
			<path fill="#ACA4A0" d="M31.832,33.711h-0.318v-0.603h0.318V33.711z M31.832,32.507h-0.318v-0.603h0.318V32.507z M31.832,31.302
				h-0.318v-0.602h0.318V31.302z M31.832,30.096h-0.318v-0.603h0.318V30.096z M31.832,28.892h-0.318v-0.603h0.318V28.892z
				 M31.832,27.687h-0.318v-0.602h0.318V27.687z M31.832,26.483h-0.318V25.88h0.318V26.483z M31.832,25.277h-0.318v-0.603h0.318
				V25.277z M31.832,24.072h-0.318v-0.602h0.318V24.072z M31.832,22.868h-0.318v-0.603h0.318V22.868z M31.832,21.663h-0.318v-0.603
				h0.318V21.663z M31.832,20.457h-0.318v-0.602h0.318V20.457z M31.832,19.253h-0.318V18.65h0.318V19.253z"/>
			<rect x="31.514" y="34.314" fill="#ACA4A0" width="0.318" height="0.294"/>
		</g>
	</g>
	<g>
		<g>
			<g>
				<g>
					<path fill="#FFFFFF" d="M24.962,5.281c10.872,0,19.685,8.813,19.685,19.685c0,10.872-8.813,19.685-19.685,19.685
						S5.277,35.838,5.277,24.966C5.277,14.094,14.09,5.281,24.962,5.281 M24.962,3.281c-11.957,0-21.685,9.728-21.685,21.685
						c0,11.957,9.728,21.685,21.685,21.685s21.685-9.728,21.685-21.685C46.648,13.009,36.92,3.281,24.962,3.281L24.962,3.281z"/>
				</g>
				<g>
					<path fill="#B7B0AD" d="M24.922,3.357c11.934,0,21.643,9.709,21.643,21.643c0,11.934-9.709,21.643-21.643,21.643
						C12.988,46.643,3.279,36.934,3.279,25C3.279,13.066,12.988,3.357,24.922,3.357 M24.922,1.357
						C11.864,1.357,1.279,11.943,1.279,25c0,13.058,10.585,23.643,23.643,23.643S48.565,38.057,48.565,25
						C48.565,11.943,37.979,1.357,24.922,1.357L24.922,1.357z"/>
				</g>
			</g>
		</g>
	</g>
</g>
</svg>
