<?xml version="1.0" encoding="utf-8"?>
<!-- Generator: Adobe Illustrator 17.0.0, SVG Export Plug-In . SVG Version: 6.00 Build 0)  -->
<!DOCTYPE svg PUBLIC "-//W3C//DTD SVG 1.1//EN" "http://www.w3.org/Graphics/SVG/1.1/DTD/svg11.dtd">
<svg version="1.1" id="Layer_1" xmlns="http://www.w3.org/2000/svg" xmlns:xlink="http://www.w3.org/1999/xlink" x="0px" y="0px"
	 width="42px" height="42px" viewBox="0 0 42 42" enable-background="new 0 0 42 42" xml:space="preserve">
<g>
	<circle fill="#810380" cx="12.323" cy="25.263" r="1.652"/>
	<circle fill="#810380" cx="29.677" cy="25.263" r="1.652"/>
	<path fill="#333333" d="M41.806,24.562c0-2.393-1.735-4.388-4.013-4.795v-0.722c0-9.26-7.533-16.793-16.793-16.793
		c-9.26,0-16.793,7.533-16.793,16.793v0.722c-2.278,0.408-4.013,2.402-4.013,4.795c0,2.414,1.765,4.422,4.072,4.806
		c0.325,3.7,2.017,6.433,5.047,8.134c2.694,1.512,6.517,2.248,11.687,2.248c5.17,0,8.993-0.735,11.687-2.248
		c3.029-1.701,4.722-4.434,5.047-8.134C40.041,28.984,41.806,26.976,41.806,24.562z M1.915,24.562c0-1.44,0.971-2.657,2.292-3.032
		v6.065C2.886,27.219,1.915,26.002,1.915,24.562z M36.073,28.014c0,3.777-1.383,6.39-4.227,7.987
		c-2.43,1.364-5.978,2.027-10.845,2.027s-8.415-0.663-10.845-2.027c-2.845-1.597-4.228-4.21-4.228-7.987v-8.97
		c0-6.806,4.535-12.573,10.742-14.438c4.729,0.06,7.247,3.473,7.247,5.945c0,1.893-1.54,3.433-3.433,3.433
		c-1.42,0-2.575-1.155-2.575-2.575c0-1.041,0.847-1.888,1.888-1.888c0.475,0,0.86-0.385,0.86-0.86c0-0.475-0.385-0.86-0.86-0.86
		c-1.989,0-3.608,1.618-3.608,3.608c0,2.368,1.927,4.295,4.295,4.295c2.842,0,5.153-2.312,5.153-5.153
		c0-1.785-0.897-3.706-2.399-5.138c-0.601-0.573-1.285-1.054-2.031-1.439c8.216,0.111,14.866,6.828,14.866,15.07V28.014
		L36.073,28.014z M37.793,27.594v-6.065c1.322,0.375,2.293,1.592,2.293,3.032C40.085,26.002,39.114,27.219,37.793,27.594z"/>
	<path fill="#810380" d="M24.326,27.632c-1.834,1.834-4.819,1.834-6.653,0c-0.336-0.336-0.88-0.336-1.216,0
		c-0.336,0.336-0.336,0.881,0,1.216c1.252,1.252,2.898,1.879,4.543,1.879c1.645,0,3.29-0.626,4.543-1.879
		c0.336-0.336,0.336-0.881,0-1.216C25.207,27.296,24.662,27.296,24.326,27.632z"/>
</g>
</svg>
