<?xml version="1.0" encoding="utf-8"?>
<!-- Generator: Adobe Illustrator 17.0.0, SVG Export Plug-In . SVG Version: 6.00 Build 0)  -->
<!DOCTYPE svg PUBLIC "-//W3C//DTD SVG 1.1//EN" "http://www.w3.org/Graphics/SVG/1.1/DTD/svg11.dtd">
<svg version="1.1" id="Layer_1" xmlns="http://www.w3.org/2000/svg" xmlns:xlink="http://www.w3.org/1999/xlink" x="0px" y="0px"
	 width="42px" height="42px" viewBox="0 0 42 42" enable-background="new 0 0 42 42" xml:space="preserve">
<g>
	<path id="XMLID_173_" fill="#333333" d="M39.155,8.645c-0.26-1.428-0.913-2.757-1.887-3.842c-0.002-0.002-0.004-0.004-0.006-0.006
		c-0.499-0.564-1.326-1.338-2.432-1.829l-0.025-0.011c-1.067-0.512-2.212-0.771-3.403-0.771c-1.761,0-3.427,0.569-4.818,1.644
		c-0.001,0.001-0.008,0.006-0.009,0.007c-1.196,0.934-1.984,2.268-2.082,2.437l0,0c-0.004,0.007-0.009,0.015-0.013,0.023
		c-0.627,1.15-0.959,2.453-0.959,3.77c0,0.273,0.014,0.55,0.043,0.822c0.026,0.254,0.179,0.478,0.405,0.597
		c0.143,0.075,0.293,0.138,0.447,0.187c0.614,1.879,1.955,3.382,3.66,4.228c-0.731,0.373-1.387,0.867-1.955,1.47
		c-0.289,0.307-0.274,0.79,0.033,1.078c0.307,0.289,0.79,0.274,1.078-0.033c0.273-0.29,0.571-0.548,0.893-0.771
		c0.462,1.309,1.652,2.267,3.006,2.267h0.114c1.356,0,2.545-1.027,2.98-2.418c1.611,1.01,2.642,2.809,2.642,4.734v7.925
		l-6.939,4.503c-0.354,0.229-0.454,0.702-0.225,1.055c0.146,0.225,0.391,0.348,0.641,0.348c0.142,0,0.286-0.04,0.415-0.123
		l7.287-4.728c0.217-0.141,0.348-0.382,0.348-0.64v-8.339c0-2.702-1.508-5.124-3.892-6.332c2.257-1.127,3.854-3.401,4.01-6.049
		c0.215-0.195,0.403-0.425,0.552-0.683C39.156,9.008,39.188,8.823,39.155,8.645z M31.247,18.386h-0.114
		c-0.913,0-1.684-0.885-1.684-1.933c0-0.013,0-0.026-0.001-0.039c0.592,0.156,1.21,0.238,1.845,0.238c0.542,0,1.071-0.06,1.58-0.175
		C32.813,17.508,32.079,18.386,31.247,18.386z M31.292,15.126c-2.301,0-4.34-1.37-5.234-3.425c1.059-0.3,1.87-1.198,2.041-2.305
		c0.455,0.058,0.916,0.088,1.379,0.088c1.552,0,3.047-0.325,4.386-0.948c0.345,1.185,1.441,2.053,2.736,2.053
		c0.094,0,0.188-0.005,0.281-0.014C36.343,13.167,34.034,15.126,31.292,15.126z M36.599,9.063c-0.729,0-1.323-0.593-1.323-1.323
		V7.316c0-0.278-0.151-0.533-0.394-0.668c-0.243-0.134-0.54-0.126-0.775,0.022c-1.342,0.843-2.944,1.288-4.63,1.288
		c-0.66,0-1.315-0.07-1.947-0.207c-0.225-0.049-0.461,0.007-0.641,0.152c-0.18,0.145-0.284,0.363-0.284,0.594V8.96
		c0,0.729-0.593,1.323-1.323,1.323c-0.05,0-0.099-0.003-0.148-0.008c-0.011-0.002-0.023-0.003-0.034-0.004
		c-0.017-0.002-0.034-0.005-0.051-0.008c-0.002-0.065-0.003-0.131-0.003-0.196c0-1.059,0.266-2.106,0.768-3.031
		c0.002-0.004,0.004-0.007,0.006-0.01c0.006-0.012,0.696-1.206,1.692-1.985c0.002-0.002,0.005-0.004,0.005-0.004
		c1.121-0.867,2.464-1.326,3.885-1.326c0.961,0,1.884,0.209,2.743,0.621c0.015,0.007,0.037,0.017,0.066,0.03
		c0.848,0.377,1.5,0.987,1.9,1.436c0.004,0.005,0.009,0.01,0.013,0.015c0.72,0.799,1.223,1.761,1.466,2.799
		C37.341,8.895,36.98,9.063,36.599,9.063z M16.359,19.336c0.222-0.358,0.113-0.828-0.245-1.051c-0.232-0.144-0.473-0.275-0.72-0.392
		c0.943-0.482,1.777-1.172,2.439-2.036c0.273,0.095,0.565,0.146,0.87,0.146c1.466,0,2.659-1.193,2.659-2.659v-1.896
		c0-2.41-0.921-4.693-2.592-6.427c-1.667-1.729-3.905-2.734-6.301-2.829c0,0,0,0-0.001,0c-0.208-0.008-0.402-0.01-0.593-0.005
		C9.487,2.245,7.237,3.211,5.536,4.907c-1.744,1.739-2.704,4.062-2.704,6.542v1.896c0,1.466,1.193,2.659,2.659,2.659
		c0.304,0,0.597-0.051,0.87-0.146c0.729,0.951,1.667,1.692,2.73,2.176c-2.354,1.238-3.81,3.635-3.81,6.289v6.245
		c0,0.258,0.131,0.499,0.348,0.64l6.921,4.491c0.128,0.083,0.272,0.123,0.415,0.123c0.25,0,0.495-0.123,0.641-0.348
		c0.229-0.354,0.129-0.826-0.225-1.055l-6.574-4.265v-5.831c0-1.765,0.822-3.386,2.199-4.432c0.472,1.37,1.685,2.4,3.026,2.4h0.114
		c1.456,0,2.619-1.318,3.028-2.791c0.045,0.027,0.091,0.054,0.135,0.081C15.666,19.804,16.136,19.694,16.359,19.336z M7.378,8.676
		c-0.493,0.838-0.754,1.797-0.754,2.773v1.896c0,0.361-0.17,0.684-0.435,0.891c-0.023,0.015-0.044,0.031-0.065,0.047
		c-0.181,0.123-0.399,0.194-0.634,0.194c-0.625,0-1.133-0.508-1.133-1.133v-1.896c0-4.236,3.317-7.633,7.552-7.736
		c0.158-0.004,0.321-0.002,0.497,0.005c4.165,0.165,7.428,3.561,7.428,7.731v1.896c0,0.625-0.508,1.133-1.133,1.133
		c-0.235,0-0.453-0.072-0.634-0.194c-0.021-0.017-0.042-0.032-0.065-0.047c-0.264-0.208-0.435-0.53-0.435-0.892v-1.896
		c0-2.693-2.006-5.02-4.667-5.413c-0.209-0.031-0.422,0.026-0.587,0.158C12.15,6.326,12.046,6.52,12.03,6.731
		C11.988,7.264,11.891,7.79,11.742,8.3H8.036C7.765,8.3,7.515,8.443,7.378,8.676z M12.145,20.765h-0.114
		c-0.862,0-1.709-1.047-1.709-2.114c0-0.066-0.008-0.131-0.025-0.193c0.579,0.147,1.183,0.224,1.799,0.224
		c0.584,0,1.156-0.069,1.707-0.201C13.751,19.591,12.912,20.765,12.145,20.765z M12.096,17.157c-1.778,0-3.419-0.81-4.498-2.192
		c0.345-0.449,0.551-1.01,0.551-1.619v-1.896c0-0.562,0.12-1.116,0.348-1.623h3.794c0.319,0,0.605-0.199,0.716-0.498
		c0.191-0.516,0.335-1.048,0.43-1.59c1.527,0.556,2.604,2.035,2.604,3.711v1.896c0,0.609,0.206,1.17,0.551,1.619
		C15.516,16.347,13.875,17.157,12.096,17.157z"/>
	<path fill="#FEB600" d="M28.303,37.112L28.29,34.31c-0.012-2.435-1.365-4.623-3.496-5.727c1.729-1.017,2.892-2.898,2.892-5.045
		c0-0.966-0.236-1.878-0.652-2.682c-0.015-0.034-0.032-0.066-0.051-0.096c-0.991-1.827-2.925-3.07-5.145-3.07
		c-2.22,0-4.156,1.244-5.146,3.071c-0.019,0.03-0.035,0.061-0.05,0.094c-0.417,0.804-0.653,1.717-0.653,2.683
		c0,2.146,0.47,4.027,2.198,5.044C16.048,29.689,14,31.884,14,34.314v2.783c0,0.261,0.826,0.504,1.046,0.644l6.036,3.622
		c0.125,0.08,0.44,0.119,0.583,0.119c0.142,0,0.37-0.039,0.494-0.118l5.746-3.603C28.127,37.62,28.304,37.375,28.303,37.112z
		 M21.837,19.216c1.328,0,2.518,0.602,3.311,1.547c-1.028,0.295-2.155,0.448-3.311,0.448c-1.156,0-2.284-0.154-3.312-0.448
		C19.319,19.818,20.509,19.216,21.837,19.216z M17.515,23.539c0-0.496,0.084-0.972,0.238-1.416c1.259,0.403,2.656,0.614,4.085,0.614
		c1.428,0,2.825-0.211,4.084-0.614c0.154,0.444,0.238,0.92,0.238,1.416c0,2.383-1.939,4.323-4.323,4.323
		C19.454,27.862,17.515,25.922,17.515,23.539z M23.191,29.01C23.096,29.732,22.463,30,21.89,30h-0.093
		c-0.607,0-1.28-0.294-1.368-1.003c0.451,0.112,0.922,0.171,1.407,0.171C22.303,29.168,22.757,29.113,23.191,29.01z M21.501,39.815
		L16,36.678v-2.364c0-1.678,1.303-3.192,2.675-4.094C19.152,31.307,20.731,32,21.797,32h0.093c1.151,0,2.287-0.767,2.727-1.808
		C26.009,31.089,27,32.695,27,34.397v2.339L21.501,39.815z"/>
</g>
</svg>
