<?xml version="1.0" encoding="utf-8"?>
<!-- Generator: Adobe Illustrator 17.0.0, SVG Export Plug-In . SVG Version: 6.00 Build 0)  -->
<!DOCTYPE svg PUBLIC "-//W3C//DTD SVG 1.1//EN" "http://www.w3.org/Graphics/SVG/1.1/DTD/svg11.dtd">
<svg version="1.1" id="Layer_1" xmlns="http://www.w3.org/2000/svg" xmlns:xlink="http://www.w3.org/1999/xlink" x="0px" y="0px"
	 width="42px" height="42px" viewBox="0 0 42 42" enable-background="new 0 0 42 42" xml:space="preserve">
<path fill="#333333" d="M22.324,18.48"/>
<g>
	<g>
		<path fill="#333333" d="M15.08,23.709c-3.126,0-5.67-2.543-5.67-5.67s2.543-5.67,5.67-5.67s5.67,2.543,5.67,5.67
			S18.206,23.709,15.08,23.709z M15.08,14.386c-2.014,0-3.654,1.639-3.654,3.654s1.639,3.654,3.654,3.654s3.654-1.639,3.654-3.654
			S17.094,14.386,15.08,14.386z"/>
	</g>
	<g>
		<path fill="#333333" d="M26.002,37.064H5.146l-0.147-7.495l0.011-0.081c0.453-3.17,4.881-7.885,10.023-7.796
			c0.41-0.046,0.817-0.069,1.212-0.069c5.742,0,8.834,4.969,9.609,7.596l0.148,0.14V37.064z M7.123,34.664h16.479v-5.002
			c0-0.906-2.174-6.023-7.442-6.023c-0.339,0-0.648,0.021-1.003,0.063l-0.051,0.009l-0.231-0.005c-4.003,0-7.493,3.706-7.861,5.801
			L7.123,34.664z"/>
	</g>
	<path fill="#810380" d="M29.695,4.936c-4.029,0-7.307,3.278-7.307,7.307c0,1.152,0.275,2.298,0.795,3.318
		c0.02,0.424-0.469,1.979-1.071,3.399c-0.119,0.282-0.058,0.607,0.157,0.825c0.145,0.147,0.34,0.226,0.539,0.226
		c0.095,0,0.191-0.018,0.282-0.055c1.097-0.442,2.892-1.062,3.538-1.08c0.964,0.446,1.996,0.673,3.066,0.673
		c4.029,0,7.307-3.278,7.307-7.307S33.723,4.936,29.695,4.936z M29.695,18.04c-0.871,0-1.708-0.188-2.487-0.559
		c-0.162-0.078-0.352-0.115-0.579-0.115c-0.598,0-1.617,0.295-2.501,0.595c0.813-2.3,0.531-2.837,0.428-3.035
		c-0.435-0.833-0.656-1.734-0.656-2.681c0-3.196,2.6-5.795,5.795-5.795s5.795,2.6,5.795,5.795S32.891,18.04,29.695,18.04z"/>
	<text transform="matrix(1 0 0 1 27.502 15.3637)" fill="#810380" font-family="'Raleway-Bold'" font-size="9.6001">?</text>
</g>
</svg>
