<?xml version="1.0" encoding="utf-8"?>
<!-- Generator: Adobe Illustrator 17.0.0, SVG Export Plug-In . SVG Version: 6.00 Build 0)  -->
<!DOCTYPE svg PUBLIC "-//W3C//DTD SVG 1.1//EN" "http://www.w3.org/Graphics/SVG/1.1/DTD/svg11.dtd">
<svg version="1.1" id="Layer_1" xmlns="http://www.w3.org/2000/svg" xmlns:xlink="http://www.w3.org/1999/xlink" x="0px" y="0px"
	 width="20px" height="20px" viewBox="0 0 26 26" enable-background="new 0 0 26 26" xml:space="preserve">
<path fill="#FFFFFF" d="M22.5,11.941c-0.313,0-0.5,0.253-0.5,0.566V23h-4v-5.965c0-1.994-2.353-3.679-4.5-3.679S9,15.041,9,17.035
	V23H4V12.507c0-0.313-0.187-0.566-0.5-0.566S3,12.195,3,12.507V23.26C3,23.572,3.333,24,3.645,24h6.225
	C10.183,24,10,23.572,10,23.26v-6.225c0-1.381,1.966-2.547,3.5-2.547s3.5,1.166,3.5,2.547v6.225c0,0.313-0.651,0.74-0.338,0.74
	h5.659C22.634,24,23,23.572,23,23.26V12.507C23,12.195,22.813,11.941,22.5,11.941z M25.674,10.707L13.507,1.18
	c-0.309-0.242-0.744-0.24-1.052,0.004L0.476,10.711c-0.367,0.292-0.428,0.826-0.136,1.193c0.292,0.367,0.826,0.428,1.193,0.136
	l11.455-9.11l11.64,9.114c0.155,0.122,0.34,0.18,0.523,0.18c0.252,0,0.502-0.112,0.669-0.326
	C26.108,11.53,26.044,10.996,25.674,10.707z"/>
</svg>
