<?xml version="1.0" encoding="utf-8"?>
<!-- Generator: Adobe Illustrator 17.0.0, SVG Export Plug-In . SVG Version: 6.00 Build 0)  -->
<!DOCTYPE svg PUBLIC "-//W3C//DTD SVG 1.1//EN" "http://www.w3.org/Graphics/SVG/1.1/DTD/svg11.dtd">
<svg version="1.1" id="Layer_1" xmlns="http://www.w3.org/2000/svg" xmlns:xlink="http://www.w3.org/1999/xlink" x="0px" y="0px"
	 width="42px" height="42px" viewBox="0 0 42 42" enable-background="new 0 0 42 42" xml:space="preserve">
<g>
	<g>
		<g>
			
				<rect x="29.243" y="4.169" transform="matrix(0.7071 0.7071 -0.7071 0.7071 15.0297 -18.5105)" fill="#333333" width="1.232" height="9.436"/>
		</g>
		<g>
			<polygon fill="#333333" points="12.844,31.623 11.972,30.753 24.933,17.767 25.455,15.365 26.929,14.219 24.47,11.76 
				23.329,12.901 20.87,13.311 7.82,26.716 6.937,25.857 20.269,12.162 22.737,11.751 24.47,10.018 28.786,14.334 26.564,16.063 
				26.06,18.382 			"/>
		</g>
		<g>
			
				<rect x="1.472" y="29.353" transform="matrix(0.7071 0.7071 -0.7071 0.7071 23.6795 2.771)" fill="#333333" width="14.045" height="1.232"/>
		</g>
		<g>
			
				<rect x="0.917" y="33.369" transform="matrix(0.7071 0.7071 -0.7071 0.7071 25.3204 6.8417)" fill="#333333" width="6.968" height="1.232"/>
		</g>
		<g>
			
				<rect x="4.941" y="27.741" transform="matrix(0.7285 0.685 -0.685 0.7285 22.5398 4.5288)" fill="#333333" width="1.232" height="5.918"/>
		</g>
		<g>
			
				<rect x="7.096" y="29.897" transform="matrix(0.7285 0.685 -0.685 0.7285 24.6018 3.6373)" fill="#333333" width="1.232" height="5.918"/>
		</g>
		<g>
			<polygon fill="#333333" points="19.594,16.727 20.922,18.132 22.385,16.669 21.018,15.226 			"/>
			<polygon fill="#333333" points="17.13,19.191 18.458,20.596 19.921,19.133 18.555,17.69 			"/>
			<polygon fill="#333333" points="14.667,21.654 15.995,23.059 17.458,21.597 16.091,20.153 			"/>
			<polygon fill="#333333" points="12.203,24.118 13.531,25.523 14.994,24.06 13.627,22.617 			"/>
			<polygon fill="#333333" points="9.431,26.89 10.76,28.295 12.222,26.832 10.856,25.388 			"/>
		</g>
	</g>
	<g>
		<path fill="#FEB600" d="M35.662,16.711c-0.702,0-1.381-0.098-1.955-0.248l-0.063-0.02c-0.973-0.37-1.616-1.01-1.911-1.902
			C30.965,12.215,33,8.999,33.087,8.863l1.037,0.664c-0.504,0.79-1.707,3.161-1.221,4.629c0.172,0.52,0.548,0.888,1.148,1.124
			c1.359,0.346,3.168,0.301,4.175-0.581c0.664-0.581,0.924-1.492,0.774-2.709l-0.003-0.032c-0.178-2.5-3.331-4.15-3.363-4.167
			l0.564-1.095c0.155,0.08,3.788,1.985,4.027,5.158c0.247,2.04-0.508,3.177-1.187,3.771C38.125,16.425,36.861,16.711,35.662,16.711z
			"/>
	</g>
</g>
</svg>
