<?xml version="1.0" encoding="utf-8"?>
<!-- Generator: Adobe Illustrator 17.0.0, SVG Export Plug-In . SVG Version: 6.00 Build 0)  -->
<!DOCTYPE svg PUBLIC "-//W3C//DTD SVG 1.1//EN" "http://www.w3.org/Graphics/SVG/1.1/DTD/svg11.dtd">
<svg version="1.1" id="Layer_1" xmlns="http://www.w3.org/2000/svg" xmlns:xlink="http://www.w3.org/1999/xlink" x="0px" y="0px"
	 width="42px" height="42px" viewBox="0 0 42 42" enable-background="new 0 0 42 42" xml:space="preserve">
<g>
	<g>
		<g>
			<path fill="#333333" d="M38.768,20.403c-0.314,0-0.568,0.254-0.568,0.568v17.131c0,0.647-0.526,1.172-1.172,1.172H10.945
				c-0.314,0-0.568,0.254-0.568,0.568s0.254,0.568,0.568,0.568h26.082c1.273,0,2.309-1.036,2.309-2.309V20.972
				C39.336,20.658,39.082,20.403,38.768,20.403z"/>
		</g>
	</g>
	<g>
		<g>
			<path fill="#FEB600" d="M22.297,27.103c-0.213-0.532-0.522-0.999-0.918-1.387c-0.39-0.382-0.861-0.696-1.402-0.933
				c-0.229-0.1-0.47-0.187-0.722-0.26l2.173-2.292c0.106-0.107,0.215-0.231,0.324-0.369c0.177-0.224,0.27-0.485,0.27-0.757v-1.4
				c0-0.296-0.112-0.564-0.325-0.777c-0.212-0.212-0.481-0.324-0.776-0.324h-8.635c-0.296,0-0.565,0.112-0.777,0.324
				c-0.212,0.212-0.324,0.481-0.324,0.777v1.4c0,0.297,0.112,0.565,0.324,0.776c0.212,0.213,0.481,0.325,0.777,0.325h4.114
				l-1.84,1.932c-0.105,0.106-0.214,0.23-0.325,0.37c-0.176,0.224-0.27,0.485-0.27,0.756v1.4c0,0.297,0.112,0.565,0.324,0.776
				c0.212,0.212,0.481,0.325,0.777,0.325h1.636c0.706,0,1.271,0.108,1.679,0.32c0.303,0.158,0.433,0.387,0.433,0.767
				c0,0.401-0.149,0.676-0.482,0.894c-0.396,0.259-0.945,0.39-1.631,0.39c-0.435,0-0.802-0.029-1.091-0.088
				c-0.275-0.055-0.5-0.127-0.669-0.214c-0.159-0.082-0.284-0.169-0.371-0.261c-0.092-0.096-0.165-0.199-0.218-0.306l-0.018-0.033
				c-0.118-0.201-0.233-0.358-0.356-0.481c-0.193-0.192-0.444-0.294-0.727-0.294h-1.557c-0.283,0-0.546,0.1-0.76,0.29
				c-0.247,0.217-0.367,0.522-0.338,0.864c0.046,0.496,0.208,1.001,0.481,1.501c0.275,0.504,0.676,0.956,1.192,1.345
				c0.502,0.379,1.129,0.69,1.864,0.925c0.73,0.234,1.594,0.352,2.569,0.352c0.815,0,1.583-0.108,2.284-0.32
				c0.713-0.216,1.344-0.533,1.877-0.941c0.545-0.418,0.978-0.938,1.285-1.545c0.309-0.61,0.465-1.31,0.465-2.08
				C22.614,28.217,22.507,27.629,22.297,27.103z M21.133,30.419c-0.23,0.454-0.553,0.842-0.962,1.156
				c-0.423,0.325-0.933,0.578-1.514,0.755c-0.594,0.18-1.251,0.271-1.954,0.271c-0.857,0-1.604-0.1-2.222-0.298
				c-0.613-0.196-1.127-0.449-1.527-0.75c-0.386-0.291-0.681-0.621-0.878-0.981c-0.182-0.333-0.295-0.66-0.337-0.972h1.471
				c0.032,0.038,0.077,0.1,0.135,0.197c0.103,0.201,0.238,0.39,0.403,0.563c0.175,0.184,0.402,0.348,0.674,0.488
				c0.267,0.138,0.583,0.242,0.967,0.318c0.368,0.074,0.798,0.11,1.314,0.11c0.911,0,1.669-0.194,2.253-0.576
				c0.652-0.426,0.997-1.064,0.997-1.846c0-0.806-0.362-1.42-1.046-1.776c-0.573-0.298-1.314-0.448-2.204-0.448h-1.6v-1.363
				c0-0.006,0-0.019,0.025-0.051c0.085-0.107,0.166-0.2,0.242-0.276l3.684-3.869h-6.731v-1.327h8.562v1.363
				c0,0.006,0,0.019-0.026,0.052c-0.084,0.106-0.165,0.199-0.242,0.276l-3.654,3.854l1.103,0.147
				c0.535,0.071,1.024,0.203,1.453,0.391c0.414,0.182,0.772,0.418,1.062,0.703c0.283,0.278,0.505,0.614,0.659,0.998
				c0.156,0.391,0.235,0.837,0.235,1.327C21.476,29.442,21.361,29.969,21.133,30.419z"/>
		</g>
	</g>
	<g>
		<g>
			<path fill="#FEB600" d="M30.47,18.928c-0.212-0.212-0.481-0.324-0.776-0.324h-1.538c-0.242,0-0.469,0.067-0.674,0.2
				c-0.123,0.08-0.244,0.164-0.358,0.249l-4.286,3.377c-0.236,0.183-0.381,0.435-0.421,0.727c-0.04,0.297,0.037,0.581,0.223,0.82
				l0.93,1.168l0.02,0.023c0.194,0.218,0.439,0.354,0.71,0.392c0.292,0.042,0.573-0.035,0.815-0.223l1.88-1.47v8.572
				c0,0.297,0.112,0.565,0.324,0.776c0.212,0.213,0.481,0.325,0.777,0.325h1.597c0.296,0,0.565-0.112,0.777-0.324
				c0.212-0.212,0.324-0.481,0.324-0.777V19.705C30.795,19.41,30.683,19.141,30.47,18.928z M23.536,23.276L23.536,23.276
				C23.536,23.276,23.537,23.276,23.536,23.276L23.536,23.276z M29.657,32.403h-1.524h0V21.535l-3.688,2.882l-0.884-1.109
				l4.251-3.35c0.092-0.069,0.188-0.136,0.287-0.2c0.022-0.014,0.037-0.017,0.056-0.017h1.501
				C29.657,19.741,29.657,32.403,29.657,32.403z"/>
		</g>
	</g>
	<g>
		<g>
			<path fill="#333333" d="M37.027,5.056h-2.176v-2.52c0-0.522-0.425-0.947-0.947-0.947h-2.311c-0.522,0-0.947,0.425-0.947,0.947
				v2.52h-3.625v-2.52c0-0.522-0.425-0.947-0.947-0.947H23.76c-0.522,0-0.947,0.425-0.947,0.947v2.52h-3.625v-2.52
				c0-0.522-0.425-0.947-0.947-0.947h-2.311c-0.522,0-0.947,0.425-0.947,0.947v2.52h-3.625v-2.52c0-0.522-0.425-0.947-0.947-0.947
				H8.097c-0.522,0-0.947,0.425-0.947,0.947v2.52H4.973c-1.273,0-2.309,1.036-2.309,2.309v4.663v26.074
				c0,1.273,1.036,2.309,2.309,2.309h1.93c0.314,0,0.568-0.254,0.568-0.568s-0.254-0.568-0.568-0.568h-1.93
				c-0.647,0-1.172-0.526-1.172-1.172V12.597h34.399v4.308c0,0.314,0.254,0.568,0.568,0.568s0.568-0.254,0.568-0.568v-4.876V7.365
				C39.336,6.092,38.3,5.056,37.027,5.056z M31.781,2.725h1.932v5.799h-1.932V2.725z M23.95,2.725h1.933v5.799H23.95V2.725z
				 M16.118,2.725h1.933v5.799h-1.933V2.725z M8.286,2.725h1.932v5.799H8.286V2.725z M38.2,11.46H3.801v0V7.365
				c0-0.647,0.526-1.172,1.172-1.172h2.176v2.52c0,0.522,0.425,0.947,0.947,0.947h2.311c0.522,0,0.947-0.425,0.947-0.947v-2.52
				h3.625v2.52c0,0.522,0.425,0.947,0.947,0.947h2.311c0.522,0,0.947-0.425,0.947-0.947v-2.52h3.625v2.52
				c0,0.522,0.425,0.947,0.947,0.947h2.311c0.522,0,0.947-0.425,0.947-0.947v-2.52h3.625v2.52c0,0.522,0.425,0.947,0.947,0.947
				h2.311c0.522,0,0.947-0.425,0.947-0.947v-2.52h2.176c0.647,0,1.172,0.526,1.172,1.172C38.2,7.365,38.2,11.46,38.2,11.46z"/>
		</g>
	</g>
</g>
</svg>
