<?xml version="1.0" encoding="utf-8"?>
<!-- Generator: Adobe Illustrator 17.0.0, SVG Export Plug-In . SVG Version: 6.00 Build 0)  -->
<!DOCTYPE svg PUBLIC "-//W3C//DTD SVG 1.1//EN" "http://www.w3.org/Graphics/SVG/1.1/DTD/svg11.dtd">
<svg version="1.1" id="Layer_1" xmlns="http://www.w3.org/2000/svg" xmlns:xlink="http://www.w3.org/1999/xlink" x="0px" y="0px"
	 width="42px" height="42px" viewBox="0 0 42 42" enable-background="new 0 0 42 42" xml:space="preserve">
<g>
	<path fill="#333333" d="M31.769,21.949v-5.689c0.027-4.338-2.89-7.215-5.396-8.36c-0.718-0.328-1.458-0.581-2.21-0.769V6.767
		c0-1.744-1.419-3.163-3.163-3.163s-3.163,1.419-3.163,3.163v0.418c-0.677,0.183-1.344,0.421-1.99,0.72
		c-2.769,1.277-5.576,4.353-5.601,8.351v5.693c0,4.041-1.427,7.508-4.241,10.305c-0.168,0.167-0.228,0.413-0.158,0.639
		c0.071,0.226,0.263,0.393,0.496,0.433l6.004,1.037c1.118,0.193,2.148,0.351,3.128,0.481c1.104,2.163,3.272,3.552,5.64,3.552
		c2.369,0,4.537-1.389,5.641-3.554c0.976-0.13,2.001-0.287,3.113-0.479l6.003-1.037c0.233-0.04,0.424-0.207,0.496-0.433
		c0.071-0.225,0.011-0.472-0.158-0.639C33.264,29.324,31.769,25.857,31.769,21.949z M19.102,6.767c0-1.046,0.851-1.898,1.898-1.898
		s1.898,0.851,1.898,1.898v0.115c-1.261-0.181-2.54-0.173-3.795,0.03V6.767z M21.116,37.13c-1.602,0-3.098-0.796-4.059-2.097
		c1.414,0.145,2.733,0.219,4.052,0.219c1.324,0,2.648-0.073,4.067-0.221C24.215,36.334,22.717,37.13,21.116,37.13z M29.654,33.115
		c-1.214,0.209-2.327,0.38-3.378,0.514c-0.001,0-0.003,0-0.004,0c-0.464,0.059-0.914,0.11-1.355,0.154
		c-0.004,0-0.007,0.001-0.011,0.001c-0.404,0.04-0.799,0.073-1.19,0.101c-0.073,0.005-0.147,0.01-0.22,0.015
		c-0.338,0.022-0.673,0.04-1.006,0.053c-0.068,0.003-0.136,0.006-0.204,0.008c-0.787,0.027-1.563,0.027-2.349,0.001
		c-0.07-0.003-0.141-0.006-0.211-0.009c-0.327-0.013-0.657-0.03-0.99-0.052c-0.079-0.005-0.158-0.01-0.238-0.016
		c-0.379-0.027-0.762-0.059-1.154-0.098c-0.015-0.001-0.028-0.003-0.043-0.004c-0.438-0.044-0.884-0.095-1.344-0.153
		c-0.002,0-0.004,0-0.006,0c-1.055-0.133-2.172-0.305-3.391-0.515l-4.846-0.836c2.52-2.881,3.795-6.35,3.795-10.33v-5.689
		c0.022-3.438,2.459-6.096,4.865-7.206c0.715-0.33,1.457-0.576,2.212-0.748c0.006-0.001,0.013-0.001,0.02-0.002
		c1.559-0.35,3.218-0.366,4.795-0.043c0.008,0.002,0.016-0.002,0.025-0.001c0.825,0.172,1.637,0.433,2.42,0.79
		c2.334,1.067,4.679,3.708,4.656,7.206v5.693c0,3.816,1.376,7.365,3.993,10.331L29.654,33.115z"/>
	<path fill="#333333" d="M25.059,10.776c-2.451-1.12-5.453-1.122-7.888,0.001c-1.389,0.64-3.744,2.513-3.763,5.474
		c-0.002,0.349,0.279,0.634,0.629,0.636c0.001,0,0.003,0,0.004,0c0.347,0,0.631-0.28,0.633-0.629
		c0.015-2.326,1.91-3.818,3.027-4.333c2.106-0.972,4.71-0.97,6.831,0c0.318,0.145,0.693,0.006,0.839-0.312
		C25.517,11.296,25.376,10.921,25.059,10.776z"/>
	<path fill="#FEB600" d="M5.06,16.441c-0.247-0.247-0.647-0.247-0.894,0c-1.382,1.382-2.143,3.222-2.143,5.181
		s0.761,3.799,2.143,5.181c0.123,0.123,0.285,0.185,0.447,0.185c0.162,0,0.324-0.062,0.447-0.185c0.247-0.247,0.247-0.647,0-0.894
		c-1.143-1.143-1.772-2.665-1.772-4.286c0-1.621,0.629-3.144,1.772-4.286C5.307,17.088,5.307,16.688,5.06,16.441z"/>
	<path fill="#FEB600" d="M7.276,25.548c0.162,0,0.324-0.062,0.447-0.185c0.247-0.247,0.247-0.647,0-0.894
		c-1.618-1.618-1.618-4.25,0-5.868c0.247-0.247,0.247-0.647,0-0.894c-0.247-0.247-0.647-0.247-0.894,0
		c-2.111,2.111-2.111,5.546,0,7.657C6.952,25.487,7.114,25.548,7.276,25.548z"/>
	<path fill="#FEB600" d="M37.834,16.441c-0.247-0.247-0.647-0.247-0.894,0c-0.247,0.247-0.247,0.647,0,0.894
		c1.143,1.143,1.772,2.665,1.772,4.286c0,1.621-0.629,3.143-1.772,4.286c-0.247,0.247-0.247,0.647,0,0.894
		c0.123,0.123,0.285,0.185,0.447,0.185c0.162,0,0.324-0.062,0.447-0.185c1.382-1.382,2.143-3.222,2.143-5.181
		S39.216,17.823,37.834,16.441z"/>
	<path fill="#FEB600" d="M34.277,17.706c-0.247,0.247-0.247,0.647,0,0.894c1.618,1.618,1.618,4.25,0,5.868
		c-0.247,0.247-0.247,0.647,0,0.894c0.123,0.123,0.285,0.185,0.447,0.185c0.162,0,0.324-0.062,0.447-0.185
		c2.111-2.111,2.111-5.546,0-7.657C34.924,17.459,34.523,17.459,34.277,17.706z"/>
</g>
</svg>
