<?xml version="1.0" encoding="utf-8"?>
<!-- Generator: Adobe Illustrator 17.0.0, SVG Export Plug-In . SVG Version: 6.00 Build 0)  -->
<!DOCTYPE svg PUBLIC "-//W3C//DTD SVG 1.1//EN" "http://www.w3.org/Graphics/SVG/1.1/DTD/svg11.dtd">
<svg version="1.1" id="Layer_1" xmlns="http://www.w3.org/2000/svg" xmlns:xlink="http://www.w3.org/1999/xlink" x="0px" y="0px"
	 width="42px" height="42px" viewBox="0 0 42 42" enable-background="new 0 0 42 42" xml:space="preserve">
<path fill="#333333" d="M41.179,22.278c-0.315-2.682-2.844-3.681-4.498-3.9c-2.087-6.312-7.972-10.906-14.937-11.066
	c-0.034-0.61-0.003-1.761,0.607-2.495c0.37-0.445,0.901-0.671,1.59-0.689c2.219,0.086,2.56,0.956,2.61,1.705
	c0.018,0.276,0.26,0.488,0.533,0.467c0.276-0.018,0.485-0.257,0.467-0.533c-0.111-1.665-1.312-2.553-3.603-2.64
	c-1.015,0.025-1.813,0.38-2.371,1.054c-0.809,0.976-0.874,2.369-0.837,3.139c-0.068,0.003-0.137,0.002-0.205,0.006
	c-0.003-0.577-0.109-1.406-0.613-2.014c-0.405-0.489-0.984-0.746-1.721-0.765c-1.663,0.063-2.535,0.708-2.615,1.916
	c-0.013,0.2,0.138,0.374,0.339,0.387c0.198,0.015,0.374-0.138,0.387-0.339c0.036-0.543,0.284-1.175,1.894-1.237
	c0.5,0.013,0.885,0.177,1.154,0.5c0.381,0.459,0.451,1.142,0.447,1.607C13.383,8.001,8.054,12.408,6.076,18.335
	c-1.698,0.085-4.885,1.006-5.252,3.943c-0.212,1.694,0.262,3.226,1.334,4.313c0.934,0.947,2.24,1.464,3.657,1.464
	c0.037,0,0.074-0.006,0.111-0.006c1.992,6.644,8.161,11.501,15.445,11.501c7.288,0,13.459-4.862,15.448-11.512
	c1.202-0.08,2.301-0.581,3.105-1.447C40.932,25.504,41.378,23.973,41.179,22.278z M5.662,27.043c-1.088-0.036-2.08-0.436-2.79-1.156
	c-0.852-0.864-1.226-2.101-1.053-3.485c0.293-2.346,2.905-2.903,3.946-3.032c-0.337,1.296-0.517,2.655-0.517,4.056
	C5.248,24.67,5.394,25.879,5.662,27.043z M21.371,38.046c-8.061,0-14.62-6.559-14.62-14.62s6.559-14.62,14.62-14.62
	s14.62,6.558,14.62,14.62S29.432,38.046,21.371,38.046z M39.251,25.887C38.686,26.496,37.93,26.874,37.09,27
	c0.262-1.151,0.404-2.346,0.404-3.574c0-1.371-0.173-2.703-0.497-3.975c1.136,0.233,3.006,0.921,3.245,2.951
	C40.406,23.786,40.054,25.023,39.251,25.887z M16.443,23.228C16.429,23.504,16.641,24,16.917,24c0.009,0,0.018,0,0.027,0
	c0.264,0,0.485-0.452,0.5-0.719c0.005-0.1,0.117-2.59-1.305-4.001c-0.743-0.737-1.747-1.131-2.986-1.055
	c-2.327,0.145-3.358,1.425-3.813,2.498c-0.479,1.13-0.418,2.202-0.415,2.248c0.017,0.276,0.254,0.481,0.532,0.461
	c0.276-0.017,0.486-0.259,0.469-0.535c0-0.009-0.051-0.897,0.337-1.811c0.502-1.183,1.495-1.83,2.953-1.921
	c0.937-0.057,1.684,0.3,2.214,0.824C16.533,21.08,16.444,23.208,16.443,23.228z M28.19,18.164c-2.327,0.145-3.358,1.456-3.813,2.529
	c-0.479,1.13-0.418,2.218-0.415,2.263c0.017,0.276,0.254,0.489,0.532,0.469c0.276-0.017,0.486-0.255,0.469-0.532
	c0-0.009-0.051-0.895,0.337-1.809c0.502-1.183,1.495-1.829,2.953-1.92c0.937-0.057,1.684,0.177,2.214,0.702
	c1.103,1.09,1.014,3.341,1.013,3.362C31.466,23.504,31.678,24,31.954,24c0.009,0,0.018,0,0.027,0c0.264,0,0.485-0.452,0.5-0.719
	c0.005-0.1,0.117-2.59-1.305-4.001C30.434,18.544,29.429,18.088,28.19,18.164z M27.615,25.933c-0.415,0.012-0.742,0.358-0.73,0.773
	c0.036,1.261-0.275,5.389-5.765,5.576c-5.335,0-5.995-4.892-6.02-5.101c-0.049-0.411-0.421-0.7-0.833-0.658
	c-0.412,0.048-0.708,0.421-0.66,0.834c0.008,0.064,0.823,6.43,7.539,6.429c5.49-0.186,7.333-3.953,7.242-7.122
	C28.376,26.248,28.029,25.921,27.615,25.933z"/>
<path fill="#810380" d="M39.797,4.621c-0.689-0.077-1.35,0.096-1.35,0.096l1.12-0.718c0,0,0.522-0.582-0.689-0.747
	c-0.428-0.058-1.284-0.291-1.709-0.244c-0.388,0.043-0.826,0.567-0.05,0.998c0.553,0.036,1.339,0.126,1.339,0.126
	s-1.284,0.723-1.585,1.097c-0.267,0.331-0.336,0.637,2.953,0.637C40.773,5.865,41.029,4.758,39.797,4.621z M36.899,8.254
	c-1.314-0.146-2.573,0.182-2.573,0.182l2.135-1.368c0,0,0.994-1.11-1.314-1.423c-0.815-0.111-2.448-0.555-3.257-0.465
	c-0.739,0.082-1.574,1.081-0.096,1.902c1.054,0.068,2.552,0.24,2.552,0.24s-2.447,1.378-3.021,2.09
	c-0.508,0.63-0.641,1.215,5.628,1.215C38.76,10.626,39.248,8.515,36.899,8.254z"/>
</svg>
