<?xml version="1.0" encoding="utf-8"?>
<!-- Generator: Adobe Illustrator 17.0.0, SVG Export Plug-In . SVG Version: 6.00 Build 0)  -->
<!DOCTYPE svg PUBLIC "-//W3C//DTD SVG 1.1//EN" "http://www.w3.org/Graphics/SVG/1.1/DTD/svg11.dtd">
<svg version="1.1" id="Layer_1" xmlns="http://www.w3.org/2000/svg" xmlns:xlink="http://www.w3.org/1999/xlink" x="0px" y="0px"
	 width="42px" height="42px" viewBox="0 0 42 42" enable-background="new 0 0 42 42" xml:space="preserve">
<g>
	<path fill="#810380" d="M22.327,23.093c1.967,1.967,4.12,3.221,5.303,3.111c0.884-0.082,1.999-1.294,1.999-1.294l-2.536-2.536
		l-1.012,1.012l-4.047-4.047l1.012-1.012L20.51,15.79c0,0-1.212,1.115-1.294,1.999C19.107,18.973,20.36,21.125,22.327,23.093z"/>
	<path fill="#333333" d="M8.462,5.211v7.406H6.997v1.954h1.465v5.452H6.834v1.954h1.629v5.452H6.834v1.954h1.629v7.406h26.704V5.211
		H8.462z M10.416,29.383h1.629v-1.954h-1.629v-5.452h1.629v-1.954h-1.629V14.57h1.629v-1.954h-1.629V7.165h3.256v27.67h-3.256
		C10.416,34.836,10.416,29.383,10.416,29.383z M33.212,34.836H15.627V7.165h17.585L33.212,34.836L33.212,34.836z"/>
</g>
</svg>
