<?xml version="1.0" encoding="utf-8"?>
<!-- Generator: Adobe Illustrator 17.0.0, SVG Export Plug-In . SVG Version: 6.00 Build 0)  -->
<!DOCTYPE svg PUBLIC "-//W3C//DTD SVG 1.1//EN" "http://www.w3.org/Graphics/SVG/1.1/DTD/svg11.dtd">
<svg version="1.1" id="Layer_1" xmlns="http://www.w3.org/2000/svg" xmlns:xlink="http://www.w3.org/1999/xlink" x="0px" y="0px"
	 width="42px" height="42px" viewBox="0 0 42 42" enable-background="new 0 0 42 42" xml:space="preserve">
<g>
	<g>
		<g>
			<circle fill="#FFFFFF" cx="16.534" cy="14.527" r="1.235"/>
		</g>
	</g>
	<g>
		<g>
			<circle fill="#FFFFFF" cx="25.48" cy="14.527" r="1.235"/>
		</g>
	</g>
	<g>
		<g>
			<path fill="#FFFFFF" d="M33.92,34.994c-0.077-1.106-0.279-2.188-0.803-3.218c-0.824-1.622-2.233-2.909-3.9-3.627
				c-1.603-0.69-3.239-0.643-4.946-0.643v-1.853c2.907-0.988,5.226-3.257,6.283-6.131c1.905-0.141,3.411-1.735,3.411-3.675
				c0-1.698-1.187-3.169-2.791-3.574v-1.2c0-0.741-0.081-1.482-0.24-2.201c0,0-0.005-0.021-0.005-0.023
				c-0.495-2.22-1.746-4.236-3.522-5.677c-1.803-1.462-4.076-2.267-6.401-2.267s-4.598,0.805-6.401,2.267
				c-1.776,1.441-3.027,3.457-3.523,5.678l-0.004,0.018c-0.16,0.72-0.24,1.462-0.24,2.204v1.2c-1.604,0.406-2.791,1.876-2.791,3.574
				c0,1.94,1.507,3.534,3.411,3.675c1.057,2.874,3.377,5.143,6.283,6.131v1.853c-1.239,0-2.487-0.076-3.7,0.223
				c-1.445,0.356-2.793,1.117-3.825,2.193c-1.431,1.493-2.23,3.571-2.182,5.637c0.035,1.518,0.013,3.041,0.013,4.56
				c0,0.117,0,0.233,0,0.35c0,0.347,0.281,0.627,0.627,0.627h4.463h15.736h4.463c0.346,0,0.627-0.281,0.627-0.627
				c0-0.993,0-1.987,0-2.98C33.966,36.652,33.977,35.816,33.92,34.994z M30.961,18.101c0.304-1.463,0.214-2.971,0.214-4.457
				c0-0.004,0.003-0.056,0-0.057c0.9,0.361,1.536,1.249,1.536,2.259c0,1.11-0.748,2.05-1.767,2.339
				C30.95,18.157,30.955,18.129,30.961,18.101z M9.303,15.846c0-1.01,0.636-1.898,1.536-2.259c0,1.503-0.095,3.032,0.214,4.514
				c0.006,0.028,0.011,0.056,0.017,0.084C10.052,17.895,9.303,16.956,9.303,15.846z M12.512,39.841H9.303v-4.515
				c0-0.101,0.003-0.202,0.008-0.302c0.001-0.022,0.002-0.044,0.003-0.067c0.006-0.101,0.013-0.201,0.023-0.301
				c0-0.002,0-0.003,0.001-0.005c0.011-0.103,0.024-0.206,0.039-0.308c0.001-0.009,0.003-0.018,0.004-0.027
				c0.305-1.967,1.486-3.647,3.131-4.63C12.512,29.686,12.512,39.841,12.512,39.841z M26.093,28.76l-3.306,4.64l-0.496-2.12
				l0.857-1.497c0.123-0.215,0.108-0.482-0.038-0.682l-0.249-0.34h0.783h2.449V28.76z M21.26,30.555h-0.506l-0.596-1.042
				l0.551-0.753h0.597l0.551,0.753L21.26,30.555z M21.817,34.761l-0.809,1.136l-0.596-0.836l-0.214-0.3l0.623-4.027h0.238
				L21.817,34.761z M21.624,27.505H20.39h-1.392v-1.514c0.064,0.013,0.129,0.025,0.194,0.036c1.262,0.227,2.567,0.216,3.825-0.036
				v1.514H21.624z M15.397,4.146c1.579-1.281,3.572-1.987,5.61-1.987s4.031,0.706,5.61,1.987c1.49,1.208,2.558,2.877,3.028,4.723
				c-0.003,0.003-0.005,0.007-0.008,0.01c-0.743,0.924-2.278,0.376-2.278-0.802c0-0.347-0.281-0.627-0.627-0.627
				s-0.627,0.281-0.627,0.627c0,0.706-0.574,1.281-1.281,1.281c-0.706,0-1.281-0.574-1.281-1.281c0-0.347-0.281-0.627-0.627-0.627
				s-0.627,0.281-0.627,0.627c0,0.441-0.224,0.831-0.565,1.062c-0.204,0.138-0.451,0.219-0.716,0.219
				c-0.574,0-1.061-0.379-1.223-0.9c-0.037-0.12-0.058-0.248-0.058-0.38c0-0.347-0.281-0.627-0.627-0.627s-0.627,0.281-0.627,0.627
				c0,0.706-0.575,1.281-1.281,1.281S15.91,8.783,15.91,8.077c0-0.347-0.281-0.627-0.627-0.627s-0.627,0.281-0.627,0.627
				c0,0.132-0.02,0.26-0.058,0.38c-0.025,0.08-0.058,0.157-0.097,0.23c-0.059,0.109-0.134,0.208-0.221,0.295
				c-0.524,0.524-1.439,0.474-1.903-0.103c-0.003-0.003-0.005-0.007-0.008-0.01C12.839,7.024,13.907,5.354,15.397,4.146z
				 M17.078,24.021c-2.227-1.098-3.921-3.147-4.624-5.522c-0.038-0.128-0.073-0.257-0.105-0.387
				c-0.422-1.711-0.255-3.564-0.255-5.313v-1.727c0-0.263,0.012-0.526,0.035-0.787c0.525,0.296,1.158,0.397,1.75,0.277
				c0.277-0.056,0.544-0.159,0.786-0.303c0.059-0.035,0.66-0.467,0.618-0.514c0.465,0.531,1.148,0.867,1.908,0.867
				s1.443-0.336,1.908-0.867c0.465,0.531,1.148,0.867,1.908,0.867c0.285,0,0.559-0.047,0.815-0.134
				c0.085-0.029,0.169-0.062,0.25-0.1c0.324-0.15,0.611-0.367,0.843-0.633c0.465,0.531,1.148,0.867,1.908,0.867
				s1.443-0.336,1.908-0.867c-0.039,0.044,0.536,0.464,0.592,0.498c0.232,0.141,0.486,0.245,0.751,0.306
				c0.609,0.139,1.268,0.043,1.812-0.263c0.023,0.261,0.035,0.524,0.035,0.787V12.8c0,3.098,0.141,6.146-1.91,8.695
				c-1.553,1.931-3.909,3.164-6.374,3.374C20.073,25.001,18.486,24.715,17.078,24.021z M18.37,28.76L18.37,28.76h0.783l-0.249,0.34
				c-0.146,0.2-0.161,0.467-0.038,0.682l0.857,1.497l-0.496,2.119l-3.305-4.639h2.448V28.76z M28.248,39.841L28.248,39.841H13.767
				V29.107c0.234-0.079,0.474-0.147,0.72-0.2l5.17,7.256l0.84,1.179c0.029,0.041,0.063,0.078,0.101,0.111
				c0.113,0.097,0.258,0.153,0.41,0.153c0.018,0,0.036-0.002,0.054-0.003c0.007-0.001,0.014,0,0.021-0.001
				c0.015-0.002,0.029-0.005,0.044-0.008c0.01-0.002,0.02-0.003,0.03-0.005c0.006-0.001,0.012-0.004,0.018-0.006
				c0.137-0.038,0.259-0.121,0.344-0.24l6.01-8.435c0.245,0.053,0.485,0.12,0.719,0.199C28.248,29.108,28.248,39.841,28.248,39.841z
				 M29.502,39.841V29.686c1.644,0.983,2.826,2.663,3.131,4.63c0.001,0.009,0.003,0.018,0.004,0.027
				c0.015,0.102,0.029,0.205,0.039,0.308c0,0.002,0,0.003,0.001,0.005c0.01,0.099,0.017,0.2,0.023,0.301
				c0.001,0.022,0.002,0.044,0.003,0.067c0.005,0.1,0.008,0.201,0.008,0.302v4.515H29.502z"/>
		</g>
	</g>
	<path fill="#FFFFFF" d="M19.154,29l-0.249,0.22c-0.146,0.2-0.161,0.407-0.038,0.622l0.857,1.467l-0.488,2.071l1.032,1.743
		L20.895,32h0.238l0.683,2.826l0.97-1.399l-0.496-2.133l0.857-1.504c0.123-0.215,0.108-0.366-0.038-0.566L22.861,29H19.154z
		 M20.709,28.76h0.597l0.551,0.753l-0.597,1.042h-0.506l-0.596-1.042L20.709,28.76z"/>
	<g>
		<g>
			<path fill="#FFFFFF" d="M24.699,18.976c-0.202-0.282-0.594-0.347-0.876-0.145c-0.589,0.422-1.668,0.684-2.816,0.684
				c-1.149,0-2.228-0.262-2.816-0.684c-0.282-0.202-0.674-0.137-0.876,0.144c-0.202,0.282-0.137,0.674,0.144,0.876
				c0.803,0.575,2.129,0.919,3.547,0.919c1.418,0,2.744-0.343,3.547-0.918C24.836,19.649,24.901,19.257,24.699,18.976z"/>
		</g>
	</g>
</g>
</svg>
