<?xml version="1.0" encoding="utf-8"?>
<!-- Generator: Adobe Illustrator 17.0.0, SVG Export Plug-In . SVG Version: 6.00 Build 0)  -->
<!DOCTYPE svg PUBLIC "-//W3C//DTD SVG 1.1//EN" "http://www.w3.org/Graphics/SVG/1.1/DTD/svg11.dtd">
<svg version="1.1" id="Layer_1" xmlns="http://www.w3.org/2000/svg" xmlns:xlink="http://www.w3.org/1999/xlink" x="0px" y="0px"
	 width="42px" height="42px" viewBox="0 0 42 42" enable-background="new 0 0 42 42" xml:space="preserve">
<g>
	<g>
		<path fill="#FFFFFF" d="M32.755,38.84H15.907l-5.496-7.42v-7.58c0-1.137,0.929-3.417,4.445-3.907l0.276,1.98
			c-2.573,0.359-2.714,1.787-2.722,1.948v6.898l4.504,6.08h14.153l1.673-9.811c-0.058-0.832-0.817-7.141-10.652-7.858l0.146-1.995
			c12.183,0.889,12.508,9.804,12.51,9.894l0.002,0.095l-0.017,0.094L32.755,38.84z"/>
	</g>
	<g>
		<path fill="#FFFFFF" d="M14.745,22.006c-0.552,0-1-0.448-1-1V7.256c0.005-0.207,0.082-1.83,1.337-2.997
			c0.832-0.773,1.953-1.142,3.314-1.087c3.239-0.208,4.579,2.459,4.833,3.912c0.01,0.057,0.015,0.115,0.015,0.172v11.115
			c0,0.552-0.447,1-1,1s-1-0.448-1-1V7.357c-0.101-0.449-0.692-2.351-2.757-2.187c-0.042,0.003-0.083,0.002-0.123,0.002
			c-0.832-0.038-1.474,0.143-1.909,0.541c-0.663,0.605-0.711,1.568-0.712,1.578v13.716C15.745,21.558,15.297,22.006,14.745,22.006z"
			/>
	</g>
	<g>
		<path fill="#FFFFFF" d="M10.809,17.508L10.809,17.508c-0.356,0-0.69-0.13-0.917-0.357l-1.979-1.979
			c-0.058-0.058-0.108-0.123-0.15-0.192c-0.353-0.587-0.596-0.992,2.861-4.769C9.935,9.963,9.165,9.658,8.669,9.377
			C7.642,8.796,7.342,8.06,7.272,7.545C7.2,7.018,7.303,6.2,8.204,5.299c0.716-0.884,1.501-1.085,2.021-1.085
			c0.667,0,1.128,0.318,1.308,0.466l3.696,2.979c0.253,0.186,0.404,0.479,0.408,0.793l0.042,3.375
			c0.003,0.239-0.08,0.471-0.234,0.655c-0.01,0.013-0.724,1.293-2.104,3.16C12.399,16.915,11.595,17.508,10.809,17.508z
			 M9.826,14.257l1.105,1.105c0.17-0.145,0.437-0.415,0.801-0.908c1.044-1.413,1.902-2.481,2.3-2.968l-0.031-2.51L10.319,6.27
			c-0.075-0.055-0.041-0.008-0.097-0.082C10.159,6.214,9.96,6.303,9.685,6.64C9.3,7.032,9.247,7.227,9.254,7.275
			c0.005,0.038,0.089,0.185,0.399,0.36c0.708,0.4,2.444,0.977,3.053,1.165c0.33,0.102,0.583,0.367,0.671,0.701
			c0.088,0.333-0.002,0.689-0.239,0.94C11.867,11.793,10.421,13.438,9.826,14.257z"/>
	</g>
	<g>
		<path fill="#FFFFFF" d="M14.662,11.923c-0.38,0,0.257-0.217,0.089-0.585c-0.229-0.502-1.007-1.096-0.504-1.325l7.041-3.208
			c0.504-0.229,1.096-0.007,1.325,0.496c0.229,0.502,0.007,1.096-0.495,1.325l-7.042,3.208C14.941,11.894,14.8,11.923,14.662,11.923
			z"/>
	</g>
	<g>
		<path fill="#FFFFFF" d="M14.662,15.506c-0.38,0-0.743-0.217-0.911-0.585c-0.229-0.502-0.007-1.096,0.496-1.325l7.041-3.208
			c0.504-0.229,1.096-0.007,1.325,0.496c0.229,0.502,0.007,1.096-0.495,1.325l-7.042,3.208C14.941,15.477,14.8,15.506,14.662,15.506
			z"/>
	</g>
	<g>
		<path fill="#FFFFFF" d="M21.932,17.59c-0.244,0-0.489-0.089-0.683-0.269l-3.75-3.5c-0.404-0.377-0.426-1.01-0.049-1.413
			c0.377-0.404,1.009-0.426,1.414-0.049l3.75,3.5c0.403,0.377,0.425,1.01,0.049,1.413C22.466,17.483,22.2,17.59,21.932,17.59z"/>
	</g>
</g>
</svg>
