<?xml version="1.0" encoding="utf-8"?>
<!-- Generator: Adobe Illustrator 17.0.0, SVG Export Plug-In . SVG Version: 6.00 Build 0)  -->
<!DOCTYPE svg PUBLIC "-//W3C//DTD SVG 1.1//EN" "http://www.w3.org/Graphics/SVG/1.1/DTD/svg11.dtd">
<svg version="1.1" id="Layer_2" xmlns="http://www.w3.org/2000/svg" xmlns:xlink="http://www.w3.org/1999/xlink" x="0px" y="0px"
	 width="42px" height="42px" viewBox="0 0 42 42" enable-background="new 0 0 42 42" xml:space="preserve">
<g>
	<g>
		<g>
			<path fill="#FFFFFF" d="M34.651,15.672c0-2.645-0.279-5.001-0.829-7.001c-0.672-2.442-1.754-4.364-3.215-5.71
				C30.336,2.711,29.914,2.729,29.665,3c-0.25,0.271-0.232,0.693,0.039,0.942c2.987,2.753,3.614,7.898,3.614,11.73
				c0,6.965-3.125,8.698-5.064,9.101c0.964-1.571,1.441-3.395,1.362-5.263c-0.055-1.304-0.161-2.402-0.324-3.356
				c-0.393-2.301-1.333-5.458-4.94-6.291c-3.544-0.818-5.777-3.678-6.459-4.67c0.489-1.905,2.219-3.262,4.211-3.262h2.225
				c0.192,0,0.383,0.011,0.569,0.032c0.011,0.002,0.022,0.003,0.034,0.004l0.013,0.001c0.009,0.001,0.018,0.002,0.027,0.002
				c2.247,0.113,3.99,1.587,4.974,2.148c0.32,0.182,0.727,0.071,0.91-0.249s0.071-0.727-0.249-0.91
				c-1.356-1.119-3.236-2.363-5.528-2.319c-0.008-0.001-0.015-0.002-0.022-0.002c-0.238-0.028-0.483-0.041-0.728-0.041h-2.225
				c-2.712,0-5.052,1.924-5.575,4.577c-0.001,0.006-0.003,0.011-0.004,0.017c0,0.002-0.001,0.004-0.001,0.006
				C16.455,5.55,16.42,5.915,16.42,6.281v5.789c0,3.747,2.876,6.834,6.536,7.171v0.59c-0.351,0.141-0.856,0.368-1.364,0.68
				c-0.859,0.528-1.365,1.078-1.653,1.589l-1.87-1.87c-2.462-2.462-6.468-2.462-8.929,0c-0.71,0.71-1.245,1.587-1.549,2.537
				c-0.112,0.351,0.081,0.726,0.432,0.838s0.726-0.081,0.839-0.432c0.243-0.759,0.654-1.432,1.222-2
				c0.868-0.868,1.978-1.346,3.115-1.439c-0.757,0.743-1.22,1.775-1.22,2.891c0,2.231,1.815,4.046,4.046,4.046
				c1.783,0,3.299-1.16,3.837-2.764l3.302,3.302c0.941,0.941,1.459,2.191,1.459,3.522s-0.518,2.581-1.459,3.522
				s-2.191,1.459-3.522,1.459c-1.33,0-2.581-0.518-3.522-1.459l-6.037-6.037c-0.76-0.76-1.246-1.722-1.404-2.782
				c-0.054-0.364-0.395-0.615-0.758-0.561c-0.364,0.055-0.615,0.395-0.561,0.759c0.187,1.254,0.736,2.4,1.591,3.331l0.059,2.293
				c0.014,0.557,0.272,1.077,0.708,1.426c0.338,0.271,0.753,0.414,1.178,0.414c0.122,0,0.245-0.012,0.368-0.036l1.482-0.293
				l0.13,0.13c0.27,0.966,1.657,5.3,5.292,7.372c1.273,0.726,2.673,1.089,4.184,1.089c1.049,0,2.153-0.175,3.305-0.526
				c1.994-0.607,3.626-1.747,4.851-3.39c1.007-1.349,1.742-3.045,2.186-5.04c0.08-0.36-0.147-0.716-0.506-0.796
				c-0.36-0.08-0.716,0.147-0.796,0.506c-0.883,3.971-2.943,6.475-6.123,7.443c-1.872,0.57-3.579,0.615-5.096,0.14v-2.673
				c1.485-0.123,2.865-0.759,3.931-1.823l0.001-0.001l0.001-0.001l0,0l0,0c0.149-0.148,3.335-3.365,3.534-7.128
				c0.02-0.368-0.263-0.682-0.631-0.701c-0.365-0.019-0.682,0.263-0.701,0.631c-0.035,0.664-0.187,1.317-0.405,1.935
				c-0.174-1.384-0.796-2.664-1.798-3.666l-3.148-3.15c0.181-0.78,1.179-1.433,1.999-1.83v0.253c0,0.319,0.226,0.593,0.538,0.654
				c0.223,0.044,1.334,0.249,2.572,0.249c0.625,0,1.283-0.053,1.874-0.205c-0.319,1.044-0.851,2.021-1.578,2.87
				c-0.161,0.188-0.205,0.45-0.114,0.68s0.302,0.391,0.548,0.418c0.024,0.003,0.153,0.015,0.366,0.015
				c0.738,0,2.639-0.157,4.346-1.608c0.066-0.056,0.13-0.113,0.193-0.171c0.139,1.3,0.264,3.356,0.031,5.553
				c-0.039,0.366,0.226,0.695,0.593,0.734c0.024,0.003,0.048,0.004,0.071,0.004c0.337,0,0.626-0.254,0.662-0.597
				c0.347-3.269-0.048-6.181-0.192-7.073c0.332-0.504,0.62-1.063,0.86-1.675C34.341,19.827,34.651,17.903,34.651,15.672z
				 M16.025,25.338c-1.496,0-2.712-1.217-2.712-2.712c0-1.22,0.825-2.291,1.985-2.613c0.275,0.099,0.543,0.223,0.801,0.372
				c-0.152,0.171-0.212,0.415-0.144,0.638c0.084,0.278,0.348,0.474,0.638,0.474c0.226,0,0.434-0.119,0.555-0.301l1.585,1.585
				C18.652,24.204,17.469,25.338,16.025,25.338z M11.006,31.751c-0.22,0.044-0.379-0.051-0.454-0.111
				c-0.075-0.06-0.202-0.194-0.208-0.418l-0.023-0.88l1.29,1.29L11.006,31.751z M18.84,39.115c-0.001-0.001-0.002-0.001-0.003-0.002
				c-1.622-0.922-2.747-2.413-3.491-3.756c0.974,0.907,2.188,1.472,3.494,1.637V39.115L18.84,39.115z M17.755,12.071V7.178
				c0.819,0.938,2.043,2.1,3.646,2.971v4.011c0,0.368,0.299,0.667,0.667,0.667h1.439c0.368,0,0.667-0.299,0.667-0.667
				s-0.299-0.667-0.667-0.667h-0.772v-2.732c0.419,0.159,0.858,0.296,1.317,0.402c2.11,0.487,3.311,2.005,3.868,4.904
				c-1.11,1.193-2.659,1.872-4.296,1.872C20.388,17.94,17.755,15.307,17.755,12.071z M24.291,20.978v-1.735
				c1.42-0.131,2.759-0.678,3.859-1.568c0.059,0.575,0.103,1.202,0.133,1.893c0.016,0.378,0.005,0.754-0.031,1.125
				C27.492,21.195,25.676,21.177,24.291,20.978z"/>
		</g>
	</g>
	<g>
		<g>
			<path fill="#FFFFFF" d="M20.349,10.473l-0.978-0.089c-0.366-0.034-0.691,0.237-0.725,0.604c-0.033,0.367,0.237,0.691,0.604,0.725
				l0.978,0.089c0.02,0.002,0.041,0.003,0.061,0.003c0.341,0,0.632-0.26,0.663-0.607C20.987,10.83,20.716,10.506,20.349,10.473z"/>
		</g>
	</g>
	<g>
		<g>
			<path fill="#FFFFFF" d="M15.17,22.221c-0.228-0.144-0.526-0.133-0.745,0.022c-0.244,0.174-0.342,0.503-0.234,0.782
				c0.099,0.254,0.349,0.427,0.622,0.427c0.302,0,0.573-0.212,0.647-0.505C15.529,22.671,15.41,22.373,15.17,22.221z"/>
		</g>
	</g>
	<g>
		<path fill="#FFFFFF" d="M11.226,20.319c-0.015,0.01-0.1,0.049-0.287,0.175c-0.185,0.121-0.448,0.312-0.73,0.576
			c-0.293,0.254-0.578,0.602-0.851,0.989c-0.249,0.401-0.483,0.848-0.6,1.332c-0.086,0.234-0.086,0.489-0.137,0.728
			c-0.018,0.245-0.007,0.49-0.016,0.724c0.03,0.237,0.06,0.465,0.088,0.682c0.032,0.217,0.108,0.419,0.153,0.607
			c0.08,0.379,0.245,0.677,0.322,0.893c0.087,0.214,0.137,0.336,0.137,0.336l0.029,0.071c0.141,0.346-0.026,0.741-0.372,0.882
			c-0.346,0.141-0.741-0.026-0.882-0.372l-0.004-0.004c0,0-0.057-0.142-0.156-0.392c-0.089-0.254-0.267-0.592-0.366-1.054
			c-0.053-0.228-0.135-0.467-0.174-0.735c-0.031-0.27-0.064-0.554-0.098-0.849c0.009-0.3,0.003-0.61,0.031-0.924
			c0.062-0.31,0.078-0.636,0.187-0.941c0.09-0.31,0.191-0.616,0.337-0.897c0.12-0.294,0.299-0.548,0.453-0.804
			c0.345-0.484,0.708-0.905,1.064-1.211c0.348-0.316,0.666-0.543,0.9-0.692c0.229-0.151,0.403-0.235,0.386-0.228
			c0.306-0.161,0.685-0.044,0.846,0.262C11.649,19.778,11.532,20.157,11.226,20.319z"/>
	</g>
	<path fill="#FFFFFF" d="M32.855,23.312c0,0,0.055,0.187,0.125,0.585c0.086,0.394,0.156,0.937,0.228,1.585
		c0.05,0.325,0.049,0.678,0.07,1.051c0.009,0.373,0.05,0.767,0.033,1.173c-0.018,0.407-0.037,0.827-0.057,1.254
		c-0.004,0.428-0.059,0.858-0.132,1.287c-0.065,0.429-0.129,0.858-0.193,1.281c-0.044,0.426-0.205,0.822-0.297,1.218
		c-0.108,0.392-0.213,0.772-0.312,1.131c-0.082,0.365-0.229,0.687-0.358,0.986c-0.513,1.197-0.854,1.995-0.854,1.995l-1.162-0.588
		c0,0,0.308-0.749,0.769-1.874c0.118-0.28,0.252-0.581,0.322-0.924c0.088-0.337,0.18-0.692,0.275-1.059
		c0.081-0.37,0.229-0.739,0.263-1.139c0.054-0.395,0.108-0.796,0.162-1.198c0.064-0.4,0.111-0.802,0.107-1.202
		c0.013-0.398,0.025-0.79,0.037-1.17c0.012-0.379-0.034-0.745-0.047-1.092c-0.024-0.346-0.026-0.677-0.078-0.974
		c-0.076-0.602-0.147-1.098-0.223-1.421c-0.058-0.325-0.122-0.541-0.122-0.541L32.855,23.312z"/>
	<path fill="#FFFFFF" d="M15.346,35.357c0.974,0.907,2.188,1.472,3.494,1.637c0.423,0.049,0.873,0.069,1.334,0.049v-0.02
		c1.485-0.123,2.865-0.759,3.931-1.824l0.001-0.001l0.001-0.001l0,0l0,0c0.054-0.054,0.508-0.514,1.072-1.252
		c0.064-0.115,0.13-0.227,0.19-0.351c0.645-1.314,0.718-2.676,0.584-3.83c-0.018,0.056-0.029,0.115-0.049,0.17
		c-0.174-1.384-0.796-2.664-1.798-3.666l-3.149-3.15c0.005-0.021,0.017-0.042,0.023-0.063l-1.04-0.954l-1.87-1.87
		c-2.462-2.462-6.468-2.462-8.929,0c-0.71,0.71-1.245,1.587-1.549,2.537c-0.112,0.351,0.081,0.726,0.432,0.838
		s0.726-0.081,0.838-0.432c0.243-0.759,0.654-1.432,1.222-2c0.868-0.868,1.978-1.346,3.115-1.439
		c-0.757,0.743-1.22,1.775-1.22,2.891c0,2.231,1.815,4.046,4.046,4.046c1.783,0,3.299-1.16,3.837-2.764l3.302,3.302
		c0.941,0.941,1.459,2.191,1.459,3.521s-0.518,2.581-1.459,3.521c-0.941,0.941-2.191,1.459-3.521,1.459s-2.581-0.518-3.522-1.459
		l-6.037-6.037c-0.76-0.76-1.246-1.722-1.404-2.782c-0.054-0.364-0.395-0.615-0.758-0.561c-0.365,0.056-0.616,0.396-0.562,0.76
		c0.187,1.254,0.736,2.4,1.591,3.331v0.014c0.386,0.4,0.858,0.881,1.37,1.401l-0.001-0.037l1.29,1.29l-0.041,0.008
		c0.382,0.385,0.763,0.769,1.129,1.136l0.048-0.009l0.13,0.13c0.006,0.023,0.016,0.056,0.024,0.082
		c1.142,1.149,2.088,2.101,2.279,2.313c0.094,0.105,0.208,0.218,0.331,0.333C15.459,35.536,15.394,35.445,15.346,35.357z
		 M16.025,25.338c-1.496,0-2.712-1.217-2.712-2.712c0-1.22,0.825-2.291,1.985-2.613c0.275,0.099,0.543,0.223,0.801,0.372
		c-0.152,0.171-0.212,0.415-0.144,0.638c0.084,0.278,0.348,0.473,0.638,0.473c0.226,0,0.434-0.119,0.555-0.301l1.585,1.585
		C18.653,24.204,17.469,25.338,16.025,25.338z"/>
</g>
</svg>
