<?xml version="1.0" encoding="utf-8"?>
<!-- Generator: Adobe Illustrator 17.0.0, SVG Export Plug-In . SVG Version: 6.00 Build 0)  -->
<!DOCTYPE svg PUBLIC "-//W3C//DTD SVG 1.1//EN" "http://www.w3.org/Graphics/SVG/1.1/DTD/svg11.dtd">
<svg version="1.1" id="Capa_1" xmlns="http://www.w3.org/2000/svg" xmlns:xlink="http://www.w3.org/1999/xlink" x="0px" y="0px"
	 width="42px" height="42px" viewBox="0 0 42 42" enable-background="new 0 0 42 42" xml:space="preserve">
<g>
	<g>
		<g>
			<g>
				<path fill="#FEBF1E" d="M15.781,30.688c-0.27,0-0.488,0.219-0.488,0.488v2.087c0,0.27,0.219,0.488,0.488,0.488
					c0.27,0,0.488-0.219,0.488-0.488v-2.087C16.269,30.907,16.051,30.688,15.781,30.688z"/>
			</g>
		</g>
	</g>
	<g>
		<g>
			<g>
				<path fill="#FEBF1E" d="M26.219,30.688c-0.27,0-0.488,0.219-0.488,0.488v2.087c0,0.27,0.219,0.488,0.488,0.488
					s0.488-0.219,0.488-0.488v-2.087C26.707,30.907,26.488,30.688,26.219,30.688z"/>
			</g>
		</g>
	</g>
	<g>
		<g>
			<path fill="#333333" d="M11.824,20.302c-1.134-0.567-3.26-0.573-3.35-0.573c-0.27,0-0.488,0.218-0.488,0.488
				c0,0.27,0.218,0.488,0.488,0.488c0.549,0,2.143,0.085,2.913,0.47c0.07,0.035,0.145,0.052,0.218,0.052
				c0.179,0,0.352-0.099,0.437-0.27C12.163,20.716,12.066,20.423,11.824,20.302z"/>
		</g>
	</g>
	<g>
		<g>
			<g>
				<path fill="#FEBF1E" d="M6.909,29.645c-0.27,0-0.488,0.219-0.488,0.488v3.131c0,0.27,0.219,0.488,0.488,0.488
					s0.488-0.219,0.488-0.488v-3.131C7.397,29.863,7.179,29.645,6.909,29.645z"/>
			</g>
		</g>
	</g>
	<g>
		<g>
			<path fill="#333333" d="M36.531,27.821l-1.977-0.989c-0.011-0.006-0.019-0.017-0.019-0.03l0-0.994
				c0.812-0.559,1.386-1.443,1.53-2.479c0.365-0.631,0.557-1.344,0.557-2.068c0-1.351-0.651-2.553-1.655-3.31
				c0.059-0.196,0.089-0.398,0.089-0.605c0-1.276-1.156-2.315-2.576-2.315c-1.42,0-2.576,1.038-2.576,2.315
				c0,0.207,0.03,0.409,0.089,0.605c-0.599,0.451-1.071,1.061-1.355,1.766c-0.121-1.189-0.247-2.595-0.368-4.233
				c-0.16-2.161-0.937-3.986-2.248-5.278C24.723,8.925,22.986,8.247,21,8.247s-3.723,0.677-5.024,1.959
				c-1.311,1.292-2.088,3.117-2.248,5.278c-0.042,0.574-0.085,1.118-0.129,1.635H8.997c-1.708,0-3.098,1.39-3.098,3.098v0.029
				c0,0.398,0.094,0.796,0.272,1.152l0.25,0.5v0.797c0,1.263,0.623,2.397,1.566,3.079v0.705c0,0.09-0.061,0.171-0.148,0.196
				l-2.016,0.576c-0.877,0.251-1.49,1.063-1.49,1.975v4.038c0,0.27,0.219,0.488,0.488,0.488c0.27,0,0.488-0.219,0.488-0.488v-4.038
				c0-0.479,0.321-0.904,0.781-1.036l2.016-0.576c0.073-0.021,0.142-0.049,0.208-0.082l1.237,1.237v4.495
				c0,0.27,0.219,0.488,0.488,0.488c0.27,0,0.488-0.219,0.488-0.488V28.77l1.246-1.246c0.167,0.082,0.332,0.129,0.454,0.164
				l0.495,0.141c-0.671,0.477-1.084,1.255-1.084,2.098v3.337c0,0.27,0.219,0.488,0.488,0.488s0.488-0.219,0.488-0.488v-3.337
				c0-0.633,0.374-1.207,0.953-1.463l2.792-1.233c0.875,1.752,2.662,2.868,4.639,2.868c1.984,0,3.765-1.114,4.64-2.868l2.791,1.233
				c0.579,0.256,0.953,0.83,0.953,1.463v3.337c0,0.27,0.219,0.488,0.488,0.488s0.488-0.219,0.488-0.488v-3.337
				c0-0.625-0.227-1.213-0.617-1.67l0.756-0.378l0.567,0.539c0.397,0.377,0.906,0.565,1.415,0.565c0.509,0,1.018-0.189,1.415-0.565
				l0.567-0.539l1.631,0.815c0.367,0.184,0.596,0.553,0.596,0.964v3.606c0,0.27,0.219,0.488,0.488,0.488s0.488-0.219,0.488-0.488
				v-3.606C37.667,28.875,37.232,28.171,36.531,27.821z M32.481,16.008c0.882,0,1.599,0.6,1.599,1.338
				c0,0.031-0.002,0.062-0.005,0.092c-0.491-0.206-1.03-0.32-1.594-0.32c-0.565,0-1.103,0.114-1.594,0.319
				c-0.003-0.031-0.005-0.061-0.005-0.092C30.882,16.609,31.6,16.008,32.481,16.008z M10.04,27.877l-1.113-1.113
				c0.023-0.092,0.035-0.187,0.035-0.284v-0.206c0.307,0.101,0.631,0.161,0.966,0.171c0.038,0.001,0.075,0.002,0.112,0.002
				c0.37,0,0.732-0.056,1.076-0.163v0.196c0,0.106,0.011,0.202,0.03,0.29L10.04,27.877z M9.959,25.468
				c-1.412-0.042-2.561-1.286-2.561-2.773v-0.912c0-0.076-0.018-0.151-0.052-0.218l-0.301-0.603
				c-0.11-0.221-0.169-0.468-0.169-0.715v-0.029c0-1.17,0.952-2.121,2.121-2.121h4.209v2.027c0,0.328-0.077,0.656-0.224,0.949
				l-0.246,0.493c-0.034,0.068-0.052,0.143-0.052,0.218v1.044c0,0.721-0.285,1.395-0.803,1.897
				C11.364,25.225,10.681,25.49,9.959,25.468z M14.04,27.189l-1.543-0.441c-0.403-0.115-0.403-0.16-0.403-0.269l0-0.673
				c0.164-0.114,0.32-0.241,0.467-0.383c0.098-0.096,0.19-0.196,0.276-0.3c0.078,0.159,0.199,0.298,0.354,0.399
				c0.391,0.253,1.13,0.674,2.216,1.062L14.04,27.189z M21,29.123c-1.589,0-3.027-0.888-3.745-2.286l0.711-0.314
				c0.555-0.245,0.913-0.795,0.913-1.401V23.95c0.656,0.264,1.372,0.409,2.121,0.409c0.749,0,1.465-0.145,2.121-0.409v1.172
				c0,0.606,0.358,1.157,0.913,1.401l0.711,0.314C24.028,28.236,22.595,29.123,21,29.123z M25.234,25.985l-0.805-0.356
				c-0.201-0.089-0.331-0.288-0.331-0.508v-1.679c1.569-1.018,2.609-2.785,2.609-4.791v-0.916c0-0.595-0.253-1.156-0.694-1.54
				c-0.981-0.853-3.202-2.342-7.052-2.727c-0.268-0.027-0.508,0.169-0.534,0.437c-0.027,0.268,0.169,0.508,0.437,0.534
				c3.581,0.358,5.615,1.715,6.508,2.492c0.228,0.198,0.358,0.491,0.358,0.803v0.916c0,2.608-2.122,4.731-4.731,4.731
				s-4.731-2.122-4.731-4.731v-0.408c0-0.188,0.104-0.36,0.278-0.46c0.61-0.351,1.416-1.003,1.784-2.109
				c0.085-0.256-0.053-0.532-0.309-0.618c-0.256-0.085-0.532,0.053-0.618,0.309c-0.272,0.815-0.881,1.304-1.345,1.571
				c-0.473,0.273-0.768,0.773-0.768,1.306v0.408c0,2.006,1.04,3.773,2.609,4.791v1.679c0,0.22-0.13,0.419-0.331,0.508l-0.805,0.356
				c-1.573-0.421-2.58-0.982-3.044-1.282c-0.009-0.006-0.014-0.013-0.012-0.028c0.17-1.007,0.608-3.911,0.992-9.119
				c0.142-1.922,0.819-3.531,1.959-4.654C17.776,9.804,19.276,9.224,21,9.224c1.724,0,3.224,0.58,4.338,1.678
				c1.14,1.123,1.817,2.732,1.959,4.654c0.384,5.208,0.822,8.112,0.992,9.119c0.003,0.015-0.003,0.022-0.012,0.028
				C27.814,25.004,26.806,25.564,25.234,25.985z M30.427,26.802c0,0.013-0.007,0.024-0.019,0.03l-1.53,0.765
				c-0.018-0.009-0.036-0.018-0.054-0.026l-2.232-0.986c1.086-0.388,1.824-0.808,2.216-1.062c0.337-0.218,0.511-0.615,0.444-1.011
				c-0.004-0.022-0.008-0.045-0.012-0.069c0.275,0.552,0.685,1.021,1.186,1.366V26.802z M33.223,27.71
				c-0.416,0.396-1.068,0.396-1.484,0l-0.454-0.431c0.077-0.143,0.119-0.306,0.119-0.477v-0.52c0.341,0.106,0.703,0.163,1.077,0.163
				c0.375,0,0.736-0.058,1.077-0.163l0,0.519c0,0.171,0.042,0.333,0.119,0.477L33.223,27.71z M32.481,25.47
				c-1.352,0-2.481-1.012-2.626-2.355c-0.008-0.072-0.031-0.141-0.069-0.203c-0.307-0.5-0.469-1.071-0.469-1.651
				c0-1.745,1.42-3.165,3.165-3.165c1.745,0,3.165,1.42,3.165,3.165c0,0.336-0.055,0.67-0.161,0.988
				c-1.386-1.409-3.825-1.961-3.943-1.986c-0.144-0.032-0.296,0.004-0.411,0.096c-0.115,0.093-0.182,0.233-0.182,0.381
				c0,0.003-0.022,0.342-0.379,0.698c-0.191,0.191-0.191,0.5,0,0.69c0.191,0.191,0.5,0.191,0.69,0
				c0.275-0.275,0.436-0.553,0.531-0.789c0.822,0.244,2.527,0.86,3.292,1.942C34.867,24.54,33.777,25.47,32.481,25.47z"/>
		</g>
	</g>
	<g>
		<g>
			<g>
				<path fill="#FEBF1E" d="M35.091,30.29c-0.27,0-0.488,0.219-0.488,0.488v2.486c0,0.27,0.219,0.488,0.488,0.488
					s0.488-0.219,0.488-0.488v-2.486C35.579,30.508,35.36,30.29,35.091,30.29z"/>
			</g>
		</g>
	</g>
</g>
</svg>
