<?xml version="1.0" encoding="utf-8"?>
<!-- Generator: Adobe Illustrator 17.0.0, SVG Export Plug-In . SVG Version: 6.00 Build 0)  -->
<!DOCTYPE svg PUBLIC "-//W3C//DTD SVG 1.1//EN" "http://www.w3.org/Graphics/SVG/1.1/DTD/svg11.dtd">
<svg version="1.1" id="Capa_1" xmlns="http://www.w3.org/2000/svg" xmlns:xlink="http://www.w3.org/1999/xlink" x="0px" y="0px"
	 width="42px" height="42px" viewBox="0 0 42 42" enable-background="new 0 0 42 42" xml:space="preserve">
<g>
	<g>
		<g>
			<path fill="#FEB600" d="M18.659,33.675c-0.443,0-0.924-0.009-1.436-0.019c-0.576-0.012-1.192-0.023-1.84-0.023l-0.671,0.005
				H7.579c-0.214-0.03-1.341-0.252-1.827-1.137c-0.19-0.347-0.346-0.93-0.01-1.742c0.064-0.154,1.604-3.741,5.137-3.741
				c0.385,0,0.782,0.044,1.182,0.132l0.165,0.036l0.109,0.128c0.754,0.885,1.229,1.403,1.504,1.691l1.815-1.705l0.142-0.028
				c0.018-0.003,0.448-0.085,1.073-0.085c1.33,0,4.511,0.411,5.324,4.222c0.149,0.579,0.079,1.073-0.212,1.449
				C21.452,33.541,20.362,33.675,18.659,33.675z M15.383,32.633c0.654,0,1.277,0.012,1.859,0.023
				c0.505,0.01,0.979,0.019,1.417,0.019c0.658,0,2.2,0,2.533-0.43c0.093-0.119,0.103-0.324,0.029-0.607
				c-0.609-2.856-2.702-3.451-4.351-3.451c-0.333,0-0.598,0.026-0.748,0.047l-2.277,2.139l-0.34-0.292
				c-0.047-0.04-0.484-0.428-1.818-1.986c-0.274-0.051-0.545-0.076-0.807-0.076c-2.874,0-4.2,3.094-4.213,3.125
				c-0.149,0.362-0.162,0.649-0.037,0.878c0.219,0.399,0.838,0.59,1.037,0.625L15.383,32.633z"/>
		</g>
	</g>
	<path fill="#313131" d="M34.954,8.325H14.142c-0.827,0-1.5,0.673-1.5,1.5v6.7c0.144-0.045,0.295-0.082,0.458-0.096
		c0.167,0,0.35,0.011,0.542,0.034V9.825c0-0.276,0.224-0.5,0.5-0.5h20.813c0.275,0,0.5,0.224,0.5,0.5v14.188
		c0,0.275-0.225,0.5-0.5,0.5H16.237c-0.139,0.388-0.314,0.729-0.536,1h19.254c0.827,0,1.5-0.673,1.5-1.5V9.825
		C36.454,8.998,35.782,8.325,34.954,8.325z"/>
	<path fill="#313131" d="M16.486,17.092c-0.583-0.658-1.52-0.992-2.784-0.992c-0.245,0-0.509,0.013-0.806,0.041
		c-1.995,0.235-2.672,1.743-2.754,2.559v5.063l0.024,0.154c0.037,0.114,0.933,2.784,3.335,2.784l0.078-0.001
		c2.426,0,3.421-1.964,3.5-3.313l-0.003-4.502C17.081,18.845,17.188,17.885,16.486,17.092z M16.079,18.825l0,0.575
		c-0.38-0.112-0.692-0.372-0.909-0.615c0.182-0.333,0.327-0.713,0.422-1.145c0.042,0.037,0.099,0.064,0.136,0.105
		C16.135,18.195,16.085,18.747,16.079,18.825z M13.002,17.135c0.664-0.063,1.209-0.042,1.653,0.054
		c-0.407,2.504-2.775,2.754-3.515,2.765l-0.001-1.199C11.156,18.61,11.357,17.329,13.002,17.135z M13.565,25.7l-0.063,0.501v-0.5
		c-1.5,0-2.221-1.667-2.359-2.026l-0.002-2.717c1.007-0.001,2.438-0.323,3.433-1.351c0.359,0.359,0.868,0.711,1.507,0.815
		l0.001,2.937C16.042,24.01,15.518,25.7,13.565,25.7z"/>
	<g>
		<path fill="#313131" d="M33.517,23.325H16.642c-0.276,0-0.5-0.224-0.5-0.5s0.224-0.5,0.5-0.5h16.875c0.276,0,0.5,0.224,0.5,0.5
			S33.793,23.325,33.517,23.325z"/>
	</g>
	<g>
		<path fill="#313131" d="M22.142,22.95c-0.276,0-0.5-0.224-0.5-0.5v-7.625c0-0.276-0.225-0.5-0.5-0.5h-1.563
			c-0.276,0-0.5,0.224-0.5,0.5v7.625c0,0.276-0.224,0.5-0.5,0.5s-0.5-0.224-0.5-0.5v-7.625c0-0.827,0.673-1.5,1.5-1.5h1.563
			c0.827,0,1.5,0.673,1.5,1.5v7.625C22.642,22.727,22.418,22.95,22.142,22.95z"/>
	</g>
	<g>
		<path fill="#313131" d="M31.954,22.95c-0.276,0-0.5-0.224-0.5-0.5v-9.938c0-0.276-0.225-0.5-0.5-0.5h-1.563
			c-0.275,0-0.5,0.224-0.5,0.5v9.938c0,0.276-0.224,0.5-0.5,0.5s-0.5-0.224-0.5-0.5v-9.938c0-0.827,0.673-1.5,1.5-1.5h1.563
			c0.827,0,1.5,0.673,1.5,1.5v9.938C32.454,22.727,32.231,22.95,31.954,22.95z"/>
	</g>
	<g>
		<path fill="#313131" d="M27.142,23.2c-0.276,0-0.5-0.224-0.5-0.5v-4.063c0-0.276-0.225-0.5-0.5-0.5h-1.563
			c-0.275,0-0.5,0.224-0.5,0.5V22.7c0,0.276-0.224,0.5-0.5,0.5s-0.5-0.224-0.5-0.5v-4.063c0-0.827,0.673-1.5,1.5-1.5h1.563
			c0.827,0,1.5,0.673,1.5,1.5V22.7C27.642,22.977,27.418,23.2,27.142,23.2z"/>
	</g>
	<g>
		<path fill="#313131" d="M16.204,17.929c-0.276,0-0.5-0.224-0.5-0.5v-6.448c0-0.276,0.224-0.5,0.5-0.5c0.276,0,0.5,0.224,0.5,0.5
			v6.448C16.704,17.706,16.481,17.929,16.204,17.929z"/>
	</g>
	<g>
		<path fill="#313131" d="M34.412,13.721c-0.276,0-0.5-0.224-0.5-0.5v-2.667c0-0.276,0.224-0.5,0.5-0.5s0.5,0.224,0.5,0.5v2.667
			C34.912,13.498,34.689,13.721,34.412,13.721z"/>
	</g>
	<circle fill="#313131" cx="34.309" cy="15.138" r="0.708"/>
</g>
</svg>
