<?xml version="1.0" encoding="utf-8"?>
<!-- Generator: Adobe Illustrator 17.0.0, SVG Export Plug-In . SVG Version: 6.00 Build 0)  -->
<!DOCTYPE svg PUBLIC "-//W3C//DTD SVG 1.1//EN" "http://www.w3.org/Graphics/SVG/1.1/DTD/svg11.dtd">
<svg version="1.1" id="Capa_1" xmlns="http://www.w3.org/2000/svg" xmlns:xlink="http://www.w3.org/1999/xlink" x="0px" y="0px"
	 width="42px" height="42px" viewBox="0 0 42 42" enable-background="new 0 0 42 42" xml:space="preserve">
<g>
	<g>
		<g>
			<path fill="#333333" d="M40.059,36.417H25.881c-0.428,0-0.775,0.347-0.775,0.775c0,0.428,0.347,0.775,0.775,0.775h14.178
				c0.428,0,0.775-0.347,0.775-0.775C40.833,36.764,40.486,36.417,40.059,36.417z"/>
		</g>
	</g>
	<g>
		<g>
			<path fill="#333333" d="M15.732,36.417H1.941c-0.428,0-0.775,0.347-0.775,0.775c0,0.428,0.347,0.775,0.775,0.775h13.79
				c0.428,0,0.775-0.347,0.775-0.775C16.507,36.764,16.16,36.417,15.732,36.417z"/>
		</g>
	</g>
	<g>
		<g>
			<path fill="#333333" d="M21.775,35.001v-1.373c0-0.428-0.347-0.775-0.775-0.775s-0.775,0.347-0.775,0.775v1.373
				c-0.902,0.32-1.549,1.181-1.549,2.191c0,1.282,1.043,2.324,2.324,2.324s2.324-1.043,2.324-2.324
				C23.324,36.182,22.676,35.321,21.775,35.001z M21,37.967c-0.427,0-0.775-0.348-0.775-0.775c0-0.427,0.348-0.775,0.775-0.775
				s0.775,0.348,0.775,0.775C21.775,37.619,21.427,37.967,21,37.967z"/>
		</g>
	</g>
	<g>
		<g>
			<path fill="#333333" d="M21.336,10.076h-6.604c-0.428,0-0.775,0.347-0.775,0.775c0,0.428,0.347,0.775,0.775,0.775h6.604
				c0.428,0,0.775-0.347,0.775-0.775C22.111,10.423,21.764,10.076,21.336,10.076z"/>
		</g>
	</g>
	<g>
		<g>
			<path fill="#333333" d="M27.915,10.182c-0.144-0.144-0.344-0.227-0.549-0.227c-0.204,0-0.404,0.083-0.548,0.227
				c-0.144,0.144-0.226,0.344-0.226,0.548s0.082,0.404,0.226,0.548c0.145,0.144,0.344,0.227,0.548,0.227
				c0.205,0,0.404-0.083,0.549-0.227c0.144-0.144,0.227-0.344,0.227-0.548S28.059,10.326,27.915,10.182z"/>
		</g>
	</g>
	<g>
		<g>
			<path fill="#333333" d="M24.937,10.303c-0.144-0.144-0.344-0.227-0.548-0.227c-0.204,0-0.404,0.083-0.548,0.227
				c-0.144,0.144-0.227,0.344-0.227,0.548s0.083,0.404,0.227,0.548c0.144,0.144,0.344,0.227,0.548,0.227
				c0.204,0,0.404-0.083,0.548-0.227c0.144-0.144,0.227-0.344,0.227-0.548S25.081,10.447,24.937,10.303z"/>
		</g>
	</g>
	<g>
		<g>
			<path fill="#333333" d="M21.336,16.894h-6.604c-0.428,0-0.775,0.347-0.775,0.775c0,0.428,0.347,0.775,0.775,0.775h6.604
				c0.428,0,0.775-0.347,0.775-0.775C22.111,17.241,21.764,16.894,21.336,16.894z"/>
		</g>
	</g>
	<g>
		<g>
			<path fill="#333333" d="M27.915,16.999c-0.145-0.144-0.344-0.227-0.549-0.227c-0.204,0-0.403,0.083-0.548,0.227
				c-0.144,0.144-0.226,0.344-0.226,0.548c0,0.204,0.082,0.404,0.226,0.548c0.145,0.144,0.344,0.227,0.548,0.227
				c0.205,0,0.404-0.083,0.549-0.227c0.144-0.144,0.227-0.344,0.227-0.548C28.142,17.343,28.059,17.143,27.915,16.999z"/>
		</g>
	</g>
	<g>
		<g>
			<path fill="#333333" d="M24.937,17.121c-0.144-0.144-0.344-0.227-0.548-0.227c-0.204,0-0.404,0.083-0.548,0.227
				c-0.144,0.144-0.227,0.344-0.227,0.548c0,0.204,0.083,0.404,0.227,0.548c0.144,0.144,0.344,0.227,0.548,0.227
				c0.204,0,0.404-0.083,0.548-0.227c0.144-0.144,0.227-0.344,0.227-0.548C25.164,17.465,25.081,17.265,24.937,17.121z"/>
		</g>
	</g>
	<g>
		<g>
			<path fill="#333333" d="M21.336,23.712h-6.604c-0.428,0-0.775,0.347-0.775,0.775s0.347,0.775,0.775,0.775h6.604
				c0.428,0,0.775-0.347,0.775-0.775S21.764,23.712,21.336,23.712z"/>
		</g>
	</g>
	<g>
		<g>
			<path fill="#333333" d="M27.915,23.817c-0.145-0.144-0.344-0.227-0.549-0.227c-0.204,0-0.404,0.083-0.548,0.227
				c-0.144,0.144-0.226,0.343-0.226,0.548c0,0.204,0.082,0.404,0.226,0.548c0.145,0.144,0.344,0.227,0.548,0.227
				c0.205,0,0.404-0.083,0.549-0.227c0.144-0.144,0.227-0.344,0.227-0.548C28.142,24.161,28.059,23.961,27.915,23.817z"/>
		</g>
	</g>
	<g>
		<g>
			<path fill="#333333" d="M24.937,23.939c-0.144-0.144-0.344-0.227-0.548-0.227c-0.204,0-0.404,0.083-0.548,0.227
				c-0.144,0.144-0.227,0.344-0.227,0.548s0.083,0.404,0.227,0.548c0.144,0.144,0.344,0.227,0.548,0.227
				c0.204,0,0.404-0.083,0.548-0.227c0.144-0.144,0.227-0.344,0.227-0.548S25.081,24.083,24.937,23.939z"/>
		</g>
	</g>
	<g>
		<g>
			<path fill="#333333" d="M32.011,17.669c0-1.405-0.697-2.65-1.763-3.409c1.066-0.759,1.763-2.004,1.763-3.409
				c0-2.307-1.877-4.184-4.184-4.184H14.192c-2.307,0-4.184,1.877-4.184,4.184c0,1.405,0.697,2.65,1.763,3.409
				c-1.066,0.759-1.763,2.004-1.763,3.409c0,1.405,0.697,2.65,1.763,3.409c-1.066,0.759-1.763,2.004-1.763,3.409
				c0,2.307,1.877,4.184,4.184,4.184h13.635c2.307,0,4.184-1.877,4.184-4.184c0-1.405-0.697-2.65-1.763-3.409
				C31.314,20.318,32.011,19.074,32.011,17.669z M11.558,10.851c0-1.452,1.182-2.634,2.634-2.634h13.635
				c1.452,0,2.634,1.182,2.634,2.634s-1.182,2.634-2.634,2.634H14.192C12.74,13.485,11.558,12.303,11.558,10.851z M30.462,24.486
				c0,1.452-1.182,2.634-2.634,2.634H14.192c-1.452,0-2.634-1.182-2.634-2.634s1.182-2.634,2.634-2.634h13.635
				C29.28,21.852,30.462,23.034,30.462,24.486z M27.828,20.303H14.192c-1.452,0-2.634-1.182-2.634-2.634
				c0-1.452,1.182-2.634,2.634-2.634h13.635c1.452,0,2.634,1.182,2.634,2.634C30.462,19.121,29.28,20.303,27.828,20.303z"/>
		</g>
	</g>
	<g>
		<g>
			<path fill="#333333" d="M37.967,2.484c-1.581,0-2.867,1.286-2.867,2.867s1.286,2.867,2.867,2.867s2.867-1.286,2.867-2.867
				S39.547,2.484,37.967,2.484z M37.967,6.667c-0.726,0-1.317-0.591-1.317-1.317s0.591-1.317,1.317-1.317s1.317,0.591,1.317,1.317
				S38.693,6.667,37.967,6.667z"/>
		</g>
	</g>
	<g>
		<g>
			<path fill="#333333" d="M4.033,2.484c-1.581,0-2.867,1.286-2.867,2.867s1.286,2.867,2.867,2.867S6.9,6.931,6.9,5.35
				S5.614,2.484,4.033,2.484z M4.033,6.667c-0.726,0-1.317-0.591-1.317-1.317s0.591-1.317,1.317-1.317S5.35,4.624,5.35,5.35
				S4.759,6.667,4.033,6.667z"/>
		</g>
	</g>
	<g>
		<g>
			<path fill="#333333" d="M37.967,9.146c-0.428,0-0.775,0.347-0.775,0.775v0.155h-3.254c-0.428,0-0.775,0.347-0.775,0.775
				c0,0.428,0.347,0.775,0.775,0.775h4.029c0.428,0,0.775-0.347,0.775-0.775v-0.93C38.742,9.493,38.395,9.146,37.967,9.146z"/>
		</g>
	</g>
	<g>
		<g>
			<path fill="#333333" d="M8.372,10.076H4.808V9.921c0-0.428-0.347-0.775-0.775-0.775S3.258,9.493,3.258,9.921v0.93
				c0,0.428,0.347,0.775,0.775,0.775h4.339c0.428,0,0.775-0.347,0.775-0.775C9.146,10.423,8.8,10.076,8.372,10.076z"/>
		</g>
	</g>
	<g>
		<g>
			<path fill="#333333" d="M4.033,27.13c-1.581,0-2.867,1.286-2.867,2.867c0,1.581,1.286,2.867,2.867,2.867S6.9,31.577,6.9,29.997
				C6.9,28.416,5.614,27.13,4.033,27.13z M4.033,31.314c-0.726,0-1.317-0.591-1.317-1.317s0.591-1.317,1.317-1.317
				S5.35,29.27,5.35,29.997S4.759,31.314,4.033,31.314z"/>
		</g>
	</g>
	<g>
		<g>
			<path fill="#333333" d="M37.967,27.13c-1.581,0-2.867,1.286-2.867,2.867c0,1.581,1.286,2.867,2.867,2.867
				s2.867-1.286,2.867-2.867C40.833,28.416,39.547,27.13,37.967,27.13z M37.967,31.314c-0.726,0-1.317-0.591-1.317-1.317
				s0.591-1.317,1.317-1.317s1.317,0.591,1.317,1.317S38.693,31.314,37.967,31.314z"/>
		</g>
	</g>
	<g>
		<g>
			<path fill="#333333" d="M8.062,23.721H4.033c-0.428,0-0.775,0.347-0.775,0.775v0.93c0,0.428,0.347,0.775,0.775,0.775
				s0.775-0.347,0.775-0.775v-0.155h3.254c0.428,0,0.775-0.347,0.775-0.775C8.837,24.068,8.49,23.721,8.062,23.721z"/>
		</g>
	</g>
	<g>
		<g>
			<path fill="#333333" d="M37.967,23.721h-4.339c-0.428,0-0.775,0.347-0.775,0.775c0,0.428,0.347,0.775,0.775,0.775h3.564v0.155
				c0,0.428,0.347,0.775,0.775,0.775s0.775-0.347,0.775-0.775v-0.93C38.742,24.068,38.395,23.721,37.967,23.721z"/>
		</g>
	</g>
	<g>
		<g>
			<path fill="#333333" d="M21,29.711c-0.428,0-0.775,0.347-0.775,0.775V30.8c0,0.428,0.347,0.775,0.775,0.775
				s0.775-0.347,0.775-0.775v-0.315C21.775,30.057,21.428,29.711,21,29.711z"/>
		</g>
	</g>
	<g>
		<g>
			<path fill="#333333" d="M40.059,14.802h-4.184c-0.428,0-0.775,0.347-0.775,0.775v1.317h-1.472c-0.428,0-0.775,0.347-0.775,0.775
				c0,0.428,0.347,0.775,0.775,0.775H35.1v1.317c0,0.428,0.347,0.775,0.775,0.775h4.184c0.428,0,0.775-0.347,0.775-0.775v-4.184
				C40.833,15.149,40.486,14.802,40.059,14.802z M39.284,18.986H36.65v-2.634h2.634V18.986z"/>
		</g>
	</g>
	<g>
		<g>
			<path fill="#333333" d="M8.372,16.891H6.9v-1.315c0-0.428-0.347-0.775-0.775-0.775H1.941c-0.428,0-0.775,0.347-0.775,0.775v4.184
				c0,0.428,0.347,0.775,0.775,0.775h4.184c0.428,0,0.775-0.347,0.775-0.775v-1.319h1.472c0.428,0,0.775-0.347,0.775-0.775
				S8.8,16.891,8.372,16.891z M5.35,18.986H2.716v-2.634H5.35V18.986z"/>
		</g>
	</g>
</g>
</svg>
