<?xml version="1.0" encoding="utf-8"?>
<!-- Generator: Adobe Illustrator 17.0.0, SVG Export Plug-In . SVG Version: 6.00 Build 0)  -->
<!DOCTYPE svg PUBLIC "-//W3C//DTD SVG 1.1//EN" "http://www.w3.org/Graphics/SVG/1.1/DTD/svg11.dtd">
<svg version="1.1" id="Layer_1" xmlns="http://www.w3.org/2000/svg" xmlns:xlink="http://www.w3.org/1999/xlink" x="0px" y="0px"
	 width="42px" height="42px" viewBox="0 0 42 42" enable-background="new 0 0 42 42" xml:space="preserve">
<g>
	<g>
		<path fill="#333333" d="M27.761,37H12.265l-0.15-0.181c-0.054-0.065-5.368-6.634-1.239-14.671c2.13-4.26,3.157-7.155,2.473-10.23
			c-0.17-0.583-0.457-1.283-0.734-1.96c-0.768-1.873-1.561-3.809-0.453-4.826L12.305,5h16.653l0.04,0.456
			c0.008,0.088,0.174,2.198-1.327,5.827c-1.224,2.957,0.551,6.532,1.977,9.405c0.466,0.94,0.869,1.751,1.123,2.455
			c0.911,2.523,2.455,8.912-2.866,13.729L27.761,37z M12.747,36h14.626c4.705-4.396,3.291-10.208,2.456-12.519
			c-0.234-0.65-0.625-1.438-1.078-2.35c-1.436-2.893-3.401-6.855-2.004-10.232c1.015-2.451,1.22-4.14,1.254-4.899h-15.27
			c-0.391,0.649,0.244,2.2,0.809,3.579c0.287,0.702,0.584,1.427,0.777,2.091c0.756,3.398-0.313,6.459-2.549,10.931
			C8.305,29.342,11.97,34.938,12.747,36z"/>
	</g>
	<g>
		<path fill="#333333" d="M21,18.5c-0.276,0-0.5-0.224-0.5-0.5v-1c0-0.276,0.224-0.5,0.5-0.5s0.5,0.224,0.5,0.5v1
			C21.5,18.276,21.276,18.5,21,18.5z"/>
	</g>
	<g>
		<path fill="#333333" d="M20.625,30.477c-0.938,0-1.805-0.321-2.576-0.955c-2.038-1.746-6.388-7.477-6.572-7.72
			c-0.115-0.151-0.134-0.354-0.049-0.524S11.685,21,11.875,21H29.5c0.196,0,0.375,0.115,0.456,0.294
			c0.08,0.179,0.049,0.389-0.081,0.536l-7.036,7.994c-0.032,0.037-0.069,0.068-0.111,0.095
			C22.691,29.941,21.816,30.477,20.625,30.477z M12.89,22c1.292,1.668,4.291,5.461,5.801,6.755c0.58,0.477,1.233,0.722,1.934,0.722
			c0.747,0,1.34-0.281,1.52-0.376L28.394,22H12.89z"/>
	</g>
	<g>
		<path fill="#333333" d="M19.5,36.5c-0.276,0-0.5-0.224-0.5-0.5v-6c0-0.276,0.224-0.5,0.5-0.5S20,29.724,20,30v6
			C20,36.276,19.776,36.5,19.5,36.5z"/>
	</g>
	<g>
		<path fill="#333333" d="M8,19.5c-0.077,0-0.404-0.018-0.475-0.054C7.356,19.361,7,19.189,7,19v-1H5c-0.276,0-1-0.224-1-0.5v-2
			C4,15.224,4.724,15,5,15h2v-1.465c0-0.191,0.359-0.365,0.531-0.449c0.171-0.083,0.501-0.063,0.651,0.055l3.661,2.804
			c0.124,0.096,0.226,0.245,0.224,0.401s-0.062,0.303-0.187,0.396l-3.59,2.662C8.202,19.467,8.105,19.5,8,19.5z M5,17h3
			c0.276,0,0,0.224,0,0.5v0.508l2.271-1.68L8,14.558V15.5C8,15.776,8.276,16,8,16H5V17z"/>
	</g>
	<g>
		<path fill="#333333" d="M33.301,19.402l-3.598-2.662c-0.125-0.093-0.201-0.239-0.203-0.396s0.069-0.305,0.193-0.401l3.598-2.804
			c0.15-0.117,0.306-0.138,0.477-0.055C33.94,13.169,34,13.344,34,13.535V15h2.598C36.875,15,37,15.224,37,15.5v2
			c0,0.276-0.125,0.5-0.402,0.5H34v1c0,0.189-0.057,0.361-0.226,0.446c-0.071,0.036-0.124,0.054-0.201,0.054
			C33.469,19.5,33.389,19.467,33.301,19.402z M36,16h-2.402C33.322,16,33,15.776,33,15.5v-0.942l-2.271,1.77L33,18.008V17.5
			c0-0.276,0.322-0.5,0.598-0.5H36V16z"/>
	</g>
</g>
</svg>
