<?xml version="1.0" encoding="utf-8"?>
<!-- Generator: Adobe Illustrator 17.0.0, SVG Export Plug-In . SVG Version: 6.00 Build 0)  -->
<!DOCTYPE svg PUBLIC "-//W3C//DTD SVG 1.1//EN" "http://www.w3.org/Graphics/SVG/1.1/DTD/svg11.dtd">
<svg version="1.1" id="Layer_1" xmlns="http://www.w3.org/2000/svg" xmlns:xlink="http://www.w3.org/1999/xlink" x="0px" y="0px"
	 width="42px" height="42px" viewBox="0 0 42 42" enable-background="new 0 0 42 42" xml:space="preserve">
<g>
	<path fill="#333333" d="M39.853,29.687h-6.434v-0.6c0-6.846-5.571-12.416-12.419-12.416S8.58,22.24,8.58,29.087v0.6H2.147v-0.6
		c0-10.393,8.458-18.848,18.853-18.848c10.396,0,18.854,8.455,18.854,18.848L39.853,29.687L39.853,29.687z M34.606,28.487h4.037
		C38.325,19.032,30.533,11.439,21,11.439S3.675,19.032,3.357,28.487h4.037C7.709,21.257,13.691,15.471,21,15.471
		S34.291,21.257,34.606,28.487z"/>
	<path fill="#333333" d="M21.021,31.761c-0.98,0-1.874-0.538-2.332-1.405c-0.547-1.038-1.986-7.738-2.149-8.499
		c-0.056-0.263,0.07-0.531,0.308-0.656s0.53-0.078,0.715,0.118c0.535,0.564,5.241,5.541,5.788,6.578
		c0.328,0.622,0.395,1.335,0.187,2.007c-0.208,0.673-0.666,1.224-1.288,1.552C21.871,31.656,21.446,31.761,21.021,31.761z
		 M18.18,23.733c0.585,2.605,1.297,5.544,1.57,6.063c0.358,0.679,1.252,0.96,1.938,0.599c0.339-0.179,0.588-0.479,0.701-0.845
		s0.077-0.754-0.102-1.093C22.015,27.938,19.996,25.689,18.18,23.733z"/>
	<rect x="20.413" y="10.839" fill="#333333" width="1.2" height="5.231"/>
	
		<rect x="31.448" y="15.41" transform="matrix(0.6665 0.7455 -0.7455 0.6665 24.1296 -17.8784)" fill="#333333" width="1.2" height="5.242"/>
	
		<rect x="8.068" y="16.721" transform="matrix(0.7458 0.6661 -0.6661 0.7458 14.2598 -2.7315)" fill="#333333" width="5.283" height="1.2"/>
	<path fill="#333333" d="M21.065,29.823c-0.37,0-0.671-0.301-0.671-0.67c0-0.37,0.301-0.671,0.671-0.671s0.671,0.301,0.671,0.671
		C21.736,29.522,21.435,29.823,21.065,29.823z"/>
</g>
</svg>
