<?xml version="1.0" encoding="iso-8859-1"?>
<!-- Generator: Adobe Illustrator 17.0.0, SVG Export Plug-In . SVG Version: 6.00 Build 0)  -->
<!DOCTYPE svg PUBLIC "-//W3C//DTD SVG 1.1//EN" "http://www.w3.org/Graphics/SVG/1.1/DTD/svg11.dtd">
<svg version="1.1" id="Layer_1" xmlns="http://www.w3.org/2000/svg" xmlns:xlink="http://www.w3.org/1999/xlink" x="0px" y="0px"
	 width="42px" height="42px" viewBox="0 0 42 42" style="enable-background:new 0 0 42 42;" xml:space="preserve">
<g>
	<g>
		<path style="fill:#FFFFFF;" d="M37.99,5.211H12.378c-1.368,0-2.481,1.113-2.481,2.481v7.616c-0.681,0.136-1.312,0.482-1.793,0.995
			c-0.632,0.674-0.959,1.589-0.899,2.511l0.105,1.617l0.246,3.777c0.094,1.435,0.902,2.706,2.162,3.399
			c0.632,0.348,1.326,0.522,2.019,0.522c0.693,0,1.387-0.174,2.019-0.522c0.355-0.195,0.673-0.438,0.951-0.716H37.99
			c1.368,0,2.481-1.113,2.481-2.481V7.692C40.471,6.324,39.358,5.211,37.99,5.211z M8.807,19.535l-0.054-0.821
			c-0.033-0.503,0.139-0.982,0.483-1.35c0.344-0.368,0.811-0.57,1.315-0.57h1.999l-0.432,1.153C12,18.127,11.19,19.214,8.807,19.535
			z M14.371,24.107c-0.059,0.904-0.568,1.704-1.361,2.141c-0.796,0.438-1.747,0.438-2.544,0c-0.794-0.436-1.303-1.237-1.362-2.14
			l-0.197-3.022c1.887-0.237,3.062-0.901,3.752-1.478c0.154,0.125,0.335,0.241,0.544,0.349c0.311,0.161,0.775,0.321,1.407,0.486
			L14.371,24.107z M14.723,18.713l-0.01,0.149c-0.462-0.132-0.69-0.229-0.798-0.284c-0.157-0.081-0.25-0.149-0.304-0.195
			l0.446-1.188c0.064,0.052,0.125,0.108,0.182,0.169C14.584,17.731,14.756,18.211,14.723,18.713z M38.919,24.411
			c0,0.513-0.417,0.93-0.93,0.93H15.686c0.127-0.36,0.208-0.739,0.234-1.132l0.004-0.059h19.96c0.428,0,0.776-0.347,0.776-0.776
			c0-0.428-0.347-0.776-0.776-0.776h-0.843V9.812c0-0.428-0.347-0.776-0.776-0.776H30.52c-0.428,0-0.776,0.347-0.776,0.776v12.787
			h-0.964v-5.55c0-0.428-0.347-0.776-0.776-0.776h-3.746c-0.428,0-0.776,0.347-0.776,0.776v5.55h-0.909v-9.737
			c0-0.428-0.347-0.776-0.776-0.776h-3.746c-0.428,0-0.776,0.347-0.776,0.776v9.737h-1.252l0.176-2.706l0.07-1.078
			c0.056-0.861-0.226-1.717-0.779-2.375V8.768c0-0.428-0.347-0.776-0.776-0.776c-0.428,0-0.776,0.347-0.776,0.776v6.633
			c-0.326-0.104-0.669-0.159-1.016-0.159h-1.476v-7.55c0-0.513,0.417-0.93,0.93-0.93H37.99c0.513,0,0.93,0.417,0.93,0.93
			L38.919,24.411L38.919,24.411z M18.828,22.598v-8.962h2.194v8.962H18.828z M25.034,22.598v-4.774h2.194v4.774H25.034z
			 M31.295,22.598V10.587h2.194v12.011H31.295z"/>
	</g>
</g>
<g>
	<g>
		<path style="fill:#FFFFFF;" d="M21.905,33.705c-0.47-2.593-2.524-4.663-5.112-5.15c-0.391-0.074-0.79-0.111-1.188-0.111h-1.184
			c-0.206,0-0.403,0.082-0.549,0.227l-2.134,2.134l-2.134-2.134c-0.145-0.145-0.343-0.227-0.549-0.227H7.872
			c-0.398,0-0.797,0.037-1.188,0.111c-2.588,0.487-4.643,2.557-5.112,5.15c-0.139,0.765,0.068,1.547,0.566,2.144
			c0.499,0.597,1.231,0.939,2.009,0.939H19.33c0.778,0,1.51-0.342,2.009-0.939C21.837,35.252,22.043,34.47,21.905,33.705z
			 M20.148,34.854c-0.203,0.243-0.501,0.383-0.818,0.383H4.147c-0.317,0-0.615-0.139-0.818-0.383s-0.287-0.561-0.231-0.873
			c0.356-1.965,1.912-3.533,3.873-3.902c0.296-0.056,0.599-0.084,0.901-0.084h0.862l2.456,2.456c0.303,0.303,0.794,0.303,1.097,0
			l2.456-2.456h0.862c0.301,0,0.605,0.028,0.901,0.084c1.961,0.369,3.517,1.937,3.873,3.902v0
			C20.435,34.293,20.351,34.611,20.148,34.854z"/>
	</g>
</g>
<g>
	<g>
		<path style="fill:#FFFFFF;" d="M37.445,7.492c-0.428,0-0.776,0.347-0.776,0.776v2.947c0,0.428,0.347,0.776,0.776,0.776
			s0.776-0.347,0.776-0.776V8.268C38.221,7.839,37.874,7.492,37.445,7.492z"/>
	</g>
</g>
<g>
	<g>
		<path style="fill:#FFFFFF;" d="M37.445,12.922c-0.428,0-0.776,0.347-0.776,0.776v0.388c0,0.428,0.347,0.776,0.776,0.776
			s0.776-0.347,0.776-0.776v-0.388C38.221,13.27,37.874,12.922,37.445,12.922z"/>
	</g>
</g>
</svg>
