<?xml version="1.0" encoding="utf-8"?>
<!-- Generator: Adobe Illustrator 23.0.3, SVG Export Plug-In . SVG Version: 6.00 Build 0)  -->
<svg version="1.1" id="Layer_1" xmlns="http://www.w3.org/2000/svg" xmlns:xlink="http://www.w3.org/1999/xlink" x="0px" y="0px"
	 viewBox="0 0 42 42" enable-background="new 0 0 42 42" xml:space="preserve">
<g>
	<g>
		<g>
			<g>
				<g>
					<path fill="#333333" d="M36.7,17c-1.2-4.6-4.4-8.4-8.7-10.4v1.7c3.8,2,6.5,5.5,7.3,9.7c0,0.1,0,0.2,0.1,0.3c0,0,0,0.1,0,0.1
						c0,0.1,0,0.1,0,0.2c0,0,0,0.1,0,0.1c0,0.1,0,0.2,0,0.2c0,0,0,0.1,0,0.1c0,0.2,0.1,0.5,0.1,0.7c0,0,0,0.1,0,0.1
						c0,0.1,0,0.2,0,0.3c0,0,0,0.1,0,0.1c0,0.1,0,0.2,0,0.3c0,0,0,0.1,0,0.1c0,0.1,0,0.2,0,0.3c0,0.1,0,0.3,0,0.4c0,0,0,0,0,0.1
						c0,0.1,0,0.2,0,0.3c0,0,0,0,0,0.1c0,0.1,0,0.2,0,0.3c0,0,0,0,0,0.1c0,0.1,0,0.2,0,0.3c0,0,0,0.1,0,0.1c0,0.1,0,0.2,0,0.3
						c0,0,0,0.1,0,0.1c0,0.1,0,0.2,0,0.2c0,0.1,0,0.1,0,0.2c0,0.1,0,0.1,0,0.2c0,0.1,0,0.1,0,0.2c0,0,0,0.1,0,0.1
						c-1.4,6.5-7.1,11.4-14,11.4c-6.9,0-12.6-4.9-14-11.4c0-0.1,0-0.1,0-0.2c0-0.1,0-0.1,0-0.2c0-0.1,0-0.2,0-0.2c0,0,0-0.1,0-0.1
						c0-0.1,0-0.2,0-0.3c0,0,0,0,0-0.1c0-0.1,0-0.2,0-0.4c0,0,0,0,0,0c-0.1-0.5-0.1-1-0.1-1.5c0-0.1,0-0.2,0-0.3c0,0,0-0.1,0-0.1
						c0-0.1,0-0.2,0-0.2c0,0,0-0.1,0-0.1c0-0.1,0-0.1,0-0.2c0-0.1,0-0.2,0-0.3c0,0,0,0,0,0c0.5-4.7,3.3-8.9,7.4-11.2V6.7
						c-2.5,1.2-4.6,2.9-6.1,5.2C7.2,13.4,6.4,15.2,6,17c-2.1,0.2-3.7,1.9-3.7,4c0,2.1,1.6,3.8,3.7,4c1.8,6.9,8,11.9,15.4,11.9
						c7.4,0,13.6-5.1,15.4-11.9c2.1-0.2,3.7-1.9,3.7-4C40.4,18.9,38.8,17.2,36.7,17z M3.9,21c0-1.1,0.7-2,1.8-2.3
						c-0.1,0.5-0.1,1-0.1,1.4c0,0,0,0,0,0c0,0.1,0,0.2,0,0.3c0,0,0,0.1,0,0.1c0,0.1,0,0.1,0,0.2c0,0.1,0,0.2,0,0.3
						c0,0.1,0,0.2,0,0.4c0,0,0,0.1,0,0.1c0,0.1,0,0.2,0,0.3c0,0,0,0.1,0,0.1c0,0.1,0,0.2,0,0.3c0,0.1,0,0.1,0,0.2c0,0.1,0,0.1,0,0.2
						c0,0.1,0,0.1,0,0.2c0,0.1,0,0.1,0,0.2c0,0.1,0,0.2,0,0.3c0,0,0,0.1,0,0.1C4.6,23,3.9,22.1,3.9,21z M37.1,23.3
						c0-0.1,0-0.1,0-0.2c0-0.1,0-0.1,0-0.2c0-0.1,0-0.2,0-0.2c0-0.1,0-0.1,0-0.2c0-0.1,0-0.1,0-0.2c0,0,0-0.1,0-0.1
						c0-0.1,0-0.2,0-0.3c0,0,0-0.1,0-0.1c0-0.1,0-0.2,0-0.3c0,0,0-0.1,0-0.1c0-0.1,0-0.2,0-0.4c0-0.1,0-0.2,0-0.3c0,0,0-0.1,0-0.1
						c0-0.1,0-0.1,0-0.2c0,0,0-0.1,0-0.1c0-0.1,0-0.1,0-0.2c0-0.1,0-0.1,0-0.2c0-0.1,0-0.1,0-0.2c0-0.1,0-0.1,0-0.2
						c0-0.1,0-0.1,0-0.2c0-0.1,0-0.1,0-0.2c0-0.1,0-0.1,0-0.2c0-0.1,0-0.1,0-0.2c0-0.1,0-0.1,0-0.2c1,0.3,1.8,1.2,1.8,2.3
						C38.8,22.1,38.1,23,37.1,23.3z"/>
					<path fill="#333333" d="M18.5,21.9c-0.4-1.4-1.6-2.4-3.1-2.4c-1.4,0-2.7,1-3.1,2.4c-0.1,0.4,0.1,0.9,0.6,1
						c0.4,0.1,0.9-0.1,1-0.6c0.2-0.7,0.8-1.2,1.5-1.2c0.7,0,1.3,0.5,1.5,1.2c0.1,0.4,0.4,0.6,0.8,0.6c0.1,0,0.1,0,0.2,0
						C18.4,22.8,18.6,22.3,18.5,21.9z"/>
					<path fill="#333333" d="M27.2,19.6c-1.4,0-2.7,1-3.1,2.4c-0.1,0.4,0.1,0.9,0.6,1s0.9-0.1,1-0.6c0.2-0.7,0.8-1.2,1.5-1.2
						c0.7,0,1.3,0.5,1.5,1.2c0.1,0.4,0.4,0.6,0.8,0.6c0.1,0,0.1,0,0.2,0c0.4-0.1,0.7-0.5,0.6-1C29.9,20.5,28.7,19.6,27.2,19.6z"/>
					<path fill="#333333" d="M23.9,27.5c-0.4-0.1-0.9,0.1-1,0.6c-0.2,0.7-0.8,1.2-1.5,1.2S20,28.7,19.8,28c-0.1-0.4-0.5-0.7-1-0.6
						c-0.4,0.1-0.7,0.5-0.6,1c0.4,1.4,1.6,2.4,3.1,2.4c1.4,0,2.7-1,3.1-2.4C24.5,28,24.3,27.6,23.9,27.5z"/>
				</g>
			</g>
		</g>
		<path fill="#333333" d="M8.2,15.4c2.2-5.1,7.3-8.7,13.2-8.7c5.9,0,11,3.6,13.2,8.7h1.7C34,9.4,28.1,5.1,21.3,5.1
			c-6.8,0-12.6,4.3-14.9,10.3H8.2z"/>
	</g>
	<path fill="#333333" d="M15.3,17c-6.6,0-13.5-0.9-13.7-3.6c-0.1-1.4,2.7-2.6,4.8-3l0.2,1.3c-2.1,0.3-3.6,1.3-3.7,1.6
		c0.1,1.3,7,2.9,17.6,2.2c10.6-0.8,17.2-3.3,17.1-4.7c-0.1-0.3-1.6-1.3-3.2-1.8l0.4-1.2c1,0.3,4,1.6,4.1,3
		c0.3,3.5-10.8,5.6-18.3,6.1C18.9,17,17.1,17,15.3,17z"/>
	<path fill="#333333" d="M5.4,14.2c0.2-1.3,0.7-2.5,1.3-3.6l0.2,0.7c-0.7-0.3-1.4-0.7-2-1.1C4.2,9.7,3.6,9.3,3,8.8
		c0.8,0.2,1.5,0.4,2.2,0.7c0.7,0.3,1.4,0.6,2.1,0.9l0.5,0.2L7.5,11C6.9,12.2,6.3,13.2,5.4,14.2z"/>
	<path fill="#333333" d="M37.4,6.2c-1,1-2.1,1.8-3.2,2.5l0.2-0.7c0.3,0.5,0.6,1.1,0.9,1.6c0.3,0.6,0.5,1.1,0.6,1.8
		c-0.5-0.4-0.9-0.9-1.3-1.4c-0.4-0.5-0.7-1-1-1.5l-0.3-0.4l0.4-0.3C34.9,7.2,36.1,6.6,37.4,6.2z"/>
</g>
</svg>
