<?xml version="1.0" encoding="utf-8"?>
<!-- Generator: Adobe Illustrator 17.0.0, SVG Export Plug-In . SVG Version: 6.00 Build 0)  -->
<!DOCTYPE svg PUBLIC "-//W3C//DTD SVG 1.1//EN" "http://www.w3.org/Graphics/SVG/1.1/DTD/svg11.dtd">
<svg version="1.1" id="Layer_1" xmlns="http://www.w3.org/2000/svg" xmlns:xlink="http://www.w3.org/1999/xlink" x="0px" y="0px"
	 width="42px" height="42px" viewBox="0 0 42 42" enable-background="new 0 0 42 42" xml:space="preserve">
<g id="Layer_1_1_">
</g>
<g>
	<path fill="#333333" d="M30.262,38.134H11.792c-1.379,0-2.5-1.121-2.5-2.5V9.578c0-1.378,1.121-2.5,2.5-2.5h3.758v1h-3.758
		c-0.827,0-1.5,0.673-1.5,1.5v26.056c0,0.827,0.673,1.5,1.5,1.5h18.471c0.827,0,1.5-0.673,1.5-1.5V9.578c0-0.827-0.673-1.5-1.5-1.5
		h-3.758v-1h3.758c1.379,0,2.5,1.122,2.5,2.5v26.056C32.762,37.013,31.641,38.134,30.262,38.134z"/>
	<path fill="#333333" d="M25.969,9.731h-9.896c-0.568,0-1.03-0.462-1.03-1.03V6.326c0-0.568,0.462-1.03,1.03-1.03h1.896
		c0.24-1.468,1.518-2.592,3.052-2.592s2.812,1.124,3.052,2.592h1.896c0.567,0,1.029,0.462,1.029,1.03v2.375
		C26.999,9.269,26.537,9.731,25.969,9.731z M16.074,6.296l-0.03,2.405l9.926,0.03c0.017,0,0.029-0.014,0.029-0.03V6.326l-2.886-0.03
		v-0.5c0-1.153-0.938-2.092-2.092-2.092s-2.092,0.938-2.092,2.092v0.5H16.074z"/>
	<g>
		<path fill="#333333" d="M15.243,13.274v1.301h-1.301v-1.301H15.243 M16.243,12.274h-3.301v3.301h3.301V12.274L16.243,12.274z"/>
		<rect x="18.188" y="13.424" fill="#333333" width="10.805" height="1"/>
	</g>
	<g>
		<path fill="#333333" d="M15.243,19.164v1.301h-1.301v-1.301H15.243 M16.243,18.164h-3.301v3.301h3.301V18.164L16.243,18.164z"/>
		<rect x="18.188" y="19.315" fill="#333333" width="10.805" height="1"/>
	</g>
	<g>
		<path fill="#333333" d="M15.243,25.053v1.301h-1.301v-1.301H15.243 M16.243,24.053h-3.301v3.301h3.301V24.053L16.243,24.053z"/>
		<rect x="18.188" y="25.204" fill="#333333" width="10.805" height="1"/>
	</g>
	<g>
		<path fill="#333333" d="M15.243,30.943v1.301h-1.301v-1.301H15.243 M16.243,29.943h-3.301v3.301h3.301V29.943L16.243,29.943z"/>
		<rect x="18.188" y="31.094" fill="#333333" width="10.805" height="1"/>
	</g>
</g>
</svg>
