<?xml version="1.0" encoding="utf-8"?>
<!-- Generator: Adobe Illustrator 17.0.0, SVG Export Plug-In . SVG Version: 6.00 Build 0)  -->
<!DOCTYPE svg PUBLIC "-//W3C//DTD SVG 1.1//EN" "http://www.w3.org/Graphics/SVG/1.1/DTD/svg11.dtd">
<svg version="1.1" id="Layer_1" xmlns="http://www.w3.org/2000/svg" xmlns:xlink="http://www.w3.org/1999/xlink" x="0px" y="0px"
	 width="42px" height="42px" viewBox="0 0 42 42" enable-background="new 0 0 42 42" xml:space="preserve">
<g>
	<g>
		<g>
			<path fill="#333333" d="M31.681,5.664c-0.401-0.709-1.191-1.566-2.347-2.332c-0.11-0.073-0.227-0.147-0.35-0.221
				c-0.002-0.001-0.004-0.003-0.007-0.004c-0.038-0.023-0.076-0.046-0.116-0.069c-1.606-0.952-3.909-1.759-7.064-1.876
				c-0.025-0.001-0.049-0.002-0.074-0.003c-0.091-0.003-0.184-0.006-0.276-0.008c-0.03-0.001-0.06-0.001-0.091-0.002
				C21.239,1.147,21.12,1.146,21,1.146c-0.119,0-0.237,0.001-0.354,0.003c-0.053,0.001-0.104,0.003-0.156,0.004
				c-0.062,0.002-0.124,0.003-0.186,0.005c-0.069,0.002-0.137,0.006-0.206,0.009c-0.041,0.002-0.082,0.004-0.123,0.006
				c-0.082,0.004-0.163,0.009-0.243,0.014c-0.024,0.001-0.047,0.003-0.071,0.005c-0.094,0.006-0.187,0.014-0.28,0.021
				c-0.006,0-0.011,0.001-0.017,0.001c-2.257,0.192-4.007,0.763-5.3,1.388c-0.038,0.018-0.076,0.037-0.113,0.055
				c-0.012,0.006-0.024,0.012-0.037,0.019c-0.052,0.026-0.104,0.052-0.154,0.078c-0.005,0.003-0.01,0.005-0.015,0.008
				c-0.133,0.069-0.26,0.138-0.379,0.205c-0.017,0.01-0.033,0.019-0.05,0.029c-0.069,0.039-0.136,0.079-0.201,0.118
				c-0.023,0.014-0.047,0.028-0.07,0.042c-0.067,0.041-0.131,0.081-0.195,0.121c-0.026,0.017-0.052,0.033-0.078,0.05
				c-0.001,0-0.002,0.001-0.002,0.001c-0.057,0.037-0.113,0.074-0.168,0.112C11.93,3.893,11.399,4.361,10.996,4.8
				c-0.008,0.009-0.016,0.017-0.024,0.026c-0.023,0.025-0.046,0.05-0.068,0.075c-0.231,0.26-0.424,0.516-0.57,0.76
				C8.213,6.071,1,7.644,1,10.067c0,0.028,0.002,0.056,0.006,0.084l4.058,30.156c0.042,0.313,0.309,0.547,0.625,0.547h6.094
				c0.348,0,0.631-0.282,0.631-0.631c0-0.348-0.282-0.631-0.631-0.631H6.24l-3.975-29.54c0.05-0.167,0.528-0.723,2.22-1.436
				C5.94,8.003,7.92,7.433,10.12,6.989l0.765,1.973c-3.449,0.77-5.709,1.659-5.806,1.698c-0.269,0.107-0.431,0.383-0.393,0.67
				l3.437,25.554c0.042,0.313,0.309,0.547,0.625,0.547h24.504c0.316,0,0.584-0.235,0.625-0.548l2.509-19.029
				c0.046-0.345-0.198-0.662-0.543-0.708c-0.345-0.045-0.662,0.198-0.708,0.543l-2.437,18.481h-23.4L6.003,11.661
				c0.842-0.301,2.784-0.949,5.343-1.51l3.27,8.433c0.094,0.243,0.328,0.403,0.588,0.403h11.592c0.26,0,0.494-0.16,0.588-0.403
				l3.27-8.433c2.558,0.561,4.5,1.209,5.343,1.51l-0.487,3.625c-0.046,0.345,0.196,0.663,0.541,0.709
				c0.029,0.004,0.057,0.006,0.085,0.006c0.311,0,0.582-0.23,0.624-0.547l0.555-4.125c0.039-0.287-0.123-0.564-0.393-0.67
				c-0.097-0.038-2.358-0.927-5.806-1.697l0.765-1.973c2.201,0.444,4.182,1.015,5.637,1.628c1.695,0.715,2.171,1.271,2.218,1.433
				L35.76,39.592H14.221c-0.348,0-0.631,0.282-0.631,0.631c0,0.348,0.282,0.631,0.631,0.631h22.091c0.316,0,0.583-0.234,0.625-0.547
				l4.057-30.156C40.998,10.123,41,10.095,41,10.067C41,7.649,33.81,6.076,31.681,5.664z M26.364,17.726H15.636L11.297,6.538
				c0.001-0.002,0.003-0.006,0.004-0.008c0.007-0.013,0.015-0.026,0.022-0.04c0.231-0.498,1.267-1.781,3.345-2.777
				c1.204-0.573,2.862-1.103,5.029-1.259c0.096-0.007,0.192-0.013,0.29-0.018c0.014-0.001,0.029-0.002,0.043-0.002
				c0.084-0.004,0.17-0.008,0.256-0.011c0.023-0.001,0.046-0.002,0.07-0.003c0.081-0.003,0.163-0.005,0.245-0.007
				c0.026,0,0.052-0.001,0.078-0.002C20.784,2.409,20.891,2.408,21,2.408c0.104,0,0.207,0.001,0.309,0.002
				c0.052,0.001,0.103,0.002,0.154,0.003c0.048,0.001,0.097,0.002,0.145,0.003c0.071,0.002,0.142,0.005,0.212,0.008
				c0.026,0.001,0.051,0.002,0.077,0.003c0.086,0.004,0.171,0.008,0.255,0.013c0.008,0,0.016,0.001,0.023,0.001
				c2.521,0.15,4.403,0.776,5.752,1.51c1.489,0.815,2.304,1.755,2.63,2.288c0.051,0.086,0.092,0.165,0.122,0.236
				c0.006,0.013,0.013,0.026,0.019,0.038c0.002,0.006,0.005,0.012,0.007,0.017L26.364,17.726z"/>
			<path fill="#333333" d="M26.37,5.358C25.413,4.886,23.704,4.325,21,4.325c-2.618,0-4.329,0.561-5.303,1.031
				c-0.934,0.451-1.931,1.201-1.931,1.954c0,0.076,0.014,0.151,0.04,0.222l2.908,7.748c0.092,0.246,0.328,0.409,0.59,0.409h1.404
				h4.583h1.404c0.263,0,0.498-0.163,0.59-0.409l2.908-7.748c0.027-0.071,0.04-0.146,0.04-0.222
				C28.234,6.672,27.52,5.924,26.37,5.358z M19.464,14.428c0.249-0.604,0.844-1.03,1.536-1.03c0.693,0,1.288,0.426,1.537,1.03
				H19.464z M24.258,14.428h-0.405c-0.244-1.106-1.116-1.978-2.222-2.222V8.473c0-0.348-0.282-0.631-0.631-0.631
				c-0.348,0-0.631,0.282-0.631,0.631v3.733c-1.106,0.244-1.978,1.116-2.222,2.222h-0.405l-2.669-7.113
				c0.179-0.226,0.727-0.691,1.772-1.082l0.193,0.515c0.095,0.253,0.335,0.41,0.591,0.41c0.074,0,0.148-0.013,0.221-0.04
				c0.326-0.122,0.492-0.486,0.369-0.812l-0.16-0.426c0.648-0.143,1.414-0.247,2.311-0.281v0.563c0,0.348,0.282,0.631,0.631,0.631
				c0.348,0,0.631-0.282,0.631-0.631V5.598c0.9,0.033,1.667,0.134,2.314,0.273l-0.163,0.434c-0.122,0.326,0.043,0.69,0.369,0.812
				c0.073,0.027,0.148,0.04,0.221,0.04c0.255,0,0.496-0.156,0.591-0.409l0.199-0.53c1.064,0.392,1.603,0.862,1.77,1.087
				L24.258,14.428z"/>
		</g>
	</g>
</g>
</svg>
