<?xml version="1.0" encoding="utf-8"?>
<!-- Generator: Adobe Illustrator 17.0.0, SVG Export Plug-In . SVG Version: 6.00 Build 0)  -->
<!DOCTYPE svg PUBLIC "-//W3C//DTD SVG 1.1//EN" "http://www.w3.org/Graphics/SVG/1.1/DTD/svg11.dtd">
<svg version="1.1" id="Layer_1" xmlns="http://www.w3.org/2000/svg" xmlns:xlink="http://www.w3.org/1999/xlink" x="0px" y="0px"
	 width="42px" height="42px" viewBox="0 0 42 42" enable-background="new 0 0 42 42" xml:space="preserve">
<g>
	<g>
		<path fill="#FFFFFF" d="M21.074,19.677c-1.567,0-4.001-0.372-4.549-4.243c-0.265-1.874-0.04-3.277,0.671-4.169
			c0.44-0.553,1.056-0.878,1.781-0.94c0.542-0.008,0.975,0.023,1.344,0.045c1.301,0.078,1.468,0.088,1.807-0.952
			c0.067-0.206,0.259-0.345,0.476-0.345c0.002,0,0.004,0,0.005,0c0.219,0.002,0.41,0.146,0.474,0.355
			c0.042,0.133,0.451,1.27,1.671,1.169c-0.034-0.61-0.063-1.015-0.065-1.029c-0.031-0.391-0.229-1.162-0.542-1.162h-6.333
			c-0.183,0.015-2.083,0.212-2.083,2.25v4.792c-0.036,0.898-0.537,2.582-2.183,2.666c-0.276,0.011-0.511-0.198-0.525-0.474
			c-0.014-0.276,0.198-0.511,0.474-0.525c1.156-0.059,1.233-1.671,1.234-1.687v-4.771c0-2.415,1.996-3.181,3.051-3.249l6.366-0.001
			c1.089,0,1.479,1.312,1.539,2.086c0.017,0.217,0.391,5.298-0.011,7.027c-0.134,0.576-0.786,2.505-3.544,3.125
			c-0.146,0.033-0.303,0.015-0.487,0.021C21.473,19.67,21.281,19.677,21.074,19.677z M19.02,11.322
			c-0.408,0.037-0.773,0.228-1.042,0.565c-0.366,0.46-0.744,1.424-0.463,3.406c0.495,3.493,2.659,3.417,4.094,3.372
			c0.127-0.004,0.245-0.008,0.354-0.009c2.146-0.503,2.637-1.934,2.736-2.364c0.216-0.93,0.176-3.077,0.104-4.696
			c-1.01,0.07-1.721-0.392-2.162-0.931c-0.563,0.812-1.334,0.767-2.379,0.703C19.91,11.346,19.501,11.322,19.02,11.322z"/>
	</g>
	<circle fill="#FFFFFF" cx="19.979" cy="13.822" r="0.542"/>
	<circle fill="#FFFFFF" cx="22.687" cy="13.822" r="0.542"/>
	<g>
		<path fill="#FFFFFF" d="M21.489,17.583c-1.366,0-2.154-0.943-2.189-0.986c-0.175-0.214-0.144-0.529,0.07-0.704
			c0.214-0.175,0.527-0.144,0.702,0.067c0.028,0.033,0.615,0.709,1.609,0.613c0.828-0.089,1.075-0.708,1.078-0.715
			c0.094-0.259,0.382-0.392,0.641-0.299c0.26,0.094,0.394,0.381,0.299,0.641c-0.018,0.049-0.456,1.211-1.916,1.368
			C21.682,17.579,21.584,17.583,21.489,17.583z"/>
	</g>
	<path fill="#FFFFFF" d="M16.682,34.594c0.667,0,1.327-0.179,1.907-0.517l2.417-1.409l-2.63,0.376l-0.291,0.17
		c-0.427,0.249-0.912,0.38-1.403,0.38c-0.341,0-0.666-0.083-0.978-0.201c-0.69,0.024-1.805-0.067-2.356-0.803
		c0.021,0.04,0.032,0.082,0.055,0.121C14.081,33.874,15.337,34.594,16.682,34.594z"/>
	<g>
		<path fill="#FFFFFF" d="M25.896,34.489h-5.083c-0.276,0-0.5-0.224-0.5-0.5s0.224-0.5,0.5-0.5h5.083
			c1.872,0,2.119-1.74,2.129-1.814l-0.004-9.353c0.084-1.191-0.789-1.518-1.021-1.583h-2.485c-0.052,0.063-0.116,0.146-0.168,0.214
			c-0.455,0.591-1.215,1.581-2.562,1.619c-1.896-0.039-3.078-1.291-3.436-1.732c-0.685-0.189-3.611-0.896-5.078,0.403v8.996l0,0
			c0,0,0.051,1.213,0.736,1.84c0.298,0.273,0.676,0.391,1.154,0.369c3.907-0.456,9.029-1.205,9.777-1.315
			c0.163-0.101,0.606-0.42,0.546-0.868c-0.068-0.496-0.107-0.799-3.114-0.445c-2.915,0.34-4.697,0.51-5.006,0.538
			c-0.24,0.065-1.069,0.24-1.74-0.228c-0.479-0.335-0.737-0.895-0.77-1.662V23.03c0-0.276,0.224-0.5,0.5-0.5s0.5,0.224,0.5,0.5
			v5.417c0.018,0.417,0.133,0.714,0.341,0.861c0.293,0.206,0.769,0.127,0.927,0.078c0.033-0.01,0.069-0.018,0.104-0.021
			c0.004,0,1.832-0.167,5.029-0.541c2.936-0.339,4.017-0.197,4.22,1.305c0.137,1.004-0.656,1.687-1.146,1.932
			c-0.047,0.023-0.098,0.04-0.15,0.047c-0.057,0.009-5.682,0.841-9.932,1.336c-0.791,0.032-1.418-0.172-1.919-0.632
			c-0.997-0.917-1.054-2.492-1.056-2.559V21.03c0-0.129,0.05-0.252,0.139-0.346c2.027-2.118,6.211-0.813,6.389-0.755
			c0.104,0.033,0.195,0.101,0.258,0.19c0.01,0.014,1.016,1.417,2.726,1.453c0.847-0.024,1.381-0.72,1.771-1.228
			c0.176-0.229,0.314-0.411,0.481-0.521c0.082-0.055,0.179-0.084,0.277-0.084h2.75c0.034,0,0.069,0.003,0.103,0.011
			c0.696,0.146,1.979,0.88,1.855,2.608l0.001,9.382C28.896,32.732,28.089,34.489,25.896,34.489z"/>
	</g>
	<g>
		<path fill="#FFFFFF" d="M16.396,26.364c-0.264,0-0.535-0.037-0.786-0.098c-0.268-0.065-0.432-0.335-0.367-0.604
			c0.063-0.268,0.332-0.431,0.603-0.369c0.426,0.102,0.866,0.071,0.966-0.004V20.28c0-0.276,0.224-0.5,0.5-0.5s0.5,0.224,0.5,0.5
			v5.125c0,0.048-0.007,0.096-0.021,0.141C17.613,26.152,17.025,26.364,16.396,26.364z"/>
	</g>
	<g>
		<path fill="#FFFFFF" d="M18.812,25.697c-0.276,0-0.5-0.224-0.5-0.5v-4.25c0-0.276,0.224-0.5,0.5-0.5s0.5,0.224,0.5,0.5v4.25
			C19.312,25.473,19.088,25.697,18.812,25.697z"/>
	</g>
	<g>
		<path fill="#FFFFFF" d="M20.396,25.364c-0.144,0-0.287-0.062-0.385-0.181l-1.417-1.709c-0.176-0.213-0.147-0.528,0.066-0.704
			c0.212-0.177,0.528-0.146,0.704,0.065l1.417,1.709c0.176,0.213,0.147,0.528-0.066,0.704
			C20.621,25.326,20.508,25.364,20.396,25.364z"/>
	</g>
	<g>
		<path fill="#FFFFFF" d="M25.396,26.614c-0.276,0-0.5-0.224-0.5-0.5v-3.209c0-0.276,0.224-0.5,0.5-0.5s0.5,0.224,0.5,0.5v3.209
			C25.896,26.39,25.672,26.614,25.396,26.614z"/>
	</g>
	<g>
		<path fill="#FFFFFF" d="M25.646,28.062c-0.102,0-0.204-0.03-0.291-0.095c-0.218-0.16-0.273-0.456-0.121-0.679
			c0.062-0.09,0.651-0.878,2.356-0.925c0.747-0.034,1.078-0.583,1.132-1.043c0.036-0.313-0.054-0.688-0.339-0.769
			c-0.801-0.228-2.178,0.319-2.639,0.55c-0.248,0.124-0.547,0.023-0.671-0.224c-0.123-0.247-0.023-0.548,0.224-0.671
			c0.205-0.103,2.046-0.995,3.36-0.616c0.726,0.207,1.16,0.966,1.058,1.845c-0.107,0.917-0.795,1.868-2.089,1.927
			c-1.191,0.033-1.563,0.485-1.577,0.505C25.948,27.995,25.797,28.062,25.646,28.062z"/>
	</g>
	<path fill="#FFFFFF" d="M25.679,25.556c-0.677-1.161-1.934-1.882-3.278-1.882c-0.668,0-1.328,0.179-1.907,0.517l-4.577,2.668v1.157
		l5.081-2.961c0.427-0.249,0.912-0.38,1.403-0.38c0.99,0,1.916,0.53,2.415,1.386c0.497,0.854,0.483,1.864,0.061,2.684
		c0.031-0.003,0.06-0.006,0.06-0.006s0.526-0.007,0.917,0.273C26.334,27.934,26.316,26.651,25.679,25.556z"/>
</g>
</svg>
