<?xml version="1.0" encoding="utf-8"?>
<!-- Generator: Adobe Illustrator 17.0.0, SVG Export Plug-In . SVG Version: 6.00 Build 0)  -->
<!DOCTYPE svg PUBLIC "-//W3C//DTD SVG 1.1//EN" "http://www.w3.org/Graphics/SVG/1.1/DTD/svg11.dtd">
<svg version="1.1" id="Layer_1" xmlns="http://www.w3.org/2000/svg" xmlns:xlink="http://www.w3.org/1999/xlink" x="0px" y="0px"
	 width="42px" height="42px" viewBox="0 0 42 42" enable-background="new 0 0 42 42" xml:space="preserve">
<g>
	<path fill="#FFFFFF" d="M20.987,36.536c-9.396,0-16.48-6.466-16.48-15.039c0-8.841,7.393-16.033,16.48-16.033
		s16.481,7.192,16.481,16.033C37.468,30.07,30.382,36.536,20.987,36.536z M20.987,6.964c-8.26,0-14.98,6.52-14.98,14.533
		c0,7.719,6.44,13.539,14.98,13.539c8.541,0,14.981-5.82,14.981-13.539C35.968,13.483,29.248,6.964,20.987,6.964z"/>
	<path fill="#FFFFFF" d="M17.342,17.366c-0.174,0-0.35-0.061-0.492-0.185c-2.381-2.074-4.089-0.341-4.276-0.136
		c-0.278,0.304-0.751,0.328-1.058,0.053s-0.334-0.745-0.06-1.053c0.961-1.082,3.532-2.474,6.379,0.005
		c0.312,0.271,0.345,0.745,0.073,1.058C17.76,17.279,17.552,17.366,17.342,17.366z"/>
	<path fill="#FFFFFF" d="M24.624,17.366c-0.209,0-0.418-0.087-0.566-0.258c-0.272-0.313-0.239-0.786,0.073-1.058
		c2.847-2.479,5.417-1.087,6.379-0.005c0.275,0.31,0.248,0.783-0.062,1.059c-0.31,0.274-0.781,0.246-1.056-0.059
		c-0.188-0.206-1.894-1.936-4.276,0.136C24.974,17.306,24.798,17.366,24.624,17.366z"/>
	<path fill="#FFFFFF" d="M29.675,24.532c-0.18,0-0.358-0.031-0.53-0.094c-1.481-0.535-1.218-2.373-1.106-3.157
		c0.131-0.919-0.274-1.966-0.278-1.977c-0.094-0.234-0.014-0.502,0.192-0.647c0.207-0.145,0.485-0.13,0.674,0.038
		c0.222,0.196,2.182,1.948,2.606,2.975c0.299,0.723,0.242,1.478-0.155,2.072C30.748,24.236,30.223,24.532,29.675,24.532z"/>
	<path fill="#FFFFFF" d="M9.824,23.742c-0.397-0.595-0.454-1.349-0.155-2.072c0.425-1.027,2.385-2.779,2.606-2.975
		c0.189-0.168,0.468-0.183,0.674-0.038c0.206,0.145,0.285,0.413,0.192,0.647c-0.004,0.011-0.409,1.058-0.278,1.977
		c0.112,0.784,0.375,2.622-1.106,3.157c-0.172,0.062-0.35,0.094-0.53,0.094C10.68,24.532,10.155,24.236,9.824,23.742z"/>
	<path fill="#FFFFFF" d="M17.682,11.967c-0.565-0.43-1.011-1.111-1.185-1.874c-0.236-1.026,0.023-2.054,0.729-2.896
		c1.086-1.297,2.398-1.446,3.083-1.42c0.335,0.011,0.594,0.294,0.583,0.628c-0.013,0.335-0.295,0.596-0.629,0.582
		c-0.463-0.018-1.354,0.088-2.109,0.988c-0.456,0.543-0.625,1.199-0.477,1.846c0.141,0.614,0.546,1.139,1.058,1.367
		c0.094,0.05,1.061,0.58,1.962-0.078c0.481-0.35,0.584-0.749,0.586-1.023c0.003-0.381-0.175-0.66-0.289-0.746
		c-0.002-0.001-0.002-0.002-0.003-0.002c-0.265-0.202-0.318-0.581-0.117-0.847c0.201-0.267,0.581-0.32,0.848-0.119
		c0.002,0.001,0.003,0.003,0.005,0.004c0.472,0.359,0.773,1.033,0.767,1.721c-0.006,0.78-0.391,1.488-1.084,1.993
		c-1.55,1.131-3.162,0.214-3.229,0.175C18.008,12.189,17.841,12.088,17.682,11.967z"/>
	<path fill="#FFFFFF" d="M14.819,31.215c-0.096,0-0.192-0.019-0.285-0.056c-0.281-0.116-0.465-0.39-0.465-0.693
		c0-4.371,2.974-7.935,6.651-8.002c0.043-0.008,0.086-0.013,0.126-0.013c3.675,0,6.674,3.493,6.755,7.823
		c0.014,0.058,0.021,0.118,0.021,0.18c0,0.429-0.376,0.79-0.793,0.749c-0.189-0.006-0.373-0.083-0.511-0.223
		c-0.022-0.022-2.22-2.206-5.371-2.206v-0.002c-0.05,0.01-0.089,0.024-0.14,0.015h-0.001c-3.233,0-5.431,2.183-5.453,2.205
		C15.21,31.138,15.016,31.215,14.819,31.215z M20.941,23.952c-0.039,0.007-0.078,0.011-0.115,0.011
		c-2.434,0-4.486,2.057-5.082,4.839c1.131-0.721,2.859-1.516,4.98-1.516c0.001,0,0.007,0,0.017,0.001
		c0.038-0.007,0.076-0.012,0.106-0.012c0.003,0,0.098-0.001,0.101-0.001c2.122,0,3.85,0.795,4.98,1.516
		C25.341,26.044,23.334,24.005,20.941,23.952z"/>
	<path fill="#FFFFFF" d="M36.777,23.91c-0.402,0-0.735-0.319-0.749-0.725c-0.014-0.414,0.31-0.761,0.724-0.775
		c1-0.033,1.785-0.874,1.751-1.874c-0.017-0.484-0.22-0.934-0.575-1.265c-0.354-0.331-0.822-0.511-1.299-0.486
		c-0.412-0.017-0.761-0.311-0.775-0.725c-0.014-0.413,0.31-0.761,0.724-0.775c0.879-0.018,1.728,0.286,2.375,0.891
		c0.646,0.604,1.02,1.425,1.049,2.31c0.062,1.826-1.374,3.362-3.2,3.425C36.794,23.91,36.786,23.91,36.777,23.91z"/>
	<path fill="#FFFFFF" d="M5.223,23.874c-0.009,0-0.017,0-0.026,0c-0.885-0.03-1.705-0.403-2.31-1.05
		c-0.604-0.647-0.92-1.49-0.89-2.375s0.403-1.705,1.049-2.31c0.647-0.604,1.499-0.905,2.375-0.891
		c0.414,0.015,0.738,0.362,0.724,0.775c-0.014,0.414-0.349,0.749-0.775,0.725c-0.491-0.022-0.945,0.156-1.299,0.486
		c-0.354,0.331-0.558,0.78-0.575,1.265s0.157,0.946,0.487,1.3c0.331,0.354,0.78,0.559,1.264,0.574
		c0.414,0.015,0.738,0.361,0.724,0.775C5.959,23.555,5.626,23.874,5.223,23.874z"/>
</g>
</svg>
