<?xml version="1.0" encoding="utf-8"?>
<!-- Generator: Adobe Illustrator 17.0.0, SVG Export Plug-In . SVG Version: 6.00 Build 0)  -->
<!DOCTYPE svg PUBLIC "-//W3C//DTD SVG 1.1//EN" "http://www.w3.org/Graphics/SVG/1.1/DTD/svg11.dtd">
<svg version="1.1" id="Layer_1" xmlns="http://www.w3.org/2000/svg" xmlns:xlink="http://www.w3.org/1999/xlink" x="0px" y="0px"
	 width="42px" height="42px" viewBox="0 0 42 42" enable-background="new 0 0 42 42" xml:space="preserve">
<g>
	<g>
		<g>
			<g>
				<path fill="#FFFFFF" d="M30.67,2.594c-0.172,0.172-0.258,0.398-0.258,0.624s0.086,0.452,0.258,0.624l1.56,1.56l-3.12,3.12
					L25.179,4.59c-0.345-0.345-0.903-0.345-1.248,0c-0.172,0.172-0.258,0.398-0.258,0.624c0,0.226,0.086,0.452,0.258,0.624
					l1.747,1.747L9.454,23.81c-0.172,0.172-0.258,0.398-0.258,0.624s0.086,0.452,0.258,0.624l1.872,1.872l-3.432,3.432
					c-0.172,0.172-0.258,0.398-0.258,0.624s0.086,0.452,0.258,0.624l0.624,0.624l-7.924,7.924c-0.172,0.172-0.258,0.398-0.258,0.624
					s0.086,0.452,0.258,0.624c0.345,0.345,0.903,0.345,1.248,0l7.924-7.924l0.624,0.624c0.345,0.345,0.903,0.345,1.248,0
					l3.432-3.432l1.872,1.872c0.165,0.165,0.39,0.258,0.624,0.258s0.459-0.093,0.624-0.258l16.225-16.225l1.747,1.747
					c0.345,0.345,0.903,0.345,1.248,0s0.345-0.903,0-1.248l-3.931-3.931l3.12-3.12l1.56,1.56c0.345,0.345,0.903,0.345,1.248,0
					s0.345-0.903,0-1.248l-7.488-7.488C31.574,2.249,31.015,2.249,30.67,2.594z M12.574,28.178l1.248,1.248l-2.808,2.808
					l-1.248-1.248L12.574,28.178z M26.926,8.833l6.24,6.24l-15.6,15.601l-6.24-6.24l1.56-1.56l2.205,2.205
					c0.345,0.345,0.903,0.345,1.248,0s0.345-0.903,0-1.248l-2.205-2.205l1.56-1.56l3.746,3.746c0.345,0.345,0.903,0.345,1.248,0
					s0.345-0.903,0-1.248l-3.746-3.746l1.56-1.56l2.205,2.205c0.345,0.345,0.903,0.345,1.248,0s0.345-0.903,0-1.248L19.75,16.01
					l1.56-1.56l3.705,3.705c0.345,0.345,0.903,0.345,1.248,0s0.345-0.903,0-1.248l-3.705-3.705l1.56-1.56l2.205,2.205
					c0.345,0.345,0.903,0.345,1.248,0s0.345-0.903,0-1.248l-2.205-2.205L26.926,8.833z M33.478,6.65l1.872,1.872l-3.12,3.12
					L30.358,9.77L33.478,6.65z"/>
			</g>
		</g>
	</g>
	<path fill="#FFFFFF" d="M27.571,12.599l-2.205-2.205L14.312,21.448l1.382-1.382l3.746,3.746c0.345,0.345,0.903,0.345,1.248,0
		s0.345-0.903,0-1.248l-3.746-3.746l1.56-1.56l2.205,2.205c0.345,0.345,0.903,0.345,1.248,0s0.345-0.903,0-1.248L19.75,16.01
		l1.56-1.56l3.705,3.705c0.345,0.345,0.903,0.345,1.248,0s0.345-0.903,0-1.248l-3.705-3.705l1.56-1.56l2.205,2.205
		c0.345,0.345,0.903,0.345,1.248,0C27.916,13.502,27.916,12.943,27.571,12.599z M14.134,21.626l-1.248,1.248l2.205,2.205
		c0.345,0.345,0.904,0.345,1.248,0c0.344-0.345,0.345-0.903,0-1.248L14.134,21.626z"/>
</g>
</svg>
