<?xml version="1.0" encoding="utf-8"?>
<!-- Generator: Adobe Illustrator 17.0.0, SVG Export Plug-In . SVG Version: 6.00 Build 0)  -->
<!DOCTYPE svg PUBLIC "-//W3C//DTD SVG 1.1//EN" "http://www.w3.org/Graphics/SVG/1.1/DTD/svg11.dtd">
<svg version="1.1" id="Layer_1" xmlns="http://www.w3.org/2000/svg" xmlns:xlink="http://www.w3.org/1999/xlink" x="0px" y="0px"
	 width="42px" height="42px" viewBox="0 0 42 42" enable-background="new 0 0 42 42" xml:space="preserve">
<g>
	<g>
		<path fill="#FFFFFF" d="M28.833,22.375H13.125v-2.792h15.708V22.375z M14.125,21.375h13.708v-0.792H14.125V21.375z"/>
	</g>
	<g>
		
			<rect x="10.969" y="20.281" transform="matrix(-0.7039 -0.7103 0.7103 -0.7039 20.647 50.169)" fill="#FFFFFF" width="19.622" height="1"/>
	</g>
	<g>
		<path fill="#FFFFFF" d="M21,32.973c-6.74,0-12.223-5.483-12.223-12.223S14.26,8.527,21,8.527c6.739,0,12.223,5.483,12.223,12.223
			C33.223,27.489,27.739,32.973,21,32.973z M21,9.527c-6.188,0-11.223,5.035-11.223,11.223S14.812,31.973,21,31.973
			s11.223-5.034,11.223-11.223S27.188,9.527,21,9.527z"/>
	</g>
	<g>
		<path fill="#FFFFFF" d="M21,31.056c-5.683,0-10.306-4.623-10.306-10.306S15.317,10.444,21,10.444s10.306,4.623,10.306,10.306
			S26.683,31.056,21,31.056z M21,11.444c-5.131,0-9.306,4.174-9.306,9.306c0,5.131,4.174,9.306,9.306,9.306
			c5.131,0,9.306-4.175,9.306-9.306S26.131,11.444,21,11.444z"/>
	</g>
	<g>
		<rect x="16.625" y="20" fill="#FFFFFF" width="1" height="1.833"/>
	</g>
	<g>
		<path fill="#FFFFFF" d="M25.749,19.167c-0.257,0-0.475-0.197-0.497-0.458c-0.184-2.153,0.958-3.413,1.006-3.465
			c0.188-0.203,0.505-0.213,0.707-0.027c0.202,0.187,0.215,0.501,0.029,0.705c-0.04,0.043-0.891,1.011-0.746,2.703
			c0.023,0.275-0.181,0.517-0.455,0.541C25.778,19.166,25.764,19.167,25.749,19.167z"/>
	</g>
	<g>
		<path fill="#FFFFFF" d="M28.023,20.402c-0.197-0.214-1.907-2.123-0.954-3.3c0.608-0.751,1.029-1.996-0.288-3.68l0.904-0.313
			c1.721,2.198,0.916,3.691,0.161,4.623c-0.28,0.346,0.436,1.258,0.986,1.852L28.023,20.402z"/>
	</g>
</g>
</svg>
