<?xml version="1.0" encoding="utf-8"?>
<!-- Generator: Adobe Illustrator 17.0.0, SVG Export Plug-In . SVG Version: 6.00 Build 0)  -->
<!DOCTYPE svg PUBLIC "-//W3C//DTD SVG 1.1//EN" "http://www.w3.org/Graphics/SVG/1.1/DTD/svg11.dtd">
<svg version="1.1" id="Capa_1" xmlns="http://www.w3.org/2000/svg" xmlns:xlink="http://www.w3.org/1999/xlink" x="0px" y="0px"
	 width="42px" height="42px" viewBox="0 0 42 42" enable-background="new 0 0 42 42" xml:space="preserve">
<g>
	<g>
		<rect x="14.255" y="15.976" fill="#FFFFFF" width="1.418" height="1.418"/>
		<rect x="18.231" y="15.976" fill="#FFFFFF" width="1.418" height="1.418"/>
		<rect x="22.182" y="15.976" fill="#FFFFFF" width="1.418" height="1.418"/>
		<rect x="26.182" y="15.976" fill="#FFFFFF" width="1.418" height="1.418"/>
	</g>
	<g>
		<rect x="14.255" y="23.927" fill="#FFFFFF" width="1.418" height="1.418"/>
		<rect x="10.255" y="23.927" fill="#FFFFFF" width="1.418" height="1.418"/>
		<rect x="6.207" y="23.927" fill="#FFFFFF" width="1.418" height="1.418"/>
		<rect x="18.231" y="23.927" fill="#FFFFFF" width="1.418" height="1.418"/>
		<rect x="22.182" y="23.927" fill="#FFFFFF" width="1.418" height="1.418"/>
	</g>
	<path fill="#FFFFFF" d="M3.401,30.461V9.128h4.364V7.964H2.237v23.66h23.216c-0.235-0.369-0.445-0.755-0.616-1.163H3.401z
		 M25.946,7.964v1.164h4.509v10.723c0.378-0.076,0.768-0.116,1.163-0.135V7.964H25.946z M11.401,6.776h-1.164v3.709h1.164V6.776z
		 M23.401,6.776h-1.164v3.709h1.164V6.776z M19.692,7.867h-5.77v1.164h5.77V7.867z"/>
	<path fill="#FFFFFF" d="M10.255,21.321h1.418v-1.418h-1.418V21.321z M6.207,21.321h1.418v-1.418H6.207V21.321z M26.182,19.903
		v1.418h1.076c0.112-0.087,0.224-0.175,0.342-0.256v-1.162H26.182z M18.231,21.321h1.418v-1.418h-1.418V21.321z M22.182,21.321H23.6
		v-1.418h-1.418V21.321z M14.255,21.321h1.418v-1.418h-1.418V21.321z"/>
	<path fill="#FFFFFF" d="M35.782,27.072c-0.537,0-1.035,0.335-1.277,0.811c-0.062,0.101-0.101,0.234-0.101,0.395
		c0.021,1.087,0.517,1.887,1.451,1.887c0.77,0,1.287-0.639,1.287-1.582S36.605,27.072,35.782,27.072z M27.526,25.986l-1.612,2.242
		v0.021l2.16-0.001v-2.2c0-0.346,0.01-0.69,0.03-1.035h-0.03C27.87,25.399,27.709,25.683,27.526,25.986z M31.999,19.696
		c-4.288,0-7.764,3.476-7.764,7.764c0,4.288,3.476,7.764,7.764,7.764c4.288,0,7.764-3.476,7.764-7.764
		C39.763,23.172,36.287,19.696,31.999,19.696z M29.838,28.952h-0.926v1.794h-0.838V28.95H25.01v-0.588l2.942-4.209h0.962v4.099
		h0.924V28.952z M32.871,28.329h-2.506V27.67h2.506V28.329z M35.851,30.854c-1.411,0-2.334-1.095-2.334-2.809
		c0-1.299,0.468-2.324,1.117-2.974c0.547-0.537,1.277-0.872,2.11-0.973c0.264-0.041,0.487-0.051,0.649-0.051v0.731
		c0.001,0,0.002,0,0.002,0c-0.182-0.01-0.416,0-0.67,0.04c-1.4,0.234-2.141,1.259-2.293,2.343h0.03
		c0.313-0.416,0.861-0.761,1.593-0.761c1.166,0,1.988,0.842,1.988,2.13C38.043,29.737,37.221,30.854,35.851,30.854z"/>
</g>
</svg>
