<?xml version="1.0" encoding="utf-8"?>
<!-- Generator: Adobe Illustrator 17.0.0, SVG Export Plug-In . SVG Version: 6.00 Build 0)  -->
<!DOCTYPE svg PUBLIC "-//W3C//DTD SVG 1.1//EN" "http://www.w3.org/Graphics/SVG/1.1/DTD/svg11.dtd">
<svg version="1.1" id="Layer_1" xmlns="http://www.w3.org/2000/svg" xmlns:xlink="http://www.w3.org/1999/xlink" x="0px" y="0px"
	 width="42px" height="42px" viewBox="0 0 42 42" enable-background="new 0 0 42 42" xml:space="preserve">
<g>
	<g>
		<g>
			<path fill="#FFFFFF" d="M20.999,0.281c-7.617,0-13.813,6.196-13.812,13.861l0.872,15.623l0.152,0.984
				c0.976,6.357,6.355,10.971,12.788,10.971s11.812-4.614,12.788-10.971l0.16-1.067l0.865-15.587
				C34.813,6.478,28.616,0.281,20.999,0.281z M21,39.992c-5.574,0-10.235-3.998-11.081-9.507l-0.143-0.9L9.117,17.751
				c1.732,2.181,4.607,5.554,8.151,8.769c4.258,3.863,10.373,8.003,12.427,9.361C27.634,38.416,24.498,39.992,21,39.992z
				 M32.233,29.501l-0.152,0.984c-0.222,1.445-0.719,2.777-1.413,3.969c-1.77-1.17-6.742-4.531-10.774-7.937
				c1.769-0.767,5.043-2.225,7.114-3.383c1.603-0.897,4.178-2.668,5.787-3.798L32.233,29.501z M32.917,17.133
				c-1.082,0.773-4.772,3.387-6.752,4.494c-2.324,1.301-6.379,3.06-7.716,3.633c-0.006-0.006-0.013-0.012-0.02-0.018
				c-4.9-4.446-8.591-9.341-9.482-10.559l-0.033-0.589C8.914,7.429,14.336,2.008,21,2.008S33.086,7.43,33.088,14.046L32.917,17.133z
				"/>
			<path fill="#FFFFFF" d="M21.468,3.773c-0.033-0.008-0.067-0.004-0.1-0.008c-0.123-0.006-0.243-0.03-0.367-0.03
				c-3.531,0-6.711,2.339-7.896,5.745c-0.943,0.365-1.6,1.285-1.6,2.334c0,0.921,0.489,1.738,1.263,2.175
				C13.519,18.019,16.975,21,21,21s7.481-2.981,8.233-7.012c0.774-0.438,1.263-1.254,1.263-2.175c0-1.049-0.658-1.969-1.6-2.334
				C27.764,6.226,24.807,3.971,21.468,3.773z M28.21,12.558c-0.329,0.097-0.568,0.379-0.612,0.717
				c-0.44,3.419-3.278,5.998-6.598,5.998s-6.158-2.579-6.598-5.998c-0.044-0.339-0.283-0.621-0.612-0.717
				c-0.278-0.083-0.56-0.345-0.56-0.745c0-0.393,0.282-0.716,0.669-0.767c0.341-0.046,0.622-0.288,0.715-0.619
				c0.643-2.255,2.278-3.942,4.329-4.627c-0.135,0.257-0.253,0.526-0.36,0.814c-0.277,0.746-0.223,1.56,0.148,2.294
				c0.403,0.792,1.125,1.387,1.983,1.63c0.243,0.069,0.491,0.104,0.735,0.104c0.449,0,0.894-0.115,1.295-0.339
				c0.624-0.347,1.076-0.917,1.271-1.605c0.346-1.226-0.368-2.506-1.592-2.854c-0.467-0.135-0.937,0.137-1.067,0.594
				c-0.13,0.459,0.137,0.937,0.595,1.066c0.31,0.088,0.489,0.412,0.401,0.722c-0.069,0.244-0.228,0.445-0.449,0.568
				c-0.221,0.123-0.477,0.152-0.718,0.083c-0.39-0.111-0.732-0.392-0.914-0.751c-0.108-0.212-0.207-0.542-0.071-0.913
				c0.23-0.622,0.505-1.153,1.298-1.71c2.755,0.212,5.087,2.123,5.885,4.924c0.093,0.33,0.374,0.573,0.715,0.619
				c0.388,0.051,0.669,0.374,0.669,0.767C28.77,12.213,28.488,12.475,28.21,12.558z"/>
			<circle fill="#FFFFFF" cx="18.41" cy="13.23" r="0.863"/>
			<circle fill="#FFFFFF" cx="23.59" cy="13.23" r="0.863"/>
			<path fill="#FFFFFF" d="M19.273,16.326c0,0.674,0.773,1.221,1.727,1.221s1.727-0.547,1.727-1.221S19.273,15.652,19.273,16.326z"
				/>
		</g>
	</g>
</g>
</svg>
