<?xml version="1.0" encoding="utf-8"?>
<!-- Generator: Adobe Illustrator 17.0.0, SVG Export Plug-In . SVG Version: 6.00 Build 0)  -->
<!DOCTYPE svg PUBLIC "-//W3C//DTD SVG 1.1//EN" "http://www.w3.org/Graphics/SVG/1.1/DTD/svg11.dtd">
<svg version="1.1" id="Layer_1" xmlns="http://www.w3.org/2000/svg" xmlns:xlink="http://www.w3.org/1999/xlink" x="0px" y="0px"
	 width="20px" height="20px" viewBox="0 0 42 42" enable-background="new 0 0 42 42" xml:space="preserve">
<g>
	<circle fill="#F38512" cx="21" cy="21" r="14.5"/>
	<g>
		<path fill="#FFFFFF" d="M22.426,16.348c0.42,0,0.6,0.27,0.48,0.81c-0.299,1.381-0.901,4.112-1.35,6.303
			c-0.361,1.921-0.901,4.382-1.111,5.403c-0.06,0.361,0.031,0.54,0.33,0.54c0.33,0,0.781-0.06,1.231-0.21
			c0.121-0.029,0.21,0.121,0.21,0.241c0,0.029-0.029,0.06-0.06,0.06c-0.781,0.48-2.191,0.721-3.152,0.721
			c-0.42,0-0.54-0.21-0.54-0.451c0-0.12,0.029-0.361,0.06-0.51c0.09-0.69,0.6-3.633,0.991-5.913c0.42-2.432,0.75-4.503,0.899-5.433
			c0.061-0.451-0.06-0.6-0.299-0.6c-0.241,0-0.69,0.12-1.08,0.27c-0.15,0.029-0.301-0.15-0.301-0.27c0-0.061,0.031-0.061,0.09-0.09
			c0.69-0.39,2.371-0.87,3.572-0.87H22.426z M22.426,11.785c0.841,0,1.111,0.66,1.111,1.111c0,0.72-0.571,1.47-1.471,1.47
			c-0.569,0-1.14-0.419-1.14-1.08c0-0.69,0.54-1.501,1.471-1.501H22.426z"/>
	</g>
</g>
</svg>
