<?xml version="1.0" encoding="utf-8"?>
<!-- Generator: Adobe Illustrator 17.0.0, SVG Export Plug-In . SVG Version: 6.00 Build 0)  -->
<!DOCTYPE svg PUBLIC "-//W3C//DTD SVG 1.1//EN" "http://www.w3.org/Graphics/SVG/1.1/DTD/svg11.dtd">
<svg version="1.1" id="Layer_1" xmlns="http://www.w3.org/2000/svg" xmlns:xlink="http://www.w3.org/1999/xlink" x="0px" y="0px"
	 width="42px" height="42px" viewBox="0 0 42 42" enable-background="new 0 0 42 42" xml:space="preserve">
<g>
	<path fill="#FFFFFF" d="M33.36,32.965h-0.918V19.094h0.22c0.283,0,0.555-0.121,0.744-0.332c0.19-0.211,0.281-0.495,0.25-0.775
		c-0.006-0.058-0.692-5.771-6.82-7.336c-0.866-0.19-1.62-0.558-2.131-0.937c0.698-0.313,1.186-1.014,1.186-1.827V4.012
		c0-1.103-0.897-2-2-2h-6.188c-1.103,0-2,0.897-2,2v3.875c0,0.797,0.469,1.487,1.146,1.808c-0.515,0.386-1.289,0.766-2.187,0.963
		c-6.095,1.557-6.781,7.271-6.787,7.329c-0.03,0.281,0.061,0.563,0.25,0.775c0.189,0.211,0.461,0.332,0.744,0.332h0.22v13.871H8.639
		c-0.551,0-1,0.448-1,1c0,2.785,2.219,6.023,5.08,6.023h16.561c2.861,0,5.08-3.238,5.08-6.023
		C34.36,33.413,33.911,32.965,33.36,32.965z M29.279,37.988h-16.56c-1.31,0-2.545-1.569-2.938-3.023h22.438
		C31.824,36.419,30.589,37.988,29.279,37.988z M17.702,7.887V4.012h6.187v3.875H17.702z M19.262,9.942h3.006
		c0.667,1.35,2.544,2.312,4.105,2.653c3.268,0.835,4.538,3.104,5.019,4.499c-0.528,0.026-0.95,0.464-0.95,0.999v14.862H11.088
		V18.094c0-0.532-0.417-0.968-0.941-0.999c0.492-1.4,1.769-3.672,4.975-4.492C16.707,12.257,18.594,11.292,19.262,9.942z"/>
	<path fill="#FFFFFF" d="M33.36,33.465h-1.418V18.594h0.72c0.142,0,0.277-0.061,0.372-0.166s0.141-0.247,0.125-0.388
		c-0.006-0.054-0.652-5.426-6.431-6.901c-1.454-0.318-2.631-1.098-3.04-1.752h0.202c0.827,0,1.5-0.673,1.5-1.5V4.012
		c0-0.827-0.673-1.5-1.5-1.5h-6.188c-0.827,0-1.5,0.673-1.5,1.5v3.875c0,0.827,0.673,1.5,1.5,1.5h0.14
		c-0.409,0.654-1.589,1.434-3.058,1.756c-5.76,1.472-6.408,6.843-6.414,6.897c-0.015,0.141,0.03,0.282,0.125,0.388
		c0.095,0.105,0.23,0.166,0.372,0.166h0.72v14.871H8.639c-0.276,0-0.5,0.225-0.5,0.5c0,2.502,2.043,5.523,4.58,5.523h16.561
		c2.537,0,4.58-3.021,4.58-5.523C33.86,33.689,33.635,33.465,33.36,33.465z M17.202,7.887V4.012c0-0.276,0.224-0.5,0.5-0.5h6.188
		c0.275,0,0.5,0.224,0.5,0.5v3.875c0,0.276-0.225,0.5-0.5,0.5h-6.188C17.427,8.387,17.202,8.162,17.202,7.887z M9.475,17.594
		c0.322-1.288,1.511-4.449,5.54-5.479c1.732-0.379,3.517-1.439,3.912-2.673h3.676c0.396,1.233,2.178,2.293,3.895,2.669
		c4.083,1.043,5.25,4.191,5.562,5.482h-0.617c-0.276,0-0.5,0.224-0.5,0.5v15.362H10.588V18.094c0-0.276-0.224-0.5-0.5-0.5H9.475z
		 M32.701,35.095c-0.451,1.668-1.854,3.393-3.421,3.393h-16.56c-1.567,0-2.97-1.726-3.421-3.393l-0.171-0.63h23.744L32.701,35.095z"
		/>
	<g>
		<g>
			<g>
				<path fill="#FFFFFF" d="M25.649,21.017c-0.205-0.128-0.46-0.137-0.675-0.03l-2.774,1.387c-0.235,0.118-0.383,0.358-0.383,0.62
					c0,1.147,0.933,2.081,2.081,2.081s2.081-0.933,2.081-2.081v-1.387C25.978,21.367,25.853,21.144,25.649,21.017z M24.591,22.994
					c0,0.383-0.311,0.694-0.694,0.694c-0.245,0-0.461-0.127-0.584-0.32l1.277-0.639L24.591,22.994L24.591,22.994z"/>
			</g>
		</g>
		<g>
			<g>
				<path fill="#FFFFFF" d="M20.046,22.374l-2.774-1.387c-0.215-0.106-0.47-0.096-0.675,0.03s-0.329,0.349-0.329,0.59v1.387
					c0,1.147,0.933,2.081,2.081,2.081s2.081-0.933,2.081-2.081C20.431,22.731,20.281,22.492,20.046,22.374z M18.349,23.688
					c-0.383,0-0.694-0.311-0.694-0.694v-0.265l1.277,0.639C18.81,23.56,18.594,23.688,18.349,23.688z"/>
			</g>
		</g>
		<g>
			<g>
				<path fill="#FFFFFF" d="M14.289,19.522c-0.437,0.856-0.71,1.797-0.784,2.779l0.011,1.387c0.155,1.061,0.652,2.035,1.406,2.774
					l1.346,1.387v0.694c0,1.147,0.933,2.127,2.081,2.127c1.383,0,2.158,0,2.569,0c0.311,0,0.413,0,0.41,0c0.41,0,1.185,0,2.569,0
					c1.147,0,2.081-0.98,2.081-2.127v-0.694l1.293-1.387c0.503-0.488,0.911-1.073,1.167-1.746c0.126-0.332,0.248-0.678,0.299-1.028
					l0.024-1.387c-0.088-0.978-0.409-1.916-0.848-2.774L27,18.14c-1.523-1.838-3.672-2.816-5.875-2.819
					c-2.352-0.003-4.506,1.069-5.947,2.819L14.289,19.522z M27.141,24.224c-0.363,0.956-1.124,1.697-2.086,2.036
					c-0.278,0.098-0.464,0.36-0.464,0.654v1.628c0,0.383-0.311,0.74-0.694,0.74h-0.694v-2.127c0-0.383-0.311-0.694-0.694-0.694
					s-0.694,0.311-0.694,0.694v2.127h-1.387v-2.127c0-0.383-0.311-0.694-0.694-0.694s-0.694,0.311-0.694,0.694v2.127h-0.694
					c-0.383,0-0.694-0.357-0.694-0.74v-1.63c-0.003-0.292-0.188-0.551-0.463-0.647c-1.458-0.517-2.45-1.957-2.343-3.534
					c0.074-3.15,2.717-6.022,6.258-6.022c3.473,0,6.257,2.839,6.257,6.285C27.365,23.418,27.29,23.831,27.141,24.224z"/>
			</g>
		</g>
	</g>
</g>
</svg>
