<?xml version="1.0" encoding="utf-8"?>
<!-- Generator: Adobe Illustrator 17.0.0, SVG Export Plug-In . SVG Version: 6.00 Build 0)  -->
<!DOCTYPE svg PUBLIC "-//W3C//DTD SVG 1.1//EN" "http://www.w3.org/Graphics/SVG/1.1/DTD/svg11.dtd">
<svg version="1.1" id="Capa_1" xmlns="http://www.w3.org/2000/svg" xmlns:xlink="http://www.w3.org/1999/xlink" x="0px" y="0px"
	 width="42px" height="42px" viewBox="0 0 42 42" enable-background="new 0 0 42 42" xml:space="preserve">
<g>
	<polygon points="39.856,33.011 21,8.989 2.144,33.011 	"/>
	<g>
		<path fill="#FFFFFF" d="M17.811,17.561c0.811-0.738,1.878-1.107,3.199-1.107c1.322,0,2.382,0.369,3.179,1.107
			c0.798,0.738,1.197,1.794,1.197,3.169s-0.399,2.381-1.197,3.018c-0.798,0.637-2.001,0.962-3.611,0.976v2.655h-1.731v-3.964h0.805
			c1.355,0.014,2.36-0.171,3.018-0.553c0.657-0.382,0.985-1.136,0.985-2.263c0-0.818-0.235-1.456-0.704-1.912
			c-0.47-0.456-1.12-0.684-1.952-0.684c-0.832,0-1.486,0.218-1.962,0.654c-0.476,0.436-0.714,1.056-0.714,1.861h-1.71
			C16.6,19.285,16.999,18.299,17.811,17.561z M19.763,31.545c-0.329,0-0.607-0.114-0.835-0.343
			c-0.228-0.227-0.342-0.506-0.342-0.834s0.114-0.607,0.342-0.835c0.228-0.227,0.506-0.342,0.835-0.342
			c0.328,0,0.607,0.114,0.835,0.342c0.228,0.228,0.342,0.507,0.342,0.835s-0.114,0.607-0.342,0.834
			C20.37,31.431,20.091,31.545,19.763,31.545z"/>
	</g>
</g>
</svg>
