<?xml version="1.0" encoding="utf-8"?>
<!-- Generator: Adobe Illustrator 17.0.0, SVG Export Plug-In . SVG Version: 6.00 Build 0)  -->
<!DOCTYPE svg PUBLIC "-//W3C//DTD SVG 1.1//EN" "http://www.w3.org/Graphics/SVG/1.1/DTD/svg11.dtd">
<svg version="1.1" id="Layer_1" xmlns="http://www.w3.org/2000/svg" xmlns:xlink="http://www.w3.org/1999/xlink" x="0px" y="0px"
	 width="42px" height="42px" viewBox="0 0 42 42" enable-background="new 0 0 42 42" xml:space="preserve">
<g>
	<g>
		<g>
			<path fill="#333333" d="M36.386,18.629c-1.249-4.862-4.751-8.903-9.476-10.791C26.093,5.289,23.693,3.526,21,3.526
				c-2.762,0-5.108,1.815-5.909,4.314c-2.846,1.14-5.283,3.063-7.066,5.582c-1.126,1.592-1.938,3.351-2.414,5.207
				c-2.051,0.153-3.673,1.87-3.673,3.959c0,2.091,1.624,3.808,3.677,3.959C7.378,33.398,13.607,38.474,21,38.474
				c7.393,0,13.622-5.076,15.386-11.926c2.053-0.151,3.677-1.869,3.677-3.959C40.063,20.498,38.439,18.781,36.386,18.629z
				 M3.526,22.588c0-1.096,0.744-2.022,1.754-2.298c-0.068,0.473-0.116,0.95-0.141,1.431c0,0.007-0.001,0.013-0.001,0.02
				c-0.005,0.088-0.009,0.175-0.012,0.263c-0.001,0.033-0.002,0.067-0.003,0.1c-0.002,0.063-0.004,0.126-0.005,0.189
				c-0.002,0.099-0.003,0.197-0.003,0.296c0,0.12,0.002,0.24,0.005,0.361c0.001,0.038,0.002,0.075,0.003,0.113
				c0.003,0.087,0.006,0.175,0.01,0.262c0.002,0.037,0.003,0.074,0.005,0.111c0.006,0.109,0.013,0.218,0.021,0.327
				c0.004,0.051,0.008,0.102,0.012,0.153c0.005,0.065,0.011,0.129,0.017,0.194c0.005,0.057,0.011,0.114,0.017,0.171
				c0.007,0.066,0.015,0.133,0.023,0.199c0.01,0.087,0.021,0.173,0.033,0.26c0.007,0.049,0.013,0.099,0.02,0.148
				C4.271,24.611,3.526,23.685,3.526,22.588z M21,5.115c1.573,0,3.012,0.808,3.852,2.073c-0.016,0-0.032,0-0.048,0
				c-0.01,0-0.02,0.001-0.031,0.001c-0.004,0-0.008,0-0.012,0c-2.473,0.023-4.478,2.041-4.478,4.519
				c0,0.964,0.303,1.881,0.847,2.638c-0.044,0.001-0.088,0.002-0.131,0.002c-2.545,0-4.616-2.071-4.616-4.616
				C16.384,7.185,18.455,5.115,21,5.115z M15.637,12.845c1.076,1.846,3.077,3.091,5.364,3.091c0.701,0,1.39-0.117,2.048-0.346
				c0.286-0.1,0.491-0.355,0.527-0.656c0.036-0.301-0.103-0.597-0.358-0.761c-0.842-0.544-1.344-1.465-1.344-2.465
				c0-1.584,1.263-2.878,2.834-2.929c5.276,1.412,9.2,5.678,10.287,10.877c0.018,0.086,0.035,0.172,0.052,0.259
				c0.008,0.045,0.016,0.091,0.025,0.136c0.013,0.071,0.025,0.141,0.037,0.212c0.007,0.042,0.014,0.085,0.02,0.128
				c0.012,0.08,0.024,0.16,0.035,0.24c0.005,0.033,0.009,0.067,0.014,0.1c0.03,0.232,0.055,0.465,0.074,0.699
				c0.002,0.027,0.004,0.054,0.006,0.081c0.007,0.09,0.013,0.18,0.018,0.27c0.002,0.035,0.004,0.07,0.006,0.105
				c0.004,0.086,0.008,0.171,0.01,0.257c0.001,0.033,0.002,0.066,0.003,0.099c0.003,0.116,0.005,0.233,0.005,0.349
				c0,0.125-0.002,0.251-0.005,0.376c0,0.019-0.002,0.039-0.002,0.058c-0.003,0.106-0.007,0.213-0.013,0.319
				c-0.001,0.019-0.002,0.038-0.004,0.057c-0.006,0.106-0.013,0.213-0.021,0.319c-0.002,0.021-0.004,0.043-0.006,0.064
				c-0.008,0.103-0.018,0.205-0.028,0.308c-0.003,0.029-0.007,0.057-0.01,0.085c-0.01,0.094-0.021,0.187-0.034,0.281
				c-0.005,0.039-0.011,0.078-0.016,0.117c-0.011,0.081-0.023,0.162-0.035,0.242c-0.008,0.052-0.017,0.105-0.026,0.157
				c-0.011,0.065-0.022,0.131-0.034,0.196c-0.012,0.066-0.025,0.132-0.038,0.198c-0.01,0.049-0.019,0.099-0.03,0.148
				C33.642,31.999,27.881,36.885,21,36.885c-6.886,0-12.65-4.894-13.999-11.386c-0.012-0.059-0.023-0.118-0.035-0.177
				c-0.011-0.056-0.022-0.113-0.033-0.17c-0.015-0.08-0.028-0.161-0.041-0.241c-0.006-0.037-0.013-0.074-0.018-0.111
				c-0.016-0.102-0.03-0.204-0.044-0.307c-0.002-0.017-0.005-0.035-0.007-0.052c-0.016-0.121-0.03-0.241-0.043-0.362
				c0-0.001,0-0.001,0-0.002c-0.051-0.494-0.077-0.992-0.077-1.489c0-0.112,0.002-0.225,0.005-0.337
				c0.001-0.037,0.002-0.074,0.003-0.11c0.002-0.076,0.005-0.151,0.009-0.227c0.002-0.044,0.004-0.088,0.006-0.132
				c0.004-0.067,0.009-0.134,0.013-0.201c0.008-0.115,0.018-0.231,0.029-0.346c0.001-0.013,0.002-0.026,0.004-0.039
				c0.488-4.944,3.55-9.331,8.024-11.492c0,0.008-0.001,0.017-0.001,0.025c0,0.569,0.078,1.119,0.222,1.642L15.637,12.845z
				 M36.719,24.887c0.009-0.06,0.017-0.12,0.025-0.181c0.008-0.064,0.017-0.127,0.024-0.191c0.01-0.08,0.019-0.16,0.028-0.241
				c0.006-0.053,0.011-0.105,0.016-0.158c0.007-0.069,0.013-0.138,0.019-0.208c0.004-0.048,0.008-0.096,0.012-0.144
				c0.008-0.11,0.015-0.221,0.021-0.331c0.002-0.036,0.003-0.071,0.005-0.107c0.004-0.089,0.007-0.178,0.01-0.267
				c0.001-0.037,0.002-0.074,0.003-0.111c0.003-0.12,0.005-0.241,0.005-0.361c0-0.105-0.001-0.21-0.003-0.314
				c-0.001-0.038-0.002-0.076-0.003-0.114c-0.002-0.066-0.004-0.132-0.006-0.197c-0.002-0.047-0.004-0.094-0.006-0.14
				c-0.003-0.057-0.006-0.113-0.009-0.169c-0.003-0.051-0.006-0.101-0.01-0.152c-0.004-0.052-0.007-0.104-0.012-0.156
				c-0.004-0.053-0.008-0.106-0.013-0.158c-0.005-0.051-0.01-0.102-0.015-0.153c-0.005-0.052-0.01-0.105-0.016-0.157
				c-0.006-0.059-0.014-0.118-0.021-0.177c-0.008-0.066-0.016-0.131-0.024-0.196c-0.009-0.071-0.019-0.143-0.029-0.214
				c1.01,0.276,1.755,1.202,1.755,2.299C38.474,23.685,37.729,24.611,36.719,24.887z"/>
			<path fill="#80007F" d="M18.175,23.508c-0.372-1.386-1.633-2.355-3.069-2.355c-1.435,0-2.697,0.968-3.069,2.355
				c-0.114,0.424,0.138,0.859,0.562,0.973c0.424,0.113,0.859-0.138,0.973-0.562c0.186-0.693,0.817-1.178,1.534-1.178
				c0.718,0,1.349,0.484,1.534,1.178c0.095,0.355,0.416,0.589,0.767,0.589c0.068,0,0.137-0.009,0.206-0.027
				C18.037,24.367,18.288,23.932,18.175,23.508z"/>
			<path fill="#80007F" d="M26.895,21.153c-1.435,0-2.697,0.968-3.069,2.355c-0.113,0.424,0.138,0.859,0.562,0.973
				c0.424,0.114,0.859-0.138,0.973-0.562c0.186-0.693,0.817-1.177,1.534-1.177c0.718,0,1.349,0.484,1.534,1.178
				c0.095,0.355,0.416,0.589,0.767,0.589c0.068,0,0.137-0.009,0.206-0.027c0.424-0.114,0.675-0.549,0.562-0.973
				C29.592,22.122,28.33,21.153,26.895,21.153z"/>
			<path fill="#80007F" d="M23.507,29.081c-0.424-0.113-0.859,0.138-0.973,0.562C22.349,30.336,21.718,30.82,21,30.82
				c-0.718,0-1.349-0.484-1.534-1.178c-0.114-0.424-0.549-0.675-0.973-0.562c-0.424,0.114-0.675,0.549-0.562,0.973
				c0.372,1.387,1.633,2.355,3.069,2.355c1.435,0,2.697-0.968,3.069-2.355C24.182,29.63,23.931,29.194,23.507,29.081z"/>
		</g>
	</g>
</g>
</svg>
