<?xml version="1.0" encoding="utf-8"?>
<!-- Generator: Adobe Illustrator 17.0.0, SVG Export Plug-In . SVG Version: 6.00 Build 0)  -->
<!DOCTYPE svg PUBLIC "-//W3C//DTD SVG 1.1//EN" "http://www.w3.org/Graphics/SVG/1.1/DTD/svg11.dtd">
<svg version="1.1" id="Layer_1" xmlns="http://www.w3.org/2000/svg" xmlns:xlink="http://www.w3.org/1999/xlink" x="0px" y="0px"
	 width="42px" height="42px" viewBox="0 0 42 42" enable-background="new 0 0 42 42" xml:space="preserve">
<g>
	<g>
		<path fill="#333333" d="M37.039,38.864h-2.661c-0.294,0-0.532-0.238-0.532-0.532c0-0.294,0.238-0.532,0.532-0.532h2.595
			c0.388-0.103,2.638-0.787,2.638-2.838c0-2.491-1.8-3.068-2.573-3.201c-1.238-0.212-5.163,0.005-5.202,0.007
			c-0.198,0.012-0.387-0.09-0.488-0.261c-0.101-0.172-0.098-0.385,0.008-0.554l2.545-4.037c0.103-0.273,0.723-2.061,0.019-3.7
			c-0.453-1.056-1.375-1.86-2.739-2.388l-8.593-2.923c-0.278-0.095-0.427-0.397-0.332-0.675c0.095-0.278,0.397-0.427,0.675-0.332
			l8.603,2.927c0.007,0.002,0.014,0.005,0.02,0.007c1.651,0.637,2.778,1.638,3.348,2.975c0.934,2.191,0.007,4.46-0.033,4.556
			c-0.011,0.027-0.025,0.054-0.041,0.079L32.8,30.658c1.299-0.052,3.476-0.107,4.417,0.055c0.811,0.139,3.458,0.856,3.458,4.25
			c0,2.44-2.301,3.611-3.518,3.889C37.119,38.86,37.079,38.864,37.039,38.864z"/>
	</g>
	<path fill="#333333" d="M18.478,22.39c-0.281-0.084-0.578,0.075-0.663,0.357l-0.78,2.601l-3.161,5.445
		c-2.101,3.618-3.565,6.013-4.728,6.316c-0.197,0.051-0.516,0.086-1.016-0.21c-0.252-0.149-0.414-0.429-0.495-0.856
		c-0.334-1.768,0.951-4.965,1.254-5.352c0.118-0.141,0.337-0.404,2.387-6.08c0.846-2.344,1.66-4.659,1.895-5.328
		c-0.424,0.127-0.833,0.211-1.222,0.267c-1.432,4.075-3.54,9.92-3.89,10.475c-0.426,0.544-1.853,3.999-1.48,6.16
		c0.132,0.765,0.472,1.313,1.009,1.631c0.445,0.263,0.872,0.393,1.294,0.393c0.178,0,0.355-0.023,0.532-0.07
		c1.52-0.397,2.806-2.38,5.379-6.812l3.193-5.499c0.021-0.036,0.038-0.074,0.049-0.114l0.798-2.661
		C18.919,22.771,18.759,22.474,18.478,22.39z M20.894,16.454l-3.236-1.125c-0.158,0.341-0.328,0.659-0.512,0.949l3.398,1.182
		c0.278,0.097,0.581-0.05,0.677-0.328C21.318,16.854,21.172,16.551,20.894,16.454z"/>
	<g>
		<path fill="#333333" d="M32.338,38.598h-5.676c-0.033,0-0.066-0.003-0.098-0.009c-2.607-0.489-3.164-3.184-3.094-4.542
			c0.002-0.037,0.008-0.074,0.017-0.11l2.04-7.628c0.076-0.284,0.368-0.453,0.652-0.377c0.284,0.076,0.453,0.368,0.377,0.652
			l-2.024,7.569c-0.008,0.407,0.029,2.941,2.182,3.381h5.625c0.294,0,0.532,0.238,0.532,0.532
			C32.87,38.36,32.632,38.598,32.338,38.598z"/>
	</g>
	<g>
		<path fill="#333333" d="M25.509,29.197c-7.275,0-8.682-3.118-8.738-3.251c-0.115-0.271,0.011-0.583,0.282-0.698
			c0.268-0.114,0.578,0.009,0.695,0.276c0.027,0.057,1.317,2.609,7.761,2.609c0.294,0,0.532,0.238,0.532,0.532
			S25.803,29.197,25.509,29.197z"/>
	</g>
	<g>
		<path fill="#333333" d="M29.766,33.72c-0.119,0-0.239-0.04-0.338-0.121c-0.227-0.187-0.26-0.522-0.073-0.749l3.282-3.991
			c0.187-0.227,0.522-0.26,0.749-0.073c0.227,0.187,0.26,0.522,0.073,0.749l-3.282,3.991C30.072,33.654,29.919,33.72,29.766,33.72z"
			/>
	</g>
	<g>
		<path fill="#333333" d="M11.229,20.327c-4.01,0-7.273-3.263-7.273-7.273s3.263-7.273,7.273-7.273s7.273,3.263,7.273,7.273
			S15.239,20.327,11.229,20.327z M11.229,6.846c-3.423,0-6.209,2.785-6.209,6.209s2.785,6.209,6.209,6.209s6.209-2.785,6.209-6.209
			S14.653,6.846,11.229,6.846z"/>
	</g>
	<g>
		<path fill="none" stroke="#B00000" stroke-width="12" stroke-linecap="round" stroke-linejoin="round" stroke-miterlimit="10" d="
			M7.829,11.015"/>
	</g>
	<g>
		<path fill="#80007C" d="M5.938,10.409c-0.643,0-1.194-0.125-1.625-0.277c-1.201-0.423-2.21-1.324-2.699-2.409
			C0.87,6.071,1.609,4.122,3.261,3.377c1.375-0.62,2.998-0.005,3.617,1.37C7.13,5.306,7.149,5.93,6.932,6.503
			C6.715,7.076,6.288,7.53,5.729,7.782C4.752,8.222,3.6,7.786,3.16,6.809C2.784,5.975,3.157,4.99,3.992,4.614
			C4.26,4.493,4.575,4.612,4.696,4.88c0.121,0.268,0.001,0.583-0.267,0.704c-0.3,0.135-0.433,0.489-0.298,0.788
			c0.199,0.441,0.72,0.639,1.161,0.44C5.91,6.533,6.187,5.803,5.908,5.185c-0.379-0.84-1.37-1.215-2.21-0.837
			C2.581,4.851,2.082,6.169,2.585,7.286C2.957,8.111,3.735,8.8,4.667,9.128c0.734,0.258,1.91,0.413,3.35-0.318
			c0.262-0.133,0.582-0.028,0.715,0.234C8.865,9.306,8.761,9.627,8.499,9.76C7.548,10.242,6.681,10.409,5.938,10.409z"/>
	</g>
</g>
</svg>
