<?xml version="1.0" encoding="utf-8"?>
<!-- Generator: Adobe Illustrator 17.0.0, SVG Export Plug-In . SVG Version: 6.00 Build 0)  -->
<!DOCTYPE svg PUBLIC "-//W3C//DTD SVG 1.1//EN" "http://www.w3.org/Graphics/SVG/1.1/DTD/svg11.dtd">
<svg version="1.1" id="Layer_1" xmlns="http://www.w3.org/2000/svg" xmlns:xlink="http://www.w3.org/1999/xlink" x="0px" y="0px"
	 width="42px" height="42px" viewBox="0 0 42 42" enable-background="new 0 0 42 42" xml:space="preserve">
<g>
	<g>
		<g>
			<path fill="#333333" d="M20.999,2.781c-6.698,0-12.146,5.448-12.145,12.188L9.62,28.707l0.134,0.865
				c0.858,5.59,5.588,9.647,11.245,9.647s10.387-4.057,11.245-9.647l0.141-0.938l0.761-13.706
				C33.146,8.23,27.697,2.781,20.999,2.781z M21,37.7c-4.901,0-9-3.516-9.744-8.36l-0.126-0.791l-0.579-10.406
				c1.523,1.918,4.051,4.884,7.167,7.711c3.744,3.397,9.121,7.037,10.928,8.231C26.833,36.315,24.076,37.7,21,37.7z M30.878,28.475
				l-0.134,0.865c-0.195,1.271-0.632,2.442-1.243,3.49c-1.556-1.029-5.928-3.984-9.474-6.979c1.556-0.674,4.434-1.957,6.256-2.975
				c1.41-0.789,3.674-2.346,5.089-3.34L30.878,28.475z M31.479,17.6c-0.951,0.68-4.196,2.978-5.937,3.952
				c-2.044,1.144-5.609,2.691-6.785,3.195c-0.005-0.005-0.011-0.011-0.018-0.016c-4.309-3.91-7.554-8.214-8.338-9.285l-0.029-0.518
				C10.372,9.067,15.14,4.3,21,4.3s10.628,4.768,10.629,10.585L31.479,17.6z"/>
			<path fill="#80007C" d="M21.411,5.852c-0.029-0.007-0.059-0.004-0.088-0.007c-0.108-0.005-0.214-0.026-0.323-0.026
				c-3.105,0-5.901,2.057-6.943,5.052c-0.829,0.321-1.407,1.13-1.407,2.052c0,0.81,0.43,1.528,1.111,1.913
				C14.422,18.379,17.461,21,21,21s6.578-2.621,7.24-6.166c0.681-0.385,1.111-1.103,1.111-1.913c0-0.922-0.579-1.731-1.407-2.052
				C26.948,8.009,24.348,6.026,21.411,5.852z M27.34,13.577c-0.289,0.085-0.499,0.333-0.538,0.63
				c-0.387,3.006-2.882,5.274-5.802,5.274s-5.415-2.268-5.802-5.274c-0.039-0.298-0.249-0.546-0.538-0.63
				c-0.244-0.073-0.492-0.303-0.492-0.655c0-0.346,0.248-0.63,0.588-0.674c0.3-0.04,0.547-0.253,0.629-0.544
				c0.565-1.983,2.003-3.466,3.807-4.069c-0.119,0.226-0.222,0.463-0.317,0.716c-0.244,0.656-0.196,1.372,0.13,2.017
				c0.354,0.696,0.989,1.22,1.744,1.433c0.214,0.061,0.432,0.091,0.646,0.091c0.395,0,0.786-0.101,1.139-0.298
				c0.549-0.305,0.946-0.806,1.118-1.411c0.304-1.078-0.324-2.204-1.4-2.51c-0.411-0.119-0.824,0.12-0.938,0.522
				c-0.114,0.404,0.12,0.824,0.523,0.937c0.273,0.077,0.43,0.362,0.353,0.635c-0.061,0.215-0.2,0.391-0.395,0.499
				c-0.194,0.108-0.419,0.134-0.631,0.073c-0.343-0.098-0.644-0.345-0.804-0.66c-0.095-0.186-0.182-0.477-0.062-0.803
				c0.202-0.547,0.444-1.014,1.141-1.504c2.423,0.186,4.473,1.867,5.175,4.33c0.082,0.29,0.329,0.504,0.629,0.544
				c0.341,0.045,0.588,0.329,0.588,0.674C27.832,13.273,27.584,13.504,27.34,13.577z"/>
			<circle fill="#80007C" cx="18.722" cy="14.168" r="0.759"/>
			<circle fill="#80007C" cx="23.277" cy="14.168" r="0.759"/>
			<path fill="#80007C" d="M19.481,16.89c0,0.593,0.68,1.074,1.519,1.074c0.839,0,1.519-0.481,1.519-1.074
				C22.519,16.297,19.481,16.297,19.481,16.89z"/>
		</g>
	</g>
</g>
</svg>
