<?xml version="1.0" encoding="utf-8"?>
<!-- Generator: Adobe Illustrator 17.0.0, SVG Export Plug-In . SVG Version: 6.00 Build 0)  -->
<!DOCTYPE svg PUBLIC "-//W3C//DTD SVG 1.1//EN" "http://www.w3.org/Graphics/SVG/1.1/DTD/svg11.dtd">
<svg version="1.1" id="Layer_1" xmlns="http://www.w3.org/2000/svg" xmlns:xlink="http://www.w3.org/1999/xlink" x="0px" y="0px"
	 width="42px" height="42px" viewBox="0 0 42 42" enable-background="new 0 0 42 42" xml:space="preserve">
<g>
	<g>
		<path fill="#80007F" d="M14.933,9.206c-0.337,0-0.611,0.273-0.611,0.611v1.222c0,0.337,0.273,0.611,0.611,0.611
			s0.611-0.273,0.611-0.611V9.817C15.544,9.48,15.27,9.206,14.933,9.206z"/>
	</g>
	<g>
		<path fill="#80007F" d="M8.906,9.206c-0.337,0-0.611,0.273-0.611,0.611v1.222c0,0.337,0.273,0.611,0.611,0.611
			c0.337,0,0.611-0.273,0.611-0.611V9.817C9.517,9.48,9.244,9.206,8.906,9.206z"/>
	</g>
	<g>
		<path fill="#80007F" d="M13.294,13.298c-0.326-0.084-0.66,0.112-0.744,0.438c-0.075,0.288-0.334,0.49-0.63,0.49
			s-0.556-0.201-0.63-0.49c-0.085-0.326-0.417-0.523-0.744-0.438c-0.327,0.085-0.523,0.418-0.438,0.744
			c0.214,0.827,0.96,1.405,1.813,1.405c0.853,0,1.599-0.578,1.813-1.405C13.817,13.716,13.621,13.382,13.294,13.298z"/>
	</g>
	<g>
		<path fill="#333333" d="M11.92,1.821c-4.67,0-8.47,3.799-8.47,8.47v1.629c0,4.67,3.799,8.47,8.47,8.47s8.47-3.799,8.47-8.47
			v-1.629C20.389,5.621,16.59,1.821,11.92,1.821z M19.168,11.92c0,3.997-3.251,7.248-7.248,7.248c-3.997,0-7.248-3.251-7.248-7.248
			v-1.629c0-3.997,3.251-7.248,7.248-7.248s7.248,3.251,7.248,7.248C19.168,10.291,19.168,11.92,19.168,11.92z"/>
	</g>
	<g>
		<path fill="#80007F" d="M33.094,9.206c-0.337,0-0.611,0.273-0.611,0.611v1.222c0,0.337,0.273,0.611,0.611,0.611
			c0.337,0,0.611-0.273,0.611-0.611V9.817C33.704,9.48,33.431,9.206,33.094,9.206z"/>
	</g>
	<g>
		<path fill="#80007F" d="M27.067,9.206c-0.337,0-0.611,0.273-0.611,0.611v1.222c0,0.337,0.273,0.611,0.611,0.611
			s0.611-0.273,0.611-0.611V9.817C27.678,9.48,27.404,9.206,27.067,9.206z"/>
	</g>
	<g>
		<path fill="#80007F" d="M31.302,13.278h-2.443c-0.337,0-0.611,0.273-0.611,0.611c0,0.337,0.273,0.611,0.611,0.611h2.443
			c0.337,0,0.611-0.273,0.611-0.611C31.913,13.552,31.639,13.278,31.302,13.278z"/>
	</g>
	<g>
		<path fill="#333333" d="M30.08,1.821c-4.67,0-8.47,3.799-8.47,8.47v1.629c0,4.67,3.799,8.47,8.47,8.47s8.47-3.799,8.47-8.47
			v-1.629C38.55,5.621,34.75,1.821,30.08,1.821z M37.328,11.92c0,3.997-3.251,7.248-7.248,7.248s-7.248-3.251-7.248-7.248v-1.629
			c0-3.997,3.251-7.248,7.248-7.248s7.248,3.251,7.248,7.248C37.328,10.291,37.328,11.92,37.328,11.92z"/>
	</g>
	<g>
		<path fill="#80007F" d="M14.933,28.996c-0.337,0-0.611,0.273-0.611,0.611v1.222c0,0.337,0.273,0.611,0.611,0.611
			s0.611-0.273,0.611-0.611v-1.222C15.544,29.269,15.27,28.996,14.933,28.996z"/>
	</g>
	<g>
		<path fill="#80007F" d="M8.906,28.996c-0.337,0-0.611,0.273-0.611,0.611v1.222c0,0.337,0.273,0.611,0.611,0.611
			c0.337,0,0.611-0.273,0.611-0.611v-1.222C9.517,29.269,9.244,28.996,8.906,28.996z"/>
	</g>
	<g>
		<path fill="#80007F" d="M13.733,34.473c-0.214-0.827-0.96-1.405-1.813-1.405c-0.853,0-1.599,0.578-1.813,1.405
			c-0.085,0.327,0.112,0.66,0.438,0.744c0.326,0.084,0.66-0.112,0.744-0.438c0.075-0.288,0.334-0.49,0.63-0.49
			c0.296,0,0.556,0.201,0.63,0.49c0.071,0.275,0.319,0.458,0.591,0.458c0.051,0,0.102-0.006,0.153-0.02
			C13.621,35.133,13.817,34.799,13.733,34.473z"/>
	</g>
	<g>
		<path fill="#333333" d="M11.92,21.611c-4.67,0-8.47,3.799-8.47,8.47v1.629c0,4.67,3.799,8.47,8.47,8.47s8.47-3.799,8.47-8.47
			V30.08C20.389,25.41,16.59,21.611,11.92,21.611z M19.168,31.709c0,3.997-3.251,7.248-7.248,7.248
			c-3.997,0-7.248-3.251-7.248-7.248V30.08c0-3.997,3.251-7.248,7.248-7.248s7.248,3.251,7.248,7.248
			C19.168,30.08,19.168,31.709,19.168,31.709z"/>
	</g>
	<g>
		<path fill="#80007F" d="M33.094,28.996c-0.337,0-0.611,0.273-0.611,0.611v1.222c0,0.337,0.273,0.611,0.611,0.611
			c0.337,0,0.611-0.273,0.611-0.611v-1.222C33.704,29.269,33.431,28.996,33.094,28.996z"/>
	</g>
	<g>
		<path fill="#80007F" d="M27.067,28.996c-0.337,0-0.611,0.273-0.611,0.611v1.222c0,0.337,0.273,0.611,0.611,0.611
			s0.611-0.273,0.611-0.611v-1.222C27.678,29.269,27.404,28.996,27.067,28.996z"/>
	</g>
	<g>
		<path fill="#80007F" d="M30.08,31.572c-1.235,0-2.24,1.005-2.24,2.24v0.814c0,1.235,1.005,2.24,2.24,2.24
			c1.235,0,2.24-1.005,2.24-2.24v-0.814C32.32,32.577,31.315,31.572,30.08,31.572z M31.098,34.626c0,0.561-0.457,1.018-1.018,1.018
			c-0.561,0-1.018-0.457-1.018-1.018v-0.814c0-0.561,0.457-1.018,1.018-1.018c0.561,0,1.018,0.457,1.018,1.018V34.626z"/>
	</g>
	<g>
		<path fill="#333333" d="M30.08,21.611c-4.67,0-8.47,3.799-8.47,8.47v1.629c0,4.67,3.799,8.47,8.47,8.47s8.47-3.799,8.47-8.469
			V30.08C38.55,25.41,34.75,21.611,30.08,21.611z M37.328,31.709c0,3.997-3.251,7.248-7.248,7.248s-7.248-3.251-7.248-7.248V30.08
			c0-3.997,3.251-7.248,7.248-7.248s7.248,3.251,7.248,7.248C37.328,30.08,37.328,31.709,37.328,31.709z"/>
	</g>
</g>
</svg>
