<?xml version="1.0" encoding="utf-8"?>
<!-- Generator: Adobe Illustrator 17.0.0, SVG Export Plug-In . SVG Version: 6.00 Build 0)  -->
<!DOCTYPE svg PUBLIC "-//W3C//DTD SVG 1.1//EN" "http://www.w3.org/Graphics/SVG/1.1/DTD/svg11.dtd">
<svg version="1.1" id="Layer_1" xmlns="http://www.w3.org/2000/svg" xmlns:xlink="http://www.w3.org/1999/xlink" x="0px" y="0px"
	 width="42px" height="42px" viewBox="0 0 42 42" enable-background="new 0 0 42 42" xml:space="preserve">
<path fill="#333333" d="M20.665,20.247c0-0.659-0.26-1.168-0.756-1.49c0.269-0.339,0.419-0.761,0.419-1.2
	c0-1.065-0.867-1.932-1.932-1.932h-4.522l0.181-0.846c0.337-1.572,0.118-3.347,0.042-3.853c-0.189-1.278-1.3-2.701-2.59-2.701
	h-0.079c-0.508,0-1.689,0.254-1.689,2.605c0,2.613-0.633,3.789-1.164,4.316c-0.286,0.284-0.611,0.449-0.939,0.478l-0.087,0.001
	v-0.673H1.667v13.28h5.882v-0.672h9.167c1.065,0,1.932-0.866,1.932-1.932c0-0.315-0.075-0.618-0.218-0.892
	c0.729-0.285,1.229-0.994,1.229-1.801c0-0.311-0.076-0.617-0.219-0.891C20.167,21.762,20.665,21.053,20.665,20.247z M17.725,23.698
	h-3.363c-0.324,0-0.587,0.264-0.587,0.587c0,0.322,0.263,0.585,0.587,0.585h2.353c0.419,0,0.76,0.341,0.76,0.76
	c0,0.418-0.341,0.758-0.76,0.758H7.548v-9.595l0.107,0.007c0.092,0,0.922-0.022,1.717-0.792c1.021-0.99,1.539-2.731,1.539-5.175
	c0-0.336,0.037-1.432,0.515-1.432h0.079c0.607,0,1.321,0.958,1.431,1.7c0.068,0.458,0.265,2.062-0.028,3.435l-0.483,2.263h5.972
	c0.419,0,0.76,0.341,0.76,0.76c0,0.418-0.341,0.758-0.76,0.758h-3.363c-0.324,0-0.587,0.263-0.587,0.587s0.264,0.587,0.587,0.587
	h2.355c0.292,0,0.931,0.013,1.26,0.062c0.781,0.114,0.843,0.372,0.843,0.697c0,0.202-0.078,0.392-0.221,0.535
	c-0.144,0.144-0.334,0.223-0.538,0.223h-3.7c-0.324,0-0.587,0.263-0.587,0.587c0,0.323,0.264,0.587,0.587,0.587h2.692
	c0.418,0,0.758,0.341,0.758,0.759C18.483,23.357,18.143,23.698,17.725,23.698z M6.375,23.847c-0.299-0.682-0.978-1.16-1.768-1.16
	c-0.789,0-1.468,0.477-1.767,1.157v-7.718h3.535V23.847z M5.367,24.619c0,0.419-0.341,0.76-0.76,0.76
	c-0.418,0-0.758-0.341-0.758-0.76c0-0.418,0.34-0.758,0.758-0.758C5.026,23.861,5.367,24.201,5.367,24.619z M2.84,25.394
	c0.299,0.68,0.978,1.157,1.767,1.157c0.79,0,1.469-0.478,1.768-1.158v1.668H2.84V25.394z"/>
<path fill="#80007F" d="M34.451,13.768v0.671h-9.167c-1.065,0-1.933,0.867-1.933,1.932c0,0.314,0.075,0.618,0.219,0.892
	c-0.729,0.286-1.229,0.995-1.229,1.8c0,0.315,0.074,0.618,0.218,0.892c-0.726,0.285-1.224,0.992-1.224,1.798
	c0,0.66,0.26,1.169,0.756,1.49c-0.27,0.34-0.419,0.762-0.419,1.2c0,1.065,0.866,1.932,1.932,1.932h4.522l-0.18,0.846
	c-0.339,1.578-0.119,3.349-0.043,3.854c0.189,1.277,1.299,2.701,2.59,2.701h0.079c0.508,0,1.688-0.254,1.688-2.605
	c0-2.613,0.633-3.789,1.164-4.315c0.286-0.284,0.611-0.449,0.94-0.479l0.086-0.001v0.673h5.882v-13.28H34.451z M23.604,23.684h3.363
	c0.323,0,0.587-0.264,0.587-0.587s-0.264-0.587-0.587-0.587h-2.354c-0.292,0-0.932-0.013-1.26-0.061
	c-0.781-0.115-0.844-0.372-0.844-0.697c0-0.202,0.078-0.392,0.221-0.535c0.144-0.144,0.334-0.223,0.537-0.223h3.7
	c0.323,0,0.587-0.263,0.587-0.587s-0.264-0.587-0.587-0.587h-2.691c-0.418,0-0.759-0.34-0.759-0.758c0-0.419,0.341-0.76,0.759-0.76
	h3.362c0.323,0,0.587-0.263,0.587-0.587c0-0.323-0.264-0.585-0.587-0.585h-2.353c-0.419,0-0.76-0.341-0.76-0.76
	c0-0.418,0.341-0.758,0.76-0.758h9.167v9.595l-0.106-0.006c-0.093,0-0.924,0.021-1.718,0.792c-1.021,0.99-1.539,2.731-1.539,5.175
	c0,0.336-0.037,1.432-0.515,1.432h-0.079c-0.606,0-1.32-0.958-1.431-1.7c-0.067-0.457-0.266-2.058,0.027-3.435l0.483-2.263h-5.972
	c-0.419,0-0.76-0.341-0.76-0.76C22.844,24.024,23.185,23.684,23.604,23.684z M35.625,24.086c0.299,0.681,0.978,1.159,1.768,1.159
	c0.789,0,1.468-0.477,1.768-1.157v1.786h-3.535V24.086z M36.633,23.313c0-0.42,0.341-0.761,0.76-0.761
	c0.418,0,0.759,0.341,0.759,0.761c0,0.418-0.341,0.758-0.759,0.758C36.974,24.071,36.633,23.731,36.633,23.313z M39.16,22.538
	c-0.3-0.68-0.978-1.157-1.768-1.157c-0.79,0-1.469,0.478-1.768,1.159v-7.601h3.535V22.538z"/>
</svg>
