<?xml version="1.0" encoding="utf-8"?>
<!-- Generator: Adobe Illustrator 17.0.0, SVG Export Plug-In . SVG Version: 6.00 Build 0)  -->
<!DOCTYPE svg PUBLIC "-//W3C//DTD SVG 1.1//EN" "http://www.w3.org/Graphics/SVG/1.1/DTD/svg11.dtd">
<svg version="1.1" id="Layer_1" xmlns="http://www.w3.org/2000/svg" xmlns:xlink="http://www.w3.org/1999/xlink" x="0px" y="0px"
	 width="42px" height="42px" viewBox="0 0 42 42" enable-background="new 0 0 42 42" xml:space="preserve">
<g>
	<path fill="#FFFFFF" d="M10.468,36.167H3.925C1.761,36.167,0,34.405,0,32.241s1.761-3.925,3.925-3.925h0.548
		c-0.594-1.078-1.093-2.531-1.093-4.361c0-4.219,3.451-6.107,6.87-6.107h11.214c0.111-0.018,0.253-0.033,0.417-0.033
		c0.81,0,2.801,0.372,3.8,3.812c0.949,3.263,2.655,7.28,2.673,7.321c0.035,0.082,0.063,0.17,0.08,0.258
		c0.052,0.259,0.467,2.569-0.731,4.029c-0.413,0.504-1.182,1.106-2.493,1.106c-0.886,0-1.896-0.272-3.087-0.832
		c-0.279-0.132-0.502-0.357-0.632-0.637l-1.955-4.254L15.4,29.565c-0.031,1.399-0.31,3.723-1.684,5.218
		C12.885,35.689,11.762,36.167,10.468,36.167z M3.925,30.933c-0.721,0-1.308,0.586-1.308,1.308s0.588,1.308,1.308,1.308h6.542
		c0.565,0,0.984-0.17,1.319-0.536c1.009-1.099,1.043-3.588,0.976-4.374c-0.056-0.65,0.376-1.242,1.011-1.388l6.215-1.424
		c0.599-0.141,1.221,0.165,1.481,0.729l2.193,4.771c1.719,0.714,1.95,0.326,2.018,0.246c0.288-0.352,0.28-1.255,0.207-1.742
		c-0.322-0.764-1.818-4.374-2.719-7.475c-0.442-1.523-1.036-1.925-1.288-1.925c-0.181,0.088-0.094,0.034-0.292,0.034H10.249
		c-0.709,0-4.253,0.169-4.253,3.49c0,3.07,1.958,4.603,1.977,4.618c0.454,0.335,0.641,0.925,0.465,1.46
		c-0.177,0.538-0.676,0.9-1.242,0.9H3.925z"/>
</g>
<g>
	<path fill="#FFFFFF" d="M31.077,20.682c-3.788,0-6.87-3.08-6.87-6.87s3.082-6.87,6.87-6.87s6.87,3.082,6.87,6.87
		S34.865,20.682,31.077,20.682z M31.077,9.561c-2.345,0-4.253,1.908-4.253,4.253s1.908,4.253,4.253,4.253s4.253-1.908,4.253-4.253
		S33.422,9.561,31.077,9.561z"/>
</g>
<g>
	<path fill="#FFFFFF" d="M36.272,38.417H29.5v-6.772h6.772V38.417z M30.854,37.062h4.063v-4.063h-4.063V37.062z"/>
</g>
<g>
	<g>
		<path fill="#FFFFFF" d="M42,31.476h-5.49v-5.49H42V31.476z M37.882,30.104h2.745v-2.745h-2.745V30.104z"/>
	</g>
</g>
</svg>
