<?xml version="1.0" encoding="utf-8"?>
<!-- Generator: Adobe Illustrator 17.0.0, SVG Export Plug-In . SVG Version: 6.00 Build 0)  -->
<!DOCTYPE svg PUBLIC "-//W3C//DTD SVG 1.1//EN" "http://www.w3.org/Graphics/SVG/1.1/DTD/svg11.dtd">
<svg version="1.1" id="Layer_1" xmlns="http://www.w3.org/2000/svg" xmlns:xlink="http://www.w3.org/1999/xlink" x="0px" y="0px"
	 width="24px" height="28px" viewBox="0 0 24 28" enable-background="new 0 0 24 28" xml:space="preserve">
<g>
	<g opacity="0.1">
		<g>
			<path d="M7.237,3.544H1.034c-0.275,0-0.492,0.223-0.492,0.492v20.303c0,0.275,0.223,0.492,0.492,0.492h6.203
				c0.275,0,0.492-0.223,0.492-0.492V4.037C7.73,3.762,7.511,3.544,7.237,3.544z M6.744,23.847H1.532V4.529h5.213L6.744,23.847
				L6.744,23.847z"/>
			<path d="M4.136,21.796c1.023,0,1.851-0.833,1.851-1.851c0-1.023-0.833-1.851-1.851-1.851c-1.023,0-1.851,0.833-1.851,1.851
				C2.284,20.964,3.113,21.796,4.136,21.796z M4.136,19.074c0.478,0,0.866,0.388,0.866,0.866c0,0.478-0.388,0.866-0.866,0.866
				S3.27,20.419,3.27,19.941C3.269,19.462,3.657,19.074,4.136,19.074z"/>
			<path d="M2.777,7.568h2.718c0.275,0,0.492-0.223,0.492-0.492c0-0.27-0.223-0.492-0.492-0.492H2.777
				c-0.275,0-0.492,0.223-0.492,0.492C2.284,7.346,2.502,7.568,2.777,7.568z"/>
			<path d="M2.777,10.286h2.718c0.275,0,0.492-0.223,0.492-0.492c0-0.275-0.223-0.492-0.492-0.492H2.777
				c-0.275,0-0.492,0.223-0.492,0.492C2.284,10.068,2.502,10.286,2.777,10.286z"/>
			<path d="M15.244,3.544H9.041c-0.275,0-0.492,0.223-0.492,0.492v20.303c0,0.275,0.223,0.492,0.492,0.492h6.203
				c0.275,0,0.492-0.223,0.492-0.492V4.037C15.736,3.762,15.514,3.544,15.244,3.544z M14.751,23.847H9.533V4.529h5.213v19.318
				L14.751,23.847L14.751,23.847z"/>
			<path d="M12.142,21.796c1.023,0,1.851-0.833,1.851-1.851c0-1.023-0.833-1.851-1.851-1.851c-1.023,0-1.856,0.833-1.856,1.851
				C10.286,20.964,11.119,21.796,12.142,21.796z M12.142,19.074c0.478,0,0.866,0.388,0.866,0.866c0,0.478-0.388,0.866-0.866,0.866
				c-0.478,0-0.866-0.388-0.866-0.866C11.276,19.462,11.664,19.074,12.142,19.074z"/>
			<path d="M10.784,7.568h2.718c0.275,0,0.492-0.223,0.492-0.492c0-0.27-0.223-0.492-0.492-0.492h-2.718
				c-0.275,0-0.492,0.223-0.492,0.492C10.291,7.346,10.509,7.568,10.784,7.568z"/>
			<path d="M10.784,10.286h2.718c0.275,0,0.492-0.223,0.492-0.492c0-0.275-0.223-0.492-0.492-0.492h-2.718
				c-0.275,0-0.492,0.223-0.492,0.492C10.286,10.068,10.509,10.286,10.784,10.286z"/>
			<path d="M23.251,3.544h-6.203c-0.275,0-0.492,0.223-0.492,0.492v20.303c0,0.275,0.223,0.492,0.492,0.492h6.203
				c0.275,0,0.492-0.223,0.492-0.492V4.037C23.743,3.762,23.52,3.544,23.251,3.544z M22.753,23.847H17.54V4.529h5.213V23.847z"/>
			<path d="M20.149,21.796c1.023,0,1.851-0.833,1.851-1.851c0-1.023-0.833-1.851-1.851-1.851c-1.018,0-1.851,0.833-1.851,1.851
				C18.293,20.964,19.126,21.796,20.149,21.796z M20.149,19.074c0.478,0,0.866,0.388,0.866,0.866c0,0.478-0.388,0.866-0.866,0.866
				c-0.478,0-0.866-0.388-0.866-0.866C19.282,19.462,19.671,19.074,20.149,19.074z"/>
			<path d="M18.79,7.568h2.718C21.783,7.568,22,7.346,22,7.076c0-0.27-0.223-0.492-0.492-0.492H18.79
				c-0.275,0-0.492,0.223-0.492,0.492C18.298,7.346,18.515,7.568,18.79,7.568z"/>
			<path d="M18.79,10.286h2.718c0.275,0,0.492-0.223,0.492-0.492c0-0.275-0.223-0.492-0.492-0.492H18.79
				c-0.275,0-0.492,0.223-0.492,0.492C18.293,10.068,18.515,10.286,18.79,10.286z"/>
		</g>
	</g>
	<g opacity="0.1">
		<g>
			<path d="M7.159,3.544h-6.13c-0.272,0-0.487,0.22-0.487,0.487v20.065c0,0.272,0.22,0.487,0.487,0.487h6.13
				c0.272,0,0.487-0.22,0.487-0.487V4.031C7.645,3.759,7.43,3.544,7.159,3.544z M6.671,23.608H1.52V4.517h5.152L6.671,23.608
				L6.671,23.608z"/>
			<path d="M4.094,21.582c1.011,0,1.829-0.824,1.829-1.829c0-1.011-0.824-1.829-1.829-1.829c-1.011,0-1.829,0.824-1.829,1.829
				C2.264,20.759,3.083,21.582,4.094,21.582z M4.094,18.892c0.473,0,0.856,0.384,0.856,0.856c0,0.473-0.384,0.856-0.856,0.856
				s-0.856-0.384-0.856-0.856C3.237,19.275,3.621,18.892,4.094,18.892z"/>
			<path d="M2.75,7.521h2.686c0.272,0,0.487-0.22,0.487-0.487c0-0.267-0.22-0.487-0.487-0.487H2.75c-0.272,0-0.487,0.22-0.487,0.487
				C2.264,7.301,2.479,7.521,2.75,7.521z"/>
			<path d="M2.75,10.207h2.686c0.272,0,0.487-0.22,0.487-0.487c0-0.272-0.22-0.487-0.487-0.487H2.75
				c-0.272,0-0.487,0.22-0.487,0.487C2.264,9.992,2.479,10.207,2.75,10.207z"/>
			<path d="M15.071,3.544h-6.13c-0.272,0-0.487,0.22-0.487,0.487v20.065c0,0.272,0.22,0.487,0.487,0.487h6.13
				c0.272,0,0.487-0.22,0.487-0.487V4.031C15.558,3.759,15.338,3.544,15.071,3.544z M14.584,23.608H9.428V4.517h5.152v19.091
				L14.584,23.608L14.584,23.608z"/>
			<path d="M12.006,21.582c1.011,0,1.829-0.824,1.829-1.829c0-1.011-0.824-1.829-1.829-1.829c-1.011,0-1.834,0.824-1.834,1.829
				C10.172,20.759,10.995,21.582,12.006,21.582z M12.006,18.892c0.473,0,0.856,0.384,0.856,0.856c0,0.473-0.384,0.856-0.856,0.856
				c-0.473,0-0.856-0.384-0.856-0.856C11.15,19.275,11.533,18.892,12.006,18.892z"/>
			<path d="M10.663,7.521h2.686c0.272,0,0.487-0.22,0.487-0.487c0-0.267-0.22-0.487-0.487-0.487h-2.686
				c-0.272,0-0.487,0.22-0.487,0.487C10.177,7.301,10.392,7.521,10.663,7.521z"/>
			<path d="M10.663,10.207h2.686c0.272,0,0.487-0.22,0.487-0.487c0-0.272-0.22-0.487-0.487-0.487h-2.686
				c-0.272,0-0.487,0.22-0.487,0.487C10.172,9.992,10.392,10.207,10.663,10.207z"/>
			<path d="M22.984,3.544h-6.13c-0.272,0-0.487,0.22-0.487,0.487v20.065c0,0.272,0.22,0.487,0.487,0.487h6.13
				c0.272,0,0.487-0.22,0.487-0.487V4.031C23.47,3.759,23.25,3.544,22.984,3.544z M22.492,23.608H17.34V4.517h5.152V23.608z"/>
			<path d="M19.918,21.582c1.011,0,1.829-0.824,1.829-1.829c0-1.011-0.824-1.829-1.829-1.829s-1.829,0.824-1.829,1.829
				C18.084,20.759,18.908,21.582,19.918,21.582z M19.918,18.892c0.473,0,0.856,0.384,0.856,0.856c0,0.473-0.384,0.856-0.856,0.856
				c-0.473,0-0.856-0.384-0.856-0.856C19.062,19.275,19.446,18.892,19.918,18.892z"/>
			<path d="M18.576,7.521h2.686c0.272,0,0.487-0.22,0.487-0.487c0-0.267-0.22-0.487-0.487-0.487h-2.686
				c-0.272,0-0.487,0.22-0.487,0.487C18.089,7.301,18.304,7.521,18.576,7.521z"/>
			<path d="M18.576,10.207h2.686c0.272,0,0.487-0.22,0.487-0.487c0-0.272-0.22-0.487-0.487-0.487h-2.686
				c-0.272,0-0.487,0.22-0.487,0.487C18.084,9.992,18.304,10.207,18.576,10.207z"/>
		</g>
	</g>
	<g opacity="0.1">
		<g>
			<path d="M7.1,3.544H1.024c-0.269,0-0.482,0.218-0.482,0.482v19.886c0,0.269,0.218,0.482,0.482,0.482h6.075
				c0.269,0,0.482-0.218,0.482-0.482V4.026C7.582,3.757,7.368,3.544,7.1,3.544z M6.617,23.429H1.511V4.509h5.106L6.617,23.429
				L6.617,23.429z"/>
			<path d="M4.062,21.421c1.002,0,1.813-0.816,1.813-1.813c0-1.002-0.816-1.813-1.813-1.813c-1.002,0-1.813,0.816-1.813,1.813
				C2.248,20.606,3.06,21.421,4.062,21.421z M4.062,18.755c0.469,0,0.849,0.38,0.849,0.849c0,0.469-0.38,0.849-0.849,0.849
				s-0.849-0.38-0.849-0.849C3.213,19.135,3.593,18.755,4.062,18.755z"/>
			<path d="M2.731,7.486h2.662c0.269,0,0.482-0.218,0.482-0.482c0-0.265-0.218-0.482-0.482-0.482H2.731
				c-0.269,0-0.482,0.218-0.482,0.482C2.248,7.268,2.462,7.486,2.731,7.486z"/>
			<path d="M2.731,10.148h2.662c0.269,0,0.482-0.218,0.482-0.482c0-0.269-0.218-0.482-0.482-0.482H2.731
				c-0.269,0-0.482,0.218-0.482,0.482C2.248,9.934,2.462,10.148,2.731,10.148z"/>
			<path d="M14.941,3.544H8.866c-0.269,0-0.482,0.218-0.482,0.482v19.886c0,0.269,0.218,0.482,0.482,0.482h6.075
				c0.269,0,0.482-0.218,0.482-0.482V4.026C15.424,3.757,15.206,3.544,14.941,3.544z M14.459,23.429H9.349V4.509h5.106V23.43
				L14.459,23.429L14.459,23.429z"/>
			<path d="M11.904,21.421c1.002,0,1.813-0.816,1.813-1.813c0-1.002-0.816-1.813-1.813-1.813c-1.002,0-1.818,0.816-1.818,1.813
				C10.086,20.606,10.902,21.421,11.904,21.421z M11.904,18.755c0.469,0,0.849,0.38,0.849,0.849c0,0.469-0.38,0.849-0.849,0.849
				c-0.469,0-0.849-0.38-0.849-0.849C11.055,19.135,11.435,18.755,11.904,18.755z"/>
			<path d="M10.573,7.486h2.662c0.269,0,0.482-0.218,0.482-0.482c0-0.265-0.218-0.482-0.482-0.482h-2.662
				c-0.269,0-0.482,0.218-0.482,0.482C10.091,7.268,10.304,7.486,10.573,7.486z"/>
			<path d="M10.573,10.148h2.662c0.269,0,0.482-0.218,0.482-0.482c0-0.269-0.218-0.482-0.482-0.482h-2.662
				c-0.269,0-0.482,0.218-0.482,0.482C10.086,9.934,10.304,10.148,10.573,10.148z"/>
			<path d="M22.784,3.544h-6.076c-0.269,0-0.482,0.218-0.482,0.482v19.886c0,0.269,0.218,0.482,0.482,0.482h6.075
				c0.269,0,0.482-0.218,0.482-0.482V4.026C23.266,3.757,23.048,3.544,22.784,3.544z M22.296,23.429H17.19V4.509h5.106V23.429z"/>
			<path d="M19.746,21.421c1.002,0,1.813-0.816,1.813-1.813c0-1.002-0.816-1.813-1.813-1.813s-1.813,0.816-1.813,1.813
				C17.928,20.606,18.744,21.421,19.746,21.421z M19.746,18.755c0.469,0,0.849,0.38,0.849,0.849c0,0.469-0.38,0.849-0.849,0.849
				c-0.469,0-0.849-0.38-0.849-0.849C18.897,19.135,19.278,18.755,19.746,18.755z"/>
			<path d="M18.415,7.486h2.662c0.269,0,0.482-0.218,0.482-0.482c0-0.265-0.218-0.482-0.482-0.482h-2.662
				c-0.269,0-0.482,0.218-0.482,0.482C17.933,7.268,18.146,7.486,18.415,7.486z"/>
			<path d="M18.415,10.148h2.662c0.269,0,0.482-0.218,0.482-0.482c0-0.269-0.218-0.482-0.482-0.482h-2.662
				c-0.269,0-0.482,0.218-0.482,0.482C17.928,9.934,18.146,10.148,18.415,10.148z"/>
		</g>
	</g>
	<g>
		<g>
			<path fill="#FFFFFF" d="M6.886,3.169H0.745c-0.272,0-0.487,0.221-0.487,0.487v20.1c0,0.272,0.221,0.487,0.487,0.487h6.141
				c0.272,0,0.487-0.221,0.487-0.487V3.657C7.374,3.385,7.158,3.169,6.886,3.169z M6.398,23.269H1.238V4.144h5.161L6.398,23.269
				L6.398,23.269z"/>
			<path fill="#FFFFFF" d="M3.816,21.239c1.013,0,1.833-0.825,1.833-1.833c0-1.013-0.825-1.833-1.833-1.833
				c-1.013,0-1.833,0.825-1.833,1.833C1.983,20.414,2.803,21.239,3.816,21.239z M3.816,18.544c0.474,0,0.858,0.385,0.858,0.858
				c0,0.474-0.385,0.858-0.858,0.858s-0.858-0.385-0.858-0.858C2.958,18.928,3.342,18.544,3.816,18.544z"/>
			<path fill="#FFFFFF" d="M2.47,7.153h2.691c0.272,0,0.487-0.221,0.487-0.487c0-0.267-0.221-0.487-0.487-0.487H2.47
				c-0.272,0-0.487,0.221-0.487,0.487C1.983,6.933,2.198,7.153,2.47,7.153z"/>
			<path fill="#FFFFFF" d="M2.47,9.844h2.691c0.272,0,0.487-0.221,0.487-0.487c0-0.272-0.221-0.487-0.487-0.487H2.47
				c-0.272,0-0.487,0.221-0.487,0.487C1.983,9.628,2.198,9.844,2.47,9.844z"/>
			<path fill="#FFFFFF" d="M14.813,3.169H8.672c-0.272,0-0.487,0.221-0.487,0.487v20.1c0,0.272,0.221,0.487,0.487,0.487h6.141
				c0.272,0,0.487-0.221,0.487-0.487V3.657C15.3,3.385,15.08,3.169,14.813,3.169z M14.325,23.269H9.159V4.144h5.161v19.125
				L14.325,23.269L14.325,23.269z"/>
			<path fill="#FFFFFF" d="M11.742,21.239c1.013,0,1.833-0.825,1.833-1.833c0-1.013-0.825-1.833-1.833-1.833
				c-1.013,0-1.838,0.825-1.838,1.833C9.905,20.414,10.73,21.239,11.742,21.239z M11.742,18.544c0.474,0,0.858,0.385,0.858,0.858
				c0,0.474-0.385,0.858-0.858,0.858c-0.474,0-0.858-0.385-0.858-0.858C10.885,18.928,11.269,18.544,11.742,18.544z"/>
			<path fill="#FFFFFF" d="M10.397,7.153h2.691c0.272,0,0.487-0.221,0.487-0.487c0-0.267-0.221-0.487-0.487-0.487h-2.691
				c-0.272,0-0.487,0.221-0.487,0.487S10.125,7.153,10.397,7.153z"/>
			<path fill="#FFFFFF" d="M10.397,9.844h2.691c0.272,0,0.487-0.221,0.487-0.487c0-0.272-0.221-0.487-0.487-0.487h-2.691
				c-0.272,0-0.487,0.221-0.487,0.487C9.905,9.628,10.125,9.844,10.397,9.844z"/>
			<path fill="#FFFFFF" d="M22.739,3.169h-6.141c-0.272,0-0.487,0.221-0.487,0.487v20.1c0,0.272,0.221,0.487,0.487,0.487h6.141
				c0.272,0,0.487-0.221,0.487-0.487V3.657C23.227,3.385,23.006,3.169,22.739,3.169z M22.247,23.269h-5.161V4.144h5.161V23.269z"/>
			<path fill="#FFFFFF" d="M19.669,21.239c1.013,0,1.833-0.825,1.833-1.833c0-1.013-0.825-1.833-1.833-1.833
				s-1.833,0.825-1.833,1.833C17.831,20.414,18.657,21.239,19.669,21.239z M19.669,18.544c0.474,0,0.858,0.385,0.858,0.858
				c0,0.474-0.385,0.858-0.858,0.858c-0.474,0-0.858-0.385-0.858-0.858C18.811,18.928,19.195,18.544,19.669,18.544z"/>
			<path fill="#FFFFFF" d="M18.323,7.153h2.691c0.272,0,0.487-0.221,0.487-0.487c0-0.267-0.221-0.487-0.487-0.487h-2.691
				c-0.272,0-0.487,0.221-0.487,0.487C17.836,6.933,18.051,7.153,18.323,7.153z"/>
			<path fill="#FFFFFF" d="M18.323,9.844h2.691c0.272,0,0.487-0.221,0.487-0.487c0-0.272-0.221-0.487-0.487-0.487h-2.691
				c-0.272,0-0.487,0.221-0.487,0.487C17.831,9.628,18.051,9.844,18.323,9.844z"/>
		</g>
	</g>
</g>
</svg>
