<?xml version="1.0" encoding="utf-8"?>
<!-- Generator: Adobe Illustrator 17.0.0, SVG Export Plug-In . SVG Version: 6.00 Build 0)  -->
<!DOCTYPE svg PUBLIC "-//W3C//DTD SVG 1.1//EN" "http://www.w3.org/Graphics/SVG/1.1/DTD/svg11.dtd">
<svg version="1.1" id="Layer_1" xmlns="http://www.w3.org/2000/svg" xmlns:xlink="http://www.w3.org/1999/xlink" x="0px" y="0px"
	 width="24px" height="28px" viewBox="0 0 24 28" enable-background="new 0 0 24 28" xml:space="preserve">
<g>
	<circle fill="#E6005D" cx="12" cy="14" r="11.75"/>
	<g>
		<path fill="#FFFFFF" d="M8.657,7.179H4.682c-0.176,0-0.316,0.143-0.316,0.316v13.011c0,0.176,0.143,0.316,0.316,0.316h3.975
			c0.176,0,0.315-0.143,0.315-0.316V7.495C8.973,7.319,8.833,7.179,8.657,7.179z M6.67,18.876c-0.655,0-1.187-0.534-1.186-1.186
			c0-0.652,0.531-1.186,1.186-1.186c0.652,0,1.186,0.531,1.186,1.186C7.856,18.342,7.325,18.876,6.67,18.876z M7.541,11.5H5.799
			c-0.176,0-0.316-0.14-0.316-0.316c0-0.173,0.139-0.316,0.316-0.316h1.742c0.173,0,0.316,0.139,0.316,0.316
			C7.856,11.357,7.717,11.5,7.541,11.5z M7.541,9.758H5.799c-0.176,0-0.316-0.143-0.316-0.315c0-0.173,0.139-0.316,0.316-0.316
			h1.742c0.173,0,0.316,0.142,0.316,0.316C7.856,9.616,7.717,9.758,7.541,9.758z M6.67,17.132c-0.307,0-0.556,0.249-0.555,0.555
			c0,0.306,0.249,0.555,0.555,0.555c0.306,0,0.555-0.249,0.555-0.555C7.225,17.381,6.976,17.132,6.67,17.132z"/>
		<path fill="#FFFFFF" d="M13.988,7.179h-3.975c-0.176,0-0.316,0.143-0.316,0.316v13.011c0,0.176,0.143,0.316,0.316,0.316h3.975
			c0.176,0,0.315-0.143,0.315-0.316V7.495C14.303,7.319,14.163,7.179,13.988,7.179z M12,18.876c-0.655,0-1.187-0.534-1.186-1.186
			c0-0.652,0.531-1.186,1.186-1.186c0.652,0,1.186,0.531,1.186,1.186C13.187,18.342,12.656,18.876,12,18.876z M12.871,11.5h-1.742
			c-0.176,0-0.316-0.14-0.316-0.316c0-0.173,0.139-0.316,0.316-0.316h1.742c0.173,0,0.316,0.139,0.316,0.316
			C13.187,11.357,13.047,11.5,12.871,11.5z M12.871,9.758h-1.742c-0.176,0-0.316-0.143-0.316-0.315c0-0.173,0.139-0.316,0.316-0.316
			h1.742c0.173,0,0.316,0.142,0.316,0.316C13.187,9.616,13.047,9.758,12.871,9.758z M12,17.132c-0.307,0-0.556,0.249-0.555,0.555
			c0,0.306,0.249,0.555,0.555,0.555c0.306,0,0.555-0.249,0.555-0.555C12.556,17.381,12.307,17.132,12,17.132z"/>
		<path fill="#FFFFFF" d="M19.318,7.179h-3.975c-0.176,0-0.316,0.143-0.316,0.316v13.011c0,0.176,0.143,0.316,0.316,0.316h3.975
			c0.176,0,0.315-0.143,0.315-0.316V7.495C19.634,7.319,19.494,7.179,19.318,7.179z M17.331,18.876
			c-0.655,0-1.187-0.534-1.186-1.186c0-0.652,0.531-1.186,1.186-1.186c0.652,0,1.186,0.531,1.186,1.186
			C18.517,18.342,17.986,18.876,17.331,18.876z M18.202,11.5H16.46c-0.176,0-0.316-0.14-0.316-0.316
			c0-0.173,0.139-0.316,0.316-0.316h1.742c0.173,0,0.316,0.139,0.316,0.316C18.517,11.357,18.378,11.5,18.202,11.5z M18.202,9.758
			H16.46c-0.176,0-0.316-0.143-0.316-0.315c0-0.173,0.139-0.316,0.316-0.316h1.742c0.173,0,0.316,0.142,0.316,0.316
			C18.517,9.616,18.378,9.758,18.202,9.758z M17.331,17.132c-0.307,0-0.556,0.249-0.555,0.555c0,0.306,0.249,0.555,0.555,0.555
			c0.306,0,0.555-0.249,0.555-0.555C17.886,17.381,17.638,17.132,17.331,17.132z"/>
	</g>
</g>
</svg>
