<?xml version="1.0" encoding="utf-8"?>
<!-- Generator: Adobe Illustrator 17.0.0, SVG Export Plug-In . SVG Version: 6.00 Build 0)  -->
<!DOCTYPE svg PUBLIC "-//W3C//DTD SVG 1.1//EN" "http://www.w3.org/Graphics/SVG/1.1/DTD/svg11.dtd">
<svg version="1.1" id="Layer_1" xmlns="http://www.w3.org/2000/svg" xmlns:xlink="http://www.w3.org/1999/xlink" x="0px" y="0px"
	 width="42px" height="42px" viewBox="0 0 42 42" enable-background="new 0 0 42 42" xml:space="preserve">
<g>
	<circle fill="#E6005D" cx="21" cy="21" r="20.938"/>
	<g>
		<g>
			<path fill="#FFFFFF" d="M36.148,17.457l-2.369-0.402c-0.247-0.796-0.564-1.565-0.952-2.298l1.396-1.953
				c0.593-0.832,0.501-1.967-0.226-2.686l-2.101-2.101c-0.395-0.395-0.916-0.613-1.473-0.613c-0.437,0-0.853,0.134-1.206,0.388
				l-1.96,1.396c-0.762-0.402-1.558-0.734-2.383-0.98L24.48,5.867c-0.169-1.008-1.037-1.741-2.059-1.741h-2.968
				c-1.022,0-1.889,0.734-2.059,1.741l-0.409,2.397c-0.79,0.247-1.558,0.571-2.292,0.966l-1.939-1.396
				c-0.352-0.254-0.775-0.388-1.212-0.388c-0.557,0-1.086,0.218-1.473,0.613L7.961,10.16c-0.719,0.719-0.818,1.854-0.226,2.686
				l1.41,1.981c-0.388,0.74-0.698,1.509-0.937,2.305l-2.341,0.395c-1.008,0.169-1.741,1.037-1.741,2.059v2.968
				c0,1.022,0.734,1.889,1.741,2.059l2.397,0.409c0.247,0.79,0.571,1.558,0.966,2.292l-1.389,1.932
				c-0.593,0.832-0.501,1.967,0.226,2.686l2.101,2.101c0.395,0.395,0.916,0.613,1.473,0.613c0.437,0,0.853-0.134,1.206-0.388
				l1.981-1.41c0.712,0.374,1.46,0.677,2.228,0.916l0.395,2.369c0.169,1.008,1.037,1.741,2.059,1.741h2.975
				c1.022,0,1.889-0.734,2.059-1.741l0.402-2.369c0.796-0.247,1.565-0.564,2.298-0.952l1.953,1.396
				c0.352,0.254,0.775,0.388,1.212,0.388l0,0c0.557,0,1.078-0.218,1.473-0.613l2.101-2.101c0.719-0.719,0.818-1.854,0.226-2.686
				l-1.396-1.96c0.388-0.74,0.712-1.509,0.952-2.298l2.369-0.395c1.008-0.169,1.741-1.037,1.741-2.059v-2.968
				C37.889,18.494,37.156,17.627,36.148,17.457z M35.986,22.484c0,0.092-0.064,0.169-0.155,0.183l-2.961,0.493
				c-0.374,0.064-0.67,0.339-0.762,0.698c-0.268,1.037-0.677,2.03-1.227,2.954c-0.19,0.324-0.177,0.726,0.042,1.037l1.741,2.454
				c0.049,0.07,0.042,0.177-0.021,0.239l-2.101,2.101c-0.049,0.049-0.098,0.056-0.134,0.056c-0.042,0-0.077-0.014-0.106-0.036
				l-2.446-1.741c-0.303-0.218-0.712-0.233-1.037-0.042c-0.924,0.55-1.918,0.959-2.954,1.227c-0.367,0.092-0.642,0.395-0.698,0.762
				l-0.501,2.961c-0.014,0.092-0.092,0.155-0.183,0.155h-2.968c-0.092,0-0.169-0.064-0.183-0.155l-0.493-2.961
				c-0.064-0.374-0.339-0.67-0.698-0.762c-1.008-0.261-1.981-0.663-2.891-1.184c-0.148-0.085-0.318-0.127-0.48-0.127
				c-0.19,0-0.388,0.056-0.55,0.177l-2.467,1.756c-0.036,0.021-0.07,0.036-0.106,0.036c-0.028,0-0.085-0.007-0.134-0.056
				l-2.101-2.101c-0.064-0.064-0.07-0.162-0.021-0.239l1.735-2.433c0.218-0.31,0.233-0.719,0.042-1.043
				c-0.55-0.916-0.973-1.91-1.24-2.947c-0.098-0.359-0.395-0.634-0.762-0.698l-2.98-0.509c-0.092-0.014-0.155-0.092-0.155-0.183
				v-2.968c0-0.092,0.064-0.169,0.155-0.183l2.94-0.493c0.374-0.064,0.677-0.339,0.768-0.705c0.261-1.037,0.663-2.038,1.206-2.961
				c0.19-0.324,0.169-0.726-0.049-1.029l-1.756-2.467c-0.049-0.07-0.042-0.177,0.021-0.239l2.101-2.101
				c0.049-0.049,0.098-0.056,0.134-0.056c0.042,0,0.077,0.014,0.106,0.036l2.433,1.735c0.31,0.218,0.719,0.233,1.043,0.042
				c0.916-0.55,1.91-0.973,2.947-1.24c0.359-0.098,0.634-0.395,0.698-0.762l0.508-2.982c0.014-0.092,0.092-0.155,0.183-0.155h2.968
				c0.092,0,0.169,0.064,0.183,0.155l0.493,2.94c0.064,0.374,0.339,0.677,0.705,0.768c1.065,0.268,2.08,0.683,3.024,1.24
				c0.324,0.19,0.726,0.177,1.037-0.042l2.433-1.748c0.036-0.021,0.07-0.036,0.106-0.036c0.028,0,0.085,0.007,0.134,0.056
				l2.101,2.101c0.064,0.064,0.07,0.162,0.021,0.239l-1.741,2.446c-0.218,0.303-0.233,0.712-0.042,1.037
				c0.55,0.924,0.959,1.918,1.227,2.954c0.092,0.367,0.395,0.642,0.762,0.698l2.961,0.501c0.092,0.014,0.155,0.092,0.155,0.183
				v2.968h-0.009V22.484z"/>
			<path fill="#FFFFFF" d="M21.004,13.713c-4.019,0-7.283,3.265-7.283,7.283s3.265,7.283,7.283,7.283s7.283-3.265,7.283-7.283
				S25.023,13.713,21.004,13.713z M21.004,26.376c-2.968,0-5.38-2.411-5.38-5.38s2.411-5.38,5.38-5.38s5.38,2.411,5.38,5.38
				S23.972,26.376,21.004,26.376z"/>
		</g>
	</g>
</g>
</svg>
