<?xml version="1.0" encoding="utf-8"?>
<!-- Generator: Adobe Illustrator 17.0.0, SVG Export Plug-In . SVG Version: 6.00 Build 0)  -->
<!DOCTYPE svg PUBLIC "-//W3C//DTD SVG 1.1//EN" "http://www.w3.org/Graphics/SVG/1.1/DTD/svg11.dtd">
<svg version="1.1" id="Layer_1" xmlns="http://www.w3.org/2000/svg" xmlns:xlink="http://www.w3.org/1999/xlink" x="0px" y="0px"
	 width="50px" height="50px" viewBox="0 0 50 50" enable-background="new 0 0 50 50" xml:space="preserve">
<path fill="#FFFFFF" d="M35.57,22.106c-2.724,0-5.258,0.804-7.399,2.174c-2.778-2.185-6.2-3.394-9.734-3.394
	c-8.705,0-15.788,7.082-15.788,15.788c0,0.144,0.009,0.284,0.018,0.427l0.048,1.152h19.289c1.127,6.474,6.771,11.417,13.564,11.417
	c7.599,0,13.782-6.183,13.782-13.782C49.351,28.288,43.169,22.106,35.57,22.106z M23.094,30.072
	c-0.024,0.049-0.049,0.098-0.072,0.147c-0.18,0.398-0.341,0.804-0.483,1.221c-0.014,0.041-0.032,0.081-0.044,0.123
	c-0.138,0.415-0.255,0.839-0.353,1.27c-0.011,0.046-0.025,0.092-0.035,0.138c-0.091,0.417-0.159,0.841-0.21,1.27
	c-0.007,0.061-0.021,0.119-0.028,0.18c-0.051,0.482-0.081,0.971-0.081,1.466c0,0.132,0.002,0.264,0.006,0.397H4.625
	c0.208-7.44,6.324-13.429,13.814-13.429c2.914,0,5.75,0.929,8.101,2.639c-0.045,0.04-0.085,0.086-0.13,0.126
	c-0.293,0.263-0.576,0.535-0.847,0.821c-0.068,0.072-0.134,0.145-0.2,0.22c-0.259,0.286-0.506,0.583-0.74,0.889
	c-0.055,0.072-0.109,0.144-0.162,0.218c-0.236,0.323-0.458,0.656-0.666,0.999c-0.037,0.062-0.077,0.124-0.113,0.187
	C23.468,29.315,23.273,29.689,23.094,30.072z M35.57,47.7c-6.084,0-11.105-4.624-11.741-10.543c-0.047-0.441-0.071-0.858-0.071-1.27
	c0-0.449,0.03-0.895,0.082-1.336c0.011-0.099,0.032-0.195,0.044-0.293c0.05-0.351,0.11-0.701,0.191-1.046
	c0.021-0.091,0.046-0.179,0.069-0.268c0.094-0.36,0.202-0.717,0.329-1.064c0.023-0.062,0.044-0.124,0.068-0.185
	c0.154-0.401,0.325-0.794,0.521-1.176c0.003-0.007,0.006-0.013,0.009-0.02c0.422-0.819,0.94-1.59,1.545-2.295
	c0.006-0.008,0.014-0.015,0.021-0.022c0.281-0.325,0.582-0.634,0.899-0.928c0.047-0.043,0.095-0.087,0.143-0.129
	c0.302-0.272,0.618-0.531,0.95-0.773c0.075-0.055,0.146-0.113,0.224-0.166l0.153-0.11c1.879-1.261,4.139-2,6.568-2
	c6.514,0,11.813,5.299,11.813,11.812S42.084,47.7,35.57,47.7z M14.597,19.403c0.117,0.048,0.236,0.092,0.356,0.134l0.246,0.09
	c0.097,0.037,0.195,0.074,0.3,0.106c0.952,0.296,1.947,0.449,2.959,0.451h0.002c0.341,0,0.676-0.019,0.995-0.051
	c0.121-0.011,0.242-0.03,0.363-0.051l0.192-0.03c0.148-0.02,0.296-0.04,0.445-0.072c0.097-0.021,0.191-0.045,0.286-0.07l0.233-0.059
	c0.142-0.034,0.284-0.068,0.436-0.116c0.072-0.024,0.144-0.05,0.214-0.077l0.208-0.075c0.159-0.055,0.32-0.111,0.475-0.176
	c0.066-0.028,0.13-0.059,0.245-0.116c0.21-0.094,0.419-0.19,0.651-0.314l0.116-0.072c0.231-0.131,0.46-0.266,0.679-0.411
	l0.089-0.063c2.687-1.853,4.292-4.898,4.297-8.174c0-5.474-4.453-9.927-9.926-9.927c-5.223,0-9.57,4.086-9.896,9.303L8.552,9.764
	C8.54,9.927,8.53,10.09,8.53,10.257C8.531,14.255,10.911,17.844,14.597,19.403z M10.517,9.902l0.01-0.146
	C10.789,5.575,14.272,2.3,18.458,2.3c4.388,0,7.957,3.57,7.957,7.967c-0.004,2.637-1.311,5.098-3.452,6.551l-0.094,0.063
	c-0.168,0.109-0.343,0.211-0.521,0.311l-0.101,0.064c-0.161,0.085-0.328,0.161-0.509,0.242l-0.194,0.095
	c-0.116,0.048-0.237,0.09-0.358,0.132l-0.375,0.136c-0.095,0.03-0.194,0.052-0.291,0.076l-0.289,0.073
	c-0.061,0.017-0.122,0.034-0.182,0.045c-0.099,0.021-0.201,0.034-0.301,0.046l-0.268,0.041c-0.067,0.012-0.133,0.025-0.214,0.032
	c-0.267,0.027-0.534,0.041-0.806,0.041c-0.814-0.002-1.614-0.123-2.374-0.36c-0.065-0.021-0.127-0.044-0.19-0.069l-0.288-0.104
	c-0.086-0.03-0.171-0.061-0.25-0.094c-2.953-1.25-4.861-4.126-4.861-7.33C10.5,10.138,10.509,10.019,10.517,9.902z M36.403,28.577
	h-1.809v6.394H28.2v1.809h6.394v6.394h1.809V36.78h6.394v-1.809h-6.394V28.577z"/>
</svg>
