<?xml version="1.0" encoding="utf-8"?>
<!-- Generator: Adobe Illustrator 17.0.0, SVG Export Plug-In . SVG Version: 6.00 Build 0)  -->
<!DOCTYPE svg PUBLIC "-//W3C//DTD SVG 1.1//EN" "http://www.w3.org/Graphics/SVG/1.1/DTD/svg11.dtd">
<svg version="1.1" id="Capa_1" xmlns="http://www.w3.org/2000/svg" xmlns:xlink="http://www.w3.org/1999/xlink" x="0px" y="0px"
	 width="42px" height="42px" viewBox="0 0 42 42" enable-background="new 0 0 42 42" xml:space="preserve">
<g>
	<path fill="#333333" d="M23.683,31.44c-1.479,1.479-3.886,1.479-5.365,0c-0.303-0.303-0.794-0.303-1.096,0
		c-0.303,0.303-0.303,0.794,0,1.096c1.042,1.042,2.41,1.563,3.779,1.563c1.368,0,2.737-0.521,3.779-1.563
		c0.303-0.303,0.303-0.794,0-1.096C24.476,31.137,23.985,31.137,23.683,31.44z"/>
	<path fill="#333333" d="M38.543,39.13c-1.816-2.011-1.893-7.135-1.678-12.436c0.791-0.743,1.287-1.797,1.287-2.965
		c0-1.026-0.382-1.964-1.011-2.68c0.264-5.407,0.404-9.023-1.311-12.362c-1.17-2.278-3.064-4.182-5.628-5.658
		c-2.988-1.72-6.397-2.565-9.858-2.441c-3.04,0.108-5.87,1.525-7.822,3.901c-2.52,0.15-4.813,1.521-6.046,3.641
		C6.37,8.312,6.268,8.499,6.171,8.686c-1.716,3.341-1.576,6.957-1.312,12.363c-0.628,0.716-1.01,1.654-1.01,2.679
		c0,1.168,0.495,2.222,1.286,2.965C5.35,31.995,5.273,37.119,3.457,39.13c-0.172,0.19-0.238,0.453-0.178,0.702
		c0.06,0.249,0.24,0.452,0.479,0.543c2.044,0.772,4.023,1.048,5.81,1.048c1.856,0,3.504-0.298,4.797-0.648
		c2.248-0.608,3.833-1.461,4.374-1.776c0.736,0.121,1.491,0.186,2.261,0.186c0.77,0,1.525-0.064,2.261-0.185
		c0.541,0.315,2.126,1.168,4.374,1.776c1.725,0.467,3.325,0.649,4.772,0.649c2.411,0,4.397-0.506,5.835-1.05
		c0.24-0.091,0.419-0.294,0.479-0.543C38.781,39.583,38.715,39.32,38.543,39.13z M34.857,25.329V21.48c0-0.01,0-0.02,0-0.031v-0.118
		c1.011,0.328,1.744,1.278,1.744,2.397c0,1.128-0.745,2.085-1.768,2.405C34.848,25.867,34.857,25.599,34.857,25.329z M7.55,9.394
		C7.634,9.231,7.724,9.068,7.816,8.91c1.021-1.755,2.974-2.86,5.096-2.884c0.002,0,0.008,0,0.011,0
		c0.235-0.005,0.456-0.117,0.599-0.303c1.673-2.182,4.18-3.489,6.877-3.585c3.17-0.113,6.293,0.66,9.029,2.235
		c2.301,1.325,3.991,3.014,5.022,5.023c1.373,2.672,1.414,5.58,1.188,10.575c-0.249-0.104-0.511-0.183-0.782-0.235v-0.788
		c0-0.428-0.347-0.775-0.775-0.775s-0.775,0.347-0.775,0.775v1.761c-10.678,0.114-16.459-5.029-18.001-6.638
		c-0.181-0.189-0.446-0.274-0.704-0.225c-0.258,0.049-0.473,0.224-0.573,0.467c-1.126,2.74-3.095,4.174-6.194,4.512
		c-0.393,0.043-0.691,0.375-0.691,0.771v0.142c-0.271,0.053-0.533,0.132-0.783,0.236C6.136,14.975,6.177,12.068,7.55,9.394z
		 M7.168,26.134C6.144,25.813,5.4,24.856,5.4,23.729c0-1.119,0.733-2.069,1.744-2.397v3.997C7.144,25.599,7.152,25.867,7.168,26.134
		z M5.274,39.252c1.382-2.359,1.622-6.282,1.446-11.634c0.206,0.064,0.419,0.11,0.637,0.141c0.882,4.964,4.416,9.022,9.079,10.653
		C14.193,39.377,9.948,40.656,5.274,39.252z M21,37.635c-6.786,0-12.306-5.521-12.306-12.306l0-5.061
		c2.907-0.478,4.977-1.91,6.289-4.352c1.117,1.019,2.923,2.416,5.468,3.641c3.827,1.841,8.148,2.75,12.855,2.699v3.072
		C33.307,32.114,27.786,37.635,21,37.635z M28.09,39.292c-0.994-0.266-1.852-0.587-2.529-0.879c4.665-1.631,8.2-5.689,9.082-10.654
		c0.218-0.03,0.431-0.077,0.636-0.141c-0.176,5.353,0.064,9.275,1.447,11.635C33.989,40.08,31.089,40.094,28.09,39.292z"/>
	<path fill="#333333" d="M11.735,23.031c-0.303,0.303-0.303,0.794,0,1.096c0.303,0.303,0.794,0.303,1.096,0
		c0.497-0.497,1.305-0.497,1.802,0c0.151,0.151,0.35,0.227,0.548,0.227s0.397-0.076,0.548-0.227c0.303-0.303,0.303-0.794,0-1.096
		C14.628,21.93,12.836,21.93,11.735,23.031z"/>
	<path fill="#333333" d="M30.266,24.128c0.303-0.303,0.303-0.794,0-1.096c-1.101-1.101-2.893-1.101-3.995,0
		c-0.303,0.303-0.303,0.794,0,1.096c0.303,0.303,0.794,0.303,1.096,0c0.497-0.497,1.305-0.497,1.802,0
		c0.151,0.151,0.35,0.227,0.548,0.227S30.115,24.279,30.266,24.128z"/>
</g>
</svg>
