<?xml version="1.0" encoding="utf-8"?>
<!-- Generator: Adobe Illustrator 17.0.0, SVG Export Plug-In . SVG Version: 6.00 Build 0)  -->
<!DOCTYPE svg PUBLIC "-//W3C//DTD SVG 1.1//EN" "http://www.w3.org/Graphics/SVG/1.1/DTD/svg11.dtd">
<svg version="1.1" id="Capa_1" xmlns="http://www.w3.org/2000/svg" xmlns:xlink="http://www.w3.org/1999/xlink" x="0px" y="0px"
	 width="54.667px" height="54.667px" viewBox="62.333 38.833 54.667 54.667" enable-background="new 62.333 38.833 54.667 54.667"
	 xml:space="preserve">
<g>
	<path fill="#333333" d="M110.914,55.153h-7.257l-3.406-8.514H78.665l-3.406,8.514h-1.126v-4.257h-5.108v4.257h-1.023
		c-2.254,0-4.086,1.832-4.086,4.086v25.004c0,2.269,1.846,4.115,4.115,4.115h42.854c2.269,0,4.115-1.846,4.115-4.115V59.239
		C115,56.985,113.168,55.153,110.914,55.153z M70.728,52.599h1.703v2.554h-1.703V52.599z M113.297,84.242
		c0,1.331-1.082,2.412-2.412,2.412H68.031c-1.33,0-2.412-1.082-2.412-2.412V59.239c0-1.314,1.069-2.383,2.383-2.383h1.023h5.108
		h2.279l3.406-8.514h19.281l3.406,8.514h8.41c1.314,0,2.383,1.069,2.383,2.383C113.297,59.239,113.297,84.242,113.297,84.242z"/>
	<path fill="#80007C" d="M89.458,54.301c-8.45,0-15.325,6.875-15.325,15.325s6.875,15.325,15.325,15.325s15.325-6.875,15.325-15.325
		S97.908,54.301,89.458,54.301z M89.458,83.249c-7.511,0-13.622-6.111-13.622-13.622s6.111-13.622,13.622-13.622
		c7.511,0,13.622,6.111,13.622,13.622C103.081,77.137,96.969,83.249,89.458,83.249z"/>
	<path fill="#80007C" d="M89.458,59.41c-5.634,0-10.217,4.583-10.217,10.217s4.583,10.217,10.217,10.217
		c5.634,0,10.217-4.583,10.217-10.217S95.092,59.41,89.458,59.41z M89.458,78.14c-4.695,0-8.514-3.819-8.514-8.514
		s3.819-8.514,8.514-8.514c4.695,0,8.514,3.819,8.514,8.514S94.153,78.14,89.458,78.14z"/>
	<path fill="#333333" d="M108.189,58.558c-1.878,0-3.406,1.527-3.406,3.406c0,1.878,1.527,3.406,3.406,3.406
		s3.406-1.527,3.406-3.406C111.594,60.086,110.067,58.558,108.189,58.558z M108.189,63.667c-0.939,0-1.703-0.764-1.703-1.703
		s0.764-1.703,1.703-1.703c0.939,0,1.703,0.764,1.703,1.703S109.128,63.667,108.189,63.667z"/>
</g>
</svg>
