<?xml version="1.0" encoding="utf-8"?>
<!-- Generator: Adobe Illustrator 17.0.0, SVG Export Plug-In . SVG Version: 6.00 Build 0)  -->
<!DOCTYPE svg PUBLIC "-//W3C//DTD SVG 1.1//EN" "http://www.w3.org/Graphics/SVG/1.1/DTD/svg11.dtd">
<svg version="1.1" id="Layer_1" xmlns="http://www.w3.org/2000/svg" xmlns:xlink="http://www.w3.org/1999/xlink" x="0px" y="0px"
	 width="42px" height="42px" viewBox="0 0 42 42" enable-background="new 0 0 42 42" xml:space="preserve">
<g>
	<path fill="#FFFFFF" d="M37.521,10.661h-5.588L29.31,4.106H12.69l-2.622,6.556H9.2V7.383H5.267v3.278H4.479
		c-1.735,0-3.146,1.411-3.146,3.146v19.252c0,1.747,1.421,3.168,3.168,3.168h32.997c1.747,0,3.168-1.421,3.168-3.168V13.807
		C40.667,12.072,39.256,10.661,37.521,10.661z M6.578,8.694h1.311v1.967H6.578V8.694z M39.356,33.059
		c0,1.025-0.833,1.857-1.857,1.857H4.502c-1.024,0-1.857-0.833-1.857-1.857V13.807c0-1.012,0.823-1.835,1.835-1.835h0.787H9.2h1.755
		l2.622-6.556h14.846l2.622,6.556h6.476c1.012,0,1.835,0.823,1.835,1.835C39.356,13.807,39.356,33.059,39.356,33.059z"/>
	<path fill="#FFFFFF" d="M21,10.006c-6.506,0-11.8,5.294-11.8,11.8s5.294,11.8,11.8,11.8s11.8-5.294,11.8-11.8
		S27.506,10.006,21,10.006z M21,32.294c-5.783,0-10.489-4.706-10.489-10.489S15.217,11.317,21,11.317s10.489,4.706,10.489,10.489
		S26.783,32.294,21,32.294z"/>
	<path fill="#FFFFFF" d="M21,13.939c-4.338,0-7.867,3.529-7.867,7.867s3.529,7.867,7.867,7.867s7.867-3.529,7.867-7.867
		S25.338,13.939,21,13.939z M21,28.361c-3.615,0-6.556-2.941-6.556-6.556S17.385,15.25,21,15.25s6.556,2.941,6.556,6.556
		S24.615,28.361,21,28.361z"/>
	<path fill="#FFFFFF" d="M35.422,13.283c-1.446,0-2.622,1.176-2.622,2.622s1.176,2.622,2.622,2.622s2.622-1.176,2.622-2.622
		S36.868,13.283,35.422,13.283z M35.422,17.217c-0.723,0-1.311-0.588-1.311-1.311c0-0.723,0.588-1.311,1.311-1.311
		c0.723,0,1.311,0.588,1.311,1.311C36.733,16.629,36.145,17.217,35.422,17.217z"/>
</g>
</svg>
