<?xml version="1.0" encoding="utf-8"?>
<!-- Generator: Adobe Illustrator 17.0.0, SVG Export Plug-In . SVG Version: 6.00 Build 0)  -->
<!DOCTYPE svg PUBLIC "-//W3C//DTD SVG 1.1//EN" "http://www.w3.org/Graphics/SVG/1.1/DTD/svg11.dtd">
<svg version="1.1" id="Capa_1" xmlns="http://www.w3.org/2000/svg" xmlns:xlink="http://www.w3.org/1999/xlink" x="0px" y="0px"
	 width="42px" height="42px" viewBox="0 0 42 42" enable-background="new 0 0 42 42" xml:space="preserve">
<g>
	<g>
		<rect x="14.255" y="15.976" fill="#FFFFFF" width="1.418" height="1.418"/>
		<rect x="18.231" y="15.976" fill="#FFFFFF" width="1.418" height="1.418"/>
		<rect x="22.182" y="15.976" fill="#FFFFFF" width="1.418" height="1.418"/>
		<rect x="26.182" y="15.976" fill="#FFFFFF" width="1.418" height="1.418"/>
	</g>
	<g>
		<rect x="14.255" y="19.903" fill="#FFFFFF" width="1.418" height="1.418"/>
		<rect x="10.255" y="19.903" fill="#FFFFFF" width="1.418" height="1.418"/>
		<rect x="6.207" y="19.903" fill="#FFFFFF" width="1.418" height="1.418"/>
		<rect x="18.231" y="19.903" fill="#FFFFFF" width="1.418" height="1.418"/>
		<rect x="22.182" y="19.903" fill="#FFFFFF" width="1.418" height="1.418"/>
		<rect x="26.182" y="19.903" fill="#FFFFFF" width="1.418" height="1.418"/>
	</g>
	<g>
		<rect x="14.255" y="23.927" fill="#FFFFFF" width="1.418" height="1.418"/>
		<rect x="10.255" y="23.927" fill="#FFFFFF" width="1.418" height="1.418"/>
		<rect x="6.207" y="23.927" fill="#FFFFFF" width="1.418" height="1.418"/>
		<rect x="18.231" y="23.927" fill="#FFFFFF" width="1.418" height="1.418"/>
		<rect x="22.182" y="23.927" fill="#FFFFFF" width="1.418" height="1.418"/>
		<rect x="26.182" y="23.927" fill="#333333" width="1.418" height="1.418"/>
	</g>
	<path fill="#FFFFFF" d="M31.999,19.696c-4.288,0-7.764,3.476-7.764,7.764c0,4.288,3.476,7.764,7.764,7.764
		c4.288,0,7.764-3.476,7.764-7.764C39.763,23.172,36.287,19.696,31.999,19.696z M33.167,30.952h-0.913l-0.002-6.102h-0.021
		l-1.214,0.655l-0.183-0.719l1.527-0.817h0.806V30.952z"/>
	<path fill="#FFFFFF" d="M23.401,6.776h-1.164v3.709h1.164V6.776z M25.946,7.964v1.164h4.509v10.723
		c0.378-0.076,0.768-0.116,1.163-0.135V7.964H25.946z M3.401,30.461V9.128h4.364V7.964H2.237v23.66h23.216
		c-0.235-0.369-0.445-0.755-0.616-1.163H3.401z M11.401,6.776h-1.164v3.709h1.164V6.776z M19.692,7.867h-5.77v1.164h5.77V7.867z"/>
</g>
</svg>
