<?xml version="1.0" encoding="utf-8"?>
<!-- Generator: Adobe Illustrator 17.0.0, SVG Export Plug-In . SVG Version: 6.00 Build 0)  -->
<!DOCTYPE svg PUBLIC "-//W3C//DTD SVG 1.1//EN" "http://www.w3.org/Graphics/SVG/1.1/DTD/svg11.dtd">
<svg style="fill:#dc1a32;" version="1.1" id="Layer_1" xmlns="http://www.w3.org/2000/svg" xmlns:xlink="http://www.w3.org/1999/xlink" x="0px" y="0px"
	 width="42px" height="42px" viewBox="0 0 42 42" enable-background="new 0 0 42 42" xml:space="preserve">
<g>
	<circle cx="21" cy="21" r="16.333"/>
	<g>
		<path fill="#fff" d="M19.807,17.22h-0.508c-0.052,0-0.093-0.014-0.124-0.043s-0.046-0.07-0.046-0.119s0.015-0.089,0.046-0.119
			c0.03-0.028,0.072-0.043,0.125-0.043h2.84v13.658h0.56c0.052,0,0.093,0.015,0.124,0.043c0.03,0.03,0.046,0.074,0.046,0.133
			c0,0.041-0.015,0.076-0.046,0.106c-0.03,0.03-0.073,0.043-0.125,0.043h-3.4c-0.087-0.059-0.13-0.113-0.13-0.163
			c0-0.059,0.043-0.113,0.13-0.163h0.508V17.22z M19.625,12.49c0-0.374,0.135-0.695,0.404-0.964
			c0.269-0.269,0.586-0.404,0.951-0.404c0.391,0,0.721,0.133,0.99,0.398c0.269,0.265,0.404,0.589,0.404,0.971
			s-0.135,0.708-0.404,0.977c-0.269,0.269-0.595,0.404-0.977,0.404c-0.374,0-0.695-0.135-0.964-0.404
			C19.76,13.198,19.625,12.872,19.625,12.49z"/>
	</g>
</g>
</svg>
