<?xml version="1.0" encoding="utf-8"?>
<!-- Generator: Adobe Illustrator 17.0.0, SVG Export Plug-In . SVG Version: 6.00 Build 0)  -->
<!DOCTYPE svg PUBLIC "-//W3C//DTD SVG 1.1//EN" "http://www.w3.org/Graphics/SVG/1.1/DTD/svg11.dtd">
<svg version="1.1" id="Layer_1" xmlns="http://www.w3.org/2000/svg" xmlns:xlink="http://www.w3.org/1999/xlink" x="0px" y="0px"
	 width="42px" height="42px" viewBox="0 0 42 42" enable-background="new 0 0 42 42" xml:space="preserve">
<g>
	<g>
		<g>
			<path fill="#333333" d="M10.515,1.757c-3.007,0-5.453,2.446-5.453,5.453s2.446,5.453,5.453,5.453
				c3.007,0,5.453-2.446,5.453-5.453C15.968,4.203,13.522,1.757,10.515,1.757z M10.515,2.969c1.843,0,3.414,1.182,3.998,2.827
				h-2.008l-0.416-0.833C11.943,4.671,11.65,4.49,11.323,4.49c-0.326,0-0.62,0.181-0.766,0.473l-0.417,0.833H6.518
				C7.101,4.15,8.673,2.969,10.515,2.969z M10.515,11.45c-2.338,0-4.241-1.902-4.241-4.241c0-0.068,0.002-0.135,0.005-0.202h4.236
				c0.229,0,0.439-0.13,0.542-0.335l0.266-0.532l0.266,0.532c0.103,0.205,0.312,0.335,0.542,0.335h2.62
				c0.003,0.067,0.005,0.134,0.005,0.202C14.756,9.548,12.854,11.45,10.515,11.45z"/>
		</g>
	</g>
	<g>
		<g>
			<path fill="#333333" d="M23.718,23.91l-5.072-9.027c-0.63-1.121-1.819-1.817-3.105-1.817H5.489c-2.085,0-3.657,1.649-3.657,3.837
				v8.886c0,1.04,0.719,1.916,1.686,2.156l-0.877,2.49c-0.065,0.185-0.037,0.391,0.077,0.551c0.114,0.16,0.298,0.256,0.494,0.256
				h2.659v6.664c0,1.225,0.997,2.221,2.221,2.221s2.221-0.997,2.221-2.221v-6.664h0.404v6.664c0,1.225,0.997,2.221,2.221,2.221
				s2.221-0.997,2.221-2.221v-6.664h2.592c0.196,0,0.379-0.094,0.493-0.254c0.114-0.159,0.144-0.363,0.08-0.548l-2.178-6.367v-4.215
				l3.744,6.311c0.302,0.511,0.786,0.873,1.36,1.02c0.184,0.047,0.37,0.07,0.555,0.07c0.393,0,0.781-0.105,1.128-0.311
				c0.511-0.302,0.873-0.785,1.02-1.36C24.102,25.014,24.017,24.419,23.718,23.91z M9.102,37.906c0,0.557-0.453,1.01-1.01,1.01
				s-1.01-0.453-1.01-1.01v-6.664h2.019V37.906z M13.949,37.906c0,0.557-0.453,1.01-1.01,1.01c-0.557,0-1.01-0.453-1.01-1.01v-6.664
				h2.019V37.906z M16.905,30.03H4.068l1.993-5.655c0.023-0.065,0.035-0.133,0.035-0.202v-3.281c0-0.335-0.271-0.606-0.606-0.606
				s-0.606,0.271-0.606,0.606v3.177l-0.958,2.72c-0.496-0.063-0.882-0.487-0.882-1.001v-8.886c0-1.271,0.758-2.276,1.84-2.55v3.588
				c0,0.335,0.271,0.606,0.606,0.606s0.606-0.271,0.606-0.606v-3.663h8.841v9.896c0,0.067,0.011,0.133,0.033,0.196L16.905,30.03z
				 M22.781,25.286c-0.067,0.261-0.232,0.481-0.464,0.618c-0.232,0.137-0.504,0.176-0.765,0.109
				c-0.261-0.067-0.481-0.232-0.619-0.464l-4.786-8.067v-3.125c0.604,0.162,1.129,0.56,1.442,1.119l5.075,9.033
				c0.002,0.004,0.005,0.008,0.007,0.012C22.809,24.753,22.848,25.025,22.781,25.286z"/>
		</g>
	</g>
	<g>
		<g>
			<path fill="#80007F" d="M33.531,19.932c-1.997,0-3.621,1.625-3.621,3.622c0,1.997,1.625,3.621,3.621,3.621
				s3.622-1.625,3.622-3.621C37.153,21.557,35.528,19.932,33.531,19.932z M33.531,25.963c-1.329,0-2.41-1.081-2.41-2.41
				c0-1.329,1.081-2.41,2.41-2.41c1.329,0,2.41,1.081,2.41,2.41C35.941,24.882,34.86,25.963,33.531,25.963z"/>
		</g>
	</g>
	<g>
		<g>
			<path fill="#80007F" d="M38.095,27.974h-1.548h-5.705l-2.071-3.148c-0.006-0.008-0.012-0.017-0.017-0.025
				c-0.689-0.94-2.014-1.145-2.954-0.456c-0.938,0.687-1.144,2.007-0.462,2.947l4.572,6.638v1.687v2.513
				c0,1.165,0.948,2.114,2.114,2.114c0.59,0,1.124-0.243,1.508-0.634c0.384,0.391,0.918,0.634,1.508,0.634
				c1.166,0,2.114-0.948,2.114-2.114v-2.11c0.274,0.13,0.579,0.203,0.902,0.203c1.165,0,2.114-0.948,2.114-2.114v-4.061
				C40.168,28.904,39.238,27.974,38.095,27.974z M29.91,31.793l-3.579-5.196c-0.003-0.005-0.007-0.01-0.01-0.014
				c-0.294-0.401-0.207-0.967,0.195-1.261c0.398-0.291,0.957-0.208,1.253,0.184l2.142,3.255L29.91,31.793L29.91,31.793z
				 M32.925,38.129c0,0.497-0.405,0.902-0.902,0.902c-0.497,0-0.902-0.405-0.902-0.902v-1.907h1.804L32.925,38.129L32.925,38.129z
				 M31.121,35.011v-1.274c0-0.001,0-0.001,0-0.002v-4.548h4.82v4.923v0.902h-2.41H31.121z M35.941,38.129L35.941,38.129
				c0,0.497-0.405,0.902-0.902,0.902c-0.497,0-0.902-0.405-0.902-0.902v-1.907h1.804V38.129z M38.957,34.109
				c0,0.497-0.405,0.902-0.902,0.902c-0.497,0-0.902-0.405-0.902-0.902v-4.923h0.942c0.475,0,0.862,0.387,0.862,0.862L38.957,34.109
				L38.957,34.109z"/>
		</g>
	</g>
</g>
</svg>
