<?xml version="1.0" encoding="utf-8"?>
<!-- Generator: Adobe Illustrator 17.0.0, SVG Export Plug-In . SVG Version: 6.00 Build 0)  -->
<!DOCTYPE svg PUBLIC "-//W3C//DTD SVG 1.1//EN" "http://www.w3.org/Graphics/SVG/1.1/DTD/svg11.dtd">
<svg version="1.1" id="Layer_1" xmlns="http://www.w3.org/2000/svg" xmlns:xlink="http://www.w3.org/1999/xlink" x="0px" y="0px"
	 width="42px" height="42px" viewBox="0 0 42 42" enable-background="new 0 0 42 42" xml:space="preserve">
<g>
	<g>
		<g>
			<path fill="#333333" d="M19.9,23.383c-0.533-0.438-1.211-0.687-1.976-0.687c-0.766,0-1.519,0.249-2.051,0.687
				c-0.212,0.174-0.242,0.486-0.068,0.698c0.174,0.211,0.486,0.242,0.698,0.068c0.351-0.288,0.893-0.462,1.422-0.462
				c0.529,0,0.996,0.174,1.347,0.462c0.211,0.174,0.524,0.143,0.698-0.068C20.142,23.87,20.112,23.557,19.9,23.383z"/>
		</g>
	</g>
	<g>
		<g>
			<path fill="#333333" d="M15.679,19.973c-0.274,0-0.496,0.222-0.496,0.496v0.566c0,0.274,0.222,0.496,0.496,0.496
				s0.496-0.222,0.496-0.496v-0.566C16.175,20.195,15.953,19.973,15.679,19.973z"/>
		</g>
	</g>
	<g>
		<g>
			<path fill="#333333" d="M20.093,19.973c-0.274,0-0.496,0.222-0.496,0.496v0.566c0,0.274,0.222,0.496,0.496,0.496
				c0.274,0,0.496-0.222,0.496-0.496v-0.566C20.589,20.195,20.367,19.973,20.093,19.973z"/>
		</g>
	</g>
	<g>
		<g>
			<path fill="#333333" d="M21.767,10.138c0.008-0.083,0.013-0.166,0.013-0.248c0-1.679-1.747-3.045-3.894-3.045
				c-2.147,0-3.894,1.366-3.894,3.045c0,0.083,0.004,0.166,0.013,0.248c-2.374,1.354-3.977,3.909-3.977,6.831v2.832
				c0,0.73,0.483,1.349,1.146,1.556c0.116,1.868,0.998,3.595,2.461,4.789c0.292,0.239,0.601,0.449,0.924,0.633v1.034
				c0,0.459-0.255,0.871-0.665,1.076l-4.918,2.459c-0.748,0.374-1.213,1.126-1.213,1.963v2.348c0,0.407,0.23,0.76,0.566,0.939v3.592
				c0,0.274,0.222,0.496,0.496,0.496s0.496-0.222,0.496-0.496v-3.469h1.84v3.469c0,0.274,0.222,0.496,0.496,0.496
				s0.496-0.222,0.496-0.496v-5.098c0-0.274-0.222-0.496-0.496-0.496s-0.496,0.222-0.496,0.496v0.637H8.824
				c-0.039,0-0.071-0.032-0.071-0.071v-2.348c0-0.459,0.255-0.871,0.665-1.076l3.607-1.804c0.74,1.323,2.191,2.696,2.255,2.757
				c0.096,0.09,0.218,0.135,0.34,0.135c0.132,0,0.264-0.052,0.361-0.156c0.188-0.199,0.178-0.513-0.021-0.701
				c-0.015-0.014-1.376-1.302-2.047-2.479l0.423-0.212c0.748-0.374,1.213-1.126,1.213-1.963V27.24
				c0.747,0.275,1.541,0.419,2.349,0.419c0.464,0,0.932-0.047,1.398-0.142c1.492-0.304,2.85-1.141,3.823-2.355
				c0.967-1.207,1.497-2.714,1.492-4.243c-0.008-2.934-2.235-3.453-4.813-4.054c-1.255-0.293-2.678-0.624-4.095-1.267
				c-0.473-0.214-1.026-0.065-1.317,0.355c-0.963,1.391-1.983,2.221-2.73,2.221c-0.226,0-0.441,0.046-0.637,0.13V16.97
				c0-3.787,3.081-6.867,6.867-6.867s6.867,3.081,6.867,6.867v1.133c0,0.274,0.222,0.496,0.496,0.496
				c0.274,0,0.496-0.222,0.496-0.496V16.97C25.745,14.047,24.141,11.492,21.767,10.138z M11.656,19.165
				c1.489,0,2.86-1.659,3.545-2.648c0.013-0.018,0.032-0.026,0.053-0.026c0.014,0,0.028,0.003,0.04,0.009
				c1.507,0.683,2.98,1.027,4.28,1.33c2.729,0.636,4.041,1.034,4.047,3.091c0.004,1.304-0.449,2.589-1.275,3.62
				c-0.828,1.034-1.982,1.746-3.247,2.004c-1.733,0.353-3.497-0.072-4.837-1.167c-1.341-1.095-2.11-2.715-2.11-4.444
				c0-0.274-0.222-0.496-0.496-0.496c-0.351,0-0.637-0.286-0.637-0.637C11.019,19.45,11.305,19.165,11.656,19.165z M17.886,9.111
				c-1.018,0-1.99,0.194-2.884,0.548c0.163-1.024,1.394-1.822,2.884-1.822c1.49,0,2.721,0.798,2.884,1.822
				C19.877,9.306,18.904,9.111,17.886,9.111z"/>
		</g>
	</g>
	<g>
		<g>
			<path fill="#80007F" d="M31.001,26.511c-1.297-1.297-3.409-1.297-4.706,0c-1.297,1.297-1.297,3.409,0,4.706
				c0.649,0.649,1.501,0.973,2.353,0.973c0.852,0,1.704-0.324,2.353-0.973C32.298,29.919,32.298,27.808,31.001,26.511z M30.3,30.516
				c-0.911,0.911-2.393,0.911-3.304,0c-0.911-0.911-0.911-2.393,0-3.304c0.455-0.455,1.054-0.683,1.652-0.683
				c0.598,0,1.196,0.228,1.652,0.683C31.21,28.123,31.21,29.605,30.3,30.516z"/>
		</g>
	</g>
	<g>
		<g>
			<circle fill="#80007F" cx="27.842" cy="28.063" r="0.496"/>
		</g>
	</g>
	<g>
		<g>
			<circle fill="#80007F" cx="29.445" cy="29.66" r="0.496"/>
		</g>
	</g>
	<g>
		<path fill="#333333" d="M14.337,20.166c-0.197,0-0.372-0.142-0.407-0.342c-0.04-0.226,0.11-0.44,0.336-0.48
			c0.906-0.16,1.262-1.227,1.266-1.237c0.07-0.217,0.302-0.337,0.521-0.267c0.217,0.07,0.337,0.301,0.269,0.518
			c-0.02,0.064-0.506,1.554-1.911,1.802C14.386,20.165,14.361,20.166,14.337,20.166z"/>
	</g>
	<g>
		<path fill="#333333" d="M19.334,18.073c0-0.197,0.142-0.372,0.342-0.407c0.226-0.04,0.44,0.11,0.48,0.336
			c0.16,0.906,1.227,1.262,1.237,1.266c0.217,0.07,0.337,0.302,0.267,0.521c-0.07,0.217-0.301,0.337-0.518,0.269
			c-0.064-0.02-1.554-0.506-1.802-1.911C19.335,18.122,19.334,18.097,19.334,18.073z"/>
	</g>
	<g>
		<path fill="#80007F" d="M20.664,5.274c-0.126,0-0.253-0.047-0.35-0.143c-0.197-0.193-0.201-0.51-0.008-0.707l1.465-1.494
			c0.194-0.196,0.511-0.201,0.707-0.007c0.197,0.193,0.201,0.51,0.008,0.707l-1.465,1.494C20.923,5.224,20.794,5.274,20.664,5.274z"
			/>
	</g>
	<g>
		<path fill="#80007F" d="M14.652,5.302c-0.125,0-0.249-0.046-0.346-0.139l-1.511-1.447c-0.2-0.191-0.207-0.508-0.016-0.707
			c0.19-0.2,0.508-0.206,0.707-0.016l1.511,1.447c0.2,0.191,0.207,0.508,0.016,0.707C14.915,5.25,14.784,5.302,14.652,5.302z"/>
	</g>
	<g>
		<path fill="#80007F" d="M23.222,7.668c-0.164,0-0.326-0.082-0.421-0.23c-0.149-0.232-0.081-0.542,0.151-0.691l1.763-1.128
			c0.229-0.148,0.542-0.082,0.69,0.152c0.149,0.232,0.081,0.542-0.151,0.691l-1.763,1.128C23.408,7.643,23.314,7.668,23.222,7.668z"
			/>
	</g>
	<g>
		<path fill="#80007F" d="M12.466,7.532c-0.101,0-0.202-0.03-0.29-0.093l-1.704-1.215c-0.225-0.161-0.277-0.473-0.117-0.698
			c0.161-0.225,0.473-0.276,0.698-0.117l1.704,1.215c0.225,0.161,0.277,0.473,0.117,0.698C12.776,7.459,12.622,7.532,12.466,7.532z"
			/>
	</g>
	<g>
		<path fill="#80007F" d="M17.653,4.824c0,0-0.001,0-0.001,0c-0.276-0.001-0.5-0.226-0.499-0.501l0.008-2.512
			c0.001-0.277,0.255-0.46,0.501-0.499c0.276,0.001,0.5,0.226,0.499,0.501l-0.008,2.512C18.152,4.602,17.928,4.824,17.653,4.824z"/>
	</g>
	<path fill="none" d="M19.163,31.84c-1.794,1.794-1.794,4.714,0,6.508c1.794,1.794,4.714,1.794,6.508,0l0.083-0.083l-0.018-0.031
		c0,0-2.047-0.203-3.391-0.922s-1.134-4.256,0.964-4.581c-1.187-0.926-2.172-1.864-2.675-2.363L19.163,31.84z"/>
	<path fill="none" d="M31.901,32.118c0.869-0.869,1.348-2.025,1.348-3.254c0-1.229-0.479-2.385-1.348-3.254
		c-1.794-1.794-4.714-1.794-6.508,0l-4.057,4.057c0.56,0.554,1.752,1.685,3.115,2.685c0.003,0,0.005,0,0.008,0
		c0.322-0.105,0.418-0.133,0.418-0.133s3.172-0.672,4.188,1.375c0.096,1.02,0.084,1.188,0.079,1.214l0.024,0.044L31.901,32.118z"/>
	<path fill="#80007F" d="M25.671,38.348c-1.794,1.794-4.714,1.794-6.508,0c-1.794-1.794-1.794-4.714,0-6.508l1.472-1.472
		c0.502,0.499,1.488,1.437,2.675,2.363c0.553-0.185,0.911-0.302,1.149-0.38c-0.003,0-0.005,0-0.008,0
		c-1.363-1.001-2.555-2.131-3.115-2.685l4.057-4.057c1.794-1.794,4.714-1.794,6.508,0c0.869,0.869,1.348,2.025,1.348,3.254
		c0,1.229-0.479,2.385-1.348,3.254l-2.734,2.734l-0.024-0.044c-0.001,0.003-0.001,0.005-0.001,0.005l0.52,0.947l2.94-2.94
		c2.181-2.181,2.181-5.729,0-7.91c-2.181-2.181-5.729-2.181-7.91,0l-6.23,6.23c-2.181,2.181-2.181,5.729,0,7.91
		c1.09,1.09,2.523,1.636,3.955,1.636c1.39,0,2.777-0.517,3.854-1.544l-0.517-0.876L25.671,38.348z"/>
	<path fill="#333333" d="M27.09,40.447c0.141,0.235,0.445,0.311,0.68,0.17c0.235-0.141,0.311-0.445,0.17-0.68l-1.534-2.557
		c-0.191-0.318-0.54-0.516-0.911-0.516h-0.812c-0.497,0-0.975-0.211-1.31-0.58c-0.339-0.373-0.5-0.858-0.451-1.366
		c0.085-0.894,0.902-1.594,1.859-1.594h1.043c0.861,0,1.649,0.471,2.057,1.229l3.163,5.874c0.09,0.166,0.26,0.261,0.437,0.261
		c0.079,0,0.16-0.019,0.235-0.059c0.241-0.13,0.331-0.43,0.201-0.672l-2.258-4.193l0.004-0.004l-0.52-0.947c0,0,0-0.001,0.001-0.005
		l-0.39-0.725c-0.581-1.079-1.704-1.75-2.93-1.75H24.78c-0.108,0-0.215,0.007-0.321,0.019c-0.238,0.077-0.596,0.195-1.149,0.38
		c-0.755,0.44-1.291,1.205-1.375,2.093c-0.074,0.777,0.183,1.552,0.705,2.127c0.522,0.575,1.267,0.904,2.044,0.904h0.812
		c0.025,0,0.048,0.013,0.061,0.034l0.215,0.359l-0.016,0.016l0.517,0.876c0.007-0.007,0.016-0.012,0.024-0.019L27.09,40.447z"/>
</g>
</svg>
