<?xml version="1.0" encoding="utf-8"?>
<!-- Generator: Adobe Illustrator 17.0.0, SVG Export Plug-In . SVG Version: 6.00 Build 0)  -->
<!DOCTYPE svg PUBLIC "-//W3C//DTD SVG 1.1//EN" "http://www.w3.org/Graphics/SVG/1.1/DTD/svg11.dtd">
<svg version="1.1" id="Layer_1" xmlns="http://www.w3.org/2000/svg" xmlns:xlink="http://www.w3.org/1999/xlink" x="0px" y="0px"
	 width="42px" height="42px" viewBox="0 0 42 42" enable-background="new 0 0 42 42" xml:space="preserve">
<g>
	<path fill="#FFFFFF" d="M40.584,19h-4.663c-0.429,0-0.8,0.233-1.003,0.579l-7.917-0.109l-2.689-4.631l-3.101,9.634L17.15,12.664
		L13.57,20H7.939c-0.213,0-0.547-1-0.927-1H1.416c-0.644,0-1.166,0.856-1.166,1.5S0.772,22,1.416,22h5.596c0.38,0,0.715,0,0.927-1
		h6.503l2.48-4.892l4.332,12.718l3.428-10.608l1.508,2.618l8.901-0.032C35.302,21.02,35.596,21,35.921,21h4.663
		c0.644,0,1.166-0.356,1.166-1S41.228,19,40.584,19z"/>
	<g>
		<path fill="#FFFFFF" d="M20.672,35.387l-0.45-0.404C18.666,33.585,4.998,21.18,4.298,16.14c-0.362-2.606,0.3-4.963,1.913-6.816
			c1.786-2.051,4.542-3.227,7.562-3.227c2.619,0,5.139,1.041,6.994,2.874c1.856-1.833,4.373-2.874,6.994-2.874
			c3.078,0,6.194,1.438,8.134,3.754c1.557,1.859,2.197,4.102,1.803,6.317C36.655,22.024,21.77,34.473,21.137,35L20.672,35.387z
			 M13.772,7.495c-2.615,0-4.986,1.001-6.507,2.747c-1.34,1.539-1.887,3.512-1.582,5.705c0.515,3.706,10.615,13.577,15.023,17.587
			c4.501-3.805,14.85-13.322,15.615-17.614c0.411-2.307-0.588-4.086-1.498-5.173c-1.681-2.007-4.387-3.253-7.061-3.253
			c-2.42,0-4.738,1.033-6.358,2.834l-0.676,0.791l-0.629-0.826C18.481,8.515,16.175,7.495,13.772,7.495z"/>
	</g>
</g>
</svg>
