<?xml version="1.0" encoding="utf-8"?>
<!-- Generator: Adobe Illustrator 17.0.0, SVG Export Plug-In . SVG Version: 6.00 Build 0)  -->
<!DOCTYPE svg PUBLIC "-//W3C//DTD SVG 1.1//EN" "http://www.w3.org/Graphics/SVG/1.1/DTD/svg11.dtd">
<svg version="1.1" id="Layer_1" xmlns="http://www.w3.org/2000/svg" xmlns:xlink="http://www.w3.org/1999/xlink" x="0px" y="0px"
	 width="50px" height="50px" viewBox="0 0 50 50" enable-background="new 0 0 50 50" xml:space="preserve">
<g>
	<g>
		<path fill="#E75785" d="M44.97,24.736c0,10.992-8.91,19.902-19.902,19.902c-10.994,0-19.904-8.91-19.904-19.902
			c0-10.992,8.91-19.902,19.904-19.902C36.06,4.834,44.97,13.744,44.97,24.736"/>
		<path fill="#E43B79" d="M24.994,26.77c-5.825-6.297-10.944-7.228-18.857-7.704C8.749,11.117,16.225,5.377,25.047,5.377
			c10.991,0,19.902,8.91,19.902,19.904c0,3.982-1.174,7.689-3.19,10.801C38.493,34.449,34.072,36.585,24.994,26.77"/>
		<g>
			<defs>
				<path id="SVGID_1_" d="M13.624,8.357v32.757c2.091,1.446,4.475,2.504,7.041,3.066V5.293C18.099,5.854,15.715,6.911,13.624,8.357
					"/>
			</defs>
			<clipPath id="SVGID_2_">
				<use xlink:href="#SVGID_1_"  overflow="visible"/>
			</clipPath>
			<path clip-path="url(#SVGID_2_)" fill="#E2066E" d="M14.384,6.167c0,0-0.531,6.447,0.451,9.498
				c0.982,3.053-1.853,10.113-1.074,16.031c0.641,4.875,3.178,13.496,3.178,13.496h3.726L19.295,4.845L14.384,6.167z"/>
		</g>
		<path fill="#FFF1E0" d="M25.108,4.833c-3.365,0-6.531,0.842-9.311,2.315c-0.64,3.873,1.117,8.925,1.005,11.385
			c-0.18,3.973-3.539,10.727,0.564,17.812c1.265,2.185,4.374,5.192,8.065,8.308c10.85-0.175,19.595-9.01,19.595-19.902
			C45.027,13.75,36.109,4.833,25.108,4.833z"/>
		<path fill="none" d="M5.032,24.736c0,10.992,8.911,19.902,19.903,19.902s19.902-8.91,19.902-19.902
			c0-10.992-8.91-19.902-19.902-19.902S5.032,13.744,5.032,24.736"/>
		<g>
			<defs>
				<path id="SVGID_3_" d="M15.64,20.944V42.34c2.775,1.467,5.937,2.298,9.295,2.298c10.992,0,19.902-8.91,19.902-19.902
					c0-1.296-0.125-2.565-0.361-3.792H15.64z"/>
			</defs>
			<clipPath id="SVGID_4_">
				<use xlink:href="#SVGID_3_"  overflow="visible"/>
			</clipPath>
			<path clip-path="url(#SVGID_4_)" fill="#EED1AD" d="M15.901,20.944c0,0,19.313,9.446,28.504,3.387
				c5.205-3.431-6.468,15.81-6.468,15.81l-4.578,4.937c0,0-5.493-6.066-11.86-10.524C13.803,29.165,15.901,20.944,15.901,20.944"/>
		</g>
		<path fill="#F7D5CA" d="M26.808,15.328c-2.576,1.412-9.093-0.39-7.046,7.956c0.266,1.083,0.153,0.383-0.217,1.866
			c-0.723,2.9,2.473,2.786,4.135,1.491c0.825-0.642,2.378,0.367,2.521-0.509c0.573-3.492,1.939-5.304,4.014-7.95
			C32.348,15.463,29.384,13.917,26.808,15.328"/>
		<path fill="#F3BDAF" d="M26.045,16.518c0,0-7.757-0.333-6.011,6.788c0.227,0.924,0.131,0.325-0.184,1.592
			c-0.618,2.473,2.109,2.376,3.526,1.272c0.703-0.548,2.531,0.355,2.465-0.399c-0.211-2.397,1.41-4.01,2.609-6.818
			C29.606,16.242,26.045,16.518,26.045,16.518"/>
		<g>
			<g>
				<defs>
					<rect id="SVGID_5_" x="20.647" y="22.372" width="1.146" height="1.146"/>
				</defs>
				<clipPath id="SVGID_6_">
					<use xlink:href="#SVGID_5_"  overflow="visible"/>
				</clipPath>
				<path clip-path="url(#SVGID_6_)" fill="#DF4F49" d="M21.782,22.829c0.064,0.311-0.135,0.614-0.446,0.677
					c-0.311,0.064-0.613-0.135-0.678-0.445c-0.063-0.311,0.137-0.613,0.447-0.677C21.415,22.319,21.719,22.518,21.782,22.829"/>
			</g>
			<g>
				<defs>
					<rect id="SVGID_7_" x="22.122" y="24.286" width="0.596" height="0.597"/>
				</defs>
				<clipPath id="SVGID_8_">
					<use xlink:href="#SVGID_7_"  overflow="visible"/>
				</clipPath>
				<path clip-path="url(#SVGID_8_)" fill="#DD3F40" d="M22.712,24.524c0.033,0.161-0.071,0.318-0.233,0.353
					c-0.16,0.033-0.318-0.07-0.352-0.232c-0.033-0.16,0.072-0.32,0.232-0.353C22.521,24.258,22.679,24.363,22.712,24.524"/>
			</g>
			<g>
				<defs>
					<rect id="SVGID_9_" x="23.895" y="23.056" width="1.639" height="2.361"/>
				</defs>
				<clipPath id="SVGID_10_">
					<use xlink:href="#SVGID_9_"  overflow="visible"/>
				</clipPath>
				<path clip-path="url(#SVGID_10_)" fill="#EE95AA" d="M25.531,24.143c0.051,0.248-0.839,1.22-1.086,1.272
					c-0.247,0.049-0.49-0.84-0.541-1.088s0.108-1.219,0.355-1.271C24.508,23.006,25.48,23.896,25.531,24.143"/>
			</g>
			<g>
				<defs>
					<rect id="SVGID_11_" x="25.629" y="19.255" width="1.146" height="1.146"/>
				</defs>
				<clipPath id="SVGID_12_">
					<use xlink:href="#SVGID_11_"  overflow="visible"/>
				</clipPath>
				<path clip-path="url(#SVGID_12_)" fill="#DF4F49" d="M25.88,20.302c-0.261-0.178-0.33-0.534-0.152-0.796
					c0.178-0.261,0.535-0.329,0.797-0.152c0.262,0.179,0.33,0.535,0.151,0.797C26.498,20.413,26.141,20.48,25.88,20.302"/>
			</g>
			<g>
				<defs>
					<rect id="SVGID_13_" x="27.426" y="17.663" width="0.717" height="1.039"/>
				</defs>
				<clipPath id="SVGID_14_">
					<use xlink:href="#SVGID_13_"  overflow="visible"/>
				</clipPath>
				<path clip-path="url(#SVGID_14_)" fill="#EA7494" d="M27.582,18.64c-0.164-0.111-0.206-0.334-0.095-0.498
					c0.111-0.164,0.334-0.57,0.498-0.459c0.164,0.111,0.205,0.699,0.094,0.862C27.969,18.709,27.745,18.751,27.582,18.64"/>
			</g>
			<g>
				<defs>
					<rect id="SVGID_15_" x="21.429" y="19.132" width="2.924" height="2.539"/>
				</defs>
				<clipPath id="SVGID_16_">
					<use xlink:href="#SVGID_15_"  overflow="visible"/>
				</clipPath>
				<path clip-path="url(#SVGID_16_)" fill="#DF4F49" d="M22.244,21.523c-0.555-0.379-1.064-1.501-0.686-2.056
					c0.379-0.555,1.501-0.335,2.056,0.045c0.557,0.378,1.161,1.326,0.321,1.69C23.318,21.47,22.799,21.902,22.244,21.523"/>
			</g>
			<g>
				<defs>
					<rect id="SVGID_17_" x="25.381" y="22.505" width="0.408" height="0.408"/>
				</defs>
				<clipPath id="SVGID_18_">
					<use xlink:href="#SVGID_17_"  overflow="visible"/>
				</clipPath>
				<path clip-path="url(#SVGID_18_)" fill="#DE4241" d="M25.471,22.878c-0.093-0.063-0.117-0.19-0.054-0.283
					c0.064-0.093,0.19-0.117,0.283-0.054c0.093,0.063,0.117,0.19,0.054,0.283C25.692,22.917,25.564,22.941,25.471,22.878"/>
			</g>
			<g>
				<defs>
					<rect id="SVGID_19_" x="23.313" y="18.427" width="0.408" height="0.408"/>
				</defs>
				<clipPath id="SVGID_20_">
					<use xlink:href="#SVGID_19_"  overflow="visible"/>
				</clipPath>
				<path clip-path="url(#SVGID_20_)" fill="#DA1A32" d="M23.401,18.799c-0.093-0.063-0.117-0.19-0.054-0.283
					c0.064-0.093,0.19-0.117,0.283-0.054c0.093,0.063,0.117,0.19,0.054,0.283C23.621,18.838,23.494,18.862,23.401,18.799"/>
			</g>
			<g>
				<defs>
					<rect id="SVGID_21_" x="20.832" y="25.045" width="0.596" height="0.598"/>
				</defs>
				<clipPath id="SVGID_22_">
					<use xlink:href="#SVGID_21_"  overflow="visible"/>
				</clipPath>
				<path clip-path="url(#SVGID_22_)" fill="#EE95AA" d="M20.962,25.591c-0.137-0.093-0.171-0.277-0.078-0.414
					c0.091-0.137,0.277-0.171,0.414-0.08c0.135,0.093,0.171,0.279,0.078,0.416C21.283,25.65,21.098,25.684,20.962,25.591"/>
			</g>
		</g>
		<g>
			<path fill="#D6BEDC" d="M15.426,28.718c0,0,9.993,1.286,16.146,1.013c6.154-0.273,13.089-2.969,13.089-2.969
				s-1.146,7.748-7.461,9.893c-6.314,2.145-13.728,1.813-13.728,1.813s-6.287-3.475-7.029-4.536
				C15.615,32.755,15.426,28.718,15.426,28.718"/>
			<path fill="#FFFFFF" d="M15.426,30.206c0,0,9.993,1.287,16.146,1.014c6.154-0.275,13.089-2.97,13.089-2.97
				s-1.146,7.748-7.461,9.893c-6.314,2.146-13.728,1.813-13.728,1.813s-6.287-3.474-7.029-4.536
				C15.615,34.243,15.426,30.206,15.426,30.206"/>
			<path fill="#97499C" d="M16.184,34.988c0,0,9.276,0.968,15.214,0.062c5.94-0.908,12.672-4.377,12.672-4.377
				s-2.352,7.781-8.5,11.215c-5.928,3.312-11.1,2.742-11.1,2.742s-5-0.064-5.834-1.049C17.709,42.486,16.184,34.988,16.184,34.988"
				/>
			<path fill="#D5A48D" d="M37.822,20.231c0.094,0.227,0.141,0.453,0.178,0.684c0.027,0.234,0.024,0.481-0.039,0.733
				c-0.049,0.12-0.072,0.255-0.147,0.365c-0.077,0.106-0.135,0.231-0.234,0.315c-0.098,0.082-0.183,0.185-0.291,0.243
				c-0.109,0.059-0.213,0.124-0.324,0.172l-0.156,0.069l-0.053-0.072c-0.126-0.171-0.235-0.352-0.307-0.538
				c0.204,0.075,0.372,0.153,0.522,0.24l-0.21-0.003c0.066-0.088,0.139-0.16,0.207-0.24c0.078-0.069,0.12-0.158,0.181-0.232
				c0.071-0.067,0.098-0.159,0.148-0.234c0.053-0.076,0.075-0.17,0.117-0.252c0.064-0.178,0.12-0.377,0.176-0.591
				C37.65,20.674,37.713,20.452,37.822,20.231"/>
			<path fill="#7C2875" d="M35.017,42.186c-0.177,0.092-0.429,0.213-0.648,0.252c-0.348-1.884-0.41-3.254-0.081-3.798l0.871,0.008
				c-0.139,0.354,0.282,2.151,0.387,2.723c0.033,0.183,0.063,0.345,0.085,0.477L35.017,42.186z"/>
			<path fill="#7C2875" d="M32.689,39.584c0,0,0.046-0.079,0.138-0.202c0.092-0.12,0.471-0.205,0.629-0.383
				c0.306-0.354,0.707-0.668,1.272-0.977c0.146-0.074,0.147-0.333,0.296-0.395c0.144-0.069,0.307-0.109,0.456-0.154
				c0.153-0.041,0.294-0.086,0.445-0.098c0.148-0.016,0.842-0.508,0.969-0.512c0.252-0.021-0.066,0.543,0.078,0.576
				c0.148,0.042,0.228,0.078,0.228,0.078s-0.074,0.063-0.193,0.154c-0.121,0.099-0.287,0.183-0.476,0.33
				c-0.094,0.069-0.193,0.143-0.301,0.209c-0.107,0.059-0.216,0.151-0.334,0.223c-0.234,0.14-0.486,0.3-0.75,0.439
				c-0.531,0.287-1.098,0.528-1.607,0.638c-0.243,0.064-0.453,0.075-0.606,0.078C32.78,39.593,32.689,39.584,32.689,39.584"/>
		</g>
	</g>
	<g>
		<g>
			<g>
				<path fill="#FFFFFF" d="M24.986,5.205c10.872,0,19.685,8.813,19.685,19.685c0,10.872-8.813,19.685-19.685,19.685
					S5.301,35.762,5.301,24.89C5.301,14.018,14.114,5.205,24.986,5.205 M24.986,3.205c-11.957,0-21.685,9.728-21.685,21.685
					s9.728,21.685,21.685,21.685s21.685-9.728,21.685-21.685S36.944,3.205,24.986,3.205L24.986,3.205z"/>
			</g>
			<g>
				<path fill="#B7B0AD" d="M24.946,3.281c11.934,0,21.643,9.709,21.643,21.643c0,11.934-9.709,21.643-21.643,21.643
					c-11.934,0-21.643-9.709-21.643-21.643C3.303,12.99,13.012,3.281,24.946,3.281 M24.946,1.281
					c-13.057,0-23.643,10.586-23.643,23.643c0,13.058,10.585,23.643,23.643,23.643s23.643-10.586,23.643-23.643
					C48.589,11.867,38.003,1.281,24.946,1.281L24.946,1.281z"/>
			</g>
		</g>
	</g>
</g>
</svg>
