<?xml version="1.0" encoding="utf-8"?>
<!-- Generator: Adobe Illustrator 17.0.0, SVG Export Plug-In . SVG Version: 6.00 Build 0)  -->
<!DOCTYPE svg PUBLIC "-//W3C//DTD SVG 1.1//EN" "http://www.w3.org/Graphics/SVG/1.1/DTD/svg11.dtd">
<svg version="1.1" id="Layer_1" xmlns="http://www.w3.org/2000/svg" xmlns:xlink="http://www.w3.org/1999/xlink" x="0px" y="0px"
	 width="60px" height="60px" viewBox="0 0 60 60" enable-background="new 0 0 60 60" xml:space="preserve">
<g>
	<path fill="#333333" d="M43.607,45.755v-8.486c0-7.503-6.104-13.607-13.607-13.607s-13.606,6.104-13.606,13.607v8.196
		c-1.598,0.411-2.791,1.903-2.791,3.69c0,2.101,1.645,3.811,3.666,3.811h24.714c2.021,0,3.665-1.71,3.665-3.811
		C45.648,47.662,44.811,46.381,43.607,45.755z M19.275,37.269c0-5.914,4.811-10.725,10.725-10.725s10.725,4.812,10.725,10.725v7.043
		h-21.45V37.269z M41.982,51.044H17.268c-0.962,0-1.745-0.848-1.745-1.89c0-1.043,0.783-1.891,1.745-1.891h24.714
		c0.962,0,1.745,0.848,1.745,1.891C43.727,50.196,42.944,51.044,41.982,51.044z"/>
	<g>
		<path fill="#80007F" d="M5.148,38.729c-1.92,0-3.482-1.562-3.482-3.482c0-1.92,1.562-3.482,3.482-3.482h6.123
			c1.92,0,3.482,1.562,3.482,3.482c0,1.92-1.562,3.482-3.482,3.482H5.148z M5.148,33.687c-0.861,0-1.561,0.7-1.561,1.561
			s0.7,1.561,1.561,1.561h6.123c0.861,0,1.561-0.7,1.561-1.561s-0.7-1.561-1.561-1.561H5.148z"/>
		<path fill="#80007F" d="M17.64,25.582c-0.967,0-1.865-0.385-2.527-1.084L10.9,20.054c-0.639-0.673-0.977-1.557-0.952-2.488
			c0.025-0.93,0.409-1.795,1.083-2.433c0.649-0.615,1.499-0.953,2.395-0.953c0.967,0,1.865,0.385,2.527,1.084l4.213,4.443
			c0.639,0.673,0.977,1.557,0.952,2.488c-0.025,0.93-0.409,1.795-1.083,2.433C19.387,25.243,18.536,25.582,17.64,25.582z
			 M13.426,16.099c-0.401,0-0.782,0.152-1.073,0.428c-0.625,0.592-0.651,1.582-0.059,2.206l4.213,4.443
			c0.293,0.309,0.706,0.486,1.133,0.486c0.401,0,0.782-0.152,1.073-0.428c0.625-0.592,0.651-1.582,0.059-2.206l-4.213-4.443
			C14.266,16.276,13.853,16.099,13.426,16.099z"/>
		<path fill="#80007F" d="M29.426,20.54c-1.904,0-3.466-1.601-3.483-3.57l-0.055-6.306c-0.008-0.962,0.348-1.871,1.004-2.558
			c0.652-0.683,1.521-1.064,2.447-1.072c1.934,0,3.496,1.602,3.513,3.57l0.054,6.306c0.008,0.962-0.348,1.871-1.004,2.558
			c-0.652,0.683-1.521,1.064-2.447,1.072H29.426z M29.357,9.041c-0.419,0.004-0.811,0.175-1.104,0.482
			c-0.289,0.303-0.446,0.703-0.443,1.125l0.054,6.306c0.008,0.871,0.709,1.579,1.561,1.579c0.432-0.004,0.824-0.175,1.118-0.482
			c0.29-0.303,0.446-0.703,0.443-1.125l-0.054-6.306c-0.008-0.871-0.709-1.579-1.561-1.579h-0.002H29.357z"/>
		<path fill="#80007F" d="M41.845,25.577c-0.984,0-1.883-0.39-2.534-1.099c-1.298-1.414-1.166-3.657,0.296-5l4.645-4.265
			c0.682-0.626,1.56-0.97,2.472-0.97c0.984,0,1.883,0.39,2.534,1.099c1.298,1.414,1.166,3.657-0.296,5l-4.645,4.265
			C43.636,25.233,42.758,25.577,41.845,25.577z M46.639,16.203c-0.402,0-0.789,0.151-1.087,0.425l-4.645,4.266
			c-0.647,0.593-0.701,1.592-0.118,2.227c0.291,0.317,0.706,0.498,1.141,0.498l0,0c0.403,0,0.789-0.151,1.087-0.425l4.645-4.266
			c0.647-0.593,0.701-1.592,0.118-2.227C47.49,16.384,47.073,16.203,46.639,16.203z"/>
		<path fill="#80007F" d="M48.424,38.845c-1.967,0-3.581-1.548-3.597-3.45c-0.016-1.92,1.586-3.496,3.571-3.513l6.306-0.053
			c2.001,0,3.614,1.548,3.63,3.45c0.008,0.926-0.357,1.801-1.03,2.465c-0.676,0.668-1.578,1.039-2.54,1.048L48.424,38.845z
			 M48.415,33.804c-0.422,0.003-0.819,0.167-1.117,0.461c-0.302,0.298-0.467,0.693-0.463,1.112c0.008,0.854,0.723,1.548,1.593,1.548
			l6.319-0.054c0.422-0.003,0.819-0.167,1.117-0.461c0.302-0.298,0.467-0.693,0.463-1.112c-0.007-0.854-0.721-1.548-1.594-1.548
			h-0.001L48.415,33.804z"/>
	</g>
</g>
</svg>
