<?xml version="1.0" encoding="utf-8"?>
<!-- Generator: Adobe Illustrator 17.0.0, SVG Export Plug-In . SVG Version: 6.00 Build 0)  -->
<!DOCTYPE svg PUBLIC "-//W3C//DTD SVG 1.1//EN" "http://www.w3.org/Graphics/SVG/1.1/DTD/svg11.dtd">
<svg version="1.1" id="Layer_1" xmlns="http://www.w3.org/2000/svg" xmlns:xlink="http://www.w3.org/1999/xlink" x="0px" y="0px"
	 width="60px" height="60px" viewBox="0 0 60 60" enable-background="new 0 0 60 60" xml:space="preserve">
<g>
	<path fill="#FFFFFF" d="M11.239,31.766l-6.97,0.171H4.234c-2.035,0-3.705,1.407-3.724,3.442l-0.002,0.038
		c-0.019,2.054,1.636,4.088,3.69,4.107l6.97,0.413h0.035c2.035,0,3.705-2.066,3.724-4.1l0.002-0.367
		c0.009-0.995-0.37-1.864-1.066-2.574C13.166,32.186,12.234,31.775,11.239,31.766z M13.068,35.726
		c-0.009,1.024-0.842,2.212-1.864,2.212h-0.018l-6.97-0.405c-1.03-0.01-1.856-1.022-1.847-2.052l0.002,0.071
		c0.009-1.024,0.842-1.614,1.864-1.614h0.018l6.97-0.253c1.03,0.009,1.856,0.815,1.847,1.845L13.068,35.726z M15.205,14.39
		c-0.701-0.688-1.627-1.066-2.609-1.066c-1.008,0-1.952,0.396-2.658,1.116l-0.113,0.116c-0.697,0.71-1.076,1.649-1.066,2.644
		s0.405,1.926,1.115,2.623l4.975,4.883c0.701,0.688,1.627,1.066,2.609,1.066c1.008,0,1.952-0.396,2.658-1.116l0.114-0.116
		c0.697-0.71,1.076-1.649,1.066-2.644c-0.009-0.995-0.405-1.926-1.115-2.623L15.205,14.39z M18.901,23.237l-0.114,0.116
		c-0.365,0.372-0.848,0.558-1.331,0.558c-0.471,0-0.943-0.178-1.306-0.534l-4.975-4.883c-0.735-0.721-0.746-1.902-0.025-2.636
		l0.114-0.116c0.365-0.372,0.848-0.558,1.331-0.558c0.471,0,0.943,0.178,1.306,0.534l4.975,4.883
		C19.611,21.321,19.622,22.502,18.901,23.237z M32.813,9.387c0-2.04-1.198-3.449-3.09-3.449h-0.589c-1.892,0-3.321,1.41-3.321,3.449
		v6.876c0,2.04,1.429,4.675,3.321,4.675h0.589c1.892,0,3.09-2.635,3.09-4.675V9.387z M30.813,16.357c0,0.96-0.225,2.58-1.09,2.58
		h-0.589c-0.865,0-1.321-1.62-1.321-2.58V9.292c0-0.96,0.456-1.355,1.321-1.355h0.589c0.865,0,1.09,0.395,1.09,1.355V16.357z
		 M50.173,14.879l-0.114-0.116c-0.706-0.719-1.65-1.116-2.658-1.116l0,0c-0.982,0-1.908,0.379-2.609,1.066l-4.975,4.883
		c-1.466,1.439-1.488,3.801-0.049,5.267l0.114,0.116c0.706,0.719,1.65,1.116,2.658,1.116c0.982,0,1.908-0.379,2.609-1.066
		l4.975-4.883C51.59,18.707,51.612,16.344,50.173,14.879z M48.821,18.818l-4.975,4.883c-0.363,0.356-0.835,0.534-1.306,0.534
		c-0.483,0-0.966-0.186-1.331-0.558l-0.114-0.116c-0.721-0.735-0.71-1.915,0.025-2.636l4.975-4.883
		c0.363-0.356,0.835-0.534,1.306-0.534c0.483,0,0.965,0.186,1.331,0.558l0.114,0.116C49.567,16.917,49.556,18.097,48.821,18.818z
		 M59.812,36.033c-0.019-2.035-1.689-3.096-3.724-3.096h-0.035l-6.97-0.521c-2.054,0.019-3.709,1.412-3.69,3.466l0.002,0.264
		c0.019,2.035,1.689,3.792,3.724,3.792h0.035l6.97-0.313c0.995-0.009,1.926-0.529,2.623-1.239c0.697-0.71,1.076-1.444,1.066-2.438
		L59.812,36.033z M56.106,37.708l-6.97,0.23h-0.018c-1.022,0-1.854-1.002-1.864-2.025l-0.002-0.251
		c-0.009-1.03,0.817-1.261,1.847-1.27l6.97,0.547h0.018c1.022,0,1.854,0.167,1.864,1.191l0.002-0.044
		C57.962,37.115,57.135,37.698,56.106,37.708z"/>
	<path fill="#FFFFFF" d="M29.747,26.867c6.17,0,11.172,4.959,11.172,11.076v8.131H18.446v-8.131c0-6.117,5.002-11.076,11.172-11.076
		H29.747 M42.533,48.585c0.678,0,1.227,0.687,1.227,1.534v0.161c0,0.847-0.549,1.663-1.227,1.663h-25.96
		c-0.678,0-1.227-0.816-1.227-1.663v-0.161c0-0.847,0.549-1.534,1.227-1.534H42.533 M29.747,24.386h-0.129
		c-7.528,0-13.652,6.081-13.652,13.557v8.131c0,0.028,0,0.057,0.001,0.085c-1.757,0.314-3.101,1.971-3.101,3.96v0.161
		c0,2.285,1.663,4.143,3.707,4.143h25.96c2.044,0,3.707-1.859,3.707-4.143v-0.161c0-1.892-1.215-3.483-2.845-3.905
		c0.003-0.047,0.004-0.093,0.004-0.141v-8.131C43.399,30.468,37.275,24.386,29.747,24.386L29.747,24.386z"/>
</g>
</svg>
