<?xml version="1.0" encoding="utf-8"?>
<!-- Generator: Adobe Illustrator 17.0.0, SVG Export Plug-In . SVG Version: 6.00 Build 0)  -->
<!DOCTYPE svg PUBLIC "-//W3C//DTD SVG 1.1//EN" "http://www.w3.org/Graphics/SVG/1.1/DTD/svg11.dtd">
<svg version="1.1" id="Layer_1" xmlns="http://www.w3.org/2000/svg" xmlns:xlink="http://www.w3.org/1999/xlink" x="0px" y="0px"
	 width="101.333px" height="99.333px" viewBox="0 0 101.333 99.333" enable-background="new 0 0 101.333 99.333"
	 xml:space="preserve">
<g>
	<g>
		<path fill="#FFFFFF" d="M39.76,51.763c-4.972,0-9.017-4.286-9.017-9.553v-1h18.033v1C48.777,47.477,44.732,51.763,39.76,51.763z"
			/>
		<rect x="27.408" y="41.1" fill="#FFFFFF" width="45.998" height="2.331"/>
		<path fill="#FFFFFF" d="M60.537,51.763c-4.973,0-9.018-4.286-9.018-9.553v-1h18.034v1C69.553,47.477,65.508,51.763,60.537,51.763z
			"/>
		<circle fill="#FFFFFF" cx="43.558" cy="45.143" r="1.604"/>
		<circle fill="#FFFFFF" cx="64.149" cy="45.143" r="1.604"/>
		<g>
			<g>
				<path fill="#FFFFFF" d="M36.762,56.963c1.123-0.936,1.602-1.965,1.279-3.255c1.2,1.48,1.06,3.605-0.326,4.761
					c-1.386,1.156-3.501,0.913-4.742-0.533C34.184,58.485,35.64,57.899,36.762,56.963z"/>
				<path fill="#FFFFFF" d="M50.889,65.533c-0.002,0-0.005,0-0.008,0c-5.227,0-10.679-2.849-15.003-7.813l1.659-1.445
					c1.849,2.124,6.848,7.062,13.311,7.062"/>
			</g>
			<g>
				<path fill="#FFFFFF" d="M64.968,56.963c-1.123-0.936-1.602-1.965-1.279-3.255c-1.2,1.48-1.06,3.605,0.326,4.761
					c1.386,1.156,3.501,0.913,4.742-0.533C67.547,58.485,66.091,57.899,64.968,56.963z"/>
				<path fill="#FFFFFF" d="M50.841,65.533c0.002,0,0.005,0,0.008,0c5.227,0,10.679-2.849,15.003-7.813l-1.659-1.445
					c-1.849,2.124-6.848,7.062-13.311,7.062"/>
			</g>
		</g>
	</g>
	<g>
		<g>
			<g>
				<g>
					<path fill="#FFFFFF" d="M50.336,75.042c-3.407,0-6.716-0.668-9.834-1.988c-3.009-1.272-5.71-3.093-8.028-5.412
						c-2.318-2.318-4.139-5.019-5.412-8.028c-1.318-3.117-1.986-6.425-1.986-9.833s0.668-6.717,1.986-9.833
						c1.271-3.007,3.092-5.708,5.412-8.028c2.318-2.318,5.019-4.139,8.028-5.412c3.118-1.318,6.427-1.987,9.834-1.987
						s6.716,0.668,9.834,1.987c3.007,1.272,5.709,3.092,8.028,5.412c2.32,2.319,4.14,5.021,5.411,8.028
						c1.319,3.118,1.988,6.427,1.988,9.833c0,3.407-0.668,6.717-1.988,9.834c-1.27,3.006-3.091,5.708-5.411,8.027
						s-5.021,4.142-8.028,5.412C57.052,74.374,53.744,75.042,50.336,75.042z M50.336,27.151c-12.478,0-22.629,10.151-22.629,22.629
						c0,12.477,10.151,22.629,22.629,22.629s22.629-10.151,22.629-22.628C72.965,37.303,62.814,27.151,50.336,27.151z"/>
				</g>
			</g>
		</g>
		<g>
			<g>
				<polygon fill="#FFFFFF" points="50.344,12.123 50.344,12.123 54.228,21.33 46.464,21.33 				"/>
				<polygon fill="#FFFFFF" points="50.319,86.986 50.319,86.986 46.435,77.779 54.199,77.779 				"/>
			</g>
			<g>
				<polygon fill="#FFFFFF" points="87.763,49.567 87.763,49.567 78.556,53.451 78.556,45.687 				"/>
				<polygon fill="#FFFFFF" points="12.9,49.542 12.9,49.542 22.107,45.658 22.107,53.422 				"/>
			</g>
			<g>
				<polygon fill="#FFFFFF" points="68.648,16.911 68.648,16.911 67.533,26.841 60.761,23.044 				"/>
				<polygon fill="#FFFFFF" points="32.015,82.199 32.015,82.199 33.13,72.268 39.902,76.065 				"/>
			</g>
			<g>
				<polygon fill="#FFFFFF" points="82.975,67.871 82.975,67.871 73.045,66.756 76.842,59.984 				"/>
				<polygon fill="#FFFFFF" points="17.688,31.238 17.688,31.238 27.618,32.353 23.821,39.125 				"/>
			</g>
			<g>
				<polygon fill="#FFFFFF" points="82.703,30.762 82.703,30.762 76.693,38.745 72.793,32.032 				"/>
				<polygon fill="#FFFFFF" points="17.959,68.348 17.959,68.348 23.969,60.364 27.87,67.077 				"/>
			</g>
			<g>
				<polygon fill="#FFFFFF" points="69.124,81.927 69.124,81.927 61.141,75.917 67.854,72.017 				"/>
				<polygon fill="#FFFFFF" points="31.539,17.183 31.539,17.183 39.522,23.193 32.809,27.093 				"/>
			</g>
		</g>
	</g>
</g>
</svg>
