<?xml version="1.0" encoding="utf-8"?>
<!-- Generator: Adobe Illustrator 17.0.0, SVG Export Plug-In . SVG Version: 6.00 Build 0)  -->
<!DOCTYPE svg PUBLIC "-//W3C//DTD SVG 1.1//EN" "http://www.w3.org/Graphics/SVG/1.1/DTD/svg11.dtd">
<svg version="1.1" id="Layer_1" xmlns="http://www.w3.org/2000/svg" xmlns:xlink="http://www.w3.org/1999/xlink" x="0px" y="0px"
	 width="124px" height="125px" viewBox="0 0 124 125" enable-background="new 0 0 124 125" xml:space="preserve">
<g>
	<path fill="#333333" d="M62.342,117.938c-2.661-2.637-5.383-6.031-5.387-8.011c-0.004-1.434,0.551-2.783,1.563-3.8
		c1.012-1.016,2.358-1.577,3.792-1.581c2.959,0,5.374,2.402,5.381,5.353C67.695,111.883,64.991,115.289,62.342,117.938z
		 M23.281,101.78c-0.021-3.746,0.451-8.07,1.849-9.477c1.015-1.022,2.368-1.584,3.808-1.584c1.427,0,2.771,0.554,3.784,1.56
		c1.018,1.012,1.58,2.357,1.584,3.792c0.005,1.433-0.549,2.783-1.56,3.8C31.356,101.27,26.959,101.774,23.281,101.78z
		 M101.281,101.769c-3.62,0-7.978-0.489-9.356-1.864c-1.015-1.012-1.576-2.358-1.578-3.792s0.553-2.783,1.565-3.8
		c1.014-1.018,2.365-1.578,3.802-1.578c1.43,0,2.776,0.556,3.788,1.565c1.406,1.401,1.9,5.723,1.898,9.469
		C101.36,101.769,101.321,101.769,101.281,101.769z M62.713,97.402c-19.293,0-34.988-15.696-34.988-34.988
		S43.42,27.426,62.713,27.426s34.988,15.695,34.988,34.988S82.006,97.402,62.713,97.402z M62.713,30.455
		c-17.622,0-31.959,14.337-31.959,31.958c0,17.622,14.337,31.958,31.959,31.958c17.622,0,31.958-14.336,31.958-31.958
		C94.671,44.792,80.335,30.455,62.713,30.455z M109.58,68.102c-2.955,0-5.362-2.406-5.367-5.361
		c-0.002-1.434,0.555-2.782,1.567-3.797c1.012-1.015,2.36-1.575,3.794-1.577c1.986,0,5.388,2.708,8.032,5.358
		c-2.639,2.658-6.035,5.375-8.02,5.378H109.58z M15.099,68.081c-1.984,0-5.39-2.698-8.038-5.338c2.633-2.664,6.022-5.39,8.006-5.397
		c2.959,0,5.376,2.399,5.388,5.347c0.01,2.96-2.389,5.377-5.349,5.388H15.099z M95.811,34.694c-1.433,0-2.78-0.558-3.793-1.57
		c-2.094-2.092-2.096-5.497-0.006-7.591c1.389-1.39,5.792-1.886,9.449-1.886h0.021c0.012,3.745-0.471,8.068-1.873,9.472
		C98.595,34.135,97.246,34.694,95.811,34.694z M28.871,34.679c-1.425,0-2.767-0.552-3.779-1.555
		c-1.408-1.395-1.912-5.717-1.92-9.463c0.068,0,0.139,0,0.214,0c4.57,0,8.12,0.705,9.265,1.84c2.101,2.084,2.116,5.489,0.032,7.591
		C31.667,34.115,30.314,34.679,28.871,34.679z M62.46,20.788c-1.434,0-2.782-0.559-3.796-1.572
		c-1.014-1.014-1.572-2.362-1.571-3.795c0-1.983,2.713-5.383,5.367-8.026c2.655,2.642,5.368,6.042,5.368,8.026
		C67.828,18.38,65.419,20.788,62.46,20.788z"/>
	<g>
		<g>
			<path fill="#80007F" d="M47.305,51.567v12.633c0,4.243,1.768,6.204,4.436,6.204c2.861,0,4.564-1.961,4.564-6.204V51.567h3.953
				v12.375c0,6.686-3.439,9.644-8.647,9.644c-5.015,0-8.262-2.796-8.262-9.611V51.567H47.305z"/>
			<path fill="#80007F" d="M69.742,73.233l-7.008-21.666h4.307l2.957,9.836c0.836,2.733,1.543,5.272,2.122,7.908h0.064
				c0.579-2.571,1.35-5.207,2.218-7.843l3.15-9.901h4.21l-7.489,21.666C74.274,73.233,69.742,73.233,69.742,73.233z"/>
		</g>
	</g>
</g>
</svg>
