<?xml version="1.0" encoding="utf-8"?>
<!-- Generator: Adobe Illustrator 17.0.0, SVG Export Plug-In . SVG Version: 6.00 Build 0)  -->
<!DOCTYPE svg PUBLIC "-//W3C//DTD SVG 1.1//EN" "http://www.w3.org/Graphics/SVG/1.1/DTD/svg11.dtd">
<svg version="1.1" id="Layer_1" xmlns="http://www.w3.org/2000/svg" xmlns:xlink="http://www.w3.org/1999/xlink" x="0px" y="0px"
	 width="124px" height="125px" viewBox="0 0 124 125" enable-background="new 0 0 124 125" xml:space="preserve">
<g>
	<path fill="#333333" d="M41.493,116.874c-14.489,0-26.277-11.714-26.277-26.112c0-8.333,3.602-15.877,9.883-20.699l0.746-0.572
		V27.609c0-8.489,6.848-15.395,15.266-15.395s15.266,6.906,15.266,15.395v41.378l0.751,0.572c6.69,5.103,10.683,13.03,10.683,21.202
		C67.811,105.16,56.004,116.874,41.493,116.874z M37.93,69.297c-10.469,1.768-18.067,10.794-18.067,21.465
		c0,12.013,9.777,21.786,21.795,21.786c11.903,0,21.587-9.772,21.587-21.784c0-10.798-8.172-20.075-19.01-21.579l-2.171-0.301
		v13.039l1.424,0.374c4.219,1.108,7.401,5.081,7.401,9.242c0,5.344-4.099,9.53-9.332,9.53c-5.257,0-9.534-4.275-9.534-9.53
		c0-3.399,1.16-7.736,6.683-9.101l1.451-0.358V68.92L37.93,69.297z M41.11,15.377c-6.527,0-11.449,5.259-11.449,12.232v39.906
		l2.662-1.144c1.447-0.621,3.188-1.236,6.113-1.524l1.721-0.17V28.527c0-0.57,0.295-1.145,0.954-1.145
		c0.659,0,0.954,0.575,0.954,1.145v36.042l1.685,0.198c1.802,0.212,4.506,0.7,6.198,1.372l2.613,1.039V27.609
		C52.56,20.636,47.638,15.377,41.11,15.377z"/>
	<path fill="#80007F" d="M86.199,15.88c-8.498,0-15.413,6.914-15.413,15.413S77.7,46.706,86.199,46.706s15.413-6.914,15.413-15.413
		S94.697,15.88,86.199,15.88z M86.199,44.96c-7.548,0-13.668-6.119-13.668-13.668s6.119-13.668,13.668-13.668
		s13.668,6.119,13.668,13.668S93.747,44.96,86.199,44.96z M108.294,31.513l0.49-0.57l-0.49-0.57
		c-1.208-1.402-3.006-3.739-3.223-4.546c-0.216-0.805,0.218-3.898,0.595-5.835l0.154-0.787l-0.772-0.218
		c-1.741-0.493-4.445-1.445-5.005-2.018c-0.624-0.637-1.898-3.52-2.553-5.187l-0.273-0.694l-0.727,0.161
		c-0.03,0.007-2.937,0.645-4.598,0.645c-0.376,0-0.559-0.033-0.634-0.054c-0.807-0.217-3.145-2.015-4.547-3.223l-0.57-0.49
		l-0.57,0.49c-1.402,1.208-3.738,3.006-4.546,3.223c-0.075,0.02-0.259,0.054-0.634,0.054l0,0c-1.659,0-4.569-0.638-4.598-0.645
		l-0.717-0.158l-0.278,0.68c-0.681,1.668-2.001,4.552-2.638,5.19c-0.637,0.637-3.522,1.956-5.19,2.638l-0.68,0.279l0.158,0.717
		c0.374,1.692,0.805,4.434,0.591,5.232c-0.217,0.807-2.015,3.145-3.223,4.546l-0.49,0.57l0.49,0.57
		c1.208,1.403,3.006,3.74,3.223,4.546c0.214,0.798-0.217,3.54-0.591,5.232l-0.16,0.727l0.693,0.273
		c1.79,0.704,4.582,1.963,5.187,2.554c0.599,0.587,1.901,3.337,2.633,5.102l0.281,0.676l0.714-0.157
		c0.03-0.007,2.939-0.645,4.598-0.645c0.376,0,0.559,0.033,0.634,0.054c0.807,0.217,3.144,2.015,4.546,3.223l0.57,0.49l0.57-0.49
		c1.402-1.208,3.739-3.006,4.546-3.223c0.075-0.02,0.259-0.054,0.634-0.054c1.659,0,4.569,0.638,4.598,0.645l0.723,0.16l0.275-0.688
		c0.704-1.763,1.962-4.51,2.548-5.098c0.569-0.569,2.944-1.479,4.45-1.944l0.665-0.205l-0.052-0.694
		c-0.136-1.823-0.265-5.048-0.028-5.937C105.288,35.253,107.086,32.914,108.294,31.513z M103.386,35.608
		c-0.318,1.185-0.164,4.382-0.074,5.833c-1.245,0.416-3.64,1.296-4.509,2.165c-0.863,0.863-2.081,3.622-2.658,5.007
		c-1.029-0.202-2.933-0.537-4.253-0.537c-0.446,0-0.8,0.037-1.086,0.114c-1.209,0.323-3.521,2.155-4.665,3.106
		c-1.144-0.95-3.456-2.781-4.665-3.106c-0.285-0.076-0.64-0.114-1.086-0.114c-1.324,0-3.236,0.337-4.263,0.539
		c-0.597-1.381-1.861-4.153-2.742-5.015c-0.882-0.863-3.681-2.079-5.084-2.655c0.278-1.395,0.745-4.127,0.421-5.336
		c-0.323-1.209-2.155-3.521-3.106-4.665c0.95-1.144,2.781-3.456,3.106-4.665c0.324-1.212-0.145-3.954-0.423-5.346
		c1.399-0.595,4.211-1.859,5.092-2.739c0.882-0.882,2.145-3.696,2.74-5.094c1.028,0.202,2.936,0.538,4.258,0.538l0,0
		c0.446,0,0.8-0.037,1.086-0.114c1.209-0.323,3.521-2.155,4.665-3.106c1.144,0.95,3.456,2.781,4.665,3.106
		c0.285,0.076,0.64,0.114,1.086,0.114c1.319,0,3.219-0.334,4.25-0.536c0.575,1.402,1.792,4.204,2.656,5.086
		c0.873,0.891,3.587,1.812,5.014,2.25c-0.275,1.553-0.748,4.631-0.424,5.841c0.323,1.209,2.155,3.521,3.106,4.665
		C105.541,32.087,103.71,34.399,103.386,35.608z M93.866,23.925c-0.426-0.218-0.947-0.051-1.169,0.376
		c-0.221,0.426-0.054,0.951,0.369,1.175c0.147,0.077,3.591,1.964,2.739,7.329c-0.075,0.476,0.249,0.923,0.725,0.998
		c0.047,0.008,0.093,0.01,0.138,0.01c0.422,0,0.792-0.306,0.861-0.736C98.586,26.421,94.059,24.024,93.866,23.925z M92.984,22.471
		c0-0.482-0.39-0.872-0.872-0.872c-0.482,0-0.872,0.39-0.872,0.872s0.39,0.872,0.872,0.872
		C92.593,23.344,92.984,22.953,92.984,22.471z"/>
</g>
</svg>
