<?xml version="1.0" encoding="utf-8"?>
<!-- Generator: Adobe Illustrator 17.0.0, SVG Export Plug-In . SVG Version: 6.00 Build 0)  -->
<!DOCTYPE svg PUBLIC "-//W3C//DTD SVG 1.1//EN" "http://www.w3.org/Graphics/SVG/1.1/DTD/svg11.dtd">
<svg version="1.1" id="Layer_1" xmlns="http://www.w3.org/2000/svg" xmlns:xlink="http://www.w3.org/1999/xlink" x="0px" y="0px"
	 width="101.333px" height="99.333px" viewBox="0 0 101.333 99.333" enable-background="new 0 0 101.333 99.333"
	 xml:space="preserve">
<g>
	<g>
		<polygon fill="#FFFFFF" points="49.035,73.732 49.035,62.174 31.254,62.174 29.631,59.79 49.035,59.79 49.035,50.616 
			27.697,50.616 27.697,48.232 49.035,48.232 49.035,39.058 30.404,39.058 31.254,36.673 49.035,36.673 49.035,26.004 51.42,26.004 
			51.42,73.732 		"/>
		<path fill="#FFFFFF" d="M50.661,75.117c-3.407,0-6.716-0.668-9.834-1.988c-3.009-1.272-5.71-3.093-8.028-5.412
			c-2.318-2.318-4.139-5.019-5.412-8.028c-1.318-3.117-1.986-6.425-1.986-9.833s0.668-6.717,1.986-9.833
			c1.271-3.007,3.092-5.708,5.412-8.028c2.318-2.318,5.019-4.139,8.028-5.412c3.118-1.318,6.427-1.987,9.834-1.987
			s6.716,0.668,9.834,1.987c3.007,1.272,5.709,3.092,8.028,5.412c2.32,2.319,4.14,5.021,5.411,8.028
			c1.319,3.118,1.988,6.427,1.988,9.833c0,3.407-0.668,6.717-1.988,9.834c-1.27,3.006-3.091,5.708-5.411,8.027
			s-5.021,4.142-8.028,5.412C57.377,74.449,54.069,75.117,50.661,75.117z M50.661,27.226c-12.478,0-22.629,10.151-22.629,22.629
			c0,12.477,10.151,22.629,22.629,22.629S73.29,62.333,73.29,49.856C73.29,37.378,63.139,27.226,50.661,27.226z"/>
	</g>
	<g>
		<rect x="48.789" y="12.198" fill="#FFFFFF" width="3.764" height="9.207"/>
		
			<rect x="62.554" y="19.716" transform="matrix(0.505 -0.8631 0.8631 0.505 14.8271 68.4894)" fill="#FFFFFF" width="9.143" height="3.203"/>
		
			<rect x="74.5" y="31.623" transform="matrix(0.8717 -0.49 0.49 0.8717 -6.1367 43.0079)" fill="#FFFFFF" width="9.144" height="3.203"/>
		
			<rect x="81.765" y="44.973" transform="matrix(0.017 -0.9999 0.9999 0.017 32.4115 132.0584)" fill="#FFFFFF" width="3.204" height="9.144"/>
		
			<rect x="77.237" y="61.212" transform="matrix(0.5197 -0.8544 0.8544 0.5197 -18.335 98.9537)" fill="#FFFFFF" width="3.203" height="9.143"/>
		
			<rect x="65.451" y="73.71" transform="matrix(0.88 -0.4749 0.4749 0.88 -29.133 41.2356)" fill="#FFFFFF" width="3.203" height="9.143"/>
		
			<rect x="45.774" y="80.906" transform="matrix(0.0344 -0.9994 0.9994 0.0344 -33.8451 129.9853)" fill="#FFFFFF" width="9.144" height="3.203"/>
		
			<rect x="29.494" y="76.855" transform="matrix(0.5343 -0.8453 0.8453 0.5343 -50.4548 65.3326)" fill="#FFFFFF" width="9.143" height="3.203"/>
		
			<rect x="17.443" y="64.286" transform="matrix(0.888 -0.4598 0.4598 0.888 -27.8985 17.5647)" fill="#FFFFFF" width="9.338" height="3.547"/>
		<rect x="13.372" y="48.31" transform="matrix(1 -0.0013 0.0013 1 -0.0649 0.0234)" fill="#FFFFFF" width="9.143" height="3.203"/>
		
			<rect x="20.885" y="29.044" transform="matrix(0.4755 -0.8797 0.8797 0.4755 -17.7776 37.4123)" fill="#FFFFFF" width="3.202" height="9.143"/>
		
			<rect x="32.531" y="16.973" transform="matrix(0.8424 -0.5388 0.5388 0.8424 -6.23 21.7857)" fill="#FFFFFF" width="3.203" height="9.143"/>
	</g>
</g>
</svg>
