<?xml version="1.0" encoding="utf-8"?>
<!-- Generator: Adobe Illustrator 17.0.0, SVG Export Plug-In . SVG Version: 6.00 Build 0)  -->
<!DOCTYPE svg PUBLIC "-//W3C//DTD SVG 1.1//EN" "http://www.w3.org/Graphics/SVG/1.1/DTD/svg11.dtd">
<svg version="1.1" id="Layer_1" xmlns="http://www.w3.org/2000/svg" xmlns:xlink="http://www.w3.org/1999/xlink" x="0px" y="0px"
	 width="42px" height="42px" viewBox="0 0 42 42" enable-background="new 0 0 42 42" xml:space="preserve">
<g>
	<path fill="#FFFFFF" d="M29.667,11.167H27.75v-0.958c0-0.391-0.317-0.708-0.708-0.708s-0.708,0.317-0.708,0.708v0.958H15.75v-0.958
		c0-0.391-0.317-0.708-0.708-0.708s-0.708,0.317-0.708,0.708v0.958h-2c-1.378,0-2.5,1.122-2.5,2.5V30c0,1.379,1.122,2.5,2.5,2.5
		h17.333c1.379,0,2.5-1.121,2.5-2.5V13.667C32.167,12.288,31.045,11.167,29.667,11.167z M12.333,12.167h2v1.542
		c0,0.391,0.317,0.708,0.708,0.708s0.708-0.317,0.708-0.708v-1.542h10.583v1.542c0,0.391,0.317,0.708,0.708,0.708
		s0.708-0.317,0.708-0.708v-1.542h1.916c0.827,0,1.5,0.673,1.5,1.5v2H10.833v-2C10.833,12.839,11.506,12.167,12.333,12.167z
		 M29.667,31.5H12.333c-0.827,0-1.5-0.673-1.5-1.5V16.667h20.333V30C31.167,30.827,30.494,31.5,29.667,31.5z"/>
	<path fill="#FFFFFF" d="M15.625,20.323h1.5v-1.5h-1.5V20.323z M18.625,20.323h1.5v-1.5h-1.5V20.323z M21.594,20.323h1.5v-1.5h-1.5
		V20.323z M24.594,20.323h1.5v-1.5h-1.5V20.323z M27.656,18.823v1.5h1.5v-1.5H27.656z M15.625,23.323h1.5v-1.5h-1.5V23.323z
		 M12.625,23.323h1.5v-1.5h-1.5V23.323z M18.625,23.323h1.5v-1.5h-1.5V23.323z M21.594,23.323h1.5v-1.5h-1.5V23.323z M24.594,23.323
		h1.5v-1.5h-1.5V23.323z M27.656,23.323h1.5v-1.5h-1.5V23.323z M15.625,26.49h1.5v-1.5h-1.5V26.49z M12.625,26.49h1.5v-1.5h-1.5
		V26.49z M18.625,26.49h1.5v-1.5h-1.5V26.49z M21.594,26.49h1.5v-1.5h-1.5V26.49z M24.594,26.49h1.5v-1.5h-1.5V26.49z M27.656,26.49
		h1.5v-1.5h-1.5V26.49z M15.625,29.448h1.5v-1.5h-1.5V29.448z M12.625,29.448h1.5v-1.5h-1.5V29.448z M18.625,29.448h1.5v-1.5h-1.5
		V29.448z M21.594,29.448h1.5v-1.5h-1.5V29.448z M24.594,29.448h1.5v-1.5h-1.5V29.448z"/>
</g>
</svg>
