<?xml version="1.0" encoding="utf-8"?>
<!-- Generator: Adobe Illustrator 17.0.0, SVG Export Plug-In . SVG Version: 6.00 Build 0)  -->
<!DOCTYPE svg PUBLIC "-//W3C//DTD SVG 1.1//EN" "http://www.w3.org/Graphics/SVG/1.1/DTD/svg11.dtd">
<svg version="1.1" id="Layer_1" xmlns="http://www.w3.org/2000/svg" xmlns:xlink="http://www.w3.org/1999/xlink" x="0px" y="0px"
	 width="42px" height="42px" viewBox="0 0 42 42" enable-background="new 0 0 42 42" xml:space="preserve">
<g>
	<g>
		<g>
			<path fill="#333333" d="M37.634,15.41C35.439,8.308,28.813,3.133,21,3.133c-7.813,0-14.44,5.175-16.634,12.277
				c-2.241,0.667-3.824,2.754-3.824,5.129c0,2.375,1.582,4.462,3.824,5.129C6.56,32.77,13.187,37.945,21,37.945
				s14.44-5.175,16.634-12.277c2.242-0.666,3.824-2.753,3.824-5.129C41.458,18.163,39.876,16.076,37.634,15.41z M3.902,23.804
				c-1.11-0.68-1.834-1.907-1.834-3.265c0-1.358,0.724-2.585,1.834-3.265c-0.202,1.058-0.308,2.149-0.308,3.265
				S3.7,22.746,3.902,23.804z M21,36.418c-8.756,0-15.879-7.123-15.879-15.879c0-6.055,3.407-11.329,8.405-14.007
				c0.759,1.615,3.147,5.658,8.808,7.922c0.093,0.037,0.189,0.055,0.283,0.055c0.303,0,0.59-0.182,0.709-0.48
				c0.157-0.391-0.034-0.836-0.425-0.992c-5.144-2.057-7.333-5.786-7.992-7.162c1.734-0.723,3.622-1.147,5.601-1.207
				c0.529,1.073,2.048,3.592,5.187,5.019c0.103,0.047,0.21,0.069,0.315,0.069c0.29,0,0.568-0.166,0.696-0.448
				c0.174-0.384,0.005-0.836-0.379-1.011c-2.115-0.961-3.384-2.533-4.041-3.585c8.156,0.658,14.592,7.504,14.592,15.827
				C36.879,29.295,29.756,36.418,21,36.418z M38.097,23.805c0.202-1.058,0.308-2.15,0.308-3.266c0-1.116-0.107-2.208-0.309-3.266
				c1.11,0.68,1.835,1.906,1.835,3.266C39.932,21.898,39.207,23.125,38.097,23.805z"/>
		</g>
	</g>
	<g>
		<g>
			<path fill="#333333" d="M14.463,19.604c-1.825,0-3.31,1.485-3.31,3.31c0,0.422,0.342,0.763,0.763,0.763s0.763-0.342,0.763-0.763
				c0-0.983,0.8-1.783,1.783-1.783s1.783,0.8,1.783,1.783c0,0.422,0.342,0.763,0.763,0.763c0.422,0,0.763-0.342,0.763-0.763
				C17.773,21.088,16.288,19.604,14.463,19.604z"/>
		</g>
	</g>
	<g>
		<g>
			<path fill="#333333" d="M27.536,19.604c-1.825,0-3.31,1.485-3.31,3.31c0,0.422,0.342,0.763,0.763,0.763
				c0.422,0,0.763-0.342,0.763-0.763c0-0.983,0.8-1.783,1.783-1.783c0.983,0,1.783,0.8,1.783,1.783c0,0.422,0.342,0.763,0.763,0.763
				c0.422,0,0.763-0.342,0.763-0.763C30.846,21.088,29.361,19.604,27.536,19.604z"/>
		</g>
	</g>
	<g>
		<g>
			<path fill="#80007F" d="M25.672,28.051c-0.298-0.298-0.781-0.298-1.08,0c-1.94,1.94-5.097,1.94-7.038,0
				c-0.298-0.298-0.781-0.298-1.08,0c-0.298,0.298-0.298,0.781,0,1.079c1.229,1.229,2.862,1.906,4.598,1.906
				s3.369-0.677,4.598-1.906C25.97,28.833,25.97,28.35,25.672,28.051z"/>
		</g>
	</g>
	<g>
		<g>
			<path fill="#333333" d="M22.018,24.018h-2.037c-0.422,0-0.763,0.342-0.763,0.763s0.342,0.763,0.763,0.763h2.037
				c0.422,0,0.763-0.342,0.763-0.763S22.44,24.018,22.018,24.018z"/>
		</g>
	</g>
</g>
</svg>
