<?xml version="1.0" encoding="utf-8"?>
<!-- Generator: Adobe Illustrator 17.0.0, SVG Export Plug-In . SVG Version: 6.00 Build 0)  -->
<!DOCTYPE svg PUBLIC "-//W3C//DTD SVG 1.1//EN" "http://www.w3.org/Graphics/SVG/1.1/DTD/svg11.dtd">
<svg version="1.1" id="Layer_1" xmlns="http://www.w3.org/2000/svg" xmlns:xlink="http://www.w3.org/1999/xlink" x="0px" y="0px"
	 width="42px" height="42px" viewBox="0 0 42 42" enable-background="new 0 0 42 42" xml:space="preserve">
<g>
	<path fill="#80007F" d="M21.661,23.644c-2.336,0-3.967,1.631-3.967,3.967v0.661c0,3.213,1.817,5.289,4.628,5.289
		c2.811,0,4.628-2.076,4.628-5.289v-0.661c0-2.336-1.632-3.967-3.967-3.967H21.661z M25.628,27.611v0.661
		c0,1.193-0.323,3.967-3.306,3.967c-2.984,0-3.306-2.774-3.306-3.967v-0.661c0-1.607,1.038-2.644,2.644-2.644h1.322
		C24.589,24.967,25.628,26.005,25.628,27.611z"/>
	<path fill="#80007F" d="M21.02,27.611h-0.007c-0.364,0-0.657,0.296-0.657,0.661c0,0.365,0.299,0.661,0.664,0.661
		c0.365,0,0.661-0.296,0.661-0.661C21.681,27.907,21.385,27.611,21.02,27.611z"/>
	<path fill="#333333" d="M24.255,19.015c0.368,0.024,0.682-0.245,0.71-0.608l0.66-8.584c0.147-1.573,2.262-3.367,3.969-3.367h1.322
		c1.74,0,3.854,1.786,3.969,3.356l0.661,8.594c0.026,0.346,0.316,0.61,0.658,0.61c0.017,0,0.034-0.001,0.052-0.002
		c0.364-0.028,0.636-0.346,0.608-0.71l-0.661-8.592C36.027,7.29,33.1,5.133,30.917,5.133h-1.322c-2.406,0-5.074,2.305-5.287,4.577
		l-0.661,8.594C23.619,18.669,23.891,18.987,24.255,19.015z"/>
	<path fill="#333333" d="M30.221,9.552c-0.09-0.27-0.342-0.452-0.627-0.452c-0.285,0-0.538,0.182-0.627,0.452
		c-0.497,1.491-1.96,1.53-2.017,1.531c-0.366,0-0.661,0.296-0.661,0.661v2.644c0,2.208,1.509,5.289,3.967,5.289
		c2.457,0,3.967-3.081,3.967-5.289v-2.644c0-0.365-0.296-0.661-0.661-0.661C33.533,11.083,30.718,11.042,30.221,9.552z M32.9,14.389
		c0,1.797-1.179,3.967-2.644,3.967s-2.644-2.17-2.644-3.967v-2.064c0.647-0.147,1.447-0.516,2.034-1.267
		c0.926,0.926,2.403,1.216,3.255,1.306L32.9,14.389L32.9,14.389z"/>
	<path fill="#333333" d="M14.389,10.422h0.661c0.365,0,0.661-0.296,0.661-0.661S15.415,9.1,15.05,9.1h-0.661
		c-0.366,0-0.661,0.296-0.661,0.661C13.728,10.126,14.023,10.422,14.389,10.422z"/>
	<path fill="#80007F" d="M23.664,28.933c0.365,0,0.661-0.296,0.661-0.661c0-0.365-0.296-0.661-0.661-0.661h-0.007
		c-0.364,0-0.657,0.296-0.657,0.661C23,28.637,23.299,28.933,23.664,28.933z"/>
	<path fill="#333333" d="M7.803,11.581c0.126,1.271,0.679,2.389,0.705,2.442c0.599,1.199,1.505,3.01,4.558,3.01
		s3.959-1.811,4.558-3.01c0.026-0.053,0.579-1.171,0.706-2.442c0.409-0.225,0.686-0.66,0.686-1.159V9.1
		c0-0.489-0.266-0.916-0.661-1.144V7.778c0-2.188-1.78-3.967-3.967-3.967h-2.644c-2.188,0-3.967,1.779-3.967,3.967v0.178
		C7.382,8.184,7.117,8.611,7.117,9.1v1.322C7.117,10.921,7.394,11.356,7.803,11.581z M8.439,9.1C8.804,9.1,9.1,8.804,9.1,8.439
		V7.778c0-1.458,1.186-2.644,2.644-2.644h2.644c1.458,0,2.644,1.186,2.644,2.644v0.661c0,0.365,0.295,0.661,0.661,0.661v1.322
		c-0.366,0-0.661,0.296-0.661,0.661c0,1.144-0.586,2.338-0.592,2.349c-0.688,1.376-1.295,2.279-3.375,2.279
		c-2.08,0-2.687-0.902-3.375-2.278C9.685,13.421,9.1,12.227,9.1,11.083c0-0.365-0.296-0.661-0.661-0.661L8.439,9.1L8.439,9.1z"/>
	<path fill="#80007F" d="M24.306,34.222c-0.131,0-0.259,0.039-0.367,0.111l-1.616,1.078l-1.617-1.078
		c-0.108-0.072-0.236-0.111-0.366-0.111c-3.825,0-4.628,1.798-4.628,3.306c0,0.365,0.295,0.661,0.661,0.661
		c0.365,0,0.661-0.296,0.661-0.661c0-0.532,0-1.925,3.108-1.982l1.814,1.21c0.222,0.148,0.511,0.148,0.733,0l1.815-1.21
		c3.108,0.057,3.108,1.45,3.108,1.982c0,0.365,0.295,0.661,0.661,0.661c0.365,0,0.661-0.296,0.661-0.661
		C28.933,36.02,28.13,34.222,24.306,34.222z"/>
	<path fill="#333333" d="M36.249,26.289h-0.003c-0.364,0-0.66,0.294-0.661,0.658l-0.041,10.578
		c-0.001,0.365,0.293,0.662,0.658,0.664h0.003c0.364,0,0.66-0.294,0.661-0.658l0.041-10.578
		C36.909,26.588,36.615,26.29,36.249,26.289z"/>
	<path fill="#333333" d="M11.083,10.422h0.661c0.365,0,0.661-0.296,0.661-0.661S12.109,9.1,11.744,9.1h-0.661
		c-0.366,0-0.661,0.296-0.661,0.661C10.422,10.126,10.718,10.422,11.083,10.422z"/>
	<path fill="#333333" d="M16.359,22.452l0.553-2.761c3.338,0.075,5.74,0.907,6.477,2.26c0.174,0.321,0.574,0.439,0.896,0.264
		c0.321-0.175,0.439-0.576,0.264-0.896c-1.037-1.907-3.926-2.955-8.136-2.955c-0.329-0.006-0.625,0.208-0.691,0.531l-0.661,3.297
		c-0.071,0.358,0.16,0.707,0.518,0.778c0.044,0.009,0.087,0.013,0.131,0.013C16.021,22.983,16.296,22.766,16.359,22.452z"/>
	<path fill="#333333" d="M39.212,21.662c-1.296-1.293-3.243-1.976-5.631-1.976c-0.382,0.007-0.679,0.289-0.681,0.659
		c-0.001,0.135-0.047,3.3-2.644,3.3c-2.598,0-2.644-3.164-2.644-3.299c-0.001-0.364-0.297-0.659-0.661-0.659
		c-0.366,0-0.661,0.295-0.661,0.661c0,1.478,0.714,4.171,3.306,4.566v3.359c0,0.365,0.295,0.661,0.661,0.661
		c0.365,0,0.661-0.296,0.661-0.661v-3.36c2.231-0.34,3.072-2.382,3.261-3.888c1.754,0.098,3.163,0.637,4.1,1.573
		c0.796,0.794,1.234,1.87,1.234,3.03v10.578c0,0.365,0.295,0.661,0.661,0.661c0.365,0,0.661-0.296,0.661-0.661V25.628
		C40.833,24.114,40.258,22.706,39.212,21.662z"/>
	<path fill="#333333" d="M13.067,18.356c-0.729,0-1.322,0.593-1.322,1.322c0,0.487,0.268,0.909,0.661,1.138v4.812
		c0,0.365,0.295,0.661,0.661,0.661c0.365,0,0.661-0.296,0.661-0.661v-4.812c0.393-0.229,0.661-0.651,0.661-1.138
		C14.389,18.949,13.795,18.356,13.067,18.356z"/>
	<path fill="#333333" d="M5.794,26.289c-0.366,0-0.661,0.296-0.661,0.661v10.578c0,0.365,0.295,0.661,0.661,0.661
		c0.365,0,0.661-0.296,0.661-0.661V26.95C6.456,26.585,6.159,26.289,5.794,26.289z"/>
	<path fill="#333333" d="M10.408,18.89c-0.066-0.321-0.378-0.526-0.692-0.526c-3.473,0-6.129,0.744-7.484,2.095
		c-0.707,0.706-1.066,1.556-1.066,2.524v13.222c0,0.365,0.295,0.661,0.661,0.661c0.365,0,0.661-0.296,0.661-0.661V22.983
		c0-0.614,0.222-1.133,0.678-1.589c1.03-1.028,3.221-1.64,6.058-1.703l3.195,15.327c0.074,0.357,0.426,0.586,0.782,0.512
		c0.358-0.075,0.587-0.425,0.512-0.782L10.408,18.89z"/>
</g>
</svg>
