<?xml version="1.0" encoding="utf-8"?>
<!-- Generator: Adobe Illustrator 17.0.0, SVG Export Plug-In . SVG Version: 6.00 Build 0)  -->
<!DOCTYPE svg PUBLIC "-//W3C//DTD SVG 1.1//EN" "http://www.w3.org/Graphics/SVG/1.1/DTD/svg11.dtd">
<svg version="1.1" id="Layer_1" xmlns="http://www.w3.org/2000/svg" xmlns:xlink="http://www.w3.org/1999/xlink" x="0px" y="0px"
	 width="42px" height="42px" viewBox="0 0 42 42" enable-background="new 0 0 42 42" xml:space="preserve">
<g>
	<path fill="#80007F" d="M19.318,20.501l1.05-7.532C20.299,11.513,19.804,11,18.736,11H12V5.257C12,4.885,12.586,4,12.958,4h5.403
		c1.117,0,2.026-0.883,2.026-2c0-1.117-0.909-2-2.026-2h-6.079c-2.235,0-4.306,1.927-4.306,4.162L7.852,11H1.937
		c-1.068,0-1.812,0.741-1.812,1.808c0,0.091,0.007-0.1,0.02-0.008l1.628,11.115L1.73,24.273l1.112-1.142L2.443,19h15.811
		l-0.204,1.224L19.318,20.501z M17,1h1.361c0.372,0,0.675,0.628,0.675,1c0,0.372-0.303,1-0.675,1H17V1z M14.308,0.852h1.351v1.973
		h-1.351V0.852z M9,3.471C9,1.981,10.792,1,12.282,1H13v1.783c-1,0-1.889,0.669-1.889,1.786l-0.121,6.398L9,10.884V3.471z M2.061,12
		h16.389c0.323,0,0.586,0.092,0.586,0.415c0,0.028-0.002-0.033-0.005-0.007L18.933,13H17v2h1.74l-0.386,2H2.158l-0.386-2H16v-2
		H1.579l-0.097-0.675c-0.004-0.028-0.006,0.116-0.006,0.088C1.476,12.09,1.739,12,2.061,12z"/>
	<path fill="#333333" d="M1.683,24.349c-1.605,1.912-1.62,3.858-1.62,4.018c0,1.178,0.762,2.171,1.815,2.54
		c-0.292,0.432-0.464,0.952-0.464,1.512c0,0.72,0.287,1.37,0.748,1.855c-1.249,0.691-2.098,2.021-2.098,3.548
		c0,2.235,1.818,4.052,4.052,4.052h20.262h1.351h16.21V27.692v-0.675V24.99c0-1.117-0.909-2.026-2.026-2.026v-8.78
		c0-1.117-0.909-2.026-2.026-2.026h-1.351c-0.521,0-0.991,0.203-1.351,0.527c-0.359-0.324-0.83-0.527-1.351-0.527h-1.351
		c-0.521,0-0.991,0.203-1.351,0.527c-0.359-0.324-0.83-0.527-1.351-0.527h-1.351c-1.117,0-2.026,0.909-2.026,2.026v8.667
		c-1.558-1.08-3.812-2.25-7.162-2.388C4.549,19.858,1.683,24.349,1.683,24.349z M35.859,14.184c0-0.372,0.303-0.675,0.675-0.675
		h1.351c0.372,0,0.675,0.303,0.675,0.675v8.78h-2.702V14.184z M31.806,14.184c0-0.372,0.303-0.675,0.675-0.675h1.351
		c0.372,0,0.675,0.303,0.675,0.675v8.78h-2.702V14.184z M27.754,14.184c0-0.372,0.303-0.675,0.675-0.675h1.351
		c0.372,0,0.675,0.303,0.675,0.675v8.78h-2.702V14.184z M1.413,28.367c0-0.068,0.147-6.754,12.833-6.754h1.351
		c12.598,0,12.829,6.483,12.833,6.754c0,0.745-0.606,1.351-1.351,1.351h-0.675h-0.675H4.115H2.764
		C2.019,29.718,1.413,29.112,1.413,28.367z M4.115,33.77c-0.745,0-1.351-0.606-1.351-1.351c0-0.745,0.606-1.351,1.351-1.351h21.613
		c0.745,0,1.351,0.606,1.351,1.351c0,0.745-0.606,1.351-1.351,1.351H4.115z M22.909,35.121l-2.771,3.233l-7.391-3.233H22.909z
		 M25.728,40.524h-1.351H4.115c-1.49,0-2.702-1.212-2.702-2.702s1.212-2.702,2.702-2.702h5.262l11.135,4.872l4.176-4.872h1.04
		c1.49,0,2.702,1.212,2.702,2.702S27.218,40.524,25.728,40.524z M27.682,34.275c0.46-0.485,0.747-1.135,0.747-1.855
		c0-0.494-0.143-0.952-0.376-1.351h9.831v6.754H29.78c0-0.474-0.086-0.927-0.236-1.351h4.289v-1.351H28.74
		C28.438,34.784,28.082,34.496,27.682,34.275z M40.587,27.016h-1.351v1.351h1.351v12.157H28.74c0.351-0.39,0.625-0.847,0.804-1.351
		h9.692v-9.456h-9.831c0.232-0.399,0.376-0.856,0.376-1.351h8.105v-1.351h-8.334c-0.22-0.751-0.653-1.726-1.499-2.702h11.859
		c0.372,0,0.675,0.303,0.675,0.675V27.016z"/>
	<rect x="8.843" y="22.964" fill="#80007F" width="1.351" height="1.351"/>
	<rect x="11.544" y="24.315" fill="#80007F" width="1.351" height="1.351"/>
	<rect x="14.246" y="22.964" fill="#80007F" width="1.351" height="1.351"/>
	<rect x="18.298" y="24.99" fill="#80007F" width="1.351" height="1.351"/>
	<rect x="21.675" y="22.964" fill="#80007F" width="1.351" height="1.351"/>
	<rect x="4.79" y="25.666" fill="#80007F" width="1.351" height="1.351"/>
	<path d="M1.828,24.323"/>
</g>
</svg>
