<?xml version="1.0" encoding="utf-8"?>
<!-- Generator: Adobe Illustrator 17.0.0, SVG Export Plug-In . SVG Version: 6.00 Build 0)  -->
<!DOCTYPE svg PUBLIC "-//W3C//DTD SVG 1.1//EN" "http://www.w3.org/Graphics/SVG/1.1/DTD/svg11.dtd">
<svg version="1.1" id="Layer_1" xmlns="http://www.w3.org/2000/svg" xmlns:xlink="http://www.w3.org/1999/xlink" x="0px" y="0px"
	 width="42px" height="42px" viewBox="0 0 42 42" enable-background="new 0 0 42 42" xml:space="preserve">
<g>
	<g>
		<path fill="#333333" d="M25.634,12.444h-0.385c0.68-0.758,1.098-1.755,1.098-2.852c0-2.359-1.919-4.278-4.278-4.278
			s-4.278,1.919-4.278,4.278c0,1.097,0.418,2.094,1.098,2.852h-0.385c-1.966,0-3.565,1.599-3.565,3.565v9.981
			c0,0.394,0.319,0.713,0.713,0.713h2.139V40.25c0,0.394,0.319,0.713,0.713,0.713h3.565h0.713c1.966,0,3.565-1.599,3.565-3.565
			V26.704h2.139c0.394,0,0.713-0.319,0.713-0.713V16.01C29.199,14.044,27.6,12.444,25.634,12.444z M22.069,6.741
			c1.573,0,2.852,1.279,2.852,2.852s-1.279,2.852-2.852,2.852s-2.852-1.279-2.852-2.852S20.497,6.741,22.069,6.741z M22.506,13.87
			l-0.437,1.31l-0.437-1.31C21.632,13.87,22.506,13.87,22.506,13.87z M27.773,25.278h-1.426v-9.269h-1.426v21.389
			c0,1.179-0.96,2.139-2.139,2.139V26.704h-1.426v12.833h-2.139V16.009h-1.426v9.269h-1.426v-9.269c0-1.179,0.96-2.139,2.139-2.139
			h1.626l1.263,3.79c0.097,0.292,0.369,0.488,0.676,0.488c0.307,0,0.579-0.196,0.676-0.488l1.263-3.79h1.626
			c1.179,0,2.139,0.96,2.139,2.139L27.773,25.278L27.773,25.278z"/>
	</g>
</g>
<g>
	<g>
		<rect x="14.94" y="2.463" fill="#333333" width="1.426" height="1.426"/>
	</g>
</g>
<g>
	<g>
		<rect x="17.792" y="2.463" fill="#333333" width="1.426" height="1.426"/>
	</g>
</g>
<g>
	<g>
		<rect x="20.644" y="2.463" fill="#333333" width="1.426" height="1.426"/>
	</g>
</g>
<g>
	<g>
		<rect x="23.495" y="2.463" fill="#333333" width="1.426" height="1.426"/>
	</g>
</g>
<g>
	<g>
		<rect x="26.347" y="2.463" fill="#333333" width="1.426" height="1.426"/>
	</g>
</g>
<g>
	<g>
		<rect x="29.199" y="2.463" fill="#333333" width="1.426" height="1.426"/>
	</g>
</g>
<g>
	<g>
		<rect x="27.06" y="39.537" fill="#333333" width="1.426" height="1.426"/>
	</g>
</g>
<g>
	<g>
		<rect x="29.912" y="39.537" fill="#333333" width="1.426" height="1.426"/>
	</g>
</g>
<g>
	<g>
		<rect x="32.764" y="39.537" fill="#333333" width="1.426" height="1.426"/>
	</g>
</g>
<g>
	<g>
		<rect x="35.616" y="39.537" fill="#333333" width="1.426" height="1.426"/>
	</g>
</g>
<path fill="#80007C" d="M12.801,1.037h-7.13c-0.394,0-0.713,0.319-0.713,0.713v38.5c0,0.394,0.319,0.713,0.713,0.713h7.13
	c0.394,0,0.713-0.319,0.713-0.713V1.75C13.514,1.356,13.195,1.037,12.801,1.037z M12.088,5.315h-1.426v1.426h1.426v2.852H9.236
	v1.426h2.852v2.852h-1.426v1.426h1.426v2.852H9.236v1.426h2.852v2.852h-1.426v1.426h1.426v2.852H9.236v1.426h2.852v2.852h-1.426
	v1.426h1.426v2.852H9.236v1.426h2.852v2.852H6.384V2.463h5.704V5.315z"/>
</svg>
