<?xml version="1.0" encoding="utf-8"?>
<!-- Generator: Adobe Illustrator 17.0.0, SVG Export Plug-In . SVG Version: 6.00 Build 0)  -->
<!DOCTYPE svg PUBLIC "-//W3C//DTD SVG 1.1//EN" "http://www.w3.org/Graphics/SVG/1.1/DTD/svg11.dtd">
<svg version="1.1" id="Layer_1" xmlns="http://www.w3.org/2000/svg" xmlns:xlink="http://www.w3.org/1999/xlink" x="0px" y="0px"
	 width="42px" height="42px" viewBox="0 0 42 42" enable-background="new 0 0 42 42" xml:space="preserve">
<g>
	<g>
		<path fill="#80007F" d="M20.845,9.361c-2.197,0-3.984-1.787-3.984-3.983c0-2.197,1.787-3.984,3.984-3.984
			c2.196,0,3.983,1.787,3.983,3.984C24.828,7.574,23.041,9.361,20.845,9.361z M20.845,2.296c-1.7,0-3.082,1.383-3.082,3.082
			c0,1.699,1.383,3.081,3.082,3.081s3.081-1.383,3.081-3.081C23.926,3.678,22.545,2.296,20.845,2.296z"/>
	</g>
	<path fill="#333333" d="M30.504,12.953c-1.354-2.53-3.256-4.156-5.651-4.833c-0.265-0.078-0.561,0.056-0.679,0.295
		c-0.04,0.075-0.999,1.842-3.468,1.842c-2.441,0-2.99-1.751-3.012-1.826c-0.074-0.25-0.3-0.417-0.562-0.417
		c-0.012,0-0.067,0.003-0.079,0.005c-0.057,0.008-5.706,0.899-6.888,8.375c-1.146,7.239-0.389,9.165-0.341,9.273
		c0.029,0.05,0.72,1.209,1.842,1.209c0.62,0,1.19-0.348,1.696-1.035l1.165,11.064c0.583,3.433,2.401,3.699,2.945,3.699h0.069
		c1.625,0,2.997-1.742,2.997-3.8l0.156-8.538c0.08-0.005,0.159-0.012,0.24-0.02c0.125-0.011,0.236-0.003,0.382-0.022l0.052,8.599
		c0,2.155,1.182,3.78,2.748,3.78h0.068c0.543,0,2.361-0.268,2.951-3.724l1.293-10.256c0.323,0.295,0.888,0.703,1.539,0.703
		c0.894,0,1.567-0.681,2.003-2.024C32.754,22.894,32.829,17.302,30.504,12.953z M13.296,24.934
		c-1.063-1.891-0.594-4.969-0.594-4.969c0.094,2.828,0.688,4.016,0.688,4.016S13.429,24.08,13.296,24.934z M19.376,36.641
		c0,1.359-0.822,2.465-1.833,2.465h-0.069c-1.126,0-1.599-1.383-1.794-2.527l-1.101-10.292c0.453,0.441,0.982,0.793,1.607,1.067
		c0.477,0.178,1.729,0.595,3.348,0.772L19.376,36.641z M25.987,36.543c-0.2,1.169-0.676,2.563-1.802,2.563h-0.068
		c-1.088,0-1.584-1.3-1.584-2.51l-0.053-8.434c1.983-0.162,3.587-0.718,4.781-1.654L25.987,36.543z M28.32,25.781l0.023-0.784
		c0,0,1.063-1.609,1.125-4.859C29.468,20.137,30.094,23.581,28.32,25.781z M30.863,24.944c-0.249,0.773-0.575,1.217-0.895,1.217
		c-0.17,0-0.396-0.106-0.627-0.29c2.881-4.758-0.469-10.218-0.502-10.272c-0.152-0.244-0.483-0.339-0.733-0.224
		c-0.265,0.118-0.402,0.417-0.319,0.698c1.146,3.814,1.036,6.679-0.329,8.514c-1.466,1.971-4.034,2.394-5.453,2.47
		c-0.04-0.004-0.078,0.006-0.124,0.025c-0.035-0.013-0.071-0.021-0.096-0.021c-0.016,0-0.033,0.003-0.052,0.006
		c-0.066,0-0.132-0.007-0.197-0.014c-0.082-0.009-0.163-0.017-0.243-0.017c-1.928,0-3.729-0.415-4.672-0.765
		c-4.38-1.931-2.592-10.061-2.573-10.144c0.065-0.292-0.104-0.593-0.389-0.688c-0.328-0.106-0.597,0.054-0.712,0.316
		c-2.098,4.775-1.086,8.36-0.632,9.537c-0.177,0.212-0.413,0.422-0.65,0.422c-0.301,0-0.636-0.338-0.805-0.584
		c-0.089-0.359-0.501-2.513,0.455-8.552c0.87-5.494,4.206-6.951,5.486-7.31c0.418,0.769,1.505,2.153,3.904,2.153
		c2.426,0,3.716-1.329,4.238-2.053c1.891,0.654,3.415,2.044,4.532,4.133C31.548,17.377,31.613,22.636,30.863,24.944z"/>
</g>
</svg>
