<?xml version="1.0" encoding="utf-8"?>
<!-- Generator: Adobe Illustrator 17.0.0, SVG Export Plug-In . SVG Version: 6.00 Build 0)  -->
<!DOCTYPE svg PUBLIC "-//W3C//DTD SVG 1.1//EN" "http://www.w3.org/Graphics/SVG/1.1/DTD/svg11.dtd">
<svg version="1.1" id="Layer_1" xmlns="http://www.w3.org/2000/svg" xmlns:xlink="http://www.w3.org/1999/xlink" x="0px" y="0px"
	 width="42px" height="42px" viewBox="0 0 42 42" enable-background="new 0 0 42 42" xml:space="preserve">
<path fill="#FFFFFF" d="M40.979,24.012c-1.555-7.056-5.923-10.57-9.313-12.137C28.015,10.188,24.756,10,24.619,10h-0.001
	c-0.252,0-0.493,0.268-0.671,0.446c-0.178,0.178-0.278,0.504-0.278,0.756l0.007,8.152l-0.801-0.937c-0.135-0.162-0.5-0.254-0.69-0.3
	c0-0.01-0.184-0.009-0.184-0.02V5.517c0-0.524,0.024-0.949-0.5-0.949c-0.524,0-0.5,0.425-0.5,0.949v12.461l-1.482,1.557
	l-0.088-8.253c0-0.252-0.147-0.66-0.325-0.838C18.927,10.265,18.662,10,18.41,10h-0.013c-0.137,0-3.404,0.188-7.055,1.875
	c-3.392,1.567-7.764,4.998-9.32,12.053C2.009,23.995,2,24.147,2,24.216v7.411c0,0.007-0.002,0.023-0.002,0.03
	c0.001,0.042,0.025,1.055,0.377,2.108c0.667,2,1.914,2.826,2.843,2.952C5.26,36.723,5.303,37,5.346,37h9.468
	c0.013,0,0.027-0.274,0.04-0.274c0.119-0.005,1.194-0.223,2.275-0.85c1.053-0.611,2.287-1.917,2.194-4.393l0.006-8.948l2.23-2.695
	l2.118,2.526l0.007,9.071c-0.093,2.476,1.142,3.731,2.196,4.342c1.082,0.626,2.158,0.943,2.277,0.948
	C28.171,36.727,28.184,37,28.198,37h9.468c0.043,0,0.085-0.277,0.128-0.282c1.314-0.179,2.321-1.294,2.837-2.856
	c0.348-1.054,0.37-2.175,0.37-2.218v-7.428C41,24.147,40.993,24.079,40.979,24.012z M17,31.537c0,1.233-0.13,2.252-0.987,2.772
	C15.372,34.698,14.894,35,14.783,35H5.42C4.04,34,4,31.75,4,31.611V24.32c1-4.975,3.819-8.509,8.12-10.519
	c2.169-1.014,4.019-1.364,5.168-1.49L17,31.47C17,31.483,17,31.524,17,31.537z M39,31.612C39,31.752,38.969,34,37.592,35h-9.365
	c-0.096,0-0.759-0.297-1.389-0.662c-0.892-0.517-1.296-1.547-1.245-2.803c0.001-0.013,0.01-0.053,0.01-0.067l0.002-9.056
	c0.062-0.19,0.063-0.403,0-0.595l0.002-9.516c1.149,0.126,3.109,0.481,5.277,1.495C35.181,15.806,38,19.345,39,24.32V31.612z
	 M15.367,19.363c-0.328,0-0.593,0.266-0.593,0.593s0.266,0.593,0.593,0.593c0.328,0,0.593-0.266,0.593-0.593
	S15.695,19.363,15.367,19.363z M11.649,17.623c0.328,0,0.593-0.266,0.593-0.593s-0.266-0.593-0.593-0.593s-0.593,0.266-0.593,0.593
	S11.321,17.623,11.649,17.623z M15.367,14.616c-0.328,0-0.593,0.266-0.593,0.593s0.266,0.593,0.593,0.593
	c0.328,0,0.593-0.266,0.593-0.593S15.695,14.616,15.367,14.616z M9.275,20.787c-0.328,0-0.593,0.266-0.593,0.593
	s0.266,0.593,0.593,0.593c0.328,0,0.593-0.266,0.593-0.593S9.603,20.787,9.275,20.787z M6.348,25.851
	c-0.328,0-0.593,0.266-0.593,0.593c0,0.328,0.266,0.593,0.593,0.593c0.328,0,0.593-0.266,0.593-0.593
	C6.941,26.116,6.676,25.851,6.348,25.851z M11.926,26.207c0-0.328-0.266-0.593-0.593-0.593c-0.328,0-0.593,0.266-0.593,0.593
	s0.266,0.593,0.593,0.593C11.66,26.8,11.926,26.535,11.926,26.207z M15.367,25.772c-0.328,0-0.593,0.266-0.593,0.593
	s0.266,0.593,0.593,0.593c0.328,0,0.593-0.266,0.593-0.593S15.695,25.772,15.367,25.772z M9.038,31.31
	c-0.328,0-0.593,0.266-0.593,0.593s0.266,0.593,0.593,0.593c0.328,0,0.593-0.266,0.593-0.593S9.366,31.31,9.038,31.31z
	 M5.082,29.886c-0.328,0-0.593,0.266-0.593,0.593s0.266,0.593,0.593,0.593c0.328,0,0.593-0.266,0.593-0.593
	S5.41,29.886,5.082,29.886z M12.124,29.174c-0.328,0-0.593,0.266-0.593,0.593c0,0.328,0.266,0.593,0.593,0.593
	c0.328,0,0.593-0.266,0.593-0.593C12.717,29.439,12.451,29.174,12.124,29.174z M15.367,30.994c-0.328,0-0.593,0.266-0.593,0.593
	c0,0.328,0.266,0.593,0.593,0.593c0.328,0,0.593-0.266,0.593-0.593C15.961,31.259,15.695,30.994,15.367,30.994z M27.077,19.363
	c-0.328,0-0.593,0.266-0.593,0.593s0.266,0.593,0.593,0.593c0.328,0,0.593-0.266,0.593-0.593S27.405,19.363,27.077,19.363z
	 M30.796,17.623c0.328,0,0.593-0.266,0.593-0.593s-0.266-0.593-0.593-0.593s-0.593,0.266-0.593,0.593S30.468,17.623,30.796,17.623z
	 M27.077,14.616c-0.328,0-0.593,0.266-0.593,0.593s0.266,0.593,0.593,0.593c0.328,0,0.593-0.266,0.593-0.593
	S27.405,14.616,27.077,14.616z M33.762,21.381c0-0.328-0.266-0.593-0.593-0.593s-0.593,0.266-0.593,0.593s0.266,0.593,0.593,0.593
	S33.762,21.708,33.762,21.381z M36.096,27.038c0.328,0,0.593-0.266,0.593-0.593c0-0.328-0.266-0.593-0.593-0.593
	s-0.593,0.266-0.593,0.593C35.503,26.772,35.769,27.038,36.096,27.038z M31.112,25.613c-0.328,0-0.593,0.266-0.593,0.593
	s0.266,0.593,0.593,0.593s0.593-0.266,0.593-0.593S31.44,25.613,31.112,25.613z M27.077,25.772c-0.328,0-0.593,0.266-0.593,0.593
	s0.266,0.593,0.593,0.593c0.328,0,0.593-0.266,0.593-0.593S27.405,25.772,27.077,25.772z M33.406,31.31
	c-0.328,0-0.593,0.266-0.593,0.593s0.266,0.593,0.593,0.593S34,32.231,34,31.903S33.734,31.31,33.406,31.31z M37.362,31.073
	c0.328,0,0.593-0.266,0.593-0.593s-0.266-0.593-0.593-0.593s-0.593,0.266-0.593,0.593S37.035,31.073,37.362,31.073z M30.321,29.174
	c-0.328,0-0.593,0.266-0.593,0.593c0,0.328,0.266,0.593,0.593,0.593c0.328,0,0.593-0.266,0.593-0.593
	C30.914,29.439,30.649,29.174,30.321,29.174z M27.077,30.994c-0.328,0-0.593,0.266-0.593,0.593c0,0.328,0.266,0.593,0.593,0.593
	c0.328,0,0.593-0.266,0.593-0.593C27.67,31.259,27.405,30.994,27.077,30.994z"/>
<path fill="#FFFFFF" d="M15.367,19.363c-0.328,0-0.593,0.266-0.593,0.593s0.266,0.593,0.593,0.593c0.328,0,0.593-0.266,0.593-0.593
	S15.695,19.363,15.367,19.363z M11.649,17.623c0.328,0,0.593-0.266,0.593-0.593s-0.266-0.593-0.593-0.593s-0.593,0.266-0.593,0.593
	S11.321,17.623,11.649,17.623z M15.367,14.616c-0.328,0-0.593,0.266-0.593,0.593s0.266,0.593,0.593,0.593
	c0.328,0,0.593-0.266,0.593-0.593S15.695,14.616,15.367,14.616z M9.275,20.787c-0.328,0-0.593,0.266-0.593,0.593
	s0.266,0.593,0.593,0.593c0.328,0,0.593-0.266,0.593-0.593S9.603,20.787,9.275,20.787z M6.348,25.851
	c-0.328,0-0.593,0.266-0.593,0.593c0,0.328,0.266,0.593,0.593,0.593c0.328,0,0.593-0.266,0.593-0.593
	C6.941,26.116,6.676,25.851,6.348,25.851z M11.926,26.207c0-0.328-0.266-0.593-0.593-0.593c-0.328,0-0.593,0.266-0.593,0.593
	s0.266,0.593,0.593,0.593C11.66,26.8,11.926,26.535,11.926,26.207z M15.367,25.772c-0.328,0-0.593,0.266-0.593,0.593
	s0.266,0.593,0.593,0.593c0.328,0,0.593-0.266,0.593-0.593S15.695,25.772,15.367,25.772z M9.038,31.31
	c-0.328,0-0.593,0.266-0.593,0.593s0.266,0.593,0.593,0.593c0.328,0,0.593-0.266,0.593-0.593S9.366,31.31,9.038,31.31z
	 M5.082,29.886c-0.328,0-0.593,0.266-0.593,0.593s0.266,0.593,0.593,0.593c0.328,0,0.593-0.266,0.593-0.593
	S5.41,29.886,5.082,29.886z M12.124,29.174c-0.328,0-0.593,0.266-0.593,0.593c0,0.328,0.266,0.593,0.593,0.593
	c0.328,0,0.593-0.266,0.593-0.593C12.717,29.439,12.451,29.174,12.124,29.174z M15.367,30.994c-0.328,0-0.593,0.266-0.593,0.593
	c0,0.328,0.266,0.593,0.593,0.593c0.328,0,0.593-0.266,0.593-0.593C15.961,31.259,15.695,30.994,15.367,30.994z M27.077,19.363
	c-0.328,0-0.593,0.266-0.593,0.593s0.266,0.593,0.593,0.593c0.328,0,0.593-0.266,0.593-0.593S27.405,19.363,27.077,19.363z
	 M30.796,17.623c0.328,0,0.593-0.266,0.593-0.593s-0.266-0.593-0.593-0.593s-0.593,0.266-0.593,0.593S30.468,17.623,30.796,17.623z
	 M27.077,14.616c-0.328,0-0.593,0.266-0.593,0.593s0.266,0.593,0.593,0.593c0.328,0,0.593-0.266,0.593-0.593
	S27.405,14.616,27.077,14.616z M33.762,21.381c0-0.328-0.266-0.593-0.593-0.593s-0.593,0.266-0.593,0.593s0.266,0.593,0.593,0.593
	S33.762,21.708,33.762,21.381z M36.096,27.038c0.328,0,0.593-0.266,0.593-0.593c0-0.328-0.266-0.593-0.593-0.593
	s-0.593,0.266-0.593,0.593C35.503,26.772,35.769,27.038,36.096,27.038z M31.112,25.613c-0.328,0-0.593,0.266-0.593,0.593
	s0.266,0.593,0.593,0.593s0.593-0.266,0.593-0.593S31.44,25.613,31.112,25.613z M27.077,25.772c-0.328,0-0.593,0.266-0.593,0.593
	s0.266,0.593,0.593,0.593c0.328,0,0.593-0.266,0.593-0.593S27.405,25.772,27.077,25.772z M33.406,31.31
	c-0.328,0-0.593,0.266-0.593,0.593s0.266,0.593,0.593,0.593S34,32.231,34,31.903S33.734,31.31,33.406,31.31z M37.362,31.073
	c0.328,0,0.593-0.266,0.593-0.593s-0.266-0.593-0.593-0.593s-0.593,0.266-0.593,0.593S37.035,31.073,37.362,31.073z M30.321,29.174
	c-0.328,0-0.593,0.266-0.593,0.593c0,0.328,0.266,0.593,0.593,0.593c0.328,0,0.593-0.266,0.593-0.593
	C30.914,29.439,30.649,29.174,30.321,29.174z M27.077,30.994c-0.328,0-0.593,0.266-0.593,0.593c0,0.328,0.266,0.593,0.593,0.593
	c0.328,0,0.593-0.266,0.593-0.593C27.67,31.259,27.405,30.994,27.077,30.994z"/>
</svg>
