<?xml version="1.0" encoding="utf-8"?>
<!-- Generator: Adobe Illustrator 17.0.0, SVG Export Plug-In . SVG Version: 6.00 Build 0)  -->
<!DOCTYPE svg PUBLIC "-//W3C//DTD SVG 1.1//EN" "http://www.w3.org/Graphics/SVG/1.1/DTD/svg11.dtd">
<svg version="1.1" id="Layer_1" xmlns="http://www.w3.org/2000/svg" xmlns:xlink="http://www.w3.org/1999/xlink" x="0px" y="0px"
	 width="42px" height="42px" viewBox="0 0 42 42" enable-background="new 0 0 42 42" xml:space="preserve">
<g>
	<path fill="#FFFFFF" d="M22.888,39.589c-0.482,0-0.991-0.134-1.514-0.397c-4.573-2.303-5.797-5.239-6.018-7.296
		c-0.285-2.651,0.97-4.959,2.341-6.07c0.933-0.756,2.044-0.915,2.811-0.915c0.886,0,1.794,0.21,2.429,0.56
		c0.621,0.342,1.138,0.379,1.332,0.379l0.109-0.005l0.054,0.003c0.201,0.012,0.754-0.027,1.41-0.389
		c0.635-0.35,1.543-0.56,2.429-0.56c0.768,0,1.879,0.159,2.812,0.915c1.371,1.111,2.627,3.42,2.341,6.071
		c-0.222,2.057-1.446,4.993-6.019,7.295c-0.974,0.491-1.917,0.526-2.66,0.098l-0.057-0.037c-0.12-0.089-0.216-0.135-0.281-0.159
		c-0.064,0.019-0.172,0.064-0.316,0.17l-0.057,0.037C23.69,39.488,23.304,39.589,22.888,39.589z M20.509,26.098
		c-0.576,0-1.401,0.112-2.064,0.65c-1.121,0.908-2.146,2.813-1.909,5.02c0.19,1.764,1.276,4.3,5.372,6.362
		c0.443,0.223,0.778,0.27,0.98,0.27c0.198,0,0.371-0.041,0.529-0.127c0.377-0.271,0.698-0.359,0.902-0.384l0.046-0.006l0.235,0.018
		c0.253,0.056,0.509,0.178,0.763,0.36c0.158,0.085,0.331,0.127,0.529,0.127c0.202,0,0.536-0.047,0.98-0.27
		c4.096-2.062,5.182-4.598,5.372-6.362c0.238-2.207-0.787-4.112-1.909-5.02c-0.663-0.537-1.488-0.65-2.064-0.65
		c-0.818,0-1.511,0.222-1.855,0.412c-0.985,0.543-1.821,0.541-2.029,0.536c-0.029,0.002-0.068,0.003-0.118,0.003
		c-0.355,0-1.074-0.069-1.906-0.527C22.02,26.32,21.327,26.098,20.509,26.098z"/>
	<polygon fill="#FFFFFF" points="19.865,40.617 8.534,40.617 8.534,13.432 12.448,6.4 19.925,6.4 23.84,13.432 23.84,24.053 
		22.652,24.053 22.652,13.741 19.227,7.589 13.146,7.589 9.721,13.741 9.721,39.429 19.865,39.429 	"/>
	<path fill="#FFFFFF" d="M20.247,4.921h-8.181V1.383h8.181V4.921z M13.254,3.733h5.806V2.571h-5.806V3.733z"/>
	<polygon fill="#FFFFFF" points="16.235,38.146 11.244,38.146 11.244,18.778 21.307,18.778 21.307,22.847 20.119,22.847 
		20.119,19.966 12.432,19.966 12.432,36.958 16.235,36.958 	"/>
	<path fill="#FFFFFF" d="M24.891,24.668c-0.601,0-1.238-0.153-1.893-0.454l-0.348-0.16l0.003-0.383c0-0.042,0.08-4.225,5.947-4.047
		l0.725,0.024l-0.167,0.707C29.117,20.53,28.102,24.668,24.891,24.668z M23.89,23.296c0.352,0.123,0.687,0.185,1.001,0.185
		c1.597,0,2.482-1.665,2.87-2.665C24.759,20.962,24.055,22.547,23.89,23.296z"/>
</g>
</svg>
