<?xml version="1.0" encoding="iso-8859-1"?>
<!-- Generator: Adobe Illustrator 17.0.0, SVG Export Plug-In . SVG Version: 6.00 Build 0)  -->
<!DOCTYPE svg PUBLIC "-//W3C//DTD SVG 1.1//EN" "http://www.w3.org/Graphics/SVG/1.1/DTD/svg11.dtd">
<svg version="1.1" id="Capa_1" xmlns="http://www.w3.org/2000/svg" xmlns:xlink="http://www.w3.org/1999/xlink" x="0px" y="0px"
	 width="42px" height="42px" viewBox="0 0 42 42" style="enable-background:new 0 0 42 42;" xml:space="preserve">
<g>
	<path style="fill:#FFFFFF;" d="M21,0.667C9.788,0.667,0.667,9.788,0.667,21c0,11.212,9.122,20.333,20.333,20.333
		c11.212,0,20.333-9.121,20.333-20.333C41.333,9.788,32.212,0.667,21,0.667z M21,2.667c4.785,0,9.134,1.858,12.402,4.871
		L7.538,33.402C4.525,30.134,2.667,25.785,2.667,21C2.667,10.891,10.891,2.667,21,2.667z M21,39.333
		c-4.605,0-8.808-1.72-12.031-4.534L34.799,8.969c2.814,3.224,4.534,7.426,4.534,12.031C39.333,31.109,31.109,39.333,21,39.333z"/>
</g>
</svg>
