<?xml version="1.0" encoding="iso-8859-1"?>
<!-- Generator: Adobe Illustrator 17.0.0, SVG Export Plug-In . SVG Version: 6.00 Build 0)  -->
<!DOCTYPE svg PUBLIC "-//W3C//DTD SVG 1.1//EN" "http://www.w3.org/Graphics/SVG/1.1/DTD/svg11.dtd">
<svg version="1.1" id="Capa_1" xmlns="http://www.w3.org/2000/svg" xmlns:xlink="http://www.w3.org/1999/xlink" x="0px" y="0px"
	 width="42px" height="42px" viewBox="0 0 42 42" style="enable-background:new 0 0 42 42;" xml:space="preserve">
<g>
	<path style="fill:#FFFFFF;" d="M37.884,31.388l-6.448-3.224c-0.608-0.304-0.986-0.916-0.986-1.596v-2.282
		c0.155-0.189,0.317-0.404,0.485-0.642c0.836-1.181,1.507-2.496,1.994-3.914c0.952-0.437,1.571-1.378,1.571-2.441v-2.7
		c0-0.65-0.243-1.28-0.675-1.772v-3.59c0.038-0.371,0.186-2.581-1.412-4.404c-1.386-1.582-3.636-2.383-6.688-2.383
		s-5.301,0.802-6.688,2.383c-0.969,1.105-1.295,2.35-1.393,3.243c-1.157-0.598-2.52-0.901-4.069-0.901
		c-7.013,0-7.421,5.977-7.425,6.075v3.091c-0.437,0.477-0.675,1.027-0.675,1.573v2.331c0,0.728,0.326,1.407,0.885,1.866
		c0.557,2.099,1.926,3.686,2.46,4.242v1.852c0,0.531-0.289,1.019-0.79,1.293l-4.491,2.817C1.819,33.24,0.75,35.041,0.75,37v2.563
		h9.45h1.35h29.7v-2.729C41.25,34.513,39.96,32.426,37.884,31.388z M10.2,36.702v1.511H2.1V37c0-1.465,0.799-2.811,2.12-3.532
		l4.49-2.817c0.9-0.491,1.459-1.432,1.459-2.458v-2.424l-0.215-0.2c-0.018-0.016-1.811-1.71-2.341-4.02l-0.061-0.267l-0.231-0.149
		c-0.311-0.201-0.496-0.538-0.496-0.9v-2.331c0-0.243,0.165-0.532,0.453-0.792l0.222-0.2l-0.001-3.632
		c0.012-0.194,0.364-4.764,6.076-4.764c1.615,0,2.975,0.373,4.05,1.11v3.193c-0.432,0.492-0.675,1.122-0.675,1.772v2.7
		c0,0.205,0.024,0.407,0.068,0.603c0.018,0.078,0.055,0.15,0.08,0.225c0.037,0.113,0.067,0.23,0.119,0.337
		c0.001,0.001,0.001,0.002,0.002,0.003c0.173,0.356,0.425,0.675,0.742,0.929c0.003,0.013,0.007,0.024,0.011,0.036
		c0.04,0.155,0.083,0.308,0.129,0.459l0.055,0.176c0.009,0.031,0.021,0.063,0.031,0.094c0.024,0.073,0.047,0.145,0.071,0.217
		c0.041,0.118,0.083,0.24,0.132,0.373c0.021,0.055,0.044,0.105,0.065,0.16c0.055,0.141,0.111,0.277,0.169,0.412
		c0.014,0.032,0.026,0.068,0.04,0.099l0.038,0.085c0.018,0.039,0.036,0.074,0.053,0.113c0.066,0.144,0.131,0.284,0.198,0.419
		c0.011,0.022,0.021,0.045,0.032,0.067c0.043,0.084,0.085,0.164,0.128,0.245c0.073,0.139,0.144,0.27,0.216,0.397
		c0.035,0.062,0.07,0.123,0.104,0.182c0.097,0.166,0.19,0.319,0.279,0.46c0.02,0.03,0.038,0.062,0.057,0.091
		c0.163,0.253,0.305,0.458,0.423,0.618c0.031,0.043,0.058,0.079,0.084,0.115c0.015,0.02,0.035,0.048,0.048,0.065v2.234
		c0,0.653-0.356,1.253-0.929,1.566l-1.786,0.974l-0.311-0.028l-0.127,0.267l-3.798,2.072C11.416,32.424,10.2,34.472,10.2,36.702z
		 M39.9,38.213H11.55v-1.511c0-1.735,0.946-3.33,2.47-4.161l6.022-3.285c1.008-0.55,1.633-1.605,1.633-2.752v-2.712v-0.001
		l-0.131-0.157l-0.026-0.03c-0.001-0.002-0.043-0.053-0.111-0.142c-0.004-0.005-0.008-0.011-0.013-0.016
		c-0.036-0.047-0.078-0.103-0.126-0.169c-0.001-0.001-0.001-0.002-0.002-0.003c-0.101-0.14-0.227-0.321-0.367-0.54
		c-0.003-0.005-0.006-0.01-0.009-0.015c-0.066-0.103-0.136-0.216-0.208-0.335c-0.005-0.009-0.011-0.018-0.016-0.027
		c-0.153-0.256-0.315-0.545-0.476-0.866l-0.001-0.001c-0.086-0.172-0.171-0.353-0.255-0.541l0,0
		c-0.011-0.026-0.024-0.052-0.035-0.078l0,0c-0.037-0.084-0.074-0.173-0.112-0.264c-0.014-0.033-0.027-0.068-0.041-0.101
		c-0.035-0.088-0.071-0.178-0.109-0.279c-0.069-0.184-0.134-0.375-0.196-0.573l-0.037-0.12c-0.004-0.014-0.009-0.027-0.013-0.041
		c-0.063-0.213-0.124-0.431-0.176-0.655l-0.061-0.267l-0.23-0.149c-0.391-0.252-0.625-0.676-0.625-1.132v-2.7
		c0-0.379,0.161-0.732,0.452-0.996l0.223-0.2V9.188V8.949l-0.018-0.014c-0.023-0.487,0.006-1.981,1.096-3.224
		c1.118-1.276,3.027-1.923,5.673-1.923c2.636,0,4.541,0.642,5.661,1.909C32.7,7.183,32.483,9.083,32.482,9.1l-0.006,4.292
		l0.223,0.201c0.292,0.263,0.452,0.616,0.452,0.995v2.7c0,0.589-0.386,1.105-0.96,1.282l-0.336,0.103l-0.108,0.334
		c-0.452,1.405-1.095,2.702-1.913,3.856c-0.2,0.284-0.396,0.536-0.565,0.728L29.1,23.783v2.784c0,1.195,0.664,2.269,1.732,2.803
		l6.448,3.224c1.616,0.808,2.62,2.432,2.62,4.239C39.9,36.833,39.9,38.213,39.9,38.213z"/>
</g>
</svg>
