<?xml version="1.0" encoding="iso-8859-1"?>
<!-- Generator: Adobe Illustrator 17.0.0, SVG Export Plug-In . SVG Version: 6.00 Build 0)  -->
<!DOCTYPE svg PUBLIC "-//W3C//DTD SVG 1.1//EN" "http://www.w3.org/Graphics/SVG/1.1/DTD/svg11.dtd">
<svg version="1.1" id="Capa_1" xmlns="http://www.w3.org/2000/svg" xmlns:xlink="http://www.w3.org/1999/xlink" x="0px" y="0px"
	 width="42px" height="42px" viewBox="0 0 42 42" style="enable-background:new 0 0 42 42;" xml:space="preserve">
<g>
	<g>
		<g>
			<path style="fill:#FFFFFF;" d="M33.279,24.558c-3.076,0-5.786,1.601-7.339,4.014l-2.47-1.347
				c-0.57-0.311-0.924-0.908-0.924-1.557v-2.219c0.449-0.588,1.735-2.422,2.35-4.855c0.634-0.508,1.004-1.269,1.004-2.086v-2.683
				c0-0.646-0.241-1.272-0.671-1.761V8.496c0.038-0.369,0.185-2.566-1.403-4.378C22.448,2.546,20.212,1.75,17.18,1.75
				s-5.269,0.796-6.646,2.368C8.944,5.93,9.092,8.127,9.129,8.496v3.568c-0.429,0.489-0.671,1.115-0.671,1.761v2.683
				c0,0.816,0.371,1.577,1.004,2.086c0.615,2.433,1.901,4.267,2.35,4.855v2.219c0,0.649-0.354,1.246-0.924,1.557L4.904,30.49
				c-1.945,1.061-3.154,3.097-3.154,5.313v2.843c0,0.37,0.301,0.671,0.671,0.671h24.572C28.58,40.969,30.812,42,33.279,42
				C38.088,42,42,38.088,42,33.279S38.088,24.558,33.279,24.558z M3.092,37.975v-2.172c0-1.725,0.941-3.309,2.455-4.135l5.985-3.265
				c1.001-0.546,1.623-1.594,1.623-2.734v-2.452c0-0.156-0.055-0.309-0.156-0.43c-0.017-0.019-1.664-2.023-2.288-4.74
				c-0.039-0.17-0.144-0.319-0.29-0.413C10.032,17.382,9.8,16.962,9.8,16.508v-2.683c0-0.376,0.16-0.727,0.45-0.989
				c0.141-0.127,0.221-0.308,0.221-0.498v-3.88c0-0.029-0.002-0.058-0.006-0.088c-0.002-0.019-0.23-1.877,1.077-3.368
				c1.112-1.269,3.009-1.911,5.638-1.911c2.62,0,4.513,0.639,5.626,1.898c1.305,1.477,1.09,3.365,1.088,3.381
				c-0.004,0.029-0.006,0.058-0.006,0.088v3.879c0,0.19,0.08,0.371,0.221,0.498c0.29,0.262,0.449,0.613,0.449,0.99v2.683
				c0,0.454-0.231,0.873-0.62,1.125c-0.147,0.095-0.251,0.243-0.29,0.413c-0.624,2.717-2.271,4.721-2.288,4.74
				c-0.1,0.121-0.156,0.274-0.156,0.43v2.452c0,1.14,0.623,2.188,1.623,2.734l2.476,1.351c-0.479,1.079-0.745,2.271-0.745,3.525
				c0,1.728,0.505,3.339,1.375,4.696L3.092,37.975L3.092,37.975z M33.279,40.658c-2.152,0-4.092-0.927-5.442-2.401
				c-0.028-0.04-0.061-0.076-0.098-0.109c-1.144-1.3-1.839-3.005-1.839-4.869c0-4.069,3.311-7.379,7.379-7.379
				s7.379,3.311,7.379,7.379C40.658,37.348,37.348,40.658,33.279,40.658z"/>
			<path style="fill:#FFFFFF;" d="M37.304,32.608H33.95v-3.354c0-0.37-0.301-0.671-0.671-0.671c-0.37,0-0.671,0.301-0.671,0.671
				v3.354h-3.354c-0.37,0-0.671,0.301-0.671,0.671s0.301,0.671,0.671,0.671h3.354v3.354c0,0.37,0.301,0.671,0.671,0.671
				c0.37,0,0.671-0.301,0.671-0.671V33.95h3.354c0.37,0,0.671-0.301,0.671-0.671S37.674,32.608,37.304,32.608z"/>
		</g>
	</g>
</g>
</svg>
