<?xml version="1.0" encoding="iso-8859-1"?>
<!-- Generator: Adobe Illustrator 17.0.0, SVG Export Plug-In . SVG Version: 6.00 Build 0)  -->
<!DOCTYPE svg PUBLIC "-//W3C//DTD SVG 1.1//EN" "http://www.w3.org/Graphics/SVG/1.1/DTD/svg11.dtd">
<svg version="1.1" id="Layer_1" xmlns="http://www.w3.org/2000/svg" xmlns:xlink="http://www.w3.org/1999/xlink" x="0px" y="0px"
	 width="512px" height="512px" viewBox="-49 141 512 512" style="enable-background:new -49 141 512 512;" xml:space="preserve">
<path style="fill:#FFFFFF;" d="M128.476,542.775c-4.057,0-7.347,3.289-7.347,7.347v31.409c0,4.057,3.289,7.347,7.347,7.347
	s7.347-3.289,7.347-7.347v-31.409C135.823,546.065,132.533,542.775,128.476,542.775z"/>
<path style="fill:#FFFFFF;" d="M285.524,542.775c-4.057,0-7.347,3.289-7.347,7.347v31.409c0,4.057,3.289,7.347,7.347,7.347
	c4.057,0,7.347-3.289,7.347-7.347v-31.409C292.871,546.065,289.581,542.775,285.524,542.775z"/>
<path style="fill:#FFFFFF;" d="M62.37,399.645c1.055,0.528,2.176,0.777,3.28,0.777c2.695,0,5.29-1.489,6.577-4.062
	c1.815-3.629,0.344-8.042-3.286-9.857c-17.06-8.53-49.047-8.628-50.4-8.628c-4.056,0-7.345,3.287-7.346,7.345
	c-0.001,4.056,3.286,7.347,7.344,7.349C26.804,392.573,50.789,393.855,62.37,399.645z"/>
<path style="fill:#FFFFFF;" d="M-5.016,527.07c-4.057,0-7.347,3.289-7.347,7.347v47.115c0,4.057,3.289,7.347,7.347,7.347
	s7.347-3.289,7.347-7.347v-47.115C2.331,530.36-0.958,527.07-5.016,527.07z"/>
<path style="fill:#FFFFFF;" d="M440.688,499.632l-29.752-14.874c-0.172-0.086-0.28-0.261-0.28-0.453l0.002-14.953
	c12.213-8.41,20.858-21.705,23.021-37.307c5.493-9.493,8.388-20.216,8.388-31.118c0-20.331-9.79-38.416-24.9-49.797
	c0.886-2.95,1.343-5.992,1.343-9.096c0-19.206-17.387-34.831-38.756-34.831c-21.37,0-38.756,15.625-38.756,34.831
	c0,3.108,0.453,6.152,1.338,9.099c-9.009,6.787-16.113,15.963-20.39,26.572c-1.821-17.896-3.718-39.052-5.537-63.696
	c-2.4-32.516-14.094-59.976-33.817-79.409C263.02,215.314,236.88,205.121,207,205.121s-56.02,10.193-75.591,29.478
	c-19.723,19.434-31.417,46.893-33.817,79.409c-0.638,8.633-1.284,16.815-1.934,24.604H26.394c-25.7,0-46.609,20.909-46.609,46.609
	v0.438c0,5.985,1.415,11.979,4.092,17.333l3.761,7.522v11.995c0,19.01,9.368,36.067,23.557,46.332v10.611
	c0,1.361-0.914,2.571-2.222,2.946l-30.331,8.666c-13.197,3.769-22.414,15.989-22.414,29.714v60.755c0,4.057,3.289,7.347,7.347,7.347
	s7.347-3.289,7.347-7.347v-60.755c0-7.2,4.835-13.609,11.757-15.587l30.332-8.666c1.094-0.312,2.134-0.737,3.123-1.24l18.619,18.619
	v67.629c0,4.057,3.289,7.347,7.347,7.347s7.347-3.289,7.347-7.347v-67.629l18.749-18.749c2.506,1.229,5.003,1.944,6.833,2.468
	l7.448,2.128c-10.093,7.176-16.313,18.881-16.313,31.574v50.207c0,4.057,3.289,7.347,7.347,7.347c4.057,0,7.347-3.289,7.347-7.347
	v-50.207c0-9.523,5.63-18.163,14.342-22.011l42.004-18.552c13.163,26.359,40.06,43.151,69.799,43.151
	c29.85,0,56.657-16.755,69.812-43.146l41.992,18.546c8.712,3.848,14.342,12.488,14.342,22.011v50.207
	c0,4.057,3.289,7.347,7.347,7.347c4.057,0,7.347-3.289,7.347-7.347v-50.207c0-9.398-3.416-18.252-9.279-25.134l11.37-5.685
	l8.535,8.111c5.97,5.674,13.628,8.509,21.289,8.509c7.658,0,15.321-2.837,21.288-8.509l8.534-8.11l24.54,12.269
	c5.528,2.763,8.961,8.32,8.961,14.5v54.257c0,4.057,3.289,7.347,7.347,7.347c4.057,0,7.347-3.289,7.347-7.347v-54.257
	C457.772,515.494,451.226,504.902,440.688,499.632z M355.691,342.033c0-11.104,10.795-20.137,24.062-20.137
	s24.062,9.034,24.062,20.137c0,0.465-0.037,0.927-0.074,1.387c-7.388-3.094-15.491-4.808-23.988-4.808
	c-8.496,0-16.598,1.714-23.984,4.807C355.731,342.959,355.691,342.498,355.691,342.033z M379.754,353.306
	c26.258,0,47.62,21.363,47.62,47.62c0,5.061-0.826,10.075-2.416,14.861c-20.861-21.193-57.559-29.499-59.328-29.889
	c-2.173-0.479-4.447,0.054-6.183,1.448c-1.735,1.395-2.745,3.501-2.745,5.727c0,0.048-0.335,5.145-5.7,10.51
	c-2.869,2.869-2.869,7.521,0,10.389c2.869,2.869,7.521,2.869,10.389,0c4.132-4.132,6.559-8.325,7.984-11.867
	c12.362,3.672,38.02,12.947,49.535,29.227c-3.268,18.934-19.67,32.918-39.157,32.918c-20.342,0-37.332-15.232-39.519-35.432
	c-0.118-1.082-0.473-2.125-1.043-3.053c-4.618-7.52-7.058-16.109-7.058-24.839C332.133,374.669,353.495,353.306,379.754,353.306z
	 M141.722,245.065c16.766-16.519,39.338-25.251,65.278-25.251s48.513,8.732,65.278,25.251
	c17.149,16.898,27.342,41.112,29.477,70.024c5.784,78.358,12.369,122.054,14.933,137.203c0.039,0.233-0.039,0.336-0.179,0.426
	c-6.987,4.523-22.149,12.959-45.802,19.288l-12.115-5.351c-3.026-1.336-4.981-4.338-4.981-7.646v-25.258
	c23.61-15.318,39.263-41.908,39.263-72.087v-13.776c0-8.953-3.807-17.399-10.444-23.171
	c-14.761-12.838-48.176-35.242-106.106-41.036c-4.027-0.404-7.638,2.541-8.041,6.58c-0.404,4.038,2.542,7.638,6.58,8.041
	c53.882,5.388,84.481,25.809,97.926,37.502c3.428,2.98,5.393,7.385,5.393,12.083v13.776c0,39.247-31.93,71.177-71.177,71.177
	s-71.177-31.93-71.177-71.177v-6.146c0-2.823,1.565-5.409,4.187-6.919c9.186-5.289,21.299-15.087,26.846-31.727
	c1.283-3.849-0.797-8.01-4.647-9.293c-3.848-1.283-8.01,0.797-9.293,4.647c-4.087,12.26-13.262,19.622-20.238,23.639
	c-7.124,4.102-11.549,11.633-11.549,19.653v6.146c0,30.18,15.652,56.77,39.263,72.087v25.258c0,3.308-1.955,6.309-4.981,7.646
	l-12.116,5.351c-23.663-6.331-38.825-14.772-45.802-19.289c-0.139-0.09-0.217-0.193-0.178-0.425
	c2.563-15.148,9.147-58.842,14.933-137.203C114.38,286.178,124.572,261.963,141.722,245.065z M2.331,422.508v-13.73
	c0-1.14-0.265-2.266-0.776-3.286l-4.536-9.073c-1.661-3.325-2.54-7.045-2.54-10.762v-0.438c0-17.598,14.318-31.916,31.916-31.916
	H89.72v30.499c0,4.928-1.165,9.864-3.37,14.272l-3.708,7.415c-0.51,1.021-0.776,2.145-0.776,3.286v15.705
	c0,10.848-4.289,20.985-12.076,28.541c-7.784,7.554-18.061,11.537-28.92,11.207C19.619,463.595,2.331,444.877,2.331,422.508z
	 M40.429,478.919c0.565,0.018,1.127,0.025,1.691,0.025c5.572,0,11.011-0.841,16.188-2.447v2.95c0,1.594,0.164,3.04,0.455,4.36
	L42.1,500.47l-16.741-16.741c0.346-1.379,0.531-2.814,0.531-4.279v-3.099C30.511,477.868,35.386,478.768,40.429,478.919z
	 M73.001,479.45l0.002-10.122c2.468-1.709,4.821-3.622,7.022-5.759c1.481-1.437,2.86-2.949,4.153-4.517
	c1.18,2.394,2.99,4.486,5.328,5.999c5.889,3.814,17.003,10.148,33.346,15.983l-20.579,9.09l-23.209-6.631
	C73,481.761,73.001,481.085,73.001,479.45z M207,519.218c-23.904,0-45.552-13.362-56.348-34.398l10.694-4.724
	c8.346-3.686,13.739-11.963,13.739-21.086v-17.629c9.871,3.966,20.643,6.154,31.916,6.154s22.043-2.187,31.916-6.154v17.629
	c0,9.124,5.393,17.401,13.739,21.086l10.692,4.723C252.558,505.879,230.993,519.218,207,519.218z M291.15,481.036
	c16.335-5.832,27.447-12.164,33.344-15.983c5.066-3.281,7.69-9.25,6.682-15.211c-0.055-0.326-0.115-0.684-0.173-1.036
	c4.132,8.309,10.31,15.357,17.848,20.547v14.952c0,0.193-0.107,0.366-0.279,0.453l-23.018,11.509
	c-0.273-0.128-0.536-0.272-0.812-0.395L291.15,481.036z M368.586,497.965l-6.829-6.489c1.152-2.159,1.785-4.608,1.785-7.172v-7.818
	c5.131,1.592,10.574,2.458,16.21,2.458c5.636,0,11.079-0.866,16.209-2.458l-0.001,7.816c0,2.565,0.633,5.014,1.786,7.174
	l-6.828,6.488C384.658,503.917,374.849,503.916,368.586,497.965z"/>
<path style="fill:#FFFFFF;" d="M419.016,536.778c-4.057,0-7.347,3.289-7.347,7.347v37.407c0,4.057,3.289,7.347,7.347,7.347
	c4.057,0,7.347-3.289,7.347-7.347v-37.407C426.363,540.068,423.074,536.778,419.016,536.778z"/>
</svg>
