<?xml version="1.0" encoding="utf-8"?>
<!-- Generator: Adobe Illustrator 17.0.0, SVG Export Plug-In . SVG Version: 6.00 Build 0)  -->
<!DOCTYPE svg PUBLIC "-//W3C//DTD SVG 1.1//EN" "http://www.w3.org/Graphics/SVG/1.1/DTD/svg11.dtd">
<svg version="1.1" id="Layer_1" xmlns="http://www.w3.org/2000/svg" xmlns:xlink="http://www.w3.org/1999/xlink" x="0px" y="0px"
	 width="42px" height="42px" viewBox="0 0 42 42" enable-background="new 0 0 42 42" xml:space="preserve">
<g>
	<g>
		<path fill="#FFFFFF" d="M22.476,3.973h0.005 M22.476,3.973c0,0-2.25,8.875,3.25,13.813c0,0,2.438-4.563,4.75-5.125
			c0,0-1.119,4.417,0.313,9.375c1.75,6.063,0.938,13.25-6.688,15.625c-0.556,0.195-1.52,0.351-2.686,0.351
			c-4.077,0-10.636-1.911-10.96-10.789c-0.234-6.415,3.167-7.75,2.083-13.625c0,0,4.75,3.25,4,7.875c0,0,0.813-2.313,0.75-8.25
			S20.789,4.911,22.476,3.973 M30.476,12.661h0.005 M22.476,2.973c-0.011,0-0.022,0-0.034,0.001c-0.17,0.006-0.33,0.054-0.468,0.134
			c-3.821,2.129-5.734,5.536-5.685,10.126c0.011,1.064-0.007,2.009-0.043,2.84c-1.283-2.006-3.018-3.216-3.143-3.301
			c-0.17-0.116-0.367-0.175-0.565-0.175c-0.19,0-0.379,0.054-0.545,0.162c-0.339,0.22-0.512,0.622-0.438,1.02
			c0.522,2.831-0.088,4.483-0.793,6.396c-0.667,1.808-1.424,3.858-1.306,7.084c0.316,8.665,6.385,11.752,11.959,11.752
			c1.177,0,2.277-0.148,3.017-0.407c8.231-2.563,9.183-10.385,7.318-16.846c-1.258-4.357-0.432-8.294-0.317-8.798
			c0.03-0.095,0.046-0.195,0.046-0.3c0-0.552-0.444-0.999-0.996-1c-0.002,0-0.004,0-0.007,0c-0.017,0-0.033,0-0.05,0.001
			c-0.073,0.004-0.145,0.015-0.213,0.034c-1.922,0.486-3.728,2.938-4.685,4.453c-3.702-4.39-2.254-11.193-2.096-11.875
			c0.03-0.095,0.046-0.196,0.046-0.301c0-0.552-0.445-1-0.997-1h-0.002C22.478,2.973,22.477,2.973,22.476,2.973L22.476,2.973z"/>
	</g>
	<path fill="#FFFFFF" d="M25.023,37.281c0.819-1.163,1.262-2.773,1.224-4.587c-0.085-5.683-4.099-10.989-4.269-11.212
		c-0.143-0.186-0.395-0.246-0.604-0.151c-0.212,0.097-0.329,0.327-0.283,0.555c0.604,2.964-0.262,4.82-0.834,5.666
		c-0.547-0.678-1.488-1.247-1.847-1.45c-0.151-0.086-0.338-0.087-0.491,0c-0.152,0.085-0.249,0.244-0.255,0.419l-0.083,2.5
		c-0.009,0.276,0.207,0.507,0.483,0.517h0.017c0.269,0,0.491-0.213,0.5-0.483l0.054-1.619c0.549,0.397,1.009,0.837,1.032,1.068
		c0.019,0.188,0.143,0.351,0.32,0.418c0.178,0.066,0.378,0.029,0.517-0.102c0.087-0.081,1.811-1.726,1.792-5.046
		c1.185,1.975,2.899,5.426,2.951,8.94c0.042,2.014-0.53,3.27-1.042,3.995c-0.607,0.797-1.394,1.137-2.134,1.258
		c-0.019,0.003-0.038,0.003-0.056,0.009c-1.095,0.163-2.071-0.148-2.179-0.18c-0.015-0.003-1.478-0.286-2.335-1.65
		c-0.754-1.199-0.845-2.873-0.271-4.976c0.072-0.267-0.084-0.542-0.351-0.614c-0.268-0.07-0.542,0.086-0.614,0.351
		c-0.652,2.394-0.518,4.341,0.4,5.789c1.093,1.722,2.891,2.066,2.921,2.066c0.001,0,0.001,0,0.001,0
		c0.064,0.021,0.811,0.267,1.787,0.267c0.275,0,0.569-0.021,0.87-0.07c0.031,0.001,0.062,0.005,0.094,0.005
		c0.656,0,1.37-0.312,1.994-0.878c0.245-0.222,0.461-0.484,0.663-0.764c0.007-0.009,0.015-0.016,0.022-0.025
		C25.019,37.291,25.02,37.285,25.023,37.281z"/>
</g>
</svg>
