<?xml version="1.0" encoding="utf-8"?>
<!-- Generator: Adobe Illustrator 17.0.0, SVG Export Plug-In . SVG Version: 6.00 Build 0)  -->
<!DOCTYPE svg PUBLIC "-//W3C//DTD SVG 1.1//EN" "http://www.w3.org/Graphics/SVG/1.1/DTD/svg11.dtd">
<svg version="1.1" id="Layer_1" xmlns="http://www.w3.org/2000/svg" xmlns:xlink="http://www.w3.org/1999/xlink" x="0px" y="0px"
	 width="42px" height="42px" viewBox="0 0 42 42" enable-background="new 0 0 42 42" xml:space="preserve">
<g>
	<g>
		<path fill="#313131" d="M21.526,14.388c-3.289,0-5.964-2.675-5.964-5.963c0-3.289,2.675-5.964,5.964-5.964
			c3.288,0,5.964,2.675,5.964,5.964C27.49,11.712,24.814,14.388,21.526,14.388z M21.526,3.46c-2.737,0-4.964,2.227-4.964,4.964
			c0,2.737,2.227,4.963,4.964,4.963s4.964-2.227,4.964-4.963C26.49,5.687,24.264,3.46,21.526,3.46z"/>
	</g>
	<g>
		<path fill="#313131" d="M27.336,40.175l-3.647-3.647c-0.493-0.619-1.064-2.102,0.021-3.595c0.519-0.718,1.047-2.311,0.529-3.445
			c-0.396-0.87-1.348-1.379-2.83-1.514c-0.133-0.022-0.226-0.03-0.32-0.03c-0.67,0-1.375,0.384-1.794,0.979
			c-0.397,0.562-0.75,1.573-0.173,3.203c1.162,3.483,1.182,4.941-1.012,6.208c-0.523,0.326-1.899,1.107-3.062,1.107
			c-0.486,0-0.879-0.137-1.166-0.406c-0.316-0.297-0.476-0.727-0.476-1.278c0.176-1.143,0.987-2.06,1.477-2.521
			c-0.738-1.051-2.603-4.023-1.963-6.449c0.295-0.804,0.866-1.566,1.47-2.374c1.047-1.398,2.232-2.981,2.39-5.059
			c-0.164-0.479-0.358-0.479-0.424-0.479c-0.193,0-0.95,0.161-2.557,2.235l-0.243,0.302c-1.102,1.372-2.054,2.557-3.434,2.557
			c-0.428,0-0.863-0.113-1.328-0.346l-0.116-0.08c-1.139-1.052-0.669-2.994-0.648-3.076l0.098-0.195
			c0.042-0.052,4.232-5.169,4.999-6.354c0.939-1.451,3.595-2.389,6.767-2.389l0.35,0.003c0.493,0,0.958-0.004,1.39-0.008
			c4.303-0.042,5.584-0.059,9.129,4.44l0.278,0.402c2.255,3.277,3.497,5.082,2.171,6.824c-0.232,0.228-0.459,0.314-0.71,0.314
			c-0.875,0-1.95-1.027-3.615-2.72c-0.735-0.747-1.847-1.876-2.192-1.938c-0.185,0.066-0.361,0.216-0.464,0.449
			c-0.158,0.361-0.278,1.259,0.704,3.224c0.354,0.708,0.771,1.347,1.175,1.963c1.219,1.863,2.369,3.623,1.137,6.441
			c-0.524,1.528-0.862,2.365-1.032,2.757c0.33,0.48,0.95,1.556,0.75,2.632c-0.13,0.701-0.566,1.265-1.297,1.676L27.336,40.175z
			 M21.089,26.943c0.156,0,0.309,0.014,0.455,0.04c2.28,0.205,3.224,1.25,3.605,2.089c0.728,1.598,0,3.575-0.63,4.447
			c-0.918,1.262-0.094,2.334-0.085,2.345l3.051,3.046c0.276-0.221,0.438-0.478,0.495-0.78c0.175-0.945-0.72-2.058-0.729-2.068
			l-0.207-0.25l0.145-0.292c0.003-0.007,0.361-0.738,1.125-2.959c1.03-2.36,0.115-3.759-1.043-5.53
			c-0.419-0.641-0.853-1.304-1.232-2.063c-0.889-1.777-1.132-3.148-0.725-4.074c0.224-0.508,0.631-0.859,1.179-1.016l0.216-0.029
			c0.657,0,1.484,0.808,2.89,2.235c0.876,0.891,2.334,2.371,2.876,2.42c0.748-1.089-0.021-2.318-2.259-5.571l-0.259-0.376
			c-3.362-4.266-4.426-4.075-8.314-4.033c-0.436,0.004-0.904,0.008-1.41,0.008l-0.339-0.003c-3.213,0-5.325,1.001-5.927,1.932
			c-0.748,1.155-4.396,5.625-4.989,6.351c-0.088,0.456-0.155,1.438,0.332,1.95c0.296,0.14,0.563,0.207,0.813,0.207
			c0.9,0,1.674-0.963,2.654-2.183l0.238-0.297c1.361-1.756,2.456-2.614,3.341-2.614c0.383,0,1.076,0.166,1.409,1.274l0.025,0.085
			l-0.005,0.089c-0.148,2.421-1.504,4.232-2.594,5.688c-0.584,0.779-1.088,1.453-1.318,2.075c-0.634,2.416,2.054,5.882,2.081,5.916
			l0.314,0.4l-0.407,0.308c-0.013,0.01-1.279,0.979-1.46,2.123c0.006,0.104,0.034,0.347,0.167,0.472
			c0.119,0.111,0.328,0.135,0.481,0.135c0.618,0,1.594-0.369,2.547-0.965c1.515-0.874,1.738-1.556,0.582-5.025
			c-0.559-1.577-0.453-3.038,0.301-4.105C19.088,27.48,20.089,26.943,21.089,26.943z"/>
	</g>
	<g>
		<path fill="#80007F" d="M10.688,29c-0.208,0-0.403-0.131-0.474-0.34c-0.088-0.261,0.052-0.545,0.313-0.634
			c14.502-4.915,17.828-19.425,17.86-19.571c0.059-0.269,0.321-0.44,0.595-0.381c0.271,0.059,0.441,0.325,0.382,0.595
			c-0.033,0.151-3.484,15.209-18.515,20.304C10.795,28.991,10.741,29,10.688,29z"/>
	</g>
</g>
</svg>
