<?xml version="1.0" encoding="utf-8"?>
<!-- Generator: Adobe Illustrator 17.0.0, SVG Export Plug-In . SVG Version: 6.00 Build 0)  -->
<!DOCTYPE svg PUBLIC "-//W3C//DTD SVG 1.1//EN" "http://www.w3.org/Graphics/SVG/1.1/DTD/svg11.dtd">
<svg version="1.1" id="Layer_1" xmlns="http://www.w3.org/2000/svg" xmlns:xlink="http://www.w3.org/1999/xlink" x="0px" y="0px"
	 width="42px" height="42px" viewBox="0 0 42 42" enable-background="new 0 0 42 42" xml:space="preserve">
<g>
	<g>
		<g>
			<g>
				<path fill="#333333" d="M10.226,10.226c2.122,0,3.848-1.726,3.848-3.848S12.347,2.53,10.226,2.53S6.378,4.256,6.378,6.378
					S8.104,10.226,10.226,10.226z M10.226,4.069c1.273,0,2.309,1.036,2.309,2.309s-1.036,2.309-2.309,2.309S7.917,7.651,7.917,6.378
					C7.917,5.105,8.953,4.069,10.226,4.069z"/>
				<path fill="#333333" d="M17.922,23.309c0-0.093,0-0.15-1.562-8.735c-0.141-1.601-1.454-2.809-3.055-2.809H7.147
					c-1.601,0-2.915,1.208-3.046,2.739C2.53,23.159,2.53,23.216,2.53,23.309c0,1.217,0.946,2.216,2.141,2.303l-1.357,6.781
					c-0.045,0.226,0.014,0.461,0.159,0.639c0.147,0.178,0.364,0.282,0.595,0.282h2.94l0.918,5.513
					c0.062,0.371,0.383,0.643,0.759,0.643h3.078c0.377,0,0.697-0.272,0.759-0.643l0.918-5.513h2.94c0.231,0,0.449-0.104,0.595-0.282
					c0.146-0.178,0.204-0.413,0.159-0.639l-1.357-6.781C16.975,25.525,17.922,24.526,17.922,23.309z M15.613,24.078h-0.77
					c-0.231,0-0.449,0.104-0.595,0.282c-0.146,0.178-0.204,0.413-0.159,0.639l1.355,6.775h-2.653c-0.377,0-0.697,0.272-0.759,0.643
					l-0.918,5.513H9.338L8.42,32.418c-0.062-0.371-0.383-0.643-0.759-0.643H5.008l1.355-6.775c0.045-0.226-0.014-0.461-0.159-0.639
					c-0.147-0.178-0.364-0.282-0.595-0.282h-0.77c-0.425,0-0.77-0.345-0.776-0.672c0.04-0.272,0.952-5.309,1.563-8.698
					c0.071-0.801,0.725-1.405,1.522-1.405h6.157c0.797,0,1.451,0.604,1.531,1.475c0.581,3.196,1.448,7.985,1.546,8.578
					C16.356,23.759,16.021,24.078,15.613,24.078z"/>
			</g>
		</g>
	</g>
	<path fill="none" d="M21.076,23C21.03,23,21,23.343,21,23.543C21,24.919,22.118,26,23.494,26H24v-3c0,0,0-0.063,0-0.15V23H21.076z"
		/>
	<path fill="none" d="M21,27c-0.848,0-1.539,1-1.539,2h18.47c0-1-0.691-2-1.539-2h-6.926h-5.972H21z"/>
	<path fill="none" d="M23.25,19.321c0.12,0.288,0.053,0.541-0.167,0.762L22.088,21H24v-2.309C24,18.267,23.733,18,23.309,18h-3.463
		c-0.212,0-0.308,0.134-0.308,0.346S20,18.865,20,18.865V19h2.539C22.85,19,23.132,19.033,23.25,19.321z"/>
	<path fill="#333333" d="M24,26h-0.506C22.118,26,21,24.919,21,23.543C21,23.343,21.03,23,21.076,23H24v-0.15c0-0.394,1-1.09,2-1.85
		v-2.309C26,17.418,24.582,16,23.309,16h-3.463c-1.061,0-1.924,0.939-1.924,2c0,1.061,0.863,2,1.924,2h0.836l-0.039,0.154
		c-0.762,0.762-1.181,1.833-1.181,2.912c0,0.974,0.4,1.885,0.977,2.583C19.028,25.93,18,27.204,18,28.696l0.059,2.093
		c0,0.425,0.266,0.212,0.691,0.212h20.009c0.425,0,0.299,0.214,0.299-0.212L39,28.712c0-0.633,0.26-1.223-0.069-1.712H24V26z M20,19
		v-0.154c0,0-0.462-0.211-0.462-0.423S19.634,18,19.846,18h3.463C23.733,18,24,18.267,24,18.691V21h-1.912l0.995-0.995
		c0.22-0.22,0.286-0.396,0.167-0.684C23.132,19.033,22.85,19,22.539,19H20z M29.466,27h6.926c0.849,0,1.539,1,1.539,2h-18.47
		c0-1,0.691-2,1.539-2h2.494H29.466z"/>
	<path fill="#933EC5" d="M24,26L24,26v-3.15c0,0.087,0,0.15,0,0.15V26z"/>
	<path fill="#933EC5" d="M32.524,25.617h0.039c-0.006-0.008-0.013-0.015-0.02-0.024C32.538,25.602,32.53,25.609,32.524,25.617z"/>
	<path fill="#810380" d="M38.157,26.181c0.799-0.706,1.313-1.725,1.313-2.872c0-2.122-1.883-3.848-4.005-3.848
		c-0.87,0-1.466,0.301-2.466,0.789v-1.944c0-1.061-0.939-1.924-2-1.924s-2,0.863-2,1.924V21h-3v-0.047c-1,0.76-2,1.503-2,1.897V26
		l0,0v1h14.931C38.719,26.685,38.467,26.399,38.157,26.181z M32,23.309C32,24.582,30.739,26,29.466,26H26v-3h4.235
		C30.661,23,31,22.195,31,21.769V18h1V23.309z M32.524,25.617c0.006-0.008,0.013-0.016,0.02-0.024
		c0.006,0.008,0.013,0.016,0.02,0.024H32.524z M35.622,25.617c-1.273,0-2.309-1.036-2.309-2.309S34.349,21,35.622,21
		s2.309,1.036,2.309,2.309S36.895,25.617,35.622,25.617z"/>
</g>
</svg>
