<?xml version="1.0" encoding="utf-8"?>
<!-- Generator: Adobe Illustrator 17.0.0, SVG Export Plug-In . SVG Version: 6.00 Build 0)  -->
<!DOCTYPE svg PUBLIC "-//W3C//DTD SVG 1.1 Tiny//EN" "http://www.w3.org/Graphics/SVG/1.1/DTD/svg11-tiny.dtd">
<svg version="1.1" baseProfile="tiny" id="Layer_1" xmlns="http://www.w3.org/2000/svg" xmlns:xlink="http://www.w3.org/1999/xlink"
	 x="0px" y="0px" width="42px" height="42px" viewBox="0 0 42 42" overflow="scroll" xml:space="preserve">
<g>
	<path fill="#80007F" d="M18.452,23.676c-0.084,0-0.167-0.025-0.239-0.072c-0.199-0.13-0.255-0.4-0.123-0.601l2.463-3.748V6.771
		c0-0.239,0.195-0.434,0.434-0.434s0.434,0.195,0.434,0.434v12.132l2.466,3.875c0.063,0.098,0.083,0.214,0.058,0.327
		c-0.026,0.113-0.093,0.209-0.191,0.271c-0.07,0.045-0.152,0.068-0.234,0.068c-0.149,0-0.286-0.074-0.366-0.2l-1.662-2.613
		l-0.366,0.131c-0.063,0.022-0.107,0.033-0.139,0.033c0.02-0.006-0.017-0.015-0.054-0.02l-0.309-0.047l-1.807,2.75
		C18.735,23.603,18.599,23.676,18.452,23.676z"/>
	<path fill="#111111" d="M27.443,35.663c-2.685-0.246-3.709-2.147-3.881-3.118l-0.029-0.161l0.008-20.597l1.49,0.149
		c13.475,1.347,14.628,11.928,14.671,12.378l0.005,6.771c0.201,2.986-1.977,4.275-3.157,4.544l-0.147,0.033H27.443z M24.411,32.31
		c0.139,0.829,0.948,2.288,3.07,2.483l8.823,0.002l0.053-0.012c0.943-0.214,2.673-1.256,2.479-3.667l0.002-6.689
		c-0.01-0.144-1.024-10.34-13.892-11.626l-0.536-0.053V32.31z M5.599,35.663L5.45,35.63c-1.179-0.269-3.358-1.558-3.158-4.51
		l0.001-6.771c0.015-0.145,1.188-11.064,14.676-12.412l1.49-0.149v20.683l-0.02,0.074c-0.172,0.971-1.195,2.872-3.841,3.112
		l-0.039,0.006H5.599z M17.055,12.8C4.188,14.087,3.173,24.282,3.164,24.385l-0.002,6.768c-0.192,2.371,1.538,3.414,2.481,3.628
		l0.053,0.012h8.779c2.166-0.195,2.976-1.655,3.107-2.4l0.008-19.647L17.055,12.8z"/>
</g>
</svg>
