<?xml version="1.0" encoding="utf-8"?>
<!-- Generator: Adobe Illustrator 17.0.0, SVG Export Plug-In . SVG Version: 6.00 Build 0)  -->
<!DOCTYPE svg PUBLIC "-//W3C//DTD SVG 1.1//EN" "http://www.w3.org/Graphics/SVG/1.1/DTD/svg11.dtd">
<svg version="1.1" id="Layer_1" xmlns="http://www.w3.org/2000/svg" xmlns:xlink="http://www.w3.org/1999/xlink" x="0px" y="0px"
	 width="42px" height="42px" viewBox="0 0 42 42" enable-background="new 0 0 42 42" xml:space="preserve">
<g>
	<path fill="#80007F" d="M4.579,23.093c-0.424-1.771,0.111-3.548,1.431-4.754c1.148-1.049,2.705-1.469,4.163-1.152
		c1.106-2.266,3.422-3.554,6.433-3.554c1.566,0.066,4.601,0.947,5.046,3.815l-1.059,0.165c-0.421-2.712-3.864-2.901-4.011-2.908
		c-1.586,0-4.458,0.432-5.608,3.321l-0.188,0.472l-0.481-0.163c-1.217-0.409-2.585-0.105-3.572,0.796
		c-1.027,0.939-1.443,2.327-1.111,3.713L4.579,23.093z"/>
	<path fill="#80007F" d="M34.612,23.073l-1.042-0.249c0.332-1.386-0.084-2.774-1.111-3.713c-0.987-0.9-2.355-1.205-3.572-0.796
		l-0.343-1.016c1.587-0.536,3.363-0.144,4.638,1.02C34.502,19.525,35.036,21.302,34.612,23.073z"/>
	<path fill="#212121" d="M27.818,35.6l-0.495-1.005c6.474-3.189,8.194-8.875,8.595-10.754H2.287
		c0.406,1.881,2.138,7.574,8.594,10.754L10.385,35.6c-8.343-4.109-9.288-11.928-9.325-12.259l-0.068-0.622h36.218l-0.068,0.622
		C37.107,23.671,36.161,31.491,27.818,35.6z"/>
	<path fill="#212121" d="M28.168,38.662H10.073v-4.126h18.095V38.662z M11.193,37.541h15.854v-1.884H11.193V37.541z"/>
	<path fill="#212121" d="M27.211,23.628l-0.792-0.793c1.173-1.173,1.876-2.668,1.88-4c-0.012-1.564,0.693-2.29,0.774-2.368
		l8.626-7.334c0.619-0.493,2.189-1.997,2.187-3.158c0-0.361-0.158-0.653-0.495-0.921L39.22,4.918l-0.011-0.07
		c-0.243-0.265-0.511-0.39-0.832-0.39h0c-1.165,0-2.665,1.569-3.144,2.173l-7.322,8.615c-0.101,0.106-0.816,0.8-2.36,0.8
		c-0.013,0-0.025,0-0.038,0c-1.327,0.004-2.822,0.707-3.995,1.88c-1.562,1.562-2.254,3.675-1.682,5.139l-1.044,0.407
		c-0.74-1.895,0.037-4.442,1.934-6.339c1.377-1.377,3.168-2.203,4.789-2.209c0.01,0,0.02,0,0.03,0c1.069,0,1.525-0.422,1.544-0.44
		l7.279-8.566c0.199-0.251,2.103-2.582,4.01-2.582c0,0,0,0,0.001,0c0.691,0,1.305,0.309,1.779,0.894
		c0.557,0.469,0.85,1.07,0.85,1.744c0.001,1.907-2.33,3.812-2.596,4.023l-8.586,7.298c0,0,0,0,0,0c0.005,0-0.414,0.465-0.405,1.536
		C29.415,20.46,28.589,22.25,27.211,23.628z"/>
</g>
</svg>
