<?xml version="1.0" encoding="utf-8"?>
<!-- Generator: Adobe Illustrator 17.0.0, SVG Export Plug-In . SVG Version: 6.00 Build 0)  -->
<!DOCTYPE svg PUBLIC "-//W3C//DTD SVG 1.1//EN" "http://www.w3.org/Graphics/SVG/1.1/DTD/svg11.dtd">
<svg version="1.1" id="Layer_1" xmlns="http://www.w3.org/2000/svg" xmlns:xlink="http://www.w3.org/1999/xlink" x="0px" y="0px"
	 width="42px" height="42px" viewBox="0 0 42 42" enable-background="new 0 0 42 42" xml:space="preserve">
<g>
	<path fill="#333333" d="M9.306,36.333H3.784c-1.827,0-3.313-1.487-3.313-3.313c0-1.827,1.487-3.313,3.313-3.313h0.463
		c-0.501-0.91-0.922-2.136-0.922-3.681c0-3.561,2.912-5.155,5.798-5.155h9.465c0.094-0.015,0.213-0.028,0.352-0.028
		c0.684,0,2.365,0.314,3.207,3.217c0.801,2.755,2.241,6.145,2.256,6.18c0.03,0.07,0.053,0.144,0.067,0.218
		c0.044,0.219,0.394,2.168-0.617,3.401c-0.349,0.425-0.997,0.933-2.104,0.933c-0.748,0-1.6-0.23-2.605-0.702
		c-0.235-0.112-0.424-0.302-0.533-0.538l-1.65-3.591l-3.492,0.801c-0.027,1.181-0.262,3.142-1.421,4.405
		C11.346,35.93,10.398,36.333,9.306,36.333z M3.784,31.915c-0.609,0-1.104,0.495-1.104,1.104c0,0.61,0.496,1.104,1.104,1.104h5.522
		c0.477,0,0.831-0.144,1.113-0.453c0.852-0.928,0.88-3.028,0.824-3.692c-0.047-0.549,0.317-1.048,0.854-1.172l5.246-1.202
		c0.506-0.119,1.03,0.139,1.25,0.615l1.851,4.027c1.451,0.603,1.646,0.275,1.703,0.208c0.243-0.297,0.236-1.059,0.175-1.47
		c-0.272-0.645-1.534-3.692-2.295-6.31c-0.373-1.286-0.875-1.625-1.087-1.625c-0.152,0.074-0.08,0.029-0.246,0.029H9.122
		c-0.599,0-3.59,0.142-3.59,2.946c0,2.591,1.652,3.886,1.669,3.898c0.383,0.283,0.541,0.781,0.392,1.233
		c-0.149,0.454-0.571,0.76-1.048,0.76H3.784z"/>
</g>
<g>
	<path fill="#333333" d="M26.702,23.263c-3.197,0-5.798-2.6-5.798-5.798s2.601-5.798,5.798-5.798s5.798,2.601,5.798,5.798
		S29.899,23.263,26.702,23.263z M26.702,13.876c-1.979,0-3.59,1.61-3.59,3.59s1.61,3.59,3.59,3.59s3.59-1.61,3.59-3.59
		S28.681,13.876,26.702,13.876z"/>
</g>
<g>
	<path fill="#810380" d="M33.772,34H26v-7.772h7.772V34z M27.554,32.446h4.663v-4.663h-4.663V32.446z"/>
</g>
<g>
	<g>
		<path fill="#810380" d="M40.75,29.204h-6.218v-6.218h6.218V29.204z M36.087,27.65h3.109v-3.109h-3.109V27.65z"/>
	</g>
</g>
</svg>
