<?xml version="1.0" encoding="utf-8"?>
<!-- Generator: Adobe Illustrator 17.0.0, SVG Export Plug-In . SVG Version: 6.00 Build 0)  -->
<!DOCTYPE svg PUBLIC "-//W3C//DTD SVG 1.1//EN" "http://www.w3.org/Graphics/SVG/1.1/DTD/svg11.dtd">
<svg version="1.1" id="Capa_1" xmlns="http://www.w3.org/2000/svg" xmlns:xlink="http://www.w3.org/1999/xlink" x="0px" y="0px"
	 width="42px" height="42px" viewBox="0 0 42 42" enable-background="new 0 0 42 42" xml:space="preserve">
<g>
	<g>
		<path fill="#FFFFFF" d="M40.92,6.3c1.439-1.439,1.439-3.781,0-5.221s-3.781-1.439-5.22,0c-0.429,0.429-0.728,0.937-0.902,1.478
			c-4.272-2.396-9.672-2.011-13.591,1.196L8.982,14.035c-0.118-0.089-0.614-0.276-0.721-0.332c-2.39-1.237-5.274-0.789-7.178,1.115
			c-1.443,1.443-1.443,3.778,0,5.22l6.177,6.177c-1.571,2.366-1.341,5.62,0.783,7.744c2.122,2.122,5.376,2.355,7.744,0.783
			l6.177,6.177c1.439,1.439,3.781,1.439,5.22,0c1.904-1.904,2.352-4.789,1.115-7.179c-0.055-0.107-0.243-0.604-0.332-0.721
			L38.25,20.788c3.226-3.943,3.569-9.348,1.192-13.586C39.983,7.028,40.492,6.729,40.92,6.3z M9.783,32.22
			c-1.151-1.151-1.37-2.849-0.722-4.202l4.924,4.924C12.637,33.587,10.938,33.374,9.783,32.22z M25.444,39.18
			c-0.48,0.48-1.26,0.48-1.74,0L2.822,18.299c-0.481-0.481-0.481-1.259,0-1.74c0.712-0.712,1.653-1.085,2.608-1.085
			c0.577,0,1.159,0.136,1.698,0.415c0.144,0.075,0.919,0.675,0.919,0.675c0.001,0.001,0.001,0.001,0.002,0.002l17.387,17.387
			c0.001,0.001,0.001,0.001,0.002,0.002c0,0,0.6,0.775,0.675,0.919C26.856,36.307,26.587,38.038,25.444,39.18z M36.349,19.225
			L26.227,31.263L10.74,15.775l12.03-10.12C26.622,2.503,32.181,2.781,35.7,6.3C39.219,9.819,39.497,15.378,36.349,19.225z
			 M37.44,4.56c-0.481-0.481-0.481-1.259,0-1.74s1.259-0.481,1.74,0s0.481,1.259,0,1.74C38.699,5.041,37.921,5.041,37.44,4.56z"/>
	</g>
</g>
<g>
	<g>
		<path fill="#FFFFFF" d="M33.96,8.04c-0.48-0.48-1.26-0.48-1.74,0c-0.481,0.481-0.481,1.26,0,1.74
			c1.724,1.724,1.859,4.446,0.315,6.333l-2.024,2.474c-0.43,0.526-0.353,1.301,0.173,1.732c0.526,0.43,1.301,0.353,1.732-0.173
			l2.024-2.474C36.788,14.802,36.582,10.662,33.96,8.04z"/>
	</g>
</g>
</svg>
