<?xml version="1.0" encoding="utf-8"?>
<!-- Generator: Adobe Illustrator 17.0.0, SVG Export Plug-In . SVG Version: 6.00 Build 0)  -->
<!DOCTYPE svg PUBLIC "-//W3C//DTD SVG 1.1//EN" "http://www.w3.org/Graphics/SVG/1.1/DTD/svg11.dtd">
<svg version="1.1" id="Layer_1" xmlns="http://www.w3.org/2000/svg" xmlns:xlink="http://www.w3.org/1999/xlink" x="0px" y="0px"
	 width="42px" height="42px" viewBox="0 0 42 42" enable-background="new 0 0 42 42" xml:space="preserve">
<g>
	<path fill="#333333" d="M33.282,32.468l0.097-0.042l-4.995-11.488c1.189-0.242,2.018-0.096,2.086-0.083l0.444,0.093l0.183-0.214
		c0.025-0.003,0.049-0.003,0.074-0.008c0.358-0.077,0.603-0.392,0.606-0.744c3.516-3.628,6.888-2.92,7.033-2.887l1.635,0.393
		l-0.774-1.493c-0.104-0.201-2.615-4.937-8.041-6.202c-12.388-2.478-16.842,6.474-16.886,6.565l1.385,0.665
		c0.023-0.047,1.386-2.777,4.765-4.577c-1.069,5.729,0.121,9.003,0.795,10.294c-1.761,0.064-4.905,0.472-7.079,2.433
		c0.038-1.602,0.276-3.877,1.178-5.761l-1.386-0.664c-1.759,3.674-1.287,8.405-1.266,8.604l0.253,2.405l1.181-2.11
		c2.118-3.782,8.255-3.369,8.317-3.364l0.393,0.03l0.253-0.301c0.306-0.364,0.614-0.676,0.923-0.963l4.318,9.714
		c-8.086,1.072-11.494,4.701-11.689,4.917l1.139,1.031c0.062-0.069,6.394-6.824,22.854-4.025l0.258-1.515
		C38.338,32.66,35.665,32.459,33.282,32.468z M23.131,22.183c-0.494-0.86-1.872-3.936-0.635-9.947
		c1.05,0.345,2.99,1.124,4.388,2.521c0.3,0.3,0.786,0.3,1.086,0c0.3-0.3,0.3-0.786,0-1.086c-1.161-1.161-2.606-1.943-3.773-2.437
		c1.948-0.429,4.3-0.503,7.109,0.059c3.112,0.726,5.164,2.844,6.201,4.204c-1.507,0.084-3.853,0.64-6.257,2.855
		c-0.693-1.502-1.75-2.87-1.808-2.946c-0.261-0.335-0.743-0.395-1.078-0.135c-0.335,0.261-0.395,0.743-0.135,1.078
		c0.373,0.479,1.256,1.75,1.746,2.919C28.629,19.219,25.823,19.504,23.131,22.183z M25.702,22.064
		c0.415-0.272,0.821-0.489,1.211-0.659l4.825,11.097c-0.671,0.03-1.313,0.078-1.933,0.14l0.5-0.222L25.702,22.064z"/>
	<path fill="#810380" d="M8.194,7.705c-2.066,0-3.747,1.681-3.747,3.747s1.681,3.747,3.747,3.747s3.747-1.681,3.747-3.747
		S10.26,7.705,8.194,7.705z M8.194,14.174c-1.501,0-2.723-1.222-2.723-2.723s1.222-2.723,2.723-2.723s2.723,1.222,2.723,2.723
		S9.695,14.174,8.194,14.174z M7.714,6.875c0.424,0,0.768-0.344,0.768-0.768V4.059c0-0.424-0.344-0.768-0.768-0.768
		c-0.424,0-0.768,0.344-0.768,0.768v2.048C6.946,6.532,7.29,6.875,7.714,6.875z M7.714,15.58c-0.424,0-0.768,0.344-0.768,0.768
		v2.048c0,0.424,0.344,0.768,0.768,0.768c0.424,0,0.768-0.344,0.768-0.768v-2.048C8.482,15.923,8.138,15.58,7.714,15.58z
		 M15.394,10.545h-2.048c-0.424,0-0.768,0.344-0.768,0.768s0.344,0.768,0.768,0.768h2.048c0.424,0,0.768-0.344,0.768-0.768
		S15.818,10.545,15.394,10.545z M3.874,11.313c0-0.424-0.344-0.768-0.768-0.768H1.058c-0.424,0-0.768,0.344-0.768,0.768
		s0.344,0.768,0.768,0.768h2.048C3.53,12.081,3.874,11.737,3.874,11.313z M12.389,14.561c-0.3-0.3-0.786-0.3-1.086,0
		c-0.3,0.3-0.3,0.786,0,1.086l1.448,1.448c0.15,0.15,0.347,0.225,0.543,0.225c0.197,0,0.393-0.075,0.543-0.225
		c0.3-0.3,0.3-0.786,0-1.086L12.389,14.561z M4.062,8.406c0.15,0.15,0.347,0.225,0.543,0.225c0.197,0,0.393-0.075,0.543-0.225
		c0.3-0.3,0.3-0.786,0-1.086L3.7,5.872c-0.3-0.3-0.786-0.3-1.086,0c-0.3,0.3-0.3,0.786,0,1.086L4.062,8.406z M4.062,14.561
		l-1.448,1.448c-0.3,0.3-0.3,0.786,0,1.086c0.15,0.15,0.347,0.225,0.543,0.225c0.197,0,0.393-0.075,0.543-0.225l1.448-1.448
		c0.3-0.3,0.3-0.786,0-1.086C4.848,14.261,4.362,14.261,4.062,14.561z M11.846,8.631c0.197,0,0.393-0.075,0.543-0.225l1.448-1.448
		c0.3-0.3,0.3-0.786,0-1.086c-0.3-0.3-0.786-0.3-1.086,0L11.303,7.32c-0.3,0.3-0.3,0.786,0,1.086
		C11.453,8.556,11.65,8.631,11.846,8.631z"/>
</g>
</svg>
