<?xml version="1.0" encoding="utf-8"?>
<!-- Generator: Adobe Illustrator 17.0.0, SVG Export Plug-In . SVG Version: 6.00 Build 0)  -->
<!DOCTYPE svg PUBLIC "-//W3C//DTD SVG 1.1//EN" "http://www.w3.org/Graphics/SVG/1.1/DTD/svg11.dtd">
<svg version="1.1" id="Layer_1" xmlns="http://www.w3.org/2000/svg" xmlns:xlink="http://www.w3.org/1999/xlink" x="0px" y="0px"
	 width="42px" height="42px" viewBox="0 0 42 42" enable-background="new 0 0 42 42" xml:space="preserve">
<g>
	<g enable-background="new    ">
		<path fill="#80007C" d="M8.044,28.641V23.38H7.236v-0.903h1.806v6.165H8.044z"/>
		<path fill="#80007C" d="M10.666,22.294h3.82v0.869h-2.909v1.728c0.122-0.162,0.303-0.298,0.543-0.408
			c0.24-0.109,0.521-0.165,0.842-0.165s0.619,0.064,0.894,0.191s0.485,0.298,0.629,0.512c0.29,0.417,0.435,0.886,0.435,1.407
			c0,0.66-0.188,1.193-0.564,1.602c-0.376,0.408-0.899,0.612-1.567,0.612s-1.194-0.156-1.576-0.469
			c-0.382-0.313-0.611-0.727-0.686-1.242h0.964c0.063,0.272,0.205,0.488,0.425,0.647c0.22,0.159,0.515,0.238,0.886,0.238
			c0.37,0,0.658-0.124,0.864-0.373s0.308-0.58,0.308-0.994s-0.104-0.732-0.313-0.955s-0.515-0.334-0.92-0.334
			c-0.284,0-0.522,0.07-0.716,0.213c-0.194,0.142-0.334,0.334-0.421,0.577h-0.938V22.294z"/>
		<path fill="#80007C" d="M16.188,25.915v-0.833h3.568v0.833H16.188z"/>
		<path fill="#80007C" d="M21.71,28.641V23.38h-0.808v-0.903h1.806v6.165H21.71z"/>
		<path fill="#80007C" d="M24.236,23.823c0-0.486,0.182-0.894,0.543-1.22c0.361-0.328,0.876-0.491,1.541-0.491
			c0.666,0,1.18,0.164,1.541,0.491c0.362,0.326,0.543,0.733,0.543,1.22c0,0.324-0.082,0.608-0.247,0.854s-0.384,0.436-0.656,0.569
			c0.33,0.127,0.591,0.329,0.782,0.607c0.19,0.278,0.286,0.61,0.286,0.998c0,0.591-0.208,1.063-0.625,1.416
			c-0.417,0.353-0.957,0.529-1.619,0.529c-0.663,0-1.203-0.177-1.619-0.529c-0.417-0.354-0.626-0.825-0.626-1.416
			c0-0.394,0.096-0.729,0.287-1.007c0.19-0.277,0.448-0.478,0.772-0.599C24.538,24.945,24.236,24.47,24.236,23.823z M27.597,26.8
			c0-0.353-0.115-0.628-0.347-0.825c-0.232-0.196-0.54-0.295-0.925-0.295c-0.386,0-0.698,0.096-0.938,0.287
			c-0.24,0.19-0.36,0.467-0.36,0.829c0,0.361,0.116,0.648,0.348,0.859s0.546,0.316,0.942,0.316s0.709-0.106,0.938-0.321
			C27.482,27.437,27.597,27.154,27.597,26.8z M27.458,23.918c0-0.307-0.102-0.547-0.304-0.721c-0.203-0.173-0.479-0.26-0.829-0.26
			c-0.351,0-0.627,0.087-0.829,0.26c-0.203,0.174-0.305,0.416-0.305,0.726s0.105,0.556,0.317,0.737
			c0.211,0.183,0.481,0.274,0.812,0.274s0.603-0.093,0.816-0.278S27.458,24.225,27.458,23.918z"/>
	</g>
	<g>
		<path fill="#333333" d="M33.866,9.755c-0.097-0.118-0.244-0.158-0.391-0.184L8.727,9.696C8.49,9.697,8.286,9.865,8.239,10.097
			l-5,24.875c-0.029,0.147,0.008,0.3,0.104,0.415c0.095,0.116,0.237,0.184,0.387,0.184h24.5c0.236,0,0.44-0.166,0.489-0.397
			l4.72-22.475l4.227,21.914h-7.145c-0.276,0-0.5,0.224-0.5,0.5s0.224,0.5,0.5,0.5h7.75c0.149,0,0.291-0.066,0.386-0.182
			s0.134-0.267,0.105-0.413C38.762,35.017,33.961,9.871,33.866,9.755z M27.822,34.57H4.339l3.484-17.333h23.639L27.822,34.57z
			 M31.673,16.237H8.025l1.114-5.543l23.724-0.12L31.673,16.237z"/>
		<g>
			<path fill="#333333" d="M15.646,14.112c-2.467,0-4.125-1.658-4.125-4.125c0-1.283,0.813-2.526,2.073-3.166
				c1.449-0.736,3.148-0.528,4.659,0.575c0.223,0.163,0.272,0.475,0.109,0.698c-0.163,0.224-0.476,0.273-0.698,0.109
				c-1.197-0.872-2.516-1.05-3.617-0.491c-0.913,0.464-1.526,1.378-1.526,2.274c0,1.928,1.197,3.125,3.125,3.125
				c0.276,0,0.5,0.224,0.5,0.5S15.922,14.112,15.646,14.112z"/>
		</g>
		<g>
			<path fill="#333333" d="M26.896,14.112c-2.467,0-4.125-1.658-4.125-4.125c0-1.283,0.813-2.526,2.073-3.166
				c1.449-0.736,3.148-0.528,4.659,0.575c0.223,0.163,0.272,0.475,0.109,0.698c-0.163,0.224-0.476,0.273-0.698,0.109
				c-1.197-0.872-2.516-1.05-3.617-0.491c-0.913,0.464-1.526,1.378-1.526,2.274c0,1.928,1.197,3.125,3.125,3.125
				c0.276,0,0.5,0.224,0.5,0.5S27.172,14.112,26.896,14.112z"/>
		</g>
	</g>
</g>
</svg>
