<?xml version="1.0" encoding="utf-8"?>
<!-- Generator: Adobe Illustrator 17.0.0, SVG Export Plug-In . SVG Version: 6.00 Build 0)  -->
<!DOCTYPE svg PUBLIC "-//W3C//DTD SVG 1.1//EN" "http://www.w3.org/Graphics/SVG/1.1/DTD/svg11.dtd">
<svg version="1.1" id="Capa_1" xmlns="http://www.w3.org/2000/svg" xmlns:xlink="http://www.w3.org/1999/xlink" x="0px" y="0px"
	 width="42px" height="42px" viewBox="0 0 42 42" enable-background="new 0 0 42 42" xml:space="preserve">
<g>
	<path fill="#333333" d="M25.946,7.964v1.164h4.509v21.333H3.401V9.128h4.364V7.964H2.237v23.66h29.381V7.964H25.946z M11.401,6.776
		h-1.164v3.709h1.164V6.776z M23.401,6.776h-1.164v3.709h1.164V6.776z M19.692,7.867h-5.77v1.164h5.77V7.867z"/>
	<g>
		<rect x="14.255" y="15.976" fill="#333333" width="1.418" height="1.418"/>
		<rect x="18.231" y="15.976" fill="#333333" width="1.418" height="1.418"/>
		<rect x="22.182" y="15.976" fill="#333333" width="1.418" height="1.418"/>
		<rect x="26.182" y="15.976" fill="#333333" width="1.418" height="1.418"/>
	</g>
	<g>
		<rect x="14.255" y="19.903" fill="#333333" width="1.418" height="1.418"/>
		<rect x="10.255" y="19.903" fill="#333333" width="1.418" height="1.418"/>
		<rect x="6.207" y="19.903" fill="#333333" width="1.418" height="1.418"/>
		<rect x="18.231" y="19.903" fill="#333333" width="1.418" height="1.418"/>
		<rect x="22.182" y="19.903" fill="#333333" width="1.418" height="1.418"/>
		<rect x="26.182" y="19.903" fill="#333333" width="1.418" height="1.418"/>
	</g>
	<g>
		<rect x="14.255" y="23.927" fill="#333333" width="1.418" height="1.418"/>
		<rect x="10.255" y="23.927" fill="#333333" width="1.418" height="1.418"/>
		<rect x="6.207" y="23.927" fill="#333333" width="1.418" height="1.418"/>
		<rect x="18.231" y="23.927" fill="#333333" width="1.418" height="1.418"/>
		<rect x="22.182" y="23.927" fill="#333333" width="1.418" height="1.418"/>
		<rect x="26.182" y="23.927" fill="#333333" width="1.418" height="1.418"/>
	</g>
	<circle fill="#80007F" cx="31.999" cy="27.46" r="7.764"/>
	<g>
		<path fill="#FFFFFF" d="M32.252,24.85h-0.021l-1.214,0.655l-0.183-0.719l1.527-0.817h0.806v6.983h-0.913L32.252,24.85
			L32.252,24.85z"/>
	</g>
</g>
</svg>
