<?xml version="1.0" encoding="utf-8"?>
<!-- Generator: Adobe Illustrator 17.0.0, SVG Export Plug-In . SVG Version: 6.00 Build 0)  -->
<!DOCTYPE svg PUBLIC "-//W3C//DTD SVG 1.1//EN" "http://www.w3.org/Graphics/SVG/1.1/DTD/svg11.dtd">
<svg version="1.1" id="Layer_1" xmlns="http://www.w3.org/2000/svg" xmlns:xlink="http://www.w3.org/1999/xlink" x="0px" y="0px"
	 width="42px" height="42px" viewBox="0 0 42 42" enable-background="new 0 0 42 42" xml:space="preserve">
<g>
	<g>
		<path fill="#80007F" d="M10.516,21.82c0.435-0.355,1.001-0.533,1.703-0.533s1.252,0.178,1.65,0.533
			c0.398,0.355,0.597,0.804,0.597,1.346c0,0.418-0.107,0.769-0.324,1.052c-0.215,0.282-0.456,0.472-0.724,0.562v0.04
			c0.784,0.268,1.175,0.858,1.175,1.772c0,0.607-0.21,1.097-0.626,1.468c-0.418,0.371-0.992,0.558-1.723,0.558
			c-0.731,0-1.327-0.186-1.79-0.558c-0.463-0.371-0.704-0.916-0.724-1.635h1.331c0.013,0.321,0.122,0.576,0.328,0.769
			c0.206,0.192,0.481,0.288,0.827,0.288c0.345,0,0.609-0.093,0.788-0.28c0.18-0.186,0.269-0.452,0.269-0.798
			c0-0.346-0.122-0.602-0.367-0.769c-0.244-0.166-0.631-0.249-1.16-0.249h-0.284v-1.126h0.284c0.927,0,1.39-0.309,1.39-0.93
			c0-0.268-0.085-0.479-0.255-0.635s-0.411-0.236-0.724-0.236s-0.549,0.089-0.704,0.264c-0.156,0.176-0.248,0.373-0.273,0.587H9.837
			C9.854,22.672,10.081,22.175,10.516,21.82z"/>
		<path fill="#80007F" d="M15.922,25.661v-1.146h4.16v1.146H15.922z"/>
		<path fill="#80007F" d="M24.742,28.577v-1.39h-3.416v-1.077l3.192-4.58h1.595v4.464h0.861v1.195h-0.861v1.39L24.742,28.577
			L24.742,28.577z M24.828,25.994v-2.976l-1.957,2.976H24.828z"/>
	</g>
</g>
<path fill="#333333" d="M33.846,9.768c-0.097-0.118-0.244-0.158-0.391-0.184L8.706,9.708C8.469,9.709,8.265,9.877,8.218,10.11
	l-5,24.875c-0.029,0.147,0.008,0.3,0.104,0.415c0.095,0.116,0.237,0.184,0.387,0.184h24.5c0.236,0,0.44-0.166,0.489-0.397
	l4.72-22.475l4.227,21.914H30.5c-0.276,0-0.5,0.224-0.5,0.5s0.224,0.5,0.5,0.5h7.75c0.149,0,0.291-0.066,0.386-0.182
	s0.134-0.267,0.105-0.413C38.741,35.03,33.94,9.884,33.846,9.768z M27.802,34.583H4.319L7.803,17.25h23.639L27.802,34.583z
	 M31.652,16.25H8.004l1.114-5.543l23.724-0.12L31.652,16.25z"/>
<g>
	<path fill="#333333" d="M15.625,14.125c-2.467,0-4.125-1.658-4.125-4.125c0-1.283,0.813-2.526,2.073-3.166
		c1.449-0.736,3.148-0.528,4.659,0.575c0.223,0.163,0.272,0.475,0.109,0.698c-0.163,0.224-0.476,0.273-0.698,0.109
		c-1.197-0.872-2.516-1.05-3.617-0.491C13.113,8.189,12.5,9.104,12.5,10c0,1.928,1.197,3.125,3.125,3.125c0.276,0,0.5,0.224,0.5,0.5
		S15.901,14.125,15.625,14.125z"/>
</g>
<g>
	<path fill="#333333" d="M26.875,14.125c-2.467,0-4.125-1.658-4.125-4.125c0-1.283,0.813-2.526,2.073-3.166
		c1.449-0.736,3.148-0.528,4.659,0.575c0.223,0.163,0.272,0.475,0.109,0.698c-0.163,0.224-0.476,0.273-0.698,0.109
		c-1.197-0.872-2.516-1.05-3.617-0.491C24.363,8.189,23.75,9.104,23.75,10c0,1.928,1.197,3.125,3.125,3.125
		c0.276,0,0.5,0.224,0.5,0.5S27.151,14.125,26.875,14.125z"/>
</g>
</svg>
