<?xml version="1.0" encoding="utf-8"?>
<!-- Generator: Adobe Illustrator 17.0.0, SVG Export Plug-In . SVG Version: 6.00 Build 0)  -->
<!DOCTYPE svg PUBLIC "-//W3C//DTD SVG 1.1//EN" "http://www.w3.org/Graphics/SVG/1.1/DTD/svg11.dtd">
<svg version="1.1" id="Layer_1" xmlns="http://www.w3.org/2000/svg" xmlns:xlink="http://www.w3.org/1999/xlink" x="0px" y="0px"
	 width="42px" height="42px" viewBox="0 0 42 42" enable-background="new 0 0 42 42" xml:space="preserve">
<g>
	<path fill="#333333" d="M41.03,36.191L35.266,9.02c-0.001-0.004-0.002-0.008-0.003-0.012c-0.003-0.013-0.007-0.026-0.01-0.039
		c-0.005-0.019-0.01-0.037-0.017-0.055c-0.004-0.011-0.008-0.022-0.013-0.034c-0.008-0.02-0.016-0.039-0.024-0.058
		c-0.005-0.01-0.01-0.02-0.015-0.029c-0.01-0.02-0.021-0.039-0.032-0.057c-0.005-0.009-0.011-0.018-0.016-0.026
		c-0.013-0.019-0.026-0.038-0.04-0.056c-0.004-0.005-0.008-0.011-0.012-0.017c-0.002-0.002-0.004-0.004-0.006-0.006
		c-0.016-0.019-0.033-0.038-0.05-0.055c-0.005-0.005-0.01-0.011-0.015-0.016c-0.022-0.022-0.046-0.043-0.07-0.062
		c-0.008-0.007-0.017-0.012-0.026-0.018c-0.017-0.012-0.033-0.024-0.051-0.035c-0.012-0.007-0.024-0.014-0.036-0.021
		c-0.015-0.009-0.03-0.017-0.046-0.025c-0.013-0.006-0.026-0.012-0.039-0.018c-0.016-0.007-0.032-0.014-0.048-0.02
		c-0.013-0.005-0.026-0.009-0.039-0.014c-0.018-0.006-0.036-0.011-0.054-0.015c-0.012-0.003-0.025-0.006-0.037-0.009
		c-0.02-0.004-0.041-0.007-0.061-0.01c-0.011-0.002-0.022-0.004-0.033-0.005c-0.025-0.003-0.051-0.004-0.076-0.004
		c-0.006,0-0.012-0.001-0.018-0.001h-0.005c0,0,0,0,0,0h-9.734c0.373-1.033,1.363-1.774,2.523-1.774c0.641,0,1.261,0.23,1.746,0.647
		c0.38,0.327,0.953,0.283,1.279-0.097c0.327-0.38,0.283-0.953-0.097-1.279c-0.814-0.7-1.854-1.085-2.929-1.085
		c-2.168,0-3.983,1.543-4.403,3.588H12.322c0.373-1.033,1.363-1.774,2.523-1.774c0.641,0,1.261,0.23,1.746,0.647
		c0.38,0.327,0.953,0.283,1.279-0.097c0.327-0.38,0.283-0.953-0.097-1.279c-0.814-0.7-1.854-1.085-2.929-1.085
		c-2.168,0-3.983,1.543-4.403,3.588h-2.82c-0.429,0-0.799,0.3-0.887,0.719l-1.538,7.252c-0.001,0.003-0.001,0.006-0.002,0.008
		L0.97,36.191c-0.057,0.268,0.01,0.547,0.183,0.759s0.431,0.336,0.705,0.336h26.758c0.429,0,0.799-0.3,0.887-0.719l4.876-22.987
		l4.644,21.892h-7.686c-0.501,0-0.907,0.406-0.907,0.907s0.406,0.907,0.907,0.907h8.805c0.274,0,0.533-0.123,0.705-0.336
		C41.02,36.738,41.087,36.459,41.03,36.191z M8.356,10.116h2.085c0.421,2.045,2.235,3.588,4.403,3.588
		c0.501,0,0.907-0.406,0.907-0.907s-0.406-0.907-0.907-0.907c-1.16,0-2.15-0.741-2.523-1.774h10.437
		c0.421,2.045,2.235,3.588,4.403,3.588c0.501,0,0.907-0.406,0.907-0.907s-0.406-0.907-0.907-0.907c-1.16,0-2.15-0.741-2.523-1.774
		h8.62l-1.153,5.437H7.203L8.356,10.116z M27.88,35.472H2.977l3.84-18.105h24.903L27.88,35.472z"/>
	<g>
		<path fill="#80007C" d="M9.513,21.898c0.476-0.39,1.097-0.584,1.866-0.584c0.768,0,1.371,0.195,1.807,0.584
			s0.654,0.881,0.654,1.475c0,0.457-0.118,0.842-0.354,1.152s-0.5,0.517-0.793,0.616v0.043c0.858,0.294,1.287,0.94,1.287,1.941
			c0,0.665-0.229,1.201-0.686,1.608c-0.458,0.407-1.087,0.611-1.888,0.611c-0.8,0-1.455-0.204-1.962-0.611
			c-0.507-0.407-0.772-1.004-0.793-1.791h1.458c0.014,0.351,0.134,0.631,0.359,0.842s0.527,0.316,0.906,0.316
			c0.378,0,0.667-0.102,0.863-0.306c0.197-0.203,0.295-0.495,0.295-0.874s-0.134-0.659-0.402-0.842
			c-0.268-0.182-0.692-0.273-1.271-0.273h-0.311v-1.233h0.311c1.015,0,1.523-0.339,1.523-1.019c0-0.293-0.093-0.525-0.279-0.696
			c-0.186-0.172-0.45-0.258-0.793-0.258s-0.601,0.097-0.772,0.289c-0.172,0.193-0.272,0.408-0.3,0.644H8.768
			C8.789,22.833,9.037,22.288,9.513,21.898z"/>
		<path fill="#80007C" d="M15.437,26.107v-1.255h4.558v1.255H15.437z"/>
		<path fill="#80007C" d="M25.1,29.303V27.78h-3.743v-1.18l3.497-5.019h1.748v4.89h0.943v1.309h-0.943v1.522H25.1z M25.195,26.472
			v-3.26l-2.145,3.26H25.195z"/>
	</g>
</g>
</svg>
