<?xml version="1.0" encoding="utf-8"?>
<!-- Generator: Adobe Illustrator 17.0.0, SVG Export Plug-In . SVG Version: 6.00 Build 0)  -->
<!DOCTYPE svg PUBLIC "-//W3C//DTD SVG 1.1//EN" "http://www.w3.org/Graphics/SVG/1.1/DTD/svg11.dtd">
<svg version="1.1" id="Capa_1" xmlns="http://www.w3.org/2000/svg" xmlns:xlink="http://www.w3.org/1999/xlink" x="0px" y="0px"
	 width="42px" height="42px" viewBox="0 0 42 42" enable-background="new 0 0 42 42" xml:space="preserve">
<g>
	<g>
		<g id="Calendar_2_">
			<g>
				<path fill="#333333" d="M20.279,9.424h-5.083v1.694h5.083V9.424z M20.279,19.59h-1.694v1.694h1.694V19.59z M23.668,19.59h-1.694
					v1.694h1.694V19.59z M18.585,24.673h1.694v-1.694h-1.694V24.673z M23.668,8.577h-1.694v3.389h1.694V8.577z M20.279,16.201
					h-1.694v1.694h1.694V16.201z M27.057,16.201h-1.694v1.694h1.694V16.201z M27.057,19.59h-1.694v1.694h1.694V19.59z
					 M23.668,16.201h-1.694v1.694h1.694V16.201z M25.362,9.424v1.694h3.389v16.944H6.724V11.118h3.389V9.424H5.03v20.332h25.415
					V9.424C30.445,9.424,25.362,9.424,25.362,9.424z M13.502,22.979h-1.695v1.694h1.694C13.502,24.673,13.502,22.979,13.502,22.979z
					 M10.113,19.59H8.418v1.694h1.694C10.113,21.284,10.113,19.59,10.113,19.59z M13.502,19.59h-1.695v1.694h1.694
					C13.502,21.284,13.502,19.59,13.502,19.59z M8.418,24.673h1.694v-1.694H8.418V24.673z M16.89,16.201h-1.694v1.694h1.694V16.201z
					 M16.89,19.59h-1.694v1.694h1.694V19.59z M16.89,22.979h-1.694v1.694h1.694V22.979z M13.502,8.577h-1.695v3.389h1.694
					C13.502,11.966,13.502,8.577,13.502,8.577z M23.668,22.979h-1.694v1.694h1.694V22.979z"/>
			</g>
		</g>
	</g>
	<circle fill="#80007F" cx="29.968" cy="26.422" r="7.001"/>
	<g>
		<path fill="#FFFFFF" d="M27.376,28.6v-1.313h-2.241v-0.43l2.152-3.079h0.704v2.998h0.676v0.512H27.99V28.6L27.376,28.6
			L27.376,28.6z M27.376,26.774v-1.609c0-0.253,0.007-0.505,0.022-0.757h-0.022c-0.149,0.282-0.267,0.49-0.401,0.712l-1.179,1.64
			v0.015L27.376,26.774L27.376,26.774z"/>
		<path fill="#FFFFFF" d="M30.885,26.351v0.482h-1.833v-0.482H30.885z"/>
		<path fill="#FFFFFF" d="M34.194,24.236c-0.133-0.007-0.304,0-0.49,0.029c-1.024,0.171-1.566,0.921-1.677,1.714h0.022
			c0.229-0.304,0.63-0.557,1.165-0.557c0.853,0,1.454,0.616,1.454,1.558c0,0.883-0.601,1.7-1.603,1.7
			c-1.032,0-1.707-0.801-1.707-2.055c0-0.95,0.342-1.7,0.817-2.175c0.4-0.393,0.934-0.638,1.543-0.712
			c0.193-0.03,0.356-0.037,0.475-0.037v0.535H34.194z M34.009,27.019c0-0.69-0.393-1.105-0.995-1.105
			c-0.393,0-0.757,0.245-0.934,0.593c-0.045,0.074-0.074,0.171-0.074,0.289c0.015,0.795,0.378,1.38,1.061,1.38
			C33.631,28.176,34.009,27.709,34.009,27.019z"/>
	</g>
</g>
</svg>
