<?xml version="1.0" encoding="utf-8"?>
<!-- Generator: Adobe Illustrator 17.0.0, SVG Export Plug-In . SVG Version: 6.00 Build 0)  -->
<!DOCTYPE svg PUBLIC "-//W3C//DTD SVG 1.1//EN" "http://www.w3.org/Graphics/SVG/1.1/DTD/svg11.dtd">
<svg version="1.1" id="Capa_1" xmlns="http://www.w3.org/2000/svg" xmlns:xlink="http://www.w3.org/1999/xlink" x="0px" y="0px"
	 width="42px" height="42px" viewBox="0 0 42 42" enable-background="new 0 0 42 42" xml:space="preserve">
<g>
	<g>
		<path fill="#333333" d="M25.946,7.964v1.164h4.509v21.333H3.401V9.128h4.364V7.964H2.237v23.66h29.381V7.964H25.946z
			 M11.401,6.776h-1.164v3.709h1.164C11.401,10.485,11.401,6.776,11.401,6.776z M23.401,6.776h-1.164v3.709h1.164V6.776z
			 M19.692,7.867h-5.77v1.164h5.77V7.867z"/>
		<g>
			<rect x="14.255" y="15.976" fill="#333333" width="1.418" height="1.418"/>
			<rect x="18.231" y="15.976" fill="#333333" width="1.418" height="1.418"/>
			<rect x="22.182" y="15.976" fill="#333333" width="1.418" height="1.418"/>
			<rect x="26.182" y="15.976" fill="#333333" width="1.418" height="1.418"/>
		</g>
		<g>
			<rect x="14.255" y="19.903" fill="#333333" width="1.418" height="1.418"/>
			<rect x="10.255" y="19.903" fill="#333333" width="1.418" height="1.418"/>
			<rect x="6.207" y="19.903" fill="#333333" width="1.418" height="1.418"/>
			<rect x="18.231" y="19.903" fill="#333333" width="1.418" height="1.418"/>
			<rect x="22.182" y="19.903" fill="#333333" width="1.418" height="1.418"/>
			<rect x="26.182" y="19.903" fill="#333333" width="1.418" height="1.418"/>
		</g>
		<g>
			<rect x="14.255" y="23.927" fill="#333333" width="1.418" height="1.418"/>
			<rect x="10.255" y="23.927" fill="#333333" width="1.418" height="1.418"/>
			<rect x="6.207" y="23.927" fill="#333333" width="1.418" height="1.418"/>
			<rect x="18.231" y="23.927" fill="#333333" width="1.418" height="1.418"/>
			<rect x="22.182" y="23.927" fill="#333333" width="1.418" height="1.418"/>
			<rect x="26.182" y="23.927" fill="#333333" width="1.418" height="1.418"/>
		</g>
		<circle fill="#80007F" cx="31.999" cy="27.46" r="7.764"/>
	</g>
	<g>
		<path fill="#FFFFFF" d="M28.074,30.745V28.95H25.01v-0.588l2.942-4.209h0.962v4.099h0.924v0.7h-0.926v1.794H28.074L28.074,30.745z
			 M28.074,28.248v-2.2c0-0.346,0.01-0.69,0.03-1.035h-0.03c-0.204,0.386-0.365,0.67-0.548,0.973l-1.612,2.242v0.021L28.074,28.248
			L28.074,28.248z"/>
		<path fill="#FFFFFF" d="M32.871,27.67v0.659h-2.506V27.67H32.871z"/>
		<path fill="#FFFFFF" d="M37.395,24.778c-0.182-0.01-0.416,0-0.67,0.04c-1.4,0.234-2.141,1.259-2.293,2.343h0.03
			c0.313-0.416,0.861-0.761,1.593-0.761c1.166,0,1.988,0.842,1.988,2.13c0,1.207-0.822,2.324-2.192,2.324
			c-1.411,0-2.334-1.095-2.334-2.809c0-1.299,0.468-2.324,1.117-2.974c0.547-0.537,1.277-0.872,2.11-0.973
			c0.264-0.041,0.487-0.051,0.649-0.051v0.731C37.394,24.778,37.395,24.778,37.395,24.778z M37.142,28.583
			c0-0.943-0.537-1.511-1.36-1.511c-0.537,0-1.035,0.335-1.277,0.811c-0.062,0.101-0.101,0.234-0.101,0.395
			c0.021,1.087,0.517,1.887,1.451,1.887C36.625,30.165,37.142,29.526,37.142,28.583z"/>
	</g>
</g>
</svg>
