<?xml version="1.0" encoding="utf-8"?>
<!-- Generator: Adobe Illustrator 17.0.0, SVG Export Plug-In . SVG Version: 6.00 Build 0)  -->
<!DOCTYPE svg PUBLIC "-//W3C//DTD SVG 1.1//EN" "http://www.w3.org/Graphics/SVG/1.1/DTD/svg11.dtd">
<svg version="1.1" id="Layer_1" xmlns="http://www.w3.org/2000/svg" xmlns:xlink="http://www.w3.org/1999/xlink" x="0px" y="0px"
	 width="42px" height="42px" viewBox="0 0 42 42" enable-background="new 0 0 42 42" xml:space="preserve">
<g>
	<g>
		<path fill="#80007C" d="M9.071,21.379h4.982v1.132H10.26v2.253c0.158-0.211,0.395-0.389,0.708-0.533
			c0.313-0.144,0.679-0.216,1.098-0.216c0.419,0,0.808,0.083,1.166,0.248c0.358,0.166,0.632,0.389,0.82,0.67
			c0.378,0.543,0.567,1.155,0.567,1.834c0,0.86-0.244,1.556-0.736,2.089c-0.491,0.531-1.171,0.798-2.043,0.798
			c-0.873,0-1.556-0.204-2.055-0.612s-0.796-0.946-0.894-1.62h1.257c0.083,0.355,0.268,0.636,0.554,0.844
			c0.286,0.209,0.671,0.312,1.155,0.312c0.484,0,0.858-0.162,1.126-0.486c0.268-0.326,0.402-0.757,0.402-1.297
			c0-0.54-0.135-0.954-0.407-1.245s-0.672-0.436-1.2-0.436c-0.369,0-0.681,0.093-0.933,0.278c-0.252,0.185-0.436,0.436-0.55,0.753
			H9.071C9.071,26.146,9.071,21.379,9.071,21.379z"/>
		<path fill="#80007C" d="M16.27,26.101v-1.087h4.652v1.087H16.27z"/>
		<path fill="#80007C" d="M22.361,21.436h5.455v0.963l-3.146,7.257h-1.414l3.293-7.143h-4.187L22.361,21.436L22.361,21.436z"/>
	</g>
	<g>
		<path fill="#333333" d="M33.866,9.755c-0.097-0.118-0.244-0.158-0.391-0.184L8.727,9.696c-0.237,0.001-0.441,0.169-0.488,0.401
			l-5,24.875c-0.029,0.147,0.008,0.3,0.104,0.415c0.095,0.116,0.237,0.184,0.387,0.184h24.5c0.236,0,0.44-0.166,0.489-0.397
			l4.72-22.475l4.227,21.914h-7.145c-0.276,0-0.5,0.224-0.5,0.5s0.224,0.5,0.5,0.5h7.75c0.149,0,0.291-0.066,0.386-0.182
			s0.134-0.267,0.105-0.413C38.762,35.017,33.961,9.871,33.866,9.755z M27.822,34.57H4.339l3.484-17.333h23.639L27.822,34.57z
			 M31.673,16.237H8.025l1.114-5.543l23.724-0.12L31.673,16.237z"/>
		<g>
			<path fill="#333333" d="M15.646,14.112c-2.467,0-4.125-1.658-4.125-4.125c0-1.283,0.813-2.526,2.073-3.166
				c1.449-0.736,3.148-0.528,4.659,0.575c0.223,0.163,0.272,0.475,0.109,0.698c-0.163,0.224-0.476,0.273-0.698,0.109
				c-1.197-0.872-2.516-1.05-3.617-0.491c-0.913,0.464-1.526,1.378-1.526,2.274c0,1.928,1.197,3.125,3.125,3.125
				c0.276,0,0.5,0.224,0.5,0.5S15.922,14.112,15.646,14.112z"/>
		</g>
		<g>
			<path fill="#333333" d="M26.896,14.112c-2.467,0-4.125-1.658-4.125-4.125c0-1.283,0.813-2.526,2.073-3.166
				c1.449-0.736,3.148-0.528,4.659,0.575c0.223,0.163,0.272,0.475,0.109,0.698c-0.163,0.224-0.476,0.273-0.698,0.109
				c-1.197-0.872-2.516-1.05-3.617-0.491c-0.913,0.464-1.526,1.378-1.526,2.274c0,1.928,1.197,3.125,3.125,3.125
				c0.276,0,0.5,0.224,0.5,0.5S27.172,14.112,26.896,14.112z"/>
		</g>
	</g>
</g>
</svg>
