<?xml version="1.0" encoding="utf-8"?>
<!-- Generator: Adobe Illustrator 17.0.0, SVG Export Plug-In . SVG Version: 6.00 Build 0)  -->
<!DOCTYPE svg PUBLIC "-//W3C//DTD SVG 1.1//EN" "http://www.w3.org/Graphics/SVG/1.1/DTD/svg11.dtd">
<svg version="1.1" id="Capa_1" xmlns="http://www.w3.org/2000/svg" xmlns:xlink="http://www.w3.org/1999/xlink" x="0px" y="0px"
	 width="42px" height="42px" viewBox="0 0 42 42" enable-background="new 0 0 42 42" xml:space="preserve">
<g>
	<path fill="#333333" d="M25.871,7.306V8.47h4.509v21.333H3.326V8.47H7.69V7.306H2.162v23.66h29.381V7.306H25.871z M11.326,6.118
		h-1.164v3.709h1.164C11.326,9.827,11.326,6.118,11.326,6.118z M23.326,6.118h-1.164v3.709h1.164V6.118z M19.617,7.209h-5.77v1.164
		h5.77V7.209z"/>
	<g>
		<rect x="14.18" y="15.318" fill="#333333" width="1.418" height="1.418"/>
		<rect x="18.156" y="15.318" fill="#333333" width="1.418" height="1.418"/>
		<rect x="22.107" y="15.318" fill="#333333" width="1.418" height="1.418"/>
		<rect x="26.107" y="15.318" fill="#333333" width="1.418" height="1.418"/>
	</g>
	<g>
		<rect x="14.18" y="19.245" fill="#333333" width="1.418" height="1.418"/>
		<rect x="10.18" y="19.245" fill="#333333" width="1.418" height="1.418"/>
		<rect x="6.132" y="19.245" fill="#333333" width="1.418" height="1.418"/>
		<rect x="18.156" y="19.245" fill="#333333" width="1.418" height="1.418"/>
		<rect x="22.107" y="19.245" fill="#333333" width="1.418" height="1.418"/>
		<rect x="26.107" y="19.245" fill="#333333" width="1.418" height="1.418"/>
	</g>
	<g>
		<rect x="14.18" y="23.269" fill="#333333" width="1.418" height="1.418"/>
		<rect x="10.18" y="23.269" fill="#333333" width="1.418" height="1.418"/>
		<rect x="6.132" y="23.269" fill="#333333" width="1.418" height="1.418"/>
		<rect x="18.156" y="23.269" fill="#333333" width="1.418" height="1.418"/>
		<rect x="22.107" y="23.269" fill="#333333" width="1.418" height="1.418"/>
		<rect x="26.107" y="23.269" fill="#333333" width="1.418" height="1.418"/>
	</g>
	<g>
		<circle fill="#80007F" cx="30.699" cy="26.743" r="9.139"/>
		<path fill="#FFFFFF" d="M23.189,28.084c0-0.71,0.426-1.21,1.118-1.505l-0.01-0.026c-0.623-0.295-0.891-0.779-0.891-1.263
			c0-0.892,0.753-1.497,1.739-1.497c1.091,0,1.636,0.684,1.636,1.386c0,0.475-0.234,0.986-0.926,1.315v0.026
			c0.702,0.276,1.133,0.77,1.133,1.454c0,0.978-0.839,1.636-1.912,1.636C23.899,29.608,23.189,28.908,23.189,28.084z M26.219,28.05
			c0-0.684-0.476-1.012-1.237-1.229c-0.657,0.19-1.012,0.624-1.012,1.16c-0.026,0.571,0.407,1.073,1.125,1.073
			C25.778,29.055,26.219,28.629,26.219,28.05z M24.125,25.238c0,0.563,0.424,0.866,1.071,1.038c0.485-0.163,0.857-0.51,0.857-1.02
			c0-0.451-0.268-0.918-0.952-0.918C24.47,24.337,24.125,24.754,24.125,25.238z"/>
		<path fill="#FFFFFF" d="M29.703,26.891v0.563h-2.136v-0.563H29.703z"/>
		<path fill="#FFFFFF" d="M32.002,24.597h-0.018l-0.979,0.528l-0.145-0.579l1.228-0.657h0.65v5.624h-0.736V24.597z"/>
		<path fill="#FFFFFF" d="M38.523,26.64c0,1.913-0.71,2.97-1.957,2.97c-1.099,0-1.842-1.031-1.86-2.891
			c0-1.886,0.813-2.925,1.957-2.925C37.848,23.792,38.523,24.849,38.523,26.64z M35.468,26.727c0,1.463,0.451,2.293,1.142,2.293
			c0.779,0,1.15-0.908,1.15-2.344c0-1.386-0.354-2.294-1.142-2.294C35.952,24.381,35.468,25.196,35.468,26.727z"/>
	</g>
</g>
</svg>
