<?xml version="1.0" encoding="utf-8"?>
<!-- Generator: Adobe Illustrator 17.0.0, SVG Export Plug-In . SVG Version: 6.00 Build 0)  -->
<!DOCTYPE svg PUBLIC "-//W3C//DTD SVG 1.1//EN" "http://www.w3.org/Graphics/SVG/1.1/DTD/svg11.dtd">
<svg version="1.1" id="Layer_1" xmlns="http://www.w3.org/2000/svg" xmlns:xlink="http://www.w3.org/1999/xlink" x="0px" y="0px"
	 width="42px" height="42px" viewBox="0 0 42 42" enable-background="new 0 0 42 42" xml:space="preserve">
<g>
	<path fill="#80007C" d="M10.344,27.142c0.489,0,0.846-0.193,1.074-0.579c0.227-0.385,0.342-1.044,0.342-1.972
		c-0.165,0.234-0.398,0.416-0.698,0.542c-0.3,0.127-0.625,0.192-0.976,0.192c-0.695,0-1.268-0.21-1.72-0.63
		c-0.451-0.42-0.677-1.01-0.677-1.771c0-0.761,0.223-1.366,0.665-1.817c0.444-0.451,1.056-0.677,1.834-0.677
		c0.936,0,1.603,0.311,1.998,0.934c0.396,0.623,0.594,1.593,0.594,2.908c0,1.314-0.182,2.285-0.548,2.912
		c-0.364,0.626-1.018,0.94-1.963,0.94c-0.737,0-1.306-0.193-1.705-0.579c-0.399-0.385-0.623-0.871-0.671-1.457h1.084
		C9.118,26.792,9.573,27.142,10.344,27.142z M8.817,22.873c0,0.43,0.122,0.78,0.367,1.052c0.244,0.272,0.594,0.408,1.048,0.408
		c0.455,0,0.8-0.129,1.038-0.387c0.237-0.258,0.356-0.612,0.356-1.063c0-0.452-0.126-0.81-0.377-1.074
		c-0.251-0.265-0.594-0.398-1.028-0.398c-0.434,0-0.776,0.136-1.027,0.408C8.94,22.091,8.817,22.441,8.817,22.873z"/>
	<path fill="#80007C" d="M14.352,24.89v-0.992h4.245v0.992H14.352z"/>
	<path fill="#80007C" d="M20.92,28.134v-6.259h-0.961v-1.074h2.149v7.332L20.92,28.134L20.92,28.134z"/>
	<path fill="#80007C" d="M23.637,28.032v-0.857c0.172-0.153,0.423-0.368,0.755-0.65c0.331-0.283,0.584-0.5,0.759-0.656
		c0.175-0.155,0.394-0.354,0.656-0.598c0.262-0.245,0.465-0.455,0.609-0.63c0.146-0.175,0.293-0.374,0.444-0.594
		c0.283-0.399,0.423-0.8,0.423-1.198c0-0.853-0.408-1.282-1.219-1.282c-0.406,0-0.721,0.129-0.946,0.387
		c-0.224,0.258-0.342,0.604-0.356,1.038h-1.136c0.021-0.784,0.256-1.387,0.707-1.802c0.451-0.417,1.038-0.623,1.761-0.623
		c0.721,0,1.296,0.202,1.719,0.608c0.423,0.408,0.636,0.944,0.636,1.612c0,0.503-0.134,0.981-0.403,1.436
		c-0.144,0.234-0.283,0.443-0.413,0.625c-0.13,0.182-0.314,0.391-0.548,0.625c-0.235,0.234-0.422,0.417-0.558,0.548
		c-0.139,0.13-0.339,0.314-0.604,0.548c-0.266,0.234-0.447,0.395-0.544,0.485h3.275v0.982L23.637,28.032L23.637,28.032z"/>
</g>
<g>
	<path fill="#333333" d="M33.866,9.755c-0.097-0.118-0.244-0.158-0.391-0.184L8.727,9.696C8.49,9.697,8.286,9.865,8.239,10.097
		l-5,24.875c-0.029,0.147,0.008,0.3,0.104,0.415c0.095,0.116,0.237,0.184,0.387,0.184h24.5c0.236,0,0.44-0.166,0.489-0.397
		l4.72-22.475l4.227,21.914h-7.145c-0.276,0-0.5,0.224-0.5,0.5s0.224,0.5,0.5,0.5h7.75c0.149,0,0.291-0.066,0.386-0.182
		s0.134-0.267,0.105-0.413C38.762,35.017,33.961,9.871,33.866,9.755z M27.822,34.57H4.339l3.484-17.333h23.639L27.822,34.57z
		 M31.673,16.237H8.025l1.114-5.543l23.724-0.12L31.673,16.237z"/>
	<g>
		<path fill="#333333" d="M15.646,14.112c-2.467,0-4.125-1.658-4.125-4.125c0-1.283,0.813-2.526,2.073-3.166
			c1.449-0.736,3.148-0.528,4.659,0.575c0.223,0.163,0.272,0.475,0.109,0.698c-0.163,0.224-0.476,0.273-0.698,0.109
			c-1.197-0.872-2.516-1.05-3.617-0.491c-0.913,0.464-1.526,1.378-1.526,2.274c0,1.928,1.197,3.125,3.125,3.125
			c0.276,0,0.5,0.224,0.5,0.5S15.922,14.112,15.646,14.112z"/>
	</g>
	<g>
		<path fill="#333333" d="M26.896,14.112c-2.467,0-4.125-1.658-4.125-4.125c0-1.283,0.813-2.526,2.073-3.166
			c1.449-0.736,3.148-0.528,4.659,0.575c0.223,0.163,0.272,0.475,0.109,0.698c-0.163,0.224-0.476,0.273-0.698,0.109
			c-1.197-0.872-2.516-1.05-3.617-0.491c-0.913,0.464-1.526,1.378-1.526,2.274c0,1.928,1.197,3.125,3.125,3.125
			c0.276,0,0.5,0.224,0.5,0.5S27.172,14.112,26.896,14.112z"/>
	</g>
</g>
</svg>
