<?xml version="1.0" encoding="utf-8"?>
<!-- Generator: Adobe Illustrator 23.0.3, SVG Export Plug-In . SVG Version: 6.00 Build 0)  -->
<svg version="1.1" id="Layer_1" xmlns="http://www.w3.org/2000/svg" xmlns:xlink="http://www.w3.org/1999/xlink" x="0px" y="0px"
	 viewBox="0 0 100 100" style="enable-background:new 0 0 100 100;" xml:space="preserve">
<style type="text/css">
	.st0{fill:#212121;}
	.st1{fill:#80007F;}
</style>
<g>
	<path class="st0" d="M72.7,90.5H27.3c-4.6,0-8.4-3.7-8.4-8.4V17.9c0-4.6,3.7-8.4,8.4-8.4h37.6L81,26.8v55.3
		C81,86.7,77.3,90.5,72.7,90.5z M27.3,11.9c-3.3,0-6.1,2.7-6.1,6v64.2c0,3.3,2.7,6,6.1,6h45.4c3.3,0,6.1-2.7,6.1-6V27.7L63.9,11.9
		H27.3z"/>
	<path class="st0" d="M51.6,35H31.2c-0.6,0-1.1-0.5-1.1-1.2s0.5-1.2,1.1-1.2h20.4c0.6,0,1.1,0.5,1.1,1.2S52.3,35,51.6,35z"/>
	<path class="st0" d="M69.6,41.4H31.4c-0.6,0-1.1-0.5-1.1-1.2s0.5-1.2,1.1-1.2h38.2c0.6,0,1.1,0.5,1.1,1.2S70.3,41.4,69.6,41.4z"/>
	<path class="st0" d="M69.6,47.8H31.4c-0.6,0-1.1-0.5-1.1-1.2s0.5-1.2,1.1-1.2h38.2c0.6,0,1.1,0.5,1.1,1.2S70.3,47.8,69.6,47.8z"/>
	<path class="st0" d="M69.6,54.2H31.4c-0.6,0-1.1-0.5-1.1-1.2s0.5-1.2,1.1-1.2h38.2c0.6,0,1.1,0.5,1.1,1.2S70.3,54.2,69.6,54.2z"/>
	<g>
		<path class="st1" d="M58.3,72.1c1.9,0,2.8,1,2.5,2.5c-0.1,0.8-0.5,1.6-0.7,2.3c-0.3,1-0.2,1.2,0.8,1.5c0.5,0.2,1,0.3,1.5,0.6
			c1.3,0.7,1.6,2.1,1,3.4c-0.8,1.4-2.7,2-4.1,1.3c-2.8-1.6-4.5-4-5.5-7c-0.1-0.5,0-1.1,0.2-1.6C54.9,73.2,56.6,72.3,58.3,72.1z"/>
		<path class="st1" d="M67.2,66.1c0.3,0,0.7,0,1.1,0.1c2.7,0.7,4,2,3.4,4.7c-0.4,2.1-1,4-2.2,5.8c-1.1,1.5-2.3,2-3.8,1.5
			c-2.1-0.6-2.6-2.9-1-4.4c0.4-0.4,0.8-0.6,1.2-1c0.5-0.4,0.6-0.8,0.2-1.3c-0.4-0.5-0.8-0.9-1.1-1.4c-0.3-0.4-0.6-0.9-0.8-1.4
			c-0.3-1.2,0.6-2.3,2-2.6C66.5,66.1,66.8,66.1,67.2,66.1z"/>
		<path class="st1" d="M61.2,70.1c0,0.8-0.7,1.5-1.5,1.4c-0.8,0-1.5-0.7-1.4-1.5c0-0.8,0.7-1.5,1.5-1.4
			C60.5,68.6,61.2,69.3,61.2,70.1z"/>
		<path class="st1" d="M64,63.3c0.8,0,1.5,0.6,1.5,1.4c0,0.9-0.6,1.5-1.5,1.5c-0.8,0-1.5-0.7-1.5-1.5C62.5,63.9,63.2,63.3,64,63.3z"
			/>
		<path class="st1" d="M56.6,69.8c0.5,0.1,0.9,0.3,0.9,0.9c0,0.5-0.3,0.9-0.9,0.9c-0.6,0-0.9-0.3-0.9-0.9
			C55.8,70.2,56.1,69.9,56.6,69.8z"/>
		<path class="st1" d="M68,64.3c-0.1,0.6-0.3,0.9-0.9,0.9c-0.6,0-0.9-0.3-0.9-0.9c0-0.5,0.3-0.9,0.9-0.9C67.7,63.5,68,63.8,68,64.3z
			"/>
		<path class="st1" d="M70.4,65c-0.3,0.2-0.6,0.5-0.9,0.6c-0.5,0.1-0.8-0.3-0.7-0.7c0.1-0.3,0.4-0.7,0.7-0.7c0.3,0,0.6,0.3,0.9,0.5
			C70.4,64.8,70.4,64.9,70.4,65z"/>
		<path class="st1" d="M54.3,72.9c-0.2-0.3-0.6-0.6-0.6-0.9c0-0.2,0.5-0.7,0.7-0.7c0.3,0,0.7,0.4,0.8,0.7c0,0.3-0.3,0.6-0.6,0.9
			C54.6,72.9,54.4,72.9,54.3,72.9z"/>
		<path class="st1" d="M72.3,65.9c-0.4,0.3-0.7,0.6-1,0.6c-0.2,0-0.6-0.4-0.5-0.6c0-0.2,0.4-0.5,0.6-0.6
			C71.7,65.2,71.9,65.6,72.3,65.9z"/>
		<path class="st1" d="M53,74.4c-0.3-0.4-0.6-0.7-0.6-0.9c0.1-0.3,0.4-0.5,0.6-0.6c0.1,0,0.5,0.4,0.5,0.6C53.6,73.7,53.3,74,53,74.4
			z"/>
		<path class="st1" d="M52.9,75.1c-0.3,0.2-0.5,0.4-0.6,0.4c-0.2,0-0.3-0.3-0.5-0.4c0.2-0.2,0.3-0.4,0.5-0.5
			C52.4,74.7,52.6,74.9,52.9,75.1z"/>
		<path class="st1" d="M73.4,67.1c-0.3,0.2-0.5,0.5-0.7,0.4c-0.2,0-0.3-0.3-0.5-0.4c0.2-0.2,0.3-0.4,0.5-0.4
			C72.8,66.7,73,66.9,73.4,67.1z"/>
	</g>
	<polyline class="st1" points="35,74 30.3,81.8 34.3,80.4 36.4,83.4 37.4,74.5 	"/>
	<polyline class="st1" points="42.2,73.4 46.9,81.2 42.9,79.8 40.8,82.8 39.8,73.9 	"/>
	<path class="st0" d="M38.3,75.2c-3.9,0-7-3.2-7-7s3.2-7,7-7s7,3.2,7,7S42.2,75.2,38.3,75.2z M38.3,63.5c-2.6,0-4.7,2.1-4.7,4.7
		s2.1,4.7,4.7,4.7s4.7-2.1,4.7-4.7S40.9,63.5,38.3,63.5z"/>
	<circle class="st1" cx="38.3" cy="68.2" r="1.8"/>
	<polygon class="st0" points="79.7,28 63.6,28 63.6,10.7 65.9,10.7 65.9,25.6 79.7,25.6 	"/>
	<g>
		<path class="st0" d="M37.9,25.4l-3.4-4.7L32,24.1c-0.4,0.5-1.1,0.6-1.6,0.3c-0.5-0.4-0.6-1.1-0.3-1.6l4.3-6l3.4,4.7l3.4-4.7l4.4,6
			c0.4,0.5,0.3,1.2-0.3,1.6c-0.5,0.4-1.2,0.3-1.6-0.3l-2.5-3.4L37.9,25.4z"/>
		<path class="st0" d="M44.6,24.6c-0.2,0-0.5-0.1-0.7-0.2c-0.5-0.4-0.6-1.1-0.3-1.6l4.3-6l4.4,6c0.4,0.5,0.3,1.2-0.3,1.6
			c-0.5,0.4-1.2,0.3-1.6-0.3L48,20.7l-2.4,3.4C45.3,24.5,45,24.6,44.6,24.6z"/>
	</g>
</g>
</svg>
