<?xml version="1.0" encoding="utf-8"?>
<!-- Generator: Adobe Illustrator 17.0.0, SVG Export Plug-In . SVG Version: 6.00 Build 0)  -->
<!DOCTYPE svg PUBLIC "-//W3C//DTD SVG 1.1//EN" "http://www.w3.org/Graphics/SVG/1.1/DTD/svg11.dtd">
<svg version="1.1" id="Layer_1" xmlns="http://www.w3.org/2000/svg" xmlns:xlink="http://www.w3.org/1999/xlink" x="0px" y="0px"
	 width="42px" height="42px" viewBox="0 0 42 42" enable-background="new 0 0 42 42" xml:space="preserve">
<g>
	<g>
		<g>
			<path fill="#FFFFFF" d="M35.453,9.419h-3.097V5.434c0-0.832-0.677-1.508-1.508-1.508h-2.307c-0.832,0-1.508,0.677-1.508,1.508
				v3.985H14.967V5.434c0-0.832-0.677-1.508-1.508-1.508h-2.307c-0.832,0-1.508,0.677-1.508,1.508v3.985H6.547
				c-2.049,0-3.716,1.667-3.716,3.716l0,0.224l0,21c0,2.049,1.667,3.716,3.716,3.716h28.906c2.049,0,3.716-1.667,3.716-3.716V13.135
				C39.169,11.086,37.502,9.419,35.453,9.419z M28.452,5.434c0-0.047,0.041-0.089,0.089-0.089h2.307
				c0.047,0,0.089,0.041,0.089,0.089v6.623c0,0.047-0.041,0.089-0.089,0.089h-2.307c-0.047,0-0.089-0.041-0.089-0.089V5.434z
				 M11.064,5.434c0-0.047,0.042-0.089,0.089-0.089h2.307c0.047,0,0.089,0.041,0.089,0.089v6.623c0,0.047-0.042,0.089-0.089,0.089
				h-2.307c-0.047,0-0.089-0.041-0.089-0.089V5.434z M11.56,36.655H6.547c-1.266,0-2.297-1.03-2.297-2.297V29.25h7.31V36.655z
				 M11.56,27.83H4.25v-7.405h7.31V27.83z M20.29,36.655h-7.31V29.25h7.31V36.655z M20.29,27.83h-7.31v-7.405h7.31V27.83z
				 M29.02,36.655h-7.31V29.25h7.31V36.655z M29.02,27.83h-7.31v-7.405h7.31V27.83z M37.75,34.358c0,1.266-1.03,2.297-2.297,2.297
				h-5.014V29.25h7.31V34.358z M37.75,27.83h-7.31v-7.405h7.31V27.83z M37.75,16.514h-5.854c-0.392,0-0.71,0.318-0.71,0.71
				c0,0.392,0.318,0.71,0.71,0.71h5.854v1.072H4.25v-5.87c0-1.267,1.03-2.297,2.297-2.297h3.097v1.219
				c0,0.832,0.677,1.508,1.508,1.508h2.307c0.832,0,1.508-0.677,1.508-1.508v-1.219h12.066v1.219c0,0.832,0.677,1.508,1.508,1.508
				h2.307c0.832,0,1.508-0.677,1.508-1.508v-1.219h3.097c1.267,0,2.297,1.03,2.297,2.297V16.514z"/>
		</g>
	</g>
	<g>
		<g>
			<path fill="#FFFFFF" d="M36.428,22.14c-0.314-0.235-0.758-0.172-0.994,0.142l-1.638,2.184l-1.107-1.107
				c-0.277-0.277-0.726-0.277-1.004,0s-0.277,0.726,0,1.004l1.685,1.686c0.134,0.134,0.314,0.208,0.502,0.208
				c0.017,0,0.034-0.001,0.05-0.002c0.205-0.015,0.394-0.118,0.518-0.282l2.129-2.839C36.805,22.82,36.741,22.375,36.428,22.14z"/>
		</g>
	</g>
	<g>
		<g>
			<path fill="#FFFFFF" d="M27.698,30.965c-0.314-0.235-0.758-0.172-0.994,0.142l-1.638,2.184l-1.107-1.107
				c-0.277-0.277-0.726-0.277-1.004,0c-0.277,0.277-0.277,0.727,0,1.004l1.686,1.686c0.134,0.134,0.314,0.208,0.502,0.208
				c0.017,0,0.034-0.001,0.05-0.002c0.205-0.015,0.394-0.117,0.517-0.282l2.129-2.839C28.075,31.645,28.012,31.2,27.698,30.965z"/>
		</g>
	</g>
	<g>
		<g>
			<path fill="#FFFFFF" d="M18.968,22.14c-0.314-0.235-0.758-0.172-0.994,0.142l-1.638,2.184l-1.107-1.107
				c-0.277-0.277-0.727-0.277-1.004,0c-0.277,0.277-0.277,0.727,0,1.004l1.686,1.686c0.134,0.134,0.314,0.208,0.502,0.208
				c0.017,0,0.034-0.001,0.05-0.002c0.205-0.015,0.394-0.118,0.517-0.282l2.129-2.839C19.345,22.82,19.282,22.375,18.968,22.14z"/>
		</g>
	</g>
</g>
</svg>
