<?xml version="1.0" encoding="utf-8"?>
<!-- Generator: Adobe Illustrator 17.0.0, SVG Export Plug-In . SVG Version: 6.00 Build 0)  -->
<!DOCTYPE svg PUBLIC "-//W3C//DTD SVG 1.1//EN" "http://www.w3.org/Graphics/SVG/1.1/DTD/svg11.dtd">
<svg version="1.1" id="Capa_1" xmlns="http://www.w3.org/2000/svg" xmlns:xlink="http://www.w3.org/1999/xlink" x="0px" y="0px"
	 width="42px" height="42px" viewBox="0 0 42 42" enable-background="new 0 0 42 42" xml:space="preserve">
<g>
	<path fill="#333333" d="M33.458,27.911c1.459-0.561,2.302-1.337,2.356-1.388c0.174-0.163,0.274-0.403,0.204-0.631
		c-0.068-0.222-0.221-0.38-0.446-0.422c-0.19-0.101-2.095-1.303-2.095-8.876v-3.08c0-6.88-5.597-12.477-12.476-12.477
		S8.523,6.634,8.523,13.514c0,0.053,0.007,0.103,0.019,0.152v2.928c0,7.574-1.905,8.776-2.095,8.876
		c-0.225,0.043-0.378,0.201-0.446,0.422c-0.07,0.228,0.03,0.468,0.204,0.631c0.054,0.051,0.893,0.823,2.345,1.384
		c-2.589,1.179-4.394,3.791-4.394,6.817v3.743c0,1.376,1.119,2.495,2.495,2.495h1.87c0.001,0,0.001,0,0.002,0
		c0.001,0,0.001,0,0.002,0h8.634c0.007,0,0.013,0.001,0.02,0.001c0.009,0,0.017-0.001,0.026-0.001h7.59
		c0.009,0,0.017,0.001,0.026,0.001c0.006,0,0.013-0.001,0.02-0.001h8.632c0.001,0,0.002,0,0.003,0c0.001,0,0.002,0,0.003,0h1.869
		c1.376,0,2.495-1.119,2.495-2.495v-3.743C37.843,31.701,36.043,29.091,33.458,27.911z M7.673,26.066
		c0.248-0.263,0.521-0.637,0.785-1.168c0.884-1.775,1.333-4.57,1.333-8.305v-3.08c0-0.05-0.007-0.098-0.018-0.145
		C9.851,7.244,14.857,2.285,21,2.285c6.192,0,11.229,5.037,11.229,11.229v3.08c0,3.736,0.448,6.53,1.333,8.305
		c0.264,0.531,0.538,0.904,0.785,1.167c-0.749,0.481-2.145,1.172-3.989,1.172c-0.011,0-0.022,0.001-0.034,0.002
		c-0.006-0.001-0.011-0.002-0.017-0.002c-0.038-0.003-0.074-0.001-0.111,0.003c-0.004,0-0.008-0.001-0.013-0.001
		c-4.159,0-4.159-1.927-4.159-4.159c0-0.015-0.001-0.03-0.002-0.044c2.243-1.695,3.711-4.493,3.711-7.651
		c0-2.876-1.208-5.551-3.313-7.338c-0.121-0.103-0.271-0.151-0.419-0.147c-0.121-0.002-0.245,0.031-0.354,0.103
		c-2.951,1.945-7.884,4.264-14.628,4.264c-0.345,0-0.624,0.279-0.624,0.624s0.279,0.624,0.624,0.624
		c6.765,0,11.795-2.236,14.925-4.218c1.621,1.542,2.542,3.736,2.542,6.09c0,4.472-3.358,8.11-7.486,8.11s-7.486-3.638-7.486-8.11
		c0-0.345-0.279-0.624-0.624-0.624c-0.344,0-0.624,0.279-0.624,0.624c0,3.173,1.482,5.982,3.744,7.675
		c0,0.006-0.001,0.012-0.001,0.019c0,2.232,0,4.159-4.159,4.159c-0.015,0-0.029,0.001-0.044,0.002
		c-0.037-0.004-0.075-0.005-0.114-0.003c-0.004,0-0.008,0.001-0.011,0.001c-0.007,0-0.013-0.001-0.02-0.001
		C9.817,27.238,8.421,26.547,7.673,26.066z M8.003,39.714H6.652c-0.688,0-1.248-0.56-1.248-1.248v-3.743
		c0-2.525,1.509-4.704,3.673-5.684C8.99,33.703,8.262,38.232,8.003,39.714z M9.269,39.714c0.302-1.763,1.014-6.4,1.062-11.089
		c0.273-0.059,0.553-0.099,0.838-0.12c0.478,4.531,2.677,8.445,4.735,11.209H9.269z M24.522,39.714h-2.898v-1.248
		c0-0.345-0.279-0.624-0.624-0.624c-0.345,0-0.624,0.279-0.624,0.624v1.248h-2.898c-2.088-2.629-4.539-6.607-5.057-11.242
		c0.944-0.042,1.742-0.193,2.4-0.456c-0.002,0.006-0.001,0.013-0.002,0.019c0.497-0.446,1.249-0.98,2.248-1.366
		c-0.14-0.033-0.283-0.056-0.433-0.056c-0.018,0-0.036,0.001-0.055,0.001c0.533-0.839,0.648-1.831,0.672-2.78
		c1.137,0.582,2.409,0.908,3.75,0.908c1.355,0,2.638-0.332,3.783-0.924c0.023,0.955,0.135,1.953,0.672,2.798
		c-0.029-0.001-0.059-0.002-0.088-0.002c-0.035,0-0.067,0.008-0.101,0.01c0.304,0.373,1.591,1.734,4.313,1.849
		C29.062,33.108,26.611,37.085,24.522,39.714z M26.096,39.714c2.058-2.764,4.257-6.678,4.735-11.209
		c0.285,0.022,0.565,0.061,0.838,0.12c0.047,4.689,0.76,9.326,1.062,11.089H26.096z M35.348,39.714h-1.351
		c-0.26-1.481-0.987-6.008-1.074-10.675c2.163,0.98,3.673,3.158,3.673,5.684v3.743h0C36.596,39.154,36.036,39.714,35.348,39.714z"/>
	<path fill="#80007F" d="M25.455,26.616c-0.029-0.001-0.059-0.002-0.088-0.002c-1.032,0-1.872,0.84-1.872,1.872
		c0,0.041,0.002,0.081,0.004,0.121l-1.125,0.482c-0.342-0.371-0.832-0.603-1.375-0.603s-1.033,0.233-1.375,0.603L18.5,28.607
		c0.003-0.04,0.004-0.081,0.004-0.121c0-1.025-0.829-1.859-1.852-1.87c-1.376,0.088-1.801,1.25-1.851,1.408
		c0.006-0.002,0.013-0.004,0.019-0.007c-0.039,0.15-0.059,0.307-0.059,0.468c0,1.032,0.84,1.872,1.872,1.872
		c0.543,0,1.033-0.233,1.375-0.603l1.125,0.482c-0.003,0.04-0.004,0.081-0.004,0.121c0,1.032,0.84,1.872,1.872,1.872
		c1.032,0,1.872-0.84,1.872-1.872c0-0.041-0.002-0.081-0.004-0.121l1.125-0.482c0.342,0.371,0.832,0.604,1.375,0.604
		c1.032,0,1.872-0.84,1.872-1.872c0-0.167-0.022-0.328-0.063-0.483C26.815,26.658,25.455,26.616,25.455,26.616z M16.633,29.109
		c-0.344,0-0.624-0.28-0.624-0.624c0-0.344,0.28-0.624,0.624-0.624c0.344,0,0.624,0.28,0.624,0.624
		C17.257,28.829,16.977,29.109,16.633,29.109z M21,30.981c-0.344,0-0.624-0.28-0.624-0.624c0-0.344,0.28-0.624,0.624-0.624
		c0.344,0,0.624,0.28,0.624,0.624C21.624,30.701,21.344,30.981,21,30.981z M25.367,29.109c-0.344,0-0.624-0.28-0.624-0.624
		c0-0.344,0.28-0.624,0.624-0.624c0.344,0,0.624,0.28,0.624,0.624C25.991,28.829,25.711,29.109,25.367,29.109z"/>
</g>
</svg>
