<?xml version="1.0" encoding="utf-8"?>
<!-- Generator: Adobe Illustrator 17.0.0, SVG Export Plug-In . SVG Version: 6.00 Build 0)  -->
<!DOCTYPE svg PUBLIC "-//W3C//DTD SVG 1.1//EN" "http://www.w3.org/Graphics/SVG/1.1/DTD/svg11.dtd">
<svg version="1.1" id="Layer_1" xmlns="http://www.w3.org/2000/svg" xmlns:xlink="http://www.w3.org/1999/xlink" x="0px" y="0px"
	 width="42px" height="42px" viewBox="0 0 42 42" enable-background="new 0 0 42 42" xml:space="preserve">
<g id="Layer_1_1_">
	<g>
		<g>
			<path fill="#FFFFFF" d="M16.346,14.147c-1.094-0.062-2.025,0.61-2.976,1.257c-0.491,0.334-0.366,0.652-1.366,0.85v1.277
				c1-0.215,1.369-0.677,2.041-1.134c0.786-0.535,1.568-1.101,2.313-1.05c1.54-0.058,2.639,0.422,3.297,1.426
				c1.077,1.646,0.762,4.379-0.076,6.115c-0.124,0.257-0.25,0.506-0.369,0.75c-0.916,1.862-1.708,3.47-1.888,5.921
				c-0.986,6.407-2.513,8.599-3.26,8.885c-0.136,0.052-0.181,0.014-0.215-0.013c-0.187-0.154-0.406-0.727-0.243-1.678
				c0.372-2.172,0.594-6.239-0.938-7.705c-0.486-0.464-1.102-0.632-1.782-0.485c-2.756,0.599-2.541,4.671-1.967,8.575
				c0.15,1.023,0.055,1.412,0.006,1.533c-0.074-0.022-0.187-0.08-0.277-0.143c-0.316-0.444-2.093-3.006-2.861-5.552
				c-0.81-2.681-1.212-5.078-0.989-6.326c0.058-0.326-0.159-0.638-0.485-0.696c-0.328-0.061-0.638,0.159-0.696,0.485
				c-0.257,1.436,0.157,4.02,1.021,6.884c0.9,2.981,3.003,5.862,3.092,5.983c0.029,0.039,0.062,0.074,0.099,0.105
				c0.072,0.06,0.583,0.469,1.155,0.469c0.176,0,0.357-0.038,0.532-0.137c0.827-0.464,0.733-1.809,0.59-2.78
				c-0.428-2.913-0.787-6.832,1.034-7.228c0.288-0.061,0.503-0.007,0.697,0.179c0.843,0.807,1.094,3.659,0.584,6.634
				c-0.213,1.242,0.035,2.291,0.664,2.808c0.393,0.323,0.905,0.397,1.405,0.207c1.692-0.647,3.156-4.228,4.022-9.871
				c0.168-2.266,0.876-3.705,1.772-5.527c0.121-0.246,0.245-0.498,0.37-0.758c1.006-2.083,1.327-5.257-0.006-7.294
				C20.027,15.165,18.764,14.054,16.346,14.147z"/>
			<path fill="#FFFFFF" d="M16.003,26.358c-0.015,0.003-0.29,0.052-0.745,0.12l1.105-2.541c0.132-0.304-0.007-0.658-0.311-0.79
				c-0.304-0.133-0.658,0.007-0.79,0.311l-1.391,3.199c-1.487,0.165-3.535,0.306-5.439,0.145l-1.285-3.351
				c-0.119-0.31-0.466-0.465-0.775-0.345c-0.309,0.119-0.464,0.466-0.345,0.775l1.053,2.746c-0.95-0.172-1.812-0.446-2.474-0.869
				c-0.328-0.889-1.755-4.791-2.01-5.942c-0.139-0.628-0.196-2.117,0.591-3.254c0.505-0.731,1.282-1.176,2.281-1.319
				c1.305-0.125,2.298,0.594,3.265,1.29c1.066,0.767,2.274,1.637,3.677,0.835c0.288-0.164,0.388-0.531,0.223-0.819
				c-0.164-0.288-0.531-0.387-0.819-0.223c-0.701,0.4-1.298,0.012-2.38-0.767c-1.039-0.748-2.332-1.685-4.109-1.507
				c-1.371,0.196-2.422,0.811-3.126,1.828c-1.021,1.475-0.968,3.332-0.775,4.197c0.305,1.375,2.049,6.08,2.124,6.28
				c0.042,0.113,0.118,0.212,0.217,0.281c1.583,1.118,4.143,1.433,6.534,1.433c2.995,0,5.723-0.496,5.924-0.534
				c0.326-0.06,0.541-0.374,0.48-0.7C16.642,26.513,16.331,26.297,16.003,26.358z"/>
		</g>
		<g>
			<path fill="#FFFFFF" d="M37.735,31.526c-0.79,0-1.532-0.308-2.09-0.866L24.741,19.735c-1.151-1.152-1.151-3.027-0.001-4.179
				c1.118-1.117,3.063-1.116,4.18,0l10.904,10.926c1.152,1.152,1.152,3.026,0,4.178C39.266,31.219,38.524,31.526,37.735,31.526z
				 M26.83,15.891c-0.469,0-0.909,0.182-1.241,0.514c-0.684,0.684-0.683,1.797,0.001,2.482l10.904,10.925
				c0.664,0.662,1.818,0.662,2.482,0c0.684-0.685,0.684-1.798-0.001-2.482L28.071,16.405C27.739,16.074,27.298,15.891,26.83,15.891z
				"/>
			<path fill="#FFFFFF" d="M18.734,10.904l-4.532-4.531l3.503-3.503c0.234-0.234,0.614-0.234,0.849,0s0.234,0.614,0,0.849
				L15.9,6.373l2.834,2.834l2.654-2.654c0.234-0.234,0.614-0.234,0.849,0s0.234,0.614,0,0.849L18.734,10.904z"/>
			<path fill="#FFFFFF" d="M25.165,16.581c-0.153,0-0.308-0.059-0.424-0.176l-2.849-2.849l0.249-5.404l-5.009-5.008
				c-0.234-0.234-0.234-0.614,0-0.849s0.614-0.234,0.849,0l5.383,5.383l-0.249,5.404l2.474,2.474c0.234,0.234,0.234,0.614,0,0.849
				C25.471,16.522,25.318,16.581,25.165,16.581z"/>
			<path fill="#FFFFFF" d="M14.163,12.301c-0.256,0-0.496-0.1-0.677-0.28c-0.181-0.181-0.281-0.422-0.28-0.678
				c0-0.256,0.1-0.496,0.281-0.676c0.357-0.361,0.989-0.362,1.353,0c0.373,0.373,0.373,0.979,0,1.353
				C14.658,12.201,14.418,12.301,14.163,12.301z"/>
			<path fill="#FFFFFF" d="M11.861,14.87c-0.256,0-0.497-0.1-0.677-0.281c-0.18-0.179-0.28-0.419-0.28-0.675
				c0-0.256,0.099-0.497,0.28-0.678c0.36-0.361,0.99-0.361,1.353,0c0.374,0.375,0.374,0.981,0.001,1.354
				C12.356,14.77,12.116,14.87,11.861,14.87z"/>
			<path fill="#FFFFFF" d="M7.802,13.73c-0.198,0-0.384-0.077-0.524-0.217c-0.141-0.141-0.218-0.328-0.217-0.526
				s0.078-0.385,0.219-0.525c0.276-0.276,0.767-0.278,1.047,0.002c0.288,0.288,0.289,0.758,0.002,1.047
				C8.186,13.653,8,13.73,7.802,13.73z"/>
		</g>
	</g>
</g>
</svg>
