<?xml version="1.0" encoding="utf-8"?>
<!-- Generator: Adobe Illustrator 17.0.0, SVG Export Plug-In . SVG Version: 6.00 Build 0)  -->
<!DOCTYPE svg PUBLIC "-//W3C//DTD SVG 1.1//EN" "http://www.w3.org/Graphics/SVG/1.1/DTD/svg11.dtd">
<svg version="1.1" id="Layer_1" xmlns="http://www.w3.org/2000/svg" xmlns:xlink="http://www.w3.org/1999/xlink" x="0px" y="0px"
	 width="42px" height="42px" viewBox="0 0 42 42" enable-background="new 0 0 42 42" xml:space="preserve">
<g>
	<path fill="#FFFFFF" d="M20.605,0.49L3.889,4.839l0.616,19.029l0.032,0.174c0.091,0.267,2.268,6.574,5.869,9.792
		c3.524,3.149,10.406,7.317,10.697,7.493l0.303,0.183l0.307-0.176c0.281-0.161,6.932-4.005,11.358-8.658
		c2.985-3.138,4.93-9.022,5.012-9.271l0.03-18.607L20.605,0.49z M37,23.12c0,0.744-2.099,5.984-4.709,8.728
		C28.859,35.456,24,38.649,22,39.816v-2.164c1-0.235,5.592-3.331,9.153-7.074c2.461-2.587,3.84-7.426,3.9-7.631
		C35.07,22.893,35,22.835,35,22.778v-7.919c0-0.331-0.169-0.6-0.5-0.6s-0.5,0.269-0.5,0.6v7.829c0,0.636-1.617,4.856-3.718,7.065
		c-3.024,3.179-7.482,5.97-8.678,6.697c-1.225-0.759-5.818-3.644-8.244-5.812c-2.536-2.267-4.199-6.797-4.43-7.454L8.455,8.598
		l12.443-3.261L34,8.584v3.274c0,0.331,0.169,0.6,0.5,0.6s0.5-0.269,0.5-0.6V8.115c0-0.276-0.133-0.516-0.4-0.582L20.966,4.135
		c-0.097-0.025-0.186-0.024-0.284,0.002L7.678,7.559c-0.271,0.071-0.453,0.32-0.444,0.6l0.492,15.153
		c0.002,0.058,0.013,0.115,0.031,0.171c0.073,0.219,1.826,5.368,4.791,8.018C14.75,33.469,18.525,36,20.297,37H21v2.295
		c-2-1.449-6.926-4.191-9.348-6.356c-3.154-2.819-5.461-8.456-5.727-9.202L5.231,5.759l15.483-4.03L37,5.738V23.12z M26.342,7.858
		c-1.094-0.062-2.025,0.61-2.976,1.257C22.875,9.449,23,9.767,22,9.965v1.277c1-0.215,1.369-0.677,2.041-1.134
		c0.786-0.535,1.568-1.101,2.313-1.05c1.54-0.058,2.639,0.422,3.297,1.426c1.077,1.646,0.762,4.379-0.076,6.115
		c-0.124,0.257-0.25,0.506-0.369,0.75c-0.916,1.862-1.708,3.47-1.888,5.921c-0.986,6.407-2.513,8.599-3.26,8.885
		c-0.136,0.052-0.181,0.014-0.215-0.013c-0.187-0.154-0.406-0.727-0.243-1.678c0.372-2.172,0.594-6.239-0.938-7.705
		c-0.486-0.464-1.102-0.632-1.782-0.485c-2.756,0.599-2.541,4.671-1.967,8.575c0.15,1.023,0.055,1.412,0.006,1.533
		c-0.074-0.022-0.187-0.08-0.277-0.143c-0.316-0.444-2.093-3.006-2.861-5.552c-0.81-2.681-1.107-4.674-0.884-5.922
		c0.058-0.326-0.159-0.638-0.485-0.696c-0.328-0.061-0.638,0.159-0.696,0.485c-0.257,1.436,0.052,3.616,0.916,6.48
		c0.9,2.981,3.003,5.862,3.092,5.983c0.029,0.039,0.062,0.074,0.099,0.105c0.072,0.06,0.583,0.469,1.155,0.469
		c0.176,0,0.357-0.038,0.532-0.137c0.827-0.464,0.733-1.809,0.59-2.78c-0.428-2.913-0.787-6.832,1.034-7.228
		c0.288-0.061,0.503-0.007,0.697,0.179c0.843,0.807,1.094,3.659,0.584,6.634c-0.213,1.242,0.035,2.291,0.664,2.808
		c0.393,0.323,0.905,0.397,1.405,0.207c1.692-0.647,3.156-4.228,4.022-9.871c0.168-2.266,0.876-3.705,1.772-5.527
		c0.121-0.246,0.245-0.498,0.37-0.758c1.006-2.083,1.327-5.257-0.006-7.294C30.023,8.876,28.76,7.765,26.342,7.858z"/>
	<path fill="#FFFFFF" d="M25.999,20.069c-0.015,0.003-0.29,0.052-0.745,0.12l1.105-2.541c0.132-0.304-0.007-0.658-0.311-0.79
		c-0.304-0.133-0.658,0.007-0.79,0.311l-1.391,3.199c-1.487,0.165-3.535,0.306-5.439,0.145l-1.285-3.351
		c-0.119-0.31-0.466-0.465-0.775-0.345c-0.309,0.119-0.464,0.466-0.345,0.775l1.053,2.746c-0.95-0.172-1.812-0.446-2.474-0.869
		c-0.328-0.889-1.755-4.791-2.01-5.942c-0.139-0.628-0.196-2.117,0.591-3.254c0.505-0.731,1.282-1.176,2.281-1.319
		c1.305-0.125,2.298,0.594,3.265,1.29c1.066,0.767,2.274,1.637,3.677,0.835c0.288-0.164,0.388-0.531,0.223-0.819
		c-0.164-0.288-0.531-0.387-0.819-0.223c-0.701,0.4-1.298,0.012-2.38-0.767c-1.039-0.748-2.332-1.685-4.109-1.507
		c-1.371,0.196-2.422,0.811-3.126,1.828c-1.021,1.475-0.968,3.332-0.775,4.197c0.305,1.375,2.049,6.08,2.124,6.28
		c0.042,0.113,0.118,0.212,0.217,0.281c1.583,1.118,4.143,1.433,6.534,1.433c2.995,0,5.723-0.496,5.924-0.534
		c0.326-0.06,0.541-0.374,0.48-0.7C26.638,20.224,26.327,20.008,25.999,20.069z"/>
</g>
</svg>
