<?xml version="1.0" encoding="utf-8"?>
<!-- Generator: Adobe Illustrator 17.0.0, SVG Export Plug-In . SVG Version: 6.00 Build 0)  -->
<!DOCTYPE svg PUBLIC "-//W3C//DTD SVG 1.1//EN" "http://www.w3.org/Graphics/SVG/1.1/DTD/svg11.dtd">
<svg version="1.1" id="Layer_1" xmlns="http://www.w3.org/2000/svg" xmlns:xlink="http://www.w3.org/1999/xlink" x="0px" y="0px"
	 width="42px" height="42px" viewBox="0 0 42 42" enable-background="new 0 0 42 42" xml:space="preserve">
<g id="Layer_2">
</g>
<g id="Layer_3">
</g>
<g id="Layer_1_1_">
</g>
<g>
	<g id="Layer_1_2_">
		<path fill="#810380" d="M18.388,23.089c-0.347,0-0.673-0.061-0.917-0.173c-0.244-0.11-0.379-0.257-0.379-0.415
			s0.134-0.305,0.379-0.417c0.488-0.222,1.341-0.222,1.832,0c0.506,0.23,0.506,0.603,0.001,0.832
			C19.058,23.028,18.733,23.089,18.388,23.089z"/>
		<path fill="#810380" d="M15.402,25.643c-0.352,0-0.682-0.062-0.93-0.175c-0.247-0.112-0.385-0.261-0.385-0.421
			c0-0.159,0.136-0.31,0.385-0.422c0.494-0.225,1.359-0.225,1.858,0c0.514,0.234,0.514,0.611,0.001,0.844
			C16.082,25.58,15.752,25.643,15.402,25.643z"/>
		<path fill="#810380" d="M13.059,22.549c-0.243,0-0.471-0.043-0.642-0.121c-0.171-0.077-0.265-0.18-0.265-0.29
			s0.094-0.214,0.265-0.292c0.341-0.155,0.938-0.155,1.282,0c0.354,0.161,0.354,0.422,0.001,0.582
			C13.528,22.506,13.301,22.549,13.059,22.549z"/>
		<path fill="#810380" d="M20.045,11.444c-0.347,0-0.673-0.061-0.917-0.173c-0.244-0.11-0.379-0.257-0.379-0.415
			s0.134-0.305,0.379-0.417c0.488-0.222,1.341-0.222,1.832,0c0.506,0.23,0.506,0.603,0.001,0.832
			C20.716,11.383,20.39,11.444,20.045,11.444z"/>
		<path fill="#810380" d="M15.058,11.188c-0.352,0-0.682-0.062-0.93-0.175c-0.247-0.112-0.385-0.261-0.385-0.421
			c0-0.159,0.136-0.31,0.385-0.422c0.494-0.225,1.359-0.225,1.858,0c0.514,0.234,0.514,0.611,0.001,0.844
			C15.738,11.125,15.408,11.188,15.058,11.188z"/>
		<path fill="#810380" d="M21.127,8.846c-0.243,0-0.471-0.043-0.642-0.121c-0.171-0.077-0.265-0.18-0.265-0.29
			s0.094-0.214,0.265-0.292c0.341-0.155,0.938-0.155,1.282,0c0.354,0.161,0.354,0.422,0.001,0.582
			C21.596,8.803,21.369,8.846,21.127,8.846z"/>
		<path fill="#810380" d="M17.204,8.416c-0.243,0-0.471-0.043-0.642-0.121c-0.171-0.077-0.265-0.18-0.265-0.29
			s0.094-0.214,0.265-0.292c0.341-0.155,0.938-0.155,1.282,0c0.354,0.161,0.354,0.422,0.001,0.582
			C17.673,8.373,17.446,8.416,17.204,8.416z"/>
		<path fill="#333333" d="M34.426,17.34c-0.347,0-0.673-0.061-0.917-0.173c-0.244-0.11-0.379-0.257-0.379-0.415
			c0-0.157,0.134-0.305,0.379-0.417c0.488-0.222,1.341-0.222,1.832,0c0.506,0.23,0.506,0.603,0.001,0.832
			C35.097,17.278,34.772,17.34,34.426,17.34z"/>
		<path fill="#333333" d="M24.695,17.023c-0.352,0-0.682-0.062-0.93-0.175c-0.247-0.112-0.385-0.261-0.385-0.421
			s0.136-0.31,0.385-0.422c0.494-0.225,1.359-0.225,1.858,0c0.514,0.234,0.514,0.611,0.001,0.844
			C25.375,16.961,25.045,17.023,24.695,17.023z"/>
		<path fill="#333333" d="M29.55,18.164c-0.243,0-0.471-0.043-0.642-0.121c-0.171-0.077-0.265-0.18-0.265-0.29
			s0.094-0.214,0.265-0.292c0.341-0.155,0.938-0.155,1.282,0c0.354,0.161,0.354,0.422,0.001,0.582
			C30.019,18.121,29.791,18.164,29.55,18.164z"/>
		<path fill="#333333" d="M31.176,14.958c-0.243,0-0.471-0.043-0.642-0.121c-0.171-0.077-0.265-0.18-0.265-0.29
			s0.094-0.214,0.265-0.292c0.341-0.155,0.938-0.155,1.282,0c0.354,0.161,0.354,0.422,0.001,0.582
			C31.645,14.915,31.418,14.958,31.176,14.958z"/>
	</g>
	<g id="Layer_4">
		<g>
			<path fill="#333333" d="M9.47,20.704l0.571,0.286c0.318-0.272,0.682-0.499,1.099-0.668L9.959,19.73
				c-0.353-0.177-0.673-0.697-0.673-1.092V9.624h-1.09v9.015C8.196,19.438,8.756,20.345,9.47,20.704z"/>
			<path fill="#333333" d="M27.417,13.099V9.624h-1.089v3.828C26.657,13.293,27.019,13.173,27.417,13.099z"/>
			<path fill="#333333" d="M17.793,14.478c-0.453,0-0.887-0.088-1.222-0.246l-7.666-3.639C8.257,10.286,8.188,9.82,8.188,9.634
				c0.001-0.186,0.071-0.652,0.72-0.957l7.671-3.616c0.667-0.315,1.769-0.313,2.436,0.003l7.67,3.639
				c0.648,0.308,0.717,0.773,0.717,0.96c-0.001,0.186-0.071,0.652-0.72,0.957l-7.675,3.616
				C18.674,14.391,18.243,14.478,17.793,14.478z M9.428,9.635l7.61,3.612c0.376,0.178,1.127,0.179,1.504,0.002l7.618-3.59
				l-7.614-3.612C18.17,5.87,17.42,5.869,17.043,6.045L9.428,9.635z"/>
			<rect x="17.162" y="14.169" fill="#333333" width="1.089" height="5.224"/>
		</g>
		<g>
			<path fill="#810380" d="M21.154,20.963v-4.365h-1.089v4.106C20.457,20.751,20.823,20.834,21.154,20.963z"/>
			<path fill="#810380" d="M38.196,16.597v9.015c0,0.394-0.321,0.914-0.672,1.09l-7.116,3.568l-0.732,0.367l-5.104-2.559
				c0.032,0.402,0.03,0.806-0.029,1.204l4.127,2.069c0.877,0.439,0.877,0.439,1.006,0.439c0.13,0,0.13,0,0.514-0.193l7.823-3.922
				c0.714-0.359,1.273-1.266,1.273-2.064v-9.015L38.196,16.597L38.196,16.597z"/>
			<path fill="#810380" d="M29.663,21.45c-0.454,0-0.888-0.087-1.223-0.247l-7.666-3.638c-0.648-0.307-0.717-0.773-0.717-0.959
				c0.001-0.186,0.071-0.652,0.72-0.957l7.672-3.616c0.666-0.315,1.769-0.313,2.435,0.003l7.669,3.639
				c0.648,0.307,0.717,0.773,0.717,0.959c0,0.186-0.07,0.652-0.719,0.957l-7.675,3.616C30.543,21.364,30.113,21.45,29.663,21.45z
				 M21.297,16.608l7.61,3.611c0.374,0.18,1.128,0.181,1.504,0.003l7.618-3.589l-7.613-3.612c-0.378-0.178-1.13-0.179-1.505-0.002
				L21.297,16.608z"/>
			<rect x="29.031" y="21.143" fill="#810380" width="1.089" height="10.103"/>
		</g>
		<g>
			<path fill="#333333" d="M15.605,38.136c-0.134,0-0.134,0-1.22-0.547l-7.116-3.567c-0.714-0.357-1.275-1.265-1.275-2.065v-9.014
				h1.089v9.014c0,0.395,0.321,0.914,0.673,1.09l7.849,3.935c0.178-0.089,0.44-0.22,0.73-0.366l7.117-3.569
				c0.352-0.177,0.673-0.696,0.673-1.09v-9.014h1.089v9.014c0,0.8-0.561,1.707-1.276,2.065l-7.116,3.568
				C15.738,38.136,15.738,38.136,15.605,38.136z"/>
			<path fill="#333333" d="M15.591,27.795c-0.453,0-0.887-0.087-1.221-0.245l-7.667-3.639c-0.648-0.307-0.717-0.772-0.717-0.959
				c0-0.186,0.071-0.652,0.72-0.957l7.671-3.616c0.667-0.314,1.768-0.312,2.435,0.002l7.67,3.639
				c0.648,0.307,0.717,0.773,0.717,0.96c-0.001,0.185-0.071,0.651-0.72,0.956l-7.675,3.616
				C16.473,27.709,16.041,27.795,15.591,27.795z M7.227,22.953l7.609,3.612c0.376,0.179,1.128,0.179,1.504,0.002l7.617-3.589
				l-7.612-3.612c-0.376-0.177-1.128-0.179-1.504-0.002L7.227,22.953z"/>
			<rect x="14.961" y="27.488" fill="#333333" width="1.089" height="10.103"/>
		</g>
	</g>
</g>
</svg>
