<?xml version="1.0" encoding="utf-8"?>
<!-- Generator: Adobe Illustrator 17.0.0, SVG Export Plug-In . SVG Version: 6.00 Build 0)  -->
<!DOCTYPE svg PUBLIC "-//W3C//DTD SVG 1.1//EN" "http://www.w3.org/Graphics/SVG/1.1/DTD/svg11.dtd">
<svg version="1.1" id="Layer_1" xmlns="http://www.w3.org/2000/svg" xmlns:xlink="http://www.w3.org/1999/xlink" x="0px" y="0px"
	 width="26px" height="26px" viewBox="0 0 26 26" enable-background="new 0 0 26 26" xml:space="preserve">
<path fill="#FFFFFF" d="M1,7h8V2H1V7z M2,3h6v3H2V3z M1,15h8v-5H1V15z M2,11h6v3H2V11z M1,23h8v-5H1V23z M2,19h6v3H2V19z
	 M21.91,5.693l2.512-1.988c0.264-0.209,0.366-0.709,0.256-1.027C24.567,2.36,24.267,2,23.931,2H12.598C12.162,2,12,2.648,12,3.085
	v9.619c0,0.306,0.08,0.584,0.356,0.715c0.276,0.13,0.555,0.091,0.791-0.103l2.729-2.257c1.62,1.63,2.303,3.229,2.053,4.759
	c-0.566,3.472-5.68,5.759-5.731,5.782c-0.352,0.155-0.545,0.54-0.452,0.913c0.088,0.355,0.404,0.601,0.765,0.601
	c0.019,0,0.037-0.001,0.055-0.002c7.279-0.512,11.651-2.514,12.998-5.953C27.292,12.748,23.423,7.506,21.91,5.693z M24.092,16.582
	c-0.891,2.275-3.609,3.798-8.097,4.547c1.539-1.189,3.131-2.901,3.483-5.053c0.367-2.241-0.66-4.481-3.053-6.659
	c-0.15-0.137-0.341-0.206-0.532-0.206c-0.178,0-0.55,0.059-0.696,0.179L13,11.033V4h8.658l-1.381,1.031
	c-0.173,0.137-0.281,0.31-0.298,0.531c-0.016,0.221,0.061,0.422,0.212,0.584C20.248,6.205,25.813,12.187,24.092,16.582z"/>
</svg>
