<?xml version="1.0" encoding="utf-8"?>
<!-- Generator: Adobe Illustrator 17.0.0, SVG Export Plug-In . SVG Version: 6.00 Build 0)  -->
<!DOCTYPE svg PUBLIC "-//W3C//DTD SVG 1.1//EN" "http://www.w3.org/Graphics/SVG/1.1/DTD/svg11.dtd">
<svg version="1.1" id="Layer_1" xmlns="http://www.w3.org/2000/svg" xmlns:xlink="http://www.w3.org/1999/xlink" x="0px" y="0px"
	 width="26px" height="26px" viewBox="0 0 26 26" enable-background="new 0 0 26 26" xml:space="preserve">
<path fill="#FFFFFF" d="M23.847,8H17V2.153C17,0.966,16.423,0,15.236,0h-4.306C9.744,0,9,0.966,9,2.153V8H2.319
	C1.133,8,0,8.962,0,10.149v4.306C0,15.641,1.133,17,2.319,17H9v6.681C9,24.867,9.744,26,10.931,26h4.306
	C16.423,26,17,24.867,17,23.681V17h6.847C25.034,17,26,15.641,26,14.454v-4.306C26,8.962,25.034,8,23.847,8z M24,14.454
	C24,14.624,24.017,15,23.847,15H16v8.681C16,23.85,15.406,24,15.236,24h-4.306C10.761,24,11,23.85,11,23.681V15H2.319
	C2.15,15,2,14.624,2,14.454v-4.306C2,9.979,2.15,10,2.319,10H11V2.153C11,1.983,10.761,2,10.931,2h4.306C15.406,2,16,1.983,16,2.153
	V10h7.847C24.017,10,24,9.979,24,10.149V14.454z"/>
</svg>
