<?xml version="1.0" encoding="utf-8"?>
<!-- Generator: Adobe Illustrator 17.0.0, SVG Export Plug-In . SVG Version: 6.00 Build 0)  -->
<!DOCTYPE svg PUBLIC "-//W3C//DTD SVG 1.1//EN" "http://www.w3.org/Graphics/SVG/1.1/DTD/svg11.dtd">
<svg version="1.1" id="Layer_1" xmlns="http://www.w3.org/2000/svg" xmlns:xlink="http://www.w3.org/1999/xlink" x="0px" y="0px"
	 width="42px" height="42px" viewBox="0 0 42 42" enable-background="new 0 0 42 42" xml:space="preserve">
<g>
	<path fill="#313131" d="M36.099,10H29V7.514C29,5.391,26.667,4,24.543,4h-5.992C16.428,4,15,5.391,15,7.514V10H6.568
		C5.152,10,4,10.378,4,11.794V29.77C4,31.186,5.152,33,6.568,33h29.531C37.515,33,39,31.186,39,29.77V11.794
		C39,10.378,37.515,10,36.099,10z M17,7.514C17,6.335,17.372,6,18.551,6h5.992C25.723,6,27,6.335,27,7.514V10H17V7.514z M37,30.144
		C37,30.617,36.617,31,36.144,31H6.856C6.383,31,6,30.617,6,30.144V12.856C6,12.383,6.383,12,6.856,12h29.288
		C36.617,12,37,12.383,37,12.856V30.144z M7.424,13H6.996c-0.473,0-0.856,0.527-0.856,1s0.383,1,0.856,1h0.428
		c0.473,0,0.856-0.527,0.856-1S7.897,13,7.424,13z M15.128,13H9.992c-0.473,0-0.856,0.527-0.856,1s0.383,1,0.856,1h5.136
		c0.473,0,0.856-0.527,0.856-1S15.6,13,15.128,13z"/>
</g>
<path fill="#810380" d="M28.143,18H25v-3.579C25,13.997,24.35,13,23.926,13h-4.983C18.52,13,18,13.997,18,14.421V18h-3.657
	C13.92,18,13,18.597,13,19.021v4.983C13,24.428,13.92,25,14.343,25H18v3.221C18,28.644,18.52,29,18.943,29h4.983
	C24.35,29,25,28.644,25,28.221V25h3.143C28.566,25,29,24.428,29,24.004v-4.983C29,18.597,28.566,18,28.143,18z M27,23h-4v4h-3v-4h-5
	v-3h5v-5h3v5h4V23z"/>
</svg>
