<?xml version="1.0" encoding="utf-8"?>
<!-- Generator: Adobe Illustrator 17.0.0, SVG Export Plug-In . SVG Version: 6.00 Build 0)  -->
<!DOCTYPE svg PUBLIC "-//W3C//DTD SVG 1.1//EN" "http://www.w3.org/Graphics/SVG/1.1/DTD/svg11.dtd">
<svg version="1.1" id="Layer_1" xmlns="http://www.w3.org/2000/svg" xmlns:xlink="http://www.w3.org/1999/xlink" x="0px" y="0px"
	 width="42px" height="42px" viewBox="0 0 42 42" enable-background="new 0 0 42 42" xml:space="preserve">
<g>
	<path fill="#333333" d="M37.961,1.638c-0.738-0.886-1.844-1.29-2.885-1.058c-1.094,0.244-1.915,1.125-2.252,2.416
		c-0.28,1.074-0.28,1.075-1.249,0.916c-0.477-0.078-1.133-0.184-1.955-0.15c-1.819,0.076-3.237,1.024-3.981,1.648l-0.99-0.812
		c-0.787-0.644-2.107-0.434-2.829,0.447c-0.704,0.859-0.691,2.04-0.011,2.732c-0.577,0.177-1.097,0.518-1.495,1.001L4.066,28.854
		c-0.524,0.637-0.773,1.437-0.701,2.254c0.073,0.821,0.461,1.559,1.089,2.076l9.107,7.611c0.541,0.445,1.226,0.69,1.928,0.69
		c0.93,0,1.804-0.414,2.403-1.141l16.248-20.076c0.516-0.627,0.738-1.394,0.699-2.142c0.073,0.008,0.145,0.018,0.22,0.018
		c0.632,0,1.267-0.315,1.7-0.842c0.351-0.427,0.539-0.95,0.532-1.472c-0.008-0.553-0.244-1.059-0.647-1.389l-0.765-0.628
		c1.273-2.266,0.659-4.125,0.201-5.5c-0.37-1.112-0.541-1.713-0.11-2.254c1.73-0.341,2.326-1.276,2.529-1.816
		C38.817,3.396,38.615,2.423,37.961,1.638z M33.194,19.494L16.946,39.571c-0.636,0.773-1.851,0.901-2.603,0.283l-9.107-7.611
		C4.858,31.933,4.627,31.491,4.583,31c-0.044-0.495,0.108-0.981,0.43-1.373L21.262,9.55c0.362-0.44,0.892-0.692,1.456-0.692
		c0.158,0,0.31,0.026,0.457,0.064l10.105,8.291C33.76,17.877,33.752,18.817,33.194,19.494z M35.814,16.526
		c-0.307,0.375-0.827,0.507-1.109,0.276l-0.518-0.425c-0.127-0.159-0.272-0.307-0.435-0.441l-9.107-7.611
		c-0.264-0.218-0.564-0.386-0.883-0.503l-1.052-0.863c-0.286-0.234-0.261-0.757,0.054-1.141c0.203-0.247,0.485-0.395,0.755-0.395
		c0.139,0,0.258,0.04,0.354,0.118l11.995,9.842c0.17,0.139,0.198,0.35,0.199,0.463C36.072,16.078,35.979,16.325,35.814,16.526z
		 M37.355,3.812c-0.203,0.542-0.84,0.924-1.794,1.077l-0.196,0.031l-0.14,0.14c-1.137,1.137-0.714,2.408-0.305,3.637
		c0.43,1.292,0.869,2.625-0.004,4.324l-8.312-6.82c0.642-0.501,1.731-1.162,3.067-1.218c0.7-0.03,1.235,0.058,1.707,0.135
		c1.25,0.204,2.106,0.187,2.629-1.814c0.22-0.844,0.694-1.388,1.335-1.531c0.593-0.133,1.236,0.116,1.68,0.647
		C37.391,2.863,37.515,3.384,37.355,3.812z"/>
	<path fill="#810380" d="M8.939,24.163l4.024,4.024l0.864-0.864l-4.024-4.024L8.939,24.163z M12.607,19.272l4.024,4.024l0.864-0.864
		l-4.024-4.024L12.607,19.272z M17.75,14.129l-0.864,0.864l4.024,4.024l0.864-0.864L17.75,14.129z"/>
</g>
</svg>
