<?xml version="1.0" encoding="utf-8"?>
<!-- Generator: Adobe Illustrator 17.0.0, SVG Export Plug-In . SVG Version: 6.00 Build 0)  -->
<!DOCTYPE svg PUBLIC "-//W3C//DTD SVG 1.1//EN" "http://www.w3.org/Graphics/SVG/1.1/DTD/svg11.dtd">
<svg version="1.1" id="Layer_1" xmlns="http://www.w3.org/2000/svg" xmlns:xlink="http://www.w3.org/1999/xlink" x="0px" y="0px"
	 width="42px" height="42px" viewBox="0 0 42 42" enable-background="new 0 0 42 42" xml:space="preserve">
<path fill="#810380" d="M20,7h1v7h2V6h-3V7z M12.694,32.465c0.309-0.273,0.545-0.471,0.706-0.624
	c0.161-0.153,0.378-0.358,0.652-0.632c0.273-0.273,0.486-0.513,0.639-0.726c0.153-0.213,0.314-0.454,0.483-0.728
	c0.314-0.531,0.471-1.089,0.471-1.676c0-0.781-0.247-1.408-0.742-1.882c-0.495-0.475-1.164-0.712-2.01-0.712
	c-0.845,0-1.531,0.083-2.058,0.569C10.308,26.542,10.033,27,10.009,28h1.328c0.016,0,0.155-0.751,0.416-1.052
	c0.261-0.302,0.629-0.372,1.104-0.372c0.949,0,1.424,0.539,1.424,1.537c0,0.467-0.165,0.954-0.495,1.42
	c-0.177,0.258-0.35,0.499-0.519,0.704c-0.169,0.205-0.406,0.456-0.712,0.741c-0.306,0.286-0.561,0.521-0.766,0.702
	c-0.205,0.181-0.511,0.438-0.898,0.768C10.505,32.778,10,33.032,10,33.21V34h6v-1h-3.94C12.173,33,12.384,32.739,12.694,32.465z
	 M33.194,30.452C32.928,30.07,33,29.806,32,29.661v-0.048c1-0.121,0.771-0.358,1.037-0.712c0.266-0.354,0.44-0.78,0.44-1.279
	c0-0.668-0.219-1.217-0.697-1.647c-0.479-0.43-1.124-0.646-1.957-0.646c-0.833,0-1.508,0.356-2.035,0.775
	C28.261,26.521,27.979,27,27.931,28h1.339c0.048-1,0.197-0.768,0.447-0.998c0.249-0.229,0.601-0.417,1.056-0.417
	c0.454,0,0.806,0.078,1.056,0.307c0.249,0.23,0.374,0.472,0.374,0.858c0,0.861-0.668,1.25-2.004,1.25H30v1h0.187
	c0.74,0,1.289,0.233,1.647,0.47c0.358,0.237,0.537,0.695,0.537,1.258c0,0.427-0.133,0.803-0.398,1.073
	c-0.265,0.27-0.648,0.419-1.146,0.419s-0.897-0.02-1.195-0.29C29.334,32.66,29.169,32,29.138,32H27.81
	c0.04,1,0.34,1.371,0.899,1.818c0.559,0.446,1.279,0.616,2.16,0.616c0.881,0,1.569-0.256,2.064-0.715
	c0.495-0.458,0.701-1.031,0.701-1.691C33.634,31.368,33.459,30.834,33.194,30.452z"/>
<g>
	<path fill="#333333" d="M25.134,20h-8.267C14.183,20,12,17.817,12,15.133V5.867C12,3.183,14.183,1,16.867,1h8.267
		C27.817,1,30,3.183,30,5.867v9.267C30,17.817,27.817,20,25.134,20z M16.867,3C15.286,3,14,4.286,14,5.867v9.267
		C14,16.714,15.286,18,16.867,18h8.267C26.714,18,28,16.714,28,15.133V5.867C28,4.286,26.714,3,25.134,3H16.867z"/>
</g>
<g>
	<path fill="#333333" d="M16.133,39H7.867C5.183,39,3,36.817,3,34.134v-9.268C3,22.183,5.183,20,7.867,20h8.267
		C18.817,20,21,22.183,21,24.866v9.268C21,36.817,18.817,39,16.133,39z M7.867,22C6.286,22,5,23.286,5,24.866v9.268
		C5,35.714,6.286,37,7.867,37h8.267C17.714,37,19,35.714,19,34.134v-9.268C19,23.286,17.714,22,16.133,22H7.867z"/>
</g>
<g>
	<path fill="#333333" d="M35.134,39h-8.268C24.183,39,22,36.817,22,34.134v-9.268C22,22.183,24.183,20,26.866,20h8.268
		C37.817,20,40,22.183,40,24.866v9.268C40,36.817,37.817,39,35.134,39z M26.866,22C25.286,22,24,23.286,24,24.866v9.268
		C24,35.714,25.286,37,26.866,37h8.268C36.714,37,38,35.714,38,34.134v-9.268C38,23.286,36.714,22,35.134,22H26.866z"/>
</g>
</svg>
