<?xml version="1.0" encoding="utf-8"?>
<!-- Generator: Adobe Illustrator 17.0.0, SVG Export Plug-In . SVG Version: 6.00 Build 0)  -->
<!DOCTYPE svg PUBLIC "-//W3C//DTD SVG 1.1//EN" "http://www.w3.org/Graphics/SVG/1.1/DTD/svg11.dtd">
<svg version="1.1" id="Layer_1" xmlns="http://www.w3.org/2000/svg" xmlns:xlink="http://www.w3.org/1999/xlink" x="0px" y="0px"
	 width="26px" height="26px" viewBox="0 0 26 26" enable-background="new 0 0 26 26" xml:space="preserve">
<g>
	<g>
		<path fill="#FFFFFF" d="M24.378,10.339l-1.779-0.302c-0.185-0.598-0.424-1.176-0.715-1.726l1.049-1.467
			c0.445-0.625,0.376-1.478-0.169-2.018l-1.578-1.578c-0.297-0.297-0.688-0.461-1.107-0.461c-0.328,0-0.641,0.101-0.906,0.291
			L17.7,4.127c-0.572-0.302-1.17-0.551-1.79-0.736l-0.297-1.758c-0.127-0.757-0.778-1.308-1.546-1.308h-2.23
			c-0.768,0-1.419,0.551-1.546,1.308L9.984,3.433c-0.593,0.185-1.17,0.429-1.721,0.726L6.806,3.11
			C6.542,2.919,6.224,2.819,5.896,2.819c-0.418,0-0.816,0.164-1.107,0.461L3.205,4.858c-0.54,0.54-0.614,1.393-0.169,2.018
			l1.059,1.488C3.804,8.92,3.571,9.497,3.391,10.095l-1.758,0.297c-0.757,0.127-1.308,0.778-1.308,1.546v2.23
			c0,0.768,0.551,1.419,1.308,1.546l1.801,0.307c0.185,0.593,0.429,1.17,0.726,1.721l-1.043,1.451
			c-0.445,0.625-0.376,1.478,0.169,2.018l1.578,1.578c0.297,0.297,0.688,0.461,1.107,0.461c0.328,0,0.641-0.101,0.906-0.291
			L8.363,21.9c0.535,0.281,1.096,0.508,1.673,0.688l0.297,1.779c0.127,0.757,0.778,1.308,1.546,1.308h2.235
			c0.768,0,1.419-0.551,1.546-1.308l0.302-1.779c0.598-0.185,1.176-0.424,1.726-0.715l1.467,1.049
			c0.265,0.191,0.583,0.291,0.911,0.291l0,0c0.418,0,0.81-0.164,1.107-0.461l1.578-1.578c0.54-0.54,0.614-1.393,0.169-2.018
			l-1.049-1.472c0.291-0.556,0.535-1.133,0.715-1.726l1.779-0.297c0.757-0.127,1.308-0.778,1.308-1.546v-2.23
			C25.686,11.117,25.135,10.466,24.378,10.339z M24.256,14.115c0,0.069-0.048,0.127-0.117,0.138l-2.224,0.371
			c-0.281,0.048-0.503,0.254-0.572,0.524c-0.201,0.778-0.508,1.525-0.921,2.219c-0.143,0.244-0.132,0.545,0.032,0.778l1.308,1.843
			c0.037,0.053,0.032,0.132-0.016,0.18l-1.578,1.578c-0.037,0.037-0.074,0.042-0.101,0.042c-0.032,0-0.058-0.011-0.079-0.026
			l-1.838-1.308c-0.228-0.164-0.535-0.175-0.778-0.032c-0.694,0.413-1.44,0.72-2.219,0.921c-0.275,0.069-0.482,0.297-0.524,0.572
			l-0.376,2.224c-0.011,0.069-0.069,0.117-0.138,0.117h-2.23c-0.069,0-0.127-0.048-0.138-0.117l-0.371-2.224
			c-0.048-0.281-0.254-0.503-0.524-0.572c-0.757-0.196-1.488-0.498-2.171-0.89c-0.111-0.064-0.238-0.095-0.36-0.095
			c-0.143,0-0.291,0.042-0.413,0.132L6.054,21.81c-0.026,0.016-0.053,0.026-0.079,0.026c-0.021,0-0.064-0.005-0.101-0.042
			l-1.578-1.578c-0.048-0.048-0.053-0.122-0.016-0.18l1.303-1.827c0.164-0.233,0.175-0.54,0.032-0.784
			c-0.413-0.688-0.731-1.435-0.932-2.214c-0.074-0.27-0.297-0.477-0.572-0.524l-2.24-0.381c-0.069-0.011-0.117-0.069-0.117-0.138
			v-2.23c0-0.069,0.048-0.127,0.117-0.138l2.208-0.371c0.281-0.048,0.508-0.254,0.577-0.53c0.196-0.778,0.498-1.53,0.906-2.224
			c0.143-0.244,0.127-0.545-0.037-0.773L4.206,6.049c-0.037-0.053-0.032-0.132,0.016-0.18L5.8,4.291
			c0.037-0.037,0.074-0.042,0.101-0.042c0.032,0,0.058,0.011,0.079,0.026l1.827,1.303C8.04,5.742,8.348,5.753,8.591,5.61
			c0.688-0.413,1.435-0.731,2.214-0.932c0.27-0.074,0.477-0.297,0.524-0.572l0.381-2.24c0.011-0.069,0.069-0.117,0.138-0.117h2.23
			c0.069,0,0.127,0.048,0.138,0.117l0.371,2.208c0.048,0.281,0.254,0.508,0.53,0.577c0.8,0.201,1.562,0.514,2.272,0.932
			c0.244,0.143,0.545,0.132,0.778-0.032l1.827-1.313c0.026-0.016,0.053-0.026,0.079-0.026c0.021,0,0.064,0.005,0.101,0.042
			l1.578,1.578c0.048,0.048,0.053,0.122,0.016,0.18L20.459,7.85c-0.164,0.228-0.175,0.535-0.032,0.778
			c0.413,0.694,0.72,1.44,0.921,2.219c0.069,0.275,0.297,0.482,0.572,0.524l2.224,0.376c0.069,0.011,0.117,0.069,0.117,0.138v2.23
			H24.256z"/>
		<path fill="#FFFFFF" d="M13.003,7.527c-3.019,0-5.471,2.452-5.471,5.471s2.452,5.471,5.471,5.471s5.471-2.452,5.471-5.471
			S16.021,7.527,13.003,7.527z M13.003,17.038c-2.23,0-4.041-1.811-4.041-4.041s1.811-4.041,4.041-4.041s4.041,1.811,4.041,4.041
			S15.232,17.038,13.003,17.038z"/>
	</g>
</g>
</svg>
