<?xml version="1.0" encoding="utf-8"?>
<!-- Generator: Adobe Illustrator 17.0.0, SVG Export Plug-In . SVG Version: 6.00 Build 0)  -->
<!DOCTYPE svg PUBLIC "-//W3C//DTD SVG 1.1//EN" "http://www.w3.org/Graphics/SVG/1.1/DTD/svg11.dtd">
<svg version="1.1" id="Layer_1" xmlns="http://www.w3.org/2000/svg" xmlns:xlink="http://www.w3.org/1999/xlink" x="0px" y="0px"
	 width="42px" height="42px" viewBox="0 0 42 42" enable-background="new 0 0 42 42" xml:space="preserve">
<g>
	<path fill="#810380" d="M22.708,23.693c2.532,2.532,5.302,4.145,6.825,4.004c1.138-0.105,2.573-1.665,2.573-1.665l-3.264-3.264
		L27.54,24.07l-5.209-5.209l1.302-1.302l-3.264-3.264c0,0-1.56,1.435-1.665,2.573C18.563,18.391,20.176,21.161,22.708,23.693z"/>
	<path fill="#333333" d="M4.864,0.68v9.531H2.978v2.515h1.886v7.017H2.769v2.515h2.096v7.017H2.769v2.515h2.096v9.531h34.367V0.68
		H4.864z M7.379,31.789h2.096v-2.515H7.379v-7.017h2.096v-2.515H7.379v-7.017h2.096v-2.515H7.379V3.194h4.191v35.611H7.379
		C7.379,38.806,7.379,31.789,7.379,31.789z M36.716,38.806H14.085V3.194h22.632V38.806z"/>
</g>
</svg>
