<?xml version="1.0" encoding="utf-8"?>
<!-- Generator: Adobe Illustrator 17.0.0, SVG Export Plug-In . SVG Version: 6.00 Build 0)  -->
<!DOCTYPE svg PUBLIC "-//W3C//DTD SVG 1.1//EN" "http://www.w3.org/Graphics/SVG/1.1/DTD/svg11.dtd">
<svg version="1.1" id="Layer_1" xmlns="http://www.w3.org/2000/svg" xmlns:xlink="http://www.w3.org/1999/xlink" x="0px" y="0px"
	 width="42px" height="42px" viewBox="0 0 42 42" enable-background="new 0 0 42 42" xml:space="preserve">
<g>
	<path fill="#FFFFFF" d="M15.055,27.354c1.508-1.018,2.501-2.742,2.501-4.693c0-3.12-2.538-5.658-5.658-5.658
		S6.24,19.541,6.24,22.661c0,1.952,0.993,3.676,2.501,4.693c-1.611,0.46-2.794,1.944-2.794,3.701v6.739
		c0,0.307,0.249,0.556,0.556,0.556h10.79c0.307,0,0.556-0.249,0.556-0.556v-6.739C17.85,29.298,16.666,27.814,15.055,27.354z
		 M13.181,29.089l-0.676-0.77h1.352L13.181,29.089z M11.024,28.319l1.341,1.527l-1.255,0.936l-0.605-2.464L11.024,28.319
		L11.024,28.319z M15.125,28.562c0.071,0.032,0.14,0.067,0.207,0.104l-0.198,2.029l-1.138-0.849L15.125,28.562z M7.352,22.661
		c0-2.506,2.039-4.545,4.545-4.545s4.545,2.039,4.545,4.545s-2.039,4.545-4.545,4.545S7.352,25.167,7.352,22.661z M7.059,31.055
		c0-1.363,1.002-2.496,2.308-2.702l0.863,3.511c0.045,0.181,0.177,0.328,0.352,0.391c0.061,0.022,0.125,0.033,0.188,0.033
		c0.118,0,0.235-0.038,0.333-0.11l1.522-1.135v6.196H9.807v-5.516c0-0.307-0.249-0.556-0.556-0.556s-0.556,0.249-0.556,0.556v5.516
		H7.059V31.055z M16.737,37.237h-2.999v-6.196l1.522,1.135c0.098,0.073,0.215,0.11,0.333,0.11c0.076,0,0.153-0.016,0.225-0.048
		c0.184-0.081,0.309-0.255,0.329-0.455l0.207-2.124c0.243,0.409,0.383,0.885,0.383,1.394V37.237L16.737,37.237z"/>
	<path fill="#FFFFFF" d="M14.981,32.618c-0.089-0.21-0.299-0.349-0.527-0.343c-0.243,0.006-0.457,0.174-0.522,0.408
		c-0.064,0.228,0.03,0.481,0.227,0.611c0.195,0.129,0.458,0.122,0.645-0.019C15.001,33.123,15.079,32.848,14.981,32.618
		C14.967,32.584,14.995,32.651,14.981,32.618z"/>
	<path fill="#FFFFFF" d="M11.699,21.625c-0.087-0.205-0.29-0.344-0.514-0.344c-0.223,0-0.428,0.138-0.514,0.344
		c-0.091,0.219-0.028,0.482,0.152,0.636c0.184,0.156,0.455,0.176,0.659,0.047C11.707,22.165,11.803,21.872,11.699,21.625
		C11.685,21.592,11.713,21.659,11.699,21.625z"/>
	<path fill="#FFFFFF" d="M14.311,22.051c0.089,0.21,0.299,0.349,0.528,0.343c0.247-0.006,0.466-0.181,0.526-0.421
		c0.053-0.214-0.028-0.445-0.204-0.579c-0.193-0.146-0.467-0.149-0.663-0.007C14.291,21.538,14.213,21.815,14.311,22.051
		C14.325,22.085,14.297,22.017,14.311,22.051z"/>
	<path fill="#FFFFFF" d="M21.489,9.838h6.981c0.307,0,0.556-0.249,0.556-0.556s-0.249-0.556-0.556-0.556h-6.981
		c-0.307,0-0.556,0.249-0.556,0.556S21.182,9.838,21.489,9.838z"/>
	<path fill="#FFFFFF" d="M29.026,11.324c0-0.307-0.249-0.556-0.556-0.556h-6.981c-0.307,0-0.556,0.249-0.556,0.556
		s0.249,0.556,0.556,0.556h6.981C28.777,11.881,29.026,11.632,29.026,11.324z"/>
	<path fill="#FFFFFF" d="M33.259,27.354c1.508-1.018,2.501-2.742,2.501-4.693c0-3.12-2.538-5.658-5.658-5.658
		s-5.658,2.538-5.658,5.658c0,1.952,0.993,3.676,2.501,4.693c-1.611,0.46-2.794,1.944-2.794,3.701v6.739
		c0,0.307,0.249,0.556,0.556,0.556h10.79c0.307,0,0.556-0.249,0.556-0.556v-6.739C36.054,29.298,34.87,27.814,33.259,27.354z
		 M32.086,28.319c-0.423,0.666-1.166,1.094-1.984,1.094s-1.561-0.428-1.984-1.094H32.086z M25.557,22.661
		c0-2.506,2.039-4.545,4.546-4.545c2.506,0,4.545,2.039,4.545,4.545s-2.039,4.545-4.545,4.545
		C27.596,27.207,25.557,25.167,25.557,22.661z M25.263,31.055c0-1.142,0.703-2.121,1.699-2.531c0.56,1.203,1.781,2.003,3.14,2.003
		s2.58-0.8,3.14-2.003c0.996,0.409,1.699,1.389,1.699,2.531v1.975h-1.949v-1.309c0-0.307-0.249-0.556-0.556-0.556
		s-0.556,0.249-0.556,0.556v5.516h-6.615L25.263,31.055L25.263,31.055z M32.992,37.237v-3.094h1.949v3.094H32.992z"/>
	<path fill="#FFFFFF" d="M30.301,22.051c0.098,0.232,0.345,0.375,0.596,0.337c0.22-0.033,0.403-0.198,0.458-0.414
		c0.058-0.226-0.038-0.47-0.231-0.6c-0.219-0.147-0.515-0.113-0.703,0.069C30.266,21.604,30.215,21.844,30.301,22.051
		C30.315,22.085,30.287,22.017,30.301,22.051z"/>
	<path fill="#FFFFFF" d="M27.721,21.729c-0.013-0.071-0.044-0.139-0.082-0.2c-0.281-0.411-0.939-0.266-1.013,0.228
		c-0.068,0.448,0.429,0.791,0.824,0.565C27.656,22.204,27.768,21.963,27.721,21.729C27.714,21.694,27.728,21.766,27.721,21.729z"/>
	<path fill="#FFFFFF" d="M30.212,23.745c-0.174-0.174-0.456-0.174-0.629,0c-0.149,0.149-0.346,0.231-0.557,0.231
		c-0.21,0-0.408-0.082-0.557-0.231c-0.174-0.174-0.456-0.174-0.629,0c-0.174,0.174-0.174,0.456,0,0.63
		c0.327,0.327,0.757,0.491,1.186,0.491c0.43,0,0.859-0.164,1.186-0.491C30.385,24.2,30.385,23.919,30.212,23.745z"/>
	<path fill="#FFFFFF" d="M18.145,6.767h0.097c0.233-0.666,0.863-1.143,1.605-1.155h-1.702V6.767z"/>
	<rect x="18.145" y="7.88" fill="#FFFFFF" width="0" height="0.93"/>
	<rect x="18.145" y="9.923" fill="#FFFFFF" width="0" height="1.888"/>
	<path fill="#FFFFFF" d="M30.086,6.721H19.873c-0.339,0-0.616,0.276-0.616,0.616v5.818c0,0.339,0.276,0.616,0.616,0.616h6.185
		c0.106,0,0.21,0.03,0.299,0.087l2.05,1.306v-0.836c0-0.307,0.249-0.556,0.556-0.556h1.123c0.34,0,0.616-0.276,0.616-0.616v-5.82
		C30.701,6.997,30.425,6.721,30.086,6.721z"/>
	<path fill="#FFFFFF" d="M30.086,5.608h-5.437v0.004h-4.802c-0.741,0.012-1.372,0.489-1.605,1.155h-0.097V7.88l0,0v0.93l0,0v1.113
		l0,0v1.888l0,0v1.113v0.23c0,0.953,0.775,1.729,1.729,1.729h6.023l2.768,1.764c0.091,0.058,0.195,0.087,0.299,0.087
		c0.092,0,0.184-0.023,0.268-0.069c0.178-0.098,0.289-0.285,0.289-0.488v-1.294h0.566c0.953,0,1.729-0.775,1.729-1.729V7.336
		C31.815,6.383,31.039,5.608,30.086,5.608z M30.701,13.154c0,0.34-0.276,0.616-0.616,0.616h-1.123c-0.307,0-0.556,0.249-0.556,0.556
		v0.836l-2.05-1.306c-0.089-0.057-0.193-0.087-0.299-0.087h-6.185c-0.34,0-0.616-0.276-0.616-0.616V7.336
		c0-0.34,0.276-0.616,0.616-0.616h10.212c0.34,0,0.616,0.276,0.616,0.616L30.701,13.154L30.701,13.154z"/>
	<path fill="#FFFFFF" d="M13.439,9.367c0,0.307,0.249,0.556,0.556,0.556h4.149V8.81h-4.149C13.688,8.81,13.439,9.059,13.439,9.367z"
		/>
	<path fill="#FFFFFF" d="M13.439,7.323c0,0.307,0.249,0.556,0.556,0.556h4.149V6.767h-4.149C13.688,6.767,13.439,7.016,13.439,7.323
		z"/>
	<path fill="#FFFFFF" d="M16.407,11.811c-0.106,0-0.21,0.03-0.299,0.087l-2.049,1.306v-0.837c0-0.307-0.249-0.556-0.556-0.556H12.38
		c-0.34,0-0.616-0.276-0.616-0.616V5.379c0-0.34,0.276-0.616,0.616-0.616h10.212c0.34,0,0.616,0.276,0.616,0.616v0.229h-3.335
		c-0.009,0-0.017,0.004-0.027,0.004h4.802V5.608H24.32V5.379c0-0.953-0.775-1.729-1.729-1.729H12.38
		c-0.953,0-1.729,0.776-1.729,1.729v5.817c0,0.953,0.776,1.729,1.729,1.729h0.566v1.295c0,0.203,0.111,0.39,0.289,0.488
		c0.084,0.046,0.176,0.069,0.268,0.069c0.104,0,0.208-0.029,0.299-0.087l2.768-1.764h1.575v-1.113h-1.738V11.811z"/>
</g>
</svg>
