<?xml version="1.0" encoding="utf-8"?>
<!-- Generator: Adobe Illustrator 17.0.0, SVG Export Plug-In . SVG Version: 6.00 Build 0)  -->
<!DOCTYPE svg PUBLIC "-//W3C//DTD SVG 1.1//EN" "http://www.w3.org/Graphics/SVG/1.1/DTD/svg11.dtd">
<svg version="1.1" id="Capa_1" xmlns="http://www.w3.org/2000/svg" xmlns:xlink="http://www.w3.org/1999/xlink" x="0px" y="0px"
	 width="42px" height="42px" viewBox="0 0 42 42" enable-background="new 0 0 42 42" xml:space="preserve">
<g>
	<rect x="14.18" y="15.318" fill="#FFFFFF" width="1.418" height="1.418"/>
	<rect x="18.156" y="15.318" fill="#FFFFFF" width="1.418" height="1.418"/>
	<rect x="22.107" y="15.318" fill="#FFFFFF" width="1.418" height="1.418"/>
	<rect x="26.107" y="15.318" fill="#FFFFFF" width="1.418" height="1.418"/>
</g>
<g>
	<rect x="14.18" y="19.245" fill="#FFFFFF" width="1.418" height="1.418"/>
	<rect x="10.18" y="19.245" fill="#FFFFFF" width="1.418" height="1.418"/>
	<rect x="6.132" y="19.245" fill="#FFFFFF" width="1.418" height="1.418"/>
	<rect x="18.156" y="19.245" fill="#FFFFFF" width="1.418" height="1.418"/>
	<rect x="22.107" y="19.245" fill="#FFFFFF" width="1.418" height="1.418"/>
	<rect x="26.107" y="19.245" fill="#FFFFFF" width="1.418" height="1.418"/>
</g>
<g>
	<rect x="14.18" y="23.269" fill="#FFFFFF" width="1.418" height="1.418"/>
	<rect x="10.18" y="23.269" fill="#FFFFFF" width="1.418" height="1.418"/>
	<rect x="6.132" y="23.269" fill="#FFFFFF" width="1.418" height="1.418"/>
	<rect x="18.156" y="23.269" fill="#FFFFFF" width="1.418" height="1.418"/>
	<rect x="22.107" y="23.269" fill="#FFFFFF" width="1.418" height="1.418"/>
</g>
<path fill="#FFFFFF" d="M25.871,7.306V8.47h4.509v11.04c0.068-0.002,0.135-0.01,0.203-0.01c0.326,0,0.645,0.03,0.96,0.073V7.306
	H25.871z M23.326,6.118h-1.164v3.709h1.164V6.118z M3.326,29.803V8.47H7.69V7.306H2.162v23.66h22.864
	c-0.285-0.361-0.535-0.75-0.746-1.163H3.326z M19.617,7.209h-5.77v1.164h5.77V7.209z M11.326,6.118h-1.164v3.709h1.164V6.118z"/>
<path fill="#FFFFFF" d="M24.982,26.821c-0.657,0.19-1.012,0.624-1.012,1.16c-0.026,0.571,0.407,1.073,1.125,1.073
	c0.683,0.001,1.124-0.425,1.124-1.004C26.219,27.366,25.743,27.038,24.982,26.821z M25.196,26.276
	c0.485-0.163,0.857-0.51,0.857-1.02c0-0.451-0.268-0.918-0.952-0.918c-0.631-0.001-0.976,0.416-0.976,0.9
	C24.125,25.801,24.549,26.104,25.196,26.276z M30.699,17.604c-5.047,0-9.139,4.092-9.139,9.139c0,5.047,4.092,9.139,9.139,9.139
	c5.047,0,9.139-4.092,9.139-9.139C39.838,21.696,35.746,17.604,30.699,17.604z M25.076,29.61c-1.177-0.002-1.887-0.702-1.887-1.526
	c0-0.71,0.426-1.21,1.118-1.505l-0.01-0.026c-0.623-0.295-0.891-0.779-0.891-1.263c0-0.892,0.753-1.497,1.739-1.497
	c1.091,0,1.636,0.684,1.636,1.386c0,0.475-0.234,0.986-0.926,1.315v0.026c0.702,0.276,1.133,0.77,1.133,1.454
	C26.988,28.952,26.149,29.61,25.076,29.61z M29.703,27.454h-2.136v-0.563h2.136V27.454z M32.738,29.513h-0.736v-4.916h-0.018
	l-0.979,0.528l-0.145-0.579l1.228-0.657h0.65V29.513z M36.566,29.61c-1.099,0-1.842-1.031-1.86-2.891
	c0-1.886,0.813-2.925,1.957-2.925c1.185-0.002,1.86,1.055,1.86,2.846C38.523,28.553,37.813,29.61,36.566,29.61z M36.618,24.382
	c-0.666-0.001-1.15,0.814-1.15,2.345c0,1.463,0.451,2.293,1.142,2.293c0.779,0,1.15-0.908,1.15-2.344
	C37.76,25.29,37.406,24.382,36.618,24.382z"/>
</svg>
