<?xml version="1.0" encoding="utf-8"?>
<!-- Generator: Adobe Illustrator 17.0.0, SVG Export Plug-In . SVG Version: 6.00 Build 0)  -->
<!DOCTYPE svg PUBLIC "-//W3C//DTD SVG 1.1//EN" "http://www.w3.org/Graphics/SVG/1.1/DTD/svg11.dtd">
<svg version="1.1" id="Layer_1" xmlns="http://www.w3.org/2000/svg" xmlns:xlink="http://www.w3.org/1999/xlink" x="0px" y="0px"
	 width="42px" height="42px" viewBox="0 0 42 42" enable-background="new 0 0 42 42" xml:space="preserve">
<g>
	<path fill="#333333" d="M28.819,28.389h-3.404v-0.277c0-0.839-0.67-1.575-1.433-1.575h-7.617l-0.639-7.04
		c-0.054-0.665-0.472-1.43-1.004-1.878l-0.94-11.045c-0.035-0.418-0.232-0.798-0.555-1.07c-0.322-0.272-0.732-0.402-1.148-0.366
		L5.5,5.698C4.635,5.772,3.991,6.536,4.064,7.402l0.291,3.33c-0.445-0.222-0.896-0.168-1.175,0.135
		c-0.14,0.152-0.297,0.432-0.257,0.908l1.933,22.713c0.071,0.842,0.817,1.527,1.662,1.527h7.309h2.822c0.004,0.001,0.008,0,0.01,0
		h7.179c0.868,0,1.575-0.707,1.575-1.575v-0.277h3.404c0.868,0,1.575-0.707,1.575-1.575v-2.624
		C30.394,29.096,29.688,28.389,28.819,28.389z M5.473,11.459l-0.191-2.18l7.621-0.648l0.7,8.227L5.473,11.459z M5.589,6.745
		l6.579-0.56c0.136-0.012,0.274,0.032,0.382,0.122c0.108,0.091,0.174,0.217,0.186,0.356l0.078,0.92L5.191,8.232L5.11,7.313
		C5.086,7.024,5.301,6.769,5.589,6.745z M13.829,34.966H6.52c-0.302,0-0.59-0.264-0.616-0.566L3.973,11.724l9.98,6.626
		c0.347,0.23,0.693,0.818,0.727,1.238l1.396,15.38L13.829,34.966L13.829,34.966z M24.365,34.441c0,0.289-0.235,0.525-0.525,0.525
		H17.13l-0.669-7.379h7.521c0.131,0,0.383,0.222,0.383,0.525V34.441z M29.344,32.589c0,0.289-0.235,0.525-0.525,0.525h-3.404V29.44
		h3.404c0.29,0,0.525,0.236,0.525,0.525C29.344,29.965,29.344,32.589,29.344,32.589z M13.365,32.431
		c0,0.145-0.118,0.263-0.263,0.263H8.377c-0.145,0-0.263-0.118-0.263-0.263s0.118-0.263,0.263-0.263h4.726
		C13.248,32.168,13.365,32.286,13.365,32.431z M13.365,31.277c0,0.145-0.118,0.263-0.263,0.263H8.377
		c-0.145,0-0.263-0.118-0.263-0.263c0-0.145,0.118-0.263,0.263-0.263h4.726C13.248,31.014,13.365,31.131,13.365,31.277z
		 M13.365,30.123c0,0.145-0.118,0.263-0.263,0.263H8.377c-0.145,0-0.263-0.118-0.263-0.263c0-0.145,0.118-0.263,0.263-0.263h4.726
		C13.248,29.86,13.365,29.978,13.365,30.123z"/>
	
		<line fill="none" stroke="#80007F" stroke-linecap="round" stroke-linejoin="round" stroke-miterlimit="10" x1="31.936" y1="28.993" x2="37.853" y2="25.743"/>
	
		<line fill="none" stroke="#80007F" stroke-linecap="round" stroke-linejoin="round" stroke-miterlimit="10" x1="37.978" y1="36.368" x2="32.061" y2="33.118"/>
	
		<line fill="none" stroke="#80007F" stroke-linecap="round" stroke-linejoin="round" stroke-miterlimit="10" x1="31.832" y1="30.826" x2="38.582" y2="30.826"/>
</g>
</svg>
