<?xml version="1.0" encoding="utf-8"?>
<!-- Generator: Adobe Illustrator 17.0.0, SVG Export Plug-In . SVG Version: 6.00 Build 0)  -->
<!DOCTYPE svg PUBLIC "-//W3C//DTD SVG 1.1 Tiny//EN" "http://www.w3.org/Graphics/SVG/1.1/DTD/svg11-tiny.dtd">
<svg version="1.1" baseProfile="tiny" id="Layer_1" xmlns="http://www.w3.org/2000/svg" xmlns:xlink="http://www.w3.org/1999/xlink"
	 x="0px" y="0px" width="42px" height="42px" viewBox="0 0 42 42" overflow="scroll" xml:space="preserve">
<g>
	<g>
		<path fill="#313131" d="M32.144,38.667H15.951l-4.782-7.681c-0.028-0.088-0.691-2.209-0.691-6.652
			c0.305-2.698,2.897-3.518,4.226-3.583l0.05,0.999c-0.122,0.007-2.998,0.188-3.279,2.641c0.003,3.828,0.531,5.882,0.631,6.236
			l4.4,7.04h14.808l2.007-10.676c0.002-0.013,0.353-2.277-1.296-4.412c-1.672-2.166-4.745-3.468-9.134-3.873l0.092-0.996
			c4.689,0.432,8.004,1.872,9.849,4.278c1.909,2.488,1.492,5.071,1.474,5.181L32.144,38.667z"/>
	</g>
	<g>
		<path fill="#80007F" d="M14.895,21.833c-0.276,0-0.5-0.224-0.5-0.5V7.667c0.033-1.506,0.962-4.333,4.25-4.333
			c3.248,0,4.469,2.792,4.663,4.269l0.004,10.731c0,0.276-0.224,0.5-0.5,0.5s-0.5-0.224-0.5-0.5V7.667
			c-0.015-0.073-0.492-3.333-3.667-3.333c-3.142,0-3.247,3.208-3.25,3.344v13.656C15.395,21.61,15.172,21.833,14.895,21.833z"/>
	</g>
	<g>
		<path fill="#80007F" d="M14.895,11.083c-0.195,0-0.38-0.115-0.46-0.306c-0.107-0.254,0.012-0.547,0.266-0.655l7.5-3.167
			c0.251-0.106,0.547,0.011,0.655,0.266c0.107,0.254-0.012,0.547-0.267,0.655l-7.5,3.167C15.026,11.071,14.96,11.083,14.895,11.083z
			"/>
	</g>
	<g>
		
			<rect x="18.16" y="8.205" transform="matrix(0.4101 0.912 -0.912 0.4101 22.5068 -9.5812)" fill="#80007F" width="1" height="8.806"/>
	</g>
	<g>
		<polygon fill="#80007F" points="22.77,18.083 18.019,12.829 18.772,12.171 22.855,16.838 		"/>
	</g>
	<g>
		<path fill="#80007F" d="M10.784,17.93c-1.348,0-3.067-2.191-3.138-3.315c-0.087-1.37,2.088-3.652,3.209-4.733
			C9.731,9.308,7.93,8.249,7.738,7.262c-0.131-0.673,0.31-1.656,0.775-2.285C8.791,4.601,9.234,4.14,9.76,4.086
			c0.017-0.001,0.133-0.007,0.15-0.007c1.692,0,4.682,3.049,5.264,3.66c0.088,0.093,0.138,0.216,0.138,0.345v4.833
			c0,0.086-0.022,0.171-0.065,0.247c-0.431,0.759-2.663,4.556-4.315,4.757C10.912,17.923,10.804,17.93,10.784,17.93z M9.91,5.078
			C9.812,5.086,9.602,5.188,9.316,5.573C8.88,6.162,8.675,6.842,8.719,7.071c0.095,0.487,1.741,1.544,3.219,2.225
			c0.152,0.07,0.259,0.212,0.285,0.378s-0.034,0.333-0.158,0.446c-1.453,1.317-3.475,3.563-3.42,4.431
			c0.049,0.778,1.489,2.378,2.14,2.378v0.5l0.026-0.501c0.833-0.102,2.521-2.446,3.501-4.145V8.285
			C13.05,6.987,10.857,5.078,9.91,5.078z"/>
	</g>
</g>
</svg>
