<?xml version="1.0" encoding="utf-8"?>
<!-- Generator: Adobe Illustrator 17.0.0, SVG Export Plug-In . SVG Version: 6.00 Build 0)  -->
<!DOCTYPE svg PUBLIC "-//W3C//DTD SVG 1.1//EN" "http://www.w3.org/Graphics/SVG/1.1/DTD/svg11.dtd">
<svg version="1.1" id="Layer_1" xmlns="http://www.w3.org/2000/svg" xmlns:xlink="http://www.w3.org/1999/xlink" x="0px" y="0px"
	 width="42px" height="42px" viewBox="0 0 42 42" enable-background="new 0 0 42 42" xml:space="preserve">
<g>
	<g>
		<path fill="#111111" d="M19.885,11.209c-2.955,0-5.358-2.403-5.358-5.358s2.403-5.358,5.358-5.358
			c2.955,0,5.358,2.403,5.358,5.358S22.841,11.209,19.885,11.209z M19.885,1.493c-2.403,0-4.358,1.955-4.358,4.358
			s1.955,4.358,4.358,4.358c2.403,0,4.358-1.955,4.358-4.358S22.289,1.493,19.885,1.493z"/>
	</g>
	<g>
		<path fill="#111111" d="M24.45,31.114l-0.941-0.338l6.729-18.753c0.064-0.752-0.091-1.329-0.461-1.714
			c-0.64-0.665-1.751-0.614-1.767-0.615l-4.586,0.063l-0.014-1l4.563-0.063c0.036-0.004,1.559-0.083,2.523,0.92
			c0.594,0.616,0.84,1.48,0.73,2.567L31.2,12.301L24.45,31.114z"/>
	</g>
	<g>
		<path fill="#111111" d="M17.203,31.131l-7.25-18.063c-0.039-0.116-0.658-2.087,0.209-3.361c0.417-0.613,1.081-0.954,1.972-1.012
			l4.095-0.001v1h-4.063c-0.543,0.037-0.938,0.225-1.177,0.573c-0.492,0.721-0.237,2.021-0.097,2.462l7.238,18.028L17.203,31.131z"
			/>
	</g>
	<g>
		<path fill="#111111" d="M23.167,31.382c-0.276,0-0.5-0.224-0.5-0.5c0-2.598-2.896-3.745-3.019-3.75
			c-0.201-0.009-0.379-0.137-0.449-0.325l-2.5-6.687c-0.097-0.259,0.035-0.547,0.293-0.644c0.26-0.097,0.547,0.035,0.644,0.293
			l2.389,6.389c1.424,0.166,3.643,2.09,3.643,4.724C23.667,31.158,23.443,31.382,23.167,31.382z"/>
	</g>
	<g>
		<path fill="#111111" d="M21.667,27.195c-0.059,0-0.118-0.011-0.177-0.032c-0.258-0.098-0.389-0.386-0.291-0.645l4.063-10.75
			c0.097-0.258,0.383-0.389,0.645-0.291c0.259,0.098,0.389,0.386,0.291,0.645l-4.063,10.75
			C22.059,27.072,21.869,27.195,21.667,27.195z"/>
	</g>
	<path fill="#80007F" d="M35.667,29.945c-1.965,0-3.688,1.04-4.661,2.594c-0.174-1.215-1.242-2.157-2.541-2.157H3.41
		c-1.421,0-2.577,1.121-2.577,2.5v6.125c0,1.379,1.156,2.5,2.577,2.5h25.054c1.421,0,2.577-1.121,2.577-2.5v-0.598
		c0.979,1.522,2.685,2.535,4.625,2.535c3.032,0,5.5-2.468,5.5-5.5S38.699,29.945,35.667,29.945z M30.042,39.007
		c0,0.827-0.707,1.5-1.577,1.5H3.41c-0.87,0-1.577-0.673-1.577-1.5v-6.125c0-0.827,0.708-1.5,1.577-1.5h25.054
		c0.87,0,1.577,0.673,1.577,1.5V39.007z M35.667,39.945c-2.481,0-4.5-2.019-4.5-4.5s2.019-4.5,4.5-4.5s4.5,2.019,4.5,4.5
		S38.148,39.945,35.667,39.945z"/>
</g>
</svg>
