<?xml version="1.0" encoding="utf-8"?>
<!-- Generator: Adobe Illustrator 17.0.0, SVG Export Plug-In . SVG Version: 6.00 Build 0)  -->
<!DOCTYPE svg PUBLIC "-//W3C//DTD SVG 1.1//EN" "http://www.w3.org/Graphics/SVG/1.1/DTD/svg11.dtd">
<svg version="1.1" id="Layer_1" xmlns="http://www.w3.org/2000/svg" xmlns:xlink="http://www.w3.org/1999/xlink" x="0px" y="0px"
	 width="42px" height="42px" viewBox="0 0 42 42" enable-background="new 0 0 42 42" xml:space="preserve">
<g>
	<g>
		<path fill="#333333" d="M27.578,13.675h-18c-1.654,0-3-1.346-3-3s1.346-3,3-3h18c1.654,0,3,1.346,3,3S29.233,13.675,27.578,13.675
			z M9.578,8.675c-1.103,0-2,0.897-2,2s0.897,2,2,2h18c1.103,0,2-0.897,2-2s-0.897-2-2-2H9.578z"/>
	</g>
	<path fill="#333333" d="M30.591,18.701l0.844-0.844c-0.446-1.846-1.281-3.575-2.488-5.102c-0.172-0.218-0.488-0.252-0.703-0.082
		c-0.216,0.171-0.253,0.485-0.082,0.702C29.41,14.954,30.227,16.766,30.591,18.701z M30.127,25.023
		c-1.67,4.824-6.247,8.302-11.632,8.302c-6.791,0-12.316-5.525-12.316-12.317c0-0.838,0.085-1.677,0.253-2.493
		c0.055-0.271-0.119-0.535-0.39-0.591c-0.27-0.054-0.534,0.118-0.591,0.39c-0.181,0.883-0.272,1.789-0.272,2.694
		c0,7.343,5.974,13.317,13.316,13.317c6.28,0,11.546-4.376,12.943-10.235L30.127,25.023z"/>
	<circle fill="#333333" cx="6.568" cy="16.196" r="0.5"/>
	<g>
		<path fill="#333333" d="M15.995,29.425c-0.16,0-0.318-0.077-0.415-0.22c-0.154-0.229-0.095-0.539,0.133-0.693
			c0.091-0.062,2.243-1.504,5.031-1.504c2.812,0,4.654,1.466,4.731,1.528c0.215,0.174,0.247,0.487,0.074,0.702
			c-0.172,0.213-0.486,0.248-0.702,0.076c-0.017-0.014-1.659-1.307-4.104-1.307c-2.471,0-4.45,1.317-4.47,1.331
			C16.189,29.396,16.092,29.425,15.995,29.425z"/>
	</g>
	<g>
		<path fill="#333333" d="M16.225,21.836c-1.181,0-2.142-0.96-2.142-2.141s0.961-2.142,2.142-2.142s2.141,0.961,2.141,2.142
			S17.406,21.836,16.225,21.836z M16.225,18.554c-0.63,0-1.142,0.512-1.142,1.142c0,0.629,0.512,1.141,1.142,1.141
			c0.629,0,1.141-0.512,1.141-1.141C17.366,19.065,16.854,18.554,16.225,18.554z"/>
	</g>
	<g>
		<path fill="#333333" d="M24.85,21.836c-1.181,0-2.142-0.96-2.142-2.141s0.961-2.142,2.142-2.142s2.142,0.961,2.142,2.142
			S26.031,21.836,24.85,21.836z M24.85,18.554c-0.63,0-1.142,0.512-1.142,1.142c0,0.629,0.512,1.141,1.142,1.141
			s1.142-0.512,1.142-1.141C25.992,19.065,25.48,18.554,24.85,18.554z"/>
	</g>
	<g>
		<path fill="#80007F" d="M36.107,16.249c-0.541-0.645-1.269-0.985-2.103-0.985c-0.991,0-1.813,0.481-1.848,0.502
			c-0.041,0.023-0.077,0.053-0.109,0.087l-8,8.5c-0.09,0.096-0.138,0.222-0.136,0.353l0.063,3.25
			c0.003,0.138,0.063,0.269,0.165,0.361c0.093,0.083,0.212,0.129,0.335,0.129c0.014,0,0.028-0.001,0.042-0.002l3.344-0.281
			c0.117-0.01,0.229-0.061,0.312-0.145l8.006-8.01C36.698,19.357,37.354,17.733,36.107,16.249z M35.433,19.342l-7.84,7.84
			l-1.936,0.162l8.733-8.733c0.195-0.195,0.195-0.512,0-0.707s-0.512-0.195-0.707,0l-8.734,8.734l-0.033-1.749l7.806-8.293
			c0.167-0.086,0.696-0.333,1.283-0.333c0.544,0,0.981,0.206,1.337,0.629C36.349,18.092,35.495,19.257,35.433,19.342z"/>
	</g>
</g>
</svg>
