<?xml version="1.0" encoding="utf-8"?>
<!-- Generator: Adobe Illustrator 17.0.0, SVG Export Plug-In . SVG Version: 6.00 Build 0)  -->
<!DOCTYPE svg PUBLIC "-//W3C//DTD SVG 1.1//EN" "http://www.w3.org/Graphics/SVG/1.1/DTD/svg11.dtd">
<svg version="1.1" id="Capa_1" xmlns="http://www.w3.org/2000/svg" xmlns:xlink="http://www.w3.org/1999/xlink" x="0px" y="0px"
	 width="42px" height="42px" viewBox="0 0 42 42" enable-background="new 0 0 42 42" xml:space="preserve">
<g>
	<path fill="#333333" d="M21.009,17.009c-0.877-0.033-1.7-0.41-2.305-1.061c-0.604-0.651-0.918-1.5-0.886-2.387
		c0.032-0.84,0.377-1.631,0.972-2.226c0.62-0.62,1.478-0.976,2.354-0.976l0.135,0.002c0.876,0.034,1.698,0.411,2.301,1.063
		c0.604,0.652,0.919,1.5,0.885,2.386c-0.03,0.841-0.375,1.631-0.971,2.228c-0.618,0.618-1.475,0.973-2.348,0.974L21.009,17.009z
		 M21.206,11.36c-0.664,0-1.27,0.242-1.708,0.681c-0.416,0.416-0.657,0.969-0.679,1.558c-0.024,0.618,0.195,1.211,0.619,1.669
		c0.423,0.455,0.997,0.718,1.618,0.742c0.002,0,0.004,0,0.006,0c0.696,0,1.294-0.248,1.726-0.68c0.417-0.417,0.658-0.97,0.68-1.558
		c0.023-0.621-0.196-1.214-0.619-1.669c-0.421-0.456-0.996-0.72-1.617-0.743L21.206,11.36z"/>
	<path fill="#333333" d="M18.027,26.999c-0.035,0-0.068-0.004-0.098-0.01c-0.137-0.029-0.249-0.105-0.321-0.218
		s-0.098-0.246-0.07-0.377l0.051-0.374l0.005-0.204c-0.014-0.086-0.022-0.173-0.025-0.256l-0.186-2.442l-2.246-2.688
		c-0.428-0.514-0.95-1.404-1.188-2.026l-1.924-5.045c-0.294-0.775-0.089-1.7,0.51-2.299c0.158-0.159,0.339-0.29,0.539-0.391
		l0.414-0.209c0.278-0.141,0.586-0.215,0.892-0.215c0.239,0,0.47,0.044,0.688,0.13c0.507,0.201,0.904,0.617,1.091,1.143
		c0.04,0.113,0.039,0.235-0.003,0.346c-0.068,0.243-0.477,2.028,1.17,5.285c0.308,0.521,1.971,1.957,1.988,1.971l0.147,0.126
		l4.624-0.158l0.144-0.173c0.295-0.355,0.871-1.234,1.421-3.139c0.463-1.6-0.343-4.053-0.351-4.078
		c-0.023-0.07-0.032-0.144-0.023-0.213c0.051-0.452,0.242-0.855,0.554-1.167c0.36-0.358,0.84-0.557,1.351-0.557
		c0.148,0,0.299,0.017,0.445,0.05l0.453,0.104c1.063,0.242,1.78,1.28,1.636,2.363l-0.725,5.375
		c-0.091,0.662-0.393,1.653-0.688,2.254l-1.87,3.804l-0.019,0.117l-0.158,1.972c-0.004,0.073-0.011,0.136-0.021,0.201l-0.011,0.063
		c0,0,0.013,0.149,0.012,0.189c-0.004,0.273-0.229,0.496-0.5,0.496c-0.28-0.003-0.5-0.228-0.5-0.5l-0.016-0.154
		c-0.007-0.062-0.003-0.119,0.011-0.178l0.017-0.106l0.19-2.31c0.007-0.084,0.034-0.164,0.078-0.232l0.095-0.142l1.797-3.663
		c0.251-0.51,0.518-1.383,0.593-1.945l0.726-5.374c0.073-0.558-0.324-1.132-0.866-1.255l-0.454-0.104
		c-0.072-0.017-0.146-0.025-0.219-0.025c-0.247,0-0.477,0.094-0.646,0.265c-0.082,0.087-0.14,0.169-0.183,0.262l-0.08,0.171
		l0.054,0.182c0.185,0.627,0.751,2.798,0.283,4.415c-0.951,3.285-2.051,3.915-2.173,3.976c-0.064,0.032-0.137,0.05-0.208,0.053
		l-4.917,0.167c-0.527-0.055-2.611-2.2-2.885-2.659c-1.482-2.933-1.458-4.812-1.311-5.669l0.046-0.271l-0.203-0.184
		c-0.078-0.071-0.166-0.126-0.262-0.163c-0.098-0.039-0.207-0.06-0.319-0.06c-0.15,0-0.303,0.038-0.441,0.109l-0.413,0.208
		c-0.103,0.053-0.193,0.118-0.277,0.2c-0.326,0.326-0.442,0.835-0.288,1.242l1.923,5.043c0.201,0.527,0.659,1.308,1.02,1.743
		l2.285,2.734c0.124,0.136,0.169,0.24,0.178,0.352l0.2,2.638c0.004,0.105,0.015,0.165,0.031,0.232
		c0.019,0.074,0.02,0.146,0.005,0.219c0,0-0.087,0.629-0.092,0.657C18.467,26.832,18.261,26.999,18.027,26.999z"/>
	<g>
		<path fill="none" stroke="#333333" stroke-width="2" stroke-linecap="round" stroke-linejoin="round" stroke-miterlimit="10" d="
			M21.804,31.939"/>
	</g>
	<path fill="#80007F" d="M31.148,32.24c-1.423,0-2.16-0.555-2.811-1.044c-0.617-0.464-1.149-0.863-2.267-0.863
		c-1.114,0-1.645,0.397-2.259,0.858c-0.657,0.493-1.396,1.048-2.815,1.048c-1.422,0-2.159-0.555-2.809-1.044
		c-0.621-0.465-1.151-0.862-2.266-0.862c-1.114,0-1.645,0.398-2.26,0.858c-0.655,0.493-1.393,1.048-2.814,1.048
		c-1.423,0-2.159-0.555-2.808-1.044c-0.621-0.465-1.151-0.862-2.265-0.862c-0.25,0-0.453-0.203-0.453-0.453s0.203-0.453,0.453-0.453
		c1.423,0,2.159,0.555,2.808,1.044c0.619,0.464,1.149,0.862,2.264,0.862c1.114,0,1.645-0.398,2.26-0.858
		c0.655-0.493,1.393-1.048,2.813-1.048c1.421,0,2.159,0.555,2.81,1.044c0.619,0.465,1.15,0.862,2.265,0.862
		c1.114,0,1.645-0.397,2.259-0.858c0.656-0.493,1.394-1.048,2.815-1.048s2.159,0.555,2.81,1.044
		c0.619,0.464,1.151,0.863,2.268,0.863c1.117,0,1.649-0.399,2.267-0.863c0.65-0.489,1.388-1.044,2.81-1.044
		c0.25,0,0.454,0.203,0.454,0.453s-0.203,0.453-0.453,0.453c-1.117,0-1.649,0.399-2.267,0.863
		C33.308,31.685,32.57,32.24,31.148,32.24z"/>
	<path fill="#80007F" d="M31.148,28.641c-1.422,0-2.16-0.555-2.811-1.043c-0.616-0.463-1.147-0.862-2.267-0.862
		c-1.12,0-1.651,0.399-2.266,0.862c-0.655,0.49-1.394,1.043-2.81,1.043c-1.42,0-2.159-0.555-2.81-1.043
		c-0.617-0.463-1.148-0.862-2.266-0.862c-1.119,0-1.65,0.399-2.265,0.862c-0.654,0.49-1.392,1.043-2.809,1.043
		c-1.421,0-2.158-0.555-2.809-1.043c-0.614-0.463-1.145-0.862-2.264-0.862c-0.122,0-0.235-0.047-0.321-0.134
		c-0.085-0.085-0.131-0.197-0.131-0.317c0-0.252,0.203-0.455,0.453-0.455c1.421,0,2.158,0.554,2.808,1.043
		c0.615,0.463,1.146,0.863,2.264,0.863c1.116,0,1.647-0.399,2.262-0.861c0.657-0.492,1.395-1.045,2.812-1.045
		c1.42,0,2.158,0.555,2.81,1.043c0.618,0.465,1.148,0.863,2.265,0.863c1.119,0,1.65-0.4,2.266-0.863
		c0.653-0.489,1.392-1.043,2.81-1.043c1.421,0,2.159,0.555,2.811,1.043c0.618,0.464,1.15,0.863,2.267,0.863
		c1.117,0,1.649-0.399,2.267-0.863c0.65-0.488,1.389-1.043,2.81-1.043c0.25,0,0.453,0.203,0.453,0.453s-0.203,0.453-0.453,0.453
		c-1.117,0-1.649,0.399-2.266,0.861C33.308,28.086,32.569,28.641,31.148,28.641z"/>
</g>
</svg>
