<?xml version="1.0" encoding="utf-8"?>
<!-- Generator: Adobe Illustrator 17.0.0, SVG Export Plug-In . SVG Version: 6.00 Build 0)  -->
<!DOCTYPE svg PUBLIC "-//W3C//DTD SVG 1.1//EN" "http://www.w3.org/Graphics/SVG/1.1/DTD/svg11.dtd">
<svg version="1.1" id="Capa_1" xmlns="http://www.w3.org/2000/svg" xmlns:xlink="http://www.w3.org/1999/xlink" x="0px" y="0px"
	 width="42px" height="42px" viewBox="0 0 42 42" enable-background="new 0 0 42 42" xml:space="preserve">
<g>
	<path fill="#333333" d="M14.742,34.718c0.04-1.061-0.336-2.072-1.057-2.849c-0.749-0.806-1.81-1.269-2.911-1.269
		c-1.004,0-1.963,0.376-2.699,1.06C7.297,32.38,6.847,33.36,6.807,34.42c-0.04,1.06,0.335,2.072,1.056,2.849
		c0.749,0.807,1.81,1.27,2.911,1.27c0,0,0,0,0,0c1.004,0,1.962-0.376,2.699-1.06C14.252,36.758,14.702,35.777,14.742,34.718z"/>
	<path fill="#333333" d="M31.971,15.408c-0.276-0.424-0.692-0.667-1.141-0.667c-0.408,0-0.792,0.198-1.08,0.558L26.82,18.96
		c-0.384,0.48-1.174,1.118-1.724,1.393l-2.169,1.084l1.47-1.521c0.518-0.536,1.147-1.497,1.432-2.186l1.961-4.747
		c0.337-0.816,0.089-1.92-0.565-2.513l-0.36-0.327c-0.28-0.255-0.602-0.389-0.929-0.389c-0.523,0-0.973,0.351-1.175,0.916
		l-1.787,5.014c-0.205,0.576-0.75,1.421-1.19,1.846l-3.466,3.349c-0.049,0.047-0.087,0.101-0.129,0.152
		c-0.073,0.045-0.143,0.096-0.206,0.156l-3.805,3.603c-0.05,0.011-0.099,0.014-0.149,0.031l-3.627,1.246
		c-0.548,0.188-1.335,0.612-1.793,0.963l-3.988,3.067c-0.605,0.466-0.769,1.372-0.365,2.021l0.228,0.367
		c0.246,0.395,0.663,0.632,1.113,0.632c0.303,0,0.592-0.104,0.837-0.302l2.923-2.354c0.37-0.298,1.059-0.691,1.503-0.858l1.48-0.555
		l3.039,3.276c0.019,0.02,0.041,0.034,0.06,0.053l-0.235,1.935c-0.058,0.471-0.277,1.234-0.48,1.663l-1.6,3.396
		c-0.164,0.349-0.175,0.745-0.028,1.088c0.147,0.342,0.441,0.608,0.808,0.729l0.409,0.135c0.149,0.05,0.304,0.074,0.463,0.074
		c0.605,0,1.174-0.364,1.415-0.904l2.041-4.598c0.235-0.53,0.459-1.396,0.51-1.972l0.298-3.354c0.001-0.015-0.001-0.029,0-0.043
		l3.832-4.13c0.068-0.073,0.126-0.153,0.177-0.237c0.013-0.009,0.028-0.015,0.041-0.023l3.953-2.688
		c0.608-0.414,1.444-1.188,1.903-1.761l2.929-3.662c0.555-0.693,0.611-1.819,0.127-2.564L31.971,15.408z"/>
	<path fill="#80007F" d="M37.011,5.511c-1.588,0-2.432,0.634-3.111,1.144c-0.589,0.443-1.015,0.763-1.966,0.763
		c-0.951,0-1.377-0.32-1.966-0.763c-0.679-0.51-1.524-1.144-3.111-1.144c-1.587,0-2.431,0.634-3.11,1.144
		c-0.589,0.442-1.014,0.762-1.964,0.762c-0.951,0-1.376-0.32-1.965-0.762c-0.679-0.51-1.523-1.144-3.11-1.144
		s-2.431,0.634-3.11,1.144c-0.589,0.442-1.014,0.762-1.964,0.762c-0.95,0-1.375-0.32-1.963-0.762
		c-0.678-0.51-1.522-1.144-3.109-1.144c-0.526,0-0.953,0.427-0.953,0.953s0.427,0.953,0.953,0.953c0.95,0,1.375,0.32,1.964,0.762
		c0.678,0.51,1.522,1.144,3.109,1.144c1.587,0,2.431-0.634,3.11-1.144c0.589-0.442,1.014-0.762,1.964-0.762
		c0.951,0,1.376,0.32,1.965,0.762c0.679,0.51,1.523,1.144,3.11,1.144c1.587,0,2.431-0.634,3.11-1.144
		c0.589-0.442,1.014-0.762,1.964-0.762c0.951,0,1.377,0.32,1.966,0.763c0.679,0.51,1.524,1.144,3.111,1.144
		c1.588,0,2.432-0.634,3.111-1.144c0.589-0.443,1.015-0.763,1.966-0.763c0.526,0,0.953-0.427,0.953-0.953S37.538,5.511,37.011,5.511
		z"/>
	<path fill="#80007F" d="M6.56,2.508c0.95,0,1.375,0.319,1.964,0.762c0.678,0.51,1.522,1.144,3.109,1.144
		c1.587,0,2.431-0.635,3.11-1.144c0.589-0.443,1.014-0.762,1.964-0.762c0.951,0,1.376,0.32,1.965,0.762
		c0.679,0.51,1.523,1.144,3.11,1.144c1.587,0,2.431-0.635,3.11-1.144c0.589-0.443,1.014-0.762,1.965-0.762
		c0.951,0,1.377,0.32,1.966,0.762c0.679,0.51,1.523,1.144,3.111,1.144c1.588,0,2.432-0.634,3.111-1.144
		c0.59-0.442,1.015-0.762,1.966-0.762c0.526,0,0.953-0.427,0.953-0.953s-0.427-0.953-0.953-0.953c-1.588,0-2.432,0.634-3.111,1.144
		c-0.589,0.442-1.015,0.762-1.966,0.762c-0.951,0-1.377-0.32-1.966-0.762c-0.679-0.51-1.524-1.144-3.111-1.144
		c-1.587,0-2.431,0.635-3.11,1.144c-0.589,0.443-1.014,0.762-1.965,0.762c-0.951,0-1.376-0.32-1.965-0.762
		c-0.679-0.51-1.523-1.144-3.11-1.144c-1.587,0-2.431,0.635-3.11,1.144c-0.589,0.442-1.014,0.762-1.964,0.762
		c-0.95,0-1.375-0.319-1.963-0.762C8.991,1.236,8.147,0.601,6.56,0.601c-0.526,0-0.953,0.427-0.953,0.953S6.034,2.508,6.56,2.508z"
		/>
</g>
</svg>
