<?xml version="1.0" encoding="utf-8"?>
<!-- Generator: Adobe Illustrator 17.0.0, SVG Export Plug-In . SVG Version: 6.00 Build 0)  -->
<!DOCTYPE svg PUBLIC "-//W3C//DTD SVG 1.1//EN" "http://www.w3.org/Graphics/SVG/1.1/DTD/svg11.dtd">
<svg version="1.1" id="Layer_1" xmlns="http://www.w3.org/2000/svg" xmlns:xlink="http://www.w3.org/1999/xlink" x="0px" y="0px"
	 width="42px" height="42px" viewBox="0 0 42 42" enable-background="new 0 0 42 42" xml:space="preserve">
<g>
	<g>
		<g>
			<path fill="#FFFFFF" d="M38.14,10.765h-8.794V8.614c0-2.662-2.166-4.828-4.828-4.828h-7.037c-2.662,0-4.828,2.166-4.828,4.828
				v2.151H3.86c-1.874,0-3.399,1.525-3.399,3.399v20.65c0,1.874,1.525,3.399,3.399,3.399H38.14c1.874,0,3.399-1.525,3.399-3.399
				v-20.65C41.539,12.29,40.015,10.765,38.14,10.765z M14.29,8.614c0-1.76,1.432-3.191,3.191-3.191h7.037
				c1.76,0,3.191,1.432,3.191,3.191v2.151H14.29V8.614z M39.903,34.815c0,0.972-0.791,1.762-1.762,1.762H3.86
				c-0.972,0-1.762-0.791-1.762-1.762v-20.65c0-0.972,0.791-1.762,1.762-1.762H38.14c0.972,0,1.762,0.791,1.762,1.762L39.903,34.815
				L39.903,34.815z"/>
		</g>
	</g>
	<g>
		<g>
			<path fill="#FFFFFF" d="M30.083,20.617h-5.099v-5.099c0-0.452-0.366-0.818-0.818-0.818h-6.331c-0.452,0-0.818,0.366-0.818,0.818
				v5.099h-5.1c-0.452,0-0.818,0.366-0.818,0.818v6.331c0,0.452,0.366,0.818,0.818,0.818h5.099v5.1c0,0.452,0.366,0.818,0.818,0.818
				h6.331c0.452,0,0.818-0.366,0.818-0.818v-5.099h5.1c0.452,0,0.818-0.366,0.818-0.818v-6.331
				C30.901,20.983,30.535,20.617,30.083,20.617z M29.265,26.948h-5.099c-0.452,0-0.818,0.366-0.818,0.818v5.099h-4.694v-5.099
				c0-0.452-0.366-0.818-0.818-0.818h-5.1v-4.694h5.099c0.452,0,0.818-0.366,0.818-0.818v-5.1h4.694v5.099
				c0,0.452,0.366,0.818,0.818,0.818h5.1C29.265,22.254,29.265,26.948,29.265,26.948z"/>
		</g>
	</g>
	<g>
		<g>
			<path fill="#FFFFFF" d="M13.226,13.472H7.498c-0.452,0-0.818,0.366-0.818,0.818c0,0.452,0.366,0.818,0.818,0.818h5.728
				c0.452,0,0.818-0.366,0.818-0.818C14.044,13.838,13.678,13.472,13.226,13.472z"/>
		</g>
	</g>
	<g>
		<g>
			<path fill="#FFFFFF" d="M4.634,13.472H4.225c-0.452,0-0.818,0.366-0.818,0.818c0,0.452,0.366,0.818,0.818,0.818h0.409
				c0.452,0,0.818-0.366,0.818-0.818C5.452,13.838,5.086,13.472,4.634,13.472z"/>
		</g>
	</g>
</g>
</svg>
