<?xml version="1.0" encoding="utf-8"?>
<!-- Generator: Adobe Illustrator 17.0.0, SVG Export Plug-In . SVG Version: 6.00 Build 0)  -->
<!DOCTYPE svg PUBLIC "-//W3C//DTD SVG 1.1 Tiny//EN" "http://www.w3.org/Graphics/SVG/1.1/DTD/svg11-tiny.dtd">
<svg version="1.1" baseProfile="tiny" id="Layer_1" xmlns="http://www.w3.org/2000/svg" xmlns:xlink="http://www.w3.org/1999/xlink"
	 x="0px" y="0px" width="42px" height="42px" viewBox="0 0 42 42" overflow="scroll" xml:space="preserve">
<g>
	<path fill="#80007F" d="M18.423,23.503c-0.084,0-0.163-0.023-0.233-0.07c-0.095-0.062-0.16-0.158-0.183-0.269
		c-0.023-0.112-0.001-0.225,0.061-0.319l2.413-3.674V6.937c0-0.234,0.191-0.426,0.426-0.426c0.234,0,0.426,0.191,0.426,0.426v11.889
		l2.417,3.798c0.062,0.096,0.081,0.21,0.057,0.321c-0.025,0.111-0.091,0.205-0.187,0.266c-0.069,0.044-0.149,0.067-0.23,0.067l0,0
		c-0.146,0-0.28-0.073-0.358-0.196l-1.629-2.56l-0.359,0.129c-0.039,0.014-0.096,0.033-0.136,0.033
		c0.021-0.006-0.014-0.014-0.049-0.02l-0.305-0.049L18.78,23.31C18.701,23.431,18.567,23.503,18.423,23.503z"/>
	<path fill="#111111" d="M27.313,35.489c-2.63-0.241-3.633-2.104-3.802-3.055l-0.028-0.158l0.007-20.185l1.461,0.146
		c13.226,1.322,14.366,12.02,14.376,12.129l0.006,6.638c0.197,2.928-1.938,4.19-3.094,4.453l-0.144,0.033H27.313z M24.342,32.202
		c0.136,0.813,0.929,2.243,3.008,2.433l8.646,0.002l0.052-0.012c0.924-0.21,2.619-1.23,2.43-3.593l0.002-6.555
		c-0.01-0.141-1.004-10.132-13.613-11.393l-0.525-0.053V32.202z M5.907,35.489l-0.145-0.033c-1.156-0.263-3.291-1.525-3.095-4.42
		l0.001-6.636c0.014-0.143,1.155-10.841,14.381-12.163l1.461-0.146v20.269l-0.02,0.073c-0.168,0.952-1.172,2.814-3.764,3.05
		l-0.039,0.006H5.907z M17.133,13.084C4.525,14.345,3.53,24.335,3.521,24.437L3.519,31.07c-0.187,2.324,1.508,3.345,2.431,3.555
		l0.052,0.012h8.603c2.123-0.19,2.916-1.621,3.045-2.352l0.007-19.254L17.133,13.084z"/>
	<circle fill="#80007F" cx="14.331" cy="18.305" r="0.875"/>
	<circle fill="#80007F" cx="14.489" cy="23.793" r="0.875"/>
	<circle fill="#80007F" cx="8.047" cy="23.156" r="0.875"/>
	<circle fill="#80007F" cx="6.218" cy="28.009" r="0.875"/>
	<circle fill="#80007F" cx="13.694" cy="31.508" r="0.875"/>
	<circle fill="#80007F" cx="27.136" cy="18.703" r="0.875"/>
	<circle fill="#80007F" cx="33.022" cy="21.884" r="0.875"/>
	<circle fill="#80007F" cx="28.25" cy="29.36" r="0.875"/>
	<circle fill="#80007F" cx="34.613" cy="31.349" r="0.875"/>
	<circle fill="#80007F" cx="28.409" cy="23.633" r="0.875"/>
	<circle fill="#80007F" cx="33.34" cy="26.1" r="0.875"/>
	<circle fill="#80007F" cx="10.274" cy="30.076" r="0.875"/>
</g>
</svg>
