<?xml version="1.0" encoding="utf-8"?>
<!-- Generator: Adobe Illustrator 17.0.0, SVG Export Plug-In . SVG Version: 6.00 Build 0)  -->
<!DOCTYPE svg PUBLIC "-//W3C//DTD SVG 1.1 Tiny//EN" "http://www.w3.org/Graphics/SVG/1.1/DTD/svg11-tiny.dtd">
<svg version="1.1" baseProfile="tiny" id="Layer_1" xmlns="http://www.w3.org/2000/svg" xmlns:xlink="http://www.w3.org/1999/xlink"
	 x="0px" y="0px" width="42px" height="42px" viewBox="0 0 42 42" overflow="scroll" xml:space="preserve">
<path fill="#333333" d="M33.532,33.141h-1.418V18.27h0.72c0.142,0,0.277-0.061,0.372-0.166s0.141-0.247,0.125-0.388
	c-0.006-0.054-0.652-5.426-6.431-6.901c-1.454-0.318-2.631-1.098-3.04-1.752h0.202c0.827,0,1.5-0.673,1.5-1.5V3.688
	c0-0.827-0.673-1.5-1.5-1.5h-6.188c-0.827,0-1.5,0.673-1.5,1.5v3.875c0,0.827,0.673,1.5,1.5,1.5h0.14
	c-0.409,0.654-1.589,1.434-3.058,1.756c-5.76,1.472-6.408,6.843-6.414,6.897c-0.015,0.141,0.03,0.282,0.125,0.388
	c0.095,0.105,0.23,0.166,0.372,0.166h0.72v14.871H8.812c-0.276,0-0.5,0.225-0.5,0.5c0,2.502,2.043,5.523,4.58,5.523h16.561
	c2.537,0,4.58-3.021,4.58-5.523C34.032,33.365,33.808,33.141,33.532,33.141z M17.375,7.563V3.688c0-0.276,0.224-0.5,0.5-0.5h6.188
	c0.275,0,0.5,0.224,0.5,0.5v3.875c0,0.276-0.225,0.5-0.5,0.5h-6.188C17.599,8.063,17.375,7.838,17.375,7.563z M9.648,17.27
	c0.322-1.288,1.511-4.449,5.54-5.479c1.732-0.379,3.517-1.439,3.912-2.673h3.676c0.396,1.233,2.178,2.293,3.895,2.669
	c4.083,1.043,5.25,4.191,5.562,5.482h-0.617c-0.276,0-0.5,0.224-0.5,0.5v15.362H10.761V17.77c0-0.276-0.224-0.5-0.5-0.5H9.648z
	 M32.873,34.771c-0.451,1.668-1.854,3.393-3.421,3.393h-16.56c-1.567,0-2.97-1.726-3.421-3.393L9.3,34.141h23.744L32.873,34.771z"/>
<g>
	<g>
		<path fill="#80007F" d="M25.822,20.693c-0.205-0.128-0.46-0.137-0.675-0.03l-2.774,1.387c-0.235,0.118-0.383,0.358-0.383,0.62
			c0,1.147,0.933,2.081,2.081,2.081s2.081-0.933,2.081-2.081v-1.387C26.151,21.043,26.026,20.82,25.822,20.693z M24.764,22.67
			c0,0.383-0.311,0.694-0.694,0.694c-0.245,0-0.461-0.127-0.584-0.32l1.277-0.639L24.764,22.67L24.764,22.67z"/>
		<path fill="#80007F" d="M24.071,24.251c-0.872,0-1.581-0.709-1.581-1.581c0-0.073,0.041-0.14,0.107-0.173l2.773-1.387
			c0.05-0.008,0.085-0.012,0.111-0.012c0.039,0,0.058,0.008,0.075,0.019c0.059,0.036,0.095,0.101,0.095,0.168v1.385
			C25.652,23.542,24.943,24.251,24.071,24.251z M22.767,22.845l0.298,0.468c0.22,0.346,0.596,0.552,1.006,0.552
			c0.658,0,1.193-0.536,1.193-1.194l-0.004-1.072L22.767,22.845z"/>
	</g>
</g>
<path fill="#80007F" d="M20.219,22.05l-2.774-1.387c-0.215-0.106-0.47-0.096-0.675,0.03s-0.329,0.349-0.329,0.59v1.387
	c0,1.147,0.933,2.081,2.081,2.081s2.081-0.933,2.081-2.081C20.603,22.407,20.454,22.168,20.219,22.05z M18.522,23.364
	c-0.383,0-0.694-0.311-0.694-0.694v-0.265l1.277,0.639C18.983,23.236,18.767,23.364,18.522,23.364z"/>
<path fill="#80007F" d="M18.522,24.251c-0.872,0-1.581-0.709-1.581-1.581v-1.387c0-0.068,0.034-0.129,0.091-0.164
	c0.03-0.019,0.065-0.029,0.102-0.029l2.862,1.407c0.066,0.033,0.107,0.1,0.107,0.173C20.103,23.542,19.394,24.251,18.522,24.251z
	 M17.328,22.67c0,0.658,0.536,1.194,1.194,1.194c0.41,0,0.786-0.206,1.005-0.553l0.296-0.467l-2.496-1.249V22.67z"/>
<path fill="#80007F" d="M28.872,21.824c-0.321-3.148-3.332-6.52-7.302-6.52c-0.114,0-0.229,0.003-0.32,0.008
	c-3.963,0-7.3,3.188-7.438,7.125c0,3.033,1.897,4.303,2.688,4.7V29l0.045,0.207c0.134,0.295,0.714,0.98,3.205,0.98l3.546-0.007
	c0,0,0.199,0.034,0.491,0.034c1.266,0,2.114-0.588,2.327-1.613l0.011-1.522C26.888,26.537,29.163,24.668,28.872,21.824z
	 M25.363,26.387l-0.238,0.146v1.91c-0.129,0.512-0.578,0.771-1.338,0.771c-0.188,0-0.319-0.019-0.412-0.027h-0.188v-2.563
	c0-0.276-0.224-0.5-0.5-0.5s-0.5,0.224-0.5,0.5v2.563h-1.813v-2.563c0-0.276-0.224-0.5-0.5-0.5s-0.5,0.224-0.5,0.5v2.554
	c-1.248-0.042-1.737-0.282-1.875-0.363l-0.002-2.355l-0.331-0.119c-0.096-0.034-2.354-0.883-2.355-3.886
	c0.119-3.387,3.007-6.143,6.462-6.143c3.579-0.181,6.318,2.821,6.604,5.614C28.153,24.631,25.391,26.369,25.363,26.387z"/>
</svg>
