<?xml version="1.0" encoding="utf-8"?>
<!-- Generator: Adobe Illustrator 17.0.0, SVG Export Plug-In . SVG Version: 6.00 Build 0)  -->
<!DOCTYPE svg PUBLIC "-//W3C//DTD SVG 1.1//EN" "http://www.w3.org/Graphics/SVG/1.1/DTD/svg11.dtd">
<svg version="1.1" xmlns="http://www.w3.org/2000/svg" xmlns:xlink="http://www.w3.org/1999/xlink" x="0px" y="0px" width="42px"
	 height="42px" viewBox="0 0 42 42" enable-background="new 0 0 42 42" xml:space="preserve">
<g id="Capa_1" display="none">
	<g display="inline">
		<g id="Pencil_1_">
			<g>
				<path fill="#FFFFFF" d="M116.669,53.861c0.002-1.569-0.611-3.046-1.72-4.156s-2.584-1.722-4.154-1.721l-24.921-0.072
					c-0.148-0.001-0.293,0.031-0.426,0.093l-10.607,4.95c-0.342,0.16-0.567,0.502-0.577,0.881c-0.007,0.279,0.102,0.542,0.293,0.733
					c0.069,0.069,0.148,0.129,0.238,0.176l9.193,4.877c0.144,0.077,0.305,0.117,0.468,0.117h26.334
					c1.57,0.002,3.048-0.611,4.158-1.721C116.058,56.908,116.671,55.433,116.669,53.861z M84.406,57.58l-3.442-1.824
					c0.297-0.604,0.457-1.242,0.457-1.894c-0.001-0.566-0.111-1.114-0.279-1.638l4.518-2.109l1.626,1.626l-1.414,1.414
					c-0.391,0.391-0.391,1.023,0,1.414l1.248,1.248L84.406,57.58z M105.063,57.739H87.832l1.412-0.917
					c0.253-0.165,0.418-0.435,0.449-0.735c0.032-0.301-0.074-0.598-0.286-0.811l-1.414-1.414l1.414-1.414
					c0.39-0.39,0.39-1.024,0-1.414l-1.116-1.116l16.771,0.048l0.001,0.016c1.036-0.001,2.01,0.404,2.742,1.136
					c0.732,0.732,1.137,1.707,1.136,2.742c-0.001,1.035-0.402,2.012-1.135,2.744C107.074,57.337,106.101,57.74,105.063,57.739z
					 M110.791,57.739l-1.319,0.001c0.947-1.074,1.469-2.435,1.47-3.878c0.001-1.445-0.523-2.806-1.474-3.882l1.322,0.005h0.003
					c1.034-0.002,2.009,0.402,2.741,1.135c0.733,0.733,1.136,1.706,1.135,2.741c0.001,1.037-0.402,2.012-1.134,2.744
					C112.802,57.338,111.829,57.742,110.791,57.739z M106.378,52.862l-14.142,0c-0.553,0-1,0.447-1,1
					c-0.001,0.275,0.112,0.526,0.293,0.707c0.181,0.181,0.431,0.292,0.707,0.293h14.142c0.553,0,1-0.447,1-1
					C107.377,53.309,106.931,52.862,106.378,52.862z"/>
			</g>
		</g>
	</g>
	
		<image display="inline" overflow="visible" width="214" height="236" xlink:href="CFED6287.jpg"  transform="matrix(0.1809 0 0 0.1547 1.584 1.9101)">
	</image>
	
		<line display="inline" fill="none" stroke="#FF48AC" stroke-width="2" stroke-miterlimit="10" x1="88.553" y1="48.99" x2="107.668" y2="48.99"/>
</g>
<g id="Layer_2">
	<g>
		<path fill="#FFFFFF" d="M20.843,11.323H4.199c-0.553,0-1-0.448-1-1s0.447-1,1-1h16.644c0.553,0,1,0.448,1,1
			S21.396,11.323,20.843,11.323z"/>
		<path fill="#FFFFFF" d="M20.939,38.379h-5.991c-3.578-0.033-4.806-3.072-4.957-4.675L7.48,10.43
			c-0.06-0.549,0.338-1.042,0.887-1.102c0.555-0.06,1.042,0.339,1.102,0.887l2.513,23.288c0.031,0.3,0.375,2.853,2.976,2.876h5.982
			c0.553,0,1,0.447,1,1S21.492,38.379,20.939,38.379z"/>
		<path fill="#FFFFFF" d="M20.95,33.698c-0.553,0-1-0.447-1-1V15.076c0-0.552,0.447-1,1-1s1,0.448,1,1v17.623
			C21.95,33.251,21.503,33.698,20.95,33.698z"/>
		<path fill="#FFFFFF" d="M16.041,33.698c-0.527,0-0.969-0.413-0.998-0.946L14.1,15.129c-0.029-0.551,0.395-1.022,0.945-1.052
			c0.547-0.029,1.022,0.393,1.053,0.945l0.943,17.622c0.029,0.552-0.395,1.022-0.945,1.053
			C16.077,33.698,16.06,33.698,16.041,33.698z"/>
		<path fill="#FFFFFF" d="M21.02,5.627h-4.388c-1.05-0.039-1.777,0.152-2.159,0.55c-0.335,0.351-0.328,0.803-0.327,0.807
			l0.003,3.339c0,0.552-0.447,1-1,1s-1-0.448-1-1V7.065c-0.008-0.055-0.076-1.272,0.88-2.271c0.799-0.835,2.015-1.229,3.642-1.166
			l4.35,0"/>
		<path fill="#FFFFFF" d="M37.801,11.323H21.157c-0.553,0-1-0.448-1-1s0.447-1,1-1h16.644c0.553,0,1,0.448,1,1
			S38.354,11.323,37.801,11.323z"/>
		<path fill="#FFFFFF" d="M21.061,38.379c-0.553,0-1-0.447-1-1s0.447-1,1-1h5.99c2.593-0.023,2.937-2.576,2.967-2.867l2.514-23.296
			c0.059-0.549,0.544-0.953,1.102-0.887c0.549,0.059,0.946,0.552,0.887,1.102l-2.513,23.288c-0.149,1.589-1.377,4.628-4.947,4.661
			H21.061z"/>
		<path fill="#FFFFFF" d="M25.959,33.698c-0.019,0-0.036,0-0.055-0.001c-0.551-0.03-0.975-0.501-0.945-1.053l0.942-17.622
			c0.03-0.553,0.51-0.973,1.053-0.945c0.551,0.029,0.975,0.5,0.945,1.052l-0.942,17.623C26.928,33.285,26.486,33.698,25.959,33.698z
			"/>
		<path fill="#FFFFFF" d="M20.979,3.627h4.389c1.591-0.056,2.804,0.333,3.603,1.167c0.956,0.999,0.888,2.217,0.877,2.353
			l0.003,3.177c0,0.552-0.447,1-1,1s-1-0.448-1-1V7.065c0.003-0.082,0.017-0.547-0.342-0.906c-0.386-0.386-1.122-0.577-2.103-0.533
			l-4.427,0"/>
	</g>
</g>
</svg>
