<?xml version="1.0" encoding="utf-8"?>
<!-- Generator: Adobe Illustrator 17.0.0, SVG Export Plug-In . SVG Version: 6.00 Build 0)  -->
<!DOCTYPE svg PUBLIC "-//W3C//DTD SVG 1.1//EN" "http://www.w3.org/Graphics/SVG/1.1/DTD/svg11.dtd">
<svg version="1.1" id="Capa_1" xmlns="http://www.w3.org/2000/svg" xmlns:xlink="http://www.w3.org/1999/xlink" x="0px" y="0px"
	 width="42px" height="42px" viewBox="0 0 42 42" enable-background="new 0 0 42 42" xml:space="preserve">
<g>
	<g id="Pencil_1_">
		<g>
			<path fill="#FFFFFF" d="M38.533,3.573c-1.11-1.109-2.589-1.717-4.158-1.714s-3.044,0.616-4.151,1.728L13.995,19.772
				c-0.105,0.104-0.185,0.229-0.234,0.367L9.78,31.147c-0.128,0.355-0.045,0.756,0.217,1.031c0.192,0.202,0.456,0.31,0.727,0.31
				c0.098,0,0.196-0.014,0.293-0.045l9.943-3.07c0.156-0.047,0.298-0.134,0.414-0.249l17.175-17.238
				c1.11-1.111,1.718-2.59,1.715-4.16C40.261,6.156,39.648,4.681,38.533,3.573z M19.807,27.635l-3.722,1.151
				c-0.218-0.637-0.557-1.2-1.019-1.66c-0.402-0.398-0.867-0.707-1.358-0.959l1.695-4.689l2.3-0.004l0.004,2
				c0.001,0.553,0.449,0.999,1.002,0.998l1.765-0.003L19.807,27.635z M33.089,14.532l-10.75,10.789l0.347-1.648
				c0.061-0.296-0.013-0.603-0.204-0.837c-0.19-0.235-0.476-0.37-0.777-0.37l-2,0.004l-0.004-2c-0.001-0.552-0.45-0.999-1.002-0.998
				l-1.578,0.003l10.46-10.43l0.012,0.011c0.731-0.734,1.705-1.139,2.74-1.141s2.012,0.399,2.744,1.131s1.141,1.705,1.143,2.741
				C34.223,12.823,33.822,13.797,33.089,14.532z M37.132,10.474l-0.93,0.935c-0.093-1.429-0.688-2.76-1.71-3.779
				c-1.023-1.02-2.357-1.61-3.79-1.696l0.936-0.933l0.002-0.002c0.729-0.734,1.703-1.139,2.739-1.141
				c1.036-0.002,2.011,0.399,2.743,1.131c0.735,0.732,1.141,1.705,1.143,2.74C38.267,8.766,37.866,9.741,37.132,10.474z
				 M30.562,10.158l-8.57,8.601c-0.39,0.392-0.389,1.024,0.003,1.414c0.194,0.195,0.452,0.292,0.708,0.292
				c0.256,0,0.511-0.099,0.706-0.294l8.57-8.601c0.39-0.392,0.389-1.024-0.003-1.414C31.583,9.765,30.952,9.766,30.562,10.158z"/>
		</g>
	</g>
</g>
<polygon fill="#FFFFFF" points="30.509,38.977 3.015,38.977 3.015,10.84 14.833,10.84 14.833,12.84 5.015,12.84 5.015,36.977 
	28.509,36.977 28.509,27.158 30.509,27.158 "/>
</svg>
