<?xml version="1.0" encoding="utf-8"?>
<!-- Generator: Adobe Illustrator 17.0.0, SVG Export Plug-In . SVG Version: 6.00 Build 0)  -->
<!DOCTYPE svg PUBLIC "-//W3C//DTD SVG 1.1//EN" "http://www.w3.org/Graphics/SVG/1.1/DTD/svg11.dtd">
<svg version="1.1" id="Capa_1" xmlns="http://www.w3.org/2000/svg" xmlns:xlink="http://www.w3.org/1999/xlink" x="0px" y="0px"
	 width="42px" height="42px" viewBox="0 0 42 42" enable-background="new 0 0 42 42" xml:space="preserve">
<g>
	<g id="Pencil">
		<g>
			<path fill="#FFFFFF" d="M35.276,5.722C34.168,4.611,32.69,4,31.121,4c-1.569,0-3.045,0.61-4.154,1.72L9.294,23.291
				c-0.105,0.104-0.185,0.229-0.235,0.367l-4,11c-0.129,0.355-0.046,0.756,0.215,1.031C5.466,35.891,5.729,36,6,36
				c0.098,0,0.196-0.014,0.293-0.044l9.949-3.052c0.156-0.047,0.298-0.133,0.414-0.248l18.621-18.621
				C36.389,12.926,37,11.448,37,9.878C36.999,8.309,36.389,6.832,35.276,5.722z M15.092,31.165l-3.724,1.144
				c-0.217-0.637-0.555-1.201-1.016-1.662c-0.401-0.399-0.866-0.709-1.356-0.961L10.7,25H13v2c0,0.553,0.447,1,1,1h1.765
				L15.092,31.165z M29.812,16.671L17.628,28.855l0.35-1.647c0.062-0.296-0.012-0.603-0.202-0.837C17.586,26.136,17.301,26,17,26h-2
				v-2c0-0.552-0.448-1-1-1h-1.578l11.893-11.825l0.012,0.011c0.732-0.733,1.707-1.136,2.742-1.136s2.011,0.403,2.742,1.136
				c0.731,0.733,1.138,1.707,1.138,2.743C30.949,14.965,30.546,15.938,29.812,16.671z M33.862,12.621l-0.932,0.933
				c-0.09-1.429-0.683-2.761-1.703-3.782c-1.021-1.022-2.354-1.614-3.787-1.703l0.938-0.931l0.002-0.002
				C29.11,6.403,30.085,6,31.121,6s2.01,0.403,2.741,1.136C34.596,7.869,35,8.843,35,9.878C35,10.915,34.598,11.889,33.862,12.621z
				 M27.293,12.293l-10,10c-0.391,0.391-0.391,1.023,0,1.414C17.487,23.902,17.744,24,18,24s0.511-0.098,0.707-0.293l10-10
				c0.391-0.391,0.391-1.023,0-1.414C28.315,11.902,27.684,11.902,27.293,12.293z"/>
		</g>
	</g>
</g>
</svg>
