<?xml version="1.0" encoding="utf-8"?>
<!-- Generator: Adobe Illustrator 17.0.0, SVG Export Plug-In . SVG Version: 6.00 Build 0)  -->
<!DOCTYPE svg PUBLIC "-//W3C//DTD SVG 1.1//EN" "http://www.w3.org/Graphics/SVG/1.1/DTD/svg11.dtd">
<svg version="1.1" id="Layer_1" xmlns="http://www.w3.org/2000/svg" xmlns:xlink="http://www.w3.org/1999/xlink" x="0px" y="0px"
	 width="42px" height="42px" viewBox="0 0 42 42" enable-background="new 0 0 42 42" xml:space="preserve">
<g>
	<path fill="#FFFFFF" d="M28.662,36.463c-1.806,0-3.275-1.47-3.275-3.275s1.47-3.275,3.275-3.275s3.275,1.47,3.275,3.275
		S30.468,36.463,28.662,36.463z M28.662,30.912c-1.255,0-2.275,1.021-2.275,2.275c0,1.254,1.021,2.275,2.275,2.275
		s2.275-1.021,2.275-2.275S29.917,30.912,28.662,30.912z"/>
</g>
<g>
	<path fill="#FFFFFF" d="M18.35,12.463c-2.219,0-4.025-1.806-4.025-4.025s1.806-4.025,4.025-4.025s4.025,1.806,4.025,4.025
		S20.569,12.463,18.35,12.463z M18.35,5.641c-1.542,0-2.796,1.254-2.796,2.796s1.254,2.796,2.796,2.796s2.796-1.254,2.796-2.796
		S19.892,5.641,18.35,5.641z"/>
</g>
<g>
	<path fill="#FFFFFF" d="M14.436,37.103c-0.88,0.001-3.021-0.125-3.898-1.292c-0.359-0.477-0.451-1.064-0.268-1.699l0.046-0.109
		c1.978-3.461,3.833-6.281,4.247-6.903V16.886c-0.128,0.037-0.238,0.105-0.331,0.203c-0.201,0.214-0.426,0.692-0.358,1.754
		l0.043,0.64c0.134,1.961,0.23,3.378-0.452,4.107c-0.401,0.432-0.99,0.547-1.784,0.329l-0.329-0.09l-0.037-0.339
		c0,0-0.688-6.316-0.75-6.941c-0.093-0.934,0.394-2.145,4.551-4.665l0.111-0.067l0.13-0.004c0,0,0.95-0.035,2.08-0.035
		c3.426,0,3.772,0.308,3.958,0.474c0.133,0.153,1.924,2.391,2.15,5.154c1.193,0.789,4.899,3.421,4.509,5.439
		c-0.087,0.45-0.409,0.729-0.841,0.729c-0.595,0-1.341-0.525-2.508-1.383c-0.873-0.642-2.068-1.521-2.635-1.521
		c-0.085,0-0.105,0.022-0.117,0.034c-0.028,0.03-0.17,0.213-0.141,0.899c0.166,1.235,0.301,1.702,0.352,1.846
		c0.474,0.439,2.711,2.645,2.458,4.856c-0.208,1.819-0.869,4.682-1.11,5.696c0.638,0.396,1.861,1.314,1.6,2.424l-0.076,0.326
		l-0.331,0.054c-0.047,0.007-1.16,0.184-2.3,0.184c-1.248,0-2.052-0.213-2.458-0.65c-0.938-1.01-0.63-2.655-0.363-3.546l0.049-0.154
		c0.268-0.819,1.063-3.254-0.747-6.945c-0.019,0.146-0.036,0.302-0.052,0.444c-0.149,1.327-0.4,3.549-1.838,5.135
		c-1.107,1.513-1.44,2.226-1.541,2.515c0.542,0.316,1.691,1.088,1.859,1.87c0.06,0.279,0.004,0.545-0.163,0.767
		C16.678,37.054,14.953,37.103,14.436,37.103z M11.216,34.442c-0.102,0.406,0.019,0.631,0.121,0.767
		c0.409,0.543,1.625,0.895,3.099,0.894c1.106,0,1.807-0.196,1.937-0.302c-0.06-0.18-0.857-0.847-1.677-1.301
		c-0.46-0.372-0.53-1.054,1.526-3.858c1.254-1.387,1.473-3.329,1.618-4.614c0.115-1.019,0.198-1.754,0.883-1.754
		c0.333,0,0.591,0.245,0.779,0.46l0.065,0.096c1.504,2.846,1.847,5.578,1.017,8.12l-0.042,0.132
		c-0.166,0.553-0.484,1.909,0.137,2.579c0.051,0.055,0.375,0.33,1.726,0.33c0.63,0,1.265-0.06,1.678-0.109
		c-0.203-0.416-0.851-0.915-1.374-1.187l-0.35-0.182l0.094-0.382c0.009-0.038,0.933-3.808,1.176-5.938
		c0.181-1.582-1.533-3.473-2.208-4.068L21.35,24.05c-0.176-0.235-0.356-1.028-0.533-2.358c-0.036-0.817,0.101-1.352,0.415-1.679
		c0.214-0.224,0.505-0.342,0.839-0.342c0.895,0,2.08,0.872,3.228,1.715c0.567,0.417,1.39,1.021,1.781,1.16
		c0.014-1.162-2.452-3.262-4.286-4.438l-0.218-0.14l-0.012-0.259c-0.105-2.312-1.551-4.326-1.839-4.706
		c-0.145-0.055-0.792-0.226-3.288-0.226c-0.864,0-1.621,0.021-1.914,0.03c-2.706,1.651-4.039,2.876-3.962,3.642
		c0.053,0.534,0.563,5.217,0.71,6.569c0.274,0.025,0.404-0.047,0.465-0.111c0.385-0.412,0.283-1.909,0.184-3.356l-0.043-0.645
		c-0.073-1.139,0.138-1.98,0.627-2.501c0.334-0.357,0.8-0.553,1.311-0.553c0.197,0,0.336,0.03,0.362,0.036l0.386,0.09v11.424
		l-0.085,0.127C15.457,27.56,13.418,30.594,11.216,34.442z"/>
</g>
</svg>
