<?xml version="1.0" encoding="utf-8"?>
<!-- Generator: Adobe Illustrator 17.0.0, SVG Export Plug-In . SVG Version: 6.00 Build 0)  -->
<!DOCTYPE svg PUBLIC "-//W3C//DTD SVG 1.1//EN" "http://www.w3.org/Graphics/SVG/1.1/DTD/svg11.dtd">
<svg version="1.1" id="Layer_1" xmlns="http://www.w3.org/2000/svg" xmlns:xlink="http://www.w3.org/1999/xlink" x="0px" y="0px"
	 width="42px" height="42px" viewBox="0 0 42 42" enable-background="new 0 0 42 42" xml:space="preserve">
<g>
	<path fill="#FFFFFF" d="M21,0.954C9.946,0.954,0.954,9.946,0.954,21c0,11.053,8.993,20.046,20.046,20.046S41.046,32.053,41.046,21
		C41.046,9.946,32.053,0.954,21,0.954L21,0.954z M21,38.319C11.45,38.319,3.681,30.55,3.681,21S11.45,3.681,21,3.681
		S38.319,11.45,38.319,21S30.55,38.319,21,38.319L21,38.319z"/>
	<path fill="#FFFFFF" d="M14.728,11.794c0.243,0,0.49-0.065,0.712-0.202c0.808-0.496,1.414-0.713,1.435-0.721
		c0.711-0.243,1.091-1.015,0.85-1.727c-0.241-0.713-1.015-1.096-1.729-0.854c-0.089,0.03-0.902,0.314-1.983,0.978
		c-0.641,0.394-0.843,1.234-0.448,1.876C13.821,11.564,14.269,11.794,14.728,11.794L14.728,11.794z"/>
	<path fill="#FFFFFF" d="M13.018,11.593c-0.567-0.495-1.428-0.437-1.924,0.13c-0.923,1.057-1.639,2.252-2.129,3.554
		C8.7,15.983,9.057,16.77,9.762,17.035c0.158,0.059,0.32,0.088,0.48,0.088c0.552,0,1.071-0.337,1.277-0.884
		c0.374-0.995,0.923-1.911,1.631-2.721C13.644,12.951,13.586,12.089,13.018,11.593L13.018,11.593z"/>
	<path fill="#FFFFFF" d="M10.918,19.169c0.042-0.752-0.533-1.396-1.285-1.439c-0.749-0.04-1.396,0.533-1.439,1.285
		c-0.038,0.677-0.028,1.382,0.029,2.095c0.058,0.714,0.655,1.254,1.358,1.254c0.037,0,0.074-0.002,0.111-0.005
		c0.751-0.061,1.31-0.718,1.25-1.469C10.894,20.301,10.886,19.722,10.918,19.169L10.918,19.169z"/>
	<path fill="#FFFFFF" d="M18.551,31.768c-0.913-0.235-1.481-0.504-1.503-0.514c-0.775-0.379-1.713-0.061-2.095,0.714
		c-0.384,0.776-0.065,1.717,0.711,2.101c0.084,0.042,0.862,0.418,2.106,0.738c0.131,0.034,0.262,0.049,0.391,0.049
		c0.699,0,1.336-0.47,1.518-1.178C19.895,32.839,19.39,31.984,18.551,31.768L18.551,31.768z"/>
	<path fill="#FFFFFF" d="M24.972,31.451c-0.769,0.301-1.577,0.503-2.404,0.602c-0.86,0.103-1.474,0.884-1.37,1.744
		c0.096,0.796,0.772,1.381,1.555,1.381c0.063,0,0.125-0.004,0.188-0.011c1.09-0.131,2.157-0.398,3.172-0.795
		c0.807-0.315,1.205-1.225,0.89-2.031C26.688,31.534,25.779,31.136,24.972,31.451L24.972,31.451z"/>
	<path fill="#FFFFFF" d="M31.768,27.87c-0.66-0.561-1.649-0.481-2.211,0.179c-0.38,0.448-0.78,0.865-1.188,1.24
		c-0.637,0.587-0.678,1.579-0.092,2.216c0.309,0.336,0.731,0.506,1.154,0.506c0.38,0,0.76-0.137,1.062-0.415
		c0.501-0.462,0.99-0.972,1.453-1.515C32.507,29.421,32.427,28.431,31.768,27.87L31.768,27.87z"/>
	<path fill="#FFFFFF" d="M15.272,26.342c0.648-0.939,1.338-1.668,2.11-2.229c0.609-0.443,0.744-1.296,0.301-1.905
		c-0.442-0.61-1.295-0.744-1.904-0.302c-1.026,0.745-1.925,1.689-2.752,2.886c-0.428,0.62-0.272,1.469,0.347,1.897
		c0.237,0.163,0.507,0.242,0.774,0.242C14.581,26.93,15.007,26.725,15.272,26.342L15.272,26.342z"/>
	<path fill="#FFFFFF" d="M22.606,22.488c0.377-0.044,0.767-0.09,1.148-0.144c0.745-0.107,1.262-0.799,1.155-1.545
		c-0.107-0.745-0.798-1.263-1.544-1.155c-0.345,0.05-0.7,0.092-1.076,0.136c-0.904,0.106-1.839,0.216-2.826,0.457
		c-0.732,0.179-1.181,0.916-1.002,1.648c0.152,0.623,0.709,1.041,1.324,1.041c0.107,0,0.215-0.012,0.324-0.039
		C20.933,22.685,21.784,22.585,22.606,22.488L22.606,22.488z"/>
	<path fill="#FFFFFF" d="M27.821,13.331c0.098,0.68,0.681,1.171,1.349,1.171c0.064,0,0.129-0.005,0.195-0.015
		c0.745-0.107,1.263-0.798,1.156-1.543c-0.344-2.4-1.506-4.076-1.556-4.146c-0.432-0.616-1.283-0.765-1.9-0.332
		c-0.616,0.432-0.765,1.283-0.332,1.9C26.742,10.378,27.574,11.599,27.821,13.331L27.821,13.331z"/>
	<path fill="#FFFFFF" d="M28.977,19.485c0.523-0.768,0.928-1.583,1.202-2.421c0.233-0.716-0.157-1.486-0.873-1.72
		c-0.716-0.233-1.486,0.158-1.72,0.873c-0.194,0.593-0.484,1.176-0.862,1.732c-0.215,0.314-0.45,0.571-0.72,0.782
		c-0.592,0.465-0.695,1.323-0.229,1.915c0.269,0.342,0.668,0.521,1.072,0.521c0.295,0,0.593-0.095,0.842-0.291
		C28.175,20.494,28.608,20.026,28.977,19.485L28.977,19.485z"/>
	<path fill="#FFFFFF" d="M24.875,28.5c0.177,0.177,0.424,0.279,0.675,0.279s0.496-0.102,0.675-0.279
		c0.177-0.179,0.28-0.425,0.28-0.676c0-0.25-0.103-0.498-0.28-0.675s-0.424-0.279-0.675-0.279c-0.252,0-0.498,0.102-0.675,0.279
		s-0.28,0.423-0.28,0.675C24.596,28.076,24.698,28.322,24.875,28.5L24.875,28.5z"/>
	<path fill="#FFFFFF" d="M29.425,22.599c-0.177,0.178-0.28,0.425-0.28,0.676c0,0.252,0.102,0.498,0.28,0.675
		c0.179,0.179,0.424,0.279,0.675,0.279s0.498-0.101,0.675-0.279c0.179-0.177,0.279-0.424,0.279-0.675s-0.101-0.498-0.279-0.676
		c-0.177-0.177-0.423-0.279-0.675-0.279C29.848,22.32,29.603,22.422,29.425,22.599L29.425,22.599z"/>
	<path fill="#FFFFFF" d="M35.325,20.325c-0.179-0.177-0.424-0.28-0.675-0.28s-0.498,0.103-0.675,0.28s-0.28,0.424-0.28,0.675
		s0.103,0.498,0.28,0.675s0.424,0.279,0.675,0.279s0.496-0.102,0.675-0.279c0.177-0.177,0.28-0.424,0.28-0.675
		S35.502,20.502,35.325,20.325L35.325,20.325z"/>
	<path fill="#FFFFFF" d="M32.375,15.495c-0.252,0-0.498,0.102-0.675,0.281c-0.179,0.177-0.279,0.423-0.279,0.674
		c0,0.252,0.101,0.498,0.279,0.675c0.177,0.179,0.423,0.279,0.675,0.279c0.251,0,0.496-0.101,0.675-0.279
		c0.177-0.177,0.279-0.423,0.279-0.675c0-0.251-0.102-0.496-0.279-0.674C32.872,15.597,32.627,15.495,32.375,15.495L32.375,15.495z"
		/>
	<path fill="#FFFFFF" d="M20.999,12.854c0.252,0,0.498-0.102,0.675-0.279c0.179-0.179,0.28-0.424,0.28-0.675
		s-0.102-0.496-0.28-0.675c-0.177-0.177-0.423-0.28-0.675-0.28c-0.251,0-0.496,0.103-0.675,0.28
		c-0.177,0.177-0.279,0.424-0.279,0.675s0.102,0.496,0.279,0.675C20.503,12.752,20.748,12.854,20.999,12.854L20.999,12.854z"/>
	<path fill="#FFFFFF" d="M23.275,8.305c0.251,0,0.496-0.102,0.674-0.281c0.179-0.177,0.28-0.423,0.28-0.675
		c0-0.251-0.101-0.498-0.28-0.675c-0.177-0.177-0.423-0.28-0.674-0.28c-0.252,0-0.498,0.103-0.675,0.28
		c-0.179,0.179-0.279,0.424-0.279,0.675c0,0.252,0.101,0.498,0.279,0.675C22.778,8.203,23.023,8.305,23.275,8.305L23.275,8.305z"/>
	<path fill="#FFFFFF" d="M15.775,15.774c-0.177,0.179-0.279,0.424-0.279,0.675c0,0.252,0.102,0.498,0.279,0.675
		c0.177,0.179,0.425,0.281,0.675,0.281c0.251,0,0.496-0.102,0.676-0.281c0.177-0.177,0.279-0.423,0.279-0.675
		c0-0.251-0.102-0.496-0.279-0.675c-0.179-0.177-0.425-0.278-0.676-0.278C16.2,15.496,15.952,15.597,15.775,15.774L15.775,15.774z"
		/>
	<path fill="#FFFFFF" d="M23.275,17.405c0.251,0,0.496-0.102,0.674-0.281c0.179-0.177,0.28-0.423,0.28-0.674
		c0-0.252-0.101-0.498-0.28-0.676c-0.177-0.177-0.423-0.28-0.674-0.28c-0.252,0-0.498,0.103-0.675,0.28
		c-0.179,0.179-0.279,0.424-0.279,0.676c0,0.251,0.101,0.496,0.279,0.674C22.778,17.303,23.023,17.405,23.275,17.405L23.275,17.405z
		"/>
	<path fill="#FFFFFF" d="M9.625,26.87c-0.252,0-0.498,0.103-0.676,0.279c-0.177,0.177-0.28,0.425-0.28,0.676
		c0,0.25,0.102,0.496,0.28,0.675c0.177,0.177,0.424,0.279,0.676,0.279c0.25,0,0.496-0.102,0.675-0.279
		c0.177-0.179,0.279-0.425,0.279-0.675c0-0.251-0.102-0.498-0.279-0.676C10.122,26.973,9.876,26.87,9.625,26.87L9.625,26.87z"/>
	<path fill="#FFFFFF" d="M21.954,25.549c0-0.251-0.101-0.496-0.279-0.674c-0.177-0.179-0.423-0.281-0.675-0.281
		c-0.251,0-0.496,0.102-0.675,0.281c-0.177,0.177-0.279,0.422-0.279,0.674c0,0.252,0.102,0.498,0.279,0.675
		c0.179,0.179,0.424,0.281,0.675,0.281c0.252,0,0.498-0.102,0.675-0.281C21.853,26.047,21.954,25.8,21.954,25.549L21.954,25.549z"/>
</g>
</svg>
