<?xml version="1.0" encoding="utf-8"?>
<!-- Generator: Adobe Illustrator 17.0.0, SVG Export Plug-In . SVG Version: 6.00 Build 0)  -->
<!DOCTYPE svg PUBLIC "-//W3C//DTD SVG 1.1//EN" "http://www.w3.org/Graphics/SVG/1.1/DTD/svg11.dtd">
<svg version="1.1" id="Layer_1" xmlns="http://www.w3.org/2000/svg" xmlns:xlink="http://www.w3.org/1999/xlink" x="0px" y="0px"
	 width="42px" height="42px" viewBox="0 0 42 42" enable-background="new 0 0 42 42" xml:space="preserve">
<path fill="#FFFFFF" d="M-119.318,16.327c-0.315-2.682-2.844-3.681-4.498-3.9c-2.087-6.312-7.972-10.906-14.937-11.066
	c-0.034-0.61-0.003-1.761,0.607-2.495c0.37-0.445,0.901-0.671,1.59-0.689c2.219,0.086,2.56,0.956,2.61,1.705
	c0.018,0.276,0.26,0.488,0.533,0.467c0.276-0.018,0.485-0.257,0.467-0.533c-0.111-1.665-1.312-2.553-3.603-2.64
	c-1.015,0.025-1.813,0.38-2.371,1.054c-0.809,0.976-0.874,2.369-0.837,3.139c-0.068,0.003-0.137,0.002-0.205,0.006
	c-0.003-0.577-0.109-1.406-0.613-2.014c-0.405-0.489-0.984-0.746-1.721-0.765c-1.663,0.063-2.535,0.708-2.615,1.916
	c-0.013,0.2,0.138,0.374,0.339,0.387c0.198,0.015,0.374-0.138,0.387-0.339c0.036-0.543,0.284-1.175,1.894-1.237
	c0.5,0.013,0.885,0.177,1.154,0.5c0.381,0.459,0.451,1.142,0.447,1.607c-6.424,0.62-11.753,5.027-13.731,10.954
	c-1.698,0.085-4.885,1.006-5.252,3.943c-0.212,1.694,0.262,3.226,1.334,4.313c0.934,0.947,2.24,1.464,3.657,1.464
	c0.037,0,0.074-0.006,0.111-0.006c1.992,6.644,8.161,11.501,15.445,11.501c7.288,0,13.459-4.862,15.448-11.512
	c1.202-0.08,2.301-0.581,3.105-1.447C-119.565,19.553-119.119,18.022-119.318,16.327z M-154.835,21.092
	c-1.088-0.036-2.08-0.436-2.79-1.156c-0.852-0.864-1.226-2.101-1.053-3.485c0.293-2.346,2.905-2.903,3.946-3.032
	c-0.337,1.296-0.517,2.655-0.517,4.056C-155.249,18.719-155.103,19.928-154.835,21.092z M-139.126,32.095
	c-8.061,0-14.62-6.559-14.62-14.62s6.559-14.62,14.62-14.62c8.061,0,14.62,6.558,14.62,14.62S-131.065,32.095-139.126,32.095z
	 M-121.246,19.936c-0.565,0.609-1.321,0.987-2.161,1.113c0.262-1.151,0.404-2.346,0.404-3.574c0-1.371-0.173-2.703-0.497-3.975
	c1.136,0.233,3.006,0.921,3.245,2.951C-120.091,17.835-120.443,19.072-121.246,19.936z M-144.054,17.277
	c-0.014,0.276,0.198,0.772,0.474,0.772c0.009,0,0.018,0,0.027,0c0.264,0,0.485-0.452,0.5-0.719c0.005-0.1,0.117-2.59-1.305-4.001
	c-0.743-0.737-1.747-1.131-2.986-1.055c-2.327,0.145-3.358,1.425-3.813,2.498c-0.479,1.13-0.418,2.202-0.415,2.248
	c0.017,0.276,0.254,0.481,0.532,0.461c0.276-0.017,0.486-0.259,0.469-0.535c0-0.009-0.051-0.897,0.337-1.811
	c0.502-1.183,1.495-1.83,2.953-1.921c0.937-0.057,1.684,0.3,2.214,0.824C-143.964,15.129-144.053,17.257-144.054,17.277z
	 M-132.307,12.213c-2.327,0.145-3.358,1.456-3.813,2.529c-0.479,1.13-0.418,2.218-0.415,2.263c0.017,0.276,0.254,0.489,0.532,0.469
	c0.276-0.017,0.486-0.255,0.469-0.532c0-0.009-0.051-0.895,0.337-1.809c0.502-1.183,1.495-1.829,2.953-1.92
	c0.937-0.057,1.684,0.177,2.214,0.702c1.103,1.09,1.014,3.341,1.013,3.362c-0.014,0.276,0.198,0.772,0.474,0.772
	c0.009,0,0.018,0,0.027,0c0.264,0,0.485-0.452,0.5-0.719c0.005-0.1,0.117-2.59-1.305-4.001
	C-130.063,12.593-131.068,12.137-132.307,12.213z M-132.882,19.982c-0.415,0.012-0.742,0.358-0.73,0.773
	c0.036,1.261-0.275,5.389-5.765,5.576c-5.335,0-5.995-4.892-6.02-5.101c-0.049-0.411-0.421-0.7-0.833-0.658
	c-0.412,0.048-0.708,0.421-0.66,0.834c0.008,0.064,0.823,6.43,7.539,6.429c5.49-0.186,7.333-3.953,7.242-7.122
	C-132.121,20.297-132.468,19.97-132.882,19.982z"/>
<path fill="#FFFFFF" d="M-120.7-1.33c-0.689-0.077-1.35,0.096-1.35,0.096l1.12-0.718c0,0,0.522-0.582-0.689-0.747
	c-0.428-0.058-1.284-0.291-1.709-0.244c-0.388,0.043-0.826,0.567-0.05,0.998c0.553,0.036,1.339,0.126,1.339,0.126
	s-1.284,0.723-1.585,1.097c-0.267,0.331-0.336,0.637,2.953,0.637C-119.724-0.086-119.468-1.193-120.7-1.33z M-123.598,2.303
	c-1.314-0.146-2.573,0.182-2.573,0.182l2.135-1.368c0,0,0.994-1.11-1.314-1.423c-0.815-0.111-2.448-0.555-3.257-0.465
	c-0.739,0.082-1.574,1.081-0.096,1.902c1.054,0.068,2.552,0.24,2.552,0.24s-2.447,1.378-3.021,2.09
	c-0.508,0.63-0.641,1.215,5.628,1.215C-121.737,4.675-121.249,2.564-123.598,2.303z"/>
<g>
	<g>
		<g>
			<g>
				<path fill="#333333" d="M30.622,22.774c-0.415-0.209-0.916-0.044-1.128,0.366c-0.007,0.012-0.645,1.221-1.772,1.221
					c-1.128,0-1.766-1.209-1.769-1.216c-0.208-0.416-0.712-0.583-1.128-0.376c-0.415,0.208-0.583,0.712-0.376,1.128
					c0.044,0.088,1.098,2.145,3.272,2.145s3.228-2.057,3.272-2.145C31.201,23.483,31.034,22.983,30.622,22.774z"/>
				<path fill="#333333" d="M17.178,22.774c-0.415-0.209-0.916-0.044-1.128,0.366c-0.007,0.012-0.645,1.221-1.772,1.221
					s-1.766-1.209-1.769-1.216c-0.208-0.416-0.711-0.583-1.128-0.376c-0.415,0.208-0.583,0.712-0.376,1.128
					c0.044,0.088,1.098,2.145,3.272,2.145s3.228-2.057,3.272-2.145C17.757,23.483,17.59,22.983,17.178,22.774z"/>
				<path fill="#333333" d="M21,31.083c-0.927,0-1.681,0.754-1.681,1.681c0,0.926,0.753,1.681,1.681,1.681
					c0.927,0,1.681-0.754,1.681-1.681C22.681,31.838,21.927,31.083,21,31.083z"/>
				<path fill="#80007F" d="M38.646,4.195h0.322L37.894,6.34c-0.13,0.26-0.117,0.569,0.036,0.817
					c0.154,0.248,0.425,0.399,0.716,0.399h1.681c0.464,0,0.84-0.376,0.84-0.84s-0.376-0.84-0.84-0.84h-0.322l1.073-2.145
					c0.13-0.26,0.117-0.569-0.036-0.817c-0.154-0.248-0.425-0.399-0.716-0.399h-1.681c-0.464,0-0.84,0.376-0.84,0.84
					C37.805,3.819,38.181,4.195,38.646,4.195z"/>
				<path fill="#80007F" d="M34.444,8.396h0.11l-0.809,1.214c-0.172,0.258-0.189,0.589-0.041,0.862
					c0.146,0.273,0.43,0.444,0.74,0.444h1.681c0.464,0,0.84-0.376,0.84-0.84c0-0.464-0.376-0.84-0.84-0.84h-0.11l0.809-1.214
					c0.172-0.258,0.189-0.589,0.041-0.862c-0.146-0.273-0.43-0.444-0.74-0.444h-1.681c-0.464,0-0.84,0.376-0.84,0.84
					S33.98,8.396,34.444,8.396z"/>
				<path fill="#333333" d="M38.279,21.033c-1.057-5.039-4.389-9.151-8.876-11.457V1.674c0-0.292-0.151-0.563-0.4-0.716
					c-0.248-0.152-0.559-0.166-0.819-0.035l-4.922,2.482C22.664,2.857,21.874,2.514,21,2.514s-1.664,0.343-2.262,0.892l-4.922-2.482
					c-0.26-0.132-0.572-0.119-0.819,0.035c-0.249,0.153-0.4,0.423-0.4,0.716v7.902c-4.487,2.307-7.819,6.419-8.876,11.457
					c-1.63,0.231-2.888,1.635-2.888,3.328c0,1.693,1.258,3.097,2.888,3.328C5.369,35.541,12.522,41.167,21,41.167
					s15.631-5.626,17.279-13.477c1.63-0.231,2.888-1.635,2.888-3.328C41.167,22.668,39.909,21.264,38.279,21.033z M24.177,4.826
					l3.545-1.788v5.673l-3.545-1.788c0.11-0.332,0.184-0.68,0.184-1.049C24.361,5.507,24.287,5.158,24.177,4.826z M21,4.195
					c0.926,0,1.681,0.754,1.681,1.681S21.926,7.556,21,7.556c-0.926,0-1.681-0.754-1.681-1.681S20.074,4.195,21,4.195z
					 M14.278,3.039l3.545,1.788c-0.11,0.332-0.184,0.68-0.184,1.049c0,0.368,0.074,0.717,0.184,1.049l-3.545,1.788V3.039z
					 M37.821,26.043l-0.168-0.02c-0.441-0.049-0.83,0.267-0.902,0.699C35.524,34.118,28.9,39.486,21,39.486
					S6.476,34.118,5.249,26.721c-0.067-0.407-0.554-0.683-0.975-0.683c-0.027,0-0.053,0.001-0.08,0.003
					c-0.926,0-1.681-0.754-1.681-1.681c0-0.926,0.754-1.681,1.665-1.681l0.168,0.02c0.422,0.035,0.83-0.267,0.902-0.699
					C6.3,15.664,11.317,10.828,17.7,9.569c-0.289,0.443-0.533,0.913-0.691,1.418c-0.374,1.201-0.249,2.455,0.35,3.532
					c0.6,1.077,1.601,1.842,2.82,2.156c0.327,0.084,0.656,0.124,0.981,0.124c1.74,0,3.384-1.141,3.919-2.856
					c0.264-0.848,0.176-1.736-0.249-2.497c-0.425-0.762-1.133-1.304-1.994-1.525c-0.45-0.115-0.907,0.155-1.023,0.605
					c-0.116,0.45,0.155,0.908,0.605,1.023c0.411,0.105,0.746,0.359,0.945,0.716c0.199,0.355,0.238,0.774,0.112,1.178
					c-0.372,1.198-1.666,1.918-2.877,1.605c-0.769-0.198-1.397-0.675-1.772-1.346c-0.373-0.67-0.449-1.457-0.213-2.213
					c0.277-0.889,0.864-1.672,1.655-2.208c0.005-0.003,0.007-0.009,0.012-0.012c0.24-0.01,0.477-0.03,0.719-0.03
					c7.9,0,14.524,5.368,15.751,12.765c0.071,0.432,0.459,0.732,0.902,0.699l0.153-0.02c0.926,0,1.681,0.754,1.681,1.681
					C39.486,25.288,38.732,26.042,37.821,26.043z"/>
			</g>
		</g>
	</g>
	<path fill="#80007F" d="M29.529,9.649c-0.043-0.023-0.083-0.051-0.126-0.074V1.674c0-0.292-0.151-0.563-0.4-0.716
		c-0.248-0.152-0.559-0.166-0.819-0.034l-4.922,2.482C22.664,2.857,21.874,2.514,21,2.514c-0.874,0-1.664,0.343-2.262,0.892
		l-4.922-2.482c-0.26-0.132-0.572-0.119-0.819,0.034c-0.249,0.153-0.4,0.423-0.4,0.716v7.902C12.597,9.576,19.74,8.636,29.529,9.649
		z M24.177,4.826l3.545-1.788v5.674l-3.545-1.788c0.11-0.332,0.184-0.68,0.184-1.049C24.361,5.507,24.287,5.159,24.177,4.826z
		 M17.823,6.924l-3.545,1.788V3.039l3.545,1.788c-0.11,0.332-0.184,0.68-0.184,1.049S17.713,6.592,17.823,6.924z M19.32,5.875
		c0-0.926,0.754-1.681,1.68-1.681c0.926,0,1.68,0.754,1.68,1.681c0,0.926-0.754,1.68-1.68,1.68
		C20.074,7.556,19.32,6.802,19.32,5.875z"/>
</g>
</svg>
