<?xml version="1.0" encoding="utf-8"?>
<!-- Generator: Adobe Illustrator 17.0.0, SVG Export Plug-In . SVG Version: 6.00 Build 0)  -->
<!DOCTYPE svg PUBLIC "-//W3C//DTD SVG 1.1//EN" "http://www.w3.org/Graphics/SVG/1.1/DTD/svg11.dtd">
<svg version="1.1" id="Layer_1" xmlns="http://www.w3.org/2000/svg" xmlns:xlink="http://www.w3.org/1999/xlink" x="0px" y="0px"
	 width="42px" height="42px" viewBox="0 0 42 42" enable-background="new 0 0 42 42" xml:space="preserve">
<g>
	<g>
		<g>
			<path fill="#FFFFFF" d="M28.336,22.353c-0.317-0.16-0.698-0.034-0.86,0.279c-0.005,0.009-0.492,0.931-1.351,0.931
				c-0.86,0-1.346-0.922-1.349-0.927c-0.159-0.317-0.543-0.444-0.86-0.287c-0.317,0.158-0.444,0.543-0.287,0.86
				c0.034,0.067,0.837,1.635,2.495,1.635s2.461-1.568,2.495-1.635C28.778,22.893,28.65,22.512,28.336,22.353z"/>
			<path fill="#FFFFFF" d="M18.086,22.353c-0.317-0.16-0.698-0.034-0.86,0.279c-0.005,0.009-0.492,0.931-1.351,0.931
				c-0.86,0-1.346-0.922-1.349-0.927c-0.159-0.317-0.542-0.444-0.86-0.287c-0.317,0.158-0.444,0.543-0.287,0.86
				c0.034,0.067,0.837,1.635,2.495,1.635s2.461-1.568,2.495-1.635C18.528,22.893,18.4,22.512,18.086,22.353z"/>
			<path fill="#FFFFFF" d="M21,28.688c-0.707,0-1.281,0.575-1.281,1.281S20.293,31.25,21,31.25s1.281-0.575,1.281-1.281
				C22.281,29.262,21.707,28.688,21,28.688z"/>
			<path fill="#FFFFFF" d="M34.453,8.188h0.245L33.88,9.823c-0.099,0.198-0.089,0.434,0.028,0.623
				c0.118,0.189,0.324,0.304,0.546,0.304h1.281c0.354,0,0.641-0.287,0.641-0.641s-0.287-0.641-0.641-0.641H35.49l0.818-1.635
				c0.099-0.198,0.089-0.434-0.028-0.623c-0.118-0.189-0.324-0.304-0.546-0.304h-1.281c-0.354,0-0.641,0.287-0.641,0.641
				C33.812,7.901,34.099,8.188,34.453,8.188z"/>
			<path fill="#FFFFFF" d="M31.25,11.391h0.084l-0.617,0.926c-0.131,0.196-0.144,0.449-0.031,0.658
				c0.111,0.208,0.328,0.338,0.564,0.338h1.281c0.354,0,0.641-0.287,0.641-0.641s-0.287-0.641-0.641-0.641h-0.084l0.617-0.926
				c0.131-0.196,0.144-0.449,0.031-0.658c-0.111-0.208-0.328-0.338-0.564-0.338H31.25c-0.354,0-0.641,0.287-0.641,0.641
				S30.896,11.391,31.25,11.391z"/>
			<path fill="#FFFFFF" d="M34.173,21.025c-0.806-3.841-3.346-6.976-6.767-8.735V6.266c0-0.223-0.115-0.429-0.305-0.546
				c-0.189-0.116-0.426-0.126-0.624-0.026l-3.752,1.892c-0.456-0.418-1.058-0.68-1.725-0.68s-1.269,0.262-1.725,0.68l-3.752-1.892
				c-0.198-0.101-0.436-0.091-0.624,0.026c-0.19,0.116-0.305,0.323-0.305,0.546v6.024c-3.421,1.759-5.961,4.894-6.767,8.735
				c-1.242,0.176-2.201,1.247-2.201,2.537c0,1.291,0.959,2.361,2.201,2.537C9.083,32.086,14.536,36.375,21,36.375
				S32.917,32.086,34.173,26.1c1.242-0.176,2.201-1.247,2.201-2.537S35.416,21.202,34.173,21.025z M23.422,8.669l2.703-1.363v4.325
				l-2.703-1.363c0.084-0.253,0.14-0.519,0.14-0.8C23.562,9.188,23.506,8.923,23.422,8.669z M21,8.188
				c0.706,0,1.281,0.575,1.281,1.281S21.706,10.75,21,10.75s-1.281-0.575-1.281-1.281S20.294,8.188,21,8.188z M15.875,7.306
				l2.703,1.363c-0.084,0.253-0.14,0.519-0.14,0.8s0.057,0.546,0.14,0.8l-2.703,1.363C15.875,11.632,15.875,7.306,15.875,7.306z
				 M33.824,24.844l-0.128-0.016c-0.336-0.038-0.633,0.203-0.688,0.533C32.073,31,27.022,35.093,21,35.093
				S9.927,31.001,8.992,25.362c-0.051-0.31-0.422-0.521-0.743-0.521c-0.021,0-0.041,0.001-0.061,0.003
				c-0.706,0-1.281-0.575-1.281-1.281s0.575-1.281,1.269-1.282l0.128,0.016c0.322,0.027,0.633-0.203,0.688-0.533
				c0.801-4.831,4.626-8.518,9.492-9.478c-0.22,0.338-0.407,0.696-0.527,1.081c-0.285,0.916-0.19,1.872,0.267,2.693
				c0.457,0.821,1.221,1.404,2.15,1.643c0.249,0.064,0.5,0.094,0.748,0.094c1.327,0,2.58-0.87,2.988-2.178
				c0.201-0.647,0.134-1.323-0.19-1.904c-0.324-0.581-0.864-0.994-1.52-1.163c-0.343-0.088-0.691,0.118-0.78,0.461
				c-0.088,0.343,0.118,0.692,0.461,0.78c0.313,0.08,0.569,0.274,0.72,0.546c0.151,0.271,0.181,0.59,0.085,0.898
				c-0.283,0.913-1.27,1.462-2.193,1.224c-0.586-0.151-1.065-0.515-1.351-1.026c-0.285-0.511-0.342-1.11-0.162-1.687
				c0.211-0.678,0.659-1.275,1.262-1.683c0.004-0.003,0.005-0.007,0.009-0.009c0.183-0.008,0.364-0.023,0.548-0.023
				c6.023,0,11.073,4.093,12.008,9.732c0.054,0.33,0.35,0.558,0.688,0.533l0.116-0.015c0.706,0,1.281,0.575,1.281,1.281
				C35.094,24.269,34.519,24.844,33.824,24.844z"/>
		</g>
	</g>
</g>
</svg>
