<?xml version="1.0" encoding="utf-8"?>
<!-- Generator: Adobe Illustrator 17.0.0, SVG Export Plug-In . SVG Version: 6.00 Build 0)  -->
<!DOCTYPE svg PUBLIC "-//W3C//DTD SVG 1.1//EN" "http://www.w3.org/Graphics/SVG/1.1/DTD/svg11.dtd">
<svg version="1.1" id="Layer_1" xmlns="http://www.w3.org/2000/svg" xmlns:xlink="http://www.w3.org/1999/xlink" x="0px" y="0px"
	 width="42px" height="42px" viewBox="0 0 42 42" enable-background="new 0 0 42 42" xml:space="preserve">
<g>
	<path fill="#00B2D8" d="M23.788,35.35l-1.845-5.371H10.791L8.946,35.35H2.837l10.127-28.7h6.847l10.086,28.7H23.788z
		 M12.308,25.551h8.159L16.366,13.62L12.308,25.551z"/>
	<path fill="#00B2D8" d="M39.163,32.071c0,0.929-0.322,1.708-0.964,2.337c-0.643,0.629-1.422,0.942-2.337,0.942
		c-0.916,0-1.688-0.313-2.316-0.942c-0.629-0.629-0.943-1.408-0.943-2.337c0-0.93,0.314-1.708,0.943-2.338
		c0.628-0.628,1.4-0.942,2.316-0.942c0.915,0,1.694,0.314,2.337,0.942C38.841,30.363,39.163,31.141,39.163,32.071z"/>
</g>
</svg>
