<?xml version="1.0" encoding="utf-8"?>
<!-- Generator: Adobe Illustrator 17.0.0, SVG Export Plug-In . SVG Version: 6.00 Build 0)  -->
<!DOCTYPE svg PUBLIC "-//W3C//DTD SVG 1.1//EN" "http://www.w3.org/Graphics/SVG/1.1/DTD/svg11.dtd">
<svg version="1.1" id="Layer_1" xmlns="http://www.w3.org/2000/svg" xmlns:xlink="http://www.w3.org/1999/xlink" x="0px" y="0px"
	 width="42px" height="42px" viewBox="0 0 42 42" enable-background="new 0 0 42 42" xml:space="preserve">
<path fill="#FFFFFF" d="M18.334,22.249c1.296-1.285,2.101-3.064,2.101-5.029c0-3.908-3.179-7.087-7.087-7.087
	c-3.908,0-7.087,3.179-7.087,7.087c0,2.185,0.995,4.141,2.554,5.442c-4.351,1.772-7.626,5.87-8.054,8.869l-0.014,0.101L0.931,41H27
	v-9.631l-0.185-0.175C26.019,28.497,23.267,23.833,18.334,22.249z M8.781,17.22c0-2.518,2.049-4.567,4.567-4.567
	s4.567,2.049,4.567,4.567c0,2.477-1.985,4.489-4.446,4.555c-0.052,0.005-0.103,0.003-0.155,0.009
	C10.812,21.765,8.781,19.726,8.781,17.22z M24,38H3.402l-0.138-6.447c0.46-2.619,4.822-7.251,9.826-7.251l0.289,0.006l0.021-0.004
	c0.319-0.002,0.631-0.032,0.939-0.075c0.118-0.004,0.235-0.011,0.358-0.011c6.585,0,9.303,6.396,9.303,7.529V38z M31.616,0.841
	c-5.036,0-9.134,4.098-9.134,9.134c0,1.44,0.344,2.873,0.994,4.148c0.025,0.53-0.586,2.474-1.339,4.249
	c-0.149,0.352-0.072,0.759,0.196,1.031c0.181,0.184,0.425,0.283,0.674,0.283c0.119,0,0.239-0.022,0.353-0.069
	c1.371-0.553,3.615-1.328,4.422-1.35c1.205,0.558,2.495,0.841,3.833,0.841c5.036,0,9.134-4.098,9.134-9.134
	S36.652,0.841,31.616,0.841z M31.616,17.22c-1.089,0-2.135-0.235-3.109-0.699c-0.203-0.097-0.44-0.144-0.724-0.144
	c-0.747,0-2.021,0.369-3.126,0.744c1.016-2.875,0.664-3.546,0.535-3.794c-0.544-1.041-0.82-2.168-0.82-3.351
	c0-3.995,3.25-7.244,7.244-7.244c3.994,0,7.244,3.25,7.244,7.244C38.86,13.97,35.611,17.22,31.616,17.22z M33.514,5.799
	c-0.236-0.191-0.503-0.332-0.799-0.42s-0.596-0.132-0.9-0.132c-0.271,0-0.535,0.034-0.791,0.102
	c-0.256,0.068-0.494,0.168-0.715,0.301c-0.22,0.132-0.416,0.294-0.588,0.485c-0.172,0.192-0.311,0.412-0.414,0.66l1.045,0.72
	c0.063-0.104,0.139-0.214,0.228-0.33c0.088-0.115,0.192-0.22,0.312-0.312c0.121-0.092,0.252-0.168,0.396-0.229
	c0.145-0.06,0.304-0.09,0.48-0.09c0.144,0,0.285,0.022,0.426,0.066c0.14,0.044,0.262,0.11,0.365,0.198
	c0.104,0.088,0.188,0.195,0.252,0.323c0.064,0.129,0.097,0.276,0.097,0.444c0,0.225-0.059,0.422-0.175,0.594
	c-0.115,0.173-0.258,0.322-0.426,0.45s-0.34,0.238-0.516,0.33s-0.324,0.174-0.443,0.246c-0.4,0.232-0.664,0.504-0.793,0.816
	c-0.128,0.312-0.191,0.664-0.191,1.056h1.32c0-0.2,0.041-0.37,0.125-0.51c0.084-0.141,0.192-0.265,0.324-0.372
	c0.133-0.108,0.277-0.206,0.438-0.294s0.32-0.181,0.48-0.276c0.192-0.12,0.364-0.244,0.516-0.372
	c0.152-0.128,0.285-0.271,0.396-0.432s0.198-0.338,0.258-0.534c0.061-0.196,0.09-0.422,0.09-0.678c0-0.416-0.074-0.774-0.222-1.074
	S33.749,5.991,33.514,5.799z M30.387,13.875h1.332v-1.656h-1.332V13.875z"/>
</svg>
