<?xml version="1.0" encoding="utf-8"?>
<!-- Generator: Adobe Illustrator 17.0.0, SVG Export Plug-In . SVG Version: 6.00 Build 0)  -->
<!DOCTYPE svg PUBLIC "-//W3C//DTD SVG 1.1//EN" "http://www.w3.org/Graphics/SVG/1.1/DTD/svg11.dtd">
<svg version="1.1" id="Layer_1" xmlns="http://www.w3.org/2000/svg" xmlns:xlink="http://www.w3.org/1999/xlink" x="0px" y="0px"
	 width="42px" height="42px" viewBox="0 0 42 42" enable-background="new 0 0 42 42" xml:space="preserve">
<g>
	<path fill="#E6005D" d="M18.57,27.011c-2.013,0-3.707-0.674-5.08-2.021c-1.373-1.347-2.06-3.057-2.06-5.13s0.69-3.783,2.07-5.13
		c1.38-1.346,3.073-2.02,5.08-2.02c2.006,0,3.696,0.674,5.069,2.02c1.373,1.347,2.061,3.054,2.061,5.121
		c0,1.227-0.258,2.347-0.77,3.359c-0.514,1.014-1.225,1.841-2.131,2.48l3.1,3.6h-3.48l-2.059-2.5
		C19.757,26.937,19.157,27.011,18.57,27.011z M18.57,15.29c-1.267,0-2.297,0.417-3.09,1.25c-0.793,0.833-1.19,1.94-1.19,3.32
		c0,1.38,0.396,2.487,1.19,3.32c0.793,0.833,1.823,1.25,3.09,1.25s2.293-0.417,3.08-1.25c0.787-0.833,1.18-1.943,1.18-3.33
		c0-1.387-0.393-2.494-1.18-3.32C20.864,15.704,19.837,15.29,18.57,15.29z"/>
	<path fill="#E6005D" d="M30.57,25.271c0,0.453-0.156,0.833-0.47,1.14s-0.693,0.46-1.14,0.46c-0.447,0-0.823-0.153-1.13-0.46
		c-0.308-0.307-0.46-0.687-0.46-1.14s0.152-0.833,0.46-1.141c0.307-0.306,0.683-0.46,1.13-0.46c0.446,0,0.826,0.154,1.14,0.46
		C30.413,24.438,30.57,24.817,30.57,25.271z"/>
</g>
</svg>
