<?xml version="1.0" encoding="utf-8"?>
<!-- Generator: Adobe Illustrator 17.0.0, SVG Export Plug-In . SVG Version: 6.00 Build 0)  -->
<!DOCTYPE svg PUBLIC "-//W3C//DTD SVG 1.1//EN" "http://www.w3.org/Graphics/SVG/1.1/DTD/svg11.dtd">
<svg version="1.1" id="Layer_1" xmlns="http://www.w3.org/2000/svg" xmlns:xlink="http://www.w3.org/1999/xlink" x="0px" y="0px"
	 width="42px" height="42px" viewBox="0 0 42 42" enable-background="new 0 0 42 42" xml:space="preserve">
<g>
	<path fill="#333333" d="M11.835,6.755c2.413,0,4.368,1.956,4.368,4.368s-1.956,4.368-4.368,4.368s-4.368-1.956-4.368-4.368
		S9.423,6.755,11.835,6.755 M11.835,5.4c-3.156,0-5.724,2.568-5.724,5.724s2.568,5.724,5.724,5.724s5.724-2.568,5.724-5.724
		S14.991,5.4,11.835,5.4L11.835,5.4z"/>
	<g>
		<path fill="#333333" d="M11.763,28.197c-0.341,0-0.68-0.018-1.016-0.054c-0.054-0.006-0.107-0.018-0.158-0.037
			c-2.263-0.818-2.6-2.243-2.6-3.019c0-1.733,1.665-3.641,3.871-4.438c2.987-1.079,6.403-3.416,6.846-5.999
			c0.063-0.369,0.413-0.617,0.782-0.553c0.369,0.063,0.617,0.413,0.553,0.782c-0.537,3.134-4.265,5.796-7.721,7.044
			c-1.641,0.593-2.975,2.012-2.976,3.164c0,0.901,0.868,1.428,1.63,1.716c3.728,0.361,6.895-1.884,8.459-3.262
			c2.623-2.311,4.557-5.544,4.599-7.689c-0.074-2.49-0.805-4.331-2.172-5.441c-2.025-1.643-4.795-1.168-4.822-1.163
			c-0.369,0.066-0.721-0.179-0.787-0.547c-0.066-0.368,0.179-0.721,0.547-0.787c0.139-0.025,3.416-0.586,5.916,1.445
			c1.687,1.369,2.586,3.551,2.673,6.486c-0.05,2.603-2.083,6.091-5.058,8.712C17.638,26.928,14.634,28.196,11.763,28.197z"/>
	</g>
	<g>
		<path fill="#333333" d="M5.568,26.791c-0.056,0-0.112-0.007-0.168-0.021c-0.362-0.092-0.581-0.462-0.489-0.824l2.88-11.264
			c0.092-0.363,0.461-0.582,0.824-0.489c0.362,0.092,0.581,0.462,0.489,0.824l-2.88,11.264C6.146,26.588,5.871,26.791,5.568,26.791z
			"/>
	</g>
	<g>
		<path fill="none" stroke="#333333" stroke-width="4" stroke-linecap="round" stroke-linejoin="round" stroke-miterlimit="10" d="
			M13.19,18.237"/>
	</g>
	<g>
		<path fill="#333333" d="M12.174,21.202c-0.073,0-0.147-0.012-0.22-0.037c-0.354-0.122-0.542-0.507-0.42-0.861l0.932-2.71
			c0.121-0.354,0.506-0.542,0.861-0.42c0.354,0.122,0.542,0.507,0.42,0.861l-0.932,2.71C12.718,21.025,12.456,21.202,12.174,21.202z
			"/>
	</g>
	<g>
		<path fill="#333333" d="M28.012,27.723c-0.282,0-0.545-0.177-0.641-0.459l-3.43-10.036c-0.121-0.354,0.068-0.739,0.422-0.86
			c0.354-0.122,0.739,0.068,0.86,0.422l3.43,10.036c0.121,0.354-0.068,0.739-0.422,0.86C28.158,27.712,28.084,27.723,28.012,27.723z
			"/>
	</g>
	<g>
		<g>
			<path fill="#80007F" d="M5.272,34.966c-2.289,0-4.152-1.863-4.152-4.152s1.863-4.152,4.152-4.152s4.152,1.863,4.152,4.152
				S7.561,34.966,5.272,34.966z M5.272,27.679c-1.729,0-3.135,1.407-3.135,3.135c0,1.729,1.407,3.135,3.135,3.135
				s3.135-1.407,3.135-3.135C8.407,29.086,7,27.679,5.272,27.679z"/>
		</g>
		<g>
			<path fill="#80007F" d="M10.795,35.673c-0.087,0-0.175-0.017-0.26-0.052c-0.059-0.024-1.439-0.614-1.982-2.121
				c-0.414-1.149-0.233-2.477,0.54-3.947c0.007-0.014,0.016-0.028,0.024-0.042c0.055-0.089,1.395-2.175,5.516-2.524
				c0.019-0.002,0.038-0.002,0.057-0.002c1.409,0,8.598,0.064,11.802,1.338c0.354,0.141,0.95,0.12,1.476,0.102
				c0.189-0.006,0.373-0.013,0.545-0.013c0.615,0,5.763,0.464,7.788,0.649v-1.464c0-0.057,0.007-0.113,0.021-0.167
				c0.201-0.79,0.888-2.114,2.145-2.068c0.976,0.036,1.701,0.341,2.154,0.908c0.516,0.645,0.477,1.388,0.446,1.635v5.396
				c0,0.359-0.28,0.656-0.639,0.677l-12.716,0.728c-0.374,0.026-0.694-0.264-0.715-0.638c-0.021-0.374,0.264-0.694,0.638-0.715
				l12.077-0.691v-4.805c0-0.042,0.004-0.083,0.012-0.124l0,0c0,0,0.05-0.361-0.167-0.623c-0.247-0.299-0.755-0.378-1.139-0.392
				c-0.365-0.012-0.658,0.65-0.762,0.976v2.111c0,0.191-0.08,0.372-0.221,0.501c-0.141,0.128-0.329,0.191-0.519,0.174
				c-3.103-0.286-7.902-0.711-8.403-0.711c-0.157,0-0.325,0.006-0.498,0.012c-0.658,0.022-1.406,0.048-2.023-0.197
				c-2.301-0.915-7.503-1.241-11.273-1.242c-3.213,0.28-4.312,1.692-4.443,1.876C9.7,31.322,9.55,32.272,9.827,33.041
				c0.338,0.936,1.22,1.326,1.228,1.33c0.346,0.144,0.509,0.541,0.365,0.886C11.312,35.517,11.061,35.673,10.795,35.673z"/>
		</g>
		<g>
			<path fill="#80007F" d="M25.932,35.47H10.946c-1.213,0-2.2-0.987-2.2-2.2s0.987-2.2,2.2-2.2h14.986c1.213,0,2.2,0.987,2.2,2.2
				S27.145,35.47,25.932,35.47z M10.946,32.426c-0.466,0-0.845,0.379-0.845,0.845s0.379,0.845,0.845,0.845h14.986
				c0.466,0,0.845-0.379,0.845-0.845s-0.379-0.845-0.845-0.845H10.946z"/>
		</g>
	</g>
</g>
</svg>
