<?xml version="1.0" encoding="utf-8"?>
<!-- Generator: Adobe Illustrator 17.0.0, SVG Export Plug-In . SVG Version: 6.00 Build 0)  -->
<!DOCTYPE svg PUBLIC "-//W3C//DTD SVG 1.1//EN" "http://www.w3.org/Graphics/SVG/1.1/DTD/svg11.dtd">
<svg version="1.1" id="Layer_1" xmlns="http://www.w3.org/2000/svg" xmlns:xlink="http://www.w3.org/1999/xlink" x="0px" y="0px"
	 width="42px" height="42px" viewBox="0 0 42 42" enable-background="new 0 0 42 42" xml:space="preserve">
<g>
	<path fill="#333333" d="M17.541,28.661c-0.285,0.689-0.892,1.799-1.634,1.876c-0.669,0.069-1.513-0.735-2.374-2.263
		c-0.131-0.233-0.427-0.315-0.66-0.184c-0.233,0.131-0.315,0.427-0.184,0.66c1.046,1.855,2.07,2.76,3.126,2.76
		c0.064,0,0.129-0.003,0.193-0.01c1.403-0.146,2.204-1.873,2.482-2.603C18.218,28.843,17.889,28.76,17.541,28.661z"/>
	<g>
		<path fill="#333333" d="M19.167,18.916c0.04-0.137,0.093-0.489-0.285-0.804c-0.796-0.663-1.712-0.93-1.751-0.941
			c-0.123-0.035-0.256-0.02-0.368,0.042c-0.112,0.062-0.195,0.167-0.23,0.29l-0.484,1.695c-0.006,0.022-0.011,0.044-0.014,0.067
			c-0.639,0.121-1.458,0.249-2.507,0.376c-1.555,0.265-2.434,0.954-2.61,2.071c-0.009,0.058-0.009,0.116-0.014,0.174
			c0.21-0.031,0.411,0.066,0.821,0.079c0.127-0.67,0.857-1.181,1.942-1.366C18.854,19.974,19.065,19.26,19.167,18.916z
			 M17.104,19.031l0.215-0.753c0.215,0.097,0.482,0.238,0.747,0.429C17.901,18.786,17.61,18.899,17.104,19.031z M22.376,18.029
			c-0.787-4.068-6.374-4.549-6.612-4.567c-0.269-0.018-0.499,0.179-0.52,0.445c-0.021,0.267,0.179,0.499,0.445,0.52
			c0.051,0.004,5.087,0.434,5.736,3.786c0.627,3.24-5.553,4.566-5.615,4.579c-0.02,0.004-0.041,0.01-0.061,0.017
			c-0.335,0.116-0.985,0.3-1.663,0.397c0.101,0.208,0.177,0.447,0.215,0.726c0.021,0.079,0.041,0.148,0.062,0.214
			c0.803-0.126,1.481-0.345,1.675-0.412C16.619,23.609,23.165,22.106,22.376,18.029z"/>
		<g>
			<path fill="#80007F" d="M16.255,29.369c-0.073,0-0.148-0.014-0.219-0.044c-0.049-0.021-1.213-0.518-1.672-1.789
				c-0.349-0.969-0.196-2.089,0.455-3.329c0.006-0.012,0.013-0.024,0.02-0.036c0.046-0.075,1.176-1.835,4.652-2.129
				c0.016-0.001,0.032-0.002,0.048-0.002c1.188,0,7.251,0.054,9.954,1.128c0.299,0.119,0.801,0.101,1.245,0.086
				c0.159-0.005,0.314-0.011,0.459-0.011c0.519,0,4.861,0.391,6.568,0.547v-1.235c0-0.048,0.006-0.095,0.018-0.141
				c0.17-0.666,0.748-1.783,1.809-1.743c0.823,0.03,1.434,0.288,1.817,0.766c0.435,0.544,0.402,1.17,0.376,1.379v4.551
				c0,0.303-0.236,0.553-0.539,0.57l-10.724,0.614c-0.315,0.022-0.585-0.223-0.603-0.538c-0.018-0.315,0.223-0.585,0.538-0.603
				l10.186-0.583v-4.053c0-0.035,0.003-0.07,0.01-0.105l0,0c0,0,0.042-0.304-0.141-0.526c-0.208-0.252-0.637-0.319-0.96-0.331
				c-0.308-0.01-0.555,0.548-0.642,0.823v1.78c0,0.161-0.068,0.314-0.186,0.422c-0.119,0.108-0.277,0.161-0.438,0.147
				c-2.617-0.241-6.665-0.6-7.087-0.6c-0.133,0-0.274,0.005-0.42,0.01c-0.555,0.019-1.185,0.041-1.706-0.166
				c-1.941-0.772-6.328-1.046-9.507-1.048c-2.709,0.236-3.637,1.427-3.747,1.582c-0.484,0.933-0.612,1.734-0.378,2.382
				c0.285,0.79,1.029,1.119,1.036,1.121c0.291,0.121,0.429,0.456,0.308,0.747C16.691,29.237,16.479,29.369,16.255,29.369z"/>
		</g>
		<g>
			<path fill="#80007F" d="M29.021,29.198H16.382c-1.023,0-1.855-0.832-1.855-1.855s0.832-1.855,1.855-1.855h12.639
				c1.023,0,1.855,0.832,1.855,1.855C30.876,28.366,30.044,29.198,29.021,29.198z M16.382,26.631c-0.393,0-0.712,0.32-0.712,0.712
				c0,0.393,0.32,0.712,0.712,0.712h12.639c0.393,0,0.712-0.32,0.712-0.712c0-0.393-0.32-0.712-0.712-0.712H16.382z"/>
		</g>
	</g>
	<path fill="#80007F" d="M11.596,21.77c-0.099,0-0.196,0.007-0.292,0.015c0.026,0.273-0.016,0.586-0.123,0.878
		c0.136-0.022,0.274-0.036,0.416-0.036c1.458,0,2.644,1.186,2.644,2.644s-1.186,2.644-2.644,2.644s-2.644-1.186-2.644-2.644
		c0-0.56,0.177-1.08,0.475-1.508c-0.337,0.022-0.682,0.015-0.984-0.004c-0.221,0.458-0.348,0.97-0.348,1.512
		c0,1.931,1.571,3.501,3.501,3.501s3.501-1.571,3.501-3.501C15.098,23.341,13.527,21.77,11.596,21.77z"/>
	<g>
		<path fill="#333333" d="M9.359,24.237c-1.209,0-2.474-0.408-2.753-0.503c-0.581-0.125-7.127-1.628-6.338-5.704
			c0.788-4.072,7.075-4.549,7.343-4.567c0.266-0.02,0.498,0.183,0.516,0.45c0.018,0.267-0.183,0.498-0.449,0.516
			c-0.058,0.004-5.811,0.444-6.458,3.785c-0.628,3.246,5.553,4.566,5.615,4.579c0.021,0.004,0.041,0.01,0.061,0.017
			c0.67,0.233,2.603,0.736,3.49,0.27c0.394-0.206,0.612-0.64,0.542-1.08c-0.109-0.687-0.846-1.211-1.972-1.403
			c-5.165-0.623-5.376-1.337-5.477-1.68c-0.04-0.137-0.093-0.489,0.285-0.804c0.796-0.663,1.712-0.93,1.751-0.941
			c0.123-0.035,0.256-0.02,0.368,0.042c0.112,0.062,0.195,0.167,0.23,0.29L6.596,19.2c0.006,0.022,0.011,0.045,0.014,0.067
			c0.635,0.12,1.446,0.247,2.484,0.372c1.579,0.268,2.613,1.093,2.789,2.21c0.135,0.851-0.287,1.69-1.049,2.089
			C10.413,24.158,9.891,24.237,9.359,24.237z M4.577,18.706c0.165,0.08,0.456,0.194,0.964,0.325l-0.215-0.753
			C5.109,18.376,4.84,18.517,4.577,18.706z"/>
	</g>
	<g>
		<path fill="#333333" d="M11.759,19.176c-2.417,0-4.383-1.966-4.383-4.383s1.966-4.383,4.383-4.383s4.383,1.966,4.383,4.383
			S14.176,19.176,11.759,19.176z M11.759,11.377c-1.883,0-3.415,1.532-3.415,3.415s1.532,3.415,3.415,3.415s3.415-1.532,3.415-3.415
			S13.642,11.377,11.759,11.377z"/>
	</g>
	<g>
		<path fill="#333333" d="M6.634,31.591c-0.064,0-0.129-0.003-0.193-0.01c-1.68-0.175-2.5-2.624-2.588-2.902
			c-0.027-0.086-0.03-0.177-0.008-0.264l1.332-5.266c0.066-0.259,0.329-0.416,0.588-0.351c0.259,0.066,0.416,0.329,0.351,0.588
			l-1.297,5.127c0.228,0.633,0.892,2.02,1.723,2.105c0.673,0.068,1.513-0.735,2.374-2.263c0.131-0.233,0.427-0.315,0.66-0.184
			c0.233,0.131,0.315,0.427,0.184,0.66C8.714,30.685,7.69,31.591,6.634,31.591z"/>
	</g>
</g>
</svg>
