<?xml version="1.0" encoding="utf-8"?>
<!-- Generator: Adobe Illustrator 17.0.0, SVG Export Plug-In . SVG Version: 6.00 Build 0)  -->
<!DOCTYPE svg PUBLIC "-//W3C//DTD SVG 1.1//EN" "http://www.w3.org/Graphics/SVG/1.1/DTD/svg11.dtd">
<svg version="1.1" id="Layer_1" xmlns="http://www.w3.org/2000/svg" xmlns:xlink="http://www.w3.org/1999/xlink" x="0px" y="0px"
	 width="42px" height="42px" viewBox="0 0 42 42" enable-background="new 0 0 42 42" xml:space="preserve">
<g>
	<g>
		<path fill="#333333" d="M16.04,14.393c-2.693,0-4.883-2.191-4.883-4.883s2.191-4.883,4.883-4.883s4.883,2.191,4.883,4.883
			S18.733,14.393,16.04,14.393z M16.04,5.736c-2.081,0-3.774,1.693-3.774,3.774c0,2.081,1.693,3.774,3.774,3.774
			c2.081,0,3.774-1.693,3.774-3.774S18.121,5.736,16.04,5.736z"/>
	</g>
	<g>
		<path fill="#333333" d="M16.635,30.828c-0.679,0-1.186,0.462-1.531,0.025c-0.25,0.244-0.516,0.361-0.737,0.414
			c-1.094,0.262-2.188-0.716-2.309-0.828l-0.065-0.06l-0.043-0.077c-0.029-0.052-0.77-1.436-5.72-14.635l-0.017-0.052
			c-0.596-2.247-0.38-4.019,0.642-5.266c1.625-1.982,4.655-1.815,4.782-1.808l-0.068,1.107c-0.026-0.001-2.598-0.134-3.859,1.409
			c-0.777,0.951-0.922,2.38-0.431,4.248c4.313,11.501,5.399,13.949,5.604,14.384c0.283,0.234,0.852,0.591,1.226,0.501
			c0.204-0.05,0.376-0.26,0.509-0.624l0.57-1.554l0.482,1.583c0.034,0.108,0.356,1.053,1.101,0.946
			c0.933-0.746,4.708-8.882,7.876-16.447c0.024-0.392,0.079-2.249-0.979-3.281c-0.622-0.607-1.555-0.836-2.773-0.682l-0.14-1.1
			c1.572-0.2,2.815,0.135,3.692,0.993c1.565,1.532,1.309,4.15,1.298,4.261l-0.009,0.081l-0.031,0.075
			c-0.017,0.041-1.69,4.23-3.638,8.335c-4.577,9.646-4.573,7.917-5.01,8.009C16.909,30.814,16.768,30.828,16.635,30.828z"/>
	</g>
	<g>
		<path fill="#333333" d="M15.07,26.704c-0.01,0-0.02,0-0.03-0.001c-0.225-0.012-0.421-0.16-0.494-0.373l-4.16-12.064
			c-0.1-0.29,0.054-0.605,0.344-0.705c0.29-0.1,0.605,0.054,0.705,0.344l3.715,10.774l5.034-10.691
			c0.131-0.277,0.462-0.395,0.738-0.266c0.277,0.131,0.396,0.461,0.265,0.738l-5.616,11.925
			C15.48,26.581,15.284,26.704,15.07,26.704z"/>
	</g>
	<g>
		<path fill="#333333" d="M23.182,30.656c-0.306,0-0.555-0.248-0.555-0.555V19.493c0-0.306,0.248-0.555,0.555-0.555
			c0.306,0,0.555,0.248,0.555,0.555v10.608C23.736,30.408,23.488,30.656,23.182,30.656z"/>
	</g>
	<g>
		<path fill="#333333" d="M9.038,33.707c-0.306,0-0.555-0.248-0.555-0.555v-11.44c0-0.306,0.248-0.555,0.555-0.555
			s0.555,0.248,0.555,0.555v11.44C9.592,33.458,9.344,33.707,9.038,33.707z"/>
	</g>
	<g>
		<path fill="#80007F" d="M4.462,37.203c-2.157,0-3.913-1.755-3.913-3.913s1.755-3.913,3.913-3.913s3.913,1.755,3.913,3.913
			S6.619,37.203,4.462,37.203z M4.462,30.487c-1.546,0-2.803,1.258-2.803,2.803s1.257,2.803,2.803,2.803s2.803-1.257,2.803-2.803
			S6.007,30.487,4.462,30.487z"/>
	</g>
	<g>
		<path fill="#80007F" d="M40.896,37.104c-0.001,0-0.002,0-0.004,0L9.339,36.896c-0.037,0.003-0.097,0.007-0.173,0.007
			c-0.504,0-0.929-0.158-1.197-0.446c-0.165-0.177-0.353-0.491-0.318-0.987c0.006-0.087,0.008-0.178,0.01-0.272
			c0.028-1.309,0.365-2.719,4.071-4.289c1.632-0.692,3.743-1.042,6.274-1.042c3.428,0,6.586,0.637,8.399,1.234
			c0.43,0.141,0.893,0.335,1.384,0.541c1.277,0.534,2.725,1.14,4.436,1.235c0.726,0.04,1.554,0.061,2.463,0.061
			c0.943,0,1.779-0.022,2.29-0.04v-0.648c-0.076-0.33-0.277-1.486,0.377-2.341c0.43-0.561,1.108-0.846,2.015-0.846
			c1.83,0,2.016,1.863,2.077,2.475c0.002,0.018,0.003,0.037,0.003,0.055v4.957c0,0.148-0.059,0.289-0.164,0.394
			C41.183,37.046,41.043,37.104,40.896,37.104z M9.316,35.787c0.001,0,0.002,0,0.002,0l31.023,0.204V31.62
			c-0.151-1.45-0.624-1.45-0.971-1.45c-0.542,0-0.922,0.138-1.132,0.409c-0.338,0.438-0.237,1.202-0.17,1.46
			c0.012,0.046,0.019,0.095,0.019,0.143v1.248c0,0.296-0.232,0.54-0.527,0.554c-0.013,0.001-1.295,0.062-2.872,0.062
			c-0.929,0-1.778-0.021-2.525-0.062c-1.901-0.106-3.51-0.779-4.803-1.32c-0.47-0.197-0.914-0.382-1.302-0.51
			c-1.652-0.544-4.752-1.178-8.052-1.178c-2.348,0-4.367,0.33-5.841,0.954c-3.355,1.422-3.377,2.459-3.395,3.291
			c-0.002,0.114-0.005,0.223-0.012,0.328c-0.002,0.028-0.006,0.121,0.023,0.152c0.043,0.046,0.189,0.092,0.385,0.092
			c0.046,0,0.078-0.002,0.087-0.004C9.273,35.788,9.296,35.787,9.316,35.787z"/>
	</g>
	<g>
		<path fill="#80007F" d="M22.427,37.374H9.015c-1.143,0-2.073-0.93-2.073-2.073s0.93-2.073,2.073-2.073h13.413
			c1.143,0,2.073,0.93,2.073,2.073S23.57,37.374,22.427,37.374z M9.015,34.338c-0.531,0-0.963,0.432-0.963,0.963
			s0.432,0.963,0.963,0.963h13.413c0.531,0,0.963-0.432,0.963-0.963s-0.432-0.963-0.963-0.963H9.015z"/>
	</g>
</g>
</svg>
