<?xml version="1.0" encoding="utf-8"?>
<!-- Generator: Adobe Illustrator 17.0.0, SVG Export Plug-In . SVG Version: 6.00 Build 0)  -->
<!DOCTYPE svg PUBLIC "-//W3C//DTD SVG 1.1//EN" "http://www.w3.org/Graphics/SVG/1.1/DTD/svg11.dtd">
<svg version="1.1" id="Capa_1" xmlns="http://www.w3.org/2000/svg" xmlns:xlink="http://www.w3.org/1999/xlink" x="0px" y="0px"
	 width="42px" height="42px" viewBox="0 0 42 42" enable-background="new 0 0 42 42" xml:space="preserve">
<g>
	<g>
		<g>
			<path fill="#FFFFFF" d="M29.515,17.601l-2.926-2.953v-4.36c0-0.454-0.367-0.804-0.822-0.804c-0.426,0-0.778,0.351-0.778,0.804
				v2.761l-5.252-5.283c-0.161-0.163-0.352-0.25-0.543-0.25c-0.22,0-0.411,0.091-0.572,0.25L5.433,20.954
				c-0.316,0.316-0.337,0.823,0,1.114c0.293,0.338,0.798,0.316,1.115,0L19.194,9.452l9.176,9.294
				c0.131,0.131,0.323,0.207,0.572,0.207c0.22,0,0.411-0.075,0.572-0.207C29.808,18.452,29.83,17.92,29.515,17.601z"/>
		</g>
	</g>
	<path fill="#FFFFFF" d="M28.521,32.25h-6.48v-7.504c0-0.422-0.352-0.792-0.778-0.792h-4.137c-0.455,0-0.822,0.369-0.822,0.792
		v7.504h-5.707V21.587c0-0.426-0.352-0.779-0.807-0.779c-0.425,0-0.777,0.354-0.777,0.779v11.471c0,0.426,0.352,0.779,0.777,0.779
		h7.336c0.425,0,0.777-0.354,0.777-0.779v-7.504h2.553v7.504c0,0.426,0.352,0.779,0.807,0.779h7.258
		C28.521,33.837,28.521,32.25,28.521,32.25z"/>
	<path fill="#FFFFFF" d="M33.131,23.544c0.037,0,0.323,0.437,0.324,0.437c0.018,0.043,0.007,0.092-0.026,0.123
		c-1.862,1.714-3.32,4.077-3.761,5.206c-0.013,0.036-0.044,0.06-0.08,0.068c-0.007,0.002-0.016,0.002-0.021,0.002
		c-0.03,0-0.058-0.01-0.078-0.033l-2.741-2.786c-0.022-0.022,0.773-0.728,0.841-0.728c0.001,0,0.002,0,0.003,0.001l1.505,1.179
		c0.586-0.689,2.03-2.24,4.032-3.467C33.129,23.544,33.13,23.544,33.131,23.544 M33.131,22.7h-0.236l-0.204,0.123
		c-1.65,1.012-2.935,2.23-3.696,3.038l-0.884-0.692l-0.229-0.18l-0.294-0.001c0,0,0,0-0.001,0c-0.572,0-1.519,1.009-1.616,1.237
		l-0.219,0.513l0.386,0.406l2.74,2.786c0.177,0.187,0.426,0.293,0.687,0.293h0.104l0.122-0.027c0.296-0.066,0.552-0.289,0.665-0.59
		c0.397-1.014,1.801-3.279,3.543-4.882c0.299-0.282,0.388-0.713,0.23-1.078l-0.064-0.148l-0.054-0.054
		C33.811,22.992,33.595,22.7,33.131,22.7L33.131,22.7z"/>
	<path fill="#FFFFFF" d="M35.337,18.849c-3.185,0-3.96-0.951-3.972-0.951v0.001c-0.238-0.518-0.741-0.847-1.343-0.859
		c-0.57,0-1.095,0.334-1.304,0.79c-0.007,0.011-0.742,1.019-4.006,1.019c-0.814,0-1.477,0.662-1.477,1.475v7.425
		c0,3.772,5.559,6.331,6.193,6.611c0.189,0.082,0.389,0.125,0.595,0.125c0.213,0,0.418-0.044,0.604-0.129
		c0.633-0.277,6.185-2.812,6.185-6.607V20.32C36.806,19.509,36.145,18.849,35.337,18.849z M30.025,19.038
		c0.498,0.565,1.813,1.526,5.014,1.582v7.13c0,2.467-4.205,4.553-5.016,4.933c-1.804-0.824-5.014-2.835-5.014-4.933v-7.13
		C28.228,20.565,29.535,19.6,30.025,19.038z"/>
</g>
</svg>
