<?xml version="1.0" encoding="utf-8"?>
<!-- Generator: Adobe Illustrator 23.0.3, SVG Export Plug-In . SVG Version: 6.00 Build 0)  -->
<svg version="1.1" id="Layer_1" xmlns="http://www.w3.org/2000/svg" xmlns:xlink="http://www.w3.org/1999/xlink" x="0px" y="0px"
	 viewBox="0 0 42 42" style="enable-background:new 0 0 42 42;" xml:space="preserve">
<style type="text/css">
	.st0{fill:#212121;}
	.st1{fill:#80007F;}
</style>
<g>
	<path class="st0" d="M32.7,41.3H9.9c-2.3,0-4.2-1.9-4.2-4.2V4.8c0-2.3,1.9-4.2,4.2-4.2h18.9l8.1,8.7v27.8
		C36.9,39.4,35,41.3,32.7,41.3z M9.9,1.8c-1.7,0-3,1.4-3,3v32.3c0,1.7,1.4,3,3,3h22.8c1.7,0,3-1.4,3-3V9.8l-7.5-8H9.9z"/>
	<path class="st0" d="M22.1,13.4H11.9c-0.3,0-0.6-0.3-0.6-0.6s0.3-0.6,0.6-0.6h10.3c0.3,0,0.6,0.3,0.6,0.6S22.4,13.4,22.1,13.4z"/>
	<path class="st0" d="M31.2,16.7H11.9c-0.3,0-0.6-0.3-0.6-0.6c0-0.3,0.3-0.6,0.6-0.6h19.2c0.3,0,0.6,0.3,0.6,0.6
		C31.8,16.4,31.5,16.7,31.2,16.7z"/>
	<path class="st0" d="M31.2,19.9H11.9c-0.3,0-0.6-0.3-0.6-0.6c0-0.3,0.3-0.6,0.6-0.6h19.2c0.3,0,0.6,0.3,0.6,0.6
		C31.8,19.6,31.5,19.9,31.2,19.9z"/>
	<path class="st0" d="M31.2,23.1H11.9c-0.3,0-0.6-0.3-0.6-0.6c0-0.3,0.3-0.6,0.6-0.6h19.2c0.3,0,0.6,0.3,0.6,0.6
		C31.8,22.8,31.5,23.1,31.2,23.1z"/>
	<g>
		<path class="st1" d="M25.5,32.1c1,0,1.4,0.5,1.3,1.2c-0.1,0.4-0.2,0.8-0.4,1.2c-0.2,0.5-0.1,0.6,0.4,0.8c0.3,0.1,0.5,0.2,0.8,0.3
			c0.6,0.3,0.8,1.1,0.5,1.7c-0.4,0.7-1.4,1-2,0.6c-1.4-0.8-2.3-2-2.8-3.5c-0.1-0.2,0-0.6,0.1-0.8C23.8,32.6,24.6,32.2,25.5,32.1z"/>
		<path class="st1" d="M29.9,29.1c0.2,0,0.4,0,0.5,0.1c1.4,0.3,2,1,1.7,2.4c-0.2,1-0.5,2-1.1,2.9c-0.5,0.8-1.1,1-1.9,0.7
			c-1-0.3-1.3-1.5-0.5-2.2c0.2-0.2,0.4-0.3,0.6-0.5c0.2-0.2,0.3-0.4,0.1-0.6c-0.2-0.2-0.4-0.5-0.6-0.7c-0.2-0.2-0.3-0.5-0.4-0.7
			c-0.2-0.6,0.3-1.2,1-1.3C29.6,29.1,29.8,29.1,29.9,29.1z"/>
		<path class="st1" d="M26.9,31.1c0,0.4-0.3,0.7-0.8,0.7c-0.4,0-0.7-0.3-0.7-0.7c0-0.4,0.3-0.7,0.7-0.7
			C26.6,30.3,26.9,30.7,26.9,31.1z"/>
		<path class="st1" d="M28.3,27.6c0.4,0,0.7,0.3,0.7,0.7c0,0.4-0.3,0.8-0.7,0.8c-0.4,0-0.7-0.3-0.7-0.7C27.6,28,27.9,27.7,28.3,27.6
			z"/>
		<path class="st1" d="M24.6,31c0.3,0,0.4,0.2,0.4,0.4c0,0.3-0.2,0.4-0.4,0.4c-0.3,0-0.4-0.2-0.4-0.4C24.2,31.1,24.4,31,24.6,31z"/>
		<path class="st1" d="M30.4,28.2c0,0.3-0.2,0.5-0.4,0.5c-0.3,0-0.4-0.2-0.4-0.4c0-0.3,0.2-0.4,0.4-0.4
			C30.2,27.7,30.3,27.9,30.4,28.2z"/>
		<path class="st1" d="M31.6,28.5c-0.1,0.1-0.3,0.3-0.4,0.3c-0.2,0-0.4-0.1-0.4-0.4c0-0.1,0.2-0.3,0.3-0.3c0.1,0,0.3,0.2,0.4,0.2
			C31.6,28.4,31.6,28.5,31.6,28.5z"/>
		<path class="st1" d="M23.5,32.5c-0.1-0.1-0.3-0.3-0.3-0.4c0-0.1,0.2-0.3,0.3-0.3c0.1,0,0.4,0.2,0.4,0.3c0,0.1-0.2,0.3-0.3,0.4
			C23.6,32.5,23.5,32.5,23.5,32.5z"/>
		<path class="st1" d="M32.4,29c-0.2,0.1-0.2,0.3-0.3,0.3c-0.1,0-0.3-0.2-0.3-0.3c0-0.1,0.2-0.3,0.3-0.3
			C32.2,28.6,32.2,28.8,32.4,29z"/>
		<path class="st1" d="M22.8,33.1c-0.1-0.2-0.3-0.2-0.3-0.3c0-0.1,0.2-0.3,0.3-0.3c0.1,0,0.3,0.2,0.3,0.3
			C23.1,32.9,23,32.9,22.8,33.1z"/>
	</g>
	<polyline class="st1" points="13.8,33 11.4,37 13.4,36.3 14.4,37.8 15,33.3 	"/>
	<polyline class="st1" points="17.4,32.7 19.8,36.7 17.7,36 16.7,37.5 16.2,33 	"/>
	<path class="st0" d="M15.4,33.7c-2,0-3.5-1.6-3.5-3.5s1.6-3.5,3.5-3.5s3.5,1.6,3.5,3.5S17.4,33.7,15.4,33.7z M15.4,27.8
		c-1.3,0-2.4,1.1-2.4,2.4s1.1,2.4,2.4,2.4s2.4-1.1,2.4-2.4S16.7,27.8,15.4,27.8z"/>
	<circle class="st1" cx="15.4" cy="30.1" r="0.9"/>
	<polygon class="st0" points="36.3,9.9 28.1,9.9 28.1,1.2 29.3,1.2 29.3,8.7 36.3,8.7 	"/>
	<g>
		<path class="st0" d="M15.2,8.6l-1.7-2.4L12.3,8c-0.2,0.3-0.5,0.3-0.8,0.1c-0.3-0.2-0.3-0.5-0.1-0.8l2.2-3l1.7,2.4l1.7-2.4l2.2,3
			c0.2,0.3,0.1,0.6-0.1,0.8c-0.3,0.2-0.6,0.1-0.8-0.1l-1.3-1.7L15.2,8.6z"/>
		<path class="st0" d="M18.6,8.2c-0.1,0-0.2,0-0.3-0.1c-0.3-0.2-0.3-0.5-0.1-0.8l2.2-3l2.2,3c0.2,0.3,0.1,0.6-0.1,0.8
			c-0.3,0.2-0.6,0.1-0.8-0.1l-1.3-1.7L19.1,8C19,8.1,18.8,8.2,18.6,8.2z"/>
	</g>
</g>
</svg>
