<?xml version="1.0" encoding="utf-8"?>
<!-- Generator: Adobe Illustrator 17.0.0, SVG Export Plug-In . SVG Version: 6.00 Build 0)  -->
<!DOCTYPE svg PUBLIC "-//W3C//DTD SVG 1.1//EN" "http://www.w3.org/Graphics/SVG/1.1/DTD/svg11.dtd">
<svg version="1.1" id="Layer_1" xmlns="http://www.w3.org/2000/svg" xmlns:xlink="http://www.w3.org/1999/xlink" x="0px" y="0px"
	 width="42px" height="42px" viewBox="0 0 42 42" enable-background="new 0 0 42 42" xml:space="preserve">
<g>
	<g>
		<path fill="#FFFFFF" d="M22.257,36.96c-1.128,0-2.046-0.918-2.046-2.046v-6.611h1v6.611c0,0.577,0.469,1.046,1.046,1.046
			s1.046-0.469,1.046-1.046v-5.469h1v5.469C24.303,36.042,23.385,36.96,22.257,36.96z"/>
	</g>
	<g>
		<path fill="#FFFFFF" d="M26.201,30.231l-10.383-1.837l0.824-2.096c-0.377-0.696-1.394-2.875-0.607-4.904
			c0.535-1.378,1.771-2.377,3.68-2.971c0.295-1.022,1.194-2.549,3.01-2.549c0.243,0,0.499,0.028,0.76,0.083
			c2.292,0.529,2.688,2.11,2.58,2.873L26.201,30.231z M17.196,27.623l7.992,1.413L25.07,18.765c0.02-0.204,0.101-1.393-1.8-1.831
			c-0.184-0.039-0.37-0.059-0.545-0.059c-1.691,0-2.098,2.021-2.102,2.041l-0.058,0.303l-0.297,0.084
			c-1.748,0.492-2.857,1.316-3.299,2.449c-0.753,1.936,0.636,4.221,0.65,4.243l0.132,0.213L17.196,27.623z"/>
	</g>
	<g>
		<path fill="#FFFFFF" d="M19.311,24.806l-0.126-0.12c-0.663-0.634-0.93-1.192-0.818-1.707c0.094-0.436,0.457-0.775,1.048-0.981
			c0.451-0.156,1.554-0.342,2.124-0.432l-0.124-1.335c-0.268-2.471,0.043-2.954,1.114-3.147c0.186-0.034,0.322-0.046,0.448-0.046
			c0.437,0,0.813,0.149,1.092,0.431c0.529,0.537,0.533,1.359,0.532,1.452l0.342,3.363c0.275,1.335-0.601,1.914-1.102,2.028
			L19.311,24.806z M22.976,17.788c-0.085,0-0.178,0.009-0.277,0.027c-0.53,0.095-0.777,0.14-0.538,2.34l0.189,2.047l-0.353,0.052
			c-0.498,0.072-1.889,0.296-2.336,0.452c-0.152,0.053-0.512,0.201-0.562,0.432c-0.044,0.203,0.13,0.521,0.482,0.884l4.135-0.449
			c0.075-0.022,0.68-0.228,0.485-1.177l-0.35-3.444c-0.001-0.207-0.057-0.693-0.32-0.959C23.394,17.855,23.213,17.788,22.976,17.788
			z"/>
	</g>
	<g>
		<path fill="#FFFFFF" d="M25.424,28.571c-0.023,0-0.048-0.002-0.072-0.007l-4.25-0.833c-0.203-0.04-0.335-0.237-0.296-0.44
			c0.041-0.203,0.239-0.334,0.44-0.296l4.25,0.833c0.203,0.04,0.336,0.237,0.296,0.44C25.757,28.447,25.599,28.571,25.424,28.571z"
			/>
	</g>
	<g>
		<path fill="#FFFFFF" d="M22.674,36.946c-0.206,0-0.373-0.166-0.375-0.372l-0.042-4.833c-0.002-0.207,0.165-0.376,0.372-0.378
			c0.001,0,0.002,0,0.003,0c0.206,0,0.373,0.166,0.375,0.372l0.042,4.833c0.002,0.207-0.165,0.376-0.372,0.378
			C22.676,36.946,22.675,36.946,22.674,36.946z"/>
	</g>
	<g>
		<path fill="#FFFFFF" d="M21.313,16.334c-2.943,0-3.852-2.765-3.929-4.282l-0.292-0.789c-0.051-0.137-0.017-0.292,0.086-0.396
			c0,0,0.126-0.127,1.358-1.233c0.867-0.662,1.748-0.987,2.641-0.987c2.934,0,4.945,3.464,5.03,3.612
			c0.079,0.14,0.061,0.315-0.047,0.436c-0.759,0.85-3.327,3.625-4.498,3.625C21.561,16.33,21.435,16.334,21.313,16.334z
			 M17.883,11.237l0.226,0.609c0.014,0.037,0.021,0.077,0.023,0.116c0.006,0.153,0.196,3.863,3.503,3.609
			c0.574-0.001,2.356-1.606,3.779-3.167c-0.48-0.737-2.133-3.006-4.236-3.006c-0.725,0-1.453,0.274-2.163,0.815
			C18.384,10.781,18.053,11.081,17.883,11.237z"/>
	</g>
	<g>
		<path fill="#FFFFFF" d="M20.985,13.192c-2.443,0-3.312-0.689-3.412-0.776c-0.156-0.136-0.173-0.373-0.037-0.529
			s0.37-0.17,0.525-0.041c0.03,0.024,0.981,0.743,3.767,0.568c0.203-0.009,0.385,0.145,0.396,0.352
			c0.013,0.207-0.145,0.385-0.352,0.397C21.556,13.183,21.261,13.192,20.985,13.192z"/>
	</g>
	<g>
		<path fill="#FFFFFF" d="M23.725,14.915h-1.531c-0.161,0-0.305-0.104-0.355-0.256c-0.034-0.103-0.022-0.212,0.028-0.302
			c0.017-0.062,0.073-0.341,0.077-1.234c-0.704-1.442-3.345-2.634-3.372-2.646c-0.189-0.084-0.274-0.306-0.189-0.495
			c0.084-0.189,0.307-0.275,0.495-0.189c0.123,0.055,3.015,1.36,3.784,3.097c0.021,0.048,0.032,0.1,0.032,0.152
			c0,0.511-0.016,0.87-0.041,1.125h1.072c0.207,0,0.375,0.168,0.375,0.375S23.932,14.915,23.725,14.915z"/>
	</g>
	<polygon fill="#FFFFFF" points="18.663,5.696 17.319,7.79 18.132,7.727 18.054,8.961 19.241,7.071 18.475,7.071 	"/>
	<polygon fill="#FFFFFF" points="20.663,5.04 19.319,7.133 20.132,7.071 20.054,8.305 21.241,6.415 20.475,6.415 	"/>
	<polygon fill="#FFFFFF" points="22.71,5.29 21.366,7.383 22.179,7.321 22.1,8.555 23.288,6.665 22.522,6.665 	"/>
</g>
</svg>
