<?xml version="1.0" encoding="utf-8"?>
<!-- Generator: Adobe Illustrator 17.0.0, SVG Export Plug-In . SVG Version: 6.00 Build 0)  -->
<!DOCTYPE svg PUBLIC "-//W3C//DTD SVG 1.1//EN" "http://www.w3.org/Graphics/SVG/1.1/DTD/svg11.dtd">
<svg version="1.1" id="Layer_1" xmlns="http://www.w3.org/2000/svg" xmlns:xlink="http://www.w3.org/1999/xlink" x="0px" y="0px"
	 width="45px" height="42px" viewBox="0 0 42 42" enable-background="new 0 0 42 42" xml:space="preserve">
<g>
	<g>
		<g>
			<path fill="#333333" d="M27.846,23.864c0-0.073,0-5.438,0-5.51c0-1.139-0.927-2.066-2.066-2.066
				c-0.269,0-0.526,0.052-0.762,0.146c-0.239-0.877-1.042-1.524-1.994-1.524c-0.269,0-0.526,0.052-0.762,0.146
				c-0.239-0.877-1.042-1.524-1.994-1.524c-0.951,0-1.755,0.646-1.994,1.523c-0.236-0.094-0.493-0.145-0.761-0.145
				c-1.139,0-2.066,0.927-2.066,2.066v1.378c0,0.001,0,0.001,0,0.002c-0.836,0.629-1.378,1.629-1.378,2.753v2.755
				c0,1.873,1.089,3.567,2.755,4.358v0.628c-0.802,0.284-1.378,1.05-1.378,1.948v1.378c0,0.38,0.308,0.689,0.689,0.689h9.643
				c0.38,0,0.689-0.308,0.689-0.689v-1.378c0-0.898-0.576-1.664-1.378-1.948v-0.628C26.757,27.43,27.846,25.737,27.846,23.864z
				 M25.091,18.353c0-0.38,0.309-0.689,0.689-0.689c0.38,0,0.689,0.309,0.689,0.689v1.378c0,0.38-0.309,0.689-0.689,0.689h0
				c-0.38,0-0.689-0.309-0.689-0.689V18.353z M22.336,16.976c0-0.38,0.309-0.689,0.689-0.689c0.38,0,0.689,0.309,0.689,0.689
				c0,0.292,0,2.463,0,2.755c0,0.38-0.309,0.689-0.689,0.689h0c-0.38,0-0.689-0.309-0.689-0.689V16.976z M19.581,15.598
				c0-0.38,0.309-0.689,0.689-0.689c0.38,0,0.689,0.309,0.689,0.689c0,0.503,0,1.761,0,2.185c-0.216-0.076-0.447-0.118-0.689-0.118
				h-0.689V15.598z M16.825,16.976c0-0.38,0.309-0.689,0.689-0.689c0.38,0,0.689,0.309,0.689,0.689v0.689h-0.689
				c-0.236,0-0.466,0.024-0.689,0.069V16.976z M25.091,31.486h-8.266v-0.689c0-0.38,0.309-0.689,0.689-0.689h6.888
				c0.38,0,0.689,0.309,0.689,0.689V31.486z M24.173,27.112c-0.275,0.097-0.459,0.357-0.459,0.649v0.97h-5.51v-0.97
				c0-0.292-0.184-0.552-0.459-0.649c-1.373-0.485-2.296-1.791-2.296-3.248v-2.755c0-1.139,0.927-2.066,2.066-2.066h2.755
				c0.38,0,0.689,0.309,0.689,0.689c0,0.38-0.309,0.689-0.689,0.689h-2.755c-0.38,0-0.689,0.308-0.689,0.689
				c0,0.38,0.308,0.689,0.689,0.689c1.899,0,3.444,1.545,3.444,3.444c0,0.38,0.308,0.689,0.689,0.689s0.689-0.308,0.689-0.689
				c0-1.385-0.587-2.636-1.525-3.516c0.315-0.086,0.604-0.247,0.837-0.456c0.366,0.328,0.849,0.528,1.378,0.528
				s1.012-0.2,1.378-0.528c0.366,0.328,0.849,0.528,1.378,0.528c0.241,0,0.473-0.042,0.689-0.118v2.185
				C26.469,25.321,25.546,26.626,24.173,27.112z"/>
		</g>
	</g>
	<g>
		<g>
			<g>
				<path fill="#333333" d="M21.647,9.353c-0.38,0-0.689,0.308-0.689,0.689v2.112c0,0.38,0.308,0.689,0.689,0.689
					s0.689-0.308,0.689-0.689v-2.112C22.336,9.661,22.027,9.353,21.647,9.353z"/>
			</g>
		</g>
		<g>
			<g>
				<path fill="#333333" d="M27.645,10.978c-0.269-0.269-0.705-0.269-0.974,0l-1.378,1.378c-0.269,0.269-0.269,0.705,0,0.974
					c0.269,0.269,0.705,0.269,0.974,0l1.378-1.378C27.914,11.683,27.914,11.247,27.645,10.978z"/>
			</g>
		</g>
		<g>
			<g>
				<path fill="#333333" d="M31.29,19.042h-1.378c-0.38,0-0.689,0.308-0.689,0.689c0,0.38,0.308,0.689,0.689,0.689h1.378
					c0.38,0,0.689-0.308,0.689-0.689C31.979,19.35,31.671,19.042,31.29,19.042z"/>
			</g>
		</g>
		<g>
			<g>
				<path fill="#333333" d="M12.004,19.042h-1.378c-0.38,0-0.689,0.308-0.689,0.689c0,0.38,0.308,0.689,0.689,0.689h1.378
					c0.38,0,0.689-0.308,0.689-0.689C12.693,19.35,12.384,19.042,12.004,19.042z"/>
			</g>
		</g>
		<g>
			<g>
				<path fill="#333333" d="M18.001,12.356l-1.378-1.378c-0.269-0.269-0.705-0.269-0.974,0s-0.269,0.705,0,0.974l1.378,1.378
					c0.269,0.269,0.705,0.269,0.974,0C18.27,13.061,18.27,12.625,18.001,12.356z"/>
			</g>
		</g>
		<g>
			<g>
				<path fill="#333333" d="M13.69,14.293l-1.378-0.689c-0.34-0.17-0.754-0.032-0.924,0.308c-0.17,0.34-0.032,0.754,0.308,0.924
					l1.378,0.689c0.34,0.17,0.754,0.032,0.924-0.308C14.168,14.877,14.03,14.463,13.69,14.293z"/>
			</g>
		</g>
		<g>
			<g>
				<path fill="#333333" d="M30.529,13.912c-0.17-0.34-0.584-0.478-0.924-0.308l-1.378,0.689c-0.34,0.17-0.478,0.584-0.308,0.924
					c0.17,0.34,0.584,0.478,0.924,0.308l1.378-0.689C30.561,14.666,30.699,14.253,30.529,13.912z"/>
			</g>
		</g>
	</g>
	<g>
		<g>
			<path fill="#80007F" d="M21,34.598c-7.498,0-13.598-6.1-13.598-13.598c0-7.498,6.1-13.598,13.598-13.598
				c7.498,0,13.598,6.1,13.598,13.598C34.598,28.498,28.498,34.598,21,34.598z M21,8.402C14.054,8.402,8.402,14.054,8.402,21
				S14.054,33.598,21,33.598S33.598,27.946,33.598,21S27.946,8.402,21,8.402z"/>
		</g>
		<g>
			
				<rect x="21.125" y="8.484" transform="matrix(0.7105 0.7037 -0.7037 0.7105 21.4766 -8.957)" fill="#80007F" width="0.999" height="26.281"/>
		</g>
	</g>
</g>
</svg>
