<?xml version="1.0" encoding="utf-8"?>
<!-- Generator: Adobe Illustrator 17.0.0, SVG Export Plug-In . SVG Version: 6.00 Build 0)  -->
<!DOCTYPE svg PUBLIC "-//W3C//DTD SVG 1.1//EN" "http://www.w3.org/Graphics/SVG/1.1/DTD/svg11.dtd">
<svg version="1.1" id="Capa_1" xmlns="http://www.w3.org/2000/svg" xmlns:xlink="http://www.w3.org/1999/xlink" x="0px" y="0px"
	 width="42px" height="42px" viewBox="0 0 42 42" enable-background="new 0 0 42 42" xml:space="preserve">
<g>
	<g>
		<path fill="#333333" d="M20.933,37.442L7.341,37.407L7.47,13.463c-0.086-0.71,0.14-1.17,0.347-1.432
			c0.456-0.578,1.151-0.663,1.229-0.671l0.044-0.003l5.805-0.125c1.422-0.186,1.997,1.079,2.109,1.723l0.008,0.092l0.063,7.533
			c-0.035,0.746,1.077,1.072,1.321,1.135h12.549l0.061,0.495c0.019,0.15,0.435,3.704-1.461,5.786
			c-1.303,1.43-4.821,1.731-7.544,1.731c-0.411,0-0.765-0.007-1.037-0.015L20.933,37.442z M8.477,36.28l11.33,0.028l0.032-7.786
			l0.597,0.036c0.006,0,0.645,0.038,1.566,0.038c3.475,0,5.92-0.496,6.708-1.361c1.175-1.29,1.244-3.428,1.209-4.391l-11.699-0.011
			c-0.877-0.175-2.342-0.852-2.274-2.276l-0.063-7.445c-0.037-0.158-0.214-0.768-0.722-0.768c-0.043,0-0.088,0.004-0.136,0.011
			l-0.072,0.006l-5.805,0.125c-0.057,0.01-0.305,0.064-0.447,0.249c-0.107,0.139-0.142,0.347-0.105,0.616l0.006,0.04l0,0.04
			L8.477,36.28z"/>
	</g>
	<g>
		<path fill="#80007F" d="M24.51,12.153l-0.461,4.676c-0.026,0.264-0.398,3.9,2.828,4.269c0.33,0.038,0.665-0.03,0.967-0.182
			l2.982-0.486l1.082,2.152c0.225,0.448,0.657,0.744,1.157,0.793c0.273,0.027,0.547-0.024,0.794-0.148
			c0.346-0.174,0.605-0.473,0.727-0.842c0.122-0.368,0.093-0.762-0.081-1.109c0,0-1.581-5.438-3.147-5.509
			c-0.332-0.015-0.665,0.03-0.966,0.182l-1.019,0.512l0.219-2.218c0.007-0.074,0.01-0.148,0.011-0.221l2.061,0.203
			c0.822,0.081,1.557-0.522,1.638-1.344c0.081-0.822-0.522-1.557-1.343-1.638l-5.151-0.508C25.111,10.57,24.587,11.38,24.51,12.153z
			 M25.141,12.28c0.027-0.278,0.261-0.572,0.462-0.737c0.307-0.302,0.564-0.389,1.714-0.216l4.587,0.453
			c0.598,0.059,0.888,0.45,0.829,1.048c-0.059,0.598-0.411,0.838-1.009,0.779l-2.7-0.264l-0.306,3.253
			c-0.045,0.715,0.711,0.515,0.711,0.515l1.25-0.629c0.232-0.117,0.281-0.152,0.534-0.127c0.03,0.003,0.058,0.012,0.086,0.019
			c0.003,0.001,0.007,0,0.01,0.001c0.002,0.001,0.004,0.002,0.006,0.002c0.012,0.003,0.024,0.006,0.036,0.008
			c-0.004,0-0.008,0.001-0.013,0.001c0.912,0.307,2.994,5.376,2.734,5.799c-0.146,0.238-0.258,0.402-0.508,0.527
			c-0.501,0.253-0.909,0.074-1.159-0.424l-1.077-2.155l0,0l-0.317-0.581l-3.485,0.696c-1.275,0.31-2.576-0.35-2.747-2.153
			C24.684,17.102,25.141,12.28,25.141,12.28z"/>
		<g>
			<path fill="#80007F" d="M24.937,7.166c0.157-1.587,1.575-2.75,3.162-2.594c1.586,0.157,2.75,1.575,2.593,3.162
				s-1.575,2.75-3.161,2.594C25.944,10.171,24.78,8.753,24.937,7.166z M25.75,7.246c-0.112,1.138,0.722,2.156,1.861,2.268
				c1.138,0.112,2.155-0.722,2.268-1.861s-0.722-2.156-1.86-2.268C26.88,5.273,25.862,6.108,25.75,7.246z"/>
		</g>
	</g>
</g>
</svg>
