<?xml version="1.0" encoding="utf-8"?>
<!-- Generator: Adobe Illustrator 17.0.0, SVG Export Plug-In . SVG Version: 6.00 Build 0)  -->
<!DOCTYPE svg PUBLIC "-//W3C//DTD SVG 1.1//EN" "http://www.w3.org/Graphics/SVG/1.1/DTD/svg11.dtd">
<svg version="1.1" id="Layer_1" xmlns="http://www.w3.org/2000/svg" xmlns:xlink="http://www.w3.org/1999/xlink" x="0px" y="0px"
	 width="42px" height="42px" viewBox="0 0 42 42" enable-background="new 0 0 42 42" xml:space="preserve">
<g>
	<g>
		<g>
			<g>
				<path fill="#FFFFFF" d="M30.622,22.774c-0.415-0.209-0.916-0.044-1.128,0.366c-0.007,0.012-0.645,1.221-1.772,1.221
					c-1.128,0-1.766-1.209-1.769-1.216c-0.208-0.416-0.712-0.583-1.128-0.376c-0.415,0.208-0.583,0.712-0.376,1.128
					c0.044,0.088,1.098,2.145,3.272,2.145s3.228-2.057,3.272-2.145C31.201,23.483,31.034,22.983,30.622,22.774z"/>
				<path fill="#FFFFFF" d="M17.178,22.774c-0.415-0.209-0.916-0.044-1.128,0.366c-0.007,0.012-0.645,1.221-1.772,1.221
					s-1.766-1.209-1.769-1.216c-0.208-0.416-0.711-0.583-1.128-0.376c-0.415,0.208-0.583,0.712-0.376,1.128
					c0.044,0.088,1.098,2.145,3.272,2.145s3.228-2.057,3.272-2.145C17.757,23.483,17.59,22.983,17.178,22.774z"/>
				<path fill="#FFFFFF" d="M21,31.083c-0.927,0-1.681,0.754-1.681,1.681c0,0.926,0.753,1.681,1.681,1.681
					c0.927,0,1.681-0.754,1.681-1.681C22.681,31.838,21.927,31.083,21,31.083z"/>
				<path fill="#FFFFFF" d="M38.646,4.195h0.322L37.894,6.34c-0.13,0.26-0.117,0.569,0.036,0.817
					c0.154,0.248,0.425,0.399,0.716,0.399h1.681c0.464,0,0.84-0.376,0.84-0.84s-0.376-0.84-0.84-0.84h-0.322l1.073-2.145
					c0.13-0.26,0.117-0.569-0.036-0.817c-0.154-0.248-0.425-0.399-0.716-0.399h-1.681c-0.464,0-0.84,0.376-0.84,0.84
					C37.805,3.819,38.181,4.195,38.646,4.195z"/>
				<path fill="#FFFFFF" d="M34.444,8.396h0.11L33.745,9.61c-0.172,0.258-0.189,0.589-0.041,0.862
					c0.146,0.273,0.43,0.444,0.74,0.444h1.681c0.464,0,0.84-0.376,0.84-0.84s-0.376-0.84-0.84-0.84h-0.11l0.809-1.214
					c0.172-0.258,0.189-0.589,0.041-0.862c-0.146-0.273-0.43-0.444-0.74-0.444h-1.681c-0.464,0-0.84,0.376-0.84,0.84
					C33.604,8.02,33.98,8.396,34.444,8.396z"/>
				<path fill="#FFFFFF" d="M38.279,21.033c-1.057-5.039-4.389-9.151-8.876-11.457V1.674c0-0.292-0.151-0.563-0.4-0.716
					c-0.248-0.152-0.559-0.166-0.819-0.035l-4.922,2.482C22.664,2.857,21.874,2.514,21,2.514s-1.664,0.343-2.262,0.892l-4.922-2.482
					c-0.26-0.132-0.572-0.119-0.819,0.035c-0.249,0.153-0.4,0.423-0.4,0.716v7.902c-4.487,2.307-7.819,6.419-8.876,11.457
					c-1.63,0.231-2.888,1.635-2.888,3.328c0,1.693,1.258,3.097,2.888,3.328C5.369,35.541,12.522,41.167,21,41.167
					s15.631-5.626,17.279-13.477c1.63-0.231,2.888-1.635,2.888-3.328C41.167,22.668,39.909,21.264,38.279,21.033z M24.177,4.826
					l3.545-1.788v5.673l-3.545-1.788c0.11-0.332,0.184-0.68,0.184-1.049C24.361,5.507,24.287,5.158,24.177,4.826z M21,4.195
					c0.926,0,1.681,0.754,1.681,1.681S21.926,7.556,21,7.556s-1.681-0.754-1.681-1.681S20.074,4.195,21,4.195z M14.278,3.039
					l3.545,1.788c-0.11,0.332-0.184,0.68-0.184,1.049c0,0.368,0.074,0.717,0.184,1.049l-3.545,1.788V3.039z M37.821,26.043
					l-0.168-0.02c-0.441-0.049-0.83,0.267-0.902,0.699C35.524,34.118,28.9,39.486,21,39.486S6.476,34.118,5.249,26.721
					c-0.067-0.407-0.554-0.683-0.975-0.683c-0.027,0-0.053,0.001-0.08,0.003c-0.926,0-1.681-0.754-1.681-1.681
					c0-0.926,0.754-1.681,1.665-1.681l0.168,0.02c0.422,0.035,0.83-0.267,0.902-0.699C6.3,15.664,11.317,10.828,17.7,9.569
					c-0.289,0.443-0.533,0.913-0.691,1.418c-0.374,1.201-0.249,2.455,0.35,3.532c0.6,1.077,1.601,1.842,2.82,2.156
					c0.327,0.084,0.656,0.124,0.981,0.124c1.74,0,3.384-1.141,3.919-2.856c0.264-0.848,0.176-1.736-0.249-2.497
					c-0.425-0.762-1.133-1.304-1.994-1.525c-0.45-0.115-0.907,0.155-1.023,0.605c-0.116,0.45,0.155,0.908,0.605,1.023
					c0.411,0.105,0.746,0.359,0.945,0.716c0.199,0.355,0.238,0.774,0.112,1.178c-0.372,1.198-1.666,1.918-2.877,1.605
					c-0.769-0.198-1.397-0.675-1.772-1.346c-0.373-0.67-0.449-1.457-0.213-2.213c0.277-0.889,0.864-1.672,1.655-2.208
					c0.005-0.003,0.007-0.009,0.012-0.012c0.24-0.01,0.477-0.03,0.719-0.03c7.9,0,14.524,5.368,15.751,12.765
					c0.071,0.432,0.459,0.732,0.902,0.699l0.153-0.02c0.926,0,1.681,0.754,1.681,1.681C39.486,25.288,38.732,26.042,37.821,26.043z"
					/>
			</g>
		</g>
	</g>
	<path fill="#FFFFFF" d="M29.529,9.649c-0.043-0.023-0.083-0.051-0.126-0.074V1.674c0-0.292-0.151-0.563-0.4-0.716
		c-0.248-0.152-0.559-0.166-0.819-0.034l-4.922,2.482C22.664,2.857,21.874,2.514,21,2.514s-1.664,0.343-2.262,0.892l-4.922-2.482
		c-0.26-0.132-0.572-0.119-0.819,0.034c-0.249,0.153-0.4,0.423-0.4,0.716v7.902C12.597,9.576,19.74,8.636,29.529,9.649z
		 M24.177,4.826l3.545-1.788v5.674l-3.545-1.788c0.11-0.332,0.184-0.68,0.184-1.049C24.361,5.507,24.287,5.159,24.177,4.826z
		 M17.823,6.924l-3.545,1.788V3.039l3.545,1.788c-0.11,0.332-0.184,0.68-0.184,1.049S17.713,6.592,17.823,6.924z M19.32,5.875
		c0-0.926,0.754-1.681,1.68-1.681s1.68,0.754,1.68,1.681c0,0.926-0.754,1.68-1.68,1.68C20.074,7.556,19.32,6.802,19.32,5.875z"/>
</g>
</svg>
