<?xml version="1.0" encoding="utf-8"?>
<!-- Generator: Adobe Illustrator 17.0.0, SVG Export Plug-In . SVG Version: 6.00 Build 0)  -->
<!DOCTYPE svg PUBLIC "-//W3C//DTD SVG 1.1//EN" "http://www.w3.org/Graphics/SVG/1.1/DTD/svg11.dtd">
<svg version="1.1" id="Layer_1" xmlns="http://www.w3.org/2000/svg" xmlns:xlink="http://www.w3.org/1999/xlink" x="0px" y="0px"
	 width="42px" height="42px" viewBox="0 0 42 42" enable-background="new 0 0 42 42" xml:space="preserve">
<line fill="none" stroke="#333333" stroke-linecap="round" stroke-linejoin="round" stroke-miterlimit="10" x1="31" y1="17.5" x2="34" y2="17.5"/>
<g>
	<g>
		<path fill="#333333" d="M24.75,39.167c-0.023,0-0.047-0.002-0.071-0.005l-11-1.584c-0.133-0.02-0.252-0.091-0.332-0.199
			s-0.112-0.244-0.09-0.377l0.962-5.845c-4.087-1.449-8.708-4.86-9.404-12.843C4.399,13.56,6.088,9.26,9.57,6.207
			c3.885-3.408,9.456-4.723,14.903-3.518c4.881,1.201,10.367,5.57,9.885,13.946c2.034,3.5,3.044,5.289,3.044,5.289
			c0.017,0.029,0.03,0.061,0.04,0.093c0.021,0.062,0.184,0.623-0.24,1.19c-0.495,0.665-1.571,1.016-3.201,1.044v7.646
			c0.075,0.204,0.157,0.591-0.093,0.973c-0.39,0.595-1.331,0.795-2.958,0.627c-2.157-0.221-3.358-0.368-3.931-0.443l-1.791,5.762
			C25.162,39.026,24.967,39.167,24.75,39.167z M14.326,36.661l10.073,1.45l1.79-5.76c0.073-0.236,0.317-0.381,0.554-0.346
			c0.011,0.002,1.116,0.17,4.308,0.497c1.759,0.181,2.019-0.177,2.021-0.181C33.028,32.247,33,32.086,33,32v-8.25
			c0-0.135,0.054-0.263,0.15-0.357s0.216-0.15,0.36-0.143c2.104,0.047,2.711-0.42,2.874-0.621c0.098-0.12,0.107-0.23,0.104-0.286
			c-0.21-0.371-1.23-2.168-3.073-5.336c-0.05-0.086-0.073-0.185-0.066-0.284c0.519-7.858-4.581-11.947-9.104-13.06
			c-5.129-1.134-10.37,0.097-14.016,3.296c-3.236,2.838-4.805,6.84-4.418,11.269c0.65,7.452,4.832,10.648,8.599,12.008
			c0.104-0.166,0.302-0.265,0.505-0.229c0.258,0.042,0.437,0.274,0.417,0.529c2.77,0.81,5.117,0.688,5.345,0.673
			c0.267-0.023,0.514,0.19,0.531,0.468c0.018,0.275-0.192,0.513-0.467,0.53c-0.059,0.005-2.557,0.134-5.559-0.739L14.326,36.661z"/>
	</g>
	<g>
		<g>
			<path fill="#80007F" d="M17.813,25.841c-1.505,0-2.631-0.803-3.209-2.274c-0.156,0.02-0.343,0.035-0.547,0.035
				c-0.941,0-1.693-0.314-2.175-0.908c-0.563-0.694-0.732-1.735-0.506-3.099c-0.865-0.501-1.966-1.693-1.618-3.681
				c0.293-1.676,1.001-2.29,1.57-2.505c-0.38-1.067-0.469-2.674,0.991-3.804c0.558-0.506,1.122-0.775,1.649-0.775
				c0.156,0,0.294,0.024,0.414,0.06c0.447-0.642,1.471-1.709,3.342-1.709c0.607,0,1.259,0.117,1.938,0.347L20,7.642v17.683
				l-0.296,0.133C19.668,25.473,18.831,25.841,17.813,25.841z M15.277,22.396l0.139,0.462c0.398,1.335,1.182,1.983,2.396,1.983
				c0.477,0,0.913-0.105,1.187-0.191V8.369c-0.45-0.125-0.878-0.189-1.277-0.189c-1.955,0-2.675,1.523-2.705,1.588l-0.331,0.722
				l-0.509-0.607c0.005,0.008-0.054-0.053-0.21-0.053c-0.153,0-0.486,0.07-1.007,0.542c-1.587,1.231-0.514,3.108-0.467,3.188
				l0.583,0.996L11.952,14.3l0,0c-0.238,0-0.919,0.129-1.209,1.786c-0.358,2.048,1.305,2.732,1.376,2.76l0.392,0.155l-0.084,0.414
				c-0.258,1.227-0.179,2.143,0.231,2.647c0.29,0.357,0.761,0.539,1.399,0.539c0.421,0,0.75-0.084,0.754-0.085L15.277,22.396z"/>
		</g>
		<g>
			<path fill="#80007F" d="M16.371,11.403c-0.333,0-0.813-0.068-1.26-0.377c-0.529-0.365-0.859-0.958-0.98-1.764
				c-0.042-0.273,0.146-0.528,0.419-0.569c0.274-0.045,0.528,0.146,0.569,0.419c0.079,0.517,0.265,0.882,0.554,1.085
				c0.402,0.284,0.91,0.189,0.914,0.187c0.268-0.053,0.533,0.121,0.588,0.39c0.055,0.269-0.114,0.532-0.382,0.589
				C16.755,11.372,16.596,11.403,16.371,11.403z"/>
		</g>
		<g>
			<path fill="#80007F" d="M13.371,15.403c-0.333,0-0.813-0.068-1.26-0.377c-0.529-0.365-0.859-0.958-0.98-1.764
				c-0.042-0.273,0.146-0.528,0.419-0.569c0.273-0.045,0.528,0.146,0.569,0.419c0.079,0.517,0.265,0.882,0.554,1.085
				c0.402,0.284,0.909,0.189,0.914,0.187c0.266-0.055,0.533,0.121,0.588,0.39c0.055,0.269-0.114,0.532-0.382,0.589
				C13.755,15.372,13.596,15.403,13.371,15.403z"/>
		</g>
		<g>
			<path fill="#80007F" d="M12.812,20.168c-0.033,0-0.067-0.001-0.102-0.002c-0.642-0.032-1.235-0.363-1.763-0.982
				c-0.179-0.21-0.153-0.526,0.057-0.705c0.209-0.178,0.525-0.153,0.705,0.057c0.339,0.398,0.689,0.611,1.042,0.631
				c0.498,0.021,0.872-0.319,0.876-0.323c0.2-0.187,0.517-0.177,0.705,0.021c0.188,0.2,0.183,0.512-0.015,0.702
				C14.251,19.631,13.667,20.168,12.812,20.168z"/>
		</g>
		<g>
			<path fill="#80007F" d="M15.062,16.188c-0.247,0-0.461-0.182-0.495-0.434c-0.037-0.273,0.155-0.525,0.429-0.562
				c1.515-0.259,1.755-2.079,1.758-2.097c0.034-0.274,0.278-0.473,0.557-0.435c0.274,0.034,0.469,0.283,0.435,0.557
				c-0.013,0.105-0.342,2.577-2.502,2.948c-0.006,0.001-0.109,0.017-0.115,0.018C15.106,16.186,15.084,16.188,15.062,16.188z"/>
		</g>
		<g>
			<path fill="#80007F" d="M15.062,22.188c-0.247,0-0.461-0.183-0.495-0.434c-0.037-0.273,0.155-0.525,0.429-0.562
				c1.515-0.259,1.755-2.079,1.758-2.097c0.034-0.273,0.278-0.476,0.557-0.435c0.274,0.034,0.469,0.283,0.435,0.557
				c-0.013,0.105-0.342,2.577-2.502,2.949c-0.006,0.001-0.109,0.017-0.115,0.017C15.106,22.187,15.084,22.188,15.062,22.188z"/>
		</g>
	</g>
	<g>
		<g>
			<path fill="#80007F" d="M21.013,25.841c-0.56,0-1.134-0.121-1.705-0.358L19,25.354V7.703l0.289-0.135
				c0.034-0.016,0.842-0.388,1.829-0.388c0.862,0,2.362,0.307,3.125,2.273c0.152-0.019,0.333-0.034,0.529-0.034
				c0.914,0,1.648,0.308,2.121,0.891c0.563,0.693,0.729,1.741,0.499,3.119c0.851,0.503,1.928,1.695,1.58,3.678
				c-0.295,1.685-1.015,2.296-1.591,2.508c0.376,1.067,0.459,2.672-1,3.801c-0.723,0.655-1.469,0.884-1.975,0.713
				C23.888,24.744,22.724,25.841,21.013,25.841z M20,24.673c0.344,0.111,0.683,0.168,1.013,0.168c1.783,0,2.843-1.635,2.854-1.651
				l0.423-0.665l0.422,0.666c-0.018-0.023,0.015,0,0.084,0.001c0.104,0,0.404-0.053,0.944-0.542c1.601-1.24,0.524-3.108,0.478-3.187
				l-0.587-0.995l1.127,0.253h0.001c0.246,0,0.939-0.131,1.229-1.786c0.358-2.05-1.245-2.844-1.315-2.872l-0.331-0.457
				c0.261-1.24,0.184-2.162-0.225-2.665c-0.28-0.346-0.733-0.521-1.345-0.521c-0.409,0-0.73,0.083-0.734,0.084l-0.468,0.124
				l-0.141-0.464c-0.397-1.335-1.154-1.984-2.312-1.984c-0.449,0-0.857,0.103-1.117,0.187V24.673z"/>
		</g>
		<g>
			<path fill="#80007F" d="M24.064,23.333c-0.243,0-0.456-0.178-0.493-0.425c-0.078-0.517-0.265-0.882-0.554-1.085
				c-0.401-0.283-0.908-0.188-0.914-0.187c-0.265,0.05-0.533-0.121-0.588-0.39c-0.055-0.269,0.114-0.532,0.382-0.589
				c0.094-0.021,0.933-0.18,1.681,0.337c0.528,0.366,0.858,0.959,0.98,1.763c0.042,0.273-0.146,0.528-0.419,0.569
				C24.115,23.331,24.09,23.333,24.064,23.333z"/>
		</g>
		<g>
			<path fill="#80007F" d="M27.064,20.333c-0.249,0-0.466-0.187-0.495-0.441c-0.138-1.157-1.531-1.244-1.591-1.247
				c-0.274-0.015-0.487-0.249-0.474-0.524c0.014-0.274,0.209-0.491,0.521-0.475c0.794,0.036,2.347,0.526,2.536,2.128
				c0.033,0.274-0.163,0.523-0.438,0.556C27.104,20.333,27.084,20.333,27.064,20.333z"/>
		</g>
		<g>
			<path fill="#80007F" d="M27.45,14.517c-0.141,0.015-0.287-0.029-0.397-0.135c-0.382-0.364-0.756-0.537-1.112-0.517
				c-0.509,0.023-0.821,0.405-0.825,0.41c-0.176,0.211-0.491,0.239-0.705,0.061c-0.211-0.177-0.239-0.493-0.061-0.705
				c0.062-0.073,0.615-0.719,1.533-0.765c0.642-0.036,1.267,0.23,1.858,0.791c0.2,0.19,0.208,0.507,0.018,0.707
				C27.676,14.454,27.565,14.505,27.45,14.517z"/>
		</g>
		<g>
			<path fill="#80007F" d="M21.441,20.364c-0.021,0-0.042-0.001-0.063-0.004c-0.273-0.035-0.467-0.283-0.434-0.556
				c0.013-0.105,0.342-2.577,2.502-2.948c0.006-0.001,0.108-0.017,0.114-0.018c0.265-0.036,0.525,0.154,0.563,0.428
				c0.038,0.273-0.154,0.525-0.428,0.563c-1.504,0.257-1.749,2.023-1.759,2.099C21.904,20.18,21.688,20.364,21.441,20.364z"/>
		</g>
		<g>
			<path fill="#80007F" d="M21.441,14.364c-0.021,0-0.042-0.001-0.063-0.004c-0.273-0.035-0.467-0.283-0.434-0.556
				c0.013-0.105,0.342-2.577,2.502-2.948c0.006-0.001,0.108-0.017,0.114-0.018c0.265-0.038,0.525,0.154,0.563,0.428
				c0.038,0.273-0.154,0.525-0.428,0.563c-1.504,0.257-1.749,2.023-1.759,2.099C21.904,14.18,21.688,14.364,21.441,14.364z"/>
		</g>
	</g>
</g>
</svg>
