<?xml version="1.0" encoding="utf-8"?>
<!-- Generator: Adobe Illustrator 17.0.0, SVG Export Plug-In . SVG Version: 6.00 Build 0)  -->
<!DOCTYPE svg PUBLIC "-//W3C//DTD SVG 1.1//EN" "http://www.w3.org/Graphics/SVG/1.1/DTD/svg11.dtd">
<svg version="1.1" id="Layer_1" xmlns="http://www.w3.org/2000/svg" xmlns:xlink="http://www.w3.org/1999/xlink" x="0px" y="0px"
	 width="42px" height="42px" viewBox="0 0 42 42" enable-background="new 0 0 42 42" xml:space="preserve">
<path fill="#333333" stroke="#333333" stroke-width="0.5" stroke-miterlimit="10" d="M21.5,38.838
	c-9.56,0-17.337-7.778-17.337-17.338c0-9.56,7.778-17.337,17.337-17.337c9.56,0,17.338,7.778,17.338,17.337
	C38.838,31.06,31.06,38.838,21.5,38.838z M21.5,4.765c-9.228,0-16.735,7.507-16.735,16.735c0,9.228,7.507,16.735,16.735,16.735
	c9.228,0,16.735-7.507,16.735-16.735C38.235,12.272,30.728,4.765,21.5,4.765z"/>
<path fill="#333333" d="M21.5,38.838c-9.56,0-17.337-7.778-17.337-17.338c0-9.56,7.778-17.337,17.337-17.337
	c9.56,0,17.338,7.778,17.338,17.337C38.838,31.06,31.06,38.838,21.5,38.838z M21.5,4.765c-9.228,0-16.735,7.507-16.735,16.735
	c0,9.228,7.507,16.735,16.735,16.735c9.228,0,16.735-7.507,16.735-16.735C38.235,12.272,30.728,4.765,21.5,4.765z"/>
<path fill="#333333" d="M24.768,28.292c0.172,0.172,0.412,0.271,0.656,0.271c0.244,0,0.482-0.099,0.656-0.271
	c0.172-0.174,0.272-0.413,0.272-0.657c0-0.243-0.1-0.484-0.272-0.656s-0.412-0.271-0.656-0.271c-0.245,0-0.484,0.099-0.656,0.271
	c-0.172,0.172-0.272,0.411-0.272,0.656C24.496,27.88,24.596,28.119,24.768,28.292L24.768,28.292z"/>
<path fill="#333333" d="M29.192,22.555c-0.172,0.173-0.272,0.413-0.272,0.657c0,0.245,0.099,0.484,0.272,0.656
	c0.174,0.174,0.412,0.271,0.656,0.271s0.484-0.098,0.656-0.271c0.174-0.172,0.271-0.412,0.271-0.656s-0.098-0.484-0.271-0.657
	c-0.172-0.172-0.411-0.271-0.656-0.271C29.603,22.283,29.365,22.383,29.192,22.555L29.192,22.555z"/>
<path fill="#333333" d="M34.928,20.344c-0.174-0.172-0.412-0.272-0.656-0.272c-0.244,0-0.484,0.1-0.656,0.272
	c-0.172,0.172-0.272,0.412-0.272,0.656s0.1,0.484,0.272,0.656c0.172,0.172,0.412,0.271,0.656,0.271c0.244,0,0.482-0.099,0.656-0.271
	C35.1,21.484,35.2,21.244,35.2,21S35.1,20.516,34.928,20.344L34.928,20.344z"/>
<path fill="#333333" d="M32.06,15.648c-0.245,0-0.484,0.099-0.656,0.273c-0.174,0.172-0.271,0.411-0.271,0.655
	c0,0.245,0.098,0.484,0.271,0.656c0.172,0.174,0.411,0.271,0.656,0.271c0.244,0,0.482-0.098,0.656-0.271
	c0.172-0.172,0.271-0.411,0.271-0.656c0-0.244-0.099-0.482-0.271-0.655C32.543,15.747,32.305,15.648,32.06,15.648L32.06,15.648z"/>
<path fill="#333333" d="M20.999,13.08c0.245,0,0.484-0.099,0.656-0.271c0.174-0.174,0.272-0.412,0.272-0.656
	c0-0.244-0.099-0.482-0.272-0.656c-0.172-0.172-0.411-0.272-0.656-0.272c-0.244,0-0.482,0.1-0.656,0.272
	c-0.172,0.172-0.271,0.412-0.271,0.656c0,0.244,0.099,0.482,0.271,0.656C20.517,12.981,20.755,13.08,20.999,13.08L20.999,13.08z"/>
<path fill="#333333" d="M23.212,8.657c0.244,0,0.482-0.099,0.655-0.273c0.174-0.172,0.272-0.411,0.272-0.656
	c0-0.244-0.098-0.484-0.272-0.656c-0.172-0.172-0.411-0.272-0.655-0.272c-0.245,0-0.484,0.1-0.656,0.272
	c-0.174,0.174-0.271,0.412-0.271,0.656c0,0.245,0.098,0.484,0.271,0.656C22.729,8.558,22.967,8.657,23.212,8.657L23.212,8.657z"/>
<path fill="#333333" d="M15.92,15.919c-0.172,0.174-0.271,0.412-0.271,0.656c0,0.245,0.099,0.484,0.271,0.656
	c0.172,0.174,0.413,0.273,0.656,0.273c0.244,0,0.482-0.099,0.657-0.273c0.172-0.172,0.271-0.411,0.271-0.656
	c0-0.244-0.099-0.482-0.271-0.656c-0.174-0.172-0.413-0.27-0.657-0.27C16.333,15.649,16.092,15.747,15.92,15.919L15.92,15.919z"/>
<path fill="#333333" d="M23.212,17.505c0.244,0,0.482-0.099,0.655-0.273c0.174-0.172,0.272-0.411,0.272-0.655
	c0-0.245-0.098-0.484-0.272-0.657c-0.172-0.172-0.411-0.272-0.655-0.272c-0.245,0-0.484,0.1-0.656,0.272
	c-0.174,0.174-0.271,0.412-0.271,0.657c0,0.244,0.098,0.482,0.271,0.655C22.729,17.405,22.967,17.505,23.212,17.505L23.212,17.505z"
	/>
<path fill="#333333" d="M9.94,26.707c-0.245,0-0.484,0.1-0.657,0.271c-0.172,0.172-0.272,0.413-0.272,0.657
	c0,0.243,0.099,0.482,0.272,0.656c0.172,0.172,0.412,0.271,0.657,0.271c0.243,0,0.482-0.099,0.656-0.271
	c0.172-0.174,0.271-0.413,0.271-0.656c0-0.244-0.099-0.484-0.271-0.657C10.423,26.807,10.184,26.707,9.94,26.707L9.94,26.707z"/>
<path fill="#333333" d="M21.928,25.423c0-0.244-0.098-0.482-0.271-0.655c-0.172-0.174-0.411-0.273-0.656-0.273
	c-0.244,0-0.482,0.099-0.656,0.273c-0.172,0.172-0.271,0.41-0.271,0.655c0,0.245,0.099,0.484,0.271,0.656
	c0.174,0.174,0.412,0.273,0.656,0.273c0.245,0,0.484-0.099,0.656-0.273C21.829,25.907,21.928,25.667,21.928,25.423L21.928,25.423z"
	/>
<g>
	<path fill="#80007F" d="M17.015,9.252c-0.06,0.005-1.486,0.154-2.903,1.368c-0.21,0.18-0.234,0.495-0.054,0.705
		c0.099,0.116,0.239,0.175,0.379,0.175c0.115,0,0.231-0.04,0.325-0.121c1.157-0.991,2.323-1.129,2.349-1.132
		c0.274-0.027,0.475-0.271,0.448-0.545C17.534,9.428,17.29,9.217,17.015,9.252z M12.509,11.878
		c-0.095,0.085-2.324,2.116-2.722,4.637c-0.043,0.273,0.143,0.529,0.416,0.572c0.026,0.004,0.053,0.006,0.079,0.006
		c0.242,0,0.455-0.176,0.493-0.422c0.342-2.167,2.383-4.032,2.404-4.051c0.205-0.185,0.221-0.501,0.036-0.706
		C13.03,11.709,12.714,11.693,12.509,11.878z M10.287,19.765c0-0.756,0.084-1.387,0.085-1.393c0.037-0.274-0.155-0.526-0.429-0.563
		c-0.278-0.034-0.525,0.156-0.563,0.428c-0.004,0.028-0.094,0.7-0.094,1.527c0,0.834,0.091,1.525,0.271,2.053
		c0.071,0.208,0.265,0.339,0.473,0.339c0.054,0,0.108-0.009,0.162-0.026c0.261-0.09,0.401-0.374,0.312-0.635
		C10.362,21.077,10.287,20.479,10.287,19.765z"/>
	<path fill="#80007F" d="M10.031,22.406c-0.321,0-0.606-0.204-0.71-0.509c-0.189-0.553-0.285-1.271-0.285-2.133
		c0-0.855,0.095-1.555,0.096-1.562c0.055-0.406,0.42-0.694,0.84-0.642c0.413,0.056,0.701,0.434,0.646,0.844
		c-0.001,0.008-0.083,0.618-0.083,1.359c0,0.688,0.071,1.258,0.205,1.649c0.133,0.391-0.076,0.817-0.467,0.952
		C10.192,22.394,10.111,22.406,10.031,22.406z M9.905,18.057c-0.156,0-0.26,0.09-0.277,0.214c-0.001,0.007-0.091,0.672-0.091,1.494
		c0,0.807,0.087,1.471,0.258,1.972c0.043,0.127,0.181,0.199,0.321,0.156c0.127-0.044,0.197-0.187,0.153-0.317
		c-0.151-0.442-0.231-1.069-0.231-1.811c0-0.781,0.087-1.429,0.088-1.434c0.017-0.129-0.079-0.256-0.216-0.274
		C9.908,18.057,9.907,18.057,9.905,18.057z M10.282,17.344c-0.04,0-0.08-0.003-0.12-0.01c-0.196-0.031-0.37-0.137-0.488-0.3
		c-0.118-0.162-0.165-0.36-0.134-0.558c0.413-2.616,2.705-4.697,2.802-4.784c0.294-0.266,0.793-0.241,1.059,0.057
		c0.133,0.147,0.201,0.339,0.191,0.539c-0.01,0.2-0.098,0.384-0.247,0.519c-0.081,0.074-2.002,1.866-2.324,3.904
		C10.964,17.078,10.653,17.344,10.282,17.344z M12.844,11.999c-0.062,0-0.121,0.023-0.167,0.065
		c-0.092,0.083-2.257,2.049-2.642,4.491c-0.011,0.066,0.005,0.132,0.044,0.186c0.039,0.054,0.097,0.089,0.163,0.1l0.04,0.003
		c0.122,0,0.228-0.09,0.246-0.21c0.349-2.209,2.394-4.115,2.48-4.195c0.052-0.047,0.082-0.108,0.085-0.175
		c0.003-0.066-0.02-0.13-0.064-0.18C12.98,12.029,12.915,11.999,12.844,11.999z M14.438,11.75c-0.22,0-0.427-0.096-0.57-0.263
		c-0.13-0.151-0.193-0.345-0.178-0.544c0.016-0.2,0.108-0.382,0.26-0.512c1.487-1.275,2.98-1.421,3.043-1.427l0.083-0.005
		c0.375,0,0.697,0.299,0.733,0.681c0.039,0.409-0.262,0.776-0.672,0.817c-0.008,0.001-1.12,0.138-2.211,1.073
		C14.79,11.686,14.617,11.75,14.438,11.75z M17.076,9.499c-0.052,0.004-1.434,0.14-2.801,1.312c-0.051,0.043-0.082,0.104-0.087,0.17
		c-0.005,0.066,0.016,0.131,0.06,0.181c0.075,0.087,0.193,0.165,0.352,0.028c1.21-1.037,2.433-1.185,2.484-1.191
		c0.14-0.014,0.24-0.136,0.227-0.272C17.299,9.601,17.194,9.499,17.076,9.499z"/>
</g>
<g>
	<path fill="#80007F" d="M16.575,32.474c0.046,0.039,1.16,0.942,3.02,1.085c0.276,0.021,0.516-0.184,0.537-0.46
		c0.012-0.152-0.045-0.292-0.145-0.392c-0.081-0.081-0.191-0.135-0.315-0.145c-1.519-0.117-2.441-0.845-2.461-0.861
		c-0.213-0.174-0.527-0.144-0.702,0.068C16.332,31.983,16.356,32.305,16.575,32.474z M21.618,33.803
		c0.127,0.007,3.14,0.147,5.204-1.354c0.224-0.162,0.273-0.475,0.11-0.698c-0.016-0.022-0.033-0.042-0.051-0.06
		c-0.171-0.171-0.446-0.197-0.647-0.05c-1.774,1.29-4.536,1.166-4.564,1.165c-0.275-0.014-0.511,0.198-0.524,0.473
		C21.13,33.555,21.342,33.79,21.618,33.803z M28.766,29.799c-0.535,0.535-1.04,0.921-1.045,0.925
		c-0.22,0.168-0.262,0.481-0.095,0.701c0.173,0.22,0.482,0.261,0.701,0.095c0.023-0.017,0.561-0.429,1.146-1.014
		c0.59-0.59,1.014-1.143,1.26-1.643c0.097-0.197,0.052-0.427-0.095-0.574c-0.038-0.038-0.083-0.07-0.133-0.096
		c-0.248-0.121-0.548-0.019-0.669,0.229C29.641,28.817,29.271,29.294,28.766,29.799z"/>
	<path fill="#80007F" d="M21.921,34.06L21.921,34.06c-0.181,0-0.293-0.005-0.316-0.006c-0.2-0.01-0.384-0.098-0.519-0.247
		s-0.202-0.342-0.19-0.542c0.02-0.397,0.349-0.711,0.749-0.711c0.049,0.002,0.123,0.005,0.245,0.005c0.624,0,2.769-0.081,4.196-1.12
		c0.289-0.211,0.721-0.176,0.972,0.075c0.029,0.031,0.054,0.06,0.076,0.09c0.118,0.162,0.166,0.36,0.134,0.559
		c-0.031,0.198-0.138,0.372-0.3,0.489C25.22,33.923,22.856,34.06,21.921,34.06z M21.66,33.055c-0.149,0-0.259,0.104-0.266,0.236
		c-0.004,0.068,0.019,0.132,0.063,0.181c0.044,0.05,0.106,0.079,0.173,0.082c0.021,0.002,0.124,0.006,0.29,0.006
		c0.886,0,3.123-0.128,4.753-1.313c0.055-0.039,0.09-0.097,0.101-0.163c0.01-0.065-0.006-0.132-0.045-0.186
		c-0.128-0.138-0.252-0.125-0.349-0.056c-1.509,1.097-3.643,1.216-4.491,1.216C21.756,33.059,21.675,33.055,21.66,33.055
		C21.661,33.055,21.661,33.055,21.66,33.055z M19.634,33.812L19.634,33.812l-0.059-0.003c-1.898-0.146-3.036-1.039-3.159-1.141
		c-0.15-0.115-0.248-0.291-0.27-0.49c-0.023-0.203,0.039-0.409,0.169-0.566c0.25-0.306,0.743-0.355,1.053-0.103
		c0.007,0.006,0.886,0.693,2.322,0.805c0.18,0.014,0.348,0.092,0.474,0.219c0.155,0.153,0.234,0.368,0.216,0.588
		C20.352,33.507,20.024,33.812,19.634,33.812z M16.893,31.839c-0.075,0-0.145,0.033-0.192,0.091
		c-0.044,0.054-0.065,0.124-0.058,0.193c0.007,0.063,0.037,0.117,0.085,0.153c0.05,0.041,1.111,0.896,2.886,1.034l0.021,0.251v-0.25
		c0.129,0,0.238-0.102,0.248-0.23c0.006-0.074-0.02-0.145-0.071-0.196c-0.031-0.03-0.082-0.067-0.159-0.073
		c-1.604-0.124-2.589-0.907-2.599-0.915C16.994,31.849,16.934,31.839,16.893,31.839z M28.025,31.871
		c-0.232,0-0.45-0.106-0.596-0.292c-0.253-0.332-0.188-0.804,0.14-1.054c0.087-0.067,0.539-0.422,1.02-0.903
		c0.486-0.486,0.839-0.939,1.021-1.311c0.178-0.361,0.638-0.524,1.004-0.344c0.078,0.039,0.144,0.087,0.2,0.144
		c0.227,0.228,0.283,0.573,0.143,0.861c-0.257,0.524-0.697,1.1-1.308,1.71s-1.168,1.033-1.173,1.037
		C28.346,31.818,28.189,31.871,28.025,31.871z M30.285,28.392c-0.097,0-0.184,0.054-0.226,0.141
		c-0.207,0.42-0.593,0.919-1.117,1.443c-0.502,0.503-0.977,0.875-1.066,0.944c-0.113,0.086-0.135,0.244-0.051,0.354
		c0.08,0.103,0.241,0.129,0.35,0.047c0.007-0.005,0.537-0.407,1.121-0.991c0.571-0.571,0.979-1.103,1.212-1.577
		c0.047-0.096,0.028-0.212-0.048-0.288c-0.019-0.019-0.042-0.035-0.068-0.049C30.36,28.4,30.323,28.392,30.285,28.392z"/>
</g>
<g>
	<path fill="#80007F" d="M16.44,22.424c-2.4,1.149-3.038,3.481-3.064,3.58c-0.07,0.267,0.089,0.54,0.356,0.61
		c0.043,0.012,0.085,0.017,0.128,0.017c0.221,0,0.424-0.148,0.483-0.373c0.005-0.02,0.542-1.98,2.529-2.932
		c0.249-0.119,0.354-0.418,0.235-0.667C16.988,22.409,16.687,22.304,16.44,22.424z M24.004,20.352l-4.969,0.906
		c-0.271,0.049-0.452,0.31-0.402,0.582c0.044,0.241,0.254,0.41,0.491,0.41c0.03,0,0.06-0.003,0.09-0.008l4.969-0.907
		c0.271-0.049,0.451-0.31,0.402-0.582C24.536,20.481,24.269,20.3,24.004,20.352z M28.949,15.721c-0.27-0.025-0.518,0.18-0.541,0.455
		c-0.192,2.224-2.559,3.527-2.583,3.54c-0.242,0.131-0.333,0.434-0.202,0.677c0.09,0.168,0.262,0.263,0.44,0.263
		c0.079,0,0.16-0.019,0.235-0.059c0.117-0.063,2.866-1.566,3.105-4.335C29.428,15.987,29.225,15.744,28.949,15.721z M29.799,13.916
		c-0.035-0.15-0.886-3.701-2.02-4.968c-0.188-0.207-0.503-0.224-0.706-0.039c-0.206,0.184-0.224,0.5-0.04,0.706
		c0.802,0.896,1.565,3.575,1.793,4.532c0.055,0.23,0.26,0.385,0.486,0.385c0.038,0,0.076-0.004,0.115-0.014
		C29.696,14.454,29.862,14.185,29.799,13.916z"/>
	<path fill="#80007F" d="M13.86,26.881c-0.067,0-0.132-0.009-0.194-0.025c-0.191-0.051-0.354-0.174-0.455-0.347
		c-0.101-0.173-0.128-0.375-0.077-0.568c0.027-0.104,0.692-2.542,3.198-3.742c0.355-0.173,0.828-0.009,1,0.354
		c0.178,0.373,0.02,0.821-0.353,1c-1.86,0.891-2.375,2.695-2.396,2.772C14.499,26.65,14.2,26.881,13.86,26.881z M16.655,22.624
		c-0.037,0-0.072,0.009-0.105,0.024c-2.3,1.102-2.907,3.325-2.932,3.419c-0.017,0.064-0.008,0.132,0.026,0.189
		s0.087,0.099,0.152,0.115c0.129,0.035,0.271-0.047,0.306-0.178c0.024-0.088,0.599-2.105,2.663-3.094
		c0.125-0.06,0.177-0.209,0.118-0.334C16.84,22.68,16.751,22.624,16.655,22.624z M19.125,22.5c-0.362,0-0.672-0.259-0.737-0.615
		c-0.036-0.197,0.007-0.396,0.121-0.561c0.114-0.165,0.285-0.275,0.482-0.312l4.969-0.906c0.043-0.008,0.09-0.013,0.137-0.013
		c0.361,0,0.671,0.259,0.736,0.616c0.073,0.408-0.198,0.799-0.604,0.872l-4.969,0.907C19.211,22.496,19.167,22.5,19.125,22.5z
		 M24.096,20.593l-5.016,0.911c-0.066,0.013-0.123,0.049-0.161,0.104c-0.038,0.056-0.052,0.122-0.04,0.188
		c0.024,0.136,0.157,0.225,0.295,0.2l4.964-0.906c0.136-0.024,0.226-0.155,0.201-0.292C24.318,20.682,24.214,20.593,24.096,20.593z
		 M26.063,20.906c-0.277,0-0.53-0.151-0.661-0.396c-0.195-0.362-0.059-0.818,0.304-1.015c0.023-0.013,2.272-1.256,2.453-3.342
		c0.032-0.384,0.36-0.686,0.745-0.686l0.068,0.003c0.197,0.017,0.379,0.111,0.508,0.265c0.129,0.153,0.189,0.347,0.173,0.546
		c-0.25,2.898-3.114,4.469-3.236,4.535C26.308,20.875,26.186,20.906,26.063,20.906z M28.926,15.97c-0.148,0-0.258,0.102-0.269,0.227
		c-0.205,2.371-2.691,3.728-2.717,3.741c-0.117,0.064-0.162,0.216-0.098,0.337c0.063,0.117,0.217,0.167,0.339,0.102
		c0.111-0.06,2.746-1.505,2.974-4.136c0.006-0.066-0.015-0.131-0.058-0.183c-0.043-0.051-0.104-0.082-0.17-0.088
		C28.927,15.97,28.926,15.97,28.926,15.97z M29.313,14.781c-0.349,0-0.648-0.237-0.729-0.577c-0.311-1.307-1.058-3.664-1.736-4.422
		c-0.275-0.309-0.248-0.784,0.06-1.06c0.292-0.263,0.79-0.239,1.059,0.058c1.191,1.333,2.042,4.927,2.077,5.079
		c0.046,0.194,0.014,0.396-0.092,0.566c-0.104,0.171-0.271,0.29-0.465,0.336C29.429,14.774,29.37,14.781,29.313,14.781z
		 M27.405,9.031c-0.062,0-0.119,0.022-0.164,0.063c-0.104,0.093-0.113,0.251-0.021,0.354c1.005,1.122,1.842,4.605,1.85,4.641
		c0.032,0.132,0.165,0.218,0.301,0.186c0.064-0.016,0.12-0.055,0.155-0.112c0.034-0.057,0.046-0.124,0.03-0.189
		c-0.009-0.037-0.856-3.622-1.963-4.859C27.544,9.061,27.478,9.031,27.405,9.031z"/>
</g>
<path fill="#80007F" d="M17.015,9.252c-0.06,0.005-1.486,0.154-2.903,1.368c-0.21,0.18-0.234,0.495-0.054,0.705
	c0.099,0.116,0.239,0.175,0.379,0.175c0.115,0,0.231-0.04,0.325-0.121c1.157-0.991,2.323-1.129,2.349-1.132
	c0.274-0.027,0.475-0.271,0.448-0.545C17.534,9.428,17.29,9.217,17.015,9.252z M12.509,11.878c-0.095,0.085-2.324,2.116-2.722,4.637
	c-0.043,0.273,0.143,0.529,0.416,0.572c0.026,0.004,0.053,0.006,0.079,0.006c0.242,0,0.455-0.176,0.493-0.422
	c0.342-2.167,2.383-4.032,2.404-4.051c0.205-0.185,0.221-0.501,0.036-0.706C13.03,11.709,12.714,11.693,12.509,11.878z
	 M10.287,19.765c0-0.756,0.084-1.387,0.085-1.393c0.037-0.274-0.155-0.526-0.429-0.563c-0.278-0.034-0.525,0.156-0.563,0.428
	c-0.004,0.028-0.094,0.7-0.094,1.527c0,0.834,0.091,1.525,0.271,2.053c0.071,0.208,0.265,0.339,0.473,0.339
	c0.054,0,0.108-0.009,0.162-0.026c0.261-0.09,0.401-0.374,0.312-0.635C10.362,21.077,10.287,20.479,10.287,19.765z"/>
<path fill="#80007F" d="M16.575,32.474c0.046,0.039,1.16,0.942,3.02,1.085c0.276,0.021,0.516-0.184,0.537-0.46
	c0.012-0.152-0.045-0.292-0.145-0.392c-0.081-0.081-0.191-0.135-0.315-0.145c-1.519-0.117-2.441-0.845-2.461-0.861
	c-0.213-0.174-0.527-0.144-0.702,0.068C16.332,31.983,16.356,32.305,16.575,32.474z M21.618,33.803
	c0.127,0.007,3.14,0.147,5.204-1.354c0.224-0.162,0.273-0.475,0.11-0.698c-0.016-0.022-0.033-0.042-0.051-0.06
	c-0.171-0.171-0.446-0.197-0.647-0.05c-1.774,1.29-4.536,1.166-4.564,1.165c-0.275-0.014-0.511,0.198-0.524,0.473
	C21.13,33.555,21.342,33.79,21.618,33.803z M28.766,29.799c-0.535,0.535-1.04,0.921-1.045,0.925
	c-0.22,0.168-0.262,0.481-0.095,0.701c0.173,0.22,0.482,0.261,0.701,0.095c0.023-0.017,0.561-0.429,1.146-1.014
	c0.59-0.59,1.014-1.143,1.26-1.643c0.097-0.197,0.052-0.427-0.095-0.574c-0.038-0.038-0.083-0.07-0.133-0.096
	c-0.248-0.121-0.548-0.019-0.669,0.229C29.641,28.817,29.271,29.294,28.766,29.799z"/>
<path fill="#80007F" d="M16.44,22.424c-2.4,1.149-3.038,3.481-3.064,3.58c-0.07,0.267,0.089,0.54,0.356,0.61
	c0.043,0.012,0.085,0.017,0.128,0.017c0.221,0,0.424-0.148,0.483-0.373c0.005-0.02,0.542-1.98,2.529-2.932
	c0.249-0.119,0.354-0.418,0.235-0.667C16.988,22.409,16.687,22.304,16.44,22.424z M24.004,20.352l-4.969,0.906
	c-0.271,0.049-0.452,0.31-0.402,0.582c0.044,0.241,0.254,0.41,0.491,0.41c0.03,0,0.06-0.003,0.09-0.008l4.969-0.907
	c0.271-0.049,0.451-0.31,0.402-0.582C24.536,20.481,24.269,20.3,24.004,20.352z M28.949,15.721c-0.27-0.025-0.518,0.18-0.541,0.455
	c-0.192,2.224-2.559,3.527-2.583,3.54c-0.242,0.131-0.333,0.434-0.202,0.677c0.09,0.168,0.262,0.263,0.44,0.263
	c0.079,0,0.16-0.019,0.235-0.059c0.117-0.063,2.866-1.566,3.105-4.335C29.428,15.987,29.225,15.744,28.949,15.721z M29.799,13.916
	c-0.035-0.15-0.886-3.701-2.02-4.968c-0.188-0.207-0.503-0.224-0.706-0.039c-0.206,0.184-0.224,0.5-0.04,0.706
	c0.802,0.896,1.565,3.575,1.793,4.532c0.055,0.23,0.26,0.385,0.486,0.385c0.038,0,0.076-0.004,0.115-0.014
	C29.696,14.454,29.862,14.185,29.799,13.916z"/>
</svg>
