<?xml version="1.0" encoding="utf-8"?>
<!-- Generator: Adobe Illustrator 17.0.0, SVG Export Plug-In . SVG Version: 6.00 Build 0)  -->
<!DOCTYPE svg PUBLIC "-//W3C//DTD SVG 1.1//EN" "http://www.w3.org/Graphics/SVG/1.1/DTD/svg11.dtd">
<svg version="1.1" id="Layer_1" xmlns="http://www.w3.org/2000/svg" xmlns:xlink="http://www.w3.org/1999/xlink" x="0px" y="0px"
	 width="42px" height="42px" viewBox="0 0 42 42" enable-background="new 0 0 42 42" xml:space="preserve">
<g>
	<g>
		<polygon fill="#FFFFFF" points="11.719,3.063 13.031,7.688 14.781,6.313 16.594,8.625 15.656,3.625 14.156,5 		"/>
		<polygon fill="#FFFFFF" points="21.844,1.375 19.094,5.5 21.281,5.813 21.031,8.625 23.719,5.063 21.906,4.813 		"/>
		<polygon fill="#FFFFFF" points="29.781,3.313 25.656,6.125 27.344,7.25 26.031,10.5 30.281,7.625 28.656,6.125 		"/>
	</g>
	<path fill="#FFFFFF" d="M35.793,26.88c1.264-0.659,2.479-1.903,2.204-3.947c-0.165-1.226-0.588-1.999-1.07-2.507
		c-0.021-0.14-0.096-0.272-0.226-0.352c-0.238-0.146-0.478-0.246-0.719-0.324c-0.333-0.145-0.643-0.216-0.862-0.24
		c-0.516-1.49-2.908-7.03-10.131-7.758c-1.044-0.105-2.07-0.159-3.049-0.159c-3.475,0-5.843,0.657-7.254,1.231
		c-0.088-0.011-0.177-0.007-0.264,0.031c-0.222,0.099-0.412,0.223-0.589,0.358c-0.302,0.155-0.516,0.286-0.637,0.366
		c-0.828,0.101-5.03,0.773-6.349,4.135c-0.868,0.509-4.308,2.914-2.224,8.084c1.14,2.125,3.033,4.658,5.575,4.658
		c0.755,0,1.512-0.231,2.256-0.688c0.559,1.271,2.125,4.051,5.139,4.051c0.917,0,1.89-0.268,2.897-0.797
		c0.809,1.052,1.605,1.782,3.426,1.519c1.096,1.384,3.36,4.051,4.533,4.051c0.232,0,0.437-0.083,0.593-0.239
		c0.736-0.736,0.917-1.711,0.53-2.747c0.506-0.07,1.231-0.199,2.039-0.423c0.427-0.081,0.872-0.184,1.35-0.332
		c0.131-0.04,0.233-0.13,0.293-0.242c1.927-0.825,3.831-2.266,4.185-4.787C37.477,28.119,36.567,27.282,35.793,26.88z
		 M31.248,34.235c-3.544,0.604-4.901-1.187-4.964-1.274c-0.158-0.224-0.468-0.278-0.694-0.121c-0.227,0.158-0.282,0.47-0.124,0.696
		c0.053,0.077,0.908,1.218,2.851,1.653c0,0.089,0.021,0.177,0.068,0.255c0.357,0.596,0.642,1.443,0.009,2.14
		c-0.562-0.13-2.294-1.865-3.874-3.892c-0.096-0.123-0.242-0.193-0.395-0.193c-0.031,0-0.062,0.003-0.092,0.009
		c-1.645,0.306-2.066-0.179-3.008-1.434c-0.153-0.204-0.434-0.261-0.653-0.131c-0.991,0.582-1.926,0.876-2.781,0.876
		c-3.093,0-4.416-3.935-4.428-3.975c-0.051-0.154-0.173-0.274-0.328-0.323c-0.157-0.047-0.324-0.019-0.453,0.081
		c-0.737,0.566-1.473,0.854-2.186,0.854c-0.78,0-1.501-0.342-2.143-0.846c-0.004-0.153-0.07-0.303-0.206-0.397
		c-0.549-0.381-0.836-0.779-0.854-1.183c-0.027-0.645,0.616-1.191,0.635-1.208c0.213-0.174,0.245-0.488,0.071-0.702
		c-0.175-0.213-0.488-0.246-0.704-0.073c-0.033,0.027-0.643,0.539-0.894,1.306c-0.225-0.35-0.419-0.686-0.577-0.979
		c-1.631-4.054,0.633-6.032,1.569-6.646c0.035-0.007,0.07-0.007,0.104-0.021c1.581-0.684,2.61-0.067,2.658-0.038
		c0.232,0.149,0.538,0.082,0.688-0.149s0.084-0.541-0.147-0.692c-0.047-0.03-0.923-0.571-2.285-0.4
		c1.137-1.853,3.496-2.537,4.647-2.765c-0.633,1.611-0.273,3.56-0.25,3.679c0.046,0.239,0.255,0.405,0.49,0.405
		c0.031,0,0.063-0.003,0.096-0.009c0.271-0.052,0.448-0.314,0.396-0.586c-0.006-0.032-0.535-2.9,0.874-4.085
		c1.102-0.548,3.557-1.476,7.575-1.476c0.946,0,1.938,0.052,2.948,0.154c6.75,0.68,8.848,5.745,9.283,7.063
		c-1.416,0.559-2.264,2.137-2.302,2.209c-0.127,0.245-0.032,0.547,0.213,0.674c0.074,0.038,0.152,0.056,0.23,0.056
		c0.181,0,0.355-0.098,0.444-0.27c0.215-0.414,0.985-1.546,1.958-1.815c0.316-0.087,0.632-0.071,0.954,0.032
		c0.534,0.272,1.138,0.903,1.335,2.369c0.307,2.283-1.872,3.09-2.678,3.309c-8.303-0.055-10.893,3.936-11.001,4.11
		c-0.146,0.234-0.074,0.542,0.161,0.688c0.082,0.051,0.173,0.075,0.263,0.075c0.167,0,0.331-0.083,0.425-0.236
		c0.023-0.037,2.327-3.561,9.723-3.638c0.066,0.035,0.136,0.06,0.215,0.062c0.243,0.007,2.375,0.133,2.33,2.305
		C36.065,32.427,33.343,33.669,31.248,34.235z"/>
</g>
</svg>
