<?xml version="1.0" encoding="utf-8"?>
<!-- Generator: Adobe Illustrator 17.0.0, SVG Export Plug-In . SVG Version: 6.00 Build 0)  -->
<!DOCTYPE svg PUBLIC "-//W3C//DTD SVG 1.1//EN" "http://www.w3.org/Graphics/SVG/1.1/DTD/svg11.dtd">
<svg version="1.1" id="Layer_1" xmlns="http://www.w3.org/2000/svg" xmlns:xlink="http://www.w3.org/1999/xlink" x="0px" y="0px"
	 width="24px" height="28px" viewBox="0 0 42 42" enable-background="new 0 0 42 42" xml:space="preserve">
<g>
	<g>
		<path fill="#FFFFFF" d="M12.502,2.559H1.755c-0.476,0-0.853,0.386-0.853,0.853v35.175c0,0.476,0.386,0.853,0.853,0.853h10.746
			c0.476,0,0.853-0.386,0.853-0.853V3.413C13.355,2.937,12.977,2.559,12.502,2.559z M11.648,37.734H2.617V4.266h9.032V37.734z"/>
		<path fill="#FFFFFF" d="M7.129,34.182c1.772,0,3.207-1.444,3.207-3.207c0-1.772-1.444-3.207-3.207-3.207
			c-1.772,0-3.207,1.444-3.207,3.207C3.921,32.739,5.357,34.182,7.129,34.182z M7.129,29.466c0.829,0,1.501,0.673,1.501,1.501
			c0,0.829-0.673,1.501-1.501,1.501s-1.501-0.673-1.501-1.501C5.627,30.138,6.3,29.466,7.129,29.466z"/>
		<path fill="#FFFFFF" d="M4.774,9.532h4.709c0.476,0,0.853-0.386,0.853-0.853c0-0.468-0.386-0.853-0.853-0.853H4.774
			c-0.476,0-0.853,0.386-0.853,0.853C3.921,9.146,4.298,9.532,4.774,9.532z"/>
		<path fill="#FFFFFF" d="M4.774,14.241h4.709c0.476,0,0.853-0.386,0.853-0.853c0-0.476-0.386-0.853-0.853-0.853H4.774
			c-0.476,0-0.853,0.386-0.853,0.853C3.921,13.863,4.298,14.241,4.774,14.241z"/>
		<path fill="#FFFFFF" d="M26.373,2.559H15.627c-0.476,0-0.853,0.386-0.853,0.853v35.175c0,0.476,0.386,0.853,0.853,0.853h10.746
			c0.476,0,0.853-0.386,0.853-0.853V3.413C27.226,2.937,26.841,2.559,26.373,2.559z M25.52,37.734h-9.04V4.266h9.032v33.469H25.52z"
			/>
		<path fill="#FFFFFF" d="M21,34.182c1.772,0,3.207-1.444,3.207-3.207c0-1.772-1.444-3.207-3.207-3.207
			c-1.772,0-3.216,1.444-3.216,3.207C17.784,32.739,19.228,34.182,21,34.182z M21,29.466c0.829,0,1.501,0.673,1.501,1.501
			c0,0.829-0.673,1.501-1.501,1.501c-0.829,0-1.501-0.673-1.501-1.501C19.499,30.138,20.171,29.466,21,29.466z"/>
		<path fill="#FFFFFF" d="M18.646,9.532h4.709c0.476,0,0.853-0.386,0.853-0.853c0-0.468-0.386-0.853-0.853-0.853h-4.709
			c-0.476,0-0.853,0.386-0.853,0.853C17.793,9.146,18.17,9.532,18.646,9.532z"/>
		<path fill="#FFFFFF" d="M18.646,14.241h4.709c0.476,0,0.853-0.386,0.853-0.853c0-0.476-0.386-0.853-0.853-0.853h-4.709
			c-0.476,0-0.853,0.386-0.853,0.853C17.784,13.863,18.17,14.241,18.646,14.241z"/>
		<path fill="#FFFFFF" d="M40.245,2.559H29.498c-0.476,0-0.853,0.386-0.853,0.853v35.175c0,0.476,0.386,0.853,0.853,0.853h10.746
			c0.476,0,0.853-0.386,0.853-0.853V3.413C41.098,2.937,40.712,2.559,40.245,2.559z M39.383,37.734h-9.032V4.266h9.032V37.734z"/>
		<path fill="#FFFFFF" d="M34.871,34.182c1.772,0,3.207-1.444,3.207-3.207c0-1.772-1.444-3.207-3.207-3.207
			s-3.207,1.444-3.207,3.207C31.656,32.739,33.1,34.182,34.871,34.182z M34.871,29.466c0.829,0,1.501,0.673,1.501,1.501
			c0,0.829-0.673,1.501-1.501,1.501c-0.829,0-1.501-0.673-1.501-1.501C33.37,30.138,34.043,29.466,34.871,29.466z"/>
		<path fill="#FFFFFF" d="M32.517,9.532h4.709c0.476,0,0.853-0.386,0.853-0.853c0-0.468-0.386-0.853-0.853-0.853h-4.709
			c-0.476,0-0.853,0.386-0.853,0.853C31.664,9.146,32.041,9.532,32.517,9.532z"/>
		<path fill="#FFFFFF" d="M32.517,14.241h4.709c0.476,0,0.853-0.386,0.853-0.853c0-0.476-0.386-0.853-0.853-0.853h-4.709
			c-0.476,0-0.853,0.386-0.853,0.853C31.656,13.863,32.041,14.241,32.517,14.241z"/>
	</g>
</g>
</svg>
