<?xml version="1.0" encoding="utf-8"?>
<!-- Generator: Adobe Illustrator 17.0.0, SVG Export Plug-In . SVG Version: 6.00 Build 0)  -->
<!DOCTYPE svg PUBLIC "-//W3C//DTD SVG 1.1//EN" "http://www.w3.org/Graphics/SVG/1.1/DTD/svg11.dtd">
<svg version="1.1" id="Layer_1" xmlns="http://www.w3.org/2000/svg" xmlns:xlink="http://www.w3.org/1999/xlink" x="0px" y="0px"
	 width="42px" height="42px" viewBox="0 0 42 42" enable-background="new 0 0 42 42" xml:space="preserve">
<g>
	<g>
		<path fill="#FFFFFF" d="M38.84,16.827l-2.79-0.473c-0.291-0.938-0.664-1.843-1.121-2.707l1.644-2.3
			c0.698-0.98,0.59-2.317-0.266-3.164l-2.474-2.474c-0.465-0.465-1.079-0.722-1.735-0.722c-0.515,0-1.005,0.158-1.42,0.457
			l-2.308,1.644c-0.897-0.473-1.835-0.864-2.807-1.154l-0.465-2.757c-0.199-1.187-1.221-2.051-2.425-2.051h-3.496
			c-1.204,0-2.225,0.864-2.425,2.051l-0.482,2.823c-0.93,0.291-1.835,0.673-2.699,1.138l-2.284-1.644
			c-0.415-0.299-0.913-0.457-1.428-0.457c-0.656,0-1.279,0.257-1.735,0.722L5.642,8.233c-0.847,0.847-0.963,2.184-0.266,3.164
			l1.661,2.333c-0.457,0.872-0.822,1.777-1.104,2.715L3.176,16.91c-1.187,0.199-2.051,1.221-2.051,2.425v3.496
			c0,1.204,0.864,2.225,2.051,2.425l2.823,0.482c0.291,0.93,0.673,1.835,1.138,2.699l-1.636,2.275
			c-0.698,0.98-0.59,2.317,0.266,3.164l2.474,2.474c0.465,0.465,1.079,0.722,1.735,0.722c0.515,0,1.005-0.158,1.42-0.457
			l2.333-1.661c0.839,0.44,1.719,0.797,2.624,1.079l0.465,2.79c0.199,1.187,1.221,2.051,2.425,2.051h3.504
			c1.204,0,2.225-0.864,2.425-2.051l0.473-2.79c0.938-0.291,1.843-0.664,2.707-1.121l2.3,1.644c0.415,0.299,0.913,0.457,1.428,0.457
			l0,0c0.656,0,1.27-0.257,1.735-0.722l2.474-2.474c0.847-0.847,0.963-2.184,0.266-3.164l-1.644-2.308
			c0.457-0.872,0.839-1.777,1.121-2.707l2.79-0.465c1.187-0.199,2.051-1.221,2.051-2.425v-3.496
			C40.891,18.048,40.028,17.027,38.84,16.827z M38.649,22.748c0,0.108-0.075,0.199-0.183,0.216l-3.488,0.581
			c-0.44,0.075-0.789,0.399-0.897,0.822c-0.316,1.221-0.797,2.391-1.445,3.479c-0.224,0.382-0.208,0.855,0.05,1.221l2.051,2.89
			c0.058,0.083,0.05,0.208-0.025,0.282l-2.474,2.474c-0.058,0.058-0.116,0.066-0.158,0.066c-0.05,0-0.091-0.017-0.125-0.042
			l-2.881-2.051c-0.357-0.257-0.839-0.274-1.221-0.05c-1.088,0.648-2.259,1.129-3.479,1.445c-0.432,0.108-0.756,0.465-0.822,0.897
			l-0.59,3.488c-0.017,0.108-0.108,0.183-0.216,0.183h-3.496c-0.108,0-0.199-0.075-0.216-0.183l-0.581-3.488
			c-0.075-0.44-0.399-0.789-0.822-0.897c-1.187-0.307-2.333-0.781-3.405-1.395c-0.174-0.1-0.374-0.149-0.565-0.149
			c-0.224,0-0.457,0.066-0.648,0.208l-2.906,2.068c-0.042,0.025-0.083,0.042-0.125,0.042c-0.033,0-0.1-0.008-0.158-0.066
			l-2.474-2.474c-0.075-0.075-0.083-0.191-0.025-0.282l2.043-2.865c0.257-0.365,0.274-0.847,0.05-1.229
			c-0.648-1.079-1.146-2.25-1.461-3.471c-0.116-0.423-0.465-0.747-0.897-0.822L3.55,23.047c-0.108-0.017-0.183-0.108-0.183-0.216
			v-3.496c0-0.108,0.075-0.199,0.183-0.216l3.463-0.581c0.44-0.075,0.797-0.399,0.905-0.83c0.307-1.221,0.781-2.4,1.42-3.488
			c0.224-0.382,0.199-0.855-0.058-1.212l-2.068-2.906c-0.058-0.083-0.05-0.208,0.025-0.282l2.474-2.474
			c0.058-0.058,0.116-0.066,0.158-0.066c0.05,0,0.091,0.017,0.125,0.042l2.865,2.043c0.365,0.257,0.847,0.274,1.229,0.05
			c1.079-0.648,2.25-1.146,3.471-1.461c0.423-0.116,0.747-0.465,0.822-0.897l0.598-3.512c0.017-0.108,0.108-0.183,0.216-0.183h3.496
			c0.108,0,0.199,0.075,0.216,0.183l0.581,3.463c0.075,0.44,0.399,0.797,0.83,0.905c1.254,0.316,2.45,0.805,3.562,1.461
			c0.382,0.224,0.855,0.208,1.221-0.05l2.865-2.059c0.042-0.025,0.083-0.042,0.125-0.042c0.033,0,0.1,0.008,0.158,0.066l2.474,2.474
			c0.075,0.075,0.083,0.191,0.025,0.282l-2.051,2.881c-0.257,0.357-0.274,0.839-0.05,1.221c0.648,1.088,1.129,2.259,1.445,3.479
			c0.108,0.432,0.465,0.756,0.897,0.822l3.488,0.59c0.108,0.017,0.183,0.108,0.183,0.216v3.496H38.649z"/>
		<path fill="#FFFFFF" d="M21.004,12.418c-4.733,0-8.578,3.845-8.578,8.578s3.845,8.578,8.578,8.578s8.578-3.845,8.578-8.578
			S25.737,12.418,21.004,12.418z M21.004,27.332c-3.496,0-6.336-2.84-6.336-6.336s2.84-6.336,6.336-6.336s6.336,2.84,6.336,6.336
			S24.5,27.332,21.004,27.332z"/>
	</g>
</g>
</svg>
