<?xml version="1.0" encoding="utf-8"?>
<!-- Generator: Adobe Illustrator 17.0.0, SVG Export Plug-In . SVG Version: 6.00 Build 0)  -->
<!DOCTYPE svg PUBLIC "-//W3C//DTD SVG 1.1//EN" "http://www.w3.org/Graphics/SVG/1.1/DTD/svg11.dtd">
<svg version="1.1" id="Capa_1" xmlns="http://www.w3.org/2000/svg" xmlns:xlink="http://www.w3.org/1999/xlink" x="0px" y="0px"
	 width="48.827px" height="48.827px" viewBox="0 0 48.827 48.827" enable-background="new 0 0 48.827 48.827" xml:space="preserve">
<g>
	<g>
		<g>
			<path d="M45.64,7.992l-3.906-3.901C41.33,3.688,40.8,3.486,40.271,3.486c-0.53,0-1.061,0.201-1.463,0.605l-3.125,3.116
				l6.832,6.82l3.125-3.115C46.447,10.104,46.447,8.796,45.64,7.992z"/>
			<polygon points="15.402,27.451 22.234,34.271 41.053,15.487 34.221,8.666 			"/>
			<polygon points="13.927,28.909 12.468,37.184 20.759,35.729 			"/>
			<path d="M32.814,40.87H7.054V15.111h18.179l4.48-4.471H5.474c-1.591,0-2.892,1.301-2.892,2.892V42.45
				c0,1.59,1.301,2.891,2.892,2.891h28.919c1.589,0,2.89-1.301,2.89-2.891V21.774l-4.471,4.464L32.814,40.87L32.814,40.87z"/>
		</g>
	</g>
</g>
</svg>
