<?xml version="1.0" encoding="utf-8"?>
<!-- Generator: Adobe Illustrator 17.0.0, SVG Export Plug-In . SVG Version: 6.00 Build 0)  -->
<!DOCTYPE svg PUBLIC "-//W3C//DTD SVG 1.1//EN" "http://www.w3.org/Graphics/SVG/1.1/DTD/svg11.dtd">
<svg version="1.1" id="Layer_1" xmlns="http://www.w3.org/2000/svg" xmlns:xlink="http://www.w3.org/1999/xlink" x="0px" y="0px"
	 width="42px" height="42px" viewBox="0 0 42 42" enable-background="new 0 0 42 42" xml:space="preserve">
<g>
	<g>
		<path fill="#80007F" d="M15.399,13.421c-1.55,0-2.81-1.261-2.81-2.81s1.261-2.81,2.81-2.81s2.81,1.261,2.81,2.81
			S16.949,13.421,15.399,13.421z M15.399,8.649c-1.082,0-1.962,0.88-1.962,1.962s0.88,1.962,1.962,1.962s1.962-0.88,1.962-1.962
			S16.48,8.649,15.399,8.649z"/>
	</g>
	<g>
		<path fill="#80007F" d="M27.16,14.018c-2.064,0-3.744-1.679-3.744-3.744s1.68-3.744,3.744-3.744s3.744,1.679,3.744,3.744
			S29.224,14.018,27.16,14.018z M27.16,7.661c-1.441,0-2.614,1.173-2.614,2.614s1.172,2.614,2.614,2.614
			c1.441,0,2.614-1.173,2.614-2.614S28.602,7.661,27.16,7.661z"/>
	</g>
	<g>
		<path fill="#333333" d="M12.266,21.828c-1.1,0-1.528-1.131-1.601-1.728l-0.012-0.097l2.053-5.993l0.168-0.075
			c0.349-0.157,0.678-0.236,0.978-0.236c0.938,0,1.368,0.759,1.464,1.16l0.021,0.087l-0.15,0.817
			c0.821-0.715,2.043-1.622,3.184-1.857c0.109-0.022,0.219-0.034,0.329-0.034c1.925,0,3.114,3.433,3.243,3.824l0.081,0.245
			l-2.635,2.695l-2.975,0.061l-0.605-1.096l1.244-1.244L17,18.283l-4.135,3.441C12.657,21.793,12.456,21.828,12.266,21.828z
			 M11.523,20.084c0.057,0.278,0.3,1.052,1,0.857l4.633-3.899l1.006,1.408l-1.301,1.302l0.049,0.089l2.115-0.045l2.027-2.073
			c-0.388-1.034-1.44-3.205-2.511-2.985c-1.651,0.34-3.678,2.502-3.699,2.525l-0.992,1.065l0.616-3.342
			c-0.058-0.148-0.221-0.438-0.616-0.438c-0.137,0-0.293,0.032-0.465,0.094L11.523,20.084z"/>
	</g>
	<g>
		<path fill="#333333" d="M27.324,28.869l-2.051-6.152l-3.256,2.949l-6.953,0.222l-0.1-0.035c-0.065-0.023-1.578-0.577-1.578-2.299
			c0-1.444,1.19-2.013,1.819-2.112l4.815-0.14c1.018-1.333,5.43-6.865,8.629-6.865c0.249,0,0.491,0.033,0.716,0.098
			c5.45,1.717,6.981,12.851,7.044,13.325l0.081,0.611L27.324,28.869z M25.798,20.717l2.329,6.986l7.065-0.308
			c-0.393-2.318-2.061-10.489-6.153-11.78c-0.11-0.032-0.246-0.05-0.39-0.05c-2.429,0-6.517,4.786-7.887,6.629l-0.163,0.221
			l-5.289,0.149c-0.068,0.018-0.793,0.188-0.793,0.989c0,0.755,0.535,1.094,0.743,1.198l6.308-0.202L25.798,20.717z"/>
	</g>
	<g>
		
			<rect x="8.154" y="9.471" transform="matrix(0.9529 0.3032 -0.3032 0.9529 3.4706 -2.5634)" fill="#80007F" width="3.672" height="0.848"/>
	</g>
	<g>
		<rect x="8.055" y="11.327" fill="#80007F" width="3.446" height="0.848"/>
	</g>
	<g>
		
			<rect x="9.858" y="11.283" transform="matrix(0.4562 0.8899 -0.8899 0.4562 17.7004 -1.7503)" fill="#80007F" width="0.848" height="4.648"/>
	</g>
	<circle fill="#80007F" cx="6.412" cy="11.672" r="0.901"/>
	<g>
		<path fill="#333333" d="M20.182,35.47c-0.577,0-1.004-0.461-1.27-1.369c-0.343-1.171-0.476-6.728-0.49-7.358l-0.012-0.524h3.679
			l2.488-2.204l3.179,9.344l-0.046,0.156c-0.081,0.278-0.54,1.665-1.537,1.665l0,0c-0.839,0-1.381-0.98-1.714-1.717l-1.276-4.031
			l-0.505,0.16l-0.758,4.299C21.735,34.262,21.064,35.47,20.182,35.47z M19.461,27.245c0.064,2.419,0.222,5.833,0.436,6.567
			c0.133,0.453,0.261,0.593,0.299,0.627c0.172-0.051,0.533-0.493,0.772-0.94l0.803-4.693l2.08-0.664l1.564,4.956
			c0.454,0.995,0.754,1.056,0.757,1.056c0.113-0.017,0.357-0.379,0.503-0.781l-2.575-7.565l-1.623,1.438H19.461z"/>
	</g>
</g>
</svg>
