<?xml version="1.0" encoding="utf-8"?>
<!-- Generator: Adobe Illustrator 17.0.0, SVG Export Plug-In . SVG Version: 6.00 Build 0)  -->
<!DOCTYPE svg PUBLIC "-//W3C//DTD SVG 1.1//EN" "http://www.w3.org/Graphics/SVG/1.1/DTD/svg11.dtd">
<svg version="1.1" id="Layer_1" xmlns="http://www.w3.org/2000/svg" xmlns:xlink="http://www.w3.org/1999/xlink" x="0px" y="0px"
	 width="42px" height="42px" viewBox="0 0 42 42" enable-background="new 0 0 42 42" xml:space="preserve">
<path fill="#FFFFFF" d="M18.289,11h0.068c-0.142,0-3.525-0.252-7.313,1.497c-3.519,1.625-8.23,4.958-9.843,12.277
	C1.185,24.844,1,24.781,1,24.852v7.688c0,0.007,0,0.015,0,0.022c0,0.044,0.205,1.085,0.57,2.177
	c0.692,2.075,2.074,2.894,3.038,3.025C4.651,37.77,4.785,38,4.829,38h9.822c0.014,0,0.028,0,0.042,0c0.124,0,1.239-0.297,2.36-0.947
	c1.093-0.633,2.373-2.04,2.276-4.609l0.006-9.31l2.313-2.808l2.197,2.614l0.008,9.397c-0.097,2.569,1.184,4.086,2.278,4.72
	C27.253,37.706,28.37,38,28.493,38c0.014,0,0.028,0,0.042,0h9.822c0.044,0,0.089-0.23,0.133-0.236
	c1.363-0.186,2.5-1.294,3.035-2.915C41.885,33.756,42,32.602,42,32.558c0-0.006,0-0.012,0-0.018v-7.688
	c0-0.071-0.099-0.139-0.114-0.209c-1.613-7.319-6.191-10.521-9.708-12.146C28.391,10.748,24.964,11,24.822,11h-0.001
	c-0.261,0-0.512-0.172-0.696,0.012c-0.185,0.185-0.289,0.294-0.289,0.556l0.007,8.351c0,0-0.844-1.402-0.844-1.414V5.455
	c0-0.544-0.956-0.985-1.5-0.985c-0.544,0-1.5,0.441-1.5,0.985v13.05c0,0.007-0.846,1.491-0.846,1.491l0.063-8.29
	C19.217,11.706,19.113,11,18.289,11z M18,32.388c0,1.279-0.675,2.375-1.564,2.914C15.771,35.706,14.735,36,14.619,36H4.906
	C3.474,36,3,32.668,3,32.524V24.96c1-5.161,4.179-8.835,8.64-10.92c2.25-1.052,4.779-1.422,5.972-1.553L18,32.348
	C18,32.361,18,32.375,18,32.388z M40,32.525C40,32.67,39.708,36,38.28,36h-9.715c-0.1,0-0.703-0.288-1.357-0.667
	C26.282,34.797,26,33.691,26,32.388c0-0.014,0-0.027,0-0.041c0,0-0.102-9.132-0.097-10.072l-0.052-9.789
	c1.176,0.127,3.318,0.49,5.553,1.523C35.902,16.088,39,19.772,40,24.96V32.525z"/>
</svg>
