<?xml version="1.0" encoding="utf-8"?>
<!-- Generator: Adobe Illustrator 17.0.0, SVG Export Plug-In . SVG Version: 6.00 Build 0)  -->
<!DOCTYPE svg PUBLIC "-//W3C//DTD SVG 1.1//EN" "http://www.w3.org/Graphics/SVG/1.1/DTD/svg11.dtd">
<svg version="1.1" id="Capa_1" xmlns="http://www.w3.org/2000/svg" xmlns:xlink="http://www.w3.org/1999/xlink" x="0px" y="0px"
	 width="42px" height="42px" viewBox="0 0 42 42" enable-background="new 0 0 42 42" xml:space="preserve">
<g>
	<g>
		<path fill="#FFFFFF" d="M21.143,17.012L21.143,17.012l-0.142-0.002c-1.021-0.039-1.966-0.472-2.662-1.221
			c-0.696-0.751-1.057-1.726-1.019-2.746c0.037-0.967,0.433-1.876,1.117-2.561c0.713-0.713,1.7-1.122,2.708-1.122l0.142,0.002
			c1.022,0.039,1.967,0.473,2.661,1.223c0.694,0.748,1.057,1.723,1.018,2.745c-0.035,0.967-0.433,1.877-1.117,2.562
			C23.137,16.603,22.151,17.012,21.143,17.012z M21.207,11.361c-0.546,0-1.016,0.195-1.354,0.534
			c-0.327,0.327-0.516,0.761-0.533,1.223c-0.019,0.487,0.154,0.952,0.486,1.311c0.331,0.356,0.782,0.563,1.27,0.582l0.067,0.001l0,0
			c0.481,0,0.952-0.195,1.292-0.535c0.327-0.327,0.516-0.761,0.533-1.222c0.018-0.488-0.154-0.953-0.486-1.311
			c-0.331-0.358-0.781-0.565-1.269-0.583C21.211,11.361,21.209,11.361,21.207,11.361z"/>
	</g>
	<g>
		<path fill="#FFFFFF" d="M18.028,26.999c-0.069,0-0.139-0.007-0.208-0.022c-0.54-0.114-0.885-0.646-0.771-1.186l0.032-0.255
			c0.007-0.048,0.013-0.096,0.02-0.14c-0.017-0.105-0.027-0.211-0.031-0.314l-0.173-2.267l-2.143-2.564
			c-0.465-0.558-1.012-1.49-1.271-2.169l-1.924-5.045c-0.363-0.957-0.113-2.094,0.624-2.831c0.196-0.197,0.421-0.36,0.667-0.484
			l0.414-0.209c0.628-0.318,1.354-0.356,1.99-0.103c0.64,0.253,1.142,0.778,1.377,1.44c0.08,0.224,0.077,0.47-0.008,0.692l0,0
			c0.001,0-0.49,1.638,1.15,4.881c0.181,0.305,1.304,1.336,1.866,1.816l4.206-0.144c0.206-0.248,0.769-1.032,1.325-2.958
			c0.35-1.208-0.131-3.139-0.345-3.781c-0.046-0.138-0.062-0.285-0.046-0.429c0.064-0.565,0.306-1.071,0.698-1.463
			c0.589-0.588,1.43-0.828,2.259-0.641l0.454,0.104c1.311,0.298,2.199,1.58,2.02,2.917l-0.725,5.375
			c-0.097,0.719-0.413,1.754-0.734,2.408l-1.828,3.718c-0.004,0.007-0.008,0.015-0.012,0.022l-0.158,1.972
			c-0.003,0.072-0.012,0.155-0.026,0.243c0.005,0.064,0.008,0.122,0.007,0.18c-0.008,0.548-0.454,0.987-1,0.987
			c-0.004,0-0.009,0-0.014,0c-0.548-0.007-0.987-0.455-0.986-1.001c-0.002-0.016-0.012-0.101-0.012-0.104
			c-0.013-0.114-0.005-0.229,0.021-0.341c0.001-0.013,0.015-0.111,0.016-0.124l0.179-2.218c0.014-0.167,0.068-0.327,0.159-0.466
			c0.01-0.014,0.052-0.075,0.063-0.089l1.797-3.662c0.229-0.463,0.479-1.284,0.547-1.792l0.725-5.374
			c0.04-0.3-0.189-0.634-0.482-0.701l-0.454-0.104c-0.149-0.034-0.298,0.003-0.399,0.105c-0.035,0.036-0.063,0.075-0.084,0.121
			c0.233,0.792,0.78,2.979,0.284,4.695c-0.964,3.329-2.104,4.121-2.431,4.284c-0.129,0.064-0.27,0.1-0.413,0.105l-4.917,0.167
			c-0.842-0.025-3.173-2.588-3.343-2.923c-1.563-3.092-1.515-5.099-1.362-5.989c-0.032-0.029-0.068-0.052-0.107-0.067
			c-0.106-0.042-0.235-0.032-0.352,0.028l-0.415,0.21c-0.057,0.029-0.106,0.065-0.153,0.111c-0.185,0.185-0.256,0.481-0.17,0.707
			l1.923,5.043c0.182,0.477,0.611,1.209,0.937,1.601l2.284,2.734c0.012,0.012,0.024,0.024,0.033,0.034
			c0.151,0.166,0.243,0.376,0.26,0.6l0.2,2.638c0.003,0.076,0.009,0.113,0.019,0.154c0.035,0.142,0.038,0.29,0.009,0.433
			l-0.031,0.241c-0.026,0.194-0.056,0.393-0.058,0.403C18.905,26.677,18.49,26.999,18.028,26.999z"/>
	</g>
	<g>
		
			<path fill="#FFFFFF" stroke="#333333" stroke-width="2" stroke-linecap="round" stroke-linejoin="round" stroke-miterlimit="10" d="
			M21.805,31.439"/>
	</g>
	<path fill="#FFFFFF" d="M36.225,29.427c-1.588,0-2.432,0.634-3.111,1.144c-0.589,0.443-1.015,0.763-1.966,0.763
		s-1.377-0.32-1.966-0.763c-0.679-0.51-1.524-1.144-3.111-1.144s-2.431,0.634-3.11,1.144c-0.589,0.442-1.014,0.762-1.964,0.762
		c-0.951,0-1.376-0.32-1.965-0.762c-0.679-0.51-1.523-1.144-3.11-1.144s-2.431,0.634-3.11,1.144
		c-0.589,0.442-1.014,0.762-1.964,0.762s-1.375-0.32-1.963-0.762c-0.678-0.51-1.522-1.144-3.109-1.144
		c-0.526,0-0.953,0.427-0.953,0.953c0,0.526,0.427,0.953,0.953,0.953c0.95,0,1.375,0.32,1.964,0.762
		c0.678,0.51,1.522,1.144,3.109,1.144s2.431-0.634,3.11-1.144c0.589-0.442,1.014-0.762,1.964-0.762c0.951,0,1.376,0.32,1.965,0.762
		c0.679,0.51,1.523,1.144,3.11,1.144s2.431-0.634,3.11-1.144c0.589-0.442,1.014-0.762,1.964-0.762c0.951,0,1.377,0.32,1.966,0.763
		c0.679,0.51,1.524,1.144,3.111,1.144c1.588,0,2.432-0.634,3.111-1.144c0.589-0.443,1.015-0.763,1.966-0.763
		c0.526,0,0.953-0.427,0.953-0.953C37.179,29.854,36.752,29.427,36.225,29.427z"/>
	<path fill="#FFFFFF" d="M5.775,26.736c0.95,0,1.375,0.319,1.964,0.762c0.678,0.51,1.522,1.144,3.109,1.144s2.431-0.635,3.11-1.144
		c0.589-0.443,1.014-0.762,1.964-0.762c0.951,0,1.376,0.32,1.965,0.762c0.679,0.51,1.523,1.144,3.11,1.144s2.431-0.635,3.11-1.144
		c0.589-0.443,1.014-0.762,1.965-0.762s1.377,0.32,1.966,0.762c0.679,0.51,1.523,1.144,3.111,1.144s2.432-0.634,3.111-1.144
		c0.59-0.442,1.015-0.762,1.966-0.762c0.526,0,0.953-0.427,0.953-0.953s-0.427-0.953-0.953-0.953c-1.588,0-2.432,0.634-3.111,1.144
		c-0.589,0.442-1.015,0.762-1.966,0.762s-1.377-0.32-1.966-0.762c-0.679-0.51-1.524-1.144-3.111-1.144s-2.431,0.635-3.11,1.144
		c-0.589,0.443-1.014,0.762-1.965,0.762s-1.376-0.32-1.965-0.762c-0.679-0.51-1.523-1.144-3.11-1.144s-2.431,0.635-3.11,1.144
		c-0.589,0.442-1.014,0.762-1.964,0.762s-1.375-0.319-1.963-0.762c-0.678-0.51-1.523-1.144-3.109-1.144
		c-0.526,0-0.953,0.427-0.953,0.953C4.821,26.309,5.248,26.736,5.775,26.736z"/>
</g>
</svg>
