<?xml version="1.0" encoding="utf-8"?>
<!-- Generator: Adobe Illustrator 17.0.0, SVG Export Plug-In . SVG Version: 6.00 Build 0)  -->
<!DOCTYPE svg PUBLIC "-//W3C//DTD SVG 1.1//EN" "http://www.w3.org/Graphics/SVG/1.1/DTD/svg11.dtd">
<svg version="1.1" id="Layer_1" xmlns="http://www.w3.org/2000/svg" xmlns:xlink="http://www.w3.org/1999/xlink" x="0px" y="0px"
	 width="42px" height="42px" viewBox="0 0 42 42" enable-background="new 0 0 42 42" xml:space="preserve">
<g>
	<circle fill="#FFFFFF" cx="12.74" cy="25.057" r="1.573"/>
	<circle fill="#FFFFFF" cx="29.26" cy="25.057" r="1.573"/>
	<path fill="#FFFFFF" d="M40.806,24.39c0-2.278-1.652-4.177-3.82-4.565v-0.687c0-8.815-7.171-15.986-15.986-15.986
		S5.014,10.323,5.014,19.138v0.687c-2.169,0.388-3.82,2.287-3.82,4.565c0,2.298,1.68,4.209,3.876,4.575
		c0.309,3.522,1.92,6.124,4.804,7.743c2.565,1.439,6.204,2.14,11.125,2.14s8.561-0.7,11.125-2.14
		c2.883-1.619,4.495-4.221,4.804-7.743C39.126,28.599,40.806,26.688,40.806,24.39z M2.832,24.39c0-1.371,0.924-2.529,2.182-2.886
		v5.773C3.757,26.919,2.832,25.761,2.832,24.39z M35.349,27.676c0,3.595-1.317,6.083-4.024,7.603
		c-2.313,1.298-5.691,1.93-10.324,1.93s-8.011-0.631-10.324-1.93c-2.708-1.52-4.025-4.008-4.025-7.603v-8.539
		c0-6.479,4.317-11.969,10.226-13.744c4.502,0.057,6.899,3.306,6.899,5.659c0,1.802-1.466,3.268-3.268,3.268
		c-1.352,0-2.451-1.099-2.451-2.451c0-0.991,0.806-1.797,1.797-1.797c0.452,0,0.819-0.366,0.819-0.819
		c0-0.452-0.366-0.819-0.819-0.819c-1.893,0-3.435,1.54-3.435,3.435c0,2.254,1.834,4.089,4.089,4.089
		c2.705,0,4.905-2.201,4.905-4.905c0-1.699-0.854-3.528-2.284-4.891c-0.572-0.545-1.223-1.003-1.933-1.37
		c7.821,0.106,14.151,6.5,14.151,14.346L35.349,27.676L35.349,27.676z M36.986,27.276v-5.773c1.258,0.357,2.183,1.515,2.183,2.886
		C39.168,25.761,38.243,26.919,36.986,27.276z"/>
	<path fill="#FFFFFF" d="M24.166,27.312c-1.746,1.746-4.587,1.746-6.333,0c-0.32-0.32-0.838-0.32-1.158,0
		c-0.32,0.32-0.32,0.839,0,1.158c1.192,1.192,2.759,1.789,4.325,1.789c1.566,0,3.132-0.596,4.325-1.789
		c0.32-0.32,0.32-0.839,0-1.158C25.005,26.992,24.486,26.992,24.166,27.312z"/>
</g>
</svg>
