<?xml version="1.0" encoding="utf-8"?>
<!-- Generator: Adobe Illustrator 17.0.0, SVG Export Plug-In . SVG Version: 6.00 Build 0)  -->
<!DOCTYPE svg PUBLIC "-//W3C//DTD SVG 1.1//EN" "http://www.w3.org/Graphics/SVG/1.1/DTD/svg11.dtd">
<svg version="1.1" id="Layer_1" xmlns="http://www.w3.org/2000/svg" xmlns:xlink="http://www.w3.org/1999/xlink" x="0px" y="0px"
	 width="42px" height="42px" viewBox="0 0 42 42" enable-background="new 0 0 42 42" xml:space="preserve">
<g>
	<g>
		<g>
			<g>
				<circle fill="#FFFFFF" cx="16.44" cy="16.235" r="0.949"/>
			</g>
		</g>
	</g>
	<g>
		<g>
			<circle fill="#FFFFFF" cx="23.313" cy="16.235" r="0.949"/>
		</g>
	</g>
	<g>
		<g>
			<path fill="#FFFFFF" d="M29.797,31.959c-0.059-0.849-0.214-1.681-0.617-2.472c-0.633-1.246-1.715-2.235-2.996-2.787
				c-1.232-0.53-2.488-0.494-3.8-0.494v-1.423c2.233-0.759,4.015-2.502,4.827-4.71c1.463-0.109,2.621-1.333,2.621-2.824
				c0-1.304-0.912-2.434-2.144-2.746v-0.922c0-0.569-0.062-1.139-0.184-1.691c0,0-0.004-0.016-0.004-0.018
				c-0.381-1.705-1.342-3.254-2.706-4.361c-1.385-1.123-3.131-1.742-4.917-1.742s-3.533,0.619-4.917,1.742
				c-1.364,1.107-2.325,2.656-2.706,4.362l-0.003,0.014c-0.123,0.553-0.185,1.123-0.185,1.693v0.922
				c-1.232,0.312-2.144,1.441-2.144,2.746c0,1.49,1.157,2.715,2.621,2.824c0.812,2.208,2.594,3.951,4.827,4.71v1.423
				c-0.952,0-1.91-0.059-2.843,0.171c-1.11,0.274-2.146,0.858-2.938,1.685c-1.099,1.147-1.713,2.743-1.677,4.331
				c0.027,1.166,0.01,2.336,0.01,3.503c0,0.09,0,0.179,0,0.269c0,0.266,0.216,0.482,0.482,0.482h3.429h12.089h3.429
				c0.266,0,0.482-0.216,0.482-0.482c0-0.763,0-1.526,0-2.29C29.832,33.233,29.841,32.591,29.797,31.959z M27.523,18.981
				c0.234-1.124,0.164-2.283,0.164-3.424c0-0.003,0.003-0.043,0-0.044c0.691,0.277,1.18,0.96,1.18,1.735
				c0,0.853-0.575,1.575-1.358,1.797C27.515,19.024,27.519,19.003,27.523,18.981z M10.885,17.249c0-0.776,0.488-1.458,1.18-1.735
				c0,1.155-0.073,2.329,0.164,3.468c0.005,0.022,0.009,0.043,0.013,0.065C11.46,18.823,10.885,18.102,10.885,17.249z M13.35,35.683
				h-2.465v-3.469c0-0.078,0.002-0.155,0.006-0.232c0.001-0.017,0.002-0.034,0.003-0.051c0.004-0.077,0.01-0.155,0.018-0.231
				c0-0.001,0-0.003,0-0.004c0.008-0.079,0.018-0.158,0.03-0.237c0.001-0.007,0.002-0.014,0.003-0.021
				c0.234-1.511,1.142-2.802,2.405-3.557C13.35,27.881,13.35,35.683,13.35,35.683z M23.783,27.17l-2.54,3.564l-0.381-1.628
				l0.658-1.15c0.095-0.165,0.083-0.371-0.029-0.524L21.3,27.17h0.602H23.783z M20.071,28.549h-0.389l-0.458-0.801l0.423-0.578
				h0.459l0.423,0.578L20.071,28.549z M20.498,31.78l-0.622,0.873l-0.458-0.642l-0.164-0.231l0.53-2.267h0.183L20.498,31.78z
				 M20.35,26.206h-0.948h-1.07v-1.163c0.05,0.01,0.099,0.019,0.149,0.028c0.969,0.175,1.972,0.166,2.938-0.028v1.163H20.35z
				 M15.566,8.26c1.213-0.984,2.744-1.527,4.31-1.527s3.096,0.542,4.31,1.527c1.144,0.928,1.965,2.211,2.326,3.628
				c-0.002,0.003-0.004,0.005-0.006,0.008c-0.571,0.71-1.75,0.289-1.75-0.616c0-0.266-0.216-0.482-0.482-0.482
				s-0.482,0.216-0.482,0.482c0,0.543-0.441,0.984-0.984,0.984s-0.984-0.441-0.984-0.984c0-0.266-0.216-0.482-0.482-0.482
				s-0.482,0.216-0.482,0.482c0,0.339-0.172,0.639-0.434,0.816c-0.157,0.106-0.346,0.168-0.55,0.168
				c-0.441,0-0.815-0.291-0.94-0.692c-0.029-0.092-0.044-0.191-0.044-0.292c0-0.266-0.216-0.482-0.482-0.482
				s-0.482,0.216-0.482,0.482c0,0.543-0.441,0.984-0.984,0.984s-0.984-0.441-0.984-0.984c0-0.266-0.216-0.482-0.482-0.482
				c-0.266,0-0.482,0.216-0.482,0.482c0,0.102-0.016,0.2-0.044,0.292c-0.019,0.062-0.044,0.121-0.075,0.176
				c-0.045,0.084-0.103,0.16-0.17,0.227c-0.402,0.402-1.106,0.364-1.462-0.079c-0.002-0.003-0.004-0.005-0.006-0.008
				C13.601,10.471,14.422,9.189,15.566,8.26z M16.858,23.529c-1.711-0.844-3.012-2.418-3.552-4.242
				c-0.029-0.098-0.056-0.198-0.081-0.297c-0.325-1.314-0.196-2.738-0.196-4.082v-1.327c0-0.202,0.009-0.404,0.027-0.605
				c0.404,0.228,0.89,0.305,1.344,0.213c0.213-0.043,0.418-0.122,0.604-0.233c0.045-0.027,0.507-0.358,0.475-0.395
				c0.357,0.408,0.882,0.666,1.466,0.666s1.109-0.258,1.466-0.666c0.357,0.408,0.882,0.666,1.466,0.666
				c0.219,0,0.43-0.036,0.626-0.103c0.066-0.022,0.129-0.048,0.192-0.077c0.249-0.116,0.469-0.282,0.648-0.486
				c0.357,0.408,0.882,0.666,1.466,0.666s1.109-0.258,1.466-0.666c-0.03,0.034,0.411,0.356,0.455,0.383
				c0.178,0.109,0.373,0.188,0.577,0.235c0.467,0.107,0.974,0.033,1.392-0.202c0.018,0.201,0.027,0.403,0.027,0.605v1.327
				c0,2.38,0.108,4.722-1.467,6.68c-1.193,1.483-3.003,2.431-4.897,2.592C19.159,24.282,17.94,24.063,16.858,23.529z M17.851,27.17
				L17.851,27.17h0.602l-0.191,0.261c-0.112,0.154-0.124,0.359-0.029,0.524l0.658,1.15l-0.381,1.628l-2.54-3.563H17.851z
				 M25.439,35.683L25.439,35.683H14.314v-8.246c0.18-0.061,0.364-0.113,0.553-0.153l3.972,5.574l0.645,0.906
				c0.023,0.032,0.049,0.06,0.078,0.085c0.087,0.075,0.198,0.117,0.315,0.117c0.014,0,0.028-0.001,0.042-0.003
				c0.005,0,0.011,0,0.016-0.001c0.011-0.001,0.022-0.004,0.033-0.006c0.008-0.002,0.015-0.002,0.023-0.004
				c0.005-0.001,0.009-0.003,0.014-0.004c0.105-0.029,0.199-0.093,0.264-0.184l4.617-6.48c0.188,0.041,0.373,0.092,0.553,0.153
				C25.439,27.437,25.439,35.683,25.439,35.683z M26.403,35.683v-7.801c1.263,0.755,2.171,2.046,2.405,3.557
				c0.001,0.007,0.002,0.014,0.003,0.021c0.012,0.078,0.022,0.157,0.03,0.237c0,0.001,0,0.003,0,0.004
				c0.008,0.076,0.013,0.154,0.018,0.231c0.001,0.017,0.002,0.034,0.003,0.051c0.004,0.077,0.006,0.154,0.006,0.232v3.469
				L26.403,35.683L26.403,35.683z"/>
		</g>
	</g>
	<g>
		<g>
			<path fill="#FFFFFF" d="M22.712,19.653c-0.155-0.216-0.456-0.266-0.673-0.111c-0.452,0.324-1.281,0.525-2.163,0.525
				c-0.883,0-1.712-0.201-2.164-0.525c-0.216-0.155-0.517-0.105-0.673,0.111c-0.155,0.216-0.105,0.517,0.111,0.673
				c0.617,0.442,1.635,0.706,2.725,0.706c1.089,0,2.108-0.264,2.725-0.706C22.818,20.171,22.868,19.87,22.712,19.653z"/>
		</g>
	</g>
</g>
</svg>
