<?xml version="1.0" encoding="utf-8"?>
<!-- Generator: Adobe Illustrator 17.0.0, SVG Export Plug-In . SVG Version: 6.00 Build 0)  -->
<!DOCTYPE svg PUBLIC "-//W3C//DTD SVG 1.1//EN" "http://www.w3.org/Graphics/SVG/1.1/DTD/svg11.dtd">
<svg version="1.1" id="Layer_1" xmlns="http://www.w3.org/2000/svg" xmlns:xlink="http://www.w3.org/1999/xlink" x="0px" y="0px"
	 width="42px" height="42px" viewBox="0 0 42 42" enable-background="new 0 0 42 42" xml:space="preserve">
<g>
	<path fill="#FFFFFF" d="M13.366,40.133c-1.705,0-3.342-0.583-4.38-1.56c-1.568-1.294-0.161-3.401,0.68-4.66
		c0.149-0.224,0.285-0.426,0.385-0.596c0.577-0.981,2.886-4.796,3.331-5.532V16.471c-0.41,0.362-0.815,0.949-0.651,1.796
		c0.304,1.571,0.099,3.91-0.881,5.343c-0.47,0.687-1.068,1.1-1.778,1.229c-0.142,0.025-0.291-0.01-0.406-0.099
		c-0.115-0.09-0.187-0.224-0.198-0.369c-0.004-0.061-0.45-6.144-1.188-8.519c-0.16-0.363-0.359-1.336,6.172-5.558
		c0.083-0.054,0.18-0.082,0.279-0.082h6.226c0.186,0,0.357,0.1,0.448,0.262c0.093,0.165,2.204,3.939,2.594,6.407
		c2.775,1.532,5.113,4.088,5.264,5.787c0.046,0.521-0.124,0.961-0.48,1.237c-0.183,0.142-0.405,0.214-0.661,0.214c0,0,0,0-0.001,0
		c-0.874,0-2.036-0.842-3.709-2.126c-0.675-0.518-1.659-1.273-2.091-1.441c-0.196,0.581-0.067,2.257,0.206,3.682
		c0.495,0.601,2.793,3.532,2.731,6.082c-0.054,2.224-0.97,5.044-1.316,6.035c0.572,0.473,1.687,1.578,1.571,2.919
		c-0.025,0.266-0.247,0.47-0.513,0.47h-4.622c-0.057,0-0.114-0.01-0.168-0.028c-0.086-0.03-2.095-0.765-1.36-4.001
		c0.597-2.626,1.595-7.021-0.993-10.287c-0.015-0.018-0.029-0.034-0.043-0.051c-0.005,0.18-0.006,0.381-0.008,0.572
		c-0.011,1.777-0.03,4.752-1.889,7.354c-0.858,1.366-1.406,2.329-1.696,2.858c0.836,0.408,2.238,1.273,2.176,2.455
		C16.342,39.662,14.835,40.133,13.366,40.133z M13.895,15.026c0.101,0,0.201,0.03,0.287,0.088c0.142,0.096,0.227,0.255,0.227,0.426
		v12.389c0,0.094-0.026,0.186-0.074,0.266c-0.028,0.046-2.766,4.567-3.399,5.643c-0.109,0.185-0.255,0.404-0.416,0.646
		c-0.913,1.367-1.666,2.65-0.855,3.319c0.877,0.824,2.251,1.303,3.701,1.303c1.361,0,2-0.421,2.006-0.549
		c0.03-0.577-1.206-1.343-2.051-1.678c-0.134-0.053-0.239-0.16-0.29-0.294s-0.044-0.284,0.02-0.413
		c0.024-0.048,0.605-1.204,2.014-3.446c1.687-2.363,1.704-5.133,1.715-6.789c0.007-1.128,0.012-1.944,0.768-1.944
		c0.371,0,0.698,0.298,1.104,0.778c2.905,3.665,1.796,8.544,1.2,11.165c-0.463,2.039,0.392,2.647,0.633,2.775h3.959
		c-0.251-0.952-1.388-1.748-1.402-1.757c-0.196-0.133-0.276-0.383-0.193-0.605c0.013-0.035,1.318-3.546,1.38-6.059
		c0.059-2.406-2.546-5.463-2.572-5.494c-0.057-0.067-0.097-0.147-0.114-0.234c-0.177-0.882-0.695-3.833,0.032-4.779
		c0.145-0.189,0.365-0.292,0.619-0.292c0.613,0,1.438,0.61,2.841,1.687c1.052,0.807,2.493,1.913,3.083,1.913l0,0
		c0.058-0.019,0.141-0.083,0.118-0.334c-0.094-1.066-1.913-3.494-4.954-5.095c-0.151-0.079-0.253-0.229-0.271-0.399
		c-0.206-1.909-1.861-5.095-2.362-6.025h-5.77c-4.627,3.002-5.454,4.146-5.593,4.402c0.612,2.059,1.01,6.294,1.149,7.965
		c0.207-0.136,0.395-0.329,0.564-0.576c0.783-1.145,0.981-3.222,0.72-4.568c-0.368-1.902,1.134-3.054,1.98-3.398
		C13.764,15.039,13.83,15.026,13.895,15.026z"/>
</g>
<g>
	<path fill="#FFFFFF" d="M17.618,10.982c-2.513,0-4.558-2.045-4.558-4.558s2.045-4.558,4.558-4.558s4.558,2.045,4.558,4.558
		S20.131,10.982,17.618,10.982z M17.618,2.894c-1.947,0-3.53,1.584-3.53,3.53s1.584,3.53,3.53,3.53s3.53-1.584,3.53-3.53
		S19.565,2.894,17.618,2.894z"/>
</g>
<g>
	<path fill="#FFFFFF" d="M29.875,39.208c-1.999,0-3.625-1.626-3.625-3.625s1.626-3.625,3.625-3.625s3.625,1.626,3.625,3.625
		S31.874,39.208,29.875,39.208z M29.875,32.958c-1.447,0-2.625,1.178-2.625,2.625s1.178,2.625,2.625,2.625S32.5,37.03,32.5,35.583
		S31.323,32.958,29.875,32.958z"/>
</g>
</svg>
